<?xml version="1.0" encoding="utf-8" standalone="no"?>
<!DOCTYPE svg PUBLIC "-//W3C//DTD SVG 1.1//EN"
  "http://www.w3.org/Graphics/SVG/1.1/DTD/svg11.dtd">
<svg xmlns:xlink="http://www.w3.org/1999/xlink" width="100.735pt" height="352.8825pt" viewBox="0 0 100.735 352.8825" xmlns="http://www.w3.org/2000/svg" version="1.1">
 <metadata>
  <rdf:RDF xmlns:dc="http://purl.org/dc/elements/1.1/" xmlns:cc="http://creativecommons.org/ns#" xmlns:rdf="http://www.w3.org/1999/02/22-rdf-syntax-ns#">
   <cc:Work>
    <dc:type rdf:resource="http://purl.org/dc/dcmitype/StillImage"/>
    <dc:date>2026-05-19T21:58:33.754163</dc:date>
    <dc:format>image/svg+xml</dc:format>
    <dc:creator>
     <cc:Agent>
      <dc:title>Matplotlib v3.9.2, https://matplotlib.org/</dc:title>
     </cc:Agent>
    </dc:creator>
   </cc:Work>
  </rdf:RDF>
 </metadata>
 <defs>
  <style type="text/css">*{stroke-linejoin: round; stroke-linecap: butt}</style>
 </defs>
 <g id="figure_1">
  <g id="patch_1">
   <path d="M 0 352.8825 
L 100.735 352.8825 
L 100.735 0 
L 0 0 
z
" style="fill: #ffffff"/>
  </g>
  <g id="axes_1">
   <g id="patch_2">
    <path d="M 5.56 352.8825 
L 100.735 352.8825 
L 100.735 24.0425 
L 5.56 24.0425 
z
" style="fill: #ffffff"/>
   </g>
   <g id="patch_3">
    <path d="M 5.56 327.645942 
L 15.752195 327.645942 
L 15.752195 319.9985 
L 5.56 319.9985 
z
" clip-path="url(#pe193e98c87)" style="fill: #c16e71; opacity: 0.9"/>
   </g>
   <g id="patch_4">
    <path d="M 5.56 318.469012 
L 24.362821 318.469012 
L 24.362821 310.82157 
L 5.56 310.82157 
z
" clip-path="url(#pe193e98c87)" style="fill: #9da6b9; opacity: 0.9"/>
   </g>
   <g id="patch_5">
    <path d="M 5.56 309.292081 
L 60.690516 309.292081 
L 60.690516 301.64464 
L 5.56 301.64464 
z
" clip-path="url(#pe193e98c87)" style="fill: #d9a7be; opacity: 0.9"/>
   </g>
   <g id="patch_6">
    <path d="M 5.56 300.115151 
L 32.017865 300.115151 
L 32.017865 292.467709 
L 5.56 292.467709 
z
" clip-path="url(#pe193e98c87)" style="fill: #ddbf9f; opacity: 0.9"/>
   </g>
   <g id="patch_7">
    <path d="M 5.56 290.938221 
L 34.25801 290.938221 
L 34.25801 283.290779 
L 5.56 283.290779 
z
" clip-path="url(#pe193e98c87)" style="fill: #6e8fb2; opacity: 0.9"/>
   </g>
   <g id="patch_8">
    <path d="M 5.56 281.761291 
L 26.526996 281.761291 
L 26.526996 274.113849 
L 5.56 274.113849 
z
" clip-path="url(#pe193e98c87)" style="fill: #9e97b7; opacity: 0.9"/>
   </g>
   <g id="patch_9">
    <path d="M 5.56 272.58436 
L 28.14929 272.58436 
L 28.14929 264.936919 
L 5.56 264.936919 
z
" clip-path="url(#pe193e98c87)" style="fill: #eab67a; opacity: 0.9"/>
   </g>
   <g id="patch_10">
    <path d="M 5.56 263.40743 
L 34.226136 263.40743 
L 34.226136 255.759988 
L 5.56 255.759988 
z
" clip-path="url(#pe193e98c87)" style="fill: #7da494; opacity: 0.9"/>
   </g>
   <g id="patch_11">
    <path d="M 5.56 251.171523 
L 11.414795 251.171523 
L 11.414795 243.524081 
L 5.56 243.524081 
z
" clip-path="url(#pe193e98c87)" style="fill: #c16e71; opacity: 0.9"/>
   </g>
   <g id="patch_12">
    <path d="M 5.56 241.994593 
L 36.217772 241.994593 
L 36.217772 234.347151 
L 5.56 234.347151 
z
" clip-path="url(#pe193e98c87)" style="fill: #9da6b9; opacity: 0.9"/>
   </g>
   <g id="patch_13">
    <path d="M 5.56 232.817663 
L 68.015148 232.817663 
L 68.015148 225.170221 
L 5.56 225.170221 
z
" clip-path="url(#pe193e98c87)" style="fill: #d9a7be; opacity: 0.9"/>
   </g>
   <g id="patch_14">
    <path d="M 5.56 223.640733 
L 93.325684 223.640733 
L 93.325684 215.993291 
L 5.56 215.993291 
z
" clip-path="url(#pe193e98c87)" style="fill: #ddbf9f; opacity: 0.9"/>
   </g>
   <g id="patch_15">
    <path d="M 5.56 214.463802 
L 43.298909 214.463802 
L 43.298909 206.81636 
L 5.56 206.81636 
z
" clip-path="url(#pe193e98c87)" style="fill: #6e8fb2; opacity: 0.9"/>
   </g>
   <g id="patch_16">
    <path d="M 5.56 205.286872 
L 41.051826 205.286872 
L 41.051826 197.63943 
L 5.56 197.63943 
z
" clip-path="url(#pe193e98c87)" style="fill: #9e97b7; opacity: 0.9"/>
   </g>
   <g id="patch_17">
    <path d="M 5.56 196.109942 
L 42.193344 196.109942 
L 42.193344 188.4625 
L 5.56 188.4625 
z
" clip-path="url(#pe193e98c87)" style="fill: #eab67a; opacity: 0.9"/>
   </g>
   <g id="patch_18">
    <path d="M 5.56 186.933012 
L 46.782216 186.933012 
L 46.782216 179.28557 
L 5.56 179.28557 
z
" clip-path="url(#pe193e98c87)" style="fill: #7da494; opacity: 0.9"/>
   </g>
   <g id="patch_19">
    <path d="M 5.56 174.697105 
L 15.404753 174.697105 
L 15.404753 167.049663 
L 5.56 167.049663 
z
" clip-path="url(#pe193e98c87)" style="fill: #c16e71; opacity: 0.9"/>
   </g>
   <g id="patch_20">
    <path d="M 5.56 165.520174 
L 48.945665 165.520174 
L 48.945665 157.872733 
L 5.56 157.872733 
z
" clip-path="url(#pe193e98c87)" style="fill: #9da6b9; opacity: 0.9"/>
   </g>
   <g id="patch_21">
    <path d="M 5.56 156.343244 
L 27.932383 156.343244 
L 27.932383 148.695802 
L 5.56 148.695802 
z
" clip-path="url(#pe193e98c87)" style="fill: #d9a7be; opacity: 0.9"/>
   </g>
   <g id="patch_22">
    <path d="M 5.56 147.166314 
L 55.767709 147.166314 
L 55.767709 139.518872 
L 5.56 139.518872 
z
" clip-path="url(#pe193e98c87)" style="fill: #ddbf9f; opacity: 0.9"/>
   </g>
   <g id="patch_23">
    <path d="M 5.56 137.989384 
L 40.583027 137.989384 
L 40.583027 130.341942 
L 5.56 130.341942 
z
" clip-path="url(#pe193e98c87)" style="fill: #6e8fb2; opacity: 0.9"/>
   </g>
   <g id="patch_24">
    <path d="M 5.56 128.812453 
L 47.360703 128.812453 
L 47.360703 121.165012 
L 5.56 121.165012 
z
" clip-path="url(#pe193e98c87)" style="fill: #9e97b7; opacity: 0.9"/>
   </g>
   <g id="patch_25">
    <path d="M 5.56 119.635523 
L 96.202857 119.635523 
L 96.202857 111.988081 
L 5.56 111.988081 
z
" clip-path="url(#pe193e98c87)" style="fill: #eab67a; opacity: 0.9"/>
   </g>
   <g id="patch_26">
    <path d="M 5.56 110.458593 
L 34.072983 110.458593 
L 34.072983 102.811151 
L 5.56 102.811151 
z
" clip-path="url(#pe193e98c87)" style="fill: #7da494; opacity: 0.9"/>
   </g>
   <g id="patch_27">
    <path d="M 5.56 98.222686 
L 17.951638 98.222686 
L 17.951638 90.575244 
L 5.56 90.575244 
z
" clip-path="url(#pe193e98c87)" style="fill: #c16e71; opacity: 0.9"/>
   </g>
   <g id="patch_28">
    <path d="M 5.56 89.045756 
L 67.334474 89.045756 
L 67.334474 81.398314 
L 5.56 81.398314 
z
" clip-path="url(#pe193e98c87)" style="fill: #9da6b9; opacity: 0.9"/>
   </g>
   <g id="patch_29">
    <path d="M 5.56 79.868826 
L 28.338654 79.868826 
L 28.338654 72.221384 
L 5.56 72.221384 
z
" clip-path="url(#pe193e98c87)" style="fill: #d9a7be; opacity: 0.9"/>
   </g>
   <g id="patch_30">
    <path d="M 5.56 70.691895 
L 56.426571 70.691895 
L 56.426571 63.044453 
L 5.56 63.044453 
z
" clip-path="url(#pe193e98c87)" style="fill: #ddbf9f; opacity: 0.9"/>
   </g>
   <g id="patch_31">
    <path d="M 5.56 61.514965 
L 25.241215 61.514965 
L 25.241215 53.867523 
L 5.56 53.867523 
z
" clip-path="url(#pe193e98c87)" style="fill: #6e8fb2; opacity: 0.9"/>
   </g>
   <g id="patch_32">
    <path d="M 5.56 52.338035 
L 79.254138 52.338035 
L 79.254138 44.690593 
L 5.56 44.690593 
z
" clip-path="url(#pe193e98c87)" style="fill: #9e97b7; opacity: 0.9"/>
   </g>
   <g id="patch_33">
    <path d="M 5.56 43.161105 
L 86.531274 43.161105 
L 86.531274 35.513663 
L 5.56 35.513663 
z
" clip-path="url(#pe193e98c87)" style="fill: #eab67a; opacity: 0.9"/>
   </g>
   <g id="patch_34">
    <path d="M 5.56 33.984174 
L 35.43602 33.984174 
L 35.43602 26.336733 
L 5.56 26.336733 
z
" clip-path="url(#pe193e98c87)" style="fill: #7da494; opacity: 0.9"/>
   </g>
   <g id="PathCollection_1">
    <defs>
     <path id="mc7dd8bea9b" d="M 0 2.5 
C 0.663008 2.5 1.29895 2.236584 1.767767 1.767767 
C 2.236584 1.29895 2.5 0.663008 2.5 0 
C 2.5 -0.663008 2.236584 -1.29895 1.767767 -1.767767 
C 1.29895 -2.236584 0.663008 -2.5 0 -2.5 
C -0.663008 -2.5 -1.29895 -2.236584 -1.767767 -1.767767 
C -2.236584 -1.29895 -2.5 -0.663008 -2.5 0 
C -2.5 0.663008 -2.236584 1.29895 -1.767767 1.767767 
C -1.29895 2.236584 -0.663008 2.5 0 2.5 
z
" style="stroke: #c16e71"/>
    </defs>
    <g clip-path="url(#pe193e98c87)">
     <use xlink:href="#mc7dd8bea9b" x="15.130845" y="335.06396" style="fill: #c16e71; stroke: #c16e71"/>
    </g>
   </g>
   <g id="PathCollection_2">
    <defs>
     <path id="m9ded3379e5" d="M 0 -2.5 
L -2.377641 -0.772542 
L -1.469463 2.022542 
L 1.469463 2.022542 
L 2.377641 -0.772542 
z
" style="stroke: #8a8a8a"/>
    </defs>
    <g clip-path="url(#pe193e98c87)">
     <use xlink:href="#m9ded3379e5" x="47.876579" y="335.06396" style="fill: #8a8a8a; stroke: #8a8a8a"/>
    </g>
   </g>
   <g id="matplotlib.axis_1">
    <g id="xtick_1">
     <g id="line2d_1">
      <defs>
       <path id="m16dcc2e242" d="M 0 0 
L 0 -3.5 
" style="stroke: #000000; stroke-width: 0.8"/>
      </defs>
      <g>
       <use xlink:href="#m16dcc2e242" x="5.56" y="24.0425" style="stroke: #000000; stroke-width: 0.8"/>
      </g>
     </g>
     <g id="text_1">
      <!-- 0.0 -->
      <g transform="translate(0 15.4525) scale(0.08 -0.08)">
       <defs>
        <path id="ArialMT-30" d="M 266 2259 
Q 266 3072 433 3567 
Q 600 4063 929 4331 
Q 1259 4600 1759 4600 
Q 2128 4600 2406 4451 
Q 2684 4303 2865 4023 
Q 3047 3744 3150 3342 
Q 3253 2941 3253 2259 
Q 3253 1453 3087 958 
Q 2922 463 2592 192 
Q 2263 -78 1759 -78 
Q 1097 -78 719 397 
Q 266 969 266 2259 
z
M 844 2259 
Q 844 1131 1108 757 
Q 1372 384 1759 384 
Q 2147 384 2411 759 
Q 2675 1134 2675 2259 
Q 2675 3391 2411 3762 
Q 2147 4134 1753 4134 
Q 1366 4134 1134 3806 
Q 844 3388 844 2259 
z
" transform="scale(0.015625)"/>
        <path id="ArialMT-2e" d="M 581 0 
L 581 641 
L 1222 641 
L 1222 0 
L 581 0 
z
" transform="scale(0.015625)"/>
       </defs>
       <use xlink:href="#ArialMT-30"/>
       <use xlink:href="#ArialMT-2e" x="55.615234"/>
       <use xlink:href="#ArialMT-30" x="83.398438"/>
      </g>
     </g>
    </g>
    <g id="xtick_2">
     <g id="line2d_2">
      <g>
       <use xlink:href="#m16dcc2e242" x="33.641079" y="24.0425" style="stroke: #000000; stroke-width: 0.8"/>
      </g>
     </g>
     <g id="text_2">
      <!-- 0.04 -->
      <g transform="translate(25.856704 15.4525) scale(0.08 -0.08)">
       <defs>
        <path id="ArialMT-34" d="M 2069 0 
L 2069 1097 
L 81 1097 
L 81 1613 
L 2172 4581 
L 2631 4581 
L 2631 1613 
L 3250 1613 
L 3250 1097 
L 2631 1097 
L 2631 0 
L 2069 0 
z
M 2069 1613 
L 2069 3678 
L 634 1613 
L 2069 1613 
z
" transform="scale(0.015625)"/>
       </defs>
       <use xlink:href="#ArialMT-30"/>
       <use xlink:href="#ArialMT-2e" x="55.615234"/>
       <use xlink:href="#ArialMT-30" x="83.398438"/>
       <use xlink:href="#ArialMT-34" x="139.013672"/>
      </g>
     </g>
    </g>
    <g id="xtick_3">
     <g id="line2d_3">
      <g>
       <use xlink:href="#m16dcc2e242" x="61.722159" y="24.0425" style="stroke: #000000; stroke-width: 0.8"/>
      </g>
     </g>
     <g id="text_3">
      <!-- 0.08 -->
      <g transform="translate(53.937784 15.4525) scale(0.08 -0.08)">
       <defs>
        <path id="ArialMT-38" d="M 1131 2484 
Q 781 2613 612 2850 
Q 444 3088 444 3419 
Q 444 3919 803 4259 
Q 1163 4600 1759 4600 
Q 2359 4600 2725 4251 
Q 3091 3903 3091 3403 
Q 3091 3084 2923 2848 
Q 2756 2613 2416 2484 
Q 2838 2347 3058 2040 
Q 3278 1734 3278 1309 
Q 3278 722 2862 322 
Q 2447 -78 1769 -78 
Q 1091 -78 675 323 
Q 259 725 259 1325 
Q 259 1772 486 2073 
Q 713 2375 1131 2484 
z
M 1019 3438 
Q 1019 3113 1228 2906 
Q 1438 2700 1772 2700 
Q 2097 2700 2305 2904 
Q 2513 3109 2513 3406 
Q 2513 3716 2298 3927 
Q 2084 4138 1766 4138 
Q 1444 4138 1231 3931 
Q 1019 3725 1019 3438 
z
M 838 1322 
Q 838 1081 952 856 
Q 1066 631 1291 507 
Q 1516 384 1775 384 
Q 2178 384 2440 643 
Q 2703 903 2703 1303 
Q 2703 1709 2433 1975 
Q 2163 2241 1756 2241 
Q 1359 2241 1098 1978 
Q 838 1716 838 1322 
z
" transform="scale(0.015625)"/>
       </defs>
       <use xlink:href="#ArialMT-30"/>
       <use xlink:href="#ArialMT-2e" x="55.615234"/>
       <use xlink:href="#ArialMT-30" x="83.398438"/>
       <use xlink:href="#ArialMT-38" x="139.013672"/>
      </g>
     </g>
    </g>
    <g id="xtick_4">
     <g id="line2d_4">
      <g>
       <use xlink:href="#m16dcc2e242" x="89.803238" y="24.0425" style="stroke: #000000; stroke-width: 0.8"/>
      </g>
     </g>
     <g id="text_4">
      <!-- 0.12 -->
      <g transform="translate(82.018863 15.4525) scale(0.08 -0.08)">
       <defs>
        <path id="ArialMT-31" d="M 2384 0 
L 1822 0 
L 1822 3584 
Q 1619 3391 1289 3197 
Q 959 3003 697 2906 
L 697 3450 
Q 1169 3672 1522 3987 
Q 1875 4303 2022 4600 
L 2384 4600 
L 2384 0 
z
" transform="scale(0.015625)"/>
        <path id="ArialMT-32" d="M 3222 541 
L 3222 0 
L 194 0 
Q 188 203 259 391 
Q 375 700 629 1000 
Q 884 1300 1366 1694 
Q 2113 2306 2375 2664 
Q 2638 3022 2638 3341 
Q 2638 3675 2398 3904 
Q 2159 4134 1775 4134 
Q 1369 4134 1125 3890 
Q 881 3647 878 3216 
L 300 3275 
Q 359 3922 746 4261 
Q 1134 4600 1788 4600 
Q 2447 4600 2831 4234 
Q 3216 3869 3216 3328 
Q 3216 3053 3103 2787 
Q 2991 2522 2730 2228 
Q 2469 1934 1863 1422 
Q 1356 997 1212 845 
Q 1069 694 975 541 
L 3222 541 
z
" transform="scale(0.015625)"/>
       </defs>
       <use xlink:href="#ArialMT-30"/>
       <use xlink:href="#ArialMT-2e" x="55.615234"/>
       <use xlink:href="#ArialMT-31" x="83.398438"/>
       <use xlink:href="#ArialMT-32" x="139.013672"/>
      </g>
     </g>
    </g>
    <g id="text_5">
     <!-- Inter-center SD of AUROC -->
     <g transform="translate(6.244375 5.72625) scale(0.08 -0.08)">
      <defs>
       <path id="ArialMT-49" d="M 597 0 
L 597 4581 
L 1203 4581 
L 1203 0 
L 597 0 
z
" transform="scale(0.015625)"/>
       <path id="ArialMT-6e" d="M 422 0 
L 422 3319 
L 928 3319 
L 928 2847 
Q 1294 3394 1984 3394 
Q 2284 3394 2536 3286 
Q 2788 3178 2913 3003 
Q 3038 2828 3088 2588 
Q 3119 2431 3119 2041 
L 3119 0 
L 2556 0 
L 2556 2019 
Q 2556 2363 2490 2533 
Q 2425 2703 2258 2804 
Q 2091 2906 1866 2906 
Q 1506 2906 1245 2678 
Q 984 2450 984 1813 
L 984 0 
L 422 0 
z
" transform="scale(0.015625)"/>
       <path id="ArialMT-74" d="M 1650 503 
L 1731 6 
Q 1494 -44 1306 -44 
Q 1000 -44 831 53 
Q 663 150 594 308 
Q 525 466 525 972 
L 525 2881 
L 113 2881 
L 113 3319 
L 525 3319 
L 525 4141 
L 1084 4478 
L 1084 3319 
L 1650 3319 
L 1650 2881 
L 1084 2881 
L 1084 941 
Q 1084 700 1114 631 
Q 1144 563 1211 522 
Q 1278 481 1403 481 
Q 1497 481 1650 503 
z
" transform="scale(0.015625)"/>
       <path id="ArialMT-65" d="M 2694 1069 
L 3275 997 
Q 3138 488 2766 206 
Q 2394 -75 1816 -75 
Q 1088 -75 661 373 
Q 234 822 234 1631 
Q 234 2469 665 2931 
Q 1097 3394 1784 3394 
Q 2450 3394 2872 2941 
Q 3294 2488 3294 1666 
Q 3294 1616 3291 1516 
L 816 1516 
Q 847 969 1125 678 
Q 1403 388 1819 388 
Q 2128 388 2347 550 
Q 2566 713 2694 1069 
z
M 847 1978 
L 2700 1978 
Q 2663 2397 2488 2606 
Q 2219 2931 1791 2931 
Q 1403 2931 1139 2672 
Q 875 2413 847 1978 
z
" transform="scale(0.015625)"/>
       <path id="ArialMT-72" d="M 416 0 
L 416 3319 
L 922 3319 
L 922 2816 
Q 1116 3169 1280 3281 
Q 1444 3394 1641 3394 
Q 1925 3394 2219 3213 
L 2025 2691 
Q 1819 2813 1613 2813 
Q 1428 2813 1281 2702 
Q 1134 2591 1072 2394 
Q 978 2094 978 1738 
L 978 0 
L 416 0 
z
" transform="scale(0.015625)"/>
       <path id="ArialMT-2d" d="M 203 1375 
L 203 1941 
L 1931 1941 
L 1931 1375 
L 203 1375 
z
" transform="scale(0.015625)"/>
       <path id="ArialMT-63" d="M 2588 1216 
L 3141 1144 
Q 3050 572 2676 248 
Q 2303 -75 1759 -75 
Q 1078 -75 664 370 
Q 250 816 250 1647 
Q 250 2184 428 2587 
Q 606 2991 970 3192 
Q 1334 3394 1763 3394 
Q 2303 3394 2647 3120 
Q 2991 2847 3088 2344 
L 2541 2259 
Q 2463 2594 2264 2762 
Q 2066 2931 1784 2931 
Q 1359 2931 1093 2626 
Q 828 2322 828 1663 
Q 828 994 1084 691 
Q 1341 388 1753 388 
Q 2084 388 2306 591 
Q 2528 794 2588 1216 
z
" transform="scale(0.015625)"/>
       <path id="ArialMT-20" transform="scale(0.015625)"/>
       <path id="ArialMT-53" d="M 288 1472 
L 859 1522 
Q 900 1178 1048 958 
Q 1197 738 1509 602 
Q 1822 466 2213 466 
Q 2559 466 2825 569 
Q 3091 672 3220 851 
Q 3350 1031 3350 1244 
Q 3350 1459 3225 1620 
Q 3100 1781 2813 1891 
Q 2628 1963 1997 2114 
Q 1366 2266 1113 2400 
Q 784 2572 623 2826 
Q 463 3081 463 3397 
Q 463 3744 659 4045 
Q 856 4347 1234 4503 
Q 1613 4659 2075 4659 
Q 2584 4659 2973 4495 
Q 3363 4331 3572 4012 
Q 3781 3694 3797 3291 
L 3216 3247 
Q 3169 3681 2898 3903 
Q 2628 4125 2100 4125 
Q 1550 4125 1298 3923 
Q 1047 3722 1047 3438 
Q 1047 3191 1225 3031 
Q 1400 2872 2139 2705 
Q 2878 2538 3153 2413 
Q 3553 2228 3743 1945 
Q 3934 1663 3934 1294 
Q 3934 928 3725 604 
Q 3516 281 3123 101 
Q 2731 -78 2241 -78 
Q 1619 -78 1198 103 
Q 778 284 539 648 
Q 300 1013 288 1472 
z
" transform="scale(0.015625)"/>
       <path id="ArialMT-44" d="M 494 0 
L 494 4581 
L 2072 4581 
Q 2606 4581 2888 4516 
Q 3281 4425 3559 4188 
Q 3922 3881 4101 3404 
Q 4281 2928 4281 2316 
Q 4281 1794 4159 1391 
Q 4038 988 3847 723 
Q 3656 459 3429 307 
Q 3203 156 2883 78 
Q 2563 0 2147 0 
L 494 0 
z
M 1100 541 
L 2078 541 
Q 2531 541 2789 625 
Q 3047 709 3200 863 
Q 3416 1078 3536 1442 
Q 3656 1806 3656 2325 
Q 3656 3044 3420 3430 
Q 3184 3816 2847 3947 
Q 2603 4041 2063 4041 
L 1100 4041 
L 1100 541 
z
" transform="scale(0.015625)"/>
       <path id="ArialMT-6f" d="M 213 1659 
Q 213 2581 725 3025 
Q 1153 3394 1769 3394 
Q 2453 3394 2887 2945 
Q 3322 2497 3322 1706 
Q 3322 1066 3130 698 
Q 2938 331 2570 128 
Q 2203 -75 1769 -75 
Q 1072 -75 642 372 
Q 213 819 213 1659 
z
M 791 1659 
Q 791 1022 1069 705 
Q 1347 388 1769 388 
Q 2188 388 2466 706 
Q 2744 1025 2744 1678 
Q 2744 2294 2464 2611 
Q 2184 2928 1769 2928 
Q 1347 2928 1069 2612 
Q 791 2297 791 1659 
z
" transform="scale(0.015625)"/>
       <path id="ArialMT-66" d="M 556 0 
L 556 2881 
L 59 2881 
L 59 3319 
L 556 3319 
L 556 3672 
Q 556 4006 616 4169 
Q 697 4388 901 4523 
Q 1106 4659 1475 4659 
Q 1713 4659 2000 4603 
L 1916 4113 
Q 1741 4144 1584 4144 
Q 1328 4144 1222 4034 
Q 1116 3925 1116 3625 
L 1116 3319 
L 1763 3319 
L 1763 2881 
L 1116 2881 
L 1116 0 
L 556 0 
z
" transform="scale(0.015625)"/>
       <path id="ArialMT-41" d="M -9 0 
L 1750 4581 
L 2403 4581 
L 4278 0 
L 3588 0 
L 3053 1388 
L 1138 1388 
L 634 0 
L -9 0 
z
M 1313 1881 
L 2866 1881 
L 2388 3150 
Q 2169 3728 2063 4100 
Q 1975 3659 1816 3225 
L 1313 1881 
z
" transform="scale(0.015625)"/>
       <path id="ArialMT-55" d="M 3500 4581 
L 4106 4581 
L 4106 1934 
Q 4106 1244 3950 837 
Q 3794 431 3386 176 
Q 2978 -78 2316 -78 
Q 1672 -78 1262 144 
Q 853 366 678 786 
Q 503 1206 503 1934 
L 503 4581 
L 1109 4581 
L 1109 1938 
Q 1109 1341 1220 1058 
Q 1331 775 1601 622 
Q 1872 469 2263 469 
Q 2931 469 3215 772 
Q 3500 1075 3500 1938 
L 3500 4581 
z
" transform="scale(0.015625)"/>
       <path id="ArialMT-52" d="M 503 0 
L 503 4581 
L 2534 4581 
Q 3147 4581 3465 4457 
Q 3784 4334 3975 4021 
Q 4166 3709 4166 3331 
Q 4166 2844 3850 2509 
Q 3534 2175 2875 2084 
Q 3116 1969 3241 1856 
Q 3506 1613 3744 1247 
L 4541 0 
L 3778 0 
L 3172 953 
Q 2906 1366 2734 1584 
Q 2563 1803 2427 1890 
Q 2291 1978 2150 2013 
Q 2047 2034 1813 2034 
L 1109 2034 
L 1109 0 
L 503 0 
z
M 1109 2559 
L 2413 2559 
Q 2828 2559 3062 2645 
Q 3297 2731 3419 2920 
Q 3541 3109 3541 3331 
Q 3541 3656 3305 3865 
Q 3069 4075 2559 4075 
L 1109 4075 
L 1109 2559 
z
" transform="scale(0.015625)"/>
       <path id="ArialMT-4f" d="M 309 2231 
Q 309 3372 921 4017 
Q 1534 4663 2503 4663 
Q 3138 4663 3647 4359 
Q 4156 4056 4423 3514 
Q 4691 2972 4691 2284 
Q 4691 1588 4409 1038 
Q 4128 488 3612 205 
Q 3097 -78 2500 -78 
Q 1853 -78 1343 234 
Q 834 547 571 1087 
Q 309 1628 309 2231 
z
M 934 2222 
Q 934 1394 1379 917 
Q 1825 441 2497 441 
Q 3181 441 3623 922 
Q 4066 1403 4066 2288 
Q 4066 2847 3877 3264 
Q 3688 3681 3323 3911 
Q 2959 4141 2506 4141 
Q 1863 4141 1398 3698 
Q 934 3256 934 2222 
z
" transform="scale(0.015625)"/>
       <path id="ArialMT-43" d="M 3763 1606 
L 4369 1453 
Q 4178 706 3683 314 
Q 3188 -78 2472 -78 
Q 1731 -78 1267 223 
Q 803 525 561 1097 
Q 319 1669 319 2325 
Q 319 3041 592 3573 
Q 866 4106 1370 4382 
Q 1875 4659 2481 4659 
Q 3169 4659 3637 4309 
Q 4106 3959 4291 3325 
L 3694 3184 
Q 3534 3684 3231 3912 
Q 2928 4141 2469 4141 
Q 1941 4141 1586 3887 
Q 1231 3634 1087 3207 
Q 944 2781 944 2328 
Q 944 1744 1114 1308 
Q 1284 872 1643 656 
Q 2003 441 2422 441 
Q 2931 441 3284 734 
Q 3638 1028 3763 1606 
z
" transform="scale(0.015625)"/>
      </defs>
      <use xlink:href="#ArialMT-49"/>
      <use xlink:href="#ArialMT-6e" x="27.783203"/>
      <use xlink:href="#ArialMT-74" x="83.398438"/>
      <use xlink:href="#ArialMT-65" x="111.181641"/>
      <use xlink:href="#ArialMT-72" x="166.796875"/>
      <use xlink:href="#ArialMT-2d" x="200.097656"/>
      <use xlink:href="#ArialMT-63" x="233.398438"/>
      <use xlink:href="#ArialMT-65" x="283.398438"/>
      <use xlink:href="#ArialMT-6e" x="339.013672"/>
      <use xlink:href="#ArialMT-74" x="394.628906"/>
      <use xlink:href="#ArialMT-65" x="422.412109"/>
      <use xlink:href="#ArialMT-72" x="478.027344"/>
      <use xlink:href="#ArialMT-20" x="511.328125"/>
      <use xlink:href="#ArialMT-53" x="539.111328"/>
      <use xlink:href="#ArialMT-44" x="605.810547"/>
      <use xlink:href="#ArialMT-20" x="678.027344"/>
      <use xlink:href="#ArialMT-6f" x="705.810547"/>
      <use xlink:href="#ArialMT-66" x="761.425781"/>
      <use xlink:href="#ArialMT-20" x="789.208984"/>
      <use xlink:href="#ArialMT-41" x="811.492188"/>
      <use xlink:href="#ArialMT-55" x="878.191406"/>
      <use xlink:href="#ArialMT-52" x="950.408203"/>
      <use xlink:href="#ArialMT-4f" x="1022.625"/>
      <use xlink:href="#ArialMT-43" x="1100.408203"/>
     </g>
    </g>
   </g>
   <g id="matplotlib.axis_2"/>
   <g id="patch_35">
    <path d="M 5.56 352.8825 
L 5.56 24.0425 
" style="fill: none; stroke: #000000; stroke-width: 0.8; stroke-linejoin: miter; stroke-linecap: square"/>
   </g>
   <g id="patch_36">
    <path d="M 5.56 24.0425 
L 100.735 24.0425 
" style="fill: none; stroke: #000000; stroke-width: 0.8; stroke-linejoin: miter; stroke-linecap: square"/>
   </g>
  </g>
 </g>
 <defs>
  <clipPath id="pe193e98c87">
   <rect x="5.56" y="24.0425" width="95.175" height="328.84"/>
  </clipPath>
 </defs>
</svg>
