<?xml version="1.0" encoding="utf-8" standalone="no"?>
<!DOCTYPE svg PUBLIC "-//W3C//DTD SVG 1.1//EN"
  "http://www.w3.org/Graphics/SVG/1.1/DTD/svg11.dtd">
<svg xmlns:xlink="http://www.w3.org/1999/xlink" width="403.024498pt" height="202.181469pt" viewBox="0 0 403.024498 202.181469" xmlns="http://www.w3.org/2000/svg" version="1.1">
 <metadata>
  <rdf:RDF xmlns:dc="http://purl.org/dc/elements/1.1/" xmlns:cc="http://creativecommons.org/ns#" xmlns:rdf="http://www.w3.org/1999/02/22-rdf-syntax-ns#">
   <cc:Work>
    <dc:type rdf:resource="http://purl.org/dc/dcmitype/StillImage"/>
    <dc:date>2026-05-16T21:50:58.154462</dc:date>
    <dc:format>image/svg+xml</dc:format>
    <dc:creator>
     <cc:Agent>
      <dc:title>Matplotlib v3.9.2, https://matplotlib.org/</dc:title>
     </cc:Agent>
    </dc:creator>
   </cc:Work>
  </rdf:RDF>
 </metadata>
 <defs>
  <style type="text/css">*{stroke-linejoin: round; stroke-linecap: butt}</style>
 </defs>
 <g id="figure_1">
  <g id="patch_1">
   <path d="M 0 202.181469 
L 403.024498 202.181469 
L 403.024498 0 
L 0 0 
z
" style="fill: #ffffff"/>
  </g>
  <g id="axes_1">
   <g id="patch_2">
    <path d="M 30.808557 103.370906 
L 40.327381 103.370906 
L 40.327381 3.578906 
L 30.808557 3.578906 
z
" style="fill: #ffffff"/>
   </g>
   <g id="PathCollection_1">
    <path d="M 35.567969 92.189629 
L 32.405691 98.514184 
L 38.730246 98.514184 
z
" style="fill: #7da494; fill-opacity: 0.75"/>
   </g>
   <g id="PathCollection_2">
    <path d="M 35.567969 63.293042 
L 40.040105 58.820906 
L 35.567969 54.34877 
L 31.095833 58.820906 
z
" style="fill: #eab67a; fill-opacity: 0.75"/>
   </g>
   <g id="PathCollection_3">
    <path d="M 34.513876 57.082684 
L 36.622061 57.082684 
L 36.622061 54.974499 
L 38.730246 54.974499 
L 38.730246 52.866314 
L 36.622061 52.866314 
L 36.622061 50.758129 
L 34.513876 50.758129 
L 34.513876 52.866314 
L 32.405691 52.866314 
L 32.405691 54.974499 
L 34.513876 54.974499 
z
" style="fill: #9e97b7; fill-opacity: 0.75"/>
   </g>
   <g id="PathCollection_4">
    <path d="M 32.405691 76.684684 
L 38.730246 76.684684 
L 38.730246 70.360129 
L 32.405691 70.360129 
z
" style="fill: #6e8fb2; fill-opacity: 0.75"/>
   </g>
   <g id="PathCollection_5">
    <path d="M 33.98683 14.650793 
L 32.405691 17.389406 
L 33.98683 20.128019 
L 37.149108 20.128019 
L 38.730246 17.389406 
L 37.149108 14.650793 
z
" style="fill: #ddbf9f; fill-opacity: 0.75"/>
   </g>
   <g id="PathCollection_6">
    <path d="M 38.730246 37.436906 
L 32.405691 34.274629 
L 32.405691 40.599184 
z
" style="fill: #d9a7be; fill-opacity: 0.75"/>
   </g>
   <g id="PathCollection_7">
    <path d="M 33.98683 87.822184 
L 35.567969 86.241045 
L 37.149108 87.822184 
L 38.730246 86.241045 
L 37.149108 84.659906 
L 38.730246 83.078767 
L 37.149108 81.497629 
L 35.567969 83.078767 
L 33.98683 81.497629 
L 32.405691 83.078767 
L 33.98683 84.659906 
L 32.405691 86.241045 
z
" style="fill: #9da6b9; fill-opacity: 0.75"/>
   </g>
   <g id="PathCollection_8">
    <path d="M 35.567969 11.196184 
C 36.406615 11.196184 37.211025 10.862986 37.804037 10.269974 
C 38.397049 9.676962 38.730246 8.872552 38.730246 8.033906 
C 38.730246 7.19526 38.397049 6.39085 37.804037 5.797838 
C 37.211025 5.204826 36.406615 4.871629 35.567969 4.871629 
C 34.729323 4.871629 33.924913 5.204826 33.331901 5.797838 
C 32.738889 6.39085 32.405691 7.19526 32.405691 8.033906 
C 32.405691 8.872552 32.738889 9.676962 33.331901 10.269974 
C 33.924913 10.862986 34.729323 11.196184 35.567969 11.196184 
z
" style="fill: #c16e71; fill-opacity: 0.75"/>
   </g>
   <g id="matplotlib.axis_1">
    <g id="xtick_1">
     <g id="line2d_1">
      <defs>
       <path id="m6dfca877b4" d="M 0 0 
L 0 3.5 
" style="stroke: #000000; stroke-width: 0.8"/>
      </defs>
      <g>
       <use xlink:href="#m6dfca877b4" x="35.567969" y="103.370906" style="stroke: #000000; stroke-width: 0.8"/>
      </g>
     </g>
     <g id="text_1">
      <!-- SSBD-Line-Gait -->
      <g transform="translate(6.198847 175.555341) rotate(-60) scale(0.1 -0.1)">
       <defs>
        <path id="ArialMT-53" d="M 288 1472 
L 859 1522 
Q 900 1178 1048 958 
Q 1197 738 1509 602 
Q 1822 466 2213 466 
Q 2559 466 2825 569 
Q 3091 672 3220 851 
Q 3350 1031 3350 1244 
Q 3350 1459 3225 1620 
Q 3100 1781 2813 1891 
Q 2628 1963 1997 2114 
Q 1366 2266 1113 2400 
Q 784 2572 623 2826 
Q 463 3081 463 3397 
Q 463 3744 659 4045 
Q 856 4347 1234 4503 
Q 1613 4659 2075 4659 
Q 2584 4659 2973 4495 
Q 3363 4331 3572 4012 
Q 3781 3694 3797 3291 
L 3216 3247 
Q 3169 3681 2898 3903 
Q 2628 4125 2100 4125 
Q 1550 4125 1298 3923 
Q 1047 3722 1047 3438 
Q 1047 3191 1225 3031 
Q 1400 2872 2139 2705 
Q 2878 2538 3153 2413 
Q 3553 2228 3743 1945 
Q 3934 1663 3934 1294 
Q 3934 928 3725 604 
Q 3516 281 3123 101 
Q 2731 -78 2241 -78 
Q 1619 -78 1198 103 
Q 778 284 539 648 
Q 300 1013 288 1472 
z
" transform="scale(0.015625)"/>
        <path id="ArialMT-42" d="M 469 0 
L 469 4581 
L 2188 4581 
Q 2713 4581 3030 4442 
Q 3347 4303 3526 4014 
Q 3706 3725 3706 3409 
Q 3706 3116 3547 2856 
Q 3388 2597 3066 2438 
Q 3481 2316 3704 2022 
Q 3928 1728 3928 1328 
Q 3928 1006 3792 729 
Q 3656 453 3456 303 
Q 3256 153 2954 76 
Q 2653 0 2216 0 
L 469 0 
z
M 1075 2656 
L 2066 2656 
Q 2469 2656 2644 2709 
Q 2875 2778 2992 2937 
Q 3109 3097 3109 3338 
Q 3109 3566 3000 3739 
Q 2891 3913 2687 3977 
Q 2484 4041 1991 4041 
L 1075 4041 
L 1075 2656 
z
M 1075 541 
L 2216 541 
Q 2509 541 2628 563 
Q 2838 600 2978 687 
Q 3119 775 3209 942 
Q 3300 1109 3300 1328 
Q 3300 1584 3169 1773 
Q 3038 1963 2805 2039 
Q 2572 2116 2134 2116 
L 1075 2116 
L 1075 541 
z
" transform="scale(0.015625)"/>
        <path id="ArialMT-44" d="M 494 0 
L 494 4581 
L 2072 4581 
Q 2606 4581 2888 4516 
Q 3281 4425 3559 4188 
Q 3922 3881 4101 3404 
Q 4281 2928 4281 2316 
Q 4281 1794 4159 1391 
Q 4038 988 3847 723 
Q 3656 459 3429 307 
Q 3203 156 2883 78 
Q 2563 0 2147 0 
L 494 0 
z
M 1100 541 
L 2078 541 
Q 2531 541 2789 625 
Q 3047 709 3200 863 
Q 3416 1078 3536 1442 
Q 3656 1806 3656 2325 
Q 3656 3044 3420 3430 
Q 3184 3816 2847 3947 
Q 2603 4041 2063 4041 
L 1100 4041 
L 1100 541 
z
" transform="scale(0.015625)"/>
        <path id="ArialMT-2d" d="M 203 1375 
L 203 1941 
L 1931 1941 
L 1931 1375 
L 203 1375 
z
" transform="scale(0.015625)"/>
        <path id="ArialMT-4c" d="M 469 0 
L 469 4581 
L 1075 4581 
L 1075 541 
L 3331 541 
L 3331 0 
L 469 0 
z
" transform="scale(0.015625)"/>
        <path id="ArialMT-69" d="M 425 3934 
L 425 4581 
L 988 4581 
L 988 3934 
L 425 3934 
z
M 425 0 
L 425 3319 
L 988 3319 
L 988 0 
L 425 0 
z
" transform="scale(0.015625)"/>
        <path id="ArialMT-6e" d="M 422 0 
L 422 3319 
L 928 3319 
L 928 2847 
Q 1294 3394 1984 3394 
Q 2284 3394 2536 3286 
Q 2788 3178 2913 3003 
Q 3038 2828 3088 2588 
Q 3119 2431 3119 2041 
L 3119 0 
L 2556 0 
L 2556 2019 
Q 2556 2363 2490 2533 
Q 2425 2703 2258 2804 
Q 2091 2906 1866 2906 
Q 1506 2906 1245 2678 
Q 984 2450 984 1813 
L 984 0 
L 422 0 
z
" transform="scale(0.015625)"/>
        <path id="ArialMT-65" d="M 2694 1069 
L 3275 997 
Q 3138 488 2766 206 
Q 2394 -75 1816 -75 
Q 1088 -75 661 373 
Q 234 822 234 1631 
Q 234 2469 665 2931 
Q 1097 3394 1784 3394 
Q 2450 3394 2872 2941 
Q 3294 2488 3294 1666 
Q 3294 1616 3291 1516 
L 816 1516 
Q 847 969 1125 678 
Q 1403 388 1819 388 
Q 2128 388 2347 550 
Q 2566 713 2694 1069 
z
M 847 1978 
L 2700 1978 
Q 2663 2397 2488 2606 
Q 2219 2931 1791 2931 
Q 1403 2931 1139 2672 
Q 875 2413 847 1978 
z
" transform="scale(0.015625)"/>
        <path id="ArialMT-47" d="M 2638 1797 
L 2638 2334 
L 4578 2338 
L 4578 638 
Q 4131 281 3656 101 
Q 3181 -78 2681 -78 
Q 2006 -78 1454 211 
Q 903 500 622 1047 
Q 341 1594 341 2269 
Q 341 2938 620 3517 
Q 900 4097 1425 4378 
Q 1950 4659 2634 4659 
Q 3131 4659 3532 4498 
Q 3934 4338 4162 4050 
Q 4391 3763 4509 3300 
L 3963 3150 
Q 3859 3500 3706 3700 
Q 3553 3900 3268 4020 
Q 2984 4141 2638 4141 
Q 2222 4141 1919 4014 
Q 1616 3888 1430 3681 
Q 1244 3475 1141 3228 
Q 966 2803 966 2306 
Q 966 1694 1177 1281 
Q 1388 869 1791 669 
Q 2194 469 2647 469 
Q 3041 469 3416 620 
Q 3791 772 3984 944 
L 3984 1797 
L 2638 1797 
z
" transform="scale(0.015625)"/>
        <path id="ArialMT-61" d="M 2588 409 
Q 2275 144 1986 34 
Q 1697 -75 1366 -75 
Q 819 -75 525 192 
Q 231 459 231 875 
Q 231 1119 342 1320 
Q 453 1522 633 1644 
Q 813 1766 1038 1828 
Q 1203 1872 1538 1913 
Q 2219 1994 2541 2106 
Q 2544 2222 2544 2253 
Q 2544 2597 2384 2738 
Q 2169 2928 1744 2928 
Q 1347 2928 1158 2789 
Q 969 2650 878 2297 
L 328 2372 
Q 403 2725 575 2942 
Q 747 3159 1072 3276 
Q 1397 3394 1825 3394 
Q 2250 3394 2515 3294 
Q 2781 3194 2906 3042 
Q 3031 2891 3081 2659 
Q 3109 2516 3109 2141 
L 3109 1391 
Q 3109 606 3145 398 
Q 3181 191 3288 0 
L 2700 0 
Q 2613 175 2588 409 
z
M 2541 1666 
Q 2234 1541 1622 1453 
Q 1275 1403 1131 1340 
Q 988 1278 909 1158 
Q 831 1038 831 891 
Q 831 666 1001 516 
Q 1172 366 1500 366 
Q 1825 366 2078 508 
Q 2331 650 2450 897 
Q 2541 1088 2541 1459 
L 2541 1666 
z
" transform="scale(0.015625)"/>
        <path id="ArialMT-74" d="M 1650 503 
L 1731 6 
Q 1494 -44 1306 -44 
Q 1000 -44 831 53 
Q 663 150 594 308 
Q 525 466 525 972 
L 525 2881 
L 113 2881 
L 113 3319 
L 525 3319 
L 525 4141 
L 1084 4478 
L 1084 3319 
L 1650 3319 
L 1650 2881 
L 1084 2881 
L 1084 941 
Q 1084 700 1114 631 
Q 1144 563 1211 522 
Q 1278 481 1403 481 
Q 1497 481 1650 503 
z
" transform="scale(0.015625)"/>
       </defs>
       <use xlink:href="#ArialMT-53"/>
       <use xlink:href="#ArialMT-53" x="66.699219"/>
       <use xlink:href="#ArialMT-42" x="133.398438"/>
       <use xlink:href="#ArialMT-44" x="200.097656"/>
       <use xlink:href="#ArialMT-2d" x="272.314453"/>
       <use xlink:href="#ArialMT-4c" x="305.615234"/>
       <use xlink:href="#ArialMT-69" x="361.230469"/>
       <use xlink:href="#ArialMT-6e" x="383.447266"/>
       <use xlink:href="#ArialMT-65" x="439.0625"/>
       <use xlink:href="#ArialMT-2d" x="494.677734"/>
       <use xlink:href="#ArialMT-47" x="527.978516"/>
       <use xlink:href="#ArialMT-61" x="605.761719"/>
       <use xlink:href="#ArialMT-69" x="661.376953"/>
       <use xlink:href="#ArialMT-74" x="683.59375"/>
      </g>
      <!-- (binary) -->
      <g transform="translate(24.795893 164.790564) rotate(-60) scale(0.1 -0.1)">
       <defs>
        <path id="ArialMT-28" d="M 1497 -1347 
Q 1031 -759 709 28 
Q 388 816 388 1659 
Q 388 2403 628 3084 
Q 909 3875 1497 4659 
L 1900 4659 
Q 1522 4009 1400 3731 
Q 1209 3300 1100 2831 
Q 966 2247 966 1656 
Q 966 153 1900 -1347 
L 1497 -1347 
z
" transform="scale(0.015625)"/>
        <path id="ArialMT-62" d="M 941 0 
L 419 0 
L 419 4581 
L 981 4581 
L 981 2947 
Q 1338 3394 1891 3394 
Q 2197 3394 2470 3270 
Q 2744 3147 2920 2923 
Q 3097 2700 3197 2384 
Q 3297 2069 3297 1709 
Q 3297 856 2875 390 
Q 2453 -75 1863 -75 
Q 1275 -75 941 416 
L 941 0 
z
M 934 1684 
Q 934 1088 1097 822 
Q 1363 388 1816 388 
Q 2184 388 2453 708 
Q 2722 1028 2722 1663 
Q 2722 2313 2464 2622 
Q 2206 2931 1841 2931 
Q 1472 2931 1203 2611 
Q 934 2291 934 1684 
z
" transform="scale(0.015625)"/>
        <path id="ArialMT-72" d="M 416 0 
L 416 3319 
L 922 3319 
L 922 2816 
Q 1116 3169 1280 3281 
Q 1444 3394 1641 3394 
Q 1925 3394 2219 3213 
L 2025 2691 
Q 1819 2813 1613 2813 
Q 1428 2813 1281 2702 
Q 1134 2591 1072 2394 
Q 978 2094 978 1738 
L 978 0 
L 416 0 
z
" transform="scale(0.015625)"/>
        <path id="ArialMT-79" d="M 397 -1278 
L 334 -750 
Q 519 -800 656 -800 
Q 844 -800 956 -737 
Q 1069 -675 1141 -563 
Q 1194 -478 1313 -144 
Q 1328 -97 1363 -6 
L 103 3319 
L 709 3319 
L 1400 1397 
Q 1534 1031 1641 628 
Q 1738 1016 1872 1384 
L 2581 3319 
L 3144 3319 
L 1881 -56 
Q 1678 -603 1566 -809 
Q 1416 -1088 1222 -1217 
Q 1028 -1347 759 -1347 
Q 597 -1347 397 -1278 
z
" transform="scale(0.015625)"/>
        <path id="ArialMT-29" d="M 791 -1347 
L 388 -1347 
Q 1322 153 1322 1656 
Q 1322 2244 1188 2822 
Q 1081 3291 891 3722 
Q 769 4003 388 4659 
L 791 4659 
Q 1378 3875 1659 3084 
Q 1900 2403 1900 1659 
Q 1900 816 1576 28 
Q 1253 -759 791 -1347 
z
" transform="scale(0.015625)"/>
       </defs>
       <use xlink:href="#ArialMT-28"/>
       <use xlink:href="#ArialMT-62" x="33.300781"/>
       <use xlink:href="#ArialMT-69" x="88.916016"/>
       <use xlink:href="#ArialMT-6e" x="111.132812"/>
       <use xlink:href="#ArialMT-61" x="166.748047"/>
       <use xlink:href="#ArialMT-72" x="222.363281"/>
       <use xlink:href="#ArialMT-79" x="255.664062"/>
       <use xlink:href="#ArialMT-29" x="305.664062"/>
      </g>
     </g>
    </g>
   </g>
   <g id="matplotlib.axis_2">
    <g id="ytick_1">
     <g id="line2d_2">
      <defs>
       <path id="mfeb7d74c51" d="M 0 0 
L -3.5 0 
" style="stroke: #000000; stroke-width: 0.8"/>
      </defs>
      <g>
       <use xlink:href="#mfeb7d74c51" x="30.808557" y="103.370906" style="stroke: #000000; stroke-width: 0.8"/>
      </g>
     </g>
     <g id="text_2">
      <!-- 85 -->
      <g transform="translate(15.186682 106.949813) scale(0.1 -0.1)">
       <defs>
        <path id="ArialMT-38" d="M 1131 2484 
Q 781 2613 612 2850 
Q 444 3088 444 3419 
Q 444 3919 803 4259 
Q 1163 4600 1759 4600 
Q 2359 4600 2725 4251 
Q 3091 3903 3091 3403 
Q 3091 3084 2923 2848 
Q 2756 2613 2416 2484 
Q 2838 2347 3058 2040 
Q 3278 1734 3278 1309 
Q 3278 722 2862 322 
Q 2447 -78 1769 -78 
Q 1091 -78 675 323 
Q 259 725 259 1325 
Q 259 1772 486 2073 
Q 713 2375 1131 2484 
z
M 1019 3438 
Q 1019 3113 1228 2906 
Q 1438 2700 1772 2700 
Q 2097 2700 2305 2904 
Q 2513 3109 2513 3406 
Q 2513 3716 2298 3927 
Q 2084 4138 1766 4138 
Q 1444 4138 1231 3931 
Q 1019 3725 1019 3438 
z
M 838 1322 
Q 838 1081 952 856 
Q 1066 631 1291 507 
Q 1516 384 1775 384 
Q 2178 384 2440 643 
Q 2703 903 2703 1303 
Q 2703 1709 2433 1975 
Q 2163 2241 1756 2241 
Q 1359 2241 1098 1978 
Q 838 1716 838 1322 
z
" transform="scale(0.015625)"/>
        <path id="ArialMT-35" d="M 266 1200 
L 856 1250 
Q 922 819 1161 601 
Q 1400 384 1738 384 
Q 2144 384 2425 690 
Q 2706 997 2706 1503 
Q 2706 1984 2436 2262 
Q 2166 2541 1728 2541 
Q 1456 2541 1237 2417 
Q 1019 2294 894 2097 
L 366 2166 
L 809 4519 
L 3088 4519 
L 3088 3981 
L 1259 3981 
L 1013 2750 
Q 1425 3038 1878 3038 
Q 2478 3038 2890 2622 
Q 3303 2206 3303 1553 
Q 3303 931 2941 478 
Q 2500 -78 1738 -78 
Q 1113 -78 717 272 
Q 322 622 266 1200 
z
" transform="scale(0.015625)"/>
       </defs>
       <use xlink:href="#ArialMT-38"/>
       <use xlink:href="#ArialMT-35" x="55.615234"/>
      </g>
     </g>
    </g>
    <g id="ytick_2">
     <g id="line2d_3">
      <g>
       <use xlink:href="#mfeb7d74c51" x="30.808557" y="3.578906" style="stroke: #000000; stroke-width: 0.8"/>
      </g>
     </g>
     <g id="text_3">
      <!-- 99 -->
      <g transform="translate(15.186682 7.157813) scale(0.1 -0.1)">
       <defs>
        <path id="ArialMT-39" d="M 350 1059 
L 891 1109 
Q 959 728 1153 556 
Q 1347 384 1650 384 
Q 1909 384 2104 503 
Q 2300 622 2425 820 
Q 2550 1019 2634 1356 
Q 2719 1694 2719 2044 
Q 2719 2081 2716 2156 
Q 2547 1888 2255 1720 
Q 1963 1553 1622 1553 
Q 1053 1553 659 1965 
Q 266 2378 266 3053 
Q 266 3750 677 4175 
Q 1088 4600 1706 4600 
Q 2153 4600 2523 4359 
Q 2894 4119 3086 3673 
Q 3278 3228 3278 2384 
Q 3278 1506 3087 986 
Q 2897 466 2520 194 
Q 2144 -78 1638 -78 
Q 1100 -78 759 220 
Q 419 519 350 1059 
z
M 2653 3081 
Q 2653 3566 2395 3850 
Q 2138 4134 1775 4134 
Q 1400 4134 1122 3828 
Q 844 3522 844 3034 
Q 844 2597 1108 2323 
Q 1372 2050 1759 2050 
Q 2150 2050 2401 2323 
Q 2653 2597 2653 3081 
z
" transform="scale(0.015625)"/>
       </defs>
       <use xlink:href="#ArialMT-39"/>
       <use xlink:href="#ArialMT-39" x="55.615234"/>
      </g>
     </g>
    </g>
    <g id="text_4">
     <!-- Accuracy (%) -->
     <g transform="translate(9.081994 83.200688) rotate(-90) scale(0.1 -0.1)">
      <defs>
       <path id="ArialMT-41" d="M -9 0 
L 1750 4581 
L 2403 4581 
L 4278 0 
L 3588 0 
L 3053 1388 
L 1138 1388 
L 634 0 
L -9 0 
z
M 1313 1881 
L 2866 1881 
L 2388 3150 
Q 2169 3728 2063 4100 
Q 1975 3659 1816 3225 
L 1313 1881 
z
" transform="scale(0.015625)"/>
       <path id="ArialMT-63" d="M 2588 1216 
L 3141 1144 
Q 3050 572 2676 248 
Q 2303 -75 1759 -75 
Q 1078 -75 664 370 
Q 250 816 250 1647 
Q 250 2184 428 2587 
Q 606 2991 970 3192 
Q 1334 3394 1763 3394 
Q 2303 3394 2647 3120 
Q 2991 2847 3088 2344 
L 2541 2259 
Q 2463 2594 2264 2762 
Q 2066 2931 1784 2931 
Q 1359 2931 1093 2626 
Q 828 2322 828 1663 
Q 828 994 1084 691 
Q 1341 388 1753 388 
Q 2084 388 2306 591 
Q 2528 794 2588 1216 
z
" transform="scale(0.015625)"/>
       <path id="ArialMT-75" d="M 2597 0 
L 2597 488 
Q 2209 -75 1544 -75 
Q 1250 -75 995 37 
Q 741 150 617 320 
Q 494 491 444 738 
Q 409 903 409 1263 
L 409 3319 
L 972 3319 
L 972 1478 
Q 972 1038 1006 884 
Q 1059 663 1231 536 
Q 1403 409 1656 409 
Q 1909 409 2131 539 
Q 2353 669 2445 892 
Q 2538 1116 2538 1541 
L 2538 3319 
L 3100 3319 
L 3100 0 
L 2597 0 
z
" transform="scale(0.015625)"/>
       <path id="ArialMT-20" transform="scale(0.015625)"/>
       <path id="ArialMT-25" d="M 372 3481 
Q 372 3972 619 4315 
Q 866 4659 1334 4659 
Q 1766 4659 2048 4351 
Q 2331 4044 2331 3447 
Q 2331 2866 2045 2552 
Q 1759 2238 1341 2238 
Q 925 2238 648 2547 
Q 372 2856 372 3481 
z
M 1350 4272 
Q 1141 4272 1002 4090 
Q 863 3909 863 3425 
Q 863 2984 1003 2804 
Q 1144 2625 1350 2625 
Q 1563 2625 1702 2806 
Q 1841 2988 1841 3469 
Q 1841 3913 1700 4092 
Q 1559 4272 1350 4272 
z
M 1353 -169 
L 3859 4659 
L 4316 4659 
L 1819 -169 
L 1353 -169 
z
M 3334 1075 
Q 3334 1569 3581 1911 
Q 3828 2253 4300 2253 
Q 4731 2253 5014 1945 
Q 5297 1638 5297 1041 
Q 5297 459 5011 145 
Q 4725 -169 4303 -169 
Q 3888 -169 3611 142 
Q 3334 453 3334 1075 
z
M 4316 1866 
Q 4103 1866 3964 1684 
Q 3825 1503 3825 1019 
Q 3825 581 3965 400 
Q 4106 219 4313 219 
Q 4528 219 4667 400 
Q 4806 581 4806 1063 
Q 4806 1506 4665 1686 
Q 4525 1866 4316 1866 
z
" transform="scale(0.015625)"/>
      </defs>
      <use xlink:href="#ArialMT-41"/>
      <use xlink:href="#ArialMT-63" x="66.699219"/>
      <use xlink:href="#ArialMT-63" x="116.699219"/>
      <use xlink:href="#ArialMT-75" x="166.699219"/>
      <use xlink:href="#ArialMT-72" x="222.314453"/>
      <use xlink:href="#ArialMT-61" x="255.615234"/>
      <use xlink:href="#ArialMT-63" x="311.230469"/>
      <use xlink:href="#ArialMT-79" x="361.230469"/>
      <use xlink:href="#ArialMT-20" x="411.230469"/>
      <use xlink:href="#ArialMT-28" x="439.013672"/>
      <use xlink:href="#ArialMT-25" x="472.314453"/>
      <use xlink:href="#ArialMT-29" x="561.230469"/>
     </g>
    </g>
   </g>
   <g id="patch_3">
    <path d="M 30.808557 103.370906 
L 30.808557 3.578906 
" style="fill: none; stroke: #000000; stroke-width: 0.8; stroke-linejoin: miter; stroke-linecap: square"/>
   </g>
   <g id="patch_4">
    <path d="M 30.808557 103.370906 
L 40.327381 103.370906 
" style="fill: none; stroke: #000000; stroke-width: 0.8; stroke-linejoin: miter; stroke-linecap: square"/>
   </g>
  </g>
  <g id="axes_2">
   <g id="patch_5">
    <path d="M 59.365028 103.370906 
L 68.883851 103.370906 
L 68.883851 3.578906 
L 59.365028 3.578906 
z
" style="fill: #ffffff"/>
   </g>
   <g id="PathCollection_9">
    <path d="M 64.124439 91.11332 
L 60.962162 97.437876 
L 67.286717 97.437876 
z
" style="fill: #7da494; fill-opacity: 0.75"/>
   </g>
   <g id="PathCollection_10">
    <path d="M 64.124439 75.071646 
L 68.596575 70.599511 
L 64.124439 66.127375 
L 59.652303 70.599511 
z
" style="fill: #eab67a; fill-opacity: 0.75"/>
   </g>
   <g id="PathCollection_11">
    <path d="M 63.070347 100.224149 
L 65.178532 100.224149 
L 65.178532 98.115964 
L 67.286717 98.115964 
L 67.286717 96.007779 
L 65.178532 96.007779 
L 65.178532 93.899594 
L 63.070347 93.899594 
L 63.070347 96.007779 
L 60.962162 96.007779 
L 60.962162 98.115964 
L 63.070347 98.115964 
z
" style="fill: #9e97b7; fill-opacity: 0.75"/>
   </g>
   <g id="PathCollection_12">
    <path d="M 60.962162 67.718104 
L 67.286717 67.718104 
L 67.286717 61.393549 
L 60.962162 61.393549 
z
" style="fill: #6e8fb2; fill-opacity: 0.75"/>
   </g>
   <g id="PathCollection_13">
    <path d="M 62.543301 64.430568 
L 60.962162 67.169181 
L 62.543301 69.907794 
L 65.705578 69.907794 
L 67.286717 67.169181 
L 65.705578 64.430568 
z
" style="fill: #ddbf9f; fill-opacity: 0.75"/>
   </g>
   <g id="PathCollection_14">
    <path d="M 67.286717 62.899444 
L 60.962162 59.737167 
L 60.962162 66.061722 
z
" style="fill: #d9a7be; fill-opacity: 0.75"/>
   </g>
   <g id="PathCollection_15">
    <path d="M 62.543301 91.590421 
L 64.124439 90.009282 
L 65.705578 91.590421 
L 67.286717 90.009282 
L 65.705578 88.428143 
L 67.286717 86.847004 
L 65.705578 85.265865 
L 64.124439 86.847004 
L 62.543301 85.265865 
L 60.962162 86.847004 
L 62.543301 88.428143 
L 60.962162 90.009282 
z
" style="fill: #9da6b9; fill-opacity: 0.75"/>
   </g>
   <g id="PathCollection_16">
    <path d="M 64.124439 6.887772 
C 64.963085 6.887772 65.767495 6.554574 66.360507 5.961562 
C 66.953519 5.36855 67.286717 4.56414 67.286717 3.725494 
C 67.286717 2.886848 66.953519 2.082438 66.360507 1.489426 
C 65.767495 0.896414 64.963085 0.563216 64.124439 0.563216 
C 63.285793 0.563216 62.481384 0.896414 61.888371 1.489426 
C 61.295359 2.082438 60.962162 2.886848 60.962162 3.725494 
C 60.962162 4.56414 61.295359 5.36855 61.888371 5.961562 
C 62.481384 6.554574 63.285793 6.887772 64.124439 6.887772 
z
" style="fill: #c16e71; fill-opacity: 0.75"/>
   </g>
   <g id="matplotlib.axis_3">
    <g id="xtick_2">
     <g id="line2d_4">
      <g>
       <use xlink:href="#m6dfca877b4" x="64.124439" y="103.370906" style="stroke: #000000; stroke-width: 0.8"/>
      </g>
     </g>
     <g id="text_5">
      <!-- EHE-Hands-Wave -->
      <g transform="translate(29.667037 184.368503) rotate(-60) scale(0.1 -0.1)">
       <defs>
        <path id="ArialMT-45" d="M 506 0 
L 506 4581 
L 3819 4581 
L 3819 4041 
L 1113 4041 
L 1113 2638 
L 3647 2638 
L 3647 2100 
L 1113 2100 
L 1113 541 
L 3925 541 
L 3925 0 
L 506 0 
z
" transform="scale(0.015625)"/>
        <path id="ArialMT-48" d="M 513 0 
L 513 4581 
L 1119 4581 
L 1119 2700 
L 3500 2700 
L 3500 4581 
L 4106 4581 
L 4106 0 
L 3500 0 
L 3500 2159 
L 1119 2159 
L 1119 0 
L 513 0 
z
" transform="scale(0.015625)"/>
        <path id="ArialMT-64" d="M 2575 0 
L 2575 419 
Q 2259 -75 1647 -75 
Q 1250 -75 917 144 
Q 584 363 401 755 
Q 219 1147 219 1656 
Q 219 2153 384 2558 
Q 550 2963 881 3178 
Q 1213 3394 1622 3394 
Q 1922 3394 2156 3267 
Q 2391 3141 2538 2938 
L 2538 4581 
L 3097 4581 
L 3097 0 
L 2575 0 
z
M 797 1656 
Q 797 1019 1065 703 
Q 1334 388 1700 388 
Q 2069 388 2326 689 
Q 2584 991 2584 1609 
Q 2584 2291 2321 2609 
Q 2059 2928 1675 2928 
Q 1300 2928 1048 2622 
Q 797 2316 797 1656 
z
" transform="scale(0.015625)"/>
        <path id="ArialMT-73" d="M 197 991 
L 753 1078 
Q 800 744 1014 566 
Q 1228 388 1613 388 
Q 2000 388 2187 545 
Q 2375 703 2375 916 
Q 2375 1106 2209 1216 
Q 2094 1291 1634 1406 
Q 1016 1563 777 1677 
Q 538 1791 414 1992 
Q 291 2194 291 2438 
Q 291 2659 392 2848 
Q 494 3038 669 3163 
Q 800 3259 1026 3326 
Q 1253 3394 1513 3394 
Q 1903 3394 2198 3281 
Q 2494 3169 2634 2976 
Q 2775 2784 2828 2463 
L 2278 2388 
Q 2241 2644 2061 2787 
Q 1881 2931 1553 2931 
Q 1166 2931 1000 2803 
Q 834 2675 834 2503 
Q 834 2394 903 2306 
Q 972 2216 1119 2156 
Q 1203 2125 1616 2013 
Q 2213 1853 2448 1751 
Q 2684 1650 2818 1456 
Q 2953 1263 2953 975 
Q 2953 694 2789 445 
Q 2625 197 2315 61 
Q 2006 -75 1616 -75 
Q 969 -75 630 194 
Q 291 463 197 991 
z
" transform="scale(0.015625)"/>
        <path id="ArialMT-57" d="M 1294 0 
L 78 4581 
L 700 4581 
L 1397 1578 
Q 1509 1106 1591 641 
Q 1766 1375 1797 1488 
L 2669 4581 
L 3400 4581 
L 4056 2263 
Q 4303 1400 4413 641 
Q 4500 1075 4641 1638 
L 5359 4581 
L 5969 4581 
L 4713 0 
L 4128 0 
L 3163 3491 
Q 3041 3928 3019 4028 
Q 2947 3713 2884 3491 
L 1913 0 
L 1294 0 
z
" transform="scale(0.015625)"/>
        <path id="ArialMT-76" d="M 1344 0 
L 81 3319 
L 675 3319 
L 1388 1331 
Q 1503 1009 1600 663 
Q 1675 925 1809 1294 
L 2547 3319 
L 3125 3319 
L 1869 0 
L 1344 0 
z
" transform="scale(0.015625)"/>
       </defs>
       <use xlink:href="#ArialMT-45"/>
       <use xlink:href="#ArialMT-48" x="66.699219"/>
       <use xlink:href="#ArialMT-45" x="138.916016"/>
       <use xlink:href="#ArialMT-2d" x="205.615234"/>
       <use xlink:href="#ArialMT-48" x="238.916016"/>
       <use xlink:href="#ArialMT-61" x="311.132812"/>
       <use xlink:href="#ArialMT-6e" x="366.748047"/>
       <use xlink:href="#ArialMT-64" x="422.363281"/>
       <use xlink:href="#ArialMT-73" x="477.978516"/>
       <use xlink:href="#ArialMT-2d" x="527.978516"/>
       <use xlink:href="#ArialMT-57" x="561.279297"/>
       <use xlink:href="#ArialMT-61" x="651.914062"/>
       <use xlink:href="#ArialMT-76" x="707.529297"/>
       <use xlink:href="#ArialMT-65" x="757.529297"/>
      </g>
      <!-- (binary) -->
      <g transform="translate(50.808223 169.197145) rotate(-60) scale(0.1 -0.1)">
       <use xlink:href="#ArialMT-28"/>
       <use xlink:href="#ArialMT-62" x="33.300781"/>
       <use xlink:href="#ArialMT-69" x="88.916016"/>
       <use xlink:href="#ArialMT-6e" x="111.132812"/>
       <use xlink:href="#ArialMT-61" x="166.748047"/>
       <use xlink:href="#ArialMT-72" x="222.363281"/>
       <use xlink:href="#ArialMT-79" x="255.664062"/>
       <use xlink:href="#ArialMT-29" x="305.664062"/>
      </g>
     </g>
    </g>
   </g>
   <g id="matplotlib.axis_4">
    <g id="ytick_3">
     <g id="line2d_5">
      <g>
       <use xlink:href="#mfeb7d74c51" x="59.365028" y="103.370906" style="stroke: #000000; stroke-width: 0.8"/>
      </g>
     </g>
     <g id="text_6">
      <!-- 82 -->
      <g transform="translate(43.743153 106.949813) scale(0.1 -0.1)">
       <defs>
        <path id="ArialMT-32" d="M 3222 541 
L 3222 0 
L 194 0 
Q 188 203 259 391 
Q 375 700 629 1000 
Q 884 1300 1366 1694 
Q 2113 2306 2375 2664 
Q 2638 3022 2638 3341 
Q 2638 3675 2398 3904 
Q 2159 4134 1775 4134 
Q 1369 4134 1125 3890 
Q 881 3647 878 3216 
L 300 3275 
Q 359 3922 746 4261 
Q 1134 4600 1788 4600 
Q 2447 4600 2831 4234 
Q 3216 3869 3216 3328 
Q 3216 3053 3103 2787 
Q 2991 2522 2730 2228 
Q 2469 1934 1863 1422 
Q 1356 997 1212 845 
Q 1069 694 975 541 
L 3222 541 
z
" transform="scale(0.015625)"/>
       </defs>
       <use xlink:href="#ArialMT-38"/>
       <use xlink:href="#ArialMT-32" x="55.615234"/>
      </g>
     </g>
    </g>
    <g id="ytick_4">
     <g id="line2d_6">
      <g>
       <use xlink:href="#mfeb7d74c51" x="59.365028" y="3.578906" style="stroke: #000000; stroke-width: 0.8"/>
      </g>
     </g>
     <g id="text_7">
      <!-- 93 -->
      <g transform="translate(43.743153 7.157813) scale(0.1 -0.1)">
       <defs>
        <path id="ArialMT-33" d="M 269 1209 
L 831 1284 
Q 928 806 1161 595 
Q 1394 384 1728 384 
Q 2125 384 2398 659 
Q 2672 934 2672 1341 
Q 2672 1728 2419 1979 
Q 2166 2231 1775 2231 
Q 1616 2231 1378 2169 
L 1441 2663 
Q 1497 2656 1531 2656 
Q 1891 2656 2178 2843 
Q 2466 3031 2466 3422 
Q 2466 3731 2256 3934 
Q 2047 4138 1716 4138 
Q 1388 4138 1169 3931 
Q 950 3725 888 3313 
L 325 3413 
Q 428 3978 793 4289 
Q 1159 4600 1703 4600 
Q 2078 4600 2393 4439 
Q 2709 4278 2876 4000 
Q 3044 3722 3044 3409 
Q 3044 3113 2884 2869 
Q 2725 2625 2413 2481 
Q 2819 2388 3044 2092 
Q 3269 1797 3269 1353 
Q 3269 753 2831 336 
Q 2394 -81 1725 -81 
Q 1122 -81 723 278 
Q 325 638 269 1209 
z
" transform="scale(0.015625)"/>
       </defs>
       <use xlink:href="#ArialMT-39"/>
       <use xlink:href="#ArialMT-33" x="55.615234"/>
      </g>
     </g>
    </g>
   </g>
   <g id="patch_6">
    <path d="M 59.365028 103.370906 
L 59.365028 3.578906 
" style="fill: none; stroke: #000000; stroke-width: 0.8; stroke-linejoin: miter; stroke-linecap: square"/>
   </g>
   <g id="patch_7">
    <path d="M 59.365028 103.370906 
L 68.883851 103.370906 
" style="fill: none; stroke: #000000; stroke-width: 0.8; stroke-linejoin: miter; stroke-linecap: square"/>
   </g>
  </g>
  <g id="axes_3">
   <g id="patch_8">
    <path d="M 87.921498 103.370906 
L 97.440322 103.370906 
L 97.440322 3.578906 
L 87.921498 3.578906 
z
" style="fill: #ffffff"/>
   </g>
   <g id="PathCollection_17">
    <path d="M 92.68091 83.639924 
L 89.518632 89.964479 
L 95.843188 89.964479 
z
" style="fill: #7da494; fill-opacity: 0.75"/>
   </g>
   <g id="PathCollection_18">
    <path d="M 92.68091 58.864841 
L 97.153046 54.392706 
L 92.68091 49.92057 
L 88.208774 54.392706 
z
" style="fill: #eab67a; fill-opacity: 0.75"/>
   </g>
   <g id="PathCollection_19">
    <path d="M 91.626817 50.214532 
L 93.735002 50.214532 
L 93.735002 48.106347 
L 95.843188 48.106347 
L 95.843188 45.998162 
L 93.735002 45.998162 
L 93.735002 43.889976 
L 91.626817 43.889976 
L 91.626817 45.998162 
L 89.518632 45.998162 
L 89.518632 48.106347 
L 91.626817 48.106347 
z
" style="fill: #9e97b7; fill-opacity: 0.75"/>
   </g>
   <g id="PathCollection_20">
    <path d="M 89.518632 58.358617 
L 95.843188 58.358617 
L 95.843188 52.034061 
L 89.518632 52.034061 
z
" style="fill: #6e8fb2; fill-opacity: 0.75"/>
   </g>
   <g id="PathCollection_21">
    <path d="M 91.099771 57.834191 
L 89.518632 60.572804 
L 91.099771 63.311417 
L 94.262049 63.311417 
L 95.843188 60.572804 
L 94.262049 57.834191 
z
" style="fill: #ddbf9f; fill-opacity: 0.75"/>
   </g>
   <g id="PathCollection_22">
    <path d="M 95.843188 97.458461 
L 89.518632 94.296183 
L 89.518632 100.620738 
z
" style="fill: #d9a7be; fill-opacity: 0.75"/>
   </g>
   <g id="PathCollection_23">
    <path d="M 91.099771 87.020624 
L 92.68091 85.439485 
L 94.262049 87.020624 
L 95.843188 85.439485 
L 94.262049 83.858346 
L 95.843188 82.277207 
L 94.262049 80.696069 
L 92.68091 82.277207 
L 91.099771 80.696069 
L 89.518632 82.277207 
L 91.099771 83.858346 
L 89.518632 85.439485 
z
" style="fill: #9da6b9; fill-opacity: 0.75"/>
   </g>
   <g id="PathCollection_24">
    <path d="M 92.68091 13.496824 
C 93.519556 13.496824 94.323966 13.163626 94.916978 12.570614 
C 95.50999 11.977602 95.843188 11.173192 95.843188 10.334546 
C 95.843188 9.4959 95.50999 8.69149 94.916978 8.098478 
C 94.323966 7.505466 93.519556 7.172268 92.68091 7.172268 
C 91.842264 7.172268 91.037854 7.505466 90.444842 8.098478 
C 89.85183 8.69149 89.518632 9.4959 89.518632 10.334546 
C 89.518632 11.173192 89.85183 11.977602 90.444842 12.570614 
C 91.037854 13.163626 91.842264 13.496824 92.68091 13.496824 
z
" style="fill: #c16e71; fill-opacity: 0.75"/>
   </g>
   <g id="matplotlib.axis_5">
    <g id="xtick_3">
     <g id="line2d_7">
      <g>
       <use xlink:href="#m6dfca877b4" x="92.68091" y="103.370906" style="stroke: #000000; stroke-width: 0.8"/>
      </g>
     </g>
     <g id="text_8">
      <!-- EHE-Hands-UpDown -->
      <g transform="translate(51.642257 195.767563) rotate(-60) scale(0.1 -0.1)">
       <defs>
        <path id="ArialMT-55" d="M 3500 4581 
L 4106 4581 
L 4106 1934 
Q 4106 1244 3950 837 
Q 3794 431 3386 176 
Q 2978 -78 2316 -78 
Q 1672 -78 1262 144 
Q 853 366 678 786 
Q 503 1206 503 1934 
L 503 4581 
L 1109 4581 
L 1109 1938 
Q 1109 1341 1220 1058 
Q 1331 775 1601 622 
Q 1872 469 2263 469 
Q 2931 469 3215 772 
Q 3500 1075 3500 1938 
L 3500 4581 
z
" transform="scale(0.015625)"/>
        <path id="ArialMT-70" d="M 422 -1272 
L 422 3319 
L 934 3319 
L 934 2888 
Q 1116 3141 1344 3267 
Q 1572 3394 1897 3394 
Q 2322 3394 2647 3175 
Q 2972 2956 3137 2557 
Q 3303 2159 3303 1684 
Q 3303 1175 3120 767 
Q 2938 359 2589 142 
Q 2241 -75 1856 -75 
Q 1575 -75 1351 44 
Q 1128 163 984 344 
L 984 -1272 
L 422 -1272 
z
M 931 1641 
Q 931 1000 1190 694 
Q 1450 388 1819 388 
Q 2194 388 2461 705 
Q 2728 1022 2728 1688 
Q 2728 2322 2467 2637 
Q 2206 2953 1844 2953 
Q 1484 2953 1207 2617 
Q 931 2281 931 1641 
z
" transform="scale(0.015625)"/>
        <path id="ArialMT-6f" d="M 213 1659 
Q 213 2581 725 3025 
Q 1153 3394 1769 3394 
Q 2453 3394 2887 2945 
Q 3322 2497 3322 1706 
Q 3322 1066 3130 698 
Q 2938 331 2570 128 
Q 2203 -75 1769 -75 
Q 1072 -75 642 372 
Q 213 819 213 1659 
z
M 791 1659 
Q 791 1022 1069 705 
Q 1347 388 1769 388 
Q 2188 388 2466 706 
Q 2744 1025 2744 1678 
Q 2744 2294 2464 2611 
Q 2184 2928 1769 2928 
Q 1347 2928 1069 2612 
Q 791 2297 791 1659 
z
" transform="scale(0.015625)"/>
        <path id="ArialMT-77" d="M 1034 0 
L 19 3319 
L 600 3319 
L 1128 1403 
L 1325 691 
Q 1338 744 1497 1375 
L 2025 3319 
L 2603 3319 
L 3100 1394 
L 3266 759 
L 3456 1400 
L 4025 3319 
L 4572 3319 
L 3534 0 
L 2950 0 
L 2422 1988 
L 2294 2553 
L 1622 0 
L 1034 0 
z
" transform="scale(0.015625)"/>
       </defs>
       <use xlink:href="#ArialMT-45"/>
       <use xlink:href="#ArialMT-48" x="66.699219"/>
       <use xlink:href="#ArialMT-45" x="138.916016"/>
       <use xlink:href="#ArialMT-2d" x="205.615234"/>
       <use xlink:href="#ArialMT-48" x="238.916016"/>
       <use xlink:href="#ArialMT-61" x="311.132812"/>
       <use xlink:href="#ArialMT-6e" x="366.748047"/>
       <use xlink:href="#ArialMT-64" x="422.363281"/>
       <use xlink:href="#ArialMT-73" x="477.978516"/>
       <use xlink:href="#ArialMT-2d" x="527.978516"/>
       <use xlink:href="#ArialMT-55" x="561.279297"/>
       <use xlink:href="#ArialMT-70" x="633.496094"/>
       <use xlink:href="#ArialMT-44" x="689.111328"/>
       <use xlink:href="#ArialMT-6f" x="761.328125"/>
       <use xlink:href="#ArialMT-77" x="816.943359"/>
       <use xlink:href="#ArialMT-6e" x="889.160156"/>
      </g>
      <!-- (binary) -->
      <g transform="translate(76.074069 174.896674) rotate(-60) scale(0.1 -0.1)">
       <use xlink:href="#ArialMT-28"/>
       <use xlink:href="#ArialMT-62" x="33.300781"/>
       <use xlink:href="#ArialMT-69" x="88.916016"/>
       <use xlink:href="#ArialMT-6e" x="111.132812"/>
       <use xlink:href="#ArialMT-61" x="166.748047"/>
       <use xlink:href="#ArialMT-72" x="222.363281"/>
       <use xlink:href="#ArialMT-79" x="255.664062"/>
       <use xlink:href="#ArialMT-29" x="305.664062"/>
      </g>
     </g>
    </g>
   </g>
   <g id="matplotlib.axis_6">
    <g id="ytick_5">
     <g id="line2d_8">
      <g>
       <use xlink:href="#mfeb7d74c51" x="87.921498" y="103.370906" style="stroke: #000000; stroke-width: 0.8"/>
      </g>
     </g>
     <g id="text_9">
      <!-- 80 -->
      <g transform="translate(72.299623 106.949813) scale(0.1 -0.1)">
       <defs>
        <path id="ArialMT-30" d="M 266 2259 
Q 266 3072 433 3567 
Q 600 4063 929 4331 
Q 1259 4600 1759 4600 
Q 2128 4600 2406 4451 
Q 2684 4303 2865 4023 
Q 3047 3744 3150 3342 
Q 3253 2941 3253 2259 
Q 3253 1453 3087 958 
Q 2922 463 2592 192 
Q 2263 -78 1759 -78 
Q 1097 -78 719 397 
Q 266 969 266 2259 
z
M 844 2259 
Q 844 1131 1108 757 
Q 1372 384 1759 384 
Q 2147 384 2411 759 
Q 2675 1134 2675 2259 
Q 2675 3391 2411 3762 
Q 2147 4134 1753 4134 
Q 1366 4134 1134 3806 
Q 844 3388 844 2259 
z
" transform="scale(0.015625)"/>
       </defs>
       <use xlink:href="#ArialMT-38"/>
       <use xlink:href="#ArialMT-30" x="55.615234"/>
      </g>
     </g>
    </g>
    <g id="ytick_6">
     <g id="line2d_9">
      <g>
       <use xlink:href="#mfeb7d74c51" x="87.921498" y="3.578906" style="stroke: #000000; stroke-width: 0.8"/>
      </g>
     </g>
     <g id="text_10">
      <!-- 93 -->
      <g transform="translate(72.299623 7.157813) scale(0.1 -0.1)">
       <use xlink:href="#ArialMT-39"/>
       <use xlink:href="#ArialMT-33" x="55.615234"/>
      </g>
     </g>
    </g>
   </g>
   <g id="patch_9">
    <path d="M 87.921498 103.370906 
L 87.921498 3.578906 
" style="fill: none; stroke: #000000; stroke-width: 0.8; stroke-linejoin: miter; stroke-linecap: square"/>
   </g>
   <g id="patch_10">
    <path d="M 87.921498 103.370906 
L 97.440322 103.370906 
" style="fill: none; stroke: #000000; stroke-width: 0.8; stroke-linejoin: miter; stroke-linecap: square"/>
   </g>
  </g>
  <g id="axes_4">
   <g id="patch_11">
    <path d="M 116.477969 103.370906 
L 125.996792 103.370906 
L 125.996792 3.578906 
L 116.477969 3.578906 
z
" style="fill: #ffffff"/>
   </g>
   <g id="PathCollection_25">
    <path d="M 121.237381 93.652724 
L 118.075103 99.977279 
L 124.399658 99.977279 
z
" style="fill: #7da494; fill-opacity: 0.75"/>
   </g>
   <g id="PathCollection_26">
    <path d="M 121.237381 90.919319 
L 125.709516 86.447183 
L 121.237381 81.975047 
L 116.765245 86.447183 
z
" style="fill: #eab67a; fill-opacity: 0.75"/>
   </g>
   <g id="PathCollection_27">
    <path d="M 120.183288 72.294968 
L 122.291473 72.294968 
L 122.291473 70.186783 
L 124.399658 70.186783 
L 124.399658 68.078598 
L 122.291473 68.078598 
L 122.291473 65.970413 
L 120.183288 65.970413 
L 120.183288 68.078598 
L 118.075103 68.078598 
L 118.075103 70.186783 
L 120.183288 70.186783 
z
" style="fill: #9e97b7; fill-opacity: 0.75"/>
   </g>
   <g id="PathCollection_28">
    <path d="M 118.075103 67.277785 
L 124.399658 67.277785 
L 124.399658 60.95323 
L 118.075103 60.95323 
z
" style="fill: #6e8fb2; fill-opacity: 0.75"/>
   </g>
   <g id="PathCollection_29">
    <path d="M 119.656242 41.425326 
L 118.075103 44.163938 
L 119.656242 46.902551 
L 122.818519 46.902551 
L 124.399658 44.163938 
L 122.818519 41.425326 
z
" style="fill: #ddbf9f; fill-opacity: 0.75"/>
   </g>
   <g id="PathCollection_30">
    <path d="M 124.399658 36.663197 
L 118.075103 33.50092 
L 118.075103 39.825475 
z
" style="fill: #d9a7be; fill-opacity: 0.75"/>
   </g>
   <g id="PathCollection_31">
    <path d="M 119.656242 64.754016 
L 121.237381 63.172877 
L 122.818519 64.754016 
L 124.399658 63.172877 
L 122.818519 61.591738 
L 124.399658 60.010599 
L 122.818519 58.42946 
L 121.237381 60.010599 
L 119.656242 58.42946 
L 118.075103 60.010599 
L 119.656242 61.591738 
L 118.075103 63.172877 
z
" style="fill: #9da6b9; fill-opacity: 0.75"/>
   </g>
   <g id="PathCollection_32">
    <path d="M 121.237381 8.740656 
C 122.076026 8.740656 122.880436 8.407458 123.473448 7.814446 
C 124.066461 7.221434 124.399658 6.417024 124.399658 5.578378 
C 124.399658 4.739732 124.066461 3.935322 123.473448 3.34231 
C 122.880436 2.749298 122.076026 2.4161 121.237381 2.4161 
C 120.398735 2.4161 119.594325 2.749298 119.001313 3.34231 
C 118.4083 3.935322 118.075103 4.739732 118.075103 5.578378 
C 118.075103 6.417024 118.4083 7.221434 119.001313 7.814446 
C 119.594325 8.407458 120.398735 8.740656 121.237381 8.740656 
z
" style="fill: #c16e71; fill-opacity: 0.75"/>
   </g>
   <g id="matplotlib.axis_7">
    <g id="xtick_4">
     <g id="line2d_10">
      <g>
       <use xlink:href="#m6dfca877b4" x="121.237381" y="103.370906" style="stroke: #000000; stroke-width: 0.8"/>
      </g>
     </g>
     <g id="text_11">
      <!-- EHE-Waist-BendL -->
      <g transform="translate(87.055759 183.890836) rotate(-60) scale(0.1 -0.1)">
       <use xlink:href="#ArialMT-45"/>
       <use xlink:href="#ArialMT-48" x="66.699219"/>
       <use xlink:href="#ArialMT-45" x="138.916016"/>
       <use xlink:href="#ArialMT-2d" x="205.615234"/>
       <use xlink:href="#ArialMT-57" x="238.916016"/>
       <use xlink:href="#ArialMT-61" x="329.550781"/>
       <use xlink:href="#ArialMT-69" x="385.166016"/>
       <use xlink:href="#ArialMT-73" x="407.382812"/>
       <use xlink:href="#ArialMT-74" x="457.382812"/>
       <use xlink:href="#ArialMT-2d" x="485.166016"/>
       <use xlink:href="#ArialMT-42" x="518.466797"/>
       <use xlink:href="#ArialMT-65" x="585.166016"/>
       <use xlink:href="#ArialMT-6e" x="640.78125"/>
       <use xlink:href="#ArialMT-64" x="696.396484"/>
       <use xlink:href="#ArialMT-4c" x="752.011719"/>
      </g>
      <!-- (binary) -->
      <g transform="translate(108.059055 168.958311) rotate(-60) scale(0.1 -0.1)">
       <use xlink:href="#ArialMT-28"/>
       <use xlink:href="#ArialMT-62" x="33.300781"/>
       <use xlink:href="#ArialMT-69" x="88.916016"/>
       <use xlink:href="#ArialMT-6e" x="111.132812"/>
       <use xlink:href="#ArialMT-61" x="166.748047"/>
       <use xlink:href="#ArialMT-72" x="222.363281"/>
       <use xlink:href="#ArialMT-79" x="255.664062"/>
       <use xlink:href="#ArialMT-29" x="305.664062"/>
      </g>
     </g>
    </g>
   </g>
   <g id="matplotlib.axis_8">
    <g id="ytick_7">
     <g id="line2d_11">
      <g>
       <use xlink:href="#mfeb7d74c51" x="116.477969" y="103.370906" style="stroke: #000000; stroke-width: 0.8"/>
      </g>
     </g>
     <g id="text_12">
      <!-- 82 -->
      <g transform="translate(100.856094 106.949813) scale(0.1 -0.1)">
       <use xlink:href="#ArialMT-38"/>
       <use xlink:href="#ArialMT-32" x="55.615234"/>
      </g>
     </g>
    </g>
    <g id="ytick_8">
     <g id="line2d_12">
      <g>
       <use xlink:href="#mfeb7d74c51" x="116.477969" y="3.578906" style="stroke: #000000; stroke-width: 0.8"/>
      </g>
     </g>
     <g id="text_13">
      <!-- 90 -->
      <g transform="translate(100.856094 7.157813) scale(0.1 -0.1)">
       <use xlink:href="#ArialMT-39"/>
       <use xlink:href="#ArialMT-30" x="55.615234"/>
      </g>
     </g>
    </g>
   </g>
   <g id="patch_12">
    <path d="M 116.477969 103.370906 
L 116.477969 3.578906 
" style="fill: none; stroke: #000000; stroke-width: 0.8; stroke-linejoin: miter; stroke-linecap: square"/>
   </g>
   <g id="patch_13">
    <path d="M 116.477969 103.370906 
L 125.996792 103.370906 
" style="fill: none; stroke: #000000; stroke-width: 0.8; stroke-linejoin: miter; stroke-linecap: square"/>
   </g>
  </g>
  <g id="axes_5">
   <g id="patch_14">
    <path d="M 145.034439 103.370906 
L 154.553263 103.370906 
L 154.553263 3.578906 
L 145.034439 3.578906 
z
" style="fill: #ffffff"/>
   </g>
   <g id="PathCollection_33">
    <path d="M 149.793851 90.141439 
L 146.631573 96.465995 
L 152.956129 96.465995 
z
" style="fill: #7da494; fill-opacity: 0.75"/>
   </g>
   <g id="PathCollection_34">
    <path d="M 149.793851 52.002582 
L 154.265987 47.530446 
L 149.793851 43.05831 
L 145.321715 47.530446 
z
" style="fill: #eab67a; fill-opacity: 0.75"/>
   </g>
   <g id="PathCollection_35">
    <path d="M 148.739759 51.757302 
L 150.847944 51.757302 
L 150.847944 49.649117 
L 152.956129 49.649117 
L 152.956129 47.540932 
L 150.847944 47.540932 
L 150.847944 45.432747 
L 148.739759 45.432747 
L 148.739759 47.540932 
L 146.631573 47.540932 
L 146.631573 49.649117 
L 148.739759 49.649117 
z
" style="fill: #9e97b7; fill-opacity: 0.75"/>
   </g>
   <g id="PathCollection_36">
    <path d="M 146.631573 58.751021 
L 152.956129 58.751021 
L 152.956129 52.426465 
L 146.631573 52.426465 
z
" style="fill: #6e8fb2; fill-opacity: 0.75"/>
   </g>
   <g id="PathCollection_37">
    <path d="M 148.212712 20.452108 
L 146.631573 23.190721 
L 148.212712 25.929334 
L 151.37499 25.929334 
L 152.956129 23.190721 
L 151.37499 20.452108 
z
" style="fill: #ddbf9f; fill-opacity: 0.75"/>
   </g>
   <g id="PathCollection_38">
    <path d="M 152.956129 63.266881 
L 146.631573 60.104603 
L 146.631573 66.429159 
z
" style="fill: #d9a7be; fill-opacity: 0.75"/>
   </g>
   <g id="PathCollection_39">
    <path d="M 148.212712 29.998247 
L 149.793851 28.417108 
L 151.37499 29.998247 
L 152.956129 28.417108 
L 151.37499 26.835969 
L 152.956129 25.25483 
L 151.37499 23.673692 
L 149.793851 25.25483 
L 148.212712 23.673692 
L 146.631573 25.25483 
L 148.212712 26.835969 
L 146.631573 28.417108 
z
" style="fill: #9da6b9; fill-opacity: 0.75"/>
   </g>
   <g id="PathCollection_40">
    <path d="M 149.793851 13.405054 
C 150.632497 13.405054 151.436907 13.071856 152.029919 12.478844 
C 152.622931 11.885832 152.956129 11.081422 152.956129 10.242776 
C 152.956129 9.40413 152.622931 8.59972 152.029919 8.006708 
C 151.436907 7.413696 150.632497 7.080499 149.793851 7.080499 
C 148.955205 7.080499 148.150795 7.413696 147.557783 8.006708 
C 146.964771 8.59972 146.631573 9.40413 146.631573 10.242776 
C 146.631573 11.081422 146.964771 11.885832 147.557783 12.478844 
C 148.150795 13.071856 148.955205 13.405054 149.793851 13.405054 
z
" style="fill: #c16e71; fill-opacity: 0.75"/>
   </g>
   <g id="matplotlib.axis_9">
    <g id="xtick_5">
     <g id="line2d_13">
      <g>
       <use xlink:href="#m6dfca877b4" x="149.793851" y="103.370906" style="stroke: #000000; stroke-width: 0.8"/>
      </g>
     </g>
     <g id="text_14">
      <!-- EHE-Waist-BendR -->
      <g transform="translate(114.781761 185.32925) rotate(-60) scale(0.1 -0.1)">
       <defs>
        <path id="ArialMT-52" d="M 503 0 
L 503 4581 
L 2534 4581 
Q 3147 4581 3465 4457 
Q 3784 4334 3975 4021 
Q 4166 3709 4166 3331 
Q 4166 2844 3850 2509 
Q 3534 2175 2875 2084 
Q 3116 1969 3241 1856 
Q 3506 1613 3744 1247 
L 4541 0 
L 3778 0 
L 3172 953 
Q 2906 1366 2734 1584 
Q 2563 1803 2427 1890 
Q 2291 1978 2150 2013 
Q 2047 2034 1813 2034 
L 1109 2034 
L 1109 0 
L 503 0 
z
M 1109 2559 
L 2413 2559 
Q 2828 2559 3062 2645 
Q 3297 2731 3419 2920 
Q 3541 3109 3541 3331 
Q 3541 3656 3305 3865 
Q 3069 4075 2559 4075 
L 1109 4075 
L 1109 2559 
z
" transform="scale(0.015625)"/>
       </defs>
       <use xlink:href="#ArialMT-45"/>
       <use xlink:href="#ArialMT-48" x="66.699219"/>
       <use xlink:href="#ArialMT-45" x="138.916016"/>
       <use xlink:href="#ArialMT-2d" x="205.615234"/>
       <use xlink:href="#ArialMT-57" x="238.916016"/>
       <use xlink:href="#ArialMT-61" x="329.550781"/>
       <use xlink:href="#ArialMT-69" x="385.166016"/>
       <use xlink:href="#ArialMT-73" x="407.382812"/>
       <use xlink:href="#ArialMT-74" x="457.382812"/>
       <use xlink:href="#ArialMT-2d" x="485.166016"/>
       <use xlink:href="#ArialMT-42" x="518.466797"/>
       <use xlink:href="#ArialMT-65" x="585.166016"/>
       <use xlink:href="#ArialMT-6e" x="640.78125"/>
       <use xlink:href="#ArialMT-64" x="696.396484"/>
       <use xlink:href="#ArialMT-52" x="752.011719"/>
      </g>
      <!-- (binary) -->
      <g transform="translate(136.200291 169.677518) rotate(-60) scale(0.1 -0.1)">
       <use xlink:href="#ArialMT-28"/>
       <use xlink:href="#ArialMT-62" x="33.300781"/>
       <use xlink:href="#ArialMT-69" x="88.916016"/>
       <use xlink:href="#ArialMT-6e" x="111.132812"/>
       <use xlink:href="#ArialMT-61" x="166.748047"/>
       <use xlink:href="#ArialMT-72" x="222.363281"/>
       <use xlink:href="#ArialMT-79" x="255.664062"/>
       <use xlink:href="#ArialMT-29" x="305.664062"/>
      </g>
     </g>
    </g>
   </g>
   <g id="matplotlib.axis_10">
    <g id="ytick_9">
     <g id="line2d_14">
      <g>
       <use xlink:href="#mfeb7d74c51" x="145.034439" y="103.370906" style="stroke: #000000; stroke-width: 0.8"/>
      </g>
     </g>
     <g id="text_15">
      <!-- 84 -->
      <g transform="translate(129.412564 106.949813) scale(0.1 -0.1)">
       <defs>
        <path id="ArialMT-34" d="M 2069 0 
L 2069 1097 
L 81 1097 
L 81 1613 
L 2172 4581 
L 2631 4581 
L 2631 1613 
L 3250 1613 
L 3250 1097 
L 2631 1097 
L 2631 0 
L 2069 0 
z
M 2069 1613 
L 2069 3678 
L 634 1613 
L 2069 1613 
z
" transform="scale(0.015625)"/>
       </defs>
       <use xlink:href="#ArialMT-38"/>
       <use xlink:href="#ArialMT-34" x="55.615234"/>
      </g>
     </g>
    </g>
    <g id="ytick_10">
     <g id="line2d_15">
      <g>
       <use xlink:href="#mfeb7d74c51" x="145.034439" y="3.578906" style="stroke: #000000; stroke-width: 0.8"/>
      </g>
     </g>
     <g id="text_16">
      <!-- 97 -->
      <g transform="translate(129.412564 7.157813) scale(0.1 -0.1)">
       <defs>
        <path id="ArialMT-37" d="M 303 3981 
L 303 4522 
L 3269 4522 
L 3269 4084 
Q 2831 3619 2401 2847 
Q 1972 2075 1738 1259 
Q 1569 684 1522 0 
L 944 0 
Q 953 541 1156 1306 
Q 1359 2072 1739 2783 
Q 2119 3494 2547 3981 
L 303 3981 
z
" transform="scale(0.015625)"/>
       </defs>
       <use xlink:href="#ArialMT-39"/>
       <use xlink:href="#ArialMT-37" x="55.615234"/>
      </g>
     </g>
    </g>
   </g>
   <g id="patch_15">
    <path d="M 145.034439 103.370906 
L 145.034439 3.578906 
" style="fill: none; stroke: #000000; stroke-width: 0.8; stroke-linejoin: miter; stroke-linecap: square"/>
   </g>
   <g id="patch_16">
    <path d="M 145.034439 103.370906 
L 154.553263 103.370906 
" style="fill: none; stroke: #000000; stroke-width: 0.8; stroke-linejoin: miter; stroke-linecap: square"/>
   </g>
  </g>
  <g id="axes_6">
   <g id="patch_17">
    <path d="M 173.59091 103.370906 
L 183.109733 103.370906 
L 183.109733 3.578906 
L 173.59091 3.578906 
z
" style="fill: #ffffff"/>
   </g>
   <g id="PathCollection_41">
    <path d="M 178.350322 52.016952 
L 175.188044 58.341507 
L 181.512599 58.341507 
z
" style="fill: #7da494; fill-opacity: 0.75"/>
   </g>
   <g id="PathCollection_42">
    <path d="M 178.350322 45.854573 
L 182.822458 41.382437 
L 178.350322 36.910301 
L 173.878186 41.382437 
z
" style="fill: #eab67a; fill-opacity: 0.75"/>
   </g>
   <g id="PathCollection_43">
    <path d="M 177.296229 51.435115 
L 179.404414 51.435115 
L 179.404414 49.32693 
L 181.512599 49.32693 
L 181.512599 47.218744 
L 179.404414 47.218744 
L 179.404414 45.110559 
L 177.296229 45.110559 
L 177.296229 47.218744 
L 175.188044 47.218744 
L 175.188044 49.32693 
L 177.296229 49.32693 
z
" style="fill: #9e97b7; fill-opacity: 0.75"/>
   </g>
   <g id="PathCollection_44">
    <path d="M 175.188044 40.210799 
L 181.512599 40.210799 
L 181.512599 33.886244 
L 175.188044 33.886244 
z
" style="fill: #6e8fb2; fill-opacity: 0.75"/>
   </g>
   <g id="PathCollection_45">
    <path d="M 176.769183 34.323603 
L 175.188044 37.062216 
L 176.769183 39.800829 
L 179.931461 39.800829 
L 181.512599 37.062216 
L 179.931461 34.323603 
z
" style="fill: #ddbf9f; fill-opacity: 0.75"/>
   </g>
   <g id="PathCollection_46">
    <path d="M 181.512599 98.150587 
L 175.188044 94.988309 
L 175.188044 101.312865 
z
" style="fill: #d9a7be; fill-opacity: 0.75"/>
   </g>
   <g id="PathCollection_47">
    <path d="M 176.769183 55.59306 
L 178.350322 54.011921 
L 179.931461 55.59306 
L 181.512599 54.011921 
L 179.931461 52.430783 
L 181.512599 50.849644 
L 179.931461 49.268505 
L 178.350322 50.849644 
L 176.769183 49.268505 
L 175.188044 50.849644 
L 176.769183 52.430783 
L 175.188044 54.011921 
z
" style="fill: #9da6b9; fill-opacity: 0.75"/>
   </g>
   <g id="PathCollection_48">
    <path d="M 178.350322 9.583245 
C 179.188968 9.583245 179.993378 9.250048 180.58639 8.657036 
C 181.179402 8.064024 181.512599 7.259614 181.512599 6.420968 
C 181.512599 5.582322 181.179402 4.777912 180.58639 4.1849 
C 179.993378 3.591888 179.188968 3.25869 178.350322 3.25869 
C 177.511676 3.25869 176.707266 3.591888 176.114254 4.1849 
C 175.521242 4.777912 175.188044 5.582322 175.188044 6.420968 
C 175.188044 7.259614 175.521242 8.064024 176.114254 8.657036 
C 176.707266 9.250048 177.511676 9.583245 178.350322 9.583245 
z
" style="fill: #c16e71; fill-opacity: 0.75"/>
   </g>
   <g id="matplotlib.axis_11">
    <g id="xtick_6">
     <g id="line2d_16">
      <g>
       <use xlink:href="#m6dfca877b4" x="178.350322" y="103.370906" style="stroke: #000000; stroke-width: 0.8"/>
      </g>
     </g>
     <g id="text_17">
      <!-- EHE-Forward-Gait -->
      <g transform="translate(143.432763 185.165517) rotate(-60) scale(0.1 -0.1)">
       <defs>
        <path id="ArialMT-46" d="M 525 0 
L 525 4581 
L 3616 4581 
L 3616 4041 
L 1131 4041 
L 1131 2622 
L 3281 2622 
L 3281 2081 
L 1131 2081 
L 1131 0 
L 525 0 
z
" transform="scale(0.015625)"/>
       </defs>
       <use xlink:href="#ArialMT-45"/>
       <use xlink:href="#ArialMT-48" x="66.699219"/>
       <use xlink:href="#ArialMT-45" x="138.916016"/>
       <use xlink:href="#ArialMT-2d" x="205.615234"/>
       <use xlink:href="#ArialMT-46" x="238.916016"/>
       <use xlink:href="#ArialMT-6f" x="300"/>
       <use xlink:href="#ArialMT-72" x="355.615234"/>
       <use xlink:href="#ArialMT-77" x="388.916016"/>
       <use xlink:href="#ArialMT-61" x="461.132812"/>
       <use xlink:href="#ArialMT-72" x="516.748047"/>
       <use xlink:href="#ArialMT-64" x="550.048828"/>
       <use xlink:href="#ArialMT-2d" x="605.664062"/>
       <use xlink:href="#ArialMT-47" x="638.964844"/>
       <use xlink:href="#ArialMT-61" x="716.748047"/>
       <use xlink:href="#ArialMT-69" x="772.363281"/>
       <use xlink:href="#ArialMT-74" x="794.580078"/>
      </g>
      <!-- (binary) -->
      <g transform="translate(164.804027 169.595652) rotate(-60) scale(0.1 -0.1)">
       <use xlink:href="#ArialMT-28"/>
       <use xlink:href="#ArialMT-62" x="33.300781"/>
       <use xlink:href="#ArialMT-69" x="88.916016"/>
       <use xlink:href="#ArialMT-6e" x="111.132812"/>
       <use xlink:href="#ArialMT-61" x="166.748047"/>
       <use xlink:href="#ArialMT-72" x="222.363281"/>
       <use xlink:href="#ArialMT-79" x="255.664062"/>
       <use xlink:href="#ArialMT-29" x="305.664062"/>
      </g>
     </g>
    </g>
   </g>
   <g id="matplotlib.axis_12">
    <g id="ytick_11">
     <g id="line2d_17">
      <g>
       <use xlink:href="#mfeb7d74c51" x="173.59091" y="103.370906" style="stroke: #000000; stroke-width: 0.8"/>
      </g>
     </g>
     <g id="text_18">
      <!-- 72 -->
      <g transform="translate(157.969035 106.949813) scale(0.1 -0.1)">
       <use xlink:href="#ArialMT-37"/>
       <use xlink:href="#ArialMT-32" x="55.615234"/>
      </g>
     </g>
    </g>
    <g id="ytick_12">
     <g id="line2d_18">
      <g>
       <use xlink:href="#mfeb7d74c51" x="173.59091" y="3.578906" style="stroke: #000000; stroke-width: 0.8"/>
      </g>
     </g>
     <g id="text_19">
      <!-- 92 -->
      <g transform="translate(157.969035 7.157813) scale(0.1 -0.1)">
       <use xlink:href="#ArialMT-39"/>
       <use xlink:href="#ArialMT-32" x="55.615234"/>
      </g>
     </g>
    </g>
   </g>
   <g id="patch_18">
    <path d="M 173.59091 103.370906 
L 173.59091 3.578906 
" style="fill: none; stroke: #000000; stroke-width: 0.8; stroke-linejoin: miter; stroke-linecap: square"/>
   </g>
   <g id="patch_19">
    <path d="M 173.59091 103.370906 
L 183.109733 103.370906 
" style="fill: none; stroke: #000000; stroke-width: 0.8; stroke-linejoin: miter; stroke-linecap: square"/>
   </g>
  </g>
  <g id="axes_7">
   <g id="patch_20">
    <path d="M 202.147381 103.370906 
L 211.666204 103.370906 
L 211.666204 3.578906 
L 202.147381 3.578906 
z
" style="fill: #ffffff"/>
   </g>
   <g id="PathCollection_49">
    <path d="M 206.906792 70.919859 
L 203.744515 77.244415 
L 210.06907 77.244415 
z
" style="fill: #7da494; fill-opacity: 0.75"/>
   </g>
   <g id="PathCollection_50">
    <path d="M 206.906792 52.607135 
L 211.378928 48.134999 
L 206.906792 43.662863 
L 202.434656 48.134999 
z
" style="fill: #eab67a; fill-opacity: 0.75"/>
   </g>
   <g id="PathCollection_51">
    <path d="M 205.8527 49.058353 
L 207.960885 49.058353 
L 207.960885 46.950168 
L 210.06907 46.950168 
L 210.06907 44.841983 
L 207.960885 44.841983 
L 207.960885 42.733798 
L 205.8527 42.733798 
L 205.8527 44.841983 
L 203.744515 44.841983 
L 203.744515 46.950168 
L 205.8527 46.950168 
z
" style="fill: #9e97b7; fill-opacity: 0.75"/>
   </g>
   <g id="PathCollection_52">
    <path d="M 203.744515 65.574599 
L 210.06907 65.574599 
L 210.06907 59.250044 
L 203.744515 59.250044 
z
" style="fill: #6e8fb2; fill-opacity: 0.75"/>
   </g>
   <g id="PathCollection_53">
    <path d="M 205.325653 26.370081 
L 203.744515 29.108694 
L 205.325653 31.847306 
L 208.487931 31.847306 
L 210.06907 29.108694 
L 208.487931 26.370081 
z
" style="fill: #ddbf9f; fill-opacity: 0.75"/>
   </g>
   <g id="PathCollection_54">
    <path d="M 210.06907 97.415586 
L 203.744515 94.253308 
L 203.744515 100.577863 
z
" style="fill: #d9a7be; fill-opacity: 0.75"/>
   </g>
   <g id="PathCollection_55">
    <path d="M 205.325653 49.624933 
L 206.906792 48.043794 
L 208.487931 49.624933 
L 210.06907 48.043794 
L 208.487931 46.462655 
L 210.06907 44.881517 
L 208.487931 43.300378 
L 206.906792 44.881517 
L 205.325653 43.300378 
L 203.744515 44.881517 
L 205.325653 46.462655 
L 203.744515 48.043794 
z
" style="fill: #9da6b9; fill-opacity: 0.75"/>
   </g>
   <g id="PathCollection_56">
    <path d="M 206.906792 10.975338 
C 207.745438 10.975338 208.549848 10.64214 209.14286 10.049128 
C 209.735872 9.456116 210.06907 8.651706 210.06907 7.81306 
C 210.06907 6.974414 209.735872 6.170004 209.14286 5.576992 
C 208.549848 4.98398 207.745438 4.650782 206.906792 4.650782 
C 206.068146 4.650782 205.263736 4.98398 204.670724 5.576992 
C 204.077712 6.170004 203.744515 6.974414 203.744515 7.81306 
C 203.744515 8.651706 204.077712 9.456116 204.670724 10.049128 
C 205.263736 10.64214 206.068146 10.975338 206.906792 10.975338 
z
" style="fill: #c16e71; fill-opacity: 0.75"/>
   </g>
   <g id="matplotlib.axis_13">
    <g id="xtick_7">
     <g id="line2d_19">
      <g>
       <use xlink:href="#m6dfca877b4" x="206.906792" y="103.370906" style="stroke: #000000; stroke-width: 0.8"/>
      </g>
     </g>
     <g id="text_20">
      <!-- EHE-Backward-Gait -->
      <g transform="translate(168.372827 191.429317) rotate(-60) scale(0.1 -0.1)">
       <defs>
        <path id="ArialMT-6b" d="M 425 0 
L 425 4581 
L 988 4581 
L 988 1969 
L 2319 3319 
L 3047 3319 
L 1778 2088 
L 3175 0 
L 2481 0 
L 1384 1697 
L 988 1316 
L 988 0 
L 425 0 
z
" transform="scale(0.015625)"/>
       </defs>
       <use xlink:href="#ArialMT-45"/>
       <use xlink:href="#ArialMT-48" x="66.699219"/>
       <use xlink:href="#ArialMT-45" x="138.916016"/>
       <use xlink:href="#ArialMT-2d" x="205.615234"/>
       <use xlink:href="#ArialMT-42" x="238.916016"/>
       <use xlink:href="#ArialMT-61" x="305.615234"/>
       <use xlink:href="#ArialMT-63" x="361.230469"/>
       <use xlink:href="#ArialMT-6b" x="411.230469"/>
       <use xlink:href="#ArialMT-77" x="461.230469"/>
       <use xlink:href="#ArialMT-61" x="533.447266"/>
       <use xlink:href="#ArialMT-72" x="589.0625"/>
       <use xlink:href="#ArialMT-64" x="622.363281"/>
       <use xlink:href="#ArialMT-2d" x="677.978516"/>
       <use xlink:href="#ArialMT-47" x="711.279297"/>
       <use xlink:href="#ArialMT-61" x="789.0625"/>
       <use xlink:href="#ArialMT-69" x="844.677734"/>
       <use xlink:href="#ArialMT-74" x="866.894531"/>
      </g>
      <!-- (binary) -->
      <g transform="translate(191.552295 172.727551) rotate(-60) scale(0.1 -0.1)">
       <use xlink:href="#ArialMT-28"/>
       <use xlink:href="#ArialMT-62" x="33.300781"/>
       <use xlink:href="#ArialMT-69" x="88.916016"/>
       <use xlink:href="#ArialMT-6e" x="111.132812"/>
       <use xlink:href="#ArialMT-61" x="166.748047"/>
       <use xlink:href="#ArialMT-72" x="222.363281"/>
       <use xlink:href="#ArialMT-79" x="255.664062"/>
       <use xlink:href="#ArialMT-29" x="305.664062"/>
      </g>
     </g>
    </g>
   </g>
   <g id="matplotlib.axis_14">
    <g id="ytick_13">
     <g id="line2d_20">
      <g>
       <use xlink:href="#mfeb7d74c51" x="202.147381" y="103.370906" style="stroke: #000000; stroke-width: 0.8"/>
      </g>
     </g>
     <g id="text_21">
      <!-- 73 -->
      <g transform="translate(186.525506 106.949813) scale(0.1 -0.1)">
       <use xlink:href="#ArialMT-37"/>
       <use xlink:href="#ArialMT-33" x="55.615234"/>
      </g>
     </g>
    </g>
    <g id="ytick_14">
     <g id="line2d_21">
      <g>
       <use xlink:href="#mfeb7d74c51" x="202.147381" y="3.578906" style="stroke: #000000; stroke-width: 0.8"/>
      </g>
     </g>
     <g id="text_22">
      <!-- 88 -->
      <g transform="translate(186.525506 7.157812) scale(0.1 -0.1)">
       <use xlink:href="#ArialMT-38"/>
       <use xlink:href="#ArialMT-38" x="55.615234"/>
      </g>
     </g>
    </g>
   </g>
   <g id="patch_21">
    <path d="M 202.147381 103.370906 
L 202.147381 3.578906 
" style="fill: none; stroke: #000000; stroke-width: 0.8; stroke-linejoin: miter; stroke-linecap: square"/>
   </g>
   <g id="patch_22">
    <path d="M 202.147381 103.370906 
L 211.666204 103.370906 
" style="fill: none; stroke: #000000; stroke-width: 0.8; stroke-linejoin: miter; stroke-linecap: square"/>
   </g>
  </g>
  <g id="axes_8">
   <g id="patch_23">
    <path d="M 230.703851 103.370906 
L 240.222675 103.370906 
L 240.222675 3.578906 
L 230.703851 3.578906 
z
" style="fill: #ffffff"/>
   </g>
   <g id="PathCollection_57">
    <path d="M 235.463263 92.234186 
L 232.300985 98.558741 
L 238.625541 98.558741 
z
" style="fill: #7da494; fill-opacity: 0.75"/>
   </g>
   <g id="PathCollection_58">
    <path d="M 235.463263 52.543071 
L 239.935399 48.070935 
L 235.463263 43.598799 
L 230.991127 48.070935 
z
" style="fill: #eab67a; fill-opacity: 0.75"/>
   </g>
   <g id="PathCollection_59">
    <path d="M 234.40917 63.1648 
L 236.517355 63.1648 
L 236.517355 61.056615 
L 238.625541 61.056615 
L 238.625541 58.94843 
L 236.517355 58.94843 
L 236.517355 56.840244 
L 234.40917 56.840244 
L 234.40917 58.94843 
L 232.300985 58.94843 
L 232.300985 61.056615 
L 234.40917 61.056615 
z
" style="fill: #9e97b7; fill-opacity: 0.75"/>
   </g>
   <g id="PathCollection_60">
    <path d="M 232.300985 70.840381 
L 238.625541 70.840381 
L 238.625541 64.515825 
L 232.300985 64.515825 
z
" style="fill: #6e8fb2; fill-opacity: 0.75"/>
   </g>
   <g id="PathCollection_61">
    <path d="M 233.882124 31.695115 
L 232.300985 34.433728 
L 233.882124 37.172341 
L 237.044402 37.172341 
L 238.625541 34.433728 
L 237.044402 31.695115 
z
" style="fill: #ddbf9f; fill-opacity: 0.75"/>
   </g>
   <g id="PathCollection_62">
    <path d="M 238.625541 88.336377 
L 232.300985 85.174099 
L 232.300985 91.498654 
z
" style="fill: #d9a7be; fill-opacity: 0.75"/>
   </g>
   <g id="PathCollection_63">
    <path d="M 233.882124 52.365887 
L 235.463263 50.784748 
L 237.044402 52.365887 
L 238.625541 50.784748 
L 237.044402 49.203609 
L 238.625541 47.62247 
L 237.044402 46.041331 
L 235.463263 47.62247 
L 233.882124 46.041331 
L 232.300985 47.62247 
L 233.882124 49.203609 
L 232.300985 50.784748 
z
" style="fill: #9da6b9; fill-opacity: 0.75"/>
   </g>
   <g id="PathCollection_64">
    <path d="M 235.463263 9.342955 
C 236.301909 9.342955 237.106319 9.009757 237.699331 8.416745 
C 238.292343 7.823733 238.625541 7.019323 238.625541 6.180677 
C 238.625541 5.342031 238.292343 4.537621 237.699331 3.944609 
C 237.106319 3.351597 236.301909 3.018399 235.463263 3.018399 
C 234.624617 3.018399 233.820207 3.351597 233.227195 3.944609 
C 232.634183 4.537621 232.300985 5.342031 232.300985 6.180677 
C 232.300985 7.019323 232.634183 7.823733 233.227195 8.416745 
C 233.820207 9.009757 234.624617 9.342955 235.463263 9.342955 
z
" style="fill: #c16e71; fill-opacity: 0.75"/>
   </g>
   <g id="matplotlib.axis_15">
    <g id="xtick_8">
     <g id="line2d_22">
      <g>
       <use xlink:href="#m6dfca877b4" x="235.463263" y="103.370906" style="stroke: #000000; stroke-width: 0.8"/>
      </g>
     </g>
     <g id="text_23">
      <!-- PD-Round-Gait -->
      <g transform="translate(207.483985 173.148062) rotate(-60) scale(0.1 -0.1)">
       <defs>
        <path id="ArialMT-50" d="M 494 0 
L 494 4581 
L 2222 4581 
Q 2678 4581 2919 4538 
Q 3256 4481 3484 4323 
Q 3713 4166 3852 3881 
Q 3991 3597 3991 3256 
Q 3991 2672 3619 2267 
Q 3247 1863 2275 1863 
L 1100 1863 
L 1100 0 
L 494 0 
z
M 1100 2403 
L 2284 2403 
Q 2872 2403 3119 2622 
Q 3366 2841 3366 3238 
Q 3366 3525 3220 3729 
Q 3075 3934 2838 4000 
Q 2684 4041 2272 4041 
L 1100 4041 
L 1100 2403 
z
" transform="scale(0.015625)"/>
       </defs>
       <use xlink:href="#ArialMT-50"/>
       <use xlink:href="#ArialMT-44" x="66.699219"/>
       <use xlink:href="#ArialMT-2d" x="138.916016"/>
       <use xlink:href="#ArialMT-52" x="172.216797"/>
       <use xlink:href="#ArialMT-6f" x="244.433594"/>
       <use xlink:href="#ArialMT-75" x="300.048828"/>
       <use xlink:href="#ArialMT-6e" x="355.664062"/>
       <use xlink:href="#ArialMT-64" x="411.279297"/>
       <use xlink:href="#ArialMT-2d" x="466.894531"/>
       <use xlink:href="#ArialMT-47" x="500.195312"/>
       <use xlink:href="#ArialMT-61" x="577.978516"/>
       <use xlink:href="#ArialMT-69" x="633.59375"/>
       <use xlink:href="#ArialMT-74" x="655.810547"/>
      </g>
      <!-- (binary) -->
      <g transform="translate(225.386109 163.586924) rotate(-60) scale(0.1 -0.1)">
       <use xlink:href="#ArialMT-28"/>
       <use xlink:href="#ArialMT-62" x="33.300781"/>
       <use xlink:href="#ArialMT-69" x="88.916016"/>
       <use xlink:href="#ArialMT-6e" x="111.132812"/>
       <use xlink:href="#ArialMT-61" x="166.748047"/>
       <use xlink:href="#ArialMT-72" x="222.363281"/>
       <use xlink:href="#ArialMT-79" x="255.664062"/>
       <use xlink:href="#ArialMT-29" x="305.664062"/>
      </g>
     </g>
    </g>
   </g>
   <g id="matplotlib.axis_16">
    <g id="ytick_15">
     <g id="line2d_23">
      <g>
       <use xlink:href="#mfeb7d74c51" x="230.703851" y="103.370906" style="stroke: #000000; stroke-width: 0.8"/>
      </g>
     </g>
     <g id="text_24">
      <!-- 67 -->
      <g transform="translate(215.081976 106.949813) scale(0.1 -0.1)">
       <defs>
        <path id="ArialMT-36" d="M 3184 3459 
L 2625 3416 
Q 2550 3747 2413 3897 
Q 2184 4138 1850 4138 
Q 1581 4138 1378 3988 
Q 1113 3794 959 3422 
Q 806 3050 800 2363 
Q 1003 2672 1297 2822 
Q 1591 2972 1913 2972 
Q 2475 2972 2870 2558 
Q 3266 2144 3266 1488 
Q 3266 1056 3080 686 
Q 2894 316 2569 119 
Q 2244 -78 1831 -78 
Q 1128 -78 684 439 
Q 241 956 241 2144 
Q 241 3472 731 4075 
Q 1159 4600 1884 4600 
Q 2425 4600 2770 4297 
Q 3116 3994 3184 3459 
z
M 888 1484 
Q 888 1194 1011 928 
Q 1134 663 1356 523 
Q 1578 384 1822 384 
Q 2178 384 2434 671 
Q 2691 959 2691 1453 
Q 2691 1928 2437 2201 
Q 2184 2475 1800 2475 
Q 1419 2475 1153 2201 
Q 888 1928 888 1484 
z
" transform="scale(0.015625)"/>
       </defs>
       <use xlink:href="#ArialMT-36"/>
       <use xlink:href="#ArialMT-37" x="55.615234"/>
      </g>
     </g>
    </g>
    <g id="ytick_16">
     <g id="line2d_24">
      <g>
       <use xlink:href="#mfeb7d74c51" x="230.703851" y="3.578906" style="stroke: #000000; stroke-width: 0.8"/>
      </g>
     </g>
     <g id="text_25">
      <!-- 82 -->
      <g transform="translate(215.081976 7.157813) scale(0.1 -0.1)">
       <use xlink:href="#ArialMT-38"/>
       <use xlink:href="#ArialMT-32" x="55.615234"/>
      </g>
     </g>
    </g>
   </g>
   <g id="patch_24">
    <path d="M 230.703851 103.370906 
L 230.703851 3.578906 
" style="fill: none; stroke: #000000; stroke-width: 0.8; stroke-linejoin: miter; stroke-linecap: square"/>
   </g>
   <g id="patch_25">
    <path d="M 230.703851 103.370906 
L 240.222675 103.370906 
" style="fill: none; stroke: #000000; stroke-width: 0.8; stroke-linejoin: miter; stroke-linecap: square"/>
   </g>
  </g>
  <g id="axes_9">
   <g id="patch_26">
    <path d="M 259.260322 103.370906 
L 268.779145 103.370906 
L 268.779145 3.578906 
L 259.260322 3.578906 
z
" style="fill: #ffffff"/>
   </g>
   <g id="PathCollection_65">
    <path d="M 264.019733 51.67181 
L 260.857456 57.996365 
L 267.182011 57.996365 
z
" style="fill: #7da494; fill-opacity: 0.75"/>
   </g>
   <g id="PathCollection_66">
    <path d="M 264.019733 91.676324 
L 268.491869 87.204188 
L 264.019733 82.732052 
L 259.547598 87.204188 
z
" style="fill: #eab67a; fill-opacity: 0.75"/>
   </g>
   <g id="PathCollection_67">
    <path d="M 262.965641 78.986037 
L 265.073826 78.986037 
L 265.073826 76.877852 
L 267.182011 76.877852 
L 267.182011 74.769667 
L 265.073826 74.769667 
L 265.073826 72.661481 
L 262.965641 72.661481 
L 262.965641 74.769667 
L 260.857456 74.769667 
L 260.857456 76.877852 
L 262.965641 76.877852 
z
" style="fill: #9e97b7; fill-opacity: 0.75"/>
   </g>
   <g id="PathCollection_68">
    <path d="M 260.857456 73.275052 
L 267.182011 73.275052 
L 267.182011 66.950496 
L 260.857456 66.950496 
z
" style="fill: #6e8fb2; fill-opacity: 0.75"/>
   </g>
   <g id="PathCollection_69">
    <path d="M 262.438595 48.945027 
L 260.857456 51.68364 
L 262.438595 54.422253 
L 265.600872 54.422253 
L 267.182011 51.68364 
L 265.600872 48.945027 
z
" style="fill: #ddbf9f; fill-opacity: 0.75"/>
   </g>
   <g id="PathCollection_70">
    <path d="M 267.182011 46.650797 
L 260.857456 43.488519 
L 260.857456 49.813074 
z
" style="fill: #d9a7be; fill-opacity: 0.75"/>
   </g>
   <g id="PathCollection_71">
    <path d="M 262.438595 96.709659 
L 264.019733 95.128521 
L 265.600872 96.709659 
L 267.182011 95.128521 
L 265.600872 93.547382 
L 267.182011 91.966243 
L 265.600872 90.385104 
L 264.019733 91.966243 
L 262.438595 90.385104 
L 260.857456 91.966243 
L 262.438595 93.547382 
L 260.857456 95.128521 
z
" style="fill: #9da6b9; fill-opacity: 0.75"/>
   </g>
   <g id="PathCollection_72">
    <path d="M 264.019733 7.40858 
C 264.858379 7.40858 265.662789 7.075383 266.255801 6.48237 
C 266.848814 5.889358 267.182011 5.084948 267.182011 4.246302 
C 267.182011 3.407657 266.848814 2.603247 266.255801 2.010235 
C 265.662789 1.417222 264.858379 1.084025 264.019733 1.084025 
C 263.181088 1.084025 262.376678 1.417222 261.783665 2.010235 
C 261.190653 2.603247 260.857456 3.407657 260.857456 4.246302 
C 260.857456 5.084948 261.190653 5.889358 261.783665 6.48237 
C 262.376678 7.075383 263.181088 7.40858 264.019733 7.40858 
z
" style="fill: #c16e71; fill-opacity: 0.75"/>
   </g>
   <g id="matplotlib.axis_17">
    <g id="xtick_9">
     <g id="line2d_25">
      <g>
       <use xlink:href="#m6dfca877b4" x="264.019733" y="103.370906" style="stroke: #000000; stroke-width: 0.8"/>
      </g>
     </g>
     <g id="text_26">
      <!-- PD-Walkway-Gait -->
      <g transform="translate(231.063972 182.011335) rotate(-60) scale(0.1 -0.1)">
       <defs>
        <path id="ArialMT-6c" d="M 409 0 
L 409 4581 
L 972 4581 
L 972 0 
L 409 0 
z
" transform="scale(0.015625)"/>
       </defs>
       <use xlink:href="#ArialMT-50"/>
       <use xlink:href="#ArialMT-44" x="66.699219"/>
       <use xlink:href="#ArialMT-2d" x="138.916016"/>
       <use xlink:href="#ArialMT-57" x="172.216797"/>
       <use xlink:href="#ArialMT-61" x="262.851562"/>
       <use xlink:href="#ArialMT-6c" x="318.466797"/>
       <use xlink:href="#ArialMT-6b" x="340.683594"/>
       <use xlink:href="#ArialMT-77" x="390.683594"/>
       <use xlink:href="#ArialMT-61" x="462.900391"/>
       <use xlink:href="#ArialMT-79" x="518.515625"/>
       <use xlink:href="#ArialMT-2d" x="568.515625"/>
       <use xlink:href="#ArialMT-47" x="601.816406"/>
       <use xlink:href="#ArialMT-61" x="679.599609"/>
       <use xlink:href="#ArialMT-69" x="735.214844"/>
       <use xlink:href="#ArialMT-74" x="757.431641"/>
      </g>
      <!-- (3-class) -->
      <g transform="translate(250.498833 170.029794) rotate(-60) scale(0.1 -0.1)">
       <use xlink:href="#ArialMT-28"/>
       <use xlink:href="#ArialMT-33" x="33.300781"/>
       <use xlink:href="#ArialMT-2d" x="88.916016"/>
       <use xlink:href="#ArialMT-63" x="122.216797"/>
       <use xlink:href="#ArialMT-6c" x="172.216797"/>
       <use xlink:href="#ArialMT-61" x="194.433594"/>
       <use xlink:href="#ArialMT-73" x="250.048828"/>
       <use xlink:href="#ArialMT-73" x="300.048828"/>
       <use xlink:href="#ArialMT-29" x="350.048828"/>
      </g>
     </g>
    </g>
   </g>
   <g id="matplotlib.axis_18">
    <g id="ytick_17">
     <g id="line2d_26">
      <g>
       <use xlink:href="#mfeb7d74c51" x="259.260322" y="103.370906" style="stroke: #000000; stroke-width: 0.8"/>
      </g>
     </g>
     <g id="text_27">
      <!-- 56 -->
      <g transform="translate(243.638447 106.949813) scale(0.1 -0.1)">
       <use xlink:href="#ArialMT-35"/>
       <use xlink:href="#ArialMT-36" x="55.615234"/>
      </g>
     </g>
    </g>
    <g id="ytick_18">
     <g id="line2d_27">
      <g>
       <use xlink:href="#mfeb7d74c51" x="259.260322" y="3.578906" style="stroke: #000000; stroke-width: 0.8"/>
      </g>
     </g>
     <g id="text_28">
      <!-- 68 -->
      <g transform="translate(243.638447 7.157813) scale(0.1 -0.1)">
       <use xlink:href="#ArialMT-36"/>
       <use xlink:href="#ArialMT-38" x="55.615234"/>
      </g>
     </g>
    </g>
   </g>
   <g id="patch_27">
    <path d="M 259.260322 103.370906 
L 259.260322 3.578906 
" style="fill: none; stroke: #000000; stroke-width: 0.8; stroke-linejoin: miter; stroke-linecap: square"/>
   </g>
   <g id="patch_28">
    <path d="M 259.260322 103.370906 
L 268.779145 103.370906 
" style="fill: none; stroke: #000000; stroke-width: 0.8; stroke-linejoin: miter; stroke-linecap: square"/>
   </g>
  </g>
  <g id="axes_10">
   <g id="patch_29">
    <path d="M 287.816792 103.370906 
L 297.335616 103.370906 
L 297.335616 3.578906 
L 287.816792 3.578906 
z
" style="fill: #ffffff"/>
   </g>
   <g id="PathCollection_73">
    <path d="M 292.576204 46.641941 
L 289.413926 52.966496 
L 295.738482 52.966496 
z
" style="fill: #7da494; fill-opacity: 0.75"/>
   </g>
   <g id="PathCollection_74">
    <path d="M 292.576204 87.846282 
L 297.04834 83.374146 
L 292.576204 78.90201 
L 288.104068 83.374146 
z
" style="fill: #eab67a; fill-opacity: 0.75"/>
   </g>
   <g id="PathCollection_75">
    <path d="M 291.522111 90.459232 
L 293.630297 90.459232 
L 293.630297 88.351046 
L 295.738482 88.351046 
L 295.738482 86.242861 
L 293.630297 86.242861 
L 293.630297 84.134676 
L 291.522111 84.134676 
L 291.522111 86.242861 
L 289.413926 86.242861 
L 289.413926 88.351046 
L 291.522111 88.351046 
z
" style="fill: #9e97b7; fill-opacity: 0.75"/>
   </g>
   <g id="PathCollection_76">
    <path d="M 289.413926 78.98653 
L 295.738482 78.98653 
L 295.738482 72.661975 
L 289.413926 72.661975 
z
" style="fill: #6e8fb2; fill-opacity: 0.75"/>
   </g>
   <g id="PathCollection_77">
    <path d="M 290.995065 37.427145 
L 289.413926 40.165758 
L 290.995065 42.904371 
L 294.157343 42.904371 
L 295.738482 40.165758 
L 294.157343 37.427145 
z
" style="fill: #ddbf9f; fill-opacity: 0.75"/>
   </g>
   <g id="PathCollection_78">
    <path d="M 295.738482 97.435832 
L 289.413926 94.273555 
L 289.413926 100.59811 
z
" style="fill: #d9a7be; fill-opacity: 0.75"/>
   </g>
   <g id="PathCollection_79">
    <path d="M 290.995065 60.982405 
L 292.576204 59.401266 
L 294.157343 60.982405 
L 295.738482 59.401266 
L 294.157343 57.820127 
L 295.738482 56.238988 
L 294.157343 54.657849 
L 292.576204 56.238988 
L 290.995065 54.657849 
L 289.413926 56.238988 
L 290.995065 57.820127 
L 289.413926 59.401266 
z
" style="fill: #9da6b9; fill-opacity: 0.75"/>
   </g>
   <g id="PathCollection_80">
    <path d="M 292.576204 12.205258 
C 293.41485 12.205258 294.21926 11.87206 294.812272 11.279048 
C 295.405284 10.686036 295.738482 9.881626 295.738482 9.04298 
C 295.738482 8.204334 295.405284 7.399924 294.812272 6.806912 
C 294.21926 6.2139 293.41485 5.880702 292.576204 5.880702 
C 291.737558 5.880702 290.933148 6.2139 290.340136 6.806912 
C 289.747124 7.399924 289.413926 8.204334 289.413926 9.04298 
C 289.413926 9.881626 289.747124 10.686036 290.340136 11.279048 
C 290.933148 11.87206 291.737558 12.205258 292.576204 12.205258 
z
" style="fill: #c16e71; fill-opacity: 0.75"/>
   </g>
   <g id="matplotlib.axis_19">
    <g id="xtick_10">
     <g id="line2d_28">
      <g>
       <use xlink:href="#m6dfca877b4" x="292.576204" y="103.370906" style="stroke: #000000; stroke-width: 0.8"/>
      </g>
     </g>
     <g id="text_29">
      <!-- PD4T-Round-Gait -->
      <g transform="translate(259.037552 182.777181) rotate(-60) scale(0.1 -0.1)">
       <defs>
        <path id="ArialMT-54" d="M 1659 0 
L 1659 4041 
L 150 4041 
L 150 4581 
L 3781 4581 
L 3781 4041 
L 2266 4041 
L 2266 0 
L 1659 0 
z
" transform="scale(0.015625)"/>
       </defs>
       <use xlink:href="#ArialMT-50"/>
       <use xlink:href="#ArialMT-44" x="66.699219"/>
       <use xlink:href="#ArialMT-34" x="138.916016"/>
       <use xlink:href="#ArialMT-54" x="194.53125"/>
       <use xlink:href="#ArialMT-2d" x="250.115234"/>
       <use xlink:href="#ArialMT-52" x="283.416016"/>
       <use xlink:href="#ArialMT-6f" x="355.632812"/>
       <use xlink:href="#ArialMT-75" x="411.248047"/>
       <use xlink:href="#ArialMT-6e" x="466.863281"/>
       <use xlink:href="#ArialMT-64" x="522.478516"/>
       <use xlink:href="#ArialMT-2d" x="578.09375"/>
       <use xlink:href="#ArialMT-47" x="611.394531"/>
       <use xlink:href="#ArialMT-61" x="689.177734"/>
       <use xlink:href="#ArialMT-69" x="744.792969"/>
       <use xlink:href="#ArialMT-74" x="767.009766"/>
      </g>
      <!-- (4-class) -->
      <g transform="translate(278.609597 170.323654) rotate(-60) scale(0.1 -0.1)">
       <use xlink:href="#ArialMT-28"/>
       <use xlink:href="#ArialMT-34" x="33.300781"/>
       <use xlink:href="#ArialMT-2d" x="88.916016"/>
       <use xlink:href="#ArialMT-63" x="122.216797"/>
       <use xlink:href="#ArialMT-6c" x="172.216797"/>
       <use xlink:href="#ArialMT-61" x="194.433594"/>
       <use xlink:href="#ArialMT-73" x="250.048828"/>
       <use xlink:href="#ArialMT-73" x="300.048828"/>
       <use xlink:href="#ArialMT-29" x="350.048828"/>
      </g>
     </g>
    </g>
   </g>
   <g id="matplotlib.axis_20">
    <g id="ytick_19">
     <g id="line2d_29">
      <g>
       <use xlink:href="#mfeb7d74c51" x="287.816792" y="103.370906" style="stroke: #000000; stroke-width: 0.8"/>
      </g>
     </g>
     <g id="text_30">
      <!-- 58 -->
      <g transform="translate(272.194917 106.949813) scale(0.1 -0.1)">
       <use xlink:href="#ArialMT-35"/>
       <use xlink:href="#ArialMT-38" x="55.615234"/>
      </g>
     </g>
    </g>
    <g id="ytick_20">
     <g id="line2d_30">
      <g>
       <use xlink:href="#mfeb7d74c51" x="287.816792" y="3.578906" style="stroke: #000000; stroke-width: 0.8"/>
      </g>
     </g>
     <g id="text_31">
      <!-- 76 -->
      <g transform="translate(272.194917 7.157813) scale(0.1 -0.1)">
       <use xlink:href="#ArialMT-37"/>
       <use xlink:href="#ArialMT-36" x="55.615234"/>
      </g>
     </g>
    </g>
   </g>
   <g id="patch_30">
    <path d="M 287.816792 103.370906 
L 287.816792 3.578906 
" style="fill: none; stroke: #000000; stroke-width: 0.8; stroke-linejoin: miter; stroke-linecap: square"/>
   </g>
   <g id="patch_31">
    <path d="M 287.816792 103.370906 
L 297.335616 103.370906 
" style="fill: none; stroke: #000000; stroke-width: 0.8; stroke-linejoin: miter; stroke-linecap: square"/>
   </g>
  </g>
  <g id="axes_11">
   <g id="patch_32">
    <path d="M 316.373263 103.370906 
L 325.892086 103.370906 
L 325.892086 3.578906 
L 316.373263 3.578906 
z
" style="fill: #ffffff"/>
   </g>
   <g id="PathCollection_81">
    <path d="M 321.132675 93.027246 
L 317.970397 99.351801 
L 324.294952 99.351801 
z
" style="fill: #7da494; fill-opacity: 0.75"/>
   </g>
   <g id="PathCollection_82">
    <path d="M 321.132675 45.510547 
L 325.604811 41.038411 
L 321.132675 36.566275 
L 316.660539 41.038411 
z
" style="fill: #eab67a; fill-opacity: 0.75"/>
   </g>
   <g id="PathCollection_83">
    <path d="M 320.078582 52.040784 
L 322.186767 52.040784 
L 322.186767 49.932599 
L 324.294952 49.932599 
L 324.294952 47.824413 
L 322.186767 47.824413 
L 322.186767 45.716228 
L 320.078582 45.716228 
L 320.078582 47.824413 
L 317.970397 47.824413 
L 317.970397 49.932599 
L 320.078582 49.932599 
z
" style="fill: #9e97b7; fill-opacity: 0.75"/>
   </g>
   <g id="PathCollection_84">
    <path d="M 317.970397 63.558097 
L 324.294952 63.558097 
L 324.294952 57.233542 
L 317.970397 57.233542 
z
" style="fill: #6e8fb2; fill-opacity: 0.75"/>
   </g>
   <g id="PathCollection_85">
    <path d="M 319.551536 18.868916 
L 317.970397 21.607529 
L 319.551536 24.346141 
L 322.713813 24.346141 
L 324.294952 21.607529 
L 322.713813 18.868916 
z
" style="fill: #ddbf9f; fill-opacity: 0.75"/>
   </g>
   <g id="PathCollection_86">
    <path d="M 324.294952 62.591305 
L 317.970397 59.429027 
L 317.970397 65.753582 
z
" style="fill: #d9a7be; fill-opacity: 0.75"/>
   </g>
   <g id="PathCollection_87">
    <path d="M 319.551536 34.071618 
L 321.132675 32.490479 
L 322.713813 34.071618 
L 324.294952 32.490479 
L 322.713813 30.90934 
L 324.294952 29.328202 
L 322.713813 27.747063 
L 321.132675 29.328202 
L 319.551536 27.747063 
L 317.970397 29.328202 
L 319.551536 30.90934 
L 317.970397 32.490479 
z
" style="fill: #9da6b9; fill-opacity: 0.75"/>
   </g>
   <g id="PathCollection_88">
    <path d="M 321.132675 15.977484 
C 321.97132 15.977484 322.77573 15.644286 323.368743 15.051274 
C 323.961755 14.458262 324.294952 13.653852 324.294952 12.815206 
C 324.294952 11.97656 323.961755 11.17215 323.368743 10.579138 
C 322.77573 9.986126 321.97132 9.652928 321.132675 9.652928 
C 320.294029 9.652928 319.489619 9.986126 318.896607 10.579138 
C 318.303594 11.17215 317.970397 11.97656 317.970397 12.815206 
C 317.970397 13.653852 318.303594 14.458262 318.896607 15.051274 
C 319.489619 15.644286 320.294029 15.977484 321.132675 15.977484 
z
" style="fill: #c16e71; fill-opacity: 0.75"/>
   </g>
   <g id="matplotlib.axis_21">
    <g id="xtick_11">
     <g id="line2d_31">
      <g>
       <use xlink:href="#m6dfca877b4" x="321.132675" y="103.370906" style="stroke: #000000; stroke-width: 0.8"/>
      </g>
     </g>
     <g id="text_32">
      <!-- PD4T-Leg-Agility -->
      <g transform="translate(289.81746 178.926075) rotate(-60) scale(0.1 -0.1)">
       <defs>
        <path id="ArialMT-67" d="M 319 -275 
L 866 -356 
Q 900 -609 1056 -725 
Q 1266 -881 1628 -881 
Q 2019 -881 2231 -725 
Q 2444 -569 2519 -288 
Q 2563 -116 2559 434 
Q 2191 0 1641 0 
Q 956 0 581 494 
Q 206 988 206 1678 
Q 206 2153 378 2554 
Q 550 2956 876 3175 
Q 1203 3394 1644 3394 
Q 2231 3394 2613 2919 
L 2613 3319 
L 3131 3319 
L 3131 450 
Q 3131 -325 2973 -648 
Q 2816 -972 2473 -1159 
Q 2131 -1347 1631 -1347 
Q 1038 -1347 672 -1080 
Q 306 -813 319 -275 
z
M 784 1719 
Q 784 1066 1043 766 
Q 1303 466 1694 466 
Q 2081 466 2343 764 
Q 2606 1063 2606 1700 
Q 2606 2309 2336 2618 
Q 2066 2928 1684 2928 
Q 1309 2928 1046 2623 
Q 784 2319 784 1719 
z
" transform="scale(0.015625)"/>
       </defs>
       <use xlink:href="#ArialMT-50"/>
       <use xlink:href="#ArialMT-44" x="66.699219"/>
       <use xlink:href="#ArialMT-34" x="138.916016"/>
       <use xlink:href="#ArialMT-54" x="194.53125"/>
       <use xlink:href="#ArialMT-2d" x="250.115234"/>
       <use xlink:href="#ArialMT-4c" x="283.416016"/>
       <use xlink:href="#ArialMT-65" x="339.03125"/>
       <use xlink:href="#ArialMT-67" x="394.646484"/>
       <use xlink:href="#ArialMT-2d" x="450.261719"/>
       <use xlink:href="#ArialMT-41" x="483.5625"/>
       <use xlink:href="#ArialMT-67" x="550.261719"/>
       <use xlink:href="#ArialMT-69" x="605.876953"/>
       <use xlink:href="#ArialMT-6c" x="628.09375"/>
       <use xlink:href="#ArialMT-69" x="650.310547"/>
       <use xlink:href="#ArialMT-74" x="672.527344"/>
       <use xlink:href="#ArialMT-79" x="700.310547"/>
      </g>
      <!-- (4-class) -->
      <g transform="translate(308.379274 168.456695) rotate(-60) scale(0.1 -0.1)">
       <use xlink:href="#ArialMT-28"/>
       <use xlink:href="#ArialMT-34" x="33.300781"/>
       <use xlink:href="#ArialMT-2d" x="88.916016"/>
       <use xlink:href="#ArialMT-63" x="122.216797"/>
       <use xlink:href="#ArialMT-6c" x="172.216797"/>
       <use xlink:href="#ArialMT-61" x="194.433594"/>
       <use xlink:href="#ArialMT-73" x="250.048828"/>
       <use xlink:href="#ArialMT-73" x="300.048828"/>
       <use xlink:href="#ArialMT-29" x="350.048828"/>
      </g>
     </g>
    </g>
   </g>
   <g id="matplotlib.axis_22">
    <g id="ytick_21">
     <g id="line2d_32">
      <g>
       <use xlink:href="#mfeb7d74c51" x="316.373263" y="103.370906" style="stroke: #000000; stroke-width: 0.8"/>
      </g>
     </g>
     <g id="text_33">
      <!-- 53 -->
      <g transform="translate(300.751388 106.949813) scale(0.1 -0.1)">
       <use xlink:href="#ArialMT-35"/>
       <use xlink:href="#ArialMT-33" x="55.615234"/>
      </g>
     </g>
    </g>
    <g id="ytick_22">
     <g id="line2d_33">
      <g>
       <use xlink:href="#mfeb7d74c51" x="316.373263" y="3.578906" style="stroke: #000000; stroke-width: 0.8"/>
      </g>
     </g>
     <g id="text_34">
      <!-- 63 -->
      <g transform="translate(300.751388 7.157813) scale(0.1 -0.1)">
       <use xlink:href="#ArialMT-36"/>
       <use xlink:href="#ArialMT-33" x="55.615234"/>
      </g>
     </g>
    </g>
   </g>
   <g id="patch_33">
    <path d="M 316.373263 103.370906 
L 316.373263 3.578906 
" style="fill: none; stroke: #000000; stroke-width: 0.8; stroke-linejoin: miter; stroke-linecap: square"/>
   </g>
   <g id="patch_34">
    <path d="M 316.373263 103.370906 
L 325.892086 103.370906 
" style="fill: none; stroke: #000000; stroke-width: 0.8; stroke-linejoin: miter; stroke-linecap: square"/>
   </g>
  </g>
  <g id="axes_12">
   <g id="patch_35">
    <path d="M 344.929733 103.370906 
L 354.448557 103.370906 
L 354.448557 3.578906 
L 344.929733 3.578906 
z
" style="fill: #ffffff"/>
   </g>
   <g id="PathCollection_89">
    <path d="M 349.689145 6.897832 
C 350.527791 6.897832 351.332201 6.564635 351.925213 5.971622 
C 352.518225 5.37861 352.851423 4.5742 352.851423 3.735554 
C 352.851423 2.896909 352.518225 2.092499 351.925213 1.499486 
C 351.332201 0.906474 350.527791 0.573277 349.689145 0.573277 
C 348.850499 0.573277 348.046089 0.906474 347.453077 1.499486 
C 346.860065 2.092499 346.526868 2.896909 346.526868 3.735554 
C 346.526868 4.5742 346.860065 5.37861 347.453077 5.971622 
C 348.046089 6.564635 348.850499 6.897832 349.689145 6.897832 
z
" style="fill: #c16e71"/>
   </g>
   <g id="PathCollection_90">
    <defs>
     <path id="mb498ab3969" d="M 0 -3.162278 
L -3.007505 -0.977198 
L -1.85874 2.558336 
L 1.85874 2.558336 
L 3.007505 -0.977198 
z
" style="stroke: #8a8a8a"/>
    </defs>
    <g>
     <use xlink:href="#mb498ab3969" x="349.689145" y="95.982274" style="fill: #8a8a8a; stroke: #8a8a8a"/>
    </g>
   </g>
   <g id="matplotlib.axis_23">
    <g id="xtick_12">
     <g id="line2d_34">
      <g>
       <use xlink:href="#m6dfca877b4" x="349.689145" y="103.370906" style="stroke: #000000; stroke-width: 0.8"/>
      </g>
     </g>
     <g id="text_35">
      <!-- Mean -->
      <g transform="translate(343.381743 135.611273) rotate(-60) scale(0.1 -0.1)">
       <defs>
        <path id="ArialMT-4d" d="M 475 0 
L 475 4581 
L 1388 4581 
L 2472 1338 
Q 2622 884 2691 659 
Q 2769 909 2934 1394 
L 4031 4581 
L 4847 4581 
L 4847 0 
L 4263 0 
L 4263 3834 
L 2931 0 
L 2384 0 
L 1059 3900 
L 1059 0 
L 475 0 
z
" transform="scale(0.015625)"/>
       </defs>
       <use xlink:href="#ArialMT-4d"/>
       <use xlink:href="#ArialMT-65" x="83.300781"/>
       <use xlink:href="#ArialMT-61" x="138.916016"/>
       <use xlink:href="#ArialMT-6e" x="194.53125"/>
      </g>
     </g>
    </g>
   </g>
   <g id="matplotlib.axis_24">
    <g id="ytick_23">
     <g id="line2d_35">
      <g>
       <use xlink:href="#mfeb7d74c51" x="344.929733" y="103.370906" style="stroke: #000000; stroke-width: 0.8"/>
      </g>
     </g>
     <g id="text_36">
      <!-- 77 -->
      <g transform="translate(329.307858 106.949813) scale(0.1 -0.1)">
       <use xlink:href="#ArialMT-37"/>
       <use xlink:href="#ArialMT-37" x="55.615234"/>
      </g>
     </g>
    </g>
    <g id="ytick_24">
     <g id="line2d_36">
      <g>
       <use xlink:href="#mfeb7d74c51" x="344.929733" y="3.578906" style="stroke: #000000; stroke-width: 0.8"/>
      </g>
     </g>
     <g id="text_37">
      <!-- 85 -->
      <g transform="translate(329.307858 7.157813) scale(0.1 -0.1)">
       <use xlink:href="#ArialMT-38"/>
       <use xlink:href="#ArialMT-35" x="55.615234"/>
      </g>
     </g>
    </g>
   </g>
   <g id="line2d_37">
    <path d="M 353.972616 3.735554 
L 353.972616 95.982274 
" style="fill: none; stroke: #000000; stroke-width: 0.8; stroke-linecap: square"/>
   </g>
   <g id="patch_36">
    <path d="M 344.929733 103.370906 
L 344.929733 3.578906 
" style="fill: none; stroke: #000000; stroke-width: 0.8; stroke-linejoin: miter; stroke-linecap: square"/>
   </g>
   <g id="patch_37">
    <path d="M 344.929733 103.370906 
L 354.448557 103.370906 
" style="fill: none; stroke: #000000; stroke-width: 0.8; stroke-linejoin: miter; stroke-linecap: square"/>
   </g>
   <g id="text_38">
    <!-- $P$ &lt; 0.0001 -->
    <g transform="translate(354.924498 52.44407) scale(0.1 -0.1)">
     <defs>
      <path id="DejaVuSans-Oblique-50" d="M 1081 4666 
L 2541 4666 
Q 3178 4666 3512 4369 
Q 3847 4072 3847 3500 
Q 3847 2731 3353 2303 
Q 2859 1875 1966 1875 
L 1172 1875 
L 806 0 
L 172 0 
L 1081 4666 
z
M 1613 4147 
L 1275 2394 
L 2069 2394 
Q 2606 2394 2893 2669 
Q 3181 2944 3181 3456 
Q 3181 3784 2986 3965 
Q 2791 4147 2438 4147 
L 1613 4147 
z
" transform="scale(0.015625)"/>
      <path id="ArialMT-3c" d="M 350 2003 
L 350 2528 
L 3384 3809 
L 3384 3250 
L 978 2263 
L 3384 1266 
L 3384 706 
L 350 2003 
z
" transform="scale(0.015625)"/>
      <path id="ArialMT-2e" d="M 581 0 
L 581 641 
L 1222 641 
L 1222 0 
L 581 0 
z
" transform="scale(0.015625)"/>
      <path id="ArialMT-31" d="M 2384 0 
L 1822 0 
L 1822 3584 
Q 1619 3391 1289 3197 
Q 959 3003 697 2906 
L 697 3450 
Q 1169 3672 1522 3987 
Q 1875 4303 2022 4600 
L 2384 4600 
L 2384 0 
z
" transform="scale(0.015625)"/>
     </defs>
     <use xlink:href="#DejaVuSans-Oblique-50" transform="translate(0 0.09375)"/>
     <use xlink:href="#ArialMT-20" transform="translate(60.302734 0.09375)"/>
     <use xlink:href="#ArialMT-3c" transform="translate(88.085938 0.09375)"/>
     <use xlink:href="#ArialMT-20" transform="translate(146.484375 0.09375)"/>
     <use xlink:href="#ArialMT-30" transform="translate(174.267578 0.09375)"/>
     <use xlink:href="#ArialMT-2e" transform="translate(229.882812 0.09375)"/>
     <use xlink:href="#ArialMT-30" transform="translate(257.666016 0.09375)"/>
     <use xlink:href="#ArialMT-30" transform="translate(313.28125 0.09375)"/>
     <use xlink:href="#ArialMT-30" transform="translate(368.896484 0.09375)"/>
     <use xlink:href="#ArialMT-31" transform="translate(424.511719 0.09375)"/>
    </g>
   </g>
  </g>
 </g>
</svg>
