<?xml version="1.0" encoding="utf-8" standalone="no"?>
<!DOCTYPE svg PUBLIC "-//W3C//DTD SVG 1.1//EN"
  "http://www.w3.org/Graphics/SVG/1.1/DTD/svg11.dtd">
<svg xmlns:xlink="http://www.w3.org/1999/xlink" width="403.761254pt" height="202.181469pt" viewBox="0 0 403.761254 202.181469" xmlns="http://www.w3.org/2000/svg" version="1.1">
 <metadata>
  <rdf:RDF xmlns:dc="http://purl.org/dc/elements/1.1/" xmlns:cc="http://creativecommons.org/ns#" xmlns:rdf="http://www.w3.org/1999/02/22-rdf-syntax-ns#">
   <cc:Work>
    <dc:type rdf:resource="http://purl.org/dc/dcmitype/StillImage"/>
    <dc:date>2026-05-16T21:50:59.836889</dc:date>
    <dc:format>image/svg+xml</dc:format>
    <dc:creator>
     <cc:Agent>
      <dc:title>Matplotlib v3.9.2, https://matplotlib.org/</dc:title>
     </cc:Agent>
    </dc:creator>
   </cc:Work>
  </rdf:RDF>
 </metadata>
 <defs>
  <style type="text/css">*{stroke-linejoin: round; stroke-linecap: butt}</style>
 </defs>
 <g id="figure_1">
  <g id="patch_1">
   <path d="M 0 202.181469 
L 403.761254 202.181469 
L 403.761254 0 
L 0 0 
z
" style="fill: #ffffff"/>
  </g>
  <g id="axes_1">
   <g id="patch_2">
    <path d="M 31.545313 103.370906 
L 41.064136 103.370906 
L 41.064136 3.578906 
L 31.545313 3.578906 
z
" style="fill: #ffffff"/>
   </g>
   <g id="PathCollection_1">
    <path d="M 36.304724 63.64427 
L 33.142447 69.968825 
L 39.467002 69.968825 
z
" style="fill: #7da494; fill-opacity: 0.75"/>
   </g>
   <g id="PathCollection_2">
    <path d="M 36.304724 38.700953 
L 40.77686 34.228817 
L 36.304724 29.756681 
L 31.832588 34.228817 
z
" style="fill: #eab67a; fill-opacity: 0.75"/>
   </g>
   <g id="PathCollection_3">
    <path d="M 35.250632 36.035311 
L 37.358817 36.035311 
L 37.358817 33.927126 
L 39.467002 33.927126 
L 39.467002 31.81894 
L 37.358817 31.81894 
L 37.358817 29.710755 
L 35.250632 29.710755 
L 35.250632 31.81894 
L 33.142447 31.81894 
L 33.142447 33.927126 
L 35.250632 33.927126 
z
" style="fill: #9e97b7; fill-opacity: 0.75"/>
   </g>
   <g id="PathCollection_4">
    <path d="M 33.142447 45.566264 
L 39.467002 45.566264 
L 39.467002 39.241709 
L 33.142447 39.241709 
z
" style="fill: #6e8fb2; fill-opacity: 0.75"/>
   </g>
   <g id="PathCollection_5">
    <path d="M 34.723585 10.322629 
L 33.142447 13.061242 
L 34.723585 15.799855 
L 37.885863 15.799855 
L 39.467002 13.061242 
L 37.885863 10.322629 
z
" style="fill: #ddbf9f; fill-opacity: 0.75"/>
   </g>
   <g id="PathCollection_6">
    <path d="M 39.467002 22.847494 
L 33.142447 19.685216 
L 33.142447 26.009772 
z
" style="fill: #d9a7be; fill-opacity: 0.75"/>
   </g>
   <g id="PathCollection_7">
    <path d="M 34.723585 54.903697 
L 36.304724 53.322558 
L 37.885863 54.903697 
L 39.467002 53.322558 
L 37.885863 51.741419 
L 39.467002 50.160281 
L 37.885863 48.579142 
L 36.304724 50.160281 
L 34.723585 48.579142 
L 33.142447 50.160281 
L 34.723585 51.741419 
L 33.142447 53.322558 
z
" style="fill: #9da6b9; fill-opacity: 0.75"/>
   </g>
   <g id="PathCollection_8">
    <path d="M 36.304724 9.789941 
C 37.14337 9.789941 37.94778 9.456743 38.540792 8.863731 
C 39.133804 8.270719 39.467002 7.466309 39.467002 6.627663 
C 39.467002 5.789017 39.133804 4.984607 38.540792 4.391595 
C 37.94778 3.798583 37.14337 3.465386 36.304724 3.465386 
C 35.466078 3.465386 34.661668 3.798583 34.068656 4.391595 
C 33.475644 4.984607 33.142447 5.789017 33.142447 6.627663 
C 33.142447 7.466309 33.475644 8.270719 34.068656 8.863731 
C 34.661668 9.456743 35.466078 9.789941 36.304724 9.789941 
z
" style="fill: #c16e71; fill-opacity: 0.75"/>
   </g>
   <g id="matplotlib.axis_1">
    <g id="xtick_1">
     <g id="line2d_1">
      <defs>
       <path id="mbb3a1a1c09" d="M 0 0 
L 0 3.5 
" style="stroke: #000000; stroke-width: 0.8"/>
      </defs>
      <g>
       <use xlink:href="#mbb3a1a1c09" x="36.304724" y="103.370906" style="stroke: #000000; stroke-width: 0.8"/>
      </g>
     </g>
     <g id="text_1">
      <!-- SSBD-Line-Gait -->
      <g transform="translate(6.935603 175.555341) rotate(-60) scale(0.1 -0.1)">
       <defs>
        <path id="ArialMT-53" d="M 288 1472 
L 859 1522 
Q 900 1178 1048 958 
Q 1197 738 1509 602 
Q 1822 466 2213 466 
Q 2559 466 2825 569 
Q 3091 672 3220 851 
Q 3350 1031 3350 1244 
Q 3350 1459 3225 1620 
Q 3100 1781 2813 1891 
Q 2628 1963 1997 2114 
Q 1366 2266 1113 2400 
Q 784 2572 623 2826 
Q 463 3081 463 3397 
Q 463 3744 659 4045 
Q 856 4347 1234 4503 
Q 1613 4659 2075 4659 
Q 2584 4659 2973 4495 
Q 3363 4331 3572 4012 
Q 3781 3694 3797 3291 
L 3216 3247 
Q 3169 3681 2898 3903 
Q 2628 4125 2100 4125 
Q 1550 4125 1298 3923 
Q 1047 3722 1047 3438 
Q 1047 3191 1225 3031 
Q 1400 2872 2139 2705 
Q 2878 2538 3153 2413 
Q 3553 2228 3743 1945 
Q 3934 1663 3934 1294 
Q 3934 928 3725 604 
Q 3516 281 3123 101 
Q 2731 -78 2241 -78 
Q 1619 -78 1198 103 
Q 778 284 539 648 
Q 300 1013 288 1472 
z
" transform="scale(0.015625)"/>
        <path id="ArialMT-42" d="M 469 0 
L 469 4581 
L 2188 4581 
Q 2713 4581 3030 4442 
Q 3347 4303 3526 4014 
Q 3706 3725 3706 3409 
Q 3706 3116 3547 2856 
Q 3388 2597 3066 2438 
Q 3481 2316 3704 2022 
Q 3928 1728 3928 1328 
Q 3928 1006 3792 729 
Q 3656 453 3456 303 
Q 3256 153 2954 76 
Q 2653 0 2216 0 
L 469 0 
z
M 1075 2656 
L 2066 2656 
Q 2469 2656 2644 2709 
Q 2875 2778 2992 2937 
Q 3109 3097 3109 3338 
Q 3109 3566 3000 3739 
Q 2891 3913 2687 3977 
Q 2484 4041 1991 4041 
L 1075 4041 
L 1075 2656 
z
M 1075 541 
L 2216 541 
Q 2509 541 2628 563 
Q 2838 600 2978 687 
Q 3119 775 3209 942 
Q 3300 1109 3300 1328 
Q 3300 1584 3169 1773 
Q 3038 1963 2805 2039 
Q 2572 2116 2134 2116 
L 1075 2116 
L 1075 541 
z
" transform="scale(0.015625)"/>
        <path id="ArialMT-44" d="M 494 0 
L 494 4581 
L 2072 4581 
Q 2606 4581 2888 4516 
Q 3281 4425 3559 4188 
Q 3922 3881 4101 3404 
Q 4281 2928 4281 2316 
Q 4281 1794 4159 1391 
Q 4038 988 3847 723 
Q 3656 459 3429 307 
Q 3203 156 2883 78 
Q 2563 0 2147 0 
L 494 0 
z
M 1100 541 
L 2078 541 
Q 2531 541 2789 625 
Q 3047 709 3200 863 
Q 3416 1078 3536 1442 
Q 3656 1806 3656 2325 
Q 3656 3044 3420 3430 
Q 3184 3816 2847 3947 
Q 2603 4041 2063 4041 
L 1100 4041 
L 1100 541 
z
" transform="scale(0.015625)"/>
        <path id="ArialMT-2d" d="M 203 1375 
L 203 1941 
L 1931 1941 
L 1931 1375 
L 203 1375 
z
" transform="scale(0.015625)"/>
        <path id="ArialMT-4c" d="M 469 0 
L 469 4581 
L 1075 4581 
L 1075 541 
L 3331 541 
L 3331 0 
L 469 0 
z
" transform="scale(0.015625)"/>
        <path id="ArialMT-69" d="M 425 3934 
L 425 4581 
L 988 4581 
L 988 3934 
L 425 3934 
z
M 425 0 
L 425 3319 
L 988 3319 
L 988 0 
L 425 0 
z
" transform="scale(0.015625)"/>
        <path id="ArialMT-6e" d="M 422 0 
L 422 3319 
L 928 3319 
L 928 2847 
Q 1294 3394 1984 3394 
Q 2284 3394 2536 3286 
Q 2788 3178 2913 3003 
Q 3038 2828 3088 2588 
Q 3119 2431 3119 2041 
L 3119 0 
L 2556 0 
L 2556 2019 
Q 2556 2363 2490 2533 
Q 2425 2703 2258 2804 
Q 2091 2906 1866 2906 
Q 1506 2906 1245 2678 
Q 984 2450 984 1813 
L 984 0 
L 422 0 
z
" transform="scale(0.015625)"/>
        <path id="ArialMT-65" d="M 2694 1069 
L 3275 997 
Q 3138 488 2766 206 
Q 2394 -75 1816 -75 
Q 1088 -75 661 373 
Q 234 822 234 1631 
Q 234 2469 665 2931 
Q 1097 3394 1784 3394 
Q 2450 3394 2872 2941 
Q 3294 2488 3294 1666 
Q 3294 1616 3291 1516 
L 816 1516 
Q 847 969 1125 678 
Q 1403 388 1819 388 
Q 2128 388 2347 550 
Q 2566 713 2694 1069 
z
M 847 1978 
L 2700 1978 
Q 2663 2397 2488 2606 
Q 2219 2931 1791 2931 
Q 1403 2931 1139 2672 
Q 875 2413 847 1978 
z
" transform="scale(0.015625)"/>
        <path id="ArialMT-47" d="M 2638 1797 
L 2638 2334 
L 4578 2338 
L 4578 638 
Q 4131 281 3656 101 
Q 3181 -78 2681 -78 
Q 2006 -78 1454 211 
Q 903 500 622 1047 
Q 341 1594 341 2269 
Q 341 2938 620 3517 
Q 900 4097 1425 4378 
Q 1950 4659 2634 4659 
Q 3131 4659 3532 4498 
Q 3934 4338 4162 4050 
Q 4391 3763 4509 3300 
L 3963 3150 
Q 3859 3500 3706 3700 
Q 3553 3900 3268 4020 
Q 2984 4141 2638 4141 
Q 2222 4141 1919 4014 
Q 1616 3888 1430 3681 
Q 1244 3475 1141 3228 
Q 966 2803 966 2306 
Q 966 1694 1177 1281 
Q 1388 869 1791 669 
Q 2194 469 2647 469 
Q 3041 469 3416 620 
Q 3791 772 3984 944 
L 3984 1797 
L 2638 1797 
z
" transform="scale(0.015625)"/>
        <path id="ArialMT-61" d="M 2588 409 
Q 2275 144 1986 34 
Q 1697 -75 1366 -75 
Q 819 -75 525 192 
Q 231 459 231 875 
Q 231 1119 342 1320 
Q 453 1522 633 1644 
Q 813 1766 1038 1828 
Q 1203 1872 1538 1913 
Q 2219 1994 2541 2106 
Q 2544 2222 2544 2253 
Q 2544 2597 2384 2738 
Q 2169 2928 1744 2928 
Q 1347 2928 1158 2789 
Q 969 2650 878 2297 
L 328 2372 
Q 403 2725 575 2942 
Q 747 3159 1072 3276 
Q 1397 3394 1825 3394 
Q 2250 3394 2515 3294 
Q 2781 3194 2906 3042 
Q 3031 2891 3081 2659 
Q 3109 2516 3109 2141 
L 3109 1391 
Q 3109 606 3145 398 
Q 3181 191 3288 0 
L 2700 0 
Q 2613 175 2588 409 
z
M 2541 1666 
Q 2234 1541 1622 1453 
Q 1275 1403 1131 1340 
Q 988 1278 909 1158 
Q 831 1038 831 891 
Q 831 666 1001 516 
Q 1172 366 1500 366 
Q 1825 366 2078 508 
Q 2331 650 2450 897 
Q 2541 1088 2541 1459 
L 2541 1666 
z
" transform="scale(0.015625)"/>
        <path id="ArialMT-74" d="M 1650 503 
L 1731 6 
Q 1494 -44 1306 -44 
Q 1000 -44 831 53 
Q 663 150 594 308 
Q 525 466 525 972 
L 525 2881 
L 113 2881 
L 113 3319 
L 525 3319 
L 525 4141 
L 1084 4478 
L 1084 3319 
L 1650 3319 
L 1650 2881 
L 1084 2881 
L 1084 941 
Q 1084 700 1114 631 
Q 1144 563 1211 522 
Q 1278 481 1403 481 
Q 1497 481 1650 503 
z
" transform="scale(0.015625)"/>
       </defs>
       <use xlink:href="#ArialMT-53"/>
       <use xlink:href="#ArialMT-53" x="66.699219"/>
       <use xlink:href="#ArialMT-42" x="133.398438"/>
       <use xlink:href="#ArialMT-44" x="200.097656"/>
       <use xlink:href="#ArialMT-2d" x="272.314453"/>
       <use xlink:href="#ArialMT-4c" x="305.615234"/>
       <use xlink:href="#ArialMT-69" x="361.230469"/>
       <use xlink:href="#ArialMT-6e" x="383.447266"/>
       <use xlink:href="#ArialMT-65" x="439.0625"/>
       <use xlink:href="#ArialMT-2d" x="494.677734"/>
       <use xlink:href="#ArialMT-47" x="527.978516"/>
       <use xlink:href="#ArialMT-61" x="605.761719"/>
       <use xlink:href="#ArialMT-69" x="661.376953"/>
       <use xlink:href="#ArialMT-74" x="683.59375"/>
      </g>
      <!-- (binary) -->
      <g transform="translate(25.532649 164.790564) rotate(-60) scale(0.1 -0.1)">
       <defs>
        <path id="ArialMT-28" d="M 1497 -1347 
Q 1031 -759 709 28 
Q 388 816 388 1659 
Q 388 2403 628 3084 
Q 909 3875 1497 4659 
L 1900 4659 
Q 1522 4009 1400 3731 
Q 1209 3300 1100 2831 
Q 966 2247 966 1656 
Q 966 153 1900 -1347 
L 1497 -1347 
z
" transform="scale(0.015625)"/>
        <path id="ArialMT-62" d="M 941 0 
L 419 0 
L 419 4581 
L 981 4581 
L 981 2947 
Q 1338 3394 1891 3394 
Q 2197 3394 2470 3270 
Q 2744 3147 2920 2923 
Q 3097 2700 3197 2384 
Q 3297 2069 3297 1709 
Q 3297 856 2875 390 
Q 2453 -75 1863 -75 
Q 1275 -75 941 416 
L 941 0 
z
M 934 1684 
Q 934 1088 1097 822 
Q 1363 388 1816 388 
Q 2184 388 2453 708 
Q 2722 1028 2722 1663 
Q 2722 2313 2464 2622 
Q 2206 2931 1841 2931 
Q 1472 2931 1203 2611 
Q 934 2291 934 1684 
z
" transform="scale(0.015625)"/>
        <path id="ArialMT-72" d="M 416 0 
L 416 3319 
L 922 3319 
L 922 2816 
Q 1116 3169 1280 3281 
Q 1444 3394 1641 3394 
Q 1925 3394 2219 3213 
L 2025 2691 
Q 1819 2813 1613 2813 
Q 1428 2813 1281 2702 
Q 1134 2591 1072 2394 
Q 978 2094 978 1738 
L 978 0 
L 416 0 
z
" transform="scale(0.015625)"/>
        <path id="ArialMT-79" d="M 397 -1278 
L 334 -750 
Q 519 -800 656 -800 
Q 844 -800 956 -737 
Q 1069 -675 1141 -563 
Q 1194 -478 1313 -144 
Q 1328 -97 1363 -6 
L 103 3319 
L 709 3319 
L 1400 1397 
Q 1534 1031 1641 628 
Q 1738 1016 1872 1384 
L 2581 3319 
L 3144 3319 
L 1881 -56 
Q 1678 -603 1566 -809 
Q 1416 -1088 1222 -1217 
Q 1028 -1347 759 -1347 
Q 597 -1347 397 -1278 
z
" transform="scale(0.015625)"/>
        <path id="ArialMT-29" d="M 791 -1347 
L 388 -1347 
Q 1322 153 1322 1656 
Q 1322 2244 1188 2822 
Q 1081 3291 891 3722 
Q 769 4003 388 4659 
L 791 4659 
Q 1378 3875 1659 3084 
Q 1900 2403 1900 1659 
Q 1900 816 1576 28 
Q 1253 -759 791 -1347 
z
" transform="scale(0.015625)"/>
       </defs>
       <use xlink:href="#ArialMT-28"/>
       <use xlink:href="#ArialMT-62" x="33.300781"/>
       <use xlink:href="#ArialMT-69" x="88.916016"/>
       <use xlink:href="#ArialMT-6e" x="111.132812"/>
       <use xlink:href="#ArialMT-61" x="166.748047"/>
       <use xlink:href="#ArialMT-72" x="222.363281"/>
       <use xlink:href="#ArialMT-79" x="255.664062"/>
       <use xlink:href="#ArialMT-29" x="305.664062"/>
      </g>
     </g>
    </g>
   </g>
   <g id="matplotlib.axis_2">
    <g id="ytick_1">
     <g id="line2d_2">
      <defs>
       <path id="m773707881d" d="M 0 0 
L -3.5 0 
" style="stroke: #000000; stroke-width: 0.8"/>
      </defs>
      <g>
       <use xlink:href="#m773707881d" x="31.545313" y="103.370906" style="stroke: #000000; stroke-width: 0.8"/>
      </g>
     </g>
     <g id="text_2">
      <!-- 0.8 -->
      <g transform="translate(13.145313 106.949813) scale(0.1 -0.1)">
       <defs>
        <path id="ArialMT-30" d="M 266 2259 
Q 266 3072 433 3567 
Q 600 4063 929 4331 
Q 1259 4600 1759 4600 
Q 2128 4600 2406 4451 
Q 2684 4303 2865 4023 
Q 3047 3744 3150 3342 
Q 3253 2941 3253 2259 
Q 3253 1453 3087 958 
Q 2922 463 2592 192 
Q 2263 -78 1759 -78 
Q 1097 -78 719 397 
Q 266 969 266 2259 
z
M 844 2259 
Q 844 1131 1108 757 
Q 1372 384 1759 384 
Q 2147 384 2411 759 
Q 2675 1134 2675 2259 
Q 2675 3391 2411 3762 
Q 2147 4134 1753 4134 
Q 1366 4134 1134 3806 
Q 844 3388 844 2259 
z
" transform="scale(0.015625)"/>
        <path id="ArialMT-2e" d="M 581 0 
L 581 641 
L 1222 641 
L 1222 0 
L 581 0 
z
" transform="scale(0.015625)"/>
        <path id="ArialMT-38" d="M 1131 2484 
Q 781 2613 612 2850 
Q 444 3088 444 3419 
Q 444 3919 803 4259 
Q 1163 4600 1759 4600 
Q 2359 4600 2725 4251 
Q 3091 3903 3091 3403 
Q 3091 3084 2923 2848 
Q 2756 2613 2416 2484 
Q 2838 2347 3058 2040 
Q 3278 1734 3278 1309 
Q 3278 722 2862 322 
Q 2447 -78 1769 -78 
Q 1091 -78 675 323 
Q 259 725 259 1325 
Q 259 1772 486 2073 
Q 713 2375 1131 2484 
z
M 1019 3438 
Q 1019 3113 1228 2906 
Q 1438 2700 1772 2700 
Q 2097 2700 2305 2904 
Q 2513 3109 2513 3406 
Q 2513 3716 2298 3927 
Q 2084 4138 1766 4138 
Q 1444 4138 1231 3931 
Q 1019 3725 1019 3438 
z
M 838 1322 
Q 838 1081 952 856 
Q 1066 631 1291 507 
Q 1516 384 1775 384 
Q 2178 384 2440 643 
Q 2703 903 2703 1303 
Q 2703 1709 2433 1975 
Q 2163 2241 1756 2241 
Q 1359 2241 1098 1978 
Q 838 1716 838 1322 
z
" transform="scale(0.015625)"/>
       </defs>
       <use xlink:href="#ArialMT-30"/>
       <use xlink:href="#ArialMT-2e" x="55.615234"/>
       <use xlink:href="#ArialMT-38" x="83.398438"/>
      </g>
     </g>
    </g>
    <g id="ytick_2">
     <g id="line2d_3">
      <g>
       <use xlink:href="#m773707881d" x="31.545313" y="3.578906" style="stroke: #000000; stroke-width: 0.8"/>
      </g>
     </g>
     <g id="text_3">
      <!-- 1.0 -->
      <g transform="translate(13.145313 7.157813) scale(0.1 -0.1)">
       <defs>
        <path id="ArialMT-31" d="M 2384 0 
L 1822 0 
L 1822 3584 
Q 1619 3391 1289 3197 
Q 959 3003 697 2906 
L 697 3450 
Q 1169 3672 1522 3987 
Q 1875 4303 2022 4600 
L 2384 4600 
L 2384 0 
z
" transform="scale(0.015625)"/>
       </defs>
       <use xlink:href="#ArialMT-31"/>
       <use xlink:href="#ArialMT-2e" x="55.615234"/>
       <use xlink:href="#ArialMT-30" x="83.398438"/>
      </g>
     </g>
    </g>
    <g id="text_4">
     <!-- AUROC -->
     <g transform="translate(7.157813 71.531937) rotate(-90) scale(0.1 -0.1)">
      <defs>
       <path id="ArialMT-41" d="M -9 0 
L 1750 4581 
L 2403 4581 
L 4278 0 
L 3588 0 
L 3053 1388 
L 1138 1388 
L 634 0 
L -9 0 
z
M 1313 1881 
L 2866 1881 
L 2388 3150 
Q 2169 3728 2063 4100 
Q 1975 3659 1816 3225 
L 1313 1881 
z
" transform="scale(0.015625)"/>
       <path id="ArialMT-55" d="M 3500 4581 
L 4106 4581 
L 4106 1934 
Q 4106 1244 3950 837 
Q 3794 431 3386 176 
Q 2978 -78 2316 -78 
Q 1672 -78 1262 144 
Q 853 366 678 786 
Q 503 1206 503 1934 
L 503 4581 
L 1109 4581 
L 1109 1938 
Q 1109 1341 1220 1058 
Q 1331 775 1601 622 
Q 1872 469 2263 469 
Q 2931 469 3215 772 
Q 3500 1075 3500 1938 
L 3500 4581 
z
" transform="scale(0.015625)"/>
       <path id="ArialMT-52" d="M 503 0 
L 503 4581 
L 2534 4581 
Q 3147 4581 3465 4457 
Q 3784 4334 3975 4021 
Q 4166 3709 4166 3331 
Q 4166 2844 3850 2509 
Q 3534 2175 2875 2084 
Q 3116 1969 3241 1856 
Q 3506 1613 3744 1247 
L 4541 0 
L 3778 0 
L 3172 953 
Q 2906 1366 2734 1584 
Q 2563 1803 2427 1890 
Q 2291 1978 2150 2013 
Q 2047 2034 1813 2034 
L 1109 2034 
L 1109 0 
L 503 0 
z
M 1109 2559 
L 2413 2559 
Q 2828 2559 3062 2645 
Q 3297 2731 3419 2920 
Q 3541 3109 3541 3331 
Q 3541 3656 3305 3865 
Q 3069 4075 2559 4075 
L 1109 4075 
L 1109 2559 
z
" transform="scale(0.015625)"/>
       <path id="ArialMT-4f" d="M 309 2231 
Q 309 3372 921 4017 
Q 1534 4663 2503 4663 
Q 3138 4663 3647 4359 
Q 4156 4056 4423 3514 
Q 4691 2972 4691 2284 
Q 4691 1588 4409 1038 
Q 4128 488 3612 205 
Q 3097 -78 2500 -78 
Q 1853 -78 1343 234 
Q 834 547 571 1087 
Q 309 1628 309 2231 
z
M 934 2222 
Q 934 1394 1379 917 
Q 1825 441 2497 441 
Q 3181 441 3623 922 
Q 4066 1403 4066 2288 
Q 4066 2847 3877 3264 
Q 3688 3681 3323 3911 
Q 2959 4141 2506 4141 
Q 1863 4141 1398 3698 
Q 934 3256 934 2222 
z
" transform="scale(0.015625)"/>
       <path id="ArialMT-43" d="M 3763 1606 
L 4369 1453 
Q 4178 706 3683 314 
Q 3188 -78 2472 -78 
Q 1731 -78 1267 223 
Q 803 525 561 1097 
Q 319 1669 319 2325 
Q 319 3041 592 3573 
Q 866 4106 1370 4382 
Q 1875 4659 2481 4659 
Q 3169 4659 3637 4309 
Q 4106 3959 4291 3325 
L 3694 3184 
Q 3534 3684 3231 3912 
Q 2928 4141 2469 4141 
Q 1941 4141 1586 3887 
Q 1231 3634 1087 3207 
Q 944 2781 944 2328 
Q 944 1744 1114 1308 
Q 1284 872 1643 656 
Q 2003 441 2422 441 
Q 2931 441 3284 734 
Q 3638 1028 3763 1606 
z
" transform="scale(0.015625)"/>
      </defs>
      <use xlink:href="#ArialMT-41"/>
      <use xlink:href="#ArialMT-55" x="66.699219"/>
      <use xlink:href="#ArialMT-52" x="138.916016"/>
      <use xlink:href="#ArialMT-4f" x="211.132812"/>
      <use xlink:href="#ArialMT-43" x="288.916016"/>
     </g>
    </g>
   </g>
   <g id="patch_3">
    <path d="M 31.545313 103.370906 
L 31.545313 3.578906 
" style="fill: none; stroke: #000000; stroke-width: 0.8; stroke-linejoin: miter; stroke-linecap: square"/>
   </g>
   <g id="patch_4">
    <path d="M 31.545313 103.370906 
L 41.064136 103.370906 
" style="fill: none; stroke: #000000; stroke-width: 0.8; stroke-linejoin: miter; stroke-linecap: square"/>
   </g>
  </g>
  <g id="axes_2">
   <g id="patch_5">
    <path d="M 60.101783 103.370906 
L 69.620607 103.370906 
L 69.620607 3.578906 
L 60.101783 3.578906 
z
" style="fill: #ffffff"/>
   </g>
   <g id="PathCollection_9">
    <path d="M 64.861195 75.690817 
L 61.698917 82.015372 
L 68.023473 82.015372 
z
" style="fill: #7da494; fill-opacity: 0.75"/>
   </g>
   <g id="PathCollection_10">
    <path d="M 64.861195 50.15603 
L 69.333331 45.683894 
L 64.861195 41.211758 
L 60.389059 45.683894 
z
" style="fill: #eab67a; fill-opacity: 0.75"/>
   </g>
   <g id="PathCollection_11">
    <path d="M 63.807102 65.394182 
L 65.915287 65.394182 
L 65.915287 63.285997 
L 68.023473 63.285997 
L 68.023473 61.177812 
L 65.915287 61.177812 
L 65.915287 59.069627 
L 63.807102 59.069627 
L 63.807102 61.177812 
L 61.698917 61.177812 
L 61.698917 63.285997 
L 63.807102 63.285997 
z
" style="fill: #9e97b7; fill-opacity: 0.75"/>
   </g>
   <g id="PathCollection_12">
    <path d="M 61.698917 41.202736 
L 68.023473 41.202736 
L 68.023473 34.878181 
L 61.698917 34.878181 
z
" style="fill: #6e8fb2; fill-opacity: 0.75"/>
   </g>
   <g id="PathCollection_13">
    <path d="M 63.280056 47.595307 
L 61.698917 50.33392 
L 63.280056 53.072533 
L 66.442334 53.072533 
L 68.023473 50.33392 
L 66.442334 47.595307 
z
" style="fill: #ddbf9f; fill-opacity: 0.75"/>
   </g>
   <g id="PathCollection_14">
    <path d="M 68.023473 38.415861 
L 61.698917 35.253583 
L 61.698917 41.578139 
z
" style="fill: #d9a7be; fill-opacity: 0.75"/>
   </g>
   <g id="PathCollection_15">
    <path d="M 63.280056 59.487443 
L 64.861195 57.906304 
L 66.442334 59.487443 
L 68.023473 57.906304 
L 66.442334 56.325165 
L 68.023473 54.744027 
L 66.442334 53.162888 
L 64.861195 54.744027 
L 63.280056 53.162888 
L 61.698917 54.744027 
L 63.280056 56.325165 
L 61.698917 57.906304 
z
" style="fill: #9da6b9; fill-opacity: 0.75"/>
   </g>
   <g id="PathCollection_16">
    <path d="M 64.861195 25.514905 
C 65.699841 25.514905 66.504251 25.181707 67.097263 24.588695 
C 67.690275 23.995683 68.023473 23.191273 68.023473 22.352627 
C 68.023473 21.513981 67.690275 20.709571 67.097263 20.116559 
C 66.504251 19.523547 65.699841 19.190349 64.861195 19.190349 
C 64.022549 19.190349 63.218139 19.523547 62.625127 20.116559 
C 62.032115 20.709571 61.698917 21.513981 61.698917 22.352627 
C 61.698917 23.191273 62.032115 23.995683 62.625127 24.588695 
C 63.218139 25.181707 64.022549 25.514905 64.861195 25.514905 
z
" style="fill: #c16e71; fill-opacity: 0.75"/>
   </g>
   <g id="matplotlib.axis_3">
    <g id="xtick_2">
     <g id="line2d_4">
      <g>
       <use xlink:href="#mbb3a1a1c09" x="64.861195" y="103.370906" style="stroke: #000000; stroke-width: 0.8"/>
      </g>
     </g>
     <g id="text_5">
      <!-- EHE-Hands-Wave -->
      <g transform="translate(30.403792 184.368503) rotate(-60) scale(0.1 -0.1)">
       <defs>
        <path id="ArialMT-45" d="M 506 0 
L 506 4581 
L 3819 4581 
L 3819 4041 
L 1113 4041 
L 1113 2638 
L 3647 2638 
L 3647 2100 
L 1113 2100 
L 1113 541 
L 3925 541 
L 3925 0 
L 506 0 
z
" transform="scale(0.015625)"/>
        <path id="ArialMT-48" d="M 513 0 
L 513 4581 
L 1119 4581 
L 1119 2700 
L 3500 2700 
L 3500 4581 
L 4106 4581 
L 4106 0 
L 3500 0 
L 3500 2159 
L 1119 2159 
L 1119 0 
L 513 0 
z
" transform="scale(0.015625)"/>
        <path id="ArialMT-64" d="M 2575 0 
L 2575 419 
Q 2259 -75 1647 -75 
Q 1250 -75 917 144 
Q 584 363 401 755 
Q 219 1147 219 1656 
Q 219 2153 384 2558 
Q 550 2963 881 3178 
Q 1213 3394 1622 3394 
Q 1922 3394 2156 3267 
Q 2391 3141 2538 2938 
L 2538 4581 
L 3097 4581 
L 3097 0 
L 2575 0 
z
M 797 1656 
Q 797 1019 1065 703 
Q 1334 388 1700 388 
Q 2069 388 2326 689 
Q 2584 991 2584 1609 
Q 2584 2291 2321 2609 
Q 2059 2928 1675 2928 
Q 1300 2928 1048 2622 
Q 797 2316 797 1656 
z
" transform="scale(0.015625)"/>
        <path id="ArialMT-73" d="M 197 991 
L 753 1078 
Q 800 744 1014 566 
Q 1228 388 1613 388 
Q 2000 388 2187 545 
Q 2375 703 2375 916 
Q 2375 1106 2209 1216 
Q 2094 1291 1634 1406 
Q 1016 1563 777 1677 
Q 538 1791 414 1992 
Q 291 2194 291 2438 
Q 291 2659 392 2848 
Q 494 3038 669 3163 
Q 800 3259 1026 3326 
Q 1253 3394 1513 3394 
Q 1903 3394 2198 3281 
Q 2494 3169 2634 2976 
Q 2775 2784 2828 2463 
L 2278 2388 
Q 2241 2644 2061 2787 
Q 1881 2931 1553 2931 
Q 1166 2931 1000 2803 
Q 834 2675 834 2503 
Q 834 2394 903 2306 
Q 972 2216 1119 2156 
Q 1203 2125 1616 2013 
Q 2213 1853 2448 1751 
Q 2684 1650 2818 1456 
Q 2953 1263 2953 975 
Q 2953 694 2789 445 
Q 2625 197 2315 61 
Q 2006 -75 1616 -75 
Q 969 -75 630 194 
Q 291 463 197 991 
z
" transform="scale(0.015625)"/>
        <path id="ArialMT-57" d="M 1294 0 
L 78 4581 
L 700 4581 
L 1397 1578 
Q 1509 1106 1591 641 
Q 1766 1375 1797 1488 
L 2669 4581 
L 3400 4581 
L 4056 2263 
Q 4303 1400 4413 641 
Q 4500 1075 4641 1638 
L 5359 4581 
L 5969 4581 
L 4713 0 
L 4128 0 
L 3163 3491 
Q 3041 3928 3019 4028 
Q 2947 3713 2884 3491 
L 1913 0 
L 1294 0 
z
" transform="scale(0.015625)"/>
        <path id="ArialMT-76" d="M 1344 0 
L 81 3319 
L 675 3319 
L 1388 1331 
Q 1503 1009 1600 663 
Q 1675 925 1809 1294 
L 2547 3319 
L 3125 3319 
L 1869 0 
L 1344 0 
z
" transform="scale(0.015625)"/>
       </defs>
       <use xlink:href="#ArialMT-45"/>
       <use xlink:href="#ArialMT-48" x="66.699219"/>
       <use xlink:href="#ArialMT-45" x="138.916016"/>
       <use xlink:href="#ArialMT-2d" x="205.615234"/>
       <use xlink:href="#ArialMT-48" x="238.916016"/>
       <use xlink:href="#ArialMT-61" x="311.132812"/>
       <use xlink:href="#ArialMT-6e" x="366.748047"/>
       <use xlink:href="#ArialMT-64" x="422.363281"/>
       <use xlink:href="#ArialMT-73" x="477.978516"/>
       <use xlink:href="#ArialMT-2d" x="527.978516"/>
       <use xlink:href="#ArialMT-57" x="561.279297"/>
       <use xlink:href="#ArialMT-61" x="651.914062"/>
       <use xlink:href="#ArialMT-76" x="707.529297"/>
       <use xlink:href="#ArialMT-65" x="757.529297"/>
      </g>
      <!-- (binary) -->
      <g transform="translate(51.544978 169.197145) rotate(-60) scale(0.1 -0.1)">
       <use xlink:href="#ArialMT-28"/>
       <use xlink:href="#ArialMT-62" x="33.300781"/>
       <use xlink:href="#ArialMT-69" x="88.916016"/>
       <use xlink:href="#ArialMT-6e" x="111.132812"/>
       <use xlink:href="#ArialMT-61" x="166.748047"/>
       <use xlink:href="#ArialMT-72" x="222.363281"/>
       <use xlink:href="#ArialMT-79" x="255.664062"/>
       <use xlink:href="#ArialMT-29" x="305.664062"/>
      </g>
     </g>
    </g>
   </g>
   <g id="matplotlib.axis_4">
    <g id="ytick_3">
     <g id="line2d_5">
      <g>
       <use xlink:href="#m773707881d" x="60.101783" y="103.370906" style="stroke: #000000; stroke-width: 0.8"/>
      </g>
     </g>
     <g id="text_6">
      <!-- 0.7 -->
      <g transform="translate(41.701783 106.949813) scale(0.1 -0.1)">
       <defs>
        <path id="ArialMT-37" d="M 303 3981 
L 303 4522 
L 3269 4522 
L 3269 4084 
Q 2831 3619 2401 2847 
Q 1972 2075 1738 1259 
Q 1569 684 1522 0 
L 944 0 
Q 953 541 1156 1306 
Q 1359 2072 1739 2783 
Q 2119 3494 2547 3981 
L 303 3981 
z
" transform="scale(0.015625)"/>
       </defs>
       <use xlink:href="#ArialMT-30"/>
       <use xlink:href="#ArialMT-2e" x="55.615234"/>
       <use xlink:href="#ArialMT-37" x="83.398438"/>
      </g>
     </g>
    </g>
    <g id="ytick_4">
     <g id="line2d_6">
      <g>
       <use xlink:href="#m773707881d" x="60.101783" y="3.578906" style="stroke: #000000; stroke-width: 0.8"/>
      </g>
     </g>
     <g id="text_7">
      <!-- 1.0 -->
      <g transform="translate(41.701783 7.157813) scale(0.1 -0.1)">
       <use xlink:href="#ArialMT-31"/>
       <use xlink:href="#ArialMT-2e" x="55.615234"/>
       <use xlink:href="#ArialMT-30" x="83.398438"/>
      </g>
     </g>
    </g>
   </g>
   <g id="patch_6">
    <path d="M 60.101783 103.370906 
L 60.101783 3.578906 
" style="fill: none; stroke: #000000; stroke-width: 0.8; stroke-linejoin: miter; stroke-linecap: square"/>
   </g>
   <g id="patch_7">
    <path d="M 60.101783 103.370906 
L 69.620607 103.370906 
" style="fill: none; stroke: #000000; stroke-width: 0.8; stroke-linejoin: miter; stroke-linecap: square"/>
   </g>
  </g>
  <g id="axes_3">
   <g id="patch_8">
    <path d="M 88.658254 103.370906 
L 98.177077 103.370906 
L 98.177077 3.578906 
L 88.658254 3.578906 
z
" style="fill: #ffffff"/>
   </g>
   <g id="PathCollection_17">
    <path d="M 93.417665 63.767937 
L 90.255388 70.092493 
L 96.579943 70.092493 
z
" style="fill: #7da494; fill-opacity: 0.75"/>
   </g>
   <g id="PathCollection_18">
    <path d="M 93.417665 59.093057 
L 97.889801 54.620921 
L 93.417665 50.148785 
L 88.945529 54.620921 
z
" style="fill: #eab67a; fill-opacity: 0.75"/>
   </g>
   <g id="PathCollection_19">
    <path d="M 92.363573 57.140249 
L 94.471758 57.140249 
L 94.471758 55.032064 
L 96.579943 55.032064 
L 96.579943 52.923878 
L 94.471758 52.923878 
L 94.471758 50.815693 
L 92.363573 50.815693 
L 92.363573 52.923878 
L 90.255388 52.923878 
L 90.255388 55.032064 
L 92.363573 55.032064 
z
" style="fill: #9e97b7; fill-opacity: 0.75"/>
   </g>
   <g id="PathCollection_20">
    <path d="M 90.255388 45.42484 
L 96.579943 45.42484 
L 96.579943 39.100285 
L 90.255388 39.100285 
z
" style="fill: #6e8fb2; fill-opacity: 0.75"/>
   </g>
   <g id="PathCollection_21">
    <path d="M 91.836527 58.468211 
L 90.255388 61.206824 
L 91.836527 63.945436 
L 94.998804 63.945436 
L 96.579943 61.206824 
L 94.998804 58.468211 
z
" style="fill: #ddbf9f; fill-opacity: 0.75"/>
   </g>
   <g id="PathCollection_22">
    <path d="M 96.579943 65.368549 
L 90.255388 62.206272 
L 90.255388 68.530827 
z
" style="fill: #d9a7be; fill-opacity: 0.75"/>
   </g>
   <g id="PathCollection_23">
    <path d="M 91.836527 83.171045 
L 93.417665 81.589906 
L 94.998804 83.171045 
L 96.579943 81.589906 
L 94.998804 80.008767 
L 96.579943 78.427629 
L 94.998804 76.84649 
L 93.417665 78.427629 
L 91.836527 76.84649 
L 90.255388 78.427629 
L 91.836527 80.008767 
L 90.255388 81.589906 
z
" style="fill: #9da6b9; fill-opacity: 0.75"/>
   </g>
   <g id="PathCollection_24">
    <path d="M 93.417665 25.09049 
C 94.256311 25.09049 95.060721 24.757292 95.653733 24.16428 
C 96.246746 23.571268 96.579943 22.766858 96.579943 21.928212 
C 96.579943 21.089566 96.246746 20.285156 95.653733 19.692144 
C 95.060721 19.099132 94.256311 18.765934 93.417665 18.765934 
C 92.57902 18.765934 91.77461 19.099132 91.181597 19.692144 
C 90.588585 20.285156 90.255388 21.089566 90.255388 21.928212 
C 90.255388 22.766858 90.588585 23.571268 91.181597 24.16428 
C 91.77461 24.757292 92.57902 25.09049 93.417665 25.09049 
z
" style="fill: #c16e71; fill-opacity: 0.75"/>
   </g>
   <g id="matplotlib.axis_5">
    <g id="xtick_3">
     <g id="line2d_7">
      <g>
       <use xlink:href="#mbb3a1a1c09" x="93.417665" y="103.370906" style="stroke: #000000; stroke-width: 0.8"/>
      </g>
     </g>
     <g id="text_8">
      <!-- EHE-Hands-UpDown -->
      <g transform="translate(52.379013 195.767563) rotate(-60) scale(0.1 -0.1)">
       <defs>
        <path id="ArialMT-70" d="M 422 -1272 
L 422 3319 
L 934 3319 
L 934 2888 
Q 1116 3141 1344 3267 
Q 1572 3394 1897 3394 
Q 2322 3394 2647 3175 
Q 2972 2956 3137 2557 
Q 3303 2159 3303 1684 
Q 3303 1175 3120 767 
Q 2938 359 2589 142 
Q 2241 -75 1856 -75 
Q 1575 -75 1351 44 
Q 1128 163 984 344 
L 984 -1272 
L 422 -1272 
z
M 931 1641 
Q 931 1000 1190 694 
Q 1450 388 1819 388 
Q 2194 388 2461 705 
Q 2728 1022 2728 1688 
Q 2728 2322 2467 2637 
Q 2206 2953 1844 2953 
Q 1484 2953 1207 2617 
Q 931 2281 931 1641 
z
" transform="scale(0.015625)"/>
        <path id="ArialMT-6f" d="M 213 1659 
Q 213 2581 725 3025 
Q 1153 3394 1769 3394 
Q 2453 3394 2887 2945 
Q 3322 2497 3322 1706 
Q 3322 1066 3130 698 
Q 2938 331 2570 128 
Q 2203 -75 1769 -75 
Q 1072 -75 642 372 
Q 213 819 213 1659 
z
M 791 1659 
Q 791 1022 1069 705 
Q 1347 388 1769 388 
Q 2188 388 2466 706 
Q 2744 1025 2744 1678 
Q 2744 2294 2464 2611 
Q 2184 2928 1769 2928 
Q 1347 2928 1069 2612 
Q 791 2297 791 1659 
z
" transform="scale(0.015625)"/>
        <path id="ArialMT-77" d="M 1034 0 
L 19 3319 
L 600 3319 
L 1128 1403 
L 1325 691 
Q 1338 744 1497 1375 
L 2025 3319 
L 2603 3319 
L 3100 1394 
L 3266 759 
L 3456 1400 
L 4025 3319 
L 4572 3319 
L 3534 0 
L 2950 0 
L 2422 1988 
L 2294 2553 
L 1622 0 
L 1034 0 
z
" transform="scale(0.015625)"/>
       </defs>
       <use xlink:href="#ArialMT-45"/>
       <use xlink:href="#ArialMT-48" x="66.699219"/>
       <use xlink:href="#ArialMT-45" x="138.916016"/>
       <use xlink:href="#ArialMT-2d" x="205.615234"/>
       <use xlink:href="#ArialMT-48" x="238.916016"/>
       <use xlink:href="#ArialMT-61" x="311.132812"/>
       <use xlink:href="#ArialMT-6e" x="366.748047"/>
       <use xlink:href="#ArialMT-64" x="422.363281"/>
       <use xlink:href="#ArialMT-73" x="477.978516"/>
       <use xlink:href="#ArialMT-2d" x="527.978516"/>
       <use xlink:href="#ArialMT-55" x="561.279297"/>
       <use xlink:href="#ArialMT-70" x="633.496094"/>
       <use xlink:href="#ArialMT-44" x="689.111328"/>
       <use xlink:href="#ArialMT-6f" x="761.328125"/>
       <use xlink:href="#ArialMT-77" x="816.943359"/>
       <use xlink:href="#ArialMT-6e" x="889.160156"/>
      </g>
      <!-- (binary) -->
      <g transform="translate(76.810824 174.896674) rotate(-60) scale(0.1 -0.1)">
       <use xlink:href="#ArialMT-28"/>
       <use xlink:href="#ArialMT-62" x="33.300781"/>
       <use xlink:href="#ArialMT-69" x="88.916016"/>
       <use xlink:href="#ArialMT-6e" x="111.132812"/>
       <use xlink:href="#ArialMT-61" x="166.748047"/>
       <use xlink:href="#ArialMT-72" x="222.363281"/>
       <use xlink:href="#ArialMT-79" x="255.664062"/>
       <use xlink:href="#ArialMT-29" x="305.664062"/>
      </g>
     </g>
    </g>
   </g>
   <g id="matplotlib.axis_6">
    <g id="ytick_5">
     <g id="line2d_8">
      <g>
       <use xlink:href="#m773707881d" x="88.658254" y="103.370906" style="stroke: #000000; stroke-width: 0.8"/>
      </g>
     </g>
     <g id="text_9">
      <!-- 0.7 -->
      <g transform="translate(70.258254 106.949813) scale(0.1 -0.1)">
       <use xlink:href="#ArialMT-30"/>
       <use xlink:href="#ArialMT-2e" x="55.615234"/>
       <use xlink:href="#ArialMT-37" x="83.398438"/>
      </g>
     </g>
    </g>
    <g id="ytick_6">
     <g id="line2d_9">
      <g>
       <use xlink:href="#m773707881d" x="88.658254" y="3.578906" style="stroke: #000000; stroke-width: 0.8"/>
      </g>
     </g>
     <g id="text_10">
      <!-- 1.0 -->
      <g transform="translate(70.258254 7.157813) scale(0.1 -0.1)">
       <use xlink:href="#ArialMT-31"/>
       <use xlink:href="#ArialMT-2e" x="55.615234"/>
       <use xlink:href="#ArialMT-30" x="83.398438"/>
      </g>
     </g>
    </g>
   </g>
   <g id="patch_9">
    <path d="M 88.658254 103.370906 
L 88.658254 3.578906 
" style="fill: none; stroke: #000000; stroke-width: 0.8; stroke-linejoin: miter; stroke-linecap: square"/>
   </g>
   <g id="patch_10">
    <path d="M 88.658254 103.370906 
L 98.177077 103.370906 
" style="fill: none; stroke: #000000; stroke-width: 0.8; stroke-linejoin: miter; stroke-linecap: square"/>
   </g>
  </g>
  <g id="axes_4">
   <g id="patch_11">
    <path d="M 117.214724 103.370906 
L 126.733548 103.370906 
L 126.733548 3.578906 
L 117.214724 3.578906 
z
" style="fill: #ffffff"/>
   </g>
   <g id="PathCollection_25">
    <path d="M 121.974136 83.209536 
L 118.811858 89.534091 
L 125.136414 89.534091 
z
" style="fill: #7da494; fill-opacity: 0.75"/>
   </g>
   <g id="PathCollection_26">
    <path d="M 121.974136 89.916381 
L 126.446272 85.444245 
L 121.974136 80.972109 
L 117.502 85.444245 
z
" style="fill: #eab67a; fill-opacity: 0.75"/>
   </g>
   <g id="PathCollection_27">
    <path d="M 120.920043 77.131308 
L 123.028229 77.131308 
L 123.028229 75.023123 
L 125.136414 75.023123 
L 125.136414 72.914938 
L 123.028229 72.914938 
L 123.028229 70.806753 
L 120.920043 70.806753 
L 120.920043 72.914938 
L 118.811858 72.914938 
L 118.811858 75.023123 
L 120.920043 75.023123 
z
" style="fill: #9e97b7; fill-opacity: 0.75"/>
   </g>
   <g id="PathCollection_28">
    <path d="M 118.811858 71.870768 
L 125.136414 71.870768 
L 125.136414 65.546213 
L 118.811858 65.546213 
z
" style="fill: #6e8fb2; fill-opacity: 0.75"/>
   </g>
   <g id="PathCollection_29">
    <path d="M 120.392997 55.426517 
L 118.811858 58.16513 
L 120.392997 60.903743 
L 123.555275 60.903743 
L 125.136414 58.16513 
L 123.555275 55.426517 
z
" style="fill: #ddbf9f; fill-opacity: 0.75"/>
   </g>
   <g id="PathCollection_30">
    <path d="M 125.136414 48.137531 
L 118.811858 44.975253 
L 118.811858 51.299809 
z
" style="fill: #d9a7be; fill-opacity: 0.75"/>
   </g>
   <g id="PathCollection_31">
    <path d="M 120.392997 65.867146 
L 121.974136 64.286007 
L 123.555275 65.867146 
L 125.136414 64.286007 
L 123.555275 62.704868 
L 125.136414 61.123729 
L 123.555275 59.54259 
L 121.974136 61.123729 
L 120.392997 59.54259 
L 118.811858 61.123729 
L 120.392997 62.704868 
L 118.811858 64.286007 
z
" style="fill: #9da6b9; fill-opacity: 0.75"/>
   </g>
   <g id="PathCollection_32">
    <path d="M 121.974136 42.378165 
C 122.812782 42.378165 123.617192 42.044967 124.210204 41.451955 
C 124.803216 40.858943 125.136414 40.054533 125.136414 39.215887 
C 125.136414 38.377241 124.803216 37.572831 124.210204 36.979819 
C 123.617192 36.386807 122.812782 36.053609 121.974136 36.053609 
C 121.13549 36.053609 120.33108 36.386807 119.738068 36.979819 
C 119.145056 37.572831 118.811858 38.377241 118.811858 39.215887 
C 118.811858 40.054533 119.145056 40.858943 119.738068 41.451955 
C 120.33108 42.044967 121.13549 42.378165 121.974136 42.378165 
z
" style="fill: #c16e71; fill-opacity: 0.75"/>
   </g>
   <g id="matplotlib.axis_7">
    <g id="xtick_4">
     <g id="line2d_10">
      <g>
       <use xlink:href="#mbb3a1a1c09" x="121.974136" y="103.370906" style="stroke: #000000; stroke-width: 0.8"/>
      </g>
     </g>
     <g id="text_11">
      <!-- EHE-Waist-BendL -->
      <g transform="translate(87.792515 183.890836) rotate(-60) scale(0.1 -0.1)">
       <use xlink:href="#ArialMT-45"/>
       <use xlink:href="#ArialMT-48" x="66.699219"/>
       <use xlink:href="#ArialMT-45" x="138.916016"/>
       <use xlink:href="#ArialMT-2d" x="205.615234"/>
       <use xlink:href="#ArialMT-57" x="238.916016"/>
       <use xlink:href="#ArialMT-61" x="329.550781"/>
       <use xlink:href="#ArialMT-69" x="385.166016"/>
       <use xlink:href="#ArialMT-73" x="407.382812"/>
       <use xlink:href="#ArialMT-74" x="457.382812"/>
       <use xlink:href="#ArialMT-2d" x="485.166016"/>
       <use xlink:href="#ArialMT-42" x="518.466797"/>
       <use xlink:href="#ArialMT-65" x="585.166016"/>
       <use xlink:href="#ArialMT-6e" x="640.78125"/>
       <use xlink:href="#ArialMT-64" x="696.396484"/>
       <use xlink:href="#ArialMT-4c" x="752.011719"/>
      </g>
      <!-- (binary) -->
      <g transform="translate(108.79581 168.958311) rotate(-60) scale(0.1 -0.1)">
       <use xlink:href="#ArialMT-28"/>
       <use xlink:href="#ArialMT-62" x="33.300781"/>
       <use xlink:href="#ArialMT-69" x="88.916016"/>
       <use xlink:href="#ArialMT-6e" x="111.132812"/>
       <use xlink:href="#ArialMT-61" x="166.748047"/>
       <use xlink:href="#ArialMT-72" x="222.363281"/>
       <use xlink:href="#ArialMT-79" x="255.664062"/>
       <use xlink:href="#ArialMT-29" x="305.664062"/>
      </g>
     </g>
    </g>
   </g>
   <g id="matplotlib.axis_8">
    <g id="ytick_7">
     <g id="line2d_11">
      <g>
       <use xlink:href="#m773707881d" x="117.214724" y="103.370906" style="stroke: #000000; stroke-width: 0.8"/>
      </g>
     </g>
     <g id="text_12">
      <!-- 0.8 -->
      <g transform="translate(98.814724 106.949813) scale(0.1 -0.1)">
       <use xlink:href="#ArialMT-30"/>
       <use xlink:href="#ArialMT-2e" x="55.615234"/>
       <use xlink:href="#ArialMT-38" x="83.398438"/>
      </g>
     </g>
    </g>
    <g id="ytick_8">
     <g id="line2d_12">
      <g>
       <use xlink:href="#m773707881d" x="117.214724" y="3.578906" style="stroke: #000000; stroke-width: 0.8"/>
      </g>
     </g>
     <g id="text_13">
      <!-- 1.0 -->
      <g transform="translate(98.814724 7.157813) scale(0.1 -0.1)">
       <use xlink:href="#ArialMT-31"/>
       <use xlink:href="#ArialMT-2e" x="55.615234"/>
       <use xlink:href="#ArialMT-30" x="83.398438"/>
      </g>
     </g>
    </g>
   </g>
   <g id="patch_12">
    <path d="M 117.214724 103.370906 
L 117.214724 3.578906 
" style="fill: none; stroke: #000000; stroke-width: 0.8; stroke-linejoin: miter; stroke-linecap: square"/>
   </g>
   <g id="patch_13">
    <path d="M 117.214724 103.370906 
L 126.733548 103.370906 
" style="fill: none; stroke: #000000; stroke-width: 0.8; stroke-linejoin: miter; stroke-linecap: square"/>
   </g>
  </g>
  <g id="axes_5">
   <g id="patch_14">
    <path d="M 145.771195 103.370906 
L 155.290018 103.370906 
L 155.290018 3.578906 
L 145.771195 3.578906 
z
" style="fill: #ffffff"/>
   </g>
   <g id="PathCollection_33">
    <path d="M 150.530607 53.249892 
L 147.368329 59.574448 
L 153.692884 59.574448 
z
" style="fill: #7da494; fill-opacity: 0.75"/>
   </g>
   <g id="PathCollection_34">
    <path d="M 150.530607 50.610445 
L 155.002743 46.138309 
L 150.530607 41.666173 
L 146.058471 46.138309 
z
" style="fill: #eab67a; fill-opacity: 0.75"/>
   </g>
   <g id="PathCollection_35">
    <path d="M 149.476514 59.538583 
L 151.584699 59.538583 
L 151.584699 57.430398 
L 153.692884 57.430398 
L 153.692884 55.322213 
L 151.584699 55.322213 
L 151.584699 53.214028 
L 149.476514 53.214028 
L 149.476514 55.322213 
L 147.368329 55.322213 
L 147.368329 57.430398 
L 149.476514 57.430398 
z
" style="fill: #9e97b7; fill-opacity: 0.75"/>
   </g>
   <g id="PathCollection_36">
    <path d="M 147.368329 41.281116 
L 153.692884 41.281116 
L 153.692884 34.95656 
L 147.368329 34.95656 
z
" style="fill: #6e8fb2; fill-opacity: 0.75"/>
   </g>
   <g id="PathCollection_37">
    <path d="M 148.949468 28.868024 
L 147.368329 31.606637 
L 148.949468 34.34525 
L 152.111745 34.34525 
L 153.692884 31.606637 
L 152.111745 28.868024 
z
" style="fill: #ddbf9f; fill-opacity: 0.75"/>
   </g>
   <g id="PathCollection_38">
    <path d="M 153.692884 48.25299 
L 147.368329 45.090713 
L 147.368329 51.415268 
z
" style="fill: #d9a7be; fill-opacity: 0.75"/>
   </g>
   <g id="PathCollection_39">
    <path d="M 148.949468 33.807868 
L 150.530607 32.226729 
L 152.111745 33.807868 
L 153.692884 32.226729 
L 152.111745 30.64559 
L 153.692884 29.064451 
L 152.111745 27.483313 
L 150.530607 29.064451 
L 148.949468 27.483313 
L 147.368329 29.064451 
L 148.949468 30.64559 
L 147.368329 32.226729 
z
" style="fill: #9da6b9; fill-opacity: 0.75"/>
   </g>
   <g id="PathCollection_40">
    <path d="M 150.530607 15.55332 
C 151.369252 15.55332 152.173662 15.220122 152.766675 14.62711 
C 153.359687 14.034098 153.692884 13.229688 153.692884 12.391042 
C 153.692884 11.552396 153.359687 10.747986 152.766675 10.154974 
C 152.173662 9.561962 151.369252 9.228765 150.530607 9.228765 
C 149.691961 9.228765 148.887551 9.561962 148.294539 10.154974 
C 147.701526 10.747986 147.368329 11.552396 147.368329 12.391042 
C 147.368329 13.229688 147.701526 14.034098 148.294539 14.62711 
C 148.887551 15.220122 149.691961 15.55332 150.530607 15.55332 
z
" style="fill: #c16e71; fill-opacity: 0.75"/>
   </g>
   <g id="matplotlib.axis_9">
    <g id="xtick_5">
     <g id="line2d_13">
      <g>
       <use xlink:href="#mbb3a1a1c09" x="150.530607" y="103.370906" style="stroke: #000000; stroke-width: 0.8"/>
      </g>
     </g>
     <g id="text_14">
      <!-- EHE-Waist-BendR -->
      <g transform="translate(115.518517 185.32925) rotate(-60) scale(0.1 -0.1)">
       <use xlink:href="#ArialMT-45"/>
       <use xlink:href="#ArialMT-48" x="66.699219"/>
       <use xlink:href="#ArialMT-45" x="138.916016"/>
       <use xlink:href="#ArialMT-2d" x="205.615234"/>
       <use xlink:href="#ArialMT-57" x="238.916016"/>
       <use xlink:href="#ArialMT-61" x="329.550781"/>
       <use xlink:href="#ArialMT-69" x="385.166016"/>
       <use xlink:href="#ArialMT-73" x="407.382812"/>
       <use xlink:href="#ArialMT-74" x="457.382812"/>
       <use xlink:href="#ArialMT-2d" x="485.166016"/>
       <use xlink:href="#ArialMT-42" x="518.466797"/>
       <use xlink:href="#ArialMT-65" x="585.166016"/>
       <use xlink:href="#ArialMT-6e" x="640.78125"/>
       <use xlink:href="#ArialMT-64" x="696.396484"/>
       <use xlink:href="#ArialMT-52" x="752.011719"/>
      </g>
      <!-- (binary) -->
      <g transform="translate(136.937046 169.677518) rotate(-60) scale(0.1 -0.1)">
       <use xlink:href="#ArialMT-28"/>
       <use xlink:href="#ArialMT-62" x="33.300781"/>
       <use xlink:href="#ArialMT-69" x="88.916016"/>
       <use xlink:href="#ArialMT-6e" x="111.132812"/>
       <use xlink:href="#ArialMT-61" x="166.748047"/>
       <use xlink:href="#ArialMT-72" x="222.363281"/>
       <use xlink:href="#ArialMT-79" x="255.664062"/>
       <use xlink:href="#ArialMT-29" x="305.664062"/>
      </g>
     </g>
    </g>
   </g>
   <g id="matplotlib.axis_10">
    <g id="ytick_9">
     <g id="line2d_14">
      <g>
       <use xlink:href="#m773707881d" x="145.771195" y="103.370906" style="stroke: #000000; stroke-width: 0.8"/>
      </g>
     </g>
     <g id="text_15">
      <!-- 0.8 -->
      <g transform="translate(127.371195 106.949813) scale(0.1 -0.1)">
       <use xlink:href="#ArialMT-30"/>
       <use xlink:href="#ArialMT-2e" x="55.615234"/>
       <use xlink:href="#ArialMT-38" x="83.398438"/>
      </g>
     </g>
    </g>
    <g id="ytick_10">
     <g id="line2d_15">
      <g>
       <use xlink:href="#m773707881d" x="145.771195" y="3.578906" style="stroke: #000000; stroke-width: 0.8"/>
      </g>
     </g>
     <g id="text_16">
      <!-- 1.0 -->
      <g transform="translate(127.371195 7.157813) scale(0.1 -0.1)">
       <use xlink:href="#ArialMT-31"/>
       <use xlink:href="#ArialMT-2e" x="55.615234"/>
       <use xlink:href="#ArialMT-30" x="83.398438"/>
      </g>
     </g>
    </g>
   </g>
   <g id="patch_15">
    <path d="M 145.771195 103.370906 
L 145.771195 3.578906 
" style="fill: none; stroke: #000000; stroke-width: 0.8; stroke-linejoin: miter; stroke-linecap: square"/>
   </g>
   <g id="patch_16">
    <path d="M 145.771195 103.370906 
L 155.290018 103.370906 
" style="fill: none; stroke: #000000; stroke-width: 0.8; stroke-linejoin: miter; stroke-linecap: square"/>
   </g>
  </g>
  <g id="axes_6">
   <g id="patch_17">
    <path d="M 174.327665 103.370906 
L 183.846489 103.370906 
L 183.846489 3.578906 
L 174.327665 3.578906 
z
" style="fill: #ffffff"/>
   </g>
   <g id="PathCollection_41">
    <path d="M 179.087077 49.530475 
L 175.9248 55.85503 
L 182.249355 55.85503 
z
" style="fill: #7da494; fill-opacity: 0.75"/>
   </g>
   <g id="PathCollection_42">
    <path d="M 179.087077 67.814892 
L 183.559213 63.342756 
L 179.087077 58.87062 
L 174.614941 63.342756 
z
" style="fill: #eab67a; fill-opacity: 0.75"/>
   </g>
   <g id="PathCollection_43">
    <path d="M 178.032985 66.596442 
L 180.14117 66.596442 
L 180.14117 64.488257 
L 182.249355 64.488257 
L 182.249355 62.380072 
L 180.14117 62.380072 
L 180.14117 60.271886 
L 178.032985 60.271886 
L 178.032985 62.380072 
L 175.9248 62.380072 
L 175.9248 64.488257 
L 178.032985 64.488257 
z
" style="fill: #9e97b7; fill-opacity: 0.75"/>
   </g>
   <g id="PathCollection_44">
    <path d="M 175.9248 43.555891 
L 182.249355 43.555891 
L 182.249355 37.231336 
L 175.9248 37.231336 
z
" style="fill: #6e8fb2; fill-opacity: 0.75"/>
   </g>
   <g id="PathCollection_45">
    <path d="M 177.505938 33.090813 
L 175.9248 35.829425 
L 177.505938 38.568038 
L 180.668216 38.568038 
L 182.249355 35.829425 
L 180.668216 33.090813 
z
" style="fill: #ddbf9f; fill-opacity: 0.75"/>
   </g>
   <g id="PathCollection_46">
    <path d="M 182.249355 85.815318 
L 175.9248 82.65304 
L 175.9248 88.977596 
z
" style="fill: #d9a7be; fill-opacity: 0.75"/>
   </g>
   <g id="PathCollection_47">
    <path d="M 177.505938 62.378876 
L 179.087077 60.797737 
L 180.668216 62.378876 
L 182.249355 60.797737 
L 180.668216 59.216599 
L 182.249355 57.63546 
L 180.668216 56.054321 
L 179.087077 57.63546 
L 177.505938 56.054321 
L 175.9248 57.63546 
L 177.505938 59.216599 
L 175.9248 60.797737 
z
" style="fill: #9da6b9; fill-opacity: 0.75"/>
   </g>
   <g id="PathCollection_48">
    <path d="M 179.087077 24.894503 
C 179.925723 24.894503 180.730133 24.561305 181.323145 23.968293 
C 181.916157 23.375281 182.249355 22.570871 182.249355 21.732225 
C 182.249355 20.893579 181.916157 20.089169 181.323145 19.496157 
C 180.730133 18.903145 179.925723 18.569947 179.087077 18.569947 
C 178.248431 18.569947 177.444021 18.903145 176.851009 19.496157 
C 176.257997 20.089169 175.9248 20.893579 175.9248 21.732225 
C 175.9248 22.570871 176.257997 23.375281 176.851009 23.968293 
C 177.444021 24.561305 178.248431 24.894503 179.087077 24.894503 
z
" style="fill: #c16e71; fill-opacity: 0.75"/>
   </g>
   <g id="matplotlib.axis_11">
    <g id="xtick_6">
     <g id="line2d_16">
      <g>
       <use xlink:href="#mbb3a1a1c09" x="179.087077" y="103.370906" style="stroke: #000000; stroke-width: 0.8"/>
      </g>
     </g>
     <g id="text_17">
      <!-- EHE-Forward-Gait -->
      <g transform="translate(144.169518 185.165517) rotate(-60) scale(0.1 -0.1)">
       <defs>
        <path id="ArialMT-46" d="M 525 0 
L 525 4581 
L 3616 4581 
L 3616 4041 
L 1131 4041 
L 1131 2622 
L 3281 2622 
L 3281 2081 
L 1131 2081 
L 1131 0 
L 525 0 
z
" transform="scale(0.015625)"/>
       </defs>
       <use xlink:href="#ArialMT-45"/>
       <use xlink:href="#ArialMT-48" x="66.699219"/>
       <use xlink:href="#ArialMT-45" x="138.916016"/>
       <use xlink:href="#ArialMT-2d" x="205.615234"/>
       <use xlink:href="#ArialMT-46" x="238.916016"/>
       <use xlink:href="#ArialMT-6f" x="300"/>
       <use xlink:href="#ArialMT-72" x="355.615234"/>
       <use xlink:href="#ArialMT-77" x="388.916016"/>
       <use xlink:href="#ArialMT-61" x="461.132812"/>
       <use xlink:href="#ArialMT-72" x="516.748047"/>
       <use xlink:href="#ArialMT-64" x="550.048828"/>
       <use xlink:href="#ArialMT-2d" x="605.664062"/>
       <use xlink:href="#ArialMT-47" x="638.964844"/>
       <use xlink:href="#ArialMT-61" x="716.748047"/>
       <use xlink:href="#ArialMT-69" x="772.363281"/>
       <use xlink:href="#ArialMT-74" x="794.580078"/>
      </g>
      <!-- (binary) -->
      <g transform="translate(165.540783 169.595652) rotate(-60) scale(0.1 -0.1)">
       <use xlink:href="#ArialMT-28"/>
       <use xlink:href="#ArialMT-62" x="33.300781"/>
       <use xlink:href="#ArialMT-69" x="88.916016"/>
       <use xlink:href="#ArialMT-6e" x="111.132812"/>
       <use xlink:href="#ArialMT-61" x="166.748047"/>
       <use xlink:href="#ArialMT-72" x="222.363281"/>
       <use xlink:href="#ArialMT-79" x="255.664062"/>
       <use xlink:href="#ArialMT-29" x="305.664062"/>
      </g>
     </g>
    </g>
   </g>
   <g id="matplotlib.axis_12">
    <g id="ytick_11">
     <g id="line2d_17">
      <g>
       <use xlink:href="#m773707881d" x="174.327665" y="103.370906" style="stroke: #000000; stroke-width: 0.8"/>
      </g>
     </g>
     <g id="text_18">
      <!-- 0.5 -->
      <g transform="translate(155.927665 106.949813) scale(0.1 -0.1)">
       <defs>
        <path id="ArialMT-35" d="M 266 1200 
L 856 1250 
Q 922 819 1161 601 
Q 1400 384 1738 384 
Q 2144 384 2425 690 
Q 2706 997 2706 1503 
Q 2706 1984 2436 2262 
Q 2166 2541 1728 2541 
Q 1456 2541 1237 2417 
Q 1019 2294 894 2097 
L 366 2166 
L 809 4519 
L 3088 4519 
L 3088 3981 
L 1259 3981 
L 1013 2750 
Q 1425 3038 1878 3038 
Q 2478 3038 2890 2622 
Q 3303 2206 3303 1553 
Q 3303 931 2941 478 
Q 2500 -78 1738 -78 
Q 1113 -78 717 272 
Q 322 622 266 1200 
z
" transform="scale(0.015625)"/>
       </defs>
       <use xlink:href="#ArialMT-30"/>
       <use xlink:href="#ArialMT-2e" x="55.615234"/>
       <use xlink:href="#ArialMT-35" x="83.398438"/>
      </g>
     </g>
    </g>
    <g id="ytick_12">
     <g id="line2d_18">
      <g>
       <use xlink:href="#m773707881d" x="174.327665" y="3.578906" style="stroke: #000000; stroke-width: 0.8"/>
      </g>
     </g>
     <g id="text_19">
      <!-- 1.0 -->
      <g transform="translate(155.927665 7.157813) scale(0.1 -0.1)">
       <use xlink:href="#ArialMT-31"/>
       <use xlink:href="#ArialMT-2e" x="55.615234"/>
       <use xlink:href="#ArialMT-30" x="83.398438"/>
      </g>
     </g>
    </g>
   </g>
   <g id="patch_18">
    <path d="M 174.327665 103.370906 
L 174.327665 3.578906 
" style="fill: none; stroke: #000000; stroke-width: 0.8; stroke-linejoin: miter; stroke-linecap: square"/>
   </g>
   <g id="patch_19">
    <path d="M 174.327665 103.370906 
L 183.846489 103.370906 
" style="fill: none; stroke: #000000; stroke-width: 0.8; stroke-linejoin: miter; stroke-linecap: square"/>
   </g>
  </g>
  <g id="axes_7">
   <g id="patch_20">
    <path d="M 202.884136 103.370906 
L 212.40296 103.370906 
L 212.40296 3.578906 
L 202.884136 3.578906 
z
" style="fill: #ffffff"/>
   </g>
   <g id="PathCollection_49">
    <path d="M 207.643548 75.463154 
L 204.48127 81.78771 
L 210.805825 81.78771 
z
" style="fill: #7da494; fill-opacity: 0.75"/>
   </g>
   <g id="PathCollection_50">
    <path d="M 207.643548 49.133214 
L 212.115684 44.661078 
L 207.643548 40.188942 
L 203.171412 44.661078 
z
" style="fill: #eab67a; fill-opacity: 0.75"/>
   </g>
   <g id="PathCollection_51">
    <path d="M 206.589455 61.506475 
L 208.69764 61.506475 
L 208.69764 59.39829 
L 210.805825 59.39829 
L 210.805825 57.290105 
L 208.69764 57.290105 
L 208.69764 55.18192 
L 206.589455 55.18192 
L 206.589455 57.290105 
L 204.48127 57.290105 
L 204.48127 59.39829 
L 206.589455 59.39829 
z
" style="fill: #9e97b7; fill-opacity: 0.75"/>
   </g>
   <g id="PathCollection_52">
    <path d="M 204.48127 74.546567 
L 210.805825 74.546567 
L 210.805825 68.222011 
L 204.48127 68.222011 
z
" style="fill: #6e8fb2; fill-opacity: 0.75"/>
   </g>
   <g id="PathCollection_53">
    <path d="M 206.062409 51.442272 
L 204.48127 54.180885 
L 206.062409 56.919498 
L 209.224687 56.919498 
L 210.805825 54.180885 
L 209.224687 51.442272 
z
" style="fill: #ddbf9f; fill-opacity: 0.75"/>
   </g>
   <g id="PathCollection_54">
    <path d="M 210.805825 91.537845 
L 204.48127 88.375568 
L 204.48127 94.700123 
z
" style="fill: #d9a7be; fill-opacity: 0.75"/>
   </g>
   <g id="PathCollection_55">
    <path d="M 206.062409 54.819897 
L 207.643548 53.238758 
L 209.224687 54.819897 
L 210.805825 53.238758 
L 209.224687 51.657619 
L 210.805825 50.07648 
L 209.224687 48.495341 
L 207.643548 50.07648 
L 206.062409 48.495341 
L 204.48127 50.07648 
L 206.062409 51.657619 
L 204.48127 53.238758 
z
" style="fill: #9da6b9; fill-opacity: 0.75"/>
   </g>
   <g id="PathCollection_56">
    <path d="M 207.643548 26.750498 
C 208.482194 26.750498 209.286604 26.417301 209.879616 25.824289 
C 210.472628 25.231276 210.805825 24.426866 210.805825 23.588221 
C 210.805825 22.749575 210.472628 21.945165 209.879616 21.352153 
C 209.286604 20.75914 208.482194 20.425943 207.643548 20.425943 
C 206.804902 20.425943 206.000492 20.75914 205.40748 21.352153 
C 204.814468 21.945165 204.48127 22.749575 204.48127 23.588221 
C 204.48127 24.426866 204.814468 25.231276 205.40748 25.824289 
C 206.000492 26.417301 206.804902 26.750498 207.643548 26.750498 
z
" style="fill: #c16e71; fill-opacity: 0.75"/>
   </g>
   <g id="matplotlib.axis_13">
    <g id="xtick_7">
     <g id="line2d_19">
      <g>
       <use xlink:href="#mbb3a1a1c09" x="207.643548" y="103.370906" style="stroke: #000000; stroke-width: 0.8"/>
      </g>
     </g>
     <g id="text_20">
      <!-- EHE-Backward-Gait -->
      <g transform="translate(169.109583 191.429317) rotate(-60) scale(0.1 -0.1)">
       <defs>
        <path id="ArialMT-63" d="M 2588 1216 
L 3141 1144 
Q 3050 572 2676 248 
Q 2303 -75 1759 -75 
Q 1078 -75 664 370 
Q 250 816 250 1647 
Q 250 2184 428 2587 
Q 606 2991 970 3192 
Q 1334 3394 1763 3394 
Q 2303 3394 2647 3120 
Q 2991 2847 3088 2344 
L 2541 2259 
Q 2463 2594 2264 2762 
Q 2066 2931 1784 2931 
Q 1359 2931 1093 2626 
Q 828 2322 828 1663 
Q 828 994 1084 691 
Q 1341 388 1753 388 
Q 2084 388 2306 591 
Q 2528 794 2588 1216 
z
" transform="scale(0.015625)"/>
        <path id="ArialMT-6b" d="M 425 0 
L 425 4581 
L 988 4581 
L 988 1969 
L 2319 3319 
L 3047 3319 
L 1778 2088 
L 3175 0 
L 2481 0 
L 1384 1697 
L 988 1316 
L 988 0 
L 425 0 
z
" transform="scale(0.015625)"/>
       </defs>
       <use xlink:href="#ArialMT-45"/>
       <use xlink:href="#ArialMT-48" x="66.699219"/>
       <use xlink:href="#ArialMT-45" x="138.916016"/>
       <use xlink:href="#ArialMT-2d" x="205.615234"/>
       <use xlink:href="#ArialMT-42" x="238.916016"/>
       <use xlink:href="#ArialMT-61" x="305.615234"/>
       <use xlink:href="#ArialMT-63" x="361.230469"/>
       <use xlink:href="#ArialMT-6b" x="411.230469"/>
       <use xlink:href="#ArialMT-77" x="461.230469"/>
       <use xlink:href="#ArialMT-61" x="533.447266"/>
       <use xlink:href="#ArialMT-72" x="589.0625"/>
       <use xlink:href="#ArialMT-64" x="622.363281"/>
       <use xlink:href="#ArialMT-2d" x="677.978516"/>
       <use xlink:href="#ArialMT-47" x="711.279297"/>
       <use xlink:href="#ArialMT-61" x="789.0625"/>
       <use xlink:href="#ArialMT-69" x="844.677734"/>
       <use xlink:href="#ArialMT-74" x="866.894531"/>
      </g>
      <!-- (binary) -->
      <g transform="translate(192.28905 172.727551) rotate(-60) scale(0.1 -0.1)">
       <use xlink:href="#ArialMT-28"/>
       <use xlink:href="#ArialMT-62" x="33.300781"/>
       <use xlink:href="#ArialMT-69" x="88.916016"/>
       <use xlink:href="#ArialMT-6e" x="111.132812"/>
       <use xlink:href="#ArialMT-61" x="166.748047"/>
       <use xlink:href="#ArialMT-72" x="222.363281"/>
       <use xlink:href="#ArialMT-79" x="255.664062"/>
       <use xlink:href="#ArialMT-29" x="305.664062"/>
      </g>
     </g>
    </g>
   </g>
   <g id="matplotlib.axis_14">
    <g id="ytick_13">
     <g id="line2d_20">
      <g>
       <use xlink:href="#m773707881d" x="202.884136" y="103.370906" style="stroke: #000000; stroke-width: 0.8"/>
      </g>
     </g>
     <g id="text_21">
      <!-- 0.6 -->
      <g transform="translate(184.484136 106.949812) scale(0.1 -0.1)">
       <defs>
        <path id="ArialMT-36" d="M 3184 3459 
L 2625 3416 
Q 2550 3747 2413 3897 
Q 2184 4138 1850 4138 
Q 1581 4138 1378 3988 
Q 1113 3794 959 3422 
Q 806 3050 800 2363 
Q 1003 2672 1297 2822 
Q 1591 2972 1913 2972 
Q 2475 2972 2870 2558 
Q 3266 2144 3266 1488 
Q 3266 1056 3080 686 
Q 2894 316 2569 119 
Q 2244 -78 1831 -78 
Q 1128 -78 684 439 
Q 241 956 241 2144 
Q 241 3472 731 4075 
Q 1159 4600 1884 4600 
Q 2425 4600 2770 4297 
Q 3116 3994 3184 3459 
z
M 888 1484 
Q 888 1194 1011 928 
Q 1134 663 1356 523 
Q 1578 384 1822 384 
Q 2178 384 2434 671 
Q 2691 959 2691 1453 
Q 2691 1928 2437 2201 
Q 2184 2475 1800 2475 
Q 1419 2475 1153 2201 
Q 888 1928 888 1484 
z
" transform="scale(0.015625)"/>
       </defs>
       <use xlink:href="#ArialMT-30"/>
       <use xlink:href="#ArialMT-2e" x="55.615234"/>
       <use xlink:href="#ArialMT-36" x="83.398438"/>
      </g>
     </g>
    </g>
    <g id="ytick_14">
     <g id="line2d_21">
      <g>
       <use xlink:href="#m773707881d" x="202.884136" y="3.578906" style="stroke: #000000; stroke-width: 0.8"/>
      </g>
     </g>
     <g id="text_22">
      <!-- 1.0 -->
      <g transform="translate(184.484136 7.157812) scale(0.1 -0.1)">
       <use xlink:href="#ArialMT-31"/>
       <use xlink:href="#ArialMT-2e" x="55.615234"/>
       <use xlink:href="#ArialMT-30" x="83.398438"/>
      </g>
     </g>
    </g>
   </g>
   <g id="patch_21">
    <path d="M 202.884136 103.370906 
L 202.884136 3.578906 
" style="fill: none; stroke: #000000; stroke-width: 0.8; stroke-linejoin: miter; stroke-linecap: square"/>
   </g>
   <g id="patch_22">
    <path d="M 202.884136 103.370906 
L 212.40296 103.370906 
" style="fill: none; stroke: #000000; stroke-width: 0.8; stroke-linejoin: miter; stroke-linecap: square"/>
   </g>
  </g>
  <g id="axes_8">
   <g id="patch_23">
    <path d="M 231.440607 103.370906 
L 240.95943 103.370906 
L 240.95943 3.578906 
L 231.440607 3.578906 
z
" style="fill: #ffffff"/>
   </g>
   <g id="PathCollection_57">
    <path d="M 236.200018 81.6858 
L 233.037741 88.010356 
L 239.362296 88.010356 
z
" style="fill: #7da494; fill-opacity: 0.75"/>
   </g>
   <g id="PathCollection_58">
    <path d="M 236.200018 66.920911 
L 240.672154 62.448775 
L 236.200018 57.976639 
L 231.727882 62.448775 
z
" style="fill: #eab67a; fill-opacity: 0.75"/>
   </g>
   <g id="PathCollection_59">
    <path d="M 235.145926 72.513741 
L 237.254111 72.513741 
L 237.254111 70.405556 
L 239.362296 70.405556 
L 239.362296 68.297371 
L 237.254111 68.297371 
L 237.254111 66.189186 
L 235.145926 66.189186 
L 235.145926 68.297371 
L 233.037741 68.297371 
L 233.037741 70.405556 
L 235.145926 70.405556 
z
" style="fill: #9e97b7; fill-opacity: 0.75"/>
   </g>
   <g id="PathCollection_60">
    <path d="M 233.037741 64.562451 
L 239.362296 64.562451 
L 239.362296 58.237895 
L 233.037741 58.237895 
z
" style="fill: #6e8fb2; fill-opacity: 0.75"/>
   </g>
   <g id="PathCollection_61">
    <path d="M 234.61888 37.586569 
L 233.037741 40.325181 
L 234.61888 43.063794 
L 237.781157 43.063794 
L 239.362296 40.325181 
L 237.781157 37.586569 
z
" style="fill: #ddbf9f; fill-opacity: 0.75"/>
   </g>
   <g id="PathCollection_62">
    <path d="M 239.362296 98.409647 
L 233.037741 95.24737 
L 233.037741 101.571925 
z
" style="fill: #d9a7be; fill-opacity: 0.75"/>
   </g>
   <g id="PathCollection_63">
    <path d="M 234.61888 58.722371 
L 236.200018 57.141232 
L 237.781157 58.722371 
L 239.362296 57.141232 
L 237.781157 55.560093 
L 239.362296 53.978955 
L 237.781157 52.397816 
L 236.200018 53.978955 
L 234.61888 52.397816 
L 233.037741 53.978955 
L 234.61888 55.560093 
L 233.037741 57.141232 
z
" style="fill: #9da6b9; fill-opacity: 0.75"/>
   </g>
   <g id="PathCollection_64">
    <path d="M 236.200018 24.357286 
C 237.038664 24.357286 237.843074 24.024089 238.436086 23.431077 
C 239.029099 22.838065 239.362296 22.033655 239.362296 21.195009 
C 239.362296 20.356363 239.029099 19.551953 238.436086 18.958941 
C 237.843074 18.365929 237.038664 18.032731 236.200018 18.032731 
C 235.361373 18.032731 234.556963 18.365929 233.96395 18.958941 
C 233.370938 19.551953 233.037741 20.356363 233.037741 21.195009 
C 233.037741 22.033655 233.370938 22.838065 233.96395 23.431077 
C 234.556963 24.024089 235.361373 24.357286 236.200018 24.357286 
z
" style="fill: #c16e71; fill-opacity: 0.75"/>
   </g>
   <g id="matplotlib.axis_15">
    <g id="xtick_8">
     <g id="line2d_22">
      <g>
       <use xlink:href="#mbb3a1a1c09" x="236.200018" y="103.370906" style="stroke: #000000; stroke-width: 0.8"/>
      </g>
     </g>
     <g id="text_23">
      <!-- PD-Round-Gait -->
      <g transform="translate(208.220741 173.148062) rotate(-60) scale(0.1 -0.1)">
       <defs>
        <path id="ArialMT-50" d="M 494 0 
L 494 4581 
L 2222 4581 
Q 2678 4581 2919 4538 
Q 3256 4481 3484 4323 
Q 3713 4166 3852 3881 
Q 3991 3597 3991 3256 
Q 3991 2672 3619 2267 
Q 3247 1863 2275 1863 
L 1100 1863 
L 1100 0 
L 494 0 
z
M 1100 2403 
L 2284 2403 
Q 2872 2403 3119 2622 
Q 3366 2841 3366 3238 
Q 3366 3525 3220 3729 
Q 3075 3934 2838 4000 
Q 2684 4041 2272 4041 
L 1100 4041 
L 1100 2403 
z
" transform="scale(0.015625)"/>
        <path id="ArialMT-75" d="M 2597 0 
L 2597 488 
Q 2209 -75 1544 -75 
Q 1250 -75 995 37 
Q 741 150 617 320 
Q 494 491 444 738 
Q 409 903 409 1263 
L 409 3319 
L 972 3319 
L 972 1478 
Q 972 1038 1006 884 
Q 1059 663 1231 536 
Q 1403 409 1656 409 
Q 1909 409 2131 539 
Q 2353 669 2445 892 
Q 2538 1116 2538 1541 
L 2538 3319 
L 3100 3319 
L 3100 0 
L 2597 0 
z
" transform="scale(0.015625)"/>
       </defs>
       <use xlink:href="#ArialMT-50"/>
       <use xlink:href="#ArialMT-44" x="66.699219"/>
       <use xlink:href="#ArialMT-2d" x="138.916016"/>
       <use xlink:href="#ArialMT-52" x="172.216797"/>
       <use xlink:href="#ArialMT-6f" x="244.433594"/>
       <use xlink:href="#ArialMT-75" x="300.048828"/>
       <use xlink:href="#ArialMT-6e" x="355.664062"/>
       <use xlink:href="#ArialMT-64" x="411.279297"/>
       <use xlink:href="#ArialMT-2d" x="466.894531"/>
       <use xlink:href="#ArialMT-47" x="500.195312"/>
       <use xlink:href="#ArialMT-61" x="577.978516"/>
       <use xlink:href="#ArialMT-69" x="633.59375"/>
       <use xlink:href="#ArialMT-74" x="655.810547"/>
      </g>
      <!-- (binary) -->
      <g transform="translate(226.122865 163.586924) rotate(-60) scale(0.1 -0.1)">
       <use xlink:href="#ArialMT-28"/>
       <use xlink:href="#ArialMT-62" x="33.300781"/>
       <use xlink:href="#ArialMT-69" x="88.916016"/>
       <use xlink:href="#ArialMT-6e" x="111.132812"/>
       <use xlink:href="#ArialMT-61" x="166.748047"/>
       <use xlink:href="#ArialMT-72" x="222.363281"/>
       <use xlink:href="#ArialMT-79" x="255.664062"/>
       <use xlink:href="#ArialMT-29" x="305.664062"/>
      </g>
     </g>
    </g>
   </g>
   <g id="matplotlib.axis_16">
    <g id="ytick_15">
     <g id="line2d_23">
      <g>
       <use xlink:href="#m773707881d" x="231.440607" y="103.370906" style="stroke: #000000; stroke-width: 0.8"/>
      </g>
     </g>
     <g id="text_24">
      <!-- 0.6 -->
      <g transform="translate(213.040607 106.949813) scale(0.1 -0.1)">
       <use xlink:href="#ArialMT-30"/>
       <use xlink:href="#ArialMT-2e" x="55.615234"/>
       <use xlink:href="#ArialMT-36" x="83.398438"/>
      </g>
     </g>
    </g>
    <g id="ytick_16">
     <g id="line2d_24">
      <g>
       <use xlink:href="#m773707881d" x="231.440607" y="3.578906" style="stroke: #000000; stroke-width: 0.8"/>
      </g>
     </g>
     <g id="text_25">
      <!-- 0.9 -->
      <g transform="translate(213.040607 7.157813) scale(0.1 -0.1)">
       <defs>
        <path id="ArialMT-39" d="M 350 1059 
L 891 1109 
Q 959 728 1153 556 
Q 1347 384 1650 384 
Q 1909 384 2104 503 
Q 2300 622 2425 820 
Q 2550 1019 2634 1356 
Q 2719 1694 2719 2044 
Q 2719 2081 2716 2156 
Q 2547 1888 2255 1720 
Q 1963 1553 1622 1553 
Q 1053 1553 659 1965 
Q 266 2378 266 3053 
Q 266 3750 677 4175 
Q 1088 4600 1706 4600 
Q 2153 4600 2523 4359 
Q 2894 4119 3086 3673 
Q 3278 3228 3278 2384 
Q 3278 1506 3087 986 
Q 2897 466 2520 194 
Q 2144 -78 1638 -78 
Q 1100 -78 759 220 
Q 419 519 350 1059 
z
M 2653 3081 
Q 2653 3566 2395 3850 
Q 2138 4134 1775 4134 
Q 1400 4134 1122 3828 
Q 844 3522 844 3034 
Q 844 2597 1108 2323 
Q 1372 2050 1759 2050 
Q 2150 2050 2401 2323 
Q 2653 2597 2653 3081 
z
" transform="scale(0.015625)"/>
       </defs>
       <use xlink:href="#ArialMT-30"/>
       <use xlink:href="#ArialMT-2e" x="55.615234"/>
       <use xlink:href="#ArialMT-39" x="83.398438"/>
      </g>
     </g>
    </g>
   </g>
   <g id="patch_24">
    <path d="M 231.440607 103.370906 
L 231.440607 3.578906 
" style="fill: none; stroke: #000000; stroke-width: 0.8; stroke-linejoin: miter; stroke-linecap: square"/>
   </g>
   <g id="patch_25">
    <path d="M 231.440607 103.370906 
L 240.95943 103.370906 
" style="fill: none; stroke: #000000; stroke-width: 0.8; stroke-linejoin: miter; stroke-linecap: square"/>
   </g>
  </g>
  <g id="axes_9">
   <g id="patch_26">
    <path d="M 259.997077 103.370906 
L 269.515901 103.370906 
L 269.515901 3.578906 
L 259.997077 3.578906 
z
" style="fill: #ffffff"/>
   </g>
   <g id="PathCollection_65">
    <path d="M 264.756489 57.952937 
L 261.594211 64.277492 
L 267.918767 64.277492 
z
" style="fill: #7da494; fill-opacity: 0.75"/>
   </g>
   <g id="PathCollection_66">
    <path d="M 264.756489 76.88427 
L 269.228625 72.412134 
L 264.756489 67.939998 
L 260.284353 72.412134 
z
" style="fill: #eab67a; fill-opacity: 0.75"/>
   </g>
   <g id="PathCollection_67">
    <path d="M 263.702396 77.625821 
L 265.810582 77.625821 
L 265.810582 75.517636 
L 267.918767 75.517636 
L 267.918767 73.409451 
L 265.810582 73.409451 
L 265.810582 71.301266 
L 263.702396 71.301266 
L 263.702396 73.409451 
L 261.594211 73.409451 
L 261.594211 75.517636 
L 263.702396 75.517636 
z
" style="fill: #9e97b7; fill-opacity: 0.75"/>
   </g>
   <g id="PathCollection_68">
    <path d="M 261.594211 66.615511 
L 267.918767 66.615511 
L 267.918767 60.290955 
L 261.594211 60.290955 
z
" style="fill: #6e8fb2; fill-opacity: 0.75"/>
   </g>
   <g id="PathCollection_69">
    <path d="M 263.17535 35.779169 
L 261.594211 38.517782 
L 263.17535 41.256395 
L 266.337628 41.256395 
L 267.918767 38.517782 
L 266.337628 35.779169 
z
" style="fill: #ddbf9f; fill-opacity: 0.75"/>
   </g>
   <g id="PathCollection_70">
    <path d="M 267.918767 49.710103 
L 261.594211 46.547826 
L 261.594211 52.872381 
z
" style="fill: #d9a7be; fill-opacity: 0.75"/>
   </g>
   <g id="PathCollection_71">
    <path d="M 263.17535 77.900215 
L 264.756489 76.319076 
L 266.337628 77.900215 
L 267.918767 76.319076 
L 266.337628 74.737937 
L 267.918767 73.156798 
L 266.337628 71.575659 
L 264.756489 73.156798 
L 263.17535 71.575659 
L 261.594211 73.156798 
L 263.17535 74.737937 
L 261.594211 76.319076 
z
" style="fill: #9da6b9; fill-opacity: 0.75"/>
   </g>
   <g id="PathCollection_72">
    <path d="M 264.756489 28.462977 
C 265.595135 28.462977 266.399545 28.129779 266.992557 27.536767 
C 267.585569 26.943755 267.918767 26.139345 267.918767 25.300699 
C 267.918767 24.462053 267.585569 23.657643 266.992557 23.064631 
C 266.399545 22.471619 265.595135 22.138421 264.756489 22.138421 
C 263.917843 22.138421 263.113433 22.471619 262.520421 23.064631 
C 261.927409 23.657643 261.594211 24.462053 261.594211 25.300699 
C 261.594211 26.139345 261.927409 26.943755 262.520421 27.536767 
C 263.113433 28.129779 263.917843 28.462977 264.756489 28.462977 
z
" style="fill: #c16e71; fill-opacity: 0.75"/>
   </g>
   <g id="matplotlib.axis_17">
    <g id="xtick_9">
     <g id="line2d_25">
      <g>
       <use xlink:href="#mbb3a1a1c09" x="264.756489" y="103.370906" style="stroke: #000000; stroke-width: 0.8"/>
      </g>
     </g>
     <g id="text_26">
      <!-- PD-Walkway-Gait -->
      <g transform="translate(231.800727 182.011335) rotate(-60) scale(0.1 -0.1)">
       <defs>
        <path id="ArialMT-6c" d="M 409 0 
L 409 4581 
L 972 4581 
L 972 0 
L 409 0 
z
" transform="scale(0.015625)"/>
       </defs>
       <use xlink:href="#ArialMT-50"/>
       <use xlink:href="#ArialMT-44" x="66.699219"/>
       <use xlink:href="#ArialMT-2d" x="138.916016"/>
       <use xlink:href="#ArialMT-57" x="172.216797"/>
       <use xlink:href="#ArialMT-61" x="262.851562"/>
       <use xlink:href="#ArialMT-6c" x="318.466797"/>
       <use xlink:href="#ArialMT-6b" x="340.683594"/>
       <use xlink:href="#ArialMT-77" x="390.683594"/>
       <use xlink:href="#ArialMT-61" x="462.900391"/>
       <use xlink:href="#ArialMT-79" x="518.515625"/>
       <use xlink:href="#ArialMT-2d" x="568.515625"/>
       <use xlink:href="#ArialMT-47" x="601.816406"/>
       <use xlink:href="#ArialMT-61" x="679.599609"/>
       <use xlink:href="#ArialMT-69" x="735.214844"/>
       <use xlink:href="#ArialMT-74" x="757.431641"/>
      </g>
      <!-- (3-class) -->
      <g transform="translate(251.235588 170.029794) rotate(-60) scale(0.1 -0.1)">
       <defs>
        <path id="ArialMT-33" d="M 269 1209 
L 831 1284 
Q 928 806 1161 595 
Q 1394 384 1728 384 
Q 2125 384 2398 659 
Q 2672 934 2672 1341 
Q 2672 1728 2419 1979 
Q 2166 2231 1775 2231 
Q 1616 2231 1378 2169 
L 1441 2663 
Q 1497 2656 1531 2656 
Q 1891 2656 2178 2843 
Q 2466 3031 2466 3422 
Q 2466 3731 2256 3934 
Q 2047 4138 1716 4138 
Q 1388 4138 1169 3931 
Q 950 3725 888 3313 
L 325 3413 
Q 428 3978 793 4289 
Q 1159 4600 1703 4600 
Q 2078 4600 2393 4439 
Q 2709 4278 2876 4000 
Q 3044 3722 3044 3409 
Q 3044 3113 2884 2869 
Q 2725 2625 2413 2481 
Q 2819 2388 3044 2092 
Q 3269 1797 3269 1353 
Q 3269 753 2831 336 
Q 2394 -81 1725 -81 
Q 1122 -81 723 278 
Q 325 638 269 1209 
z
" transform="scale(0.015625)"/>
       </defs>
       <use xlink:href="#ArialMT-28"/>
       <use xlink:href="#ArialMT-33" x="33.300781"/>
       <use xlink:href="#ArialMT-2d" x="88.916016"/>
       <use xlink:href="#ArialMT-63" x="122.216797"/>
       <use xlink:href="#ArialMT-6c" x="172.216797"/>
       <use xlink:href="#ArialMT-61" x="194.433594"/>
       <use xlink:href="#ArialMT-73" x="250.048828"/>
       <use xlink:href="#ArialMT-73" x="300.048828"/>
       <use xlink:href="#ArialMT-29" x="350.048828"/>
      </g>
     </g>
    </g>
   </g>
   <g id="matplotlib.axis_18">
    <g id="ytick_17">
     <g id="line2d_26">
      <g>
       <use xlink:href="#m773707881d" x="259.997077" y="103.370906" style="stroke: #000000; stroke-width: 0.8"/>
      </g>
     </g>
     <g id="text_27">
      <!-- 0.6 -->
      <g transform="translate(241.597077 106.949813) scale(0.1 -0.1)">
       <use xlink:href="#ArialMT-30"/>
       <use xlink:href="#ArialMT-2e" x="55.615234"/>
       <use xlink:href="#ArialMT-36" x="83.398438"/>
      </g>
     </g>
    </g>
    <g id="ytick_18">
     <g id="line2d_27">
      <g>
       <use xlink:href="#m773707881d" x="259.997077" y="3.578906" style="stroke: #000000; stroke-width: 0.8"/>
      </g>
     </g>
     <g id="text_28">
      <!-- 0.8 -->
      <g transform="translate(241.597077 7.157812) scale(0.1 -0.1)">
       <use xlink:href="#ArialMT-30"/>
       <use xlink:href="#ArialMT-2e" x="55.615234"/>
       <use xlink:href="#ArialMT-38" x="83.398438"/>
      </g>
     </g>
    </g>
   </g>
   <g id="patch_27">
    <path d="M 259.997077 103.370906 
L 259.997077 3.578906 
" style="fill: none; stroke: #000000; stroke-width: 0.8; stroke-linejoin: miter; stroke-linecap: square"/>
   </g>
   <g id="patch_28">
    <path d="M 259.997077 103.370906 
L 269.515901 103.370906 
" style="fill: none; stroke: #000000; stroke-width: 0.8; stroke-linejoin: miter; stroke-linecap: square"/>
   </g>
  </g>
  <g id="axes_10">
   <g id="patch_29">
    <path d="M 288.553548 103.370906 
L 298.072371 103.370906 
L 298.072371 3.578906 
L 288.553548 3.578906 
z
" style="fill: #ffffff"/>
   </g>
   <g id="PathCollection_73">
    <path d="M 293.31296 45.557055 
L 290.150682 51.88161 
L 296.475237 51.88161 
z
" style="fill: #7da494; fill-opacity: 0.75"/>
   </g>
   <g id="PathCollection_74">
    <path d="M 293.31296 69.275696 
L 297.785096 64.803561 
L 293.31296 60.331425 
L 288.840824 64.803561 
z
" style="fill: #eab67a; fill-opacity: 0.75"/>
   </g>
   <g id="PathCollection_75">
    <path d="M 292.258867 76.202148 
L 294.367052 76.202148 
L 294.367052 74.093963 
L 296.475237 74.093963 
L 296.475237 71.985778 
L 294.367052 71.985778 
L 294.367052 69.877593 
L 292.258867 69.877593 
L 292.258867 71.985778 
L 290.150682 71.985778 
L 290.150682 74.093963 
L 292.258867 74.093963 
z
" style="fill: #9e97b7; fill-opacity: 0.75"/>
   </g>
   <g id="PathCollection_76">
    <path d="M 290.150682 73.109135 
L 296.475237 73.109135 
L 296.475237 66.78458 
L 290.150682 66.78458 
z
" style="fill: #6e8fb2; fill-opacity: 0.75"/>
   </g>
   <g id="PathCollection_77">
    <path d="M 291.731821 45.553297 
L 290.150682 48.291909 
L 291.731821 51.030522 
L 294.894098 51.030522 
L 296.475237 48.291909 
L 294.894098 45.553297 
z
" style="fill: #ddbf9f; fill-opacity: 0.75"/>
   </g>
   <g id="PathCollection_78">
    <path d="M 296.475237 67.147708 
L 290.150682 63.98543 
L 290.150682 70.309985 
z
" style="fill: #d9a7be; fill-opacity: 0.75"/>
   </g>
   <g id="PathCollection_79">
    <path d="M 291.731821 50.058396 
L 293.31296 48.477257 
L 294.894098 50.058396 
L 296.475237 48.477257 
L 294.894098 46.896119 
L 296.475237 45.31498 
L 294.894098 43.733841 
L 293.31296 45.31498 
L 291.731821 43.733841 
L 290.150682 45.31498 
L 291.731821 46.896119 
L 290.150682 48.477257 
z
" style="fill: #9da6b9; fill-opacity: 0.75"/>
   </g>
   <g id="PathCollection_80">
    <path d="M 293.31296 13.018609 
C 294.151605 13.018609 294.956015 12.685412 295.549028 12.0924 
C 296.14204 11.499387 296.475237 10.694977 296.475237 9.856332 
C 296.475237 9.017686 296.14204 8.213276 295.549028 7.620264 
C 294.956015 7.027251 294.151605 6.694054 293.31296 6.694054 
C 292.474314 6.694054 291.669904 7.027251 291.076892 7.620264 
C 290.483879 8.213276 290.150682 9.017686 290.150682 9.856332 
C 290.150682 10.694977 290.483879 11.499387 291.076892 12.0924 
C 291.669904 12.685412 292.474314 13.018609 293.31296 13.018609 
z
" style="fill: #c16e71; fill-opacity: 0.75"/>
   </g>
   <g id="matplotlib.axis_19">
    <g id="xtick_10">
     <g id="line2d_28">
      <g>
       <use xlink:href="#mbb3a1a1c09" x="293.31296" y="103.370906" style="stroke: #000000; stroke-width: 0.8"/>
      </g>
     </g>
     <g id="text_29">
      <!-- PD4T-Round-Gait -->
      <g transform="translate(259.774307 182.777181) rotate(-60) scale(0.1 -0.1)">
       <defs>
        <path id="ArialMT-34" d="M 2069 0 
L 2069 1097 
L 81 1097 
L 81 1613 
L 2172 4581 
L 2631 4581 
L 2631 1613 
L 3250 1613 
L 3250 1097 
L 2631 1097 
L 2631 0 
L 2069 0 
z
M 2069 1613 
L 2069 3678 
L 634 1613 
L 2069 1613 
z
" transform="scale(0.015625)"/>
        <path id="ArialMT-54" d="M 1659 0 
L 1659 4041 
L 150 4041 
L 150 4581 
L 3781 4581 
L 3781 4041 
L 2266 4041 
L 2266 0 
L 1659 0 
z
" transform="scale(0.015625)"/>
       </defs>
       <use xlink:href="#ArialMT-50"/>
       <use xlink:href="#ArialMT-44" x="66.699219"/>
       <use xlink:href="#ArialMT-34" x="138.916016"/>
       <use xlink:href="#ArialMT-54" x="194.53125"/>
       <use xlink:href="#ArialMT-2d" x="250.115234"/>
       <use xlink:href="#ArialMT-52" x="283.416016"/>
       <use xlink:href="#ArialMT-6f" x="355.632812"/>
       <use xlink:href="#ArialMT-75" x="411.248047"/>
       <use xlink:href="#ArialMT-6e" x="466.863281"/>
       <use xlink:href="#ArialMT-64" x="522.478516"/>
       <use xlink:href="#ArialMT-2d" x="578.09375"/>
       <use xlink:href="#ArialMT-47" x="611.394531"/>
       <use xlink:href="#ArialMT-61" x="689.177734"/>
       <use xlink:href="#ArialMT-69" x="744.792969"/>
       <use xlink:href="#ArialMT-74" x="767.009766"/>
      </g>
      <!-- (4-class) -->
      <g transform="translate(279.346353 170.323654) rotate(-60) scale(0.1 -0.1)">
       <use xlink:href="#ArialMT-28"/>
       <use xlink:href="#ArialMT-34" x="33.300781"/>
       <use xlink:href="#ArialMT-2d" x="88.916016"/>
       <use xlink:href="#ArialMT-63" x="122.216797"/>
       <use xlink:href="#ArialMT-6c" x="172.216797"/>
       <use xlink:href="#ArialMT-61" x="194.433594"/>
       <use xlink:href="#ArialMT-73" x="250.048828"/>
       <use xlink:href="#ArialMT-73" x="300.048828"/>
       <use xlink:href="#ArialMT-29" x="350.048828"/>
      </g>
     </g>
    </g>
   </g>
   <g id="matplotlib.axis_20">
    <g id="ytick_19">
     <g id="line2d_29">
      <g>
       <use xlink:href="#m773707881d" x="288.553548" y="103.370906" style="stroke: #000000; stroke-width: 0.8"/>
      </g>
     </g>
     <g id="text_30">
      <!-- 0.7 -->
      <g transform="translate(270.153548 106.949813) scale(0.1 -0.1)">
       <use xlink:href="#ArialMT-30"/>
       <use xlink:href="#ArialMT-2e" x="55.615234"/>
       <use xlink:href="#ArialMT-37" x="83.398438"/>
      </g>
     </g>
    </g>
    <g id="ytick_20">
     <g id="line2d_30">
      <g>
       <use xlink:href="#m773707881d" x="288.553548" y="3.578906" style="stroke: #000000; stroke-width: 0.8"/>
      </g>
     </g>
     <g id="text_31">
      <!-- 0.9 -->
      <g transform="translate(270.153548 7.157813) scale(0.1 -0.1)">
       <use xlink:href="#ArialMT-30"/>
       <use xlink:href="#ArialMT-2e" x="55.615234"/>
       <use xlink:href="#ArialMT-39" x="83.398438"/>
      </g>
     </g>
    </g>
   </g>
   <g id="patch_30">
    <path d="M 288.553548 103.370906 
L 288.553548 3.578906 
" style="fill: none; stroke: #000000; stroke-width: 0.8; stroke-linejoin: miter; stroke-linecap: square"/>
   </g>
   <g id="patch_31">
    <path d="M 288.553548 103.370906 
L 298.072371 103.370906 
" style="fill: none; stroke: #000000; stroke-width: 0.8; stroke-linejoin: miter; stroke-linecap: square"/>
   </g>
  </g>
  <g id="axes_11">
   <g id="patch_32">
    <path d="M 317.110018 103.370906 
L 326.628842 103.370906 
L 326.628842 3.578906 
L 317.110018 3.578906 
z
" style="fill: #ffffff"/>
   </g>
   <g id="PathCollection_81">
    <path d="M 321.86943 59.533627 
L 318.707152 65.858182 
L 325.031708 65.858182 
z
" style="fill: #7da494; fill-opacity: 0.75"/>
   </g>
   <g id="PathCollection_82">
    <path d="M 321.86943 34.846167 
L 326.341566 30.374031 
L 321.86943 25.901895 
L 317.397294 30.374031 
z
" style="fill: #eab67a; fill-opacity: 0.75"/>
   </g>
   <g id="PathCollection_83">
    <path d="M 320.815338 37.786018 
L 322.923523 37.786018 
L 322.923523 35.677833 
L 325.031708 35.677833 
L 325.031708 33.569648 
L 322.923523 33.569648 
L 322.923523 31.461463 
L 320.815338 31.461463 
L 320.815338 33.569648 
L 318.707152 33.569648 
L 318.707152 35.677833 
L 320.815338 35.677833 
z
" style="fill: #9e97b7; fill-opacity: 0.75"/>
   </g>
   <g id="PathCollection_84">
    <path d="M 318.707152 71.141531 
L 325.031708 71.141531 
L 325.031708 64.816976 
L 318.707152 64.816976 
z
" style="fill: #6e8fb2; fill-opacity: 0.75"/>
   </g>
   <g id="PathCollection_85">
    <path d="M 320.288291 16.894298 
L 318.707152 19.632911 
L 320.288291 22.371524 
L 323.450569 22.371524 
L 325.031708 19.632911 
L 323.450569 16.894298 
z
" style="fill: #ddbf9f; fill-opacity: 0.75"/>
   </g>
   <g id="PathCollection_86">
    <path d="M 325.031708 62.877408 
L 318.707152 59.715131 
L 318.707152 66.039686 
z
" style="fill: #d9a7be; fill-opacity: 0.75"/>
   </g>
   <g id="PathCollection_87">
    <path d="M 320.288291 48.751121 
L 321.86943 47.169982 
L 323.450569 48.751121 
L 325.031708 47.169982 
L 323.450569 45.588843 
L 325.031708 44.007705 
L 323.450569 42.426566 
L 321.86943 44.007705 
L 320.288291 42.426566 
L 318.707152 44.007705 
L 320.288291 45.588843 
L 318.707152 47.169982 
z
" style="fill: #9da6b9; fill-opacity: 0.75"/>
   </g>
   <g id="PathCollection_88">
    <path d="M 321.86943 11.121483 
C 322.708076 11.121483 323.512486 10.788285 324.105498 10.195273 
C 324.69851 9.602261 325.031708 8.797851 325.031708 7.959205 
C 325.031708 7.120559 324.69851 6.316149 324.105498 5.723137 
C 323.512486 5.130125 322.708076 4.796927 321.86943 4.796927 
C 321.030784 4.796927 320.226374 5.130125 319.633362 5.723137 
C 319.04035 6.316149 318.707152 7.120559 318.707152 7.959205 
C 318.707152 8.797851 319.04035 9.602261 319.633362 10.195273 
C 320.226374 10.788285 321.030784 11.121483 321.86943 11.121483 
z
" style="fill: #c16e71; fill-opacity: 0.75"/>
   </g>
   <g id="matplotlib.axis_21">
    <g id="xtick_11">
     <g id="line2d_31">
      <g>
       <use xlink:href="#mbb3a1a1c09" x="321.86943" y="103.370906" style="stroke: #000000; stroke-width: 0.8"/>
      </g>
     </g>
     <g id="text_32">
      <!-- PD4T-Leg-Agility -->
      <g transform="translate(290.554215 178.926075) rotate(-60) scale(0.1 -0.1)">
       <defs>
        <path id="ArialMT-67" d="M 319 -275 
L 866 -356 
Q 900 -609 1056 -725 
Q 1266 -881 1628 -881 
Q 2019 -881 2231 -725 
Q 2444 -569 2519 -288 
Q 2563 -116 2559 434 
Q 2191 0 1641 0 
Q 956 0 581 494 
Q 206 988 206 1678 
Q 206 2153 378 2554 
Q 550 2956 876 3175 
Q 1203 3394 1644 3394 
Q 2231 3394 2613 2919 
L 2613 3319 
L 3131 3319 
L 3131 450 
Q 3131 -325 2973 -648 
Q 2816 -972 2473 -1159 
Q 2131 -1347 1631 -1347 
Q 1038 -1347 672 -1080 
Q 306 -813 319 -275 
z
M 784 1719 
Q 784 1066 1043 766 
Q 1303 466 1694 466 
Q 2081 466 2343 764 
Q 2606 1063 2606 1700 
Q 2606 2309 2336 2618 
Q 2066 2928 1684 2928 
Q 1309 2928 1046 2623 
Q 784 2319 784 1719 
z
" transform="scale(0.015625)"/>
       </defs>
       <use xlink:href="#ArialMT-50"/>
       <use xlink:href="#ArialMT-44" x="66.699219"/>
       <use xlink:href="#ArialMT-34" x="138.916016"/>
       <use xlink:href="#ArialMT-54" x="194.53125"/>
       <use xlink:href="#ArialMT-2d" x="250.115234"/>
       <use xlink:href="#ArialMT-4c" x="283.416016"/>
       <use xlink:href="#ArialMT-65" x="339.03125"/>
       <use xlink:href="#ArialMT-67" x="394.646484"/>
       <use xlink:href="#ArialMT-2d" x="450.261719"/>
       <use xlink:href="#ArialMT-41" x="483.5625"/>
       <use xlink:href="#ArialMT-67" x="550.261719"/>
       <use xlink:href="#ArialMT-69" x="605.876953"/>
       <use xlink:href="#ArialMT-6c" x="628.09375"/>
       <use xlink:href="#ArialMT-69" x="650.310547"/>
       <use xlink:href="#ArialMT-74" x="672.527344"/>
       <use xlink:href="#ArialMT-79" x="700.310547"/>
      </g>
      <!-- (4-class) -->
      <g transform="translate(309.116029 168.456695) rotate(-60) scale(0.1 -0.1)">
       <use xlink:href="#ArialMT-28"/>
       <use xlink:href="#ArialMT-34" x="33.300781"/>
       <use xlink:href="#ArialMT-2d" x="88.916016"/>
       <use xlink:href="#ArialMT-63" x="122.216797"/>
       <use xlink:href="#ArialMT-6c" x="172.216797"/>
       <use xlink:href="#ArialMT-61" x="194.433594"/>
       <use xlink:href="#ArialMT-73" x="250.048828"/>
       <use xlink:href="#ArialMT-73" x="300.048828"/>
       <use xlink:href="#ArialMT-29" x="350.048828"/>
      </g>
     </g>
    </g>
   </g>
   <g id="matplotlib.axis_22">
    <g id="ytick_21">
     <g id="line2d_32">
      <g>
       <use xlink:href="#m773707881d" x="317.110018" y="103.370906" style="stroke: #000000; stroke-width: 0.8"/>
      </g>
     </g>
     <g id="text_33">
      <!-- 0.5 -->
      <g transform="translate(298.710018 106.949813) scale(0.1 -0.1)">
       <use xlink:href="#ArialMT-30"/>
       <use xlink:href="#ArialMT-2e" x="55.615234"/>
       <use xlink:href="#ArialMT-35" x="83.398438"/>
      </g>
     </g>
    </g>
    <g id="ytick_22">
     <g id="line2d_33">
      <g>
       <use xlink:href="#m773707881d" x="317.110018" y="3.578906" style="stroke: #000000; stroke-width: 0.8"/>
      </g>
     </g>
     <g id="text_34">
      <!-- 0.8 -->
      <g transform="translate(298.710018 7.157812) scale(0.1 -0.1)">
       <use xlink:href="#ArialMT-30"/>
       <use xlink:href="#ArialMT-2e" x="55.615234"/>
       <use xlink:href="#ArialMT-38" x="83.398438"/>
      </g>
     </g>
    </g>
   </g>
   <g id="patch_33">
    <path d="M 317.110018 103.370906 
L 317.110018 3.578906 
" style="fill: none; stroke: #000000; stroke-width: 0.8; stroke-linejoin: miter; stroke-linecap: square"/>
   </g>
   <g id="patch_34">
    <path d="M 317.110018 103.370906 
L 326.628842 103.370906 
" style="fill: none; stroke: #000000; stroke-width: 0.8; stroke-linejoin: miter; stroke-linecap: square"/>
   </g>
  </g>
  <g id="axes_12">
   <g id="patch_35">
    <path d="M 345.666489 103.370906 
L 355.185313 103.370906 
L 355.185313 3.578906 
L 345.666489 3.578906 
z
" style="fill: #ffffff"/>
   </g>
   <g id="PathCollection_89">
    <path d="M 350.425901 6.750107 
C 351.264547 6.750107 352.068957 6.41691 352.661969 5.823898 
C 353.254981 5.230886 353.588178 4.426476 353.588178 3.58783 
C 353.588178 2.749184 353.254981 1.944774 352.661969 1.351762 
C 352.068957 0.75875 351.264547 0.425552 350.425901 0.425552 
C 349.587255 0.425552 348.782845 0.75875 348.189833 1.351762 
C 347.596821 1.944774 347.263623 2.749184 347.263623 3.58783 
C 347.263623 4.426476 347.596821 5.230886 348.189833 5.823898 
C 348.782845 6.41691 349.587255 6.750107 350.425901 6.750107 
z
" style="fill: #c16e71"/>
   </g>
   <g id="PathCollection_90">
    <defs>
     <path id="m802fb2d71d" d="M 0 -3.162278 
L -3.007505 -0.977198 
L -1.85874 2.558336 
L 1.85874 2.558336 
L 3.007505 -0.977198 
z
" style="stroke: #8a8a8a"/>
    </defs>
    <g>
     <use xlink:href="#m802fb2d71d" x="350.425901" y="56.328986" style="fill: #8a8a8a; stroke: #8a8a8a"/>
    </g>
   </g>
   <g id="matplotlib.axis_23">
    <g id="xtick_12">
     <g id="line2d_34">
      <g>
       <use xlink:href="#mbb3a1a1c09" x="350.425901" y="103.370906" style="stroke: #000000; stroke-width: 0.8"/>
      </g>
     </g>
     <g id="text_35">
      <!-- Mean -->
      <g transform="translate(344.118498 135.611273) rotate(-60) scale(0.1 -0.1)">
       <defs>
        <path id="ArialMT-4d" d="M 475 0 
L 475 4581 
L 1388 4581 
L 2472 1338 
Q 2622 884 2691 659 
Q 2769 909 2934 1394 
L 4031 4581 
L 4847 4581 
L 4847 0 
L 4263 0 
L 4263 3834 
L 2931 0 
L 2384 0 
L 1059 3900 
L 1059 0 
L 475 0 
z
" transform="scale(0.015625)"/>
       </defs>
       <use xlink:href="#ArialMT-4d"/>
       <use xlink:href="#ArialMT-65" x="83.300781"/>
       <use xlink:href="#ArialMT-61" x="138.916016"/>
       <use xlink:href="#ArialMT-6e" x="194.53125"/>
      </g>
     </g>
    </g>
   </g>
   <g id="matplotlib.axis_24">
    <g id="ytick_23">
     <g id="line2d_35">
      <g>
       <use xlink:href="#m773707881d" x="345.666489" y="103.370906" style="stroke: #000000; stroke-width: 0.8"/>
      </g>
     </g>
     <g id="text_36">
      <!-- 0.7 -->
      <g transform="translate(327.266489 106.949813) scale(0.1 -0.1)">
       <use xlink:href="#ArialMT-30"/>
       <use xlink:href="#ArialMT-2e" x="55.615234"/>
       <use xlink:href="#ArialMT-37" x="83.398438"/>
      </g>
     </g>
    </g>
    <g id="ytick_24">
     <g id="line2d_36">
      <g>
       <use xlink:href="#m773707881d" x="345.666489" y="3.578906" style="stroke: #000000; stroke-width: 0.8"/>
      </g>
     </g>
     <g id="text_37">
      <!-- 0.9 -->
      <g transform="translate(327.266489 7.157813) scale(0.1 -0.1)">
       <use xlink:href="#ArialMT-30"/>
       <use xlink:href="#ArialMT-2e" x="55.615234"/>
       <use xlink:href="#ArialMT-39" x="83.398438"/>
      </g>
     </g>
    </g>
   </g>
   <g id="line2d_37">
    <path d="M 354.709371 3.58783 
L 354.709371 56.328986 
" style="fill: none; stroke: #000000; stroke-width: 0.8; stroke-linecap: square"/>
   </g>
   <g id="patch_36">
    <path d="M 345.666489 103.370906 
L 345.666489 3.578906 
" style="fill: none; stroke: #000000; stroke-width: 0.8; stroke-linejoin: miter; stroke-linecap: square"/>
   </g>
   <g id="patch_37">
    <path d="M 345.666489 103.370906 
L 355.185313 103.370906 
" style="fill: none; stroke: #000000; stroke-width: 0.8; stroke-linejoin: miter; stroke-linecap: square"/>
   </g>
   <g id="text_38">
    <!-- $P$ &lt; 0.0001 -->
    <g transform="translate(355.661254 32.543564) scale(0.1 -0.1)">
     <defs>
      <path id="DejaVuSans-Oblique-50" d="M 1081 4666 
L 2541 4666 
Q 3178 4666 3512 4369 
Q 3847 4072 3847 3500 
Q 3847 2731 3353 2303 
Q 2859 1875 1966 1875 
L 1172 1875 
L 806 0 
L 172 0 
L 1081 4666 
z
M 1613 4147 
L 1275 2394 
L 2069 2394 
Q 2606 2394 2893 2669 
Q 3181 2944 3181 3456 
Q 3181 3784 2986 3965 
Q 2791 4147 2438 4147 
L 1613 4147 
z
" transform="scale(0.015625)"/>
      <path id="ArialMT-20" transform="scale(0.015625)"/>
      <path id="ArialMT-3c" d="M 350 2003 
L 350 2528 
L 3384 3809 
L 3384 3250 
L 978 2263 
L 3384 1266 
L 3384 706 
L 350 2003 
z
" transform="scale(0.015625)"/>
     </defs>
     <use xlink:href="#DejaVuSans-Oblique-50" transform="translate(0 0.09375)"/>
     <use xlink:href="#ArialMT-20" transform="translate(60.302734 0.09375)"/>
     <use xlink:href="#ArialMT-3c" transform="translate(88.085938 0.09375)"/>
     <use xlink:href="#ArialMT-20" transform="translate(146.484375 0.09375)"/>
     <use xlink:href="#ArialMT-30" transform="translate(174.267578 0.09375)"/>
     <use xlink:href="#ArialMT-2e" transform="translate(229.882812 0.09375)"/>
     <use xlink:href="#ArialMT-30" transform="translate(257.666016 0.09375)"/>
     <use xlink:href="#ArialMT-30" transform="translate(313.28125 0.09375)"/>
     <use xlink:href="#ArialMT-30" transform="translate(368.896484 0.09375)"/>
     <use xlink:href="#ArialMT-31" transform="translate(424.511719 0.09375)"/>
    </g>
   </g>
  </g>
 </g>
</svg>
