<?xml version="1.0" encoding="utf-8" standalone="no"?>
<!DOCTYPE svg PUBLIC "-//W3C//DTD SVG 1.1//EN"
  "http://www.w3.org/Graphics/SVG/1.1/DTD/svg11.dtd">
<svg xmlns:xlink="http://www.w3.org/1999/xlink" width="403.024498pt" height="202.181469pt" viewBox="0 0 403.024498 202.181469" xmlns="http://www.w3.org/2000/svg" version="1.1">
 <metadata>
  <rdf:RDF xmlns:dc="http://purl.org/dc/elements/1.1/" xmlns:cc="http://creativecommons.org/ns#" xmlns:rdf="http://www.w3.org/1999/02/22-rdf-syntax-ns#">
   <cc:Work>
    <dc:type rdf:resource="http://purl.org/dc/dcmitype/StillImage"/>
    <dc:date>2026-05-16T21:50:59.000529</dc:date>
    <dc:format>image/svg+xml</dc:format>
    <dc:creator>
     <cc:Agent>
      <dc:title>Matplotlib v3.9.2, https://matplotlib.org/</dc:title>
     </cc:Agent>
    </dc:creator>
   </cc:Work>
  </rdf:RDF>
 </metadata>
 <defs>
  <style type="text/css">*{stroke-linejoin: round; stroke-linecap: butt}</style>
 </defs>
 <g id="figure_1">
  <g id="patch_1">
   <path d="M 0 202.181469 
L 403.024498 202.181469 
L 403.024498 0 
L 0 0 
z
" style="fill: #ffffff"/>
  </g>
  <g id="axes_1">
   <g id="patch_2">
    <path d="M 30.808557 103.370906 
L 40.327381 103.370906 
L 40.327381 3.578906 
L 30.808557 3.578906 
z
" style="fill: #ffffff"/>
   </g>
   <g id="PathCollection_1">
    <path d="M 35.567969 92.007145 
L 32.405691 98.3317 
L 38.730246 98.3317 
z
" style="fill: #7da494; fill-opacity: 0.75"/>
   </g>
   <g id="PathCollection_2">
    <path d="M 35.567969 58.97451 
L 40.040105 54.502374 
L 35.567969 50.030238 
L 31.095833 54.502374 
z
" style="fill: #eab67a; fill-opacity: 0.75"/>
   </g>
   <g id="PathCollection_3">
    <path d="M 34.513876 54.603112 
L 36.622061 54.603112 
L 36.622061 52.494927 
L 38.730246 52.494927 
L 38.730246 50.386742 
L 36.622061 50.386742 
L 36.622061 48.278557 
L 34.513876 48.278557 
L 34.513876 50.386742 
L 32.405691 50.386742 
L 32.405691 52.494927 
L 34.513876 52.494927 
z
" style="fill: #9e97b7; fill-opacity: 0.75"/>
   </g>
   <g id="PathCollection_4">
    <path d="M 32.405691 74.564963 
L 38.730246 74.564963 
L 38.730246 68.240407 
L 32.405691 68.240407 
z
" style="fill: #6e8fb2; fill-opacity: 0.75"/>
   </g>
   <g id="PathCollection_5">
    <path d="M 33.98683 15.515982 
L 32.405691 18.254595 
L 33.98683 20.993208 
L 37.149108 20.993208 
L 38.730246 18.254595 
L 37.149108 15.515982 
z
" style="fill: #ddbf9f; fill-opacity: 0.75"/>
   </g>
   <g id="PathCollection_6">
    <path d="M 38.730246 34.871848 
L 32.405691 31.70957 
L 32.405691 38.034126 
z
" style="fill: #d9a7be; fill-opacity: 0.75"/>
   </g>
   <g id="PathCollection_7">
    <path d="M 33.98683 82.207886 
L 35.567969 80.626747 
L 37.149108 82.207886 
L 38.730246 80.626747 
L 37.149108 79.045608 
L 38.730246 77.464469 
L 37.149108 75.883331 
L 35.567969 77.464469 
L 33.98683 75.883331 
L 32.405691 77.464469 
L 33.98683 79.045608 
L 32.405691 80.626747 
z
" style="fill: #9da6b9; fill-opacity: 0.75"/>
   </g>
   <g id="PathCollection_8">
    <path d="M 35.567969 10.816934 
C 36.406615 10.816934 37.211025 10.483736 37.804037 9.890724 
C 38.397049 9.297712 38.730246 8.493302 38.730246 7.654656 
C 38.730246 6.81601 38.397049 6.0116 37.804037 5.418588 
C 37.211025 4.825576 36.406615 4.492379 35.567969 4.492379 
C 34.729323 4.492379 33.924913 4.825576 33.331901 5.418588 
C 32.738889 6.0116 32.405691 6.81601 32.405691 7.654656 
C 32.405691 8.493302 32.738889 9.297712 33.331901 9.890724 
C 33.924913 10.483736 34.729323 10.816934 35.567969 10.816934 
z
" style="fill: #c16e71; fill-opacity: 0.75"/>
   </g>
   <g id="matplotlib.axis_1">
    <g id="xtick_1">
     <g id="line2d_1">
      <defs>
       <path id="mf4d2c30471" d="M 0 0 
L 0 3.5 
" style="stroke: #000000; stroke-width: 0.8"/>
      </defs>
      <g>
       <use xlink:href="#mf4d2c30471" x="35.567969" y="103.370906" style="stroke: #000000; stroke-width: 0.8"/>
      </g>
     </g>
     <g id="text_1">
      <!-- SSBD-Line-Gait -->
      <g transform="translate(6.198847 175.555341) rotate(-60) scale(0.1 -0.1)">
       <defs>
        <path id="ArialMT-53" d="M 288 1472 
L 859 1522 
Q 900 1178 1048 958 
Q 1197 738 1509 602 
Q 1822 466 2213 466 
Q 2559 466 2825 569 
Q 3091 672 3220 851 
Q 3350 1031 3350 1244 
Q 3350 1459 3225 1620 
Q 3100 1781 2813 1891 
Q 2628 1963 1997 2114 
Q 1366 2266 1113 2400 
Q 784 2572 623 2826 
Q 463 3081 463 3397 
Q 463 3744 659 4045 
Q 856 4347 1234 4503 
Q 1613 4659 2075 4659 
Q 2584 4659 2973 4495 
Q 3363 4331 3572 4012 
Q 3781 3694 3797 3291 
L 3216 3247 
Q 3169 3681 2898 3903 
Q 2628 4125 2100 4125 
Q 1550 4125 1298 3923 
Q 1047 3722 1047 3438 
Q 1047 3191 1225 3031 
Q 1400 2872 2139 2705 
Q 2878 2538 3153 2413 
Q 3553 2228 3743 1945 
Q 3934 1663 3934 1294 
Q 3934 928 3725 604 
Q 3516 281 3123 101 
Q 2731 -78 2241 -78 
Q 1619 -78 1198 103 
Q 778 284 539 648 
Q 300 1013 288 1472 
z
" transform="scale(0.015625)"/>
        <path id="ArialMT-42" d="M 469 0 
L 469 4581 
L 2188 4581 
Q 2713 4581 3030 4442 
Q 3347 4303 3526 4014 
Q 3706 3725 3706 3409 
Q 3706 3116 3547 2856 
Q 3388 2597 3066 2438 
Q 3481 2316 3704 2022 
Q 3928 1728 3928 1328 
Q 3928 1006 3792 729 
Q 3656 453 3456 303 
Q 3256 153 2954 76 
Q 2653 0 2216 0 
L 469 0 
z
M 1075 2656 
L 2066 2656 
Q 2469 2656 2644 2709 
Q 2875 2778 2992 2937 
Q 3109 3097 3109 3338 
Q 3109 3566 3000 3739 
Q 2891 3913 2687 3977 
Q 2484 4041 1991 4041 
L 1075 4041 
L 1075 2656 
z
M 1075 541 
L 2216 541 
Q 2509 541 2628 563 
Q 2838 600 2978 687 
Q 3119 775 3209 942 
Q 3300 1109 3300 1328 
Q 3300 1584 3169 1773 
Q 3038 1963 2805 2039 
Q 2572 2116 2134 2116 
L 1075 2116 
L 1075 541 
z
" transform="scale(0.015625)"/>
        <path id="ArialMT-44" d="M 494 0 
L 494 4581 
L 2072 4581 
Q 2606 4581 2888 4516 
Q 3281 4425 3559 4188 
Q 3922 3881 4101 3404 
Q 4281 2928 4281 2316 
Q 4281 1794 4159 1391 
Q 4038 988 3847 723 
Q 3656 459 3429 307 
Q 3203 156 2883 78 
Q 2563 0 2147 0 
L 494 0 
z
M 1100 541 
L 2078 541 
Q 2531 541 2789 625 
Q 3047 709 3200 863 
Q 3416 1078 3536 1442 
Q 3656 1806 3656 2325 
Q 3656 3044 3420 3430 
Q 3184 3816 2847 3947 
Q 2603 4041 2063 4041 
L 1100 4041 
L 1100 541 
z
" transform="scale(0.015625)"/>
        <path id="ArialMT-2d" d="M 203 1375 
L 203 1941 
L 1931 1941 
L 1931 1375 
L 203 1375 
z
" transform="scale(0.015625)"/>
        <path id="ArialMT-4c" d="M 469 0 
L 469 4581 
L 1075 4581 
L 1075 541 
L 3331 541 
L 3331 0 
L 469 0 
z
" transform="scale(0.015625)"/>
        <path id="ArialMT-69" d="M 425 3934 
L 425 4581 
L 988 4581 
L 988 3934 
L 425 3934 
z
M 425 0 
L 425 3319 
L 988 3319 
L 988 0 
L 425 0 
z
" transform="scale(0.015625)"/>
        <path id="ArialMT-6e" d="M 422 0 
L 422 3319 
L 928 3319 
L 928 2847 
Q 1294 3394 1984 3394 
Q 2284 3394 2536 3286 
Q 2788 3178 2913 3003 
Q 3038 2828 3088 2588 
Q 3119 2431 3119 2041 
L 3119 0 
L 2556 0 
L 2556 2019 
Q 2556 2363 2490 2533 
Q 2425 2703 2258 2804 
Q 2091 2906 1866 2906 
Q 1506 2906 1245 2678 
Q 984 2450 984 1813 
L 984 0 
L 422 0 
z
" transform="scale(0.015625)"/>
        <path id="ArialMT-65" d="M 2694 1069 
L 3275 997 
Q 3138 488 2766 206 
Q 2394 -75 1816 -75 
Q 1088 -75 661 373 
Q 234 822 234 1631 
Q 234 2469 665 2931 
Q 1097 3394 1784 3394 
Q 2450 3394 2872 2941 
Q 3294 2488 3294 1666 
Q 3294 1616 3291 1516 
L 816 1516 
Q 847 969 1125 678 
Q 1403 388 1819 388 
Q 2128 388 2347 550 
Q 2566 713 2694 1069 
z
M 847 1978 
L 2700 1978 
Q 2663 2397 2488 2606 
Q 2219 2931 1791 2931 
Q 1403 2931 1139 2672 
Q 875 2413 847 1978 
z
" transform="scale(0.015625)"/>
        <path id="ArialMT-47" d="M 2638 1797 
L 2638 2334 
L 4578 2338 
L 4578 638 
Q 4131 281 3656 101 
Q 3181 -78 2681 -78 
Q 2006 -78 1454 211 
Q 903 500 622 1047 
Q 341 1594 341 2269 
Q 341 2938 620 3517 
Q 900 4097 1425 4378 
Q 1950 4659 2634 4659 
Q 3131 4659 3532 4498 
Q 3934 4338 4162 4050 
Q 4391 3763 4509 3300 
L 3963 3150 
Q 3859 3500 3706 3700 
Q 3553 3900 3268 4020 
Q 2984 4141 2638 4141 
Q 2222 4141 1919 4014 
Q 1616 3888 1430 3681 
Q 1244 3475 1141 3228 
Q 966 2803 966 2306 
Q 966 1694 1177 1281 
Q 1388 869 1791 669 
Q 2194 469 2647 469 
Q 3041 469 3416 620 
Q 3791 772 3984 944 
L 3984 1797 
L 2638 1797 
z
" transform="scale(0.015625)"/>
        <path id="ArialMT-61" d="M 2588 409 
Q 2275 144 1986 34 
Q 1697 -75 1366 -75 
Q 819 -75 525 192 
Q 231 459 231 875 
Q 231 1119 342 1320 
Q 453 1522 633 1644 
Q 813 1766 1038 1828 
Q 1203 1872 1538 1913 
Q 2219 1994 2541 2106 
Q 2544 2222 2544 2253 
Q 2544 2597 2384 2738 
Q 2169 2928 1744 2928 
Q 1347 2928 1158 2789 
Q 969 2650 878 2297 
L 328 2372 
Q 403 2725 575 2942 
Q 747 3159 1072 3276 
Q 1397 3394 1825 3394 
Q 2250 3394 2515 3294 
Q 2781 3194 2906 3042 
Q 3031 2891 3081 2659 
Q 3109 2516 3109 2141 
L 3109 1391 
Q 3109 606 3145 398 
Q 3181 191 3288 0 
L 2700 0 
Q 2613 175 2588 409 
z
M 2541 1666 
Q 2234 1541 1622 1453 
Q 1275 1403 1131 1340 
Q 988 1278 909 1158 
Q 831 1038 831 891 
Q 831 666 1001 516 
Q 1172 366 1500 366 
Q 1825 366 2078 508 
Q 2331 650 2450 897 
Q 2541 1088 2541 1459 
L 2541 1666 
z
" transform="scale(0.015625)"/>
        <path id="ArialMT-74" d="M 1650 503 
L 1731 6 
Q 1494 -44 1306 -44 
Q 1000 -44 831 53 
Q 663 150 594 308 
Q 525 466 525 972 
L 525 2881 
L 113 2881 
L 113 3319 
L 525 3319 
L 525 4141 
L 1084 4478 
L 1084 3319 
L 1650 3319 
L 1650 2881 
L 1084 2881 
L 1084 941 
Q 1084 700 1114 631 
Q 1144 563 1211 522 
Q 1278 481 1403 481 
Q 1497 481 1650 503 
z
" transform="scale(0.015625)"/>
       </defs>
       <use xlink:href="#ArialMT-53"/>
       <use xlink:href="#ArialMT-53" x="66.699219"/>
       <use xlink:href="#ArialMT-42" x="133.398438"/>
       <use xlink:href="#ArialMT-44" x="200.097656"/>
       <use xlink:href="#ArialMT-2d" x="272.314453"/>
       <use xlink:href="#ArialMT-4c" x="305.615234"/>
       <use xlink:href="#ArialMT-69" x="361.230469"/>
       <use xlink:href="#ArialMT-6e" x="383.447266"/>
       <use xlink:href="#ArialMT-65" x="439.0625"/>
       <use xlink:href="#ArialMT-2d" x="494.677734"/>
       <use xlink:href="#ArialMT-47" x="527.978516"/>
       <use xlink:href="#ArialMT-61" x="605.761719"/>
       <use xlink:href="#ArialMT-69" x="661.376953"/>
       <use xlink:href="#ArialMT-74" x="683.59375"/>
      </g>
      <!-- (binary) -->
      <g transform="translate(24.795893 164.790564) rotate(-60) scale(0.1 -0.1)">
       <defs>
        <path id="ArialMT-28" d="M 1497 -1347 
Q 1031 -759 709 28 
Q 388 816 388 1659 
Q 388 2403 628 3084 
Q 909 3875 1497 4659 
L 1900 4659 
Q 1522 4009 1400 3731 
Q 1209 3300 1100 2831 
Q 966 2247 966 1656 
Q 966 153 1900 -1347 
L 1497 -1347 
z
" transform="scale(0.015625)"/>
        <path id="ArialMT-62" d="M 941 0 
L 419 0 
L 419 4581 
L 981 4581 
L 981 2947 
Q 1338 3394 1891 3394 
Q 2197 3394 2470 3270 
Q 2744 3147 2920 2923 
Q 3097 2700 3197 2384 
Q 3297 2069 3297 1709 
Q 3297 856 2875 390 
Q 2453 -75 1863 -75 
Q 1275 -75 941 416 
L 941 0 
z
M 934 1684 
Q 934 1088 1097 822 
Q 1363 388 1816 388 
Q 2184 388 2453 708 
Q 2722 1028 2722 1663 
Q 2722 2313 2464 2622 
Q 2206 2931 1841 2931 
Q 1472 2931 1203 2611 
Q 934 2291 934 1684 
z
" transform="scale(0.015625)"/>
        <path id="ArialMT-72" d="M 416 0 
L 416 3319 
L 922 3319 
L 922 2816 
Q 1116 3169 1280 3281 
Q 1444 3394 1641 3394 
Q 1925 3394 2219 3213 
L 2025 2691 
Q 1819 2813 1613 2813 
Q 1428 2813 1281 2702 
Q 1134 2591 1072 2394 
Q 978 2094 978 1738 
L 978 0 
L 416 0 
z
" transform="scale(0.015625)"/>
        <path id="ArialMT-79" d="M 397 -1278 
L 334 -750 
Q 519 -800 656 -800 
Q 844 -800 956 -737 
Q 1069 -675 1141 -563 
Q 1194 -478 1313 -144 
Q 1328 -97 1363 -6 
L 103 3319 
L 709 3319 
L 1400 1397 
Q 1534 1031 1641 628 
Q 1738 1016 1872 1384 
L 2581 3319 
L 3144 3319 
L 1881 -56 
Q 1678 -603 1566 -809 
Q 1416 -1088 1222 -1217 
Q 1028 -1347 759 -1347 
Q 597 -1347 397 -1278 
z
" transform="scale(0.015625)"/>
        <path id="ArialMT-29" d="M 791 -1347 
L 388 -1347 
Q 1322 153 1322 1656 
Q 1322 2244 1188 2822 
Q 1081 3291 891 3722 
Q 769 4003 388 4659 
L 791 4659 
Q 1378 3875 1659 3084 
Q 1900 2403 1900 1659 
Q 1900 816 1576 28 
Q 1253 -759 791 -1347 
z
" transform="scale(0.015625)"/>
       </defs>
       <use xlink:href="#ArialMT-28"/>
       <use xlink:href="#ArialMT-62" x="33.300781"/>
       <use xlink:href="#ArialMT-69" x="88.916016"/>
       <use xlink:href="#ArialMT-6e" x="111.132812"/>
       <use xlink:href="#ArialMT-61" x="166.748047"/>
       <use xlink:href="#ArialMT-72" x="222.363281"/>
       <use xlink:href="#ArialMT-79" x="255.664062"/>
       <use xlink:href="#ArialMT-29" x="305.664062"/>
      </g>
     </g>
    </g>
   </g>
   <g id="matplotlib.axis_2">
    <g id="ytick_1">
     <g id="line2d_2">
      <defs>
       <path id="m40da29425b" d="M 0 0 
L -3.5 0 
" style="stroke: #000000; stroke-width: 0.8"/>
      </defs>
      <g>
       <use xlink:href="#m40da29425b" x="30.808557" y="103.370906" style="stroke: #000000; stroke-width: 0.8"/>
      </g>
     </g>
     <g id="text_2">
      <!-- 81 -->
      <g transform="translate(15.186682 106.949813) scale(0.1 -0.1)">
       <defs>
        <path id="ArialMT-38" d="M 1131 2484 
Q 781 2613 612 2850 
Q 444 3088 444 3419 
Q 444 3919 803 4259 
Q 1163 4600 1759 4600 
Q 2359 4600 2725 4251 
Q 3091 3903 3091 3403 
Q 3091 3084 2923 2848 
Q 2756 2613 2416 2484 
Q 2838 2347 3058 2040 
Q 3278 1734 3278 1309 
Q 3278 722 2862 322 
Q 2447 -78 1769 -78 
Q 1091 -78 675 323 
Q 259 725 259 1325 
Q 259 1772 486 2073 
Q 713 2375 1131 2484 
z
M 1019 3438 
Q 1019 3113 1228 2906 
Q 1438 2700 1772 2700 
Q 2097 2700 2305 2904 
Q 2513 3109 2513 3406 
Q 2513 3716 2298 3927 
Q 2084 4138 1766 4138 
Q 1444 4138 1231 3931 
Q 1019 3725 1019 3438 
z
M 838 1322 
Q 838 1081 952 856 
Q 1066 631 1291 507 
Q 1516 384 1775 384 
Q 2178 384 2440 643 
Q 2703 903 2703 1303 
Q 2703 1709 2433 1975 
Q 2163 2241 1756 2241 
Q 1359 2241 1098 1978 
Q 838 1716 838 1322 
z
" transform="scale(0.015625)"/>
        <path id="ArialMT-31" d="M 2384 0 
L 1822 0 
L 1822 3584 
Q 1619 3391 1289 3197 
Q 959 3003 697 2906 
L 697 3450 
Q 1169 3672 1522 3987 
Q 1875 4303 2022 4600 
L 2384 4600 
L 2384 0 
z
" transform="scale(0.015625)"/>
       </defs>
       <use xlink:href="#ArialMT-38"/>
       <use xlink:href="#ArialMT-31" x="55.615234"/>
      </g>
     </g>
    </g>
    <g id="ytick_2">
     <g id="line2d_3">
      <g>
       <use xlink:href="#m40da29425b" x="30.808557" y="3.578906" style="stroke: #000000; stroke-width: 0.8"/>
      </g>
     </g>
     <g id="text_3">
      <!-- 99 -->
      <g transform="translate(15.186682 7.157813) scale(0.1 -0.1)">
       <defs>
        <path id="ArialMT-39" d="M 350 1059 
L 891 1109 
Q 959 728 1153 556 
Q 1347 384 1650 384 
Q 1909 384 2104 503 
Q 2300 622 2425 820 
Q 2550 1019 2634 1356 
Q 2719 1694 2719 2044 
Q 2719 2081 2716 2156 
Q 2547 1888 2255 1720 
Q 1963 1553 1622 1553 
Q 1053 1553 659 1965 
Q 266 2378 266 3053 
Q 266 3750 677 4175 
Q 1088 4600 1706 4600 
Q 2153 4600 2523 4359 
Q 2894 4119 3086 3673 
Q 3278 3228 3278 2384 
Q 3278 1506 3087 986 
Q 2897 466 2520 194 
Q 2144 -78 1638 -78 
Q 1100 -78 759 220 
Q 419 519 350 1059 
z
M 2653 3081 
Q 2653 3566 2395 3850 
Q 2138 4134 1775 4134 
Q 1400 4134 1122 3828 
Q 844 3522 844 3034 
Q 844 2597 1108 2323 
Q 1372 2050 1759 2050 
Q 2150 2050 2401 2323 
Q 2653 2597 2653 3081 
z
" transform="scale(0.015625)"/>
       </defs>
       <use xlink:href="#ArialMT-39"/>
       <use xlink:href="#ArialMT-39" x="55.615234"/>
      </g>
     </g>
    </g>
    <g id="text_4">
     <!-- F1 score (%) -->
     <g transform="translate(9.081994 82.088969) rotate(-90) scale(0.1 -0.1)">
      <defs>
       <path id="ArialMT-46" d="M 525 0 
L 525 4581 
L 3616 4581 
L 3616 4041 
L 1131 4041 
L 1131 2622 
L 3281 2622 
L 3281 2081 
L 1131 2081 
L 1131 0 
L 525 0 
z
" transform="scale(0.015625)"/>
       <path id="ArialMT-20" transform="scale(0.015625)"/>
       <path id="ArialMT-73" d="M 197 991 
L 753 1078 
Q 800 744 1014 566 
Q 1228 388 1613 388 
Q 2000 388 2187 545 
Q 2375 703 2375 916 
Q 2375 1106 2209 1216 
Q 2094 1291 1634 1406 
Q 1016 1563 777 1677 
Q 538 1791 414 1992 
Q 291 2194 291 2438 
Q 291 2659 392 2848 
Q 494 3038 669 3163 
Q 800 3259 1026 3326 
Q 1253 3394 1513 3394 
Q 1903 3394 2198 3281 
Q 2494 3169 2634 2976 
Q 2775 2784 2828 2463 
L 2278 2388 
Q 2241 2644 2061 2787 
Q 1881 2931 1553 2931 
Q 1166 2931 1000 2803 
Q 834 2675 834 2503 
Q 834 2394 903 2306 
Q 972 2216 1119 2156 
Q 1203 2125 1616 2013 
Q 2213 1853 2448 1751 
Q 2684 1650 2818 1456 
Q 2953 1263 2953 975 
Q 2953 694 2789 445 
Q 2625 197 2315 61 
Q 2006 -75 1616 -75 
Q 969 -75 630 194 
Q 291 463 197 991 
z
" transform="scale(0.015625)"/>
       <path id="ArialMT-63" d="M 2588 1216 
L 3141 1144 
Q 3050 572 2676 248 
Q 2303 -75 1759 -75 
Q 1078 -75 664 370 
Q 250 816 250 1647 
Q 250 2184 428 2587 
Q 606 2991 970 3192 
Q 1334 3394 1763 3394 
Q 2303 3394 2647 3120 
Q 2991 2847 3088 2344 
L 2541 2259 
Q 2463 2594 2264 2762 
Q 2066 2931 1784 2931 
Q 1359 2931 1093 2626 
Q 828 2322 828 1663 
Q 828 994 1084 691 
Q 1341 388 1753 388 
Q 2084 388 2306 591 
Q 2528 794 2588 1216 
z
" transform="scale(0.015625)"/>
       <path id="ArialMT-6f" d="M 213 1659 
Q 213 2581 725 3025 
Q 1153 3394 1769 3394 
Q 2453 3394 2887 2945 
Q 3322 2497 3322 1706 
Q 3322 1066 3130 698 
Q 2938 331 2570 128 
Q 2203 -75 1769 -75 
Q 1072 -75 642 372 
Q 213 819 213 1659 
z
M 791 1659 
Q 791 1022 1069 705 
Q 1347 388 1769 388 
Q 2188 388 2466 706 
Q 2744 1025 2744 1678 
Q 2744 2294 2464 2611 
Q 2184 2928 1769 2928 
Q 1347 2928 1069 2612 
Q 791 2297 791 1659 
z
" transform="scale(0.015625)"/>
       <path id="ArialMT-25" d="M 372 3481 
Q 372 3972 619 4315 
Q 866 4659 1334 4659 
Q 1766 4659 2048 4351 
Q 2331 4044 2331 3447 
Q 2331 2866 2045 2552 
Q 1759 2238 1341 2238 
Q 925 2238 648 2547 
Q 372 2856 372 3481 
z
M 1350 4272 
Q 1141 4272 1002 4090 
Q 863 3909 863 3425 
Q 863 2984 1003 2804 
Q 1144 2625 1350 2625 
Q 1563 2625 1702 2806 
Q 1841 2988 1841 3469 
Q 1841 3913 1700 4092 
Q 1559 4272 1350 4272 
z
M 1353 -169 
L 3859 4659 
L 4316 4659 
L 1819 -169 
L 1353 -169 
z
M 3334 1075 
Q 3334 1569 3581 1911 
Q 3828 2253 4300 2253 
Q 4731 2253 5014 1945 
Q 5297 1638 5297 1041 
Q 5297 459 5011 145 
Q 4725 -169 4303 -169 
Q 3888 -169 3611 142 
Q 3334 453 3334 1075 
z
M 4316 1866 
Q 4103 1866 3964 1684 
Q 3825 1503 3825 1019 
Q 3825 581 3965 400 
Q 4106 219 4313 219 
Q 4528 219 4667 400 
Q 4806 581 4806 1063 
Q 4806 1506 4665 1686 
Q 4525 1866 4316 1866 
z
" transform="scale(0.015625)"/>
      </defs>
      <use xlink:href="#ArialMT-46"/>
      <use xlink:href="#ArialMT-31" x="61.083984"/>
      <use xlink:href="#ArialMT-20" x="116.699219"/>
      <use xlink:href="#ArialMT-73" x="144.482422"/>
      <use xlink:href="#ArialMT-63" x="194.482422"/>
      <use xlink:href="#ArialMT-6f" x="244.482422"/>
      <use xlink:href="#ArialMT-72" x="300.097656"/>
      <use xlink:href="#ArialMT-65" x="333.398438"/>
      <use xlink:href="#ArialMT-20" x="389.013672"/>
      <use xlink:href="#ArialMT-28" x="416.796875"/>
      <use xlink:href="#ArialMT-25" x="450.097656"/>
      <use xlink:href="#ArialMT-29" x="539.013672"/>
     </g>
    </g>
   </g>
   <g id="patch_3">
    <path d="M 30.808557 103.370906 
L 30.808557 3.578906 
" style="fill: none; stroke: #000000; stroke-width: 0.8; stroke-linejoin: miter; stroke-linecap: square"/>
   </g>
   <g id="patch_4">
    <path d="M 30.808557 103.370906 
L 40.327381 103.370906 
" style="fill: none; stroke: #000000; stroke-width: 0.8; stroke-linejoin: miter; stroke-linecap: square"/>
   </g>
  </g>
  <g id="axes_2">
   <g id="patch_5">
    <path d="M 59.365028 103.370906 
L 68.883851 103.370906 
L 68.883851 3.578906 
L 59.365028 3.578906 
z
" style="fill: #ffffff"/>
   </g>
   <g id="PathCollection_9">
    <path d="M 64.124439 93.508602 
L 60.962162 99.833157 
L 67.286717 99.833157 
z
" style="fill: #7da494; fill-opacity: 0.75"/>
   </g>
   <g id="PathCollection_10">
    <path d="M 64.124439 45.155221 
L 68.596575 40.683085 
L 64.124439 36.210949 
L 59.652303 40.683085 
z
" style="fill: #eab67a; fill-opacity: 0.75"/>
   </g>
   <g id="PathCollection_11">
    <path d="M 63.070347 100.360642 
L 65.178532 100.360642 
L 65.178532 98.252457 
L 67.286717 98.252457 
L 67.286717 96.144272 
L 65.178532 96.144272 
L 65.178532 94.036087 
L 63.070347 94.036087 
L 63.070347 96.144272 
L 60.962162 96.144272 
L 60.962162 98.252457 
L 63.070347 98.252457 
z
" style="fill: #9e97b7; fill-opacity: 0.75"/>
   </g>
   <g id="PathCollection_12">
    <path d="M 60.962162 64.573642 
L 67.286717 64.573642 
L 67.286717 58.249086 
L 60.962162 58.249086 
z
" style="fill: #6e8fb2; fill-opacity: 0.75"/>
   </g>
   <g id="PathCollection_13">
    <path d="M 62.543301 65.798768 
L 60.962162 68.537381 
L 62.543301 71.275993 
L 65.705578 71.275993 
L 67.286717 68.537381 
L 65.705578 65.798768 
z
" style="fill: #ddbf9f; fill-opacity: 0.75"/>
   </g>
   <g id="PathCollection_14">
    <path d="M 67.286717 59.398993 
L 60.962162 56.236716 
L 60.962162 62.561271 
z
" style="fill: #d9a7be; fill-opacity: 0.75"/>
   </g>
   <g id="PathCollection_15">
    <path d="M 62.543301 81.192828 
L 64.124439 79.611689 
L 65.705578 81.192828 
L 67.286717 79.611689 
L 65.705578 78.03055 
L 67.286717 76.449411 
L 65.705578 74.868272 
L 64.124439 76.449411 
L 62.543301 74.868272 
L 60.962162 76.449411 
L 62.543301 78.03055 
L 60.962162 79.611689 
z
" style="fill: #9da6b9; fill-opacity: 0.75"/>
   </g>
   <g id="PathCollection_16">
    <path d="M 64.124439 7.509995 
C 64.963085 7.509995 65.767495 7.176798 66.360507 6.583786 
C 66.953519 5.990774 67.286717 5.186364 67.286717 4.347718 
C 67.286717 3.509072 66.953519 2.704662 66.360507 2.11165 
C 65.767495 1.518638 64.963085 1.18544 64.124439 1.18544 
C 63.285793 1.18544 62.481384 1.518638 61.888371 2.11165 
C 61.295359 2.704662 60.962162 3.509072 60.962162 4.347718 
C 60.962162 5.186364 61.295359 5.990774 61.888371 6.583786 
C 62.481384 7.176798 63.285793 7.509995 64.124439 7.509995 
z
" style="fill: #c16e71; fill-opacity: 0.75"/>
   </g>
   <g id="matplotlib.axis_3">
    <g id="xtick_2">
     <g id="line2d_4">
      <g>
       <use xlink:href="#mf4d2c30471" x="64.124439" y="103.370906" style="stroke: #000000; stroke-width: 0.8"/>
      </g>
     </g>
     <g id="text_5">
      <!-- EHE-Hands-Wave -->
      <g transform="translate(29.667037 184.368503) rotate(-60) scale(0.1 -0.1)">
       <defs>
        <path id="ArialMT-45" d="M 506 0 
L 506 4581 
L 3819 4581 
L 3819 4041 
L 1113 4041 
L 1113 2638 
L 3647 2638 
L 3647 2100 
L 1113 2100 
L 1113 541 
L 3925 541 
L 3925 0 
L 506 0 
z
" transform="scale(0.015625)"/>
        <path id="ArialMT-48" d="M 513 0 
L 513 4581 
L 1119 4581 
L 1119 2700 
L 3500 2700 
L 3500 4581 
L 4106 4581 
L 4106 0 
L 3500 0 
L 3500 2159 
L 1119 2159 
L 1119 0 
L 513 0 
z
" transform="scale(0.015625)"/>
        <path id="ArialMT-64" d="M 2575 0 
L 2575 419 
Q 2259 -75 1647 -75 
Q 1250 -75 917 144 
Q 584 363 401 755 
Q 219 1147 219 1656 
Q 219 2153 384 2558 
Q 550 2963 881 3178 
Q 1213 3394 1622 3394 
Q 1922 3394 2156 3267 
Q 2391 3141 2538 2938 
L 2538 4581 
L 3097 4581 
L 3097 0 
L 2575 0 
z
M 797 1656 
Q 797 1019 1065 703 
Q 1334 388 1700 388 
Q 2069 388 2326 689 
Q 2584 991 2584 1609 
Q 2584 2291 2321 2609 
Q 2059 2928 1675 2928 
Q 1300 2928 1048 2622 
Q 797 2316 797 1656 
z
" transform="scale(0.015625)"/>
        <path id="ArialMT-57" d="M 1294 0 
L 78 4581 
L 700 4581 
L 1397 1578 
Q 1509 1106 1591 641 
Q 1766 1375 1797 1488 
L 2669 4581 
L 3400 4581 
L 4056 2263 
Q 4303 1400 4413 641 
Q 4500 1075 4641 1638 
L 5359 4581 
L 5969 4581 
L 4713 0 
L 4128 0 
L 3163 3491 
Q 3041 3928 3019 4028 
Q 2947 3713 2884 3491 
L 1913 0 
L 1294 0 
z
" transform="scale(0.015625)"/>
        <path id="ArialMT-76" d="M 1344 0 
L 81 3319 
L 675 3319 
L 1388 1331 
Q 1503 1009 1600 663 
Q 1675 925 1809 1294 
L 2547 3319 
L 3125 3319 
L 1869 0 
L 1344 0 
z
" transform="scale(0.015625)"/>
       </defs>
       <use xlink:href="#ArialMT-45"/>
       <use xlink:href="#ArialMT-48" x="66.699219"/>
       <use xlink:href="#ArialMT-45" x="138.916016"/>
       <use xlink:href="#ArialMT-2d" x="205.615234"/>
       <use xlink:href="#ArialMT-48" x="238.916016"/>
       <use xlink:href="#ArialMT-61" x="311.132812"/>
       <use xlink:href="#ArialMT-6e" x="366.748047"/>
       <use xlink:href="#ArialMT-64" x="422.363281"/>
       <use xlink:href="#ArialMT-73" x="477.978516"/>
       <use xlink:href="#ArialMT-2d" x="527.978516"/>
       <use xlink:href="#ArialMT-57" x="561.279297"/>
       <use xlink:href="#ArialMT-61" x="651.914062"/>
       <use xlink:href="#ArialMT-76" x="707.529297"/>
       <use xlink:href="#ArialMT-65" x="757.529297"/>
      </g>
      <!-- (binary) -->
      <g transform="translate(50.808223 169.197145) rotate(-60) scale(0.1 -0.1)">
       <use xlink:href="#ArialMT-28"/>
       <use xlink:href="#ArialMT-62" x="33.300781"/>
       <use xlink:href="#ArialMT-69" x="88.916016"/>
       <use xlink:href="#ArialMT-6e" x="111.132812"/>
       <use xlink:href="#ArialMT-61" x="166.748047"/>
       <use xlink:href="#ArialMT-72" x="222.363281"/>
       <use xlink:href="#ArialMT-79" x="255.664062"/>
       <use xlink:href="#ArialMT-29" x="305.664062"/>
      </g>
     </g>
    </g>
   </g>
   <g id="matplotlib.axis_4">
    <g id="ytick_3">
     <g id="line2d_5">
      <g>
       <use xlink:href="#m40da29425b" x="59.365028" y="103.370906" style="stroke: #000000; stroke-width: 0.8"/>
      </g>
     </g>
     <g id="text_6">
      <!-- 67 -->
      <g transform="translate(43.743153 106.949813) scale(0.1 -0.1)">
       <defs>
        <path id="ArialMT-36" d="M 3184 3459 
L 2625 3416 
Q 2550 3747 2413 3897 
Q 2184 4138 1850 4138 
Q 1581 4138 1378 3988 
Q 1113 3794 959 3422 
Q 806 3050 800 2363 
Q 1003 2672 1297 2822 
Q 1591 2972 1913 2972 
Q 2475 2972 2870 2558 
Q 3266 2144 3266 1488 
Q 3266 1056 3080 686 
Q 2894 316 2569 119 
Q 2244 -78 1831 -78 
Q 1128 -78 684 439 
Q 241 956 241 2144 
Q 241 3472 731 4075 
Q 1159 4600 1884 4600 
Q 2425 4600 2770 4297 
Q 3116 3994 3184 3459 
z
M 888 1484 
Q 888 1194 1011 928 
Q 1134 663 1356 523 
Q 1578 384 1822 384 
Q 2178 384 2434 671 
Q 2691 959 2691 1453 
Q 2691 1928 2437 2201 
Q 2184 2475 1800 2475 
Q 1419 2475 1153 2201 
Q 888 1928 888 1484 
z
" transform="scale(0.015625)"/>
        <path id="ArialMT-37" d="M 303 3981 
L 303 4522 
L 3269 4522 
L 3269 4084 
Q 2831 3619 2401 2847 
Q 1972 2075 1738 1259 
Q 1569 684 1522 0 
L 944 0 
Q 953 541 1156 1306 
Q 1359 2072 1739 2783 
Q 2119 3494 2547 3981 
L 303 3981 
z
" transform="scale(0.015625)"/>
       </defs>
       <use xlink:href="#ArialMT-36"/>
       <use xlink:href="#ArialMT-37" x="55.615234"/>
      </g>
     </g>
    </g>
    <g id="ytick_4">
     <g id="line2d_6">
      <g>
       <use xlink:href="#m40da29425b" x="59.365028" y="3.578906" style="stroke: #000000; stroke-width: 0.8"/>
      </g>
     </g>
     <g id="text_7">
      <!-- 90 -->
      <g transform="translate(43.743153 7.157813) scale(0.1 -0.1)">
       <defs>
        <path id="ArialMT-30" d="M 266 2259 
Q 266 3072 433 3567 
Q 600 4063 929 4331 
Q 1259 4600 1759 4600 
Q 2128 4600 2406 4451 
Q 2684 4303 2865 4023 
Q 3047 3744 3150 3342 
Q 3253 2941 3253 2259 
Q 3253 1453 3087 958 
Q 2922 463 2592 192 
Q 2263 -78 1759 -78 
Q 1097 -78 719 397 
Q 266 969 266 2259 
z
M 844 2259 
Q 844 1131 1108 757 
Q 1372 384 1759 384 
Q 2147 384 2411 759 
Q 2675 1134 2675 2259 
Q 2675 3391 2411 3762 
Q 2147 4134 1753 4134 
Q 1366 4134 1134 3806 
Q 844 3388 844 2259 
z
" transform="scale(0.015625)"/>
       </defs>
       <use xlink:href="#ArialMT-39"/>
       <use xlink:href="#ArialMT-30" x="55.615234"/>
      </g>
     </g>
    </g>
   </g>
   <g id="patch_6">
    <path d="M 59.365028 103.370906 
L 59.365028 3.578906 
" style="fill: none; stroke: #000000; stroke-width: 0.8; stroke-linejoin: miter; stroke-linecap: square"/>
   </g>
   <g id="patch_7">
    <path d="M 59.365028 103.370906 
L 68.883851 103.370906 
" style="fill: none; stroke: #000000; stroke-width: 0.8; stroke-linejoin: miter; stroke-linecap: square"/>
   </g>
  </g>
  <g id="axes_3">
   <g id="patch_8">
    <path d="M 87.921498 103.370906 
L 97.440322 103.370906 
L 97.440322 3.578906 
L 87.921498 3.578906 
z
" style="fill: #ffffff"/>
   </g>
   <g id="PathCollection_17">
    <path d="M 92.68091 67.52495 
L 89.518632 73.849505 
L 95.843188 73.849505 
z
" style="fill: #7da494; fill-opacity: 0.75"/>
   </g>
   <g id="PathCollection_18">
    <path d="M 92.68091 47.577172 
L 97.153046 43.105036 
L 92.68091 38.6329 
L 88.208774 43.105036 
z
" style="fill: #eab67a; fill-opacity: 0.75"/>
   </g>
   <g id="PathCollection_19">
    <path d="M 91.626817 41.039114 
L 93.735002 41.039114 
L 93.735002 38.930929 
L 95.843188 38.930929 
L 95.843188 36.822744 
L 93.735002 36.822744 
L 93.735002 34.714559 
L 91.626817 34.714559 
L 91.626817 36.822744 
L 89.518632 36.822744 
L 89.518632 38.930929 
L 91.626817 38.930929 
z
" style="fill: #9e97b7; fill-opacity: 0.75"/>
   </g>
   <g id="PathCollection_20">
    <path d="M 89.518632 45.882531 
L 95.843188 45.882531 
L 95.843188 39.557976 
L 89.518632 39.557976 
z
" style="fill: #6e8fb2; fill-opacity: 0.75"/>
   </g>
   <g id="PathCollection_21">
    <path d="M 91.099771 55.370883 
L 89.518632 58.109496 
L 91.099771 60.848109 
L 94.262049 60.848109 
L 95.843188 58.109496 
L 94.262049 55.370883 
z
" style="fill: #ddbf9f; fill-opacity: 0.75"/>
   </g>
   <g id="PathCollection_22">
    <path d="M 95.843188 98.260508 
L 89.518632 95.09823 
L 89.518632 101.422786 
z
" style="fill: #d9a7be; fill-opacity: 0.75"/>
   </g>
   <g id="PathCollection_23">
    <path d="M 91.099771 71.50225 
L 92.68091 69.921111 
L 94.262049 71.50225 
L 95.843188 69.921111 
L 94.262049 68.339972 
L 95.843188 66.758834 
L 94.262049 65.177695 
L 92.68091 66.758834 
L 91.099771 65.177695 
L 89.518632 66.758834 
L 91.099771 68.339972 
L 89.518632 69.921111 
z
" style="fill: #9da6b9; fill-opacity: 0.75"/>
   </g>
   <g id="PathCollection_24">
    <path d="M 92.68091 9.784235 
C 93.519556 9.784235 94.323966 9.451038 94.916978 8.858026 
C 95.50999 8.265013 95.843188 7.460603 95.843188 6.621958 
C 95.843188 5.783312 95.50999 4.978902 94.916978 4.38589 
C 94.323966 3.792877 93.519556 3.45968 92.68091 3.45968 
C 91.842264 3.45968 91.037854 3.792877 90.444842 4.38589 
C 89.85183 4.978902 89.518632 5.783312 89.518632 6.621958 
C 89.518632 7.460603 89.85183 8.265013 90.444842 8.858026 
C 91.037854 9.451038 91.842264 9.784235 92.68091 9.784235 
z
" style="fill: #c16e71; fill-opacity: 0.75"/>
   </g>
   <g id="matplotlib.axis_5">
    <g id="xtick_3">
     <g id="line2d_7">
      <g>
       <use xlink:href="#mf4d2c30471" x="92.68091" y="103.370906" style="stroke: #000000; stroke-width: 0.8"/>
      </g>
     </g>
     <g id="text_8">
      <!-- EHE-Hands-UpDown -->
      <g transform="translate(51.642257 195.767563) rotate(-60) scale(0.1 -0.1)">
       <defs>
        <path id="ArialMT-55" d="M 3500 4581 
L 4106 4581 
L 4106 1934 
Q 4106 1244 3950 837 
Q 3794 431 3386 176 
Q 2978 -78 2316 -78 
Q 1672 -78 1262 144 
Q 853 366 678 786 
Q 503 1206 503 1934 
L 503 4581 
L 1109 4581 
L 1109 1938 
Q 1109 1341 1220 1058 
Q 1331 775 1601 622 
Q 1872 469 2263 469 
Q 2931 469 3215 772 
Q 3500 1075 3500 1938 
L 3500 4581 
z
" transform="scale(0.015625)"/>
        <path id="ArialMT-70" d="M 422 -1272 
L 422 3319 
L 934 3319 
L 934 2888 
Q 1116 3141 1344 3267 
Q 1572 3394 1897 3394 
Q 2322 3394 2647 3175 
Q 2972 2956 3137 2557 
Q 3303 2159 3303 1684 
Q 3303 1175 3120 767 
Q 2938 359 2589 142 
Q 2241 -75 1856 -75 
Q 1575 -75 1351 44 
Q 1128 163 984 344 
L 984 -1272 
L 422 -1272 
z
M 931 1641 
Q 931 1000 1190 694 
Q 1450 388 1819 388 
Q 2194 388 2461 705 
Q 2728 1022 2728 1688 
Q 2728 2322 2467 2637 
Q 2206 2953 1844 2953 
Q 1484 2953 1207 2617 
Q 931 2281 931 1641 
z
" transform="scale(0.015625)"/>
        <path id="ArialMT-77" d="M 1034 0 
L 19 3319 
L 600 3319 
L 1128 1403 
L 1325 691 
Q 1338 744 1497 1375 
L 2025 3319 
L 2603 3319 
L 3100 1394 
L 3266 759 
L 3456 1400 
L 4025 3319 
L 4572 3319 
L 3534 0 
L 2950 0 
L 2422 1988 
L 2294 2553 
L 1622 0 
L 1034 0 
z
" transform="scale(0.015625)"/>
       </defs>
       <use xlink:href="#ArialMT-45"/>
       <use xlink:href="#ArialMT-48" x="66.699219"/>
       <use xlink:href="#ArialMT-45" x="138.916016"/>
       <use xlink:href="#ArialMT-2d" x="205.615234"/>
       <use xlink:href="#ArialMT-48" x="238.916016"/>
       <use xlink:href="#ArialMT-61" x="311.132812"/>
       <use xlink:href="#ArialMT-6e" x="366.748047"/>
       <use xlink:href="#ArialMT-64" x="422.363281"/>
       <use xlink:href="#ArialMT-73" x="477.978516"/>
       <use xlink:href="#ArialMT-2d" x="527.978516"/>
       <use xlink:href="#ArialMT-55" x="561.279297"/>
       <use xlink:href="#ArialMT-70" x="633.496094"/>
       <use xlink:href="#ArialMT-44" x="689.111328"/>
       <use xlink:href="#ArialMT-6f" x="761.328125"/>
       <use xlink:href="#ArialMT-77" x="816.943359"/>
       <use xlink:href="#ArialMT-6e" x="889.160156"/>
      </g>
      <!-- (binary) -->
      <g transform="translate(76.074069 174.896674) rotate(-60) scale(0.1 -0.1)">
       <use xlink:href="#ArialMT-28"/>
       <use xlink:href="#ArialMT-62" x="33.300781"/>
       <use xlink:href="#ArialMT-69" x="88.916016"/>
       <use xlink:href="#ArialMT-6e" x="111.132812"/>
       <use xlink:href="#ArialMT-61" x="166.748047"/>
       <use xlink:href="#ArialMT-72" x="222.363281"/>
       <use xlink:href="#ArialMT-79" x="255.664062"/>
       <use xlink:href="#ArialMT-29" x="305.664062"/>
      </g>
     </g>
    </g>
   </g>
   <g id="matplotlib.axis_6">
    <g id="ytick_5">
     <g id="line2d_8">
      <g>
       <use xlink:href="#m40da29425b" x="87.921498" y="103.370906" style="stroke: #000000; stroke-width: 0.8"/>
      </g>
     </g>
     <g id="text_9">
      <!-- 72 -->
      <g transform="translate(72.299623 106.949813) scale(0.1 -0.1)">
       <defs>
        <path id="ArialMT-32" d="M 3222 541 
L 3222 0 
L 194 0 
Q 188 203 259 391 
Q 375 700 629 1000 
Q 884 1300 1366 1694 
Q 2113 2306 2375 2664 
Q 2638 3022 2638 3341 
Q 2638 3675 2398 3904 
Q 2159 4134 1775 4134 
Q 1369 4134 1125 3890 
Q 881 3647 878 3216 
L 300 3275 
Q 359 3922 746 4261 
Q 1134 4600 1788 4600 
Q 2447 4600 2831 4234 
Q 3216 3869 3216 3328 
Q 3216 3053 3103 2787 
Q 2991 2522 2730 2228 
Q 2469 1934 1863 1422 
Q 1356 997 1212 845 
Q 1069 694 975 541 
L 3222 541 
z
" transform="scale(0.015625)"/>
       </defs>
       <use xlink:href="#ArialMT-37"/>
       <use xlink:href="#ArialMT-32" x="55.615234"/>
      </g>
     </g>
    </g>
    <g id="ytick_6">
     <g id="line2d_9">
      <g>
       <use xlink:href="#m40da29425b" x="87.921498" y="3.578906" style="stroke: #000000; stroke-width: 0.8"/>
      </g>
     </g>
     <g id="text_10">
      <!-- 92 -->
      <g transform="translate(72.299623 7.157813) scale(0.1 -0.1)">
       <use xlink:href="#ArialMT-39"/>
       <use xlink:href="#ArialMT-32" x="55.615234"/>
      </g>
     </g>
    </g>
   </g>
   <g id="patch_9">
    <path d="M 87.921498 103.370906 
L 87.921498 3.578906 
" style="fill: none; stroke: #000000; stroke-width: 0.8; stroke-linejoin: miter; stroke-linecap: square"/>
   </g>
   <g id="patch_10">
    <path d="M 87.921498 103.370906 
L 97.440322 103.370906 
" style="fill: none; stroke: #000000; stroke-width: 0.8; stroke-linejoin: miter; stroke-linecap: square"/>
   </g>
  </g>
  <g id="axes_4">
   <g id="patch_11">
    <path d="M 116.477969 103.370906 
L 125.996792 103.370906 
L 125.996792 3.578906 
L 116.477969 3.578906 
z
" style="fill: #ffffff"/>
   </g>
   <g id="PathCollection_25">
    <path d="M 121.237381 94.666501 
L 118.075103 100.991056 
L 124.399658 100.991056 
z
" style="fill: #7da494; fill-opacity: 0.75"/>
   </g>
   <g id="PathCollection_26">
    <path d="M 121.237381 68.633954 
L 125.709516 64.161818 
L 121.237381 59.689682 
L 116.765245 64.161818 
z
" style="fill: #eab67a; fill-opacity: 0.75"/>
   </g>
   <g id="PathCollection_27">
    <path d="M 120.183288 66.15118 
L 122.291473 66.15118 
L 122.291473 64.042995 
L 124.399658 64.042995 
L 124.399658 61.93481 
L 122.291473 61.93481 
L 122.291473 59.826625 
L 120.183288 59.826625 
L 120.183288 61.93481 
L 118.075103 61.93481 
L 118.075103 64.042995 
L 120.183288 64.042995 
z
" style="fill: #9e97b7; fill-opacity: 0.75"/>
   </g>
   <g id="PathCollection_28">
    <path d="M 118.075103 80.65642 
L 124.399658 80.65642 
L 124.399658 74.331864 
L 118.075103 74.331864 
z
" style="fill: #6e8fb2; fill-opacity: 0.75"/>
   </g>
   <g id="PathCollection_29">
    <path d="M 119.656242 14.90906 
L 118.075103 17.647673 
L 119.656242 20.386286 
L 122.818519 20.386286 
L 124.399658 17.647673 
L 122.818519 14.90906 
z
" style="fill: #ddbf9f; fill-opacity: 0.75"/>
   </g>
   <g id="PathCollection_30">
    <path d="M 124.399658 39.641013 
L 118.075103 36.478736 
L 118.075103 42.803291 
z
" style="fill: #d9a7be; fill-opacity: 0.75"/>
   </g>
   <g id="PathCollection_31">
    <path d="M 119.656242 40.85136 
L 121.237381 39.270221 
L 122.818519 40.85136 
L 124.399658 39.270221 
L 122.818519 37.689082 
L 124.399658 36.107943 
L 122.818519 34.526804 
L 121.237381 36.107943 
L 119.656242 34.526804 
L 118.075103 36.107943 
L 119.656242 37.689082 
L 118.075103 39.270221 
z
" style="fill: #9da6b9; fill-opacity: 0.75"/>
   </g>
   <g id="PathCollection_32">
    <path d="M 121.237381 8.447252 
C 122.076026 8.447252 122.880436 8.114054 123.473448 7.521042 
C 124.066461 6.92803 124.399658 6.12362 124.399658 5.284974 
C 124.399658 4.446328 124.066461 3.641918 123.473448 3.048906 
C 122.880436 2.455894 122.076026 2.122697 121.237381 2.122697 
C 120.398735 2.122697 119.594325 2.455894 119.001313 3.048906 
C 118.4083 3.641918 118.075103 4.446328 118.075103 5.284974 
C 118.075103 6.12362 118.4083 6.92803 119.001313 7.521042 
C 119.594325 8.114054 120.398735 8.447252 121.237381 8.447252 
z
" style="fill: #c16e71; fill-opacity: 0.75"/>
   </g>
   <g id="matplotlib.axis_7">
    <g id="xtick_4">
     <g id="line2d_10">
      <g>
       <use xlink:href="#mf4d2c30471" x="121.237381" y="103.370906" style="stroke: #000000; stroke-width: 0.8"/>
      </g>
     </g>
     <g id="text_11">
      <!-- EHE-Waist-BendL -->
      <g transform="translate(87.055759 183.890836) rotate(-60) scale(0.1 -0.1)">
       <use xlink:href="#ArialMT-45"/>
       <use xlink:href="#ArialMT-48" x="66.699219"/>
       <use xlink:href="#ArialMT-45" x="138.916016"/>
       <use xlink:href="#ArialMT-2d" x="205.615234"/>
       <use xlink:href="#ArialMT-57" x="238.916016"/>
       <use xlink:href="#ArialMT-61" x="329.550781"/>
       <use xlink:href="#ArialMT-69" x="385.166016"/>
       <use xlink:href="#ArialMT-73" x="407.382812"/>
       <use xlink:href="#ArialMT-74" x="457.382812"/>
       <use xlink:href="#ArialMT-2d" x="485.166016"/>
       <use xlink:href="#ArialMT-42" x="518.466797"/>
       <use xlink:href="#ArialMT-65" x="585.166016"/>
       <use xlink:href="#ArialMT-6e" x="640.78125"/>
       <use xlink:href="#ArialMT-64" x="696.396484"/>
       <use xlink:href="#ArialMT-4c" x="752.011719"/>
      </g>
      <!-- (binary) -->
      <g transform="translate(108.059055 168.958311) rotate(-60) scale(0.1 -0.1)">
       <use xlink:href="#ArialMT-28"/>
       <use xlink:href="#ArialMT-62" x="33.300781"/>
       <use xlink:href="#ArialMT-69" x="88.916016"/>
       <use xlink:href="#ArialMT-6e" x="111.132812"/>
       <use xlink:href="#ArialMT-61" x="166.748047"/>
       <use xlink:href="#ArialMT-72" x="222.363281"/>
       <use xlink:href="#ArialMT-79" x="255.664062"/>
       <use xlink:href="#ArialMT-29" x="305.664062"/>
      </g>
     </g>
    </g>
   </g>
   <g id="matplotlib.axis_8">
    <g id="ytick_7">
     <g id="line2d_11">
      <g>
       <use xlink:href="#m40da29425b" x="116.477969" y="103.370906" style="stroke: #000000; stroke-width: 0.8"/>
      </g>
     </g>
     <g id="text_12">
      <!-- 78 -->
      <g transform="translate(100.856094 106.949812) scale(0.1 -0.1)">
       <use xlink:href="#ArialMT-37"/>
       <use xlink:href="#ArialMT-38" x="55.615234"/>
      </g>
     </g>
    </g>
    <g id="ytick_8">
     <g id="line2d_12">
      <g>
       <use xlink:href="#m40da29425b" x="116.477969" y="3.578906" style="stroke: #000000; stroke-width: 0.8"/>
      </g>
     </g>
     <g id="text_13">
      <!-- 89 -->
      <g transform="translate(100.856094 7.157812) scale(0.1 -0.1)">
       <use xlink:href="#ArialMT-38"/>
       <use xlink:href="#ArialMT-39" x="55.615234"/>
      </g>
     </g>
    </g>
   </g>
   <g id="patch_12">
    <path d="M 116.477969 103.370906 
L 116.477969 3.578906 
" style="fill: none; stroke: #000000; stroke-width: 0.8; stroke-linejoin: miter; stroke-linecap: square"/>
   </g>
   <g id="patch_13">
    <path d="M 116.477969 103.370906 
L 125.996792 103.370906 
" style="fill: none; stroke: #000000; stroke-width: 0.8; stroke-linejoin: miter; stroke-linecap: square"/>
   </g>
  </g>
  <g id="axes_5">
   <g id="patch_14">
    <path d="M 145.034439 103.370906 
L 154.553263 103.370906 
L 154.553263 3.578906 
L 145.034439 3.578906 
z
" style="fill: #ffffff"/>
   </g>
   <g id="PathCollection_33">
    <path d="M 149.793851 94.042903 
L 146.631573 100.367459 
L 152.956129 100.367459 
z
" style="fill: #7da494; fill-opacity: 0.75"/>
   </g>
   <g id="PathCollection_34">
    <path d="M 149.793851 44.194672 
L 154.265987 39.722536 
L 149.793851 35.2504 
L 145.321715 39.722536 
z
" style="fill: #eab67a; fill-opacity: 0.75"/>
   </g>
   <g id="PathCollection_35">
    <path d="M 148.739759 44.361064 
L 150.847944 44.361064 
L 150.847944 42.252879 
L 152.956129 42.252879 
L 152.956129 40.144694 
L 150.847944 40.144694 
L 150.847944 38.036509 
L 148.739759 38.036509 
L 148.739759 40.144694 
L 146.631573 40.144694 
L 146.631573 42.252879 
L 148.739759 42.252879 
z
" style="fill: #9e97b7; fill-opacity: 0.75"/>
   </g>
   <g id="PathCollection_36">
    <path d="M 146.631573 65.42331 
L 152.956129 65.42331 
L 152.956129 59.098754 
L 146.631573 59.098754 
z
" style="fill: #6e8fb2; fill-opacity: 0.75"/>
   </g>
   <g id="PathCollection_37">
    <path d="M 148.212712 15.350628 
L 146.631573 18.089241 
L 148.212712 20.827854 
L 151.37499 20.827854 
L 152.956129 18.089241 
L 151.37499 15.350628 
z
" style="fill: #ddbf9f; fill-opacity: 0.75"/>
   </g>
   <g id="PathCollection_38">
    <path d="M 152.956129 56.743147 
L 146.631573 53.580869 
L 146.631573 59.905424 
z
" style="fill: #d9a7be; fill-opacity: 0.75"/>
   </g>
   <g id="PathCollection_39">
    <path d="M 148.212712 22.680645 
L 149.793851 21.099506 
L 151.37499 22.680645 
L 152.956129 21.099506 
L 151.37499 19.518367 
L 152.956129 17.937228 
L 151.37499 16.35609 
L 149.793851 17.937228 
L 148.212712 16.35609 
L 146.631573 17.937228 
L 148.212712 19.518367 
L 146.631573 21.099506 
z
" style="fill: #9da6b9; fill-opacity: 0.75"/>
   </g>
   <g id="PathCollection_40">
    <path d="M 149.793851 8.123075 
C 150.632497 8.123075 151.436907 7.789877 152.029919 7.196865 
C 152.622931 6.603853 152.956129 5.799443 152.956129 4.960797 
C 152.956129 4.122152 152.622931 3.317742 152.029919 2.724729 
C 151.436907 2.131717 150.632497 1.79852 149.793851 1.79852 
C 148.955205 1.79852 148.150795 2.131717 147.557783 2.724729 
C 146.964771 3.317742 146.631573 4.122152 146.631573 4.960797 
C 146.631573 5.799443 146.964771 6.603853 147.557783 7.196865 
C 148.150795 7.789877 148.955205 8.123075 149.793851 8.123075 
z
" style="fill: #c16e71; fill-opacity: 0.75"/>
   </g>
   <g id="matplotlib.axis_9">
    <g id="xtick_5">
     <g id="line2d_13">
      <g>
       <use xlink:href="#mf4d2c30471" x="149.793851" y="103.370906" style="stroke: #000000; stroke-width: 0.8"/>
      </g>
     </g>
     <g id="text_14">
      <!-- EHE-Waist-BendR -->
      <g transform="translate(114.781761 185.32925) rotate(-60) scale(0.1 -0.1)">
       <defs>
        <path id="ArialMT-52" d="M 503 0 
L 503 4581 
L 2534 4581 
Q 3147 4581 3465 4457 
Q 3784 4334 3975 4021 
Q 4166 3709 4166 3331 
Q 4166 2844 3850 2509 
Q 3534 2175 2875 2084 
Q 3116 1969 3241 1856 
Q 3506 1613 3744 1247 
L 4541 0 
L 3778 0 
L 3172 953 
Q 2906 1366 2734 1584 
Q 2563 1803 2427 1890 
Q 2291 1978 2150 2013 
Q 2047 2034 1813 2034 
L 1109 2034 
L 1109 0 
L 503 0 
z
M 1109 2559 
L 2413 2559 
Q 2828 2559 3062 2645 
Q 3297 2731 3419 2920 
Q 3541 3109 3541 3331 
Q 3541 3656 3305 3865 
Q 3069 4075 2559 4075 
L 1109 4075 
L 1109 2559 
z
" transform="scale(0.015625)"/>
       </defs>
       <use xlink:href="#ArialMT-45"/>
       <use xlink:href="#ArialMT-48" x="66.699219"/>
       <use xlink:href="#ArialMT-45" x="138.916016"/>
       <use xlink:href="#ArialMT-2d" x="205.615234"/>
       <use xlink:href="#ArialMT-57" x="238.916016"/>
       <use xlink:href="#ArialMT-61" x="329.550781"/>
       <use xlink:href="#ArialMT-69" x="385.166016"/>
       <use xlink:href="#ArialMT-73" x="407.382812"/>
       <use xlink:href="#ArialMT-74" x="457.382812"/>
       <use xlink:href="#ArialMT-2d" x="485.166016"/>
       <use xlink:href="#ArialMT-42" x="518.466797"/>
       <use xlink:href="#ArialMT-65" x="585.166016"/>
       <use xlink:href="#ArialMT-6e" x="640.78125"/>
       <use xlink:href="#ArialMT-64" x="696.396484"/>
       <use xlink:href="#ArialMT-52" x="752.011719"/>
      </g>
      <!-- (binary) -->
      <g transform="translate(136.200291 169.677518) rotate(-60) scale(0.1 -0.1)">
       <use xlink:href="#ArialMT-28"/>
       <use xlink:href="#ArialMT-62" x="33.300781"/>
       <use xlink:href="#ArialMT-69" x="88.916016"/>
       <use xlink:href="#ArialMT-6e" x="111.132812"/>
       <use xlink:href="#ArialMT-61" x="166.748047"/>
       <use xlink:href="#ArialMT-72" x="222.363281"/>
       <use xlink:href="#ArialMT-79" x="255.664062"/>
       <use xlink:href="#ArialMT-29" x="305.664062"/>
      </g>
     </g>
    </g>
   </g>
   <g id="matplotlib.axis_10">
    <g id="ytick_9">
     <g id="line2d_14">
      <g>
       <use xlink:href="#m40da29425b" x="145.034439" y="103.370906" style="stroke: #000000; stroke-width: 0.8"/>
      </g>
     </g>
     <g id="text_15">
      <!-- 75 -->
      <g transform="translate(129.412564 106.949813) scale(0.1 -0.1)">
       <defs>
        <path id="ArialMT-35" d="M 266 1200 
L 856 1250 
Q 922 819 1161 601 
Q 1400 384 1738 384 
Q 2144 384 2425 690 
Q 2706 997 2706 1503 
Q 2706 1984 2436 2262 
Q 2166 2541 1728 2541 
Q 1456 2541 1237 2417 
Q 1019 2294 894 2097 
L 366 2166 
L 809 4519 
L 3088 4519 
L 3088 3981 
L 1259 3981 
L 1013 2750 
Q 1425 3038 1878 3038 
Q 2478 3038 2890 2622 
Q 3303 2206 3303 1553 
Q 3303 931 2941 478 
Q 2500 -78 1738 -78 
Q 1113 -78 717 272 
Q 322 622 266 1200 
z
" transform="scale(0.015625)"/>
       </defs>
       <use xlink:href="#ArialMT-37"/>
       <use xlink:href="#ArialMT-35" x="55.615234"/>
      </g>
     </g>
    </g>
    <g id="ytick_10">
     <g id="line2d_15">
      <g>
       <use xlink:href="#m40da29425b" x="145.034439" y="3.578906" style="stroke: #000000; stroke-width: 0.8"/>
      </g>
     </g>
     <g id="text_16">
      <!-- 94 -->
      <g transform="translate(129.412564 7.157813) scale(0.1 -0.1)">
       <defs>
        <path id="ArialMT-34" d="M 2069 0 
L 2069 1097 
L 81 1097 
L 81 1613 
L 2172 4581 
L 2631 4581 
L 2631 1613 
L 3250 1613 
L 3250 1097 
L 2631 1097 
L 2631 0 
L 2069 0 
z
M 2069 1613 
L 2069 3678 
L 634 1613 
L 2069 1613 
z
" transform="scale(0.015625)"/>
       </defs>
       <use xlink:href="#ArialMT-39"/>
       <use xlink:href="#ArialMT-34" x="55.615234"/>
      </g>
     </g>
    </g>
   </g>
   <g id="patch_15">
    <path d="M 145.034439 103.370906 
L 145.034439 3.578906 
" style="fill: none; stroke: #000000; stroke-width: 0.8; stroke-linejoin: miter; stroke-linecap: square"/>
   </g>
   <g id="patch_16">
    <path d="M 145.034439 103.370906 
L 154.553263 103.370906 
" style="fill: none; stroke: #000000; stroke-width: 0.8; stroke-linejoin: miter; stroke-linecap: square"/>
   </g>
  </g>
  <g id="axes_6">
   <g id="patch_17">
    <path d="M 173.59091 103.370906 
L 183.109733 103.370906 
L 183.109733 3.578906 
L 173.59091 3.578906 
z
" style="fill: #ffffff"/>
   </g>
   <g id="PathCollection_41">
    <path d="M 178.350322 54.232988 
L 175.188044 60.557543 
L 181.512599 60.557543 
z
" style="fill: #7da494; fill-opacity: 0.75"/>
   </g>
   <g id="PathCollection_42">
    <path d="M 178.350322 78.732335 
L 182.822458 74.260199 
L 178.350322 69.788063 
L 173.878186 74.260199 
z
" style="fill: #eab67a; fill-opacity: 0.75"/>
   </g>
   <g id="PathCollection_43">
    <path d="M 177.296229 59.499254 
L 179.404414 59.499254 
L 179.404414 57.391069 
L 181.512599 57.391069 
L 181.512599 55.282884 
L 179.404414 55.282884 
L 179.404414 53.174699 
L 177.296229 53.174699 
L 177.296229 55.282884 
L 175.188044 55.282884 
L 175.188044 57.391069 
L 177.296229 57.391069 
z
" style="fill: #9e97b7; fill-opacity: 0.75"/>
   </g>
   <g id="PathCollection_44">
    <path d="M 175.188044 41.552504 
L 181.512599 41.552504 
L 181.512599 35.227948 
L 175.188044 35.227948 
z
" style="fill: #6e8fb2; fill-opacity: 0.75"/>
   </g>
   <g id="PathCollection_45">
    <path d="M 176.769183 22.361148 
L 175.188044 25.099761 
L 176.769183 27.838373 
L 179.931461 27.838373 
L 181.512599 25.099761 
L 179.931461 22.361148 
z
" style="fill: #ddbf9f; fill-opacity: 0.75"/>
   </g>
   <g id="PathCollection_46">
    <path d="M 181.512599 98.110559 
L 175.188044 94.948282 
L 175.188044 101.272837 
z
" style="fill: #d9a7be; fill-opacity: 0.75"/>
   </g>
   <g id="PathCollection_47">
    <path d="M 176.769183 67.672383 
L 178.350322 66.091244 
L 179.931461 67.672383 
L 181.512599 66.091244 
L 179.931461 64.510105 
L 181.512599 62.928966 
L 179.931461 61.347828 
L 178.350322 62.928966 
L 176.769183 61.347828 
L 175.188044 62.928966 
L 176.769183 64.510105 
L 175.188044 66.091244 
z
" style="fill: #9da6b9; fill-opacity: 0.75"/>
   </g>
   <g id="PathCollection_48">
    <path d="M 178.350322 7.76063 
C 179.188968 7.76063 179.993378 7.427433 180.58639 6.83442 
C 181.179402 6.241408 181.512599 5.436998 181.512599 4.598352 
C 181.512599 3.759707 181.179402 2.955297 180.58639 2.362284 
C 179.993378 1.769272 179.188968 1.436075 178.350322 1.436075 
C 177.511676 1.436075 176.707266 1.769272 176.114254 2.362284 
C 175.521242 2.955297 175.188044 3.759707 175.188044 4.598352 
C 175.188044 5.436998 175.521242 6.241408 176.114254 6.83442 
C 176.707266 7.427433 177.511676 7.76063 178.350322 7.76063 
z
" style="fill: #c16e71; fill-opacity: 0.75"/>
   </g>
   <g id="matplotlib.axis_11">
    <g id="xtick_6">
     <g id="line2d_16">
      <g>
       <use xlink:href="#mf4d2c30471" x="178.350322" y="103.370906" style="stroke: #000000; stroke-width: 0.8"/>
      </g>
     </g>
     <g id="text_17">
      <!-- EHE-Forward-Gait -->
      <g transform="translate(143.432763 185.165517) rotate(-60) scale(0.1 -0.1)">
       <use xlink:href="#ArialMT-45"/>
       <use xlink:href="#ArialMT-48" x="66.699219"/>
       <use xlink:href="#ArialMT-45" x="138.916016"/>
       <use xlink:href="#ArialMT-2d" x="205.615234"/>
       <use xlink:href="#ArialMT-46" x="238.916016"/>
       <use xlink:href="#ArialMT-6f" x="300"/>
       <use xlink:href="#ArialMT-72" x="355.615234"/>
       <use xlink:href="#ArialMT-77" x="388.916016"/>
       <use xlink:href="#ArialMT-61" x="461.132812"/>
       <use xlink:href="#ArialMT-72" x="516.748047"/>
       <use xlink:href="#ArialMT-64" x="550.048828"/>
       <use xlink:href="#ArialMT-2d" x="605.664062"/>
       <use xlink:href="#ArialMT-47" x="638.964844"/>
       <use xlink:href="#ArialMT-61" x="716.748047"/>
       <use xlink:href="#ArialMT-69" x="772.363281"/>
       <use xlink:href="#ArialMT-74" x="794.580078"/>
      </g>
      <!-- (binary) -->
      <g transform="translate(164.804027 169.595652) rotate(-60) scale(0.1 -0.1)">
       <use xlink:href="#ArialMT-28"/>
       <use xlink:href="#ArialMT-62" x="33.300781"/>
       <use xlink:href="#ArialMT-69" x="88.916016"/>
       <use xlink:href="#ArialMT-6e" x="111.132812"/>
       <use xlink:href="#ArialMT-61" x="166.748047"/>
       <use xlink:href="#ArialMT-72" x="222.363281"/>
       <use xlink:href="#ArialMT-79" x="255.664062"/>
       <use xlink:href="#ArialMT-29" x="305.664062"/>
      </g>
     </g>
    </g>
   </g>
   <g id="matplotlib.axis_12">
    <g id="ytick_11">
     <g id="line2d_17">
      <g>
       <use xlink:href="#m40da29425b" x="173.59091" y="103.370906" style="stroke: #000000; stroke-width: 0.8"/>
      </g>
     </g>
     <g id="text_18">
      <!-- 46 -->
      <g transform="translate(157.969035 106.949813) scale(0.1 -0.1)">
       <use xlink:href="#ArialMT-34"/>
       <use xlink:href="#ArialMT-36" x="55.615234"/>
      </g>
     </g>
    </g>
    <g id="ytick_12">
     <g id="line2d_18">
      <g>
       <use xlink:href="#m40da29425b" x="173.59091" y="3.578906" style="stroke: #000000; stroke-width: 0.8"/>
      </g>
     </g>
     <g id="text_19">
      <!-- 91 -->
      <g transform="translate(157.969035 7.157813) scale(0.1 -0.1)">
       <use xlink:href="#ArialMT-39"/>
       <use xlink:href="#ArialMT-31" x="55.615234"/>
      </g>
     </g>
    </g>
   </g>
   <g id="patch_18">
    <path d="M 173.59091 103.370906 
L 173.59091 3.578906 
" style="fill: none; stroke: #000000; stroke-width: 0.8; stroke-linejoin: miter; stroke-linecap: square"/>
   </g>
   <g id="patch_19">
    <path d="M 173.59091 103.370906 
L 183.109733 103.370906 
" style="fill: none; stroke: #000000; stroke-width: 0.8; stroke-linejoin: miter; stroke-linecap: square"/>
   </g>
  </g>
  <g id="axes_7">
   <g id="patch_20">
    <path d="M 202.147381 103.370906 
L 211.666204 103.370906 
L 211.666204 3.578906 
L 202.147381 3.578906 
z
" style="fill: #ffffff"/>
   </g>
   <g id="PathCollection_49">
    <path d="M 206.906792 71.37411 
L 203.744515 77.698665 
L 210.06907 77.698665 
z
" style="fill: #7da494; fill-opacity: 0.75"/>
   </g>
   <g id="PathCollection_50">
    <path d="M 206.906792 30.900412 
L 211.378928 26.428276 
L 206.906792 21.95614 
L 202.434656 26.428276 
z
" style="fill: #eab67a; fill-opacity: 0.75"/>
   </g>
   <g id="PathCollection_51">
    <path d="M 205.8527 39.121353 
L 207.960885 39.121353 
L 207.960885 37.013168 
L 210.06907 37.013168 
L 210.06907 34.904982 
L 207.960885 34.904982 
L 207.960885 32.796797 
L 205.8527 32.796797 
L 205.8527 34.904982 
L 203.744515 34.904982 
L 203.744515 37.013168 
L 205.8527 37.013168 
z
" style="fill: #9e97b7; fill-opacity: 0.75"/>
   </g>
   <g id="PathCollection_52">
    <path d="M 203.744515 80.190832 
L 210.06907 80.190832 
L 210.06907 73.866276 
L 203.744515 73.866276 
z
" style="fill: #6e8fb2; fill-opacity: 0.75"/>
   </g>
   <g id="PathCollection_53">
    <path d="M 205.325653 11.649892 
L 203.744515 14.388504 
L 205.325653 17.127117 
L 208.487931 17.127117 
L 210.06907 14.388504 
L 208.487931 11.649892 
z
" style="fill: #ddbf9f; fill-opacity: 0.75"/>
   </g>
   <g id="PathCollection_54">
    <path d="M 210.06907 98.992291 
L 203.744515 95.830013 
L 203.744515 102.154568 
z
" style="fill: #d9a7be; fill-opacity: 0.75"/>
   </g>
   <g id="PathCollection_55">
    <path d="M 205.325653 33.784011 
L 206.906792 32.202872 
L 208.487931 33.784011 
L 210.06907 32.202872 
L 208.487931 30.621733 
L 210.06907 29.040595 
L 208.487931 27.459456 
L 206.906792 29.040595 
L 205.325653 27.459456 
L 203.744515 29.040595 
L 205.325653 30.621733 
L 203.744515 32.202872 
z
" style="fill: #9da6b9; fill-opacity: 0.75"/>
   </g>
   <g id="PathCollection_56">
    <path d="M 206.906792 7.336837 
C 207.745438 7.336837 208.549848 7.003639 209.14286 6.410627 
C 209.735872 5.817615 210.06907 5.013205 210.06907 4.174559 
C 210.06907 3.335913 209.735872 2.531503 209.14286 1.938491 
C 208.549848 1.345479 207.745438 1.012281 206.906792 1.012281 
C 206.068146 1.012281 205.263736 1.345479 204.670724 1.938491 
C 204.077712 2.531503 203.744515 3.335913 203.744515 4.174559 
C 203.744515 5.013205 204.077712 5.817615 204.670724 6.410627 
C 205.263736 7.003639 206.068146 7.336837 206.906792 7.336837 
z
" style="fill: #c16e71; fill-opacity: 0.75"/>
   </g>
   <g id="matplotlib.axis_13">
    <g id="xtick_7">
     <g id="line2d_19">
      <g>
       <use xlink:href="#mf4d2c30471" x="206.906792" y="103.370906" style="stroke: #000000; stroke-width: 0.8"/>
      </g>
     </g>
     <g id="text_20">
      <!-- EHE-Backward-Gait -->
      <g transform="translate(168.372827 191.429317) rotate(-60) scale(0.1 -0.1)">
       <defs>
        <path id="ArialMT-6b" d="M 425 0 
L 425 4581 
L 988 4581 
L 988 1969 
L 2319 3319 
L 3047 3319 
L 1778 2088 
L 3175 0 
L 2481 0 
L 1384 1697 
L 988 1316 
L 988 0 
L 425 0 
z
" transform="scale(0.015625)"/>
       </defs>
       <use xlink:href="#ArialMT-45"/>
       <use xlink:href="#ArialMT-48" x="66.699219"/>
       <use xlink:href="#ArialMT-45" x="138.916016"/>
       <use xlink:href="#ArialMT-2d" x="205.615234"/>
       <use xlink:href="#ArialMT-42" x="238.916016"/>
       <use xlink:href="#ArialMT-61" x="305.615234"/>
       <use xlink:href="#ArialMT-63" x="361.230469"/>
       <use xlink:href="#ArialMT-6b" x="411.230469"/>
       <use xlink:href="#ArialMT-77" x="461.230469"/>
       <use xlink:href="#ArialMT-61" x="533.447266"/>
       <use xlink:href="#ArialMT-72" x="589.0625"/>
       <use xlink:href="#ArialMT-64" x="622.363281"/>
       <use xlink:href="#ArialMT-2d" x="677.978516"/>
       <use xlink:href="#ArialMT-47" x="711.279297"/>
       <use xlink:href="#ArialMT-61" x="789.0625"/>
       <use xlink:href="#ArialMT-69" x="844.677734"/>
       <use xlink:href="#ArialMT-74" x="866.894531"/>
      </g>
      <!-- (binary) -->
      <g transform="translate(191.552295 172.727551) rotate(-60) scale(0.1 -0.1)">
       <use xlink:href="#ArialMT-28"/>
       <use xlink:href="#ArialMT-62" x="33.300781"/>
       <use xlink:href="#ArialMT-69" x="88.916016"/>
       <use xlink:href="#ArialMT-6e" x="111.132812"/>
       <use xlink:href="#ArialMT-61" x="166.748047"/>
       <use xlink:href="#ArialMT-72" x="222.363281"/>
       <use xlink:href="#ArialMT-79" x="255.664062"/>
       <use xlink:href="#ArialMT-29" x="305.664062"/>
      </g>
     </g>
    </g>
   </g>
   <g id="matplotlib.axis_14">
    <g id="ytick_13">
     <g id="line2d_20">
      <g>
       <use xlink:href="#m40da29425b" x="202.147381" y="103.370906" style="stroke: #000000; stroke-width: 0.8"/>
      </g>
     </g>
     <g id="text_21">
      <!-- 53 -->
      <g transform="translate(186.525506 106.949813) scale(0.1 -0.1)">
       <defs>
        <path id="ArialMT-33" d="M 269 1209 
L 831 1284 
Q 928 806 1161 595 
Q 1394 384 1728 384 
Q 2125 384 2398 659 
Q 2672 934 2672 1341 
Q 2672 1728 2419 1979 
Q 2166 2231 1775 2231 
Q 1616 2231 1378 2169 
L 1441 2663 
Q 1497 2656 1531 2656 
Q 1891 2656 2178 2843 
Q 2466 3031 2466 3422 
Q 2466 3731 2256 3934 
Q 2047 4138 1716 4138 
Q 1388 4138 1169 3931 
Q 950 3725 888 3313 
L 325 3413 
Q 428 3978 793 4289 
Q 1159 4600 1703 4600 
Q 2078 4600 2393 4439 
Q 2709 4278 2876 4000 
Q 3044 3722 3044 3409 
Q 3044 3113 2884 2869 
Q 2725 2625 2413 2481 
Q 2819 2388 3044 2092 
Q 3269 1797 3269 1353 
Q 3269 753 2831 336 
Q 2394 -81 1725 -81 
Q 1122 -81 723 278 
Q 325 638 269 1209 
z
" transform="scale(0.015625)"/>
       </defs>
       <use xlink:href="#ArialMT-35"/>
       <use xlink:href="#ArialMT-33" x="55.615234"/>
      </g>
     </g>
    </g>
    <g id="ytick_14">
     <g id="line2d_21">
      <g>
       <use xlink:href="#m40da29425b" x="202.147381" y="3.578906" style="stroke: #000000; stroke-width: 0.8"/>
      </g>
     </g>
     <g id="text_22">
      <!-- 84 -->
      <g transform="translate(186.525506 7.157813) scale(0.1 -0.1)">
       <use xlink:href="#ArialMT-38"/>
       <use xlink:href="#ArialMT-34" x="55.615234"/>
      </g>
     </g>
    </g>
   </g>
   <g id="patch_21">
    <path d="M 202.147381 103.370906 
L 202.147381 3.578906 
" style="fill: none; stroke: #000000; stroke-width: 0.8; stroke-linejoin: miter; stroke-linecap: square"/>
   </g>
   <g id="patch_22">
    <path d="M 202.147381 103.370906 
L 211.666204 103.370906 
" style="fill: none; stroke: #000000; stroke-width: 0.8; stroke-linejoin: miter; stroke-linecap: square"/>
   </g>
  </g>
  <g id="axes_8">
   <g id="patch_23">
    <path d="M 230.703851 103.370906 
L 240.222675 103.370906 
L 240.222675 3.578906 
L 230.703851 3.578906 
z
" style="fill: #ffffff"/>
   </g>
   <g id="PathCollection_57">
    <path d="M 235.463263 94.398645 
L 232.300985 100.7232 
L 238.625541 100.7232 
z
" style="fill: #7da494; fill-opacity: 0.75"/>
   </g>
   <g id="PathCollection_58">
    <path d="M 235.463263 60.731688 
L 239.935399 56.259552 
L 235.463263 51.787416 
L 230.991127 56.259552 
z
" style="fill: #eab67a; fill-opacity: 0.75"/>
   </g>
   <g id="PathCollection_59">
    <path d="M 234.40917 66.299069 
L 236.517355 66.299069 
L 236.517355 64.190884 
L 238.625541 64.190884 
L 238.625541 62.082699 
L 236.517355 62.082699 
L 236.517355 59.974514 
L 234.40917 59.974514 
L 234.40917 62.082699 
L 232.300985 62.082699 
L 232.300985 64.190884 
L 234.40917 64.190884 
z
" style="fill: #9e97b7; fill-opacity: 0.75"/>
   </g>
   <g id="PathCollection_60">
    <path d="M 232.300985 62.849857 
L 238.625541 62.849857 
L 238.625541 56.525302 
L 232.300985 56.525302 
z
" style="fill: #6e8fb2; fill-opacity: 0.75"/>
   </g>
   <g id="PathCollection_61">
    <path d="M 233.882124 34.158281 
L 232.300985 36.896894 
L 233.882124 39.635507 
L 237.044402 39.635507 
L 238.625541 36.896894 
L 237.044402 34.158281 
z
" style="fill: #ddbf9f; fill-opacity: 0.75"/>
   </g>
   <g id="PathCollection_62">
    <path d="M 238.625541 88.630497 
L 232.300985 85.468219 
L 232.300985 91.792775 
z
" style="fill: #d9a7be; fill-opacity: 0.75"/>
   </g>
   <g id="PathCollection_63">
    <path d="M 233.882124 55.149518 
L 235.463263 53.568379 
L 237.044402 55.149518 
L 238.625541 53.568379 
L 237.044402 51.98724 
L 238.625541 50.406102 
L 237.044402 48.824963 
L 235.463263 50.406102 
L 233.882124 48.824963 
L 232.300985 50.406102 
L 233.882124 51.98724 
L 232.300985 53.568379 
z
" style="fill: #9da6b9; fill-opacity: 0.75"/>
   </g>
   <g id="PathCollection_64">
    <path d="M 235.463263 7.080897 
C 236.301909 7.080897 237.106319 6.7477 237.699331 6.154687 
C 238.292343 5.561675 238.625541 4.757265 238.625541 3.918619 
C 238.625541 3.079974 238.292343 2.275564 237.699331 1.682551 
C 237.106319 1.089539 236.301909 0.756342 235.463263 0.756342 
C 234.624617 0.756342 233.820207 1.089539 233.227195 1.682551 
C 232.634183 2.275564 232.300985 3.079974 232.300985 3.918619 
C 232.300985 4.757265 232.634183 5.561675 233.227195 6.154687 
C 233.820207 6.7477 234.624617 7.080897 235.463263 7.080897 
z
" style="fill: #c16e71; fill-opacity: 0.75"/>
   </g>
   <g id="matplotlib.axis_15">
    <g id="xtick_8">
     <g id="line2d_22">
      <g>
       <use xlink:href="#mf4d2c30471" x="235.463263" y="103.370906" style="stroke: #000000; stroke-width: 0.8"/>
      </g>
     </g>
     <g id="text_23">
      <!-- PD-Round-Gait -->
      <g transform="translate(207.483985 173.148062) rotate(-60) scale(0.1 -0.1)">
       <defs>
        <path id="ArialMT-50" d="M 494 0 
L 494 4581 
L 2222 4581 
Q 2678 4581 2919 4538 
Q 3256 4481 3484 4323 
Q 3713 4166 3852 3881 
Q 3991 3597 3991 3256 
Q 3991 2672 3619 2267 
Q 3247 1863 2275 1863 
L 1100 1863 
L 1100 0 
L 494 0 
z
M 1100 2403 
L 2284 2403 
Q 2872 2403 3119 2622 
Q 3366 2841 3366 3238 
Q 3366 3525 3220 3729 
Q 3075 3934 2838 4000 
Q 2684 4041 2272 4041 
L 1100 4041 
L 1100 2403 
z
" transform="scale(0.015625)"/>
        <path id="ArialMT-75" d="M 2597 0 
L 2597 488 
Q 2209 -75 1544 -75 
Q 1250 -75 995 37 
Q 741 150 617 320 
Q 494 491 444 738 
Q 409 903 409 1263 
L 409 3319 
L 972 3319 
L 972 1478 
Q 972 1038 1006 884 
Q 1059 663 1231 536 
Q 1403 409 1656 409 
Q 1909 409 2131 539 
Q 2353 669 2445 892 
Q 2538 1116 2538 1541 
L 2538 3319 
L 3100 3319 
L 3100 0 
L 2597 0 
z
" transform="scale(0.015625)"/>
       </defs>
       <use xlink:href="#ArialMT-50"/>
       <use xlink:href="#ArialMT-44" x="66.699219"/>
       <use xlink:href="#ArialMT-2d" x="138.916016"/>
       <use xlink:href="#ArialMT-52" x="172.216797"/>
       <use xlink:href="#ArialMT-6f" x="244.433594"/>
       <use xlink:href="#ArialMT-75" x="300.048828"/>
       <use xlink:href="#ArialMT-6e" x="355.664062"/>
       <use xlink:href="#ArialMT-64" x="411.279297"/>
       <use xlink:href="#ArialMT-2d" x="466.894531"/>
       <use xlink:href="#ArialMT-47" x="500.195312"/>
       <use xlink:href="#ArialMT-61" x="577.978516"/>
       <use xlink:href="#ArialMT-69" x="633.59375"/>
       <use xlink:href="#ArialMT-74" x="655.810547"/>
      </g>
      <!-- (binary) -->
      <g transform="translate(225.386109 163.586924) rotate(-60) scale(0.1 -0.1)">
       <use xlink:href="#ArialMT-28"/>
       <use xlink:href="#ArialMT-62" x="33.300781"/>
       <use xlink:href="#ArialMT-69" x="88.916016"/>
       <use xlink:href="#ArialMT-6e" x="111.132812"/>
       <use xlink:href="#ArialMT-61" x="166.748047"/>
       <use xlink:href="#ArialMT-72" x="222.363281"/>
       <use xlink:href="#ArialMT-79" x="255.664062"/>
       <use xlink:href="#ArialMT-29" x="305.664062"/>
      </g>
     </g>
    </g>
   </g>
   <g id="matplotlib.axis_16">
    <g id="ytick_15">
     <g id="line2d_23">
      <g>
       <use xlink:href="#m40da29425b" x="230.703851" y="103.370906" style="stroke: #000000; stroke-width: 0.8"/>
      </g>
     </g>
     <g id="text_24">
      <!-- 48 -->
      <g transform="translate(215.081976 106.949813) scale(0.1 -0.1)">
       <use xlink:href="#ArialMT-34"/>
       <use xlink:href="#ArialMT-38" x="55.615234"/>
      </g>
     </g>
    </g>
    <g id="ytick_16">
     <g id="line2d_24">
      <g>
       <use xlink:href="#m40da29425b" x="230.703851" y="3.578906" style="stroke: #000000; stroke-width: 0.8"/>
      </g>
     </g>
     <g id="text_25">
      <!-- 78 -->
      <g transform="translate(215.081976 7.157813) scale(0.1 -0.1)">
       <use xlink:href="#ArialMT-37"/>
       <use xlink:href="#ArialMT-38" x="55.615234"/>
      </g>
     </g>
    </g>
   </g>
   <g id="patch_24">
    <path d="M 230.703851 103.370906 
L 230.703851 3.578906 
" style="fill: none; stroke: #000000; stroke-width: 0.8; stroke-linejoin: miter; stroke-linecap: square"/>
   </g>
   <g id="patch_25">
    <path d="M 230.703851 103.370906 
L 240.222675 103.370906 
" style="fill: none; stroke: #000000; stroke-width: 0.8; stroke-linejoin: miter; stroke-linecap: square"/>
   </g>
  </g>
  <g id="axes_9">
   <g id="patch_26">
    <path d="M 259.260322 103.370906 
L 268.779145 103.370906 
L 268.779145 3.578906 
L 259.260322 3.578906 
z
" style="fill: #ffffff"/>
   </g>
   <g id="PathCollection_65">
    <path d="M 264.019733 46.819205 
L 260.857456 53.14376 
L 267.182011 53.14376 
z
" style="fill: #7da494; fill-opacity: 0.75"/>
   </g>
   <g id="PathCollection_66">
    <path d="M 264.019733 80.180004 
L 268.491869 75.707868 
L 264.019733 71.235732 
L 259.547598 75.707868 
z
" style="fill: #eab67a; fill-opacity: 0.75"/>
   </g>
   <g id="PathCollection_67">
    <path d="M 262.965641 97.446592 
L 265.073826 97.446592 
L 265.073826 95.338407 
L 267.182011 95.338407 
L 267.182011 93.230222 
L 265.073826 93.230222 
L 265.073826 91.122037 
L 262.965641 91.122037 
L 262.965641 93.230222 
L 260.857456 93.230222 
L 260.857456 95.338407 
L 262.965641 95.338407 
z
" style="fill: #9e97b7; fill-opacity: 0.75"/>
   </g>
   <g id="PathCollection_68">
    <path d="M 260.857456 75.858577 
L 267.182011 75.858577 
L 267.182011 69.534021 
L 260.857456 69.534021 
z
" style="fill: #6e8fb2; fill-opacity: 0.75"/>
   </g>
   <g id="PathCollection_69">
    <path d="M 262.438595 25.003862 
L 260.857456 27.742475 
L 262.438595 30.481087 
L 265.600872 30.481087 
L 267.182011 27.742475 
L 265.600872 25.003862 
z
" style="fill: #ddbf9f; fill-opacity: 0.75"/>
   </g>
   <g id="PathCollection_70">
    <path d="M 267.182011 43.244829 
L 260.857456 40.082552 
L 260.857456 46.407107 
z
" style="fill: #d9a7be; fill-opacity: 0.75"/>
   </g>
   <g id="PathCollection_71">
    <path d="M 262.438595 91.058638 
L 264.019733 89.477499 
L 265.600872 91.058638 
L 267.182011 89.477499 
L 265.600872 87.89636 
L 267.182011 86.315222 
L 265.600872 84.734083 
L 264.019733 86.315222 
L 262.438595 84.734083 
L 260.857456 86.315222 
L 262.438595 87.89636 
L 260.857456 89.477499 
z
" style="fill: #9da6b9; fill-opacity: 0.75"/>
   </g>
   <g id="PathCollection_72">
    <path d="M 264.019733 11.650107 
C 264.858379 11.650107 265.662789 11.316909 266.255801 10.723897 
C 266.848814 10.130885 267.182011 9.326475 267.182011 8.487829 
C 267.182011 7.649183 266.848814 6.844773 266.255801 6.251761 
C 265.662789 5.658749 264.858379 5.325552 264.019733 5.325552 
C 263.181088 5.325552 262.376678 5.658749 261.783665 6.251761 
C 261.190653 6.844773 260.857456 7.649183 260.857456 8.487829 
C 260.857456 9.326475 261.190653 10.130885 261.783665 10.723897 
C 262.376678 11.316909 263.181088 11.650107 264.019733 11.650107 
z
" style="fill: #c16e71; fill-opacity: 0.75"/>
   </g>
   <g id="matplotlib.axis_17">
    <g id="xtick_9">
     <g id="line2d_25">
      <g>
       <use xlink:href="#mf4d2c30471" x="264.019733" y="103.370906" style="stroke: #000000; stroke-width: 0.8"/>
      </g>
     </g>
     <g id="text_26">
      <!-- PD-Walkway-Gait -->
      <g transform="translate(231.063972 182.011335) rotate(-60) scale(0.1 -0.1)">
       <defs>
        <path id="ArialMT-6c" d="M 409 0 
L 409 4581 
L 972 4581 
L 972 0 
L 409 0 
z
" transform="scale(0.015625)"/>
       </defs>
       <use xlink:href="#ArialMT-50"/>
       <use xlink:href="#ArialMT-44" x="66.699219"/>
       <use xlink:href="#ArialMT-2d" x="138.916016"/>
       <use xlink:href="#ArialMT-57" x="172.216797"/>
       <use xlink:href="#ArialMT-61" x="262.851562"/>
       <use xlink:href="#ArialMT-6c" x="318.466797"/>
       <use xlink:href="#ArialMT-6b" x="340.683594"/>
       <use xlink:href="#ArialMT-77" x="390.683594"/>
       <use xlink:href="#ArialMT-61" x="462.900391"/>
       <use xlink:href="#ArialMT-79" x="518.515625"/>
       <use xlink:href="#ArialMT-2d" x="568.515625"/>
       <use xlink:href="#ArialMT-47" x="601.816406"/>
       <use xlink:href="#ArialMT-61" x="679.599609"/>
       <use xlink:href="#ArialMT-69" x="735.214844"/>
       <use xlink:href="#ArialMT-74" x="757.431641"/>
      </g>
      <!-- (3-class) -->
      <g transform="translate(250.498833 170.029794) rotate(-60) scale(0.1 -0.1)">
       <use xlink:href="#ArialMT-28"/>
       <use xlink:href="#ArialMT-33" x="33.300781"/>
       <use xlink:href="#ArialMT-2d" x="88.916016"/>
       <use xlink:href="#ArialMT-63" x="122.216797"/>
       <use xlink:href="#ArialMT-6c" x="172.216797"/>
       <use xlink:href="#ArialMT-61" x="194.433594"/>
       <use xlink:href="#ArialMT-73" x="250.048828"/>
       <use xlink:href="#ArialMT-73" x="300.048828"/>
       <use xlink:href="#ArialMT-29" x="350.048828"/>
      </g>
     </g>
    </g>
   </g>
   <g id="matplotlib.axis_18">
    <g id="ytick_17">
     <g id="line2d_26">
      <g>
       <use xlink:href="#m40da29425b" x="259.260322" y="103.370906" style="stroke: #000000; stroke-width: 0.8"/>
      </g>
     </g>
     <g id="text_27">
      <!-- 46 -->
      <g transform="translate(243.638447 106.949813) scale(0.1 -0.1)">
       <use xlink:href="#ArialMT-34"/>
       <use xlink:href="#ArialMT-36" x="55.615234"/>
      </g>
     </g>
    </g>
    <g id="ytick_18">
     <g id="line2d_27">
      <g>
       <use xlink:href="#m40da29425b" x="259.260322" y="3.578906" style="stroke: #000000; stroke-width: 0.8"/>
      </g>
     </g>
     <g id="text_28">
      <!-- 61 -->
      <g transform="translate(243.638447 7.157813) scale(0.1 -0.1)">
       <use xlink:href="#ArialMT-36"/>
       <use xlink:href="#ArialMT-31" x="55.615234"/>
      </g>
     </g>
    </g>
   </g>
   <g id="patch_27">
    <path d="M 259.260322 103.370906 
L 259.260322 3.578906 
" style="fill: none; stroke: #000000; stroke-width: 0.8; stroke-linejoin: miter; stroke-linecap: square"/>
   </g>
   <g id="patch_28">
    <path d="M 259.260322 103.370906 
L 268.779145 103.370906 
" style="fill: none; stroke: #000000; stroke-width: 0.8; stroke-linejoin: miter; stroke-linecap: square"/>
   </g>
  </g>
  <g id="axes_10">
   <g id="patch_29">
    <path d="M 287.816792 103.370906 
L 297.335616 103.370906 
L 297.335616 3.578906 
L 287.816792 3.578906 
z
" style="fill: #ffffff"/>
   </g>
   <g id="PathCollection_73">
    <path d="M 292.576204 88.999571 
L 289.413926 95.324126 
L 295.738482 95.324126 
z
" style="fill: #7da494; fill-opacity: 0.75"/>
   </g>
   <g id="PathCollection_74">
    <path d="M 292.576204 64.936503 
L 297.04834 60.464367 
L 292.576204 55.992231 
L 288.104068 60.464367 
z
" style="fill: #eab67a; fill-opacity: 0.75"/>
   </g>
   <g id="PathCollection_75">
    <path d="M 291.522111 74.264142 
L 293.630297 74.264142 
L 293.630297 72.155957 
L 295.738482 72.155957 
L 295.738482 70.047772 
L 293.630297 70.047772 
L 293.630297 67.939587 
L 291.522111 67.939587 
L 291.522111 70.047772 
L 289.413926 70.047772 
L 289.413926 72.155957 
L 291.522111 72.155957 
z
" style="fill: #9e97b7; fill-opacity: 0.75"/>
   </g>
   <g id="PathCollection_76">
    <path d="M 289.413926 71.868003 
L 295.738482 71.868003 
L 295.738482 65.543447 
L 289.413926 65.543447 
z
" style="fill: #6e8fb2; fill-opacity: 0.75"/>
   </g>
   <g id="PathCollection_77">
    <path d="M 290.995065 20.386235 
L 289.413926 23.124848 
L 290.995065 25.863461 
L 294.157343 25.863461 
L 295.738482 23.124848 
L 294.157343 20.386235 
z
" style="fill: #ddbf9f; fill-opacity: 0.75"/>
   </g>
   <g id="PathCollection_78">
    <path d="M 295.738482 99.991178 
L 289.413926 96.8289 
L 289.413926 103.153456 
z
" style="fill: #d9a7be; fill-opacity: 0.75"/>
   </g>
   <g id="PathCollection_79">
    <path d="M 290.995065 21.540383 
L 292.576204 19.959244 
L 294.157343 21.540383 
L 295.738482 19.959244 
L 294.157343 18.378105 
L 295.738482 16.796966 
L 294.157343 15.215828 
L 292.576204 16.796966 
L 290.995065 15.215828 
L 289.413926 16.796966 
L 290.995065 18.378105 
L 289.413926 19.959244 
z
" style="fill: #9da6b9; fill-opacity: 0.75"/>
   </g>
   <g id="PathCollection_80">
    <path d="M 292.576204 8.930921 
C 293.41485 8.930921 294.21926 8.597724 294.812272 8.004711 
C 295.405284 7.411699 295.738482 6.607289 295.738482 5.768644 
C 295.738482 4.929998 295.405284 4.125588 294.812272 3.532576 
C 294.21926 2.939563 293.41485 2.606366 292.576204 2.606366 
C 291.737558 2.606366 290.933148 2.939563 290.340136 3.532576 
C 289.747124 4.125588 289.413926 4.929998 289.413926 5.768644 
C 289.413926 6.607289 289.747124 7.411699 290.340136 8.004711 
C 290.933148 8.597724 291.737558 8.930921 292.576204 8.930921 
z
" style="fill: #c16e71; fill-opacity: 0.75"/>
   </g>
   <g id="matplotlib.axis_19">
    <g id="xtick_10">
     <g id="line2d_28">
      <g>
       <use xlink:href="#mf4d2c30471" x="292.576204" y="103.370906" style="stroke: #000000; stroke-width: 0.8"/>
      </g>
     </g>
     <g id="text_29">
      <!-- PD4T-Round-Gait -->
      <g transform="translate(259.037552 182.777181) rotate(-60) scale(0.1 -0.1)">
       <defs>
        <path id="ArialMT-54" d="M 1659 0 
L 1659 4041 
L 150 4041 
L 150 4581 
L 3781 4581 
L 3781 4041 
L 2266 4041 
L 2266 0 
L 1659 0 
z
" transform="scale(0.015625)"/>
       </defs>
       <use xlink:href="#ArialMT-50"/>
       <use xlink:href="#ArialMT-44" x="66.699219"/>
       <use xlink:href="#ArialMT-34" x="138.916016"/>
       <use xlink:href="#ArialMT-54" x="194.53125"/>
       <use xlink:href="#ArialMT-2d" x="250.115234"/>
       <use xlink:href="#ArialMT-52" x="283.416016"/>
       <use xlink:href="#ArialMT-6f" x="355.632812"/>
       <use xlink:href="#ArialMT-75" x="411.248047"/>
       <use xlink:href="#ArialMT-6e" x="466.863281"/>
       <use xlink:href="#ArialMT-64" x="522.478516"/>
       <use xlink:href="#ArialMT-2d" x="578.09375"/>
       <use xlink:href="#ArialMT-47" x="611.394531"/>
       <use xlink:href="#ArialMT-61" x="689.177734"/>
       <use xlink:href="#ArialMT-69" x="744.792969"/>
       <use xlink:href="#ArialMT-74" x="767.009766"/>
      </g>
      <!-- (4-class) -->
      <g transform="translate(278.609597 170.323654) rotate(-60) scale(0.1 -0.1)">
       <use xlink:href="#ArialMT-28"/>
       <use xlink:href="#ArialMT-34" x="33.300781"/>
       <use xlink:href="#ArialMT-2d" x="88.916016"/>
       <use xlink:href="#ArialMT-63" x="122.216797"/>
       <use xlink:href="#ArialMT-6c" x="172.216797"/>
       <use xlink:href="#ArialMT-61" x="194.433594"/>
       <use xlink:href="#ArialMT-73" x="250.048828"/>
       <use xlink:href="#ArialMT-73" x="300.048828"/>
       <use xlink:href="#ArialMT-29" x="350.048828"/>
      </g>
     </g>
    </g>
   </g>
   <g id="matplotlib.axis_20">
    <g id="ytick_19">
     <g id="line2d_29">
      <g>
       <use xlink:href="#m40da29425b" x="287.816792" y="103.370906" style="stroke: #000000; stroke-width: 0.8"/>
      </g>
     </g>
     <g id="text_30">
      <!-- 45 -->
      <g transform="translate(272.194917 106.949813) scale(0.1 -0.1)">
       <use xlink:href="#ArialMT-34"/>
       <use xlink:href="#ArialMT-35" x="55.615234"/>
      </g>
     </g>
    </g>
    <g id="ytick_20">
     <g id="line2d_30">
      <g>
       <use xlink:href="#m40da29425b" x="287.816792" y="3.578906" style="stroke: #000000; stroke-width: 0.8"/>
      </g>
     </g>
     <g id="text_31">
      <!-- 67 -->
      <g transform="translate(272.194917 7.157813) scale(0.1 -0.1)">
       <use xlink:href="#ArialMT-36"/>
       <use xlink:href="#ArialMT-37" x="55.615234"/>
      </g>
     </g>
    </g>
   </g>
   <g id="patch_30">
    <path d="M 287.816792 103.370906 
L 287.816792 3.578906 
" style="fill: none; stroke: #000000; stroke-width: 0.8; stroke-linejoin: miter; stroke-linecap: square"/>
   </g>
   <g id="patch_31">
    <path d="M 287.816792 103.370906 
L 297.335616 103.370906 
" style="fill: none; stroke: #000000; stroke-width: 0.8; stroke-linejoin: miter; stroke-linecap: square"/>
   </g>
  </g>
  <g id="axes_11">
   <g id="patch_32">
    <path d="M 316.373263 103.370906 
L 325.892086 103.370906 
L 325.892086 3.578906 
L 316.373263 3.578906 
z
" style="fill: #ffffff"/>
   </g>
   <g id="PathCollection_81">
    <path d="M 321.132675 94.810524 
L 317.970397 101.135079 
L 324.294952 101.135079 
z
" style="fill: #7da494; fill-opacity: 0.75"/>
   </g>
   <g id="PathCollection_82">
    <path d="M 321.132675 67.82987 
L 325.604811 63.357734 
L 321.132675 58.885598 
L 316.660539 63.357734 
z
" style="fill: #eab67a; fill-opacity: 0.75"/>
   </g>
   <g id="PathCollection_83">
    <path d="M 320.078582 84.768093 
L 322.186767 84.768093 
L 322.186767 82.659908 
L 324.294952 82.659908 
L 324.294952 80.551723 
L 322.186767 80.551723 
L 322.186767 78.443538 
L 320.078582 78.443538 
L 320.078582 80.551723 
L 317.970397 80.551723 
L 317.970397 82.659908 
L 320.078582 82.659908 
z
" style="fill: #9e97b7; fill-opacity: 0.75"/>
   </g>
   <g id="PathCollection_84">
    <path d="M 317.970397 93.121151 
L 324.294952 93.121151 
L 324.294952 86.796595 
L 317.970397 86.796595 
z
" style="fill: #6e8fb2; fill-opacity: 0.75"/>
   </g>
   <g id="PathCollection_85">
    <path d="M 319.551536 41.809186 
L 317.970397 44.547799 
L 319.551536 47.286412 
L 322.713813 47.286412 
L 324.294952 44.547799 
L 322.713813 41.809186 
z
" style="fill: #ddbf9f; fill-opacity: 0.75"/>
   </g>
   <g id="PathCollection_86">
    <path d="M 324.294952 83.68817 
L 317.970397 80.525892 
L 317.970397 86.850447 
z
" style="fill: #d9a7be; fill-opacity: 0.75"/>
   </g>
   <g id="PathCollection_87">
    <path d="M 319.551536 49.19118 
L 321.132675 47.610041 
L 322.713813 49.19118 
L 324.294952 47.610041 
L 322.713813 46.028902 
L 324.294952 44.447764 
L 322.713813 42.866625 
L 321.132675 44.447764 
L 319.551536 42.866625 
L 317.970397 44.447764 
L 319.551536 46.028902 
L 317.970397 47.610041 
z
" style="fill: #9da6b9; fill-opacity: 0.75"/>
   </g>
   <g id="PathCollection_88">
    <path d="M 321.132675 9.509527 
C 321.97132 9.509527 322.77573 9.17633 323.368743 8.583318 
C 323.961755 7.990306 324.294952 7.185896 324.294952 6.34725 
C 324.294952 5.508604 323.961755 4.704194 323.368743 4.111182 
C 322.77573 3.51817 321.97132 3.184972 321.132675 3.184972 
C 320.294029 3.184972 319.489619 3.51817 318.896607 4.111182 
C 318.303594 4.704194 317.970397 5.508604 317.970397 6.34725 
C 317.970397 7.185896 318.303594 7.990306 318.896607 8.583318 
C 319.489619 9.17633 320.294029 9.509527 321.132675 9.509527 
z
" style="fill: #c16e71; fill-opacity: 0.75"/>
   </g>
   <g id="matplotlib.axis_21">
    <g id="xtick_11">
     <g id="line2d_31">
      <g>
       <use xlink:href="#mf4d2c30471" x="321.132675" y="103.370906" style="stroke: #000000; stroke-width: 0.8"/>
      </g>
     </g>
     <g id="text_32">
      <!-- PD4T-Leg-Agility -->
      <g transform="translate(289.81746 178.926075) rotate(-60) scale(0.1 -0.1)">
       <defs>
        <path id="ArialMT-67" d="M 319 -275 
L 866 -356 
Q 900 -609 1056 -725 
Q 1266 -881 1628 -881 
Q 2019 -881 2231 -725 
Q 2444 -569 2519 -288 
Q 2563 -116 2559 434 
Q 2191 0 1641 0 
Q 956 0 581 494 
Q 206 988 206 1678 
Q 206 2153 378 2554 
Q 550 2956 876 3175 
Q 1203 3394 1644 3394 
Q 2231 3394 2613 2919 
L 2613 3319 
L 3131 3319 
L 3131 450 
Q 3131 -325 2973 -648 
Q 2816 -972 2473 -1159 
Q 2131 -1347 1631 -1347 
Q 1038 -1347 672 -1080 
Q 306 -813 319 -275 
z
M 784 1719 
Q 784 1066 1043 766 
Q 1303 466 1694 466 
Q 2081 466 2343 764 
Q 2606 1063 2606 1700 
Q 2606 2309 2336 2618 
Q 2066 2928 1684 2928 
Q 1309 2928 1046 2623 
Q 784 2319 784 1719 
z
" transform="scale(0.015625)"/>
        <path id="ArialMT-41" d="M -9 0 
L 1750 4581 
L 2403 4581 
L 4278 0 
L 3588 0 
L 3053 1388 
L 1138 1388 
L 634 0 
L -9 0 
z
M 1313 1881 
L 2866 1881 
L 2388 3150 
Q 2169 3728 2063 4100 
Q 1975 3659 1816 3225 
L 1313 1881 
z
" transform="scale(0.015625)"/>
       </defs>
       <use xlink:href="#ArialMT-50"/>
       <use xlink:href="#ArialMT-44" x="66.699219"/>
       <use xlink:href="#ArialMT-34" x="138.916016"/>
       <use xlink:href="#ArialMT-54" x="194.53125"/>
       <use xlink:href="#ArialMT-2d" x="250.115234"/>
       <use xlink:href="#ArialMT-4c" x="283.416016"/>
       <use xlink:href="#ArialMT-65" x="339.03125"/>
       <use xlink:href="#ArialMT-67" x="394.646484"/>
       <use xlink:href="#ArialMT-2d" x="450.261719"/>
       <use xlink:href="#ArialMT-41" x="483.5625"/>
       <use xlink:href="#ArialMT-67" x="550.261719"/>
       <use xlink:href="#ArialMT-69" x="605.876953"/>
       <use xlink:href="#ArialMT-6c" x="628.09375"/>
       <use xlink:href="#ArialMT-69" x="650.310547"/>
       <use xlink:href="#ArialMT-74" x="672.527344"/>
       <use xlink:href="#ArialMT-79" x="700.310547"/>
      </g>
      <!-- (4-class) -->
      <g transform="translate(308.379274 168.456695) rotate(-60) scale(0.1 -0.1)">
       <use xlink:href="#ArialMT-28"/>
       <use xlink:href="#ArialMT-34" x="33.300781"/>
       <use xlink:href="#ArialMT-2d" x="88.916016"/>
       <use xlink:href="#ArialMT-63" x="122.216797"/>
       <use xlink:href="#ArialMT-6c" x="172.216797"/>
       <use xlink:href="#ArialMT-61" x="194.433594"/>
       <use xlink:href="#ArialMT-73" x="250.048828"/>
       <use xlink:href="#ArialMT-73" x="300.048828"/>
       <use xlink:href="#ArialMT-29" x="350.048828"/>
      </g>
     </g>
    </g>
   </g>
   <g id="matplotlib.axis_22">
    <g id="ytick_21">
     <g id="line2d_32">
      <g>
       <use xlink:href="#m40da29425b" x="316.373263" y="103.370906" style="stroke: #000000; stroke-width: 0.8"/>
      </g>
     </g>
     <g id="text_33">
      <!-- 27 -->
      <g transform="translate(300.751388 106.949813) scale(0.1 -0.1)">
       <use xlink:href="#ArialMT-32"/>
       <use xlink:href="#ArialMT-37" x="55.615234"/>
      </g>
     </g>
    </g>
    <g id="ytick_22">
     <g id="line2d_33">
      <g>
       <use xlink:href="#m40da29425b" x="316.373263" y="3.578906" style="stroke: #000000; stroke-width: 0.8"/>
      </g>
     </g>
     <g id="text_34">
      <!-- 48 -->
      <g transform="translate(300.751388 7.157813) scale(0.1 -0.1)">
       <use xlink:href="#ArialMT-34"/>
       <use xlink:href="#ArialMT-38" x="55.615234"/>
      </g>
     </g>
    </g>
   </g>
   <g id="patch_33">
    <path d="M 316.373263 103.370906 
L 316.373263 3.578906 
" style="fill: none; stroke: #000000; stroke-width: 0.8; stroke-linejoin: miter; stroke-linecap: square"/>
   </g>
   <g id="patch_34">
    <path d="M 316.373263 103.370906 
L 325.892086 103.370906 
" style="fill: none; stroke: #000000; stroke-width: 0.8; stroke-linejoin: miter; stroke-linecap: square"/>
   </g>
  </g>
  <g id="axes_12">
   <g id="patch_35">
    <path d="M 344.929733 103.370906 
L 354.448557 103.370906 
L 354.448557 3.578906 
L 344.929733 3.578906 
z
" style="fill: #ffffff"/>
   </g>
   <g id="PathCollection_89">
    <path d="M 349.689145 8.376384 
C 350.527791 8.376384 351.332201 8.043187 351.925213 7.450175 
C 352.518225 6.857162 352.851423 6.052752 352.851423 5.214107 
C 352.851423 4.375461 352.518225 3.571051 351.925213 2.978039 
C 351.332201 2.385026 350.527791 2.051829 349.689145 2.051829 
C 348.850499 2.051829 348.046089 2.385026 347.453077 2.978039 
C 346.860065 3.571051 346.526868 4.375461 346.526868 5.214107 
C 346.526868 6.052752 346.860065 6.857162 347.453077 7.450175 
C 348.046089 8.043187 348.850499 8.376384 349.689145 8.376384 
z
" style="fill: #c16e71"/>
   </g>
   <g id="PathCollection_90">
    <defs>
     <path id="mea27135c00" d="M 0 -3.162278 
L -3.007505 -0.977198 
L -1.85874 2.558336 
L 1.85874 2.558336 
L 3.007505 -0.977198 
z
" style="stroke: #8a8a8a"/>
    </defs>
    <g>
     <use xlink:href="#mea27135c00" x="349.689145" y="96.791731" style="fill: #8a8a8a; stroke: #8a8a8a"/>
    </g>
   </g>
   <g id="matplotlib.axis_23">
    <g id="xtick_12">
     <g id="line2d_34">
      <g>
       <use xlink:href="#mf4d2c30471" x="349.689145" y="103.370906" style="stroke: #000000; stroke-width: 0.8"/>
      </g>
     </g>
     <g id="text_35">
      <!-- Mean -->
      <g transform="translate(343.381743 135.611273) rotate(-60) scale(0.1 -0.1)">
       <defs>
        <path id="ArialMT-4d" d="M 475 0 
L 475 4581 
L 1388 4581 
L 2472 1338 
Q 2622 884 2691 659 
Q 2769 909 2934 1394 
L 4031 4581 
L 4847 4581 
L 4847 0 
L 4263 0 
L 4263 3834 
L 2931 0 
L 2384 0 
L 1059 3900 
L 1059 0 
L 475 0 
z
" transform="scale(0.015625)"/>
       </defs>
       <use xlink:href="#ArialMT-4d"/>
       <use xlink:href="#ArialMT-65" x="83.300781"/>
       <use xlink:href="#ArialMT-61" x="138.916016"/>
       <use xlink:href="#ArialMT-6e" x="194.53125"/>
      </g>
     </g>
    </g>
   </g>
   <g id="matplotlib.axis_24">
    <g id="ytick_23">
     <g id="line2d_35">
      <g>
       <use xlink:href="#m40da29425b" x="344.929733" y="103.370906" style="stroke: #000000; stroke-width: 0.8"/>
      </g>
     </g>
     <g id="text_36">
      <!-- 67 -->
      <g transform="translate(329.307858 106.949813) scale(0.1 -0.1)">
       <use xlink:href="#ArialMT-36"/>
       <use xlink:href="#ArialMT-37" x="55.615234"/>
      </g>
     </g>
    </g>
    <g id="ytick_24">
     <g id="line2d_36">
      <g>
       <use xlink:href="#m40da29425b" x="344.929733" y="3.578906" style="stroke: #000000; stroke-width: 0.8"/>
      </g>
     </g>
     <g id="text_37">
      <!-- 81 -->
      <g transform="translate(329.307858 7.157813) scale(0.1 -0.1)">
       <use xlink:href="#ArialMT-38"/>
       <use xlink:href="#ArialMT-31" x="55.615234"/>
      </g>
     </g>
    </g>
   </g>
   <g id="line2d_37">
    <path d="M 353.972616 5.214107 
L 353.972616 96.791731 
" style="fill: none; stroke: #000000; stroke-width: 0.8; stroke-linecap: square"/>
   </g>
   <g id="patch_36">
    <path d="M 344.929733 103.370906 
L 344.929733 3.578906 
" style="fill: none; stroke: #000000; stroke-width: 0.8; stroke-linejoin: miter; stroke-linecap: square"/>
   </g>
   <g id="patch_37">
    <path d="M 344.929733 103.370906 
L 354.448557 103.370906 
" style="fill: none; stroke: #000000; stroke-width: 0.8; stroke-linejoin: miter; stroke-linecap: square"/>
   </g>
   <g id="text_38">
    <!-- $P$ &lt; 0.0001 -->
    <g transform="translate(354.924498 53.588075) scale(0.1 -0.1)">
     <defs>
      <path id="DejaVuSans-Oblique-50" d="M 1081 4666 
L 2541 4666 
Q 3178 4666 3512 4369 
Q 3847 4072 3847 3500 
Q 3847 2731 3353 2303 
Q 2859 1875 1966 1875 
L 1172 1875 
L 806 0 
L 172 0 
L 1081 4666 
z
M 1613 4147 
L 1275 2394 
L 2069 2394 
Q 2606 2394 2893 2669 
Q 3181 2944 3181 3456 
Q 3181 3784 2986 3965 
Q 2791 4147 2438 4147 
L 1613 4147 
z
" transform="scale(0.015625)"/>
      <path id="ArialMT-3c" d="M 350 2003 
L 350 2528 
L 3384 3809 
L 3384 3250 
L 978 2263 
L 3384 1266 
L 3384 706 
L 350 2003 
z
" transform="scale(0.015625)"/>
      <path id="ArialMT-2e" d="M 581 0 
L 581 641 
L 1222 641 
L 1222 0 
L 581 0 
z
" transform="scale(0.015625)"/>
     </defs>
     <use xlink:href="#DejaVuSans-Oblique-50" transform="translate(0 0.09375)"/>
     <use xlink:href="#ArialMT-20" transform="translate(60.302734 0.09375)"/>
     <use xlink:href="#ArialMT-3c" transform="translate(88.085938 0.09375)"/>
     <use xlink:href="#ArialMT-20" transform="translate(146.484375 0.09375)"/>
     <use xlink:href="#ArialMT-30" transform="translate(174.267578 0.09375)"/>
     <use xlink:href="#ArialMT-2e" transform="translate(229.882812 0.09375)"/>
     <use xlink:href="#ArialMT-30" transform="translate(257.666016 0.09375)"/>
     <use xlink:href="#ArialMT-30" transform="translate(313.28125 0.09375)"/>
     <use xlink:href="#ArialMT-30" transform="translate(368.896484 0.09375)"/>
     <use xlink:href="#ArialMT-31" transform="translate(424.511719 0.09375)"/>
    </g>
   </g>
  </g>
 </g>
</svg>
