<?xml version="1.0" encoding="utf-8" standalone="no"?>
<!DOCTYPE svg PUBLIC "-//W3C//DTD SVG 1.1//EN"
  "http://www.w3.org/Graphics/SVG/1.1/DTD/svg11.dtd">
<svg xmlns:xlink="http://www.w3.org/1999/xlink" width="414.833406pt" height="226.256975pt" viewBox="0 0 414.833406 226.256975" xmlns="http://www.w3.org/2000/svg" version="1.1">
 <metadata>
  <rdf:RDF xmlns:dc="http://purl.org/dc/elements/1.1/" xmlns:cc="http://creativecommons.org/ns#" xmlns:rdf="http://www.w3.org/1999/02/22-rdf-syntax-ns#">
   <cc:Work>
    <dc:type rdf:resource="http://purl.org/dc/dcmitype/StillImage"/>
    <dc:date>2026-05-16T21:51:02.946960</dc:date>
    <dc:format>image/svg+xml</dc:format>
    <dc:creator>
     <cc:Agent>
      <dc:title>Matplotlib v3.9.2, https://matplotlib.org/</dc:title>
     </cc:Agent>
    </dc:creator>
   </cc:Work>
  </rdf:RDF>
 </metadata>
 <defs>
  <style type="text/css">*{stroke-linejoin: round; stroke-linecap: butt}</style>
 </defs>
 <g id="figure_1">
  <g id="patch_1">
   <path d="M 0 226.256975 
L 414.833406 226.256975 
L 414.833406 0 
L 0 0 
z
" style="fill: #ffffff"/>
  </g>
  <g id="axes_1">
   <g id="patch_2">
    <path d="M 42.571406 103.370906 
L 53.011406 103.370906 
L 53.011406 3.578906 
L 42.571406 3.578906 
z
" style="fill: #ffffff"/>
   </g>
   <g id="PathCollection_1">
    <path d="M 47.791406 60.732513 
L 44.629129 67.057068 
L 50.953684 67.057068 
z
" style="fill: #7da494; fill-opacity: 0.75"/>
   </g>
   <g id="PathCollection_2">
    <path d="M 47.791406 55.572802 
L 52.263542 51.100666 
L 47.791406 46.62853 
L 43.31927 51.100666 
z
" style="fill: #eab67a; fill-opacity: 0.75"/>
   </g>
   <g id="PathCollection_3">
    <path d="M 46.737314 40.947536 
L 48.845499 40.947536 
L 48.845499 38.839351 
L 50.953684 38.839351 
L 50.953684 36.731166 
L 48.845499 36.731166 
L 48.845499 34.622981 
L 46.737314 34.622981 
L 46.737314 36.731166 
L 44.629129 36.731166 
L 44.629129 38.839351 
L 46.737314 38.839351 
z
" style="fill: #9e97b7; fill-opacity: 0.75"/>
   </g>
   <g id="PathCollection_4">
    <path d="M 44.629129 20.375504 
L 50.953684 20.375504 
L 50.953684 14.050949 
L 44.629129 14.050949 
z
" style="fill: #6e8fb2; fill-opacity: 0.75"/>
   </g>
   <g id="PathCollection_5">
    <path d="M 46.210267 25.986181 
L 44.629129 28.724794 
L 46.210267 31.463407 
L 49.372545 31.463407 
L 50.953684 28.724794 
L 49.372545 25.986181 
z
" style="fill: #ddbf9f; fill-opacity: 0.75"/>
   </g>
   <g id="PathCollection_6">
    <path d="M 50.953684 71.801308 
L 44.629129 68.63903 
L 44.629129 74.963586 
z
" style="fill: #d9a7be; fill-opacity: 0.75"/>
   </g>
   <g id="PathCollection_7">
    <path d="M 46.210267 62.953186 
L 47.791406 61.372047 
L 49.372545 62.953186 
L 50.953684 61.372047 
L 49.372545 59.790908 
L 50.953684 58.209769 
L 49.372545 56.628631 
L 47.791406 58.209769 
L 46.210267 56.628631 
L 44.629129 58.209769 
L 46.210267 59.790908 
L 44.629129 61.372047 
z
" style="fill: #9da6b9; fill-opacity: 0.75"/>
   </g>
   <g id="PathCollection_8">
    <path d="M 47.791406 7.802535 
C 48.630052 7.802535 49.434462 7.469338 50.027474 6.876326 
C 50.620486 6.283313 50.953684 5.478903 50.953684 4.640258 
C 50.953684 3.801612 50.620486 2.997202 50.027474 2.40419 
C 49.434462 1.811177 48.630052 1.47798 47.791406 1.47798 
C 46.95276 1.47798 46.14835 1.811177 45.555338 2.40419 
C 44.962326 2.997202 44.629129 3.801612 44.629129 4.640258 
C 44.629129 5.478903 44.962326 6.283313 45.555338 6.876326 
C 46.14835 7.469338 46.95276 7.802535 47.791406 7.802535 
z
" style="fill: #c16e71; fill-opacity: 0.75"/>
   </g>
   <g id="matplotlib.axis_1">
    <g id="xtick_1">
     <g id="line2d_1">
      <defs>
       <path id="m174ec7dad5" d="M 0 0 
L 0 3.5 
" style="stroke: #000000; stroke-width: 0.8"/>
      </defs>
      <g>
       <use xlink:href="#m174ec7dad5" x="47.791406" y="103.370906" style="stroke: #000000; stroke-width: 0.8"/>
      </g>
     </g>
     <g id="text_1">
      <!-- IRDS-Elbow-FlexionL -->
      <g transform="translate(6.198847 196.726956) rotate(-60) scale(0.1 -0.1)">
       <defs>
        <path id="ArialMT-49" d="M 597 0 
L 597 4581 
L 1203 4581 
L 1203 0 
L 597 0 
z
" transform="scale(0.015625)"/>
        <path id="ArialMT-52" d="M 503 0 
L 503 4581 
L 2534 4581 
Q 3147 4581 3465 4457 
Q 3784 4334 3975 4021 
Q 4166 3709 4166 3331 
Q 4166 2844 3850 2509 
Q 3534 2175 2875 2084 
Q 3116 1969 3241 1856 
Q 3506 1613 3744 1247 
L 4541 0 
L 3778 0 
L 3172 953 
Q 2906 1366 2734 1584 
Q 2563 1803 2427 1890 
Q 2291 1978 2150 2013 
Q 2047 2034 1813 2034 
L 1109 2034 
L 1109 0 
L 503 0 
z
M 1109 2559 
L 2413 2559 
Q 2828 2559 3062 2645 
Q 3297 2731 3419 2920 
Q 3541 3109 3541 3331 
Q 3541 3656 3305 3865 
Q 3069 4075 2559 4075 
L 1109 4075 
L 1109 2559 
z
" transform="scale(0.015625)"/>
        <path id="ArialMT-44" d="M 494 0 
L 494 4581 
L 2072 4581 
Q 2606 4581 2888 4516 
Q 3281 4425 3559 4188 
Q 3922 3881 4101 3404 
Q 4281 2928 4281 2316 
Q 4281 1794 4159 1391 
Q 4038 988 3847 723 
Q 3656 459 3429 307 
Q 3203 156 2883 78 
Q 2563 0 2147 0 
L 494 0 
z
M 1100 541 
L 2078 541 
Q 2531 541 2789 625 
Q 3047 709 3200 863 
Q 3416 1078 3536 1442 
Q 3656 1806 3656 2325 
Q 3656 3044 3420 3430 
Q 3184 3816 2847 3947 
Q 2603 4041 2063 4041 
L 1100 4041 
L 1100 541 
z
" transform="scale(0.015625)"/>
        <path id="ArialMT-53" d="M 288 1472 
L 859 1522 
Q 900 1178 1048 958 
Q 1197 738 1509 602 
Q 1822 466 2213 466 
Q 2559 466 2825 569 
Q 3091 672 3220 851 
Q 3350 1031 3350 1244 
Q 3350 1459 3225 1620 
Q 3100 1781 2813 1891 
Q 2628 1963 1997 2114 
Q 1366 2266 1113 2400 
Q 784 2572 623 2826 
Q 463 3081 463 3397 
Q 463 3744 659 4045 
Q 856 4347 1234 4503 
Q 1613 4659 2075 4659 
Q 2584 4659 2973 4495 
Q 3363 4331 3572 4012 
Q 3781 3694 3797 3291 
L 3216 3247 
Q 3169 3681 2898 3903 
Q 2628 4125 2100 4125 
Q 1550 4125 1298 3923 
Q 1047 3722 1047 3438 
Q 1047 3191 1225 3031 
Q 1400 2872 2139 2705 
Q 2878 2538 3153 2413 
Q 3553 2228 3743 1945 
Q 3934 1663 3934 1294 
Q 3934 928 3725 604 
Q 3516 281 3123 101 
Q 2731 -78 2241 -78 
Q 1619 -78 1198 103 
Q 778 284 539 648 
Q 300 1013 288 1472 
z
" transform="scale(0.015625)"/>
        <path id="ArialMT-2d" d="M 203 1375 
L 203 1941 
L 1931 1941 
L 1931 1375 
L 203 1375 
z
" transform="scale(0.015625)"/>
        <path id="ArialMT-45" d="M 506 0 
L 506 4581 
L 3819 4581 
L 3819 4041 
L 1113 4041 
L 1113 2638 
L 3647 2638 
L 3647 2100 
L 1113 2100 
L 1113 541 
L 3925 541 
L 3925 0 
L 506 0 
z
" transform="scale(0.015625)"/>
        <path id="ArialMT-6c" d="M 409 0 
L 409 4581 
L 972 4581 
L 972 0 
L 409 0 
z
" transform="scale(0.015625)"/>
        <path id="ArialMT-62" d="M 941 0 
L 419 0 
L 419 4581 
L 981 4581 
L 981 2947 
Q 1338 3394 1891 3394 
Q 2197 3394 2470 3270 
Q 2744 3147 2920 2923 
Q 3097 2700 3197 2384 
Q 3297 2069 3297 1709 
Q 3297 856 2875 390 
Q 2453 -75 1863 -75 
Q 1275 -75 941 416 
L 941 0 
z
M 934 1684 
Q 934 1088 1097 822 
Q 1363 388 1816 388 
Q 2184 388 2453 708 
Q 2722 1028 2722 1663 
Q 2722 2313 2464 2622 
Q 2206 2931 1841 2931 
Q 1472 2931 1203 2611 
Q 934 2291 934 1684 
z
" transform="scale(0.015625)"/>
        <path id="ArialMT-6f" d="M 213 1659 
Q 213 2581 725 3025 
Q 1153 3394 1769 3394 
Q 2453 3394 2887 2945 
Q 3322 2497 3322 1706 
Q 3322 1066 3130 698 
Q 2938 331 2570 128 
Q 2203 -75 1769 -75 
Q 1072 -75 642 372 
Q 213 819 213 1659 
z
M 791 1659 
Q 791 1022 1069 705 
Q 1347 388 1769 388 
Q 2188 388 2466 706 
Q 2744 1025 2744 1678 
Q 2744 2294 2464 2611 
Q 2184 2928 1769 2928 
Q 1347 2928 1069 2612 
Q 791 2297 791 1659 
z
" transform="scale(0.015625)"/>
        <path id="ArialMT-77" d="M 1034 0 
L 19 3319 
L 600 3319 
L 1128 1403 
L 1325 691 
Q 1338 744 1497 1375 
L 2025 3319 
L 2603 3319 
L 3100 1394 
L 3266 759 
L 3456 1400 
L 4025 3319 
L 4572 3319 
L 3534 0 
L 2950 0 
L 2422 1988 
L 2294 2553 
L 1622 0 
L 1034 0 
z
" transform="scale(0.015625)"/>
        <path id="ArialMT-46" d="M 525 0 
L 525 4581 
L 3616 4581 
L 3616 4041 
L 1131 4041 
L 1131 2622 
L 3281 2622 
L 3281 2081 
L 1131 2081 
L 1131 0 
L 525 0 
z
" transform="scale(0.015625)"/>
        <path id="ArialMT-65" d="M 2694 1069 
L 3275 997 
Q 3138 488 2766 206 
Q 2394 -75 1816 -75 
Q 1088 -75 661 373 
Q 234 822 234 1631 
Q 234 2469 665 2931 
Q 1097 3394 1784 3394 
Q 2450 3394 2872 2941 
Q 3294 2488 3294 1666 
Q 3294 1616 3291 1516 
L 816 1516 
Q 847 969 1125 678 
Q 1403 388 1819 388 
Q 2128 388 2347 550 
Q 2566 713 2694 1069 
z
M 847 1978 
L 2700 1978 
Q 2663 2397 2488 2606 
Q 2219 2931 1791 2931 
Q 1403 2931 1139 2672 
Q 875 2413 847 1978 
z
" transform="scale(0.015625)"/>
        <path id="ArialMT-78" d="M 47 0 
L 1259 1725 
L 138 3319 
L 841 3319 
L 1350 2541 
Q 1494 2319 1581 2169 
Q 1719 2375 1834 2534 
L 2394 3319 
L 3066 3319 
L 1919 1756 
L 3153 0 
L 2463 0 
L 1781 1031 
L 1600 1309 
L 728 0 
L 47 0 
z
" transform="scale(0.015625)"/>
        <path id="ArialMT-69" d="M 425 3934 
L 425 4581 
L 988 4581 
L 988 3934 
L 425 3934 
z
M 425 0 
L 425 3319 
L 988 3319 
L 988 0 
L 425 0 
z
" transform="scale(0.015625)"/>
        <path id="ArialMT-6e" d="M 422 0 
L 422 3319 
L 928 3319 
L 928 2847 
Q 1294 3394 1984 3394 
Q 2284 3394 2536 3286 
Q 2788 3178 2913 3003 
Q 3038 2828 3088 2588 
Q 3119 2431 3119 2041 
L 3119 0 
L 2556 0 
L 2556 2019 
Q 2556 2363 2490 2533 
Q 2425 2703 2258 2804 
Q 2091 2906 1866 2906 
Q 1506 2906 1245 2678 
Q 984 2450 984 1813 
L 984 0 
L 422 0 
z
" transform="scale(0.015625)"/>
        <path id="ArialMT-4c" d="M 469 0 
L 469 4581 
L 1075 4581 
L 1075 541 
L 3331 541 
L 3331 0 
L 469 0 
z
" transform="scale(0.015625)"/>
       </defs>
       <use xlink:href="#ArialMT-49"/>
       <use xlink:href="#ArialMT-52" x="27.783203"/>
       <use xlink:href="#ArialMT-44" x="100"/>
       <use xlink:href="#ArialMT-53" x="172.216797"/>
       <use xlink:href="#ArialMT-2d" x="238.916016"/>
       <use xlink:href="#ArialMT-45" x="272.216797"/>
       <use xlink:href="#ArialMT-6c" x="338.916016"/>
       <use xlink:href="#ArialMT-62" x="361.132812"/>
       <use xlink:href="#ArialMT-6f" x="416.748047"/>
       <use xlink:href="#ArialMT-77" x="472.363281"/>
       <use xlink:href="#ArialMT-2d" x="544.580078"/>
       <use xlink:href="#ArialMT-46" x="577.880859"/>
       <use xlink:href="#ArialMT-6c" x="638.964844"/>
       <use xlink:href="#ArialMT-65" x="661.181641"/>
       <use xlink:href="#ArialMT-78" x="716.796875"/>
       <use xlink:href="#ArialMT-69" x="766.796875"/>
       <use xlink:href="#ArialMT-6f" x="789.013672"/>
       <use xlink:href="#ArialMT-6e" x="844.628906"/>
       <use xlink:href="#ArialMT-4c" x="900.244141"/>
      </g>
      <!-- (binary) -->
      <g transform="translate(30.907612 175.376371) rotate(-60) scale(0.1 -0.1)">
       <defs>
        <path id="ArialMT-28" d="M 1497 -1347 
Q 1031 -759 709 28 
Q 388 816 388 1659 
Q 388 2403 628 3084 
Q 909 3875 1497 4659 
L 1900 4659 
Q 1522 4009 1400 3731 
Q 1209 3300 1100 2831 
Q 966 2247 966 1656 
Q 966 153 1900 -1347 
L 1497 -1347 
z
" transform="scale(0.015625)"/>
        <path id="ArialMT-61" d="M 2588 409 
Q 2275 144 1986 34 
Q 1697 -75 1366 -75 
Q 819 -75 525 192 
Q 231 459 231 875 
Q 231 1119 342 1320 
Q 453 1522 633 1644 
Q 813 1766 1038 1828 
Q 1203 1872 1538 1913 
Q 2219 1994 2541 2106 
Q 2544 2222 2544 2253 
Q 2544 2597 2384 2738 
Q 2169 2928 1744 2928 
Q 1347 2928 1158 2789 
Q 969 2650 878 2297 
L 328 2372 
Q 403 2725 575 2942 
Q 747 3159 1072 3276 
Q 1397 3394 1825 3394 
Q 2250 3394 2515 3294 
Q 2781 3194 2906 3042 
Q 3031 2891 3081 2659 
Q 3109 2516 3109 2141 
L 3109 1391 
Q 3109 606 3145 398 
Q 3181 191 3288 0 
L 2700 0 
Q 2613 175 2588 409 
z
M 2541 1666 
Q 2234 1541 1622 1453 
Q 1275 1403 1131 1340 
Q 988 1278 909 1158 
Q 831 1038 831 891 
Q 831 666 1001 516 
Q 1172 366 1500 366 
Q 1825 366 2078 508 
Q 2331 650 2450 897 
Q 2541 1088 2541 1459 
L 2541 1666 
z
" transform="scale(0.015625)"/>
        <path id="ArialMT-72" d="M 416 0 
L 416 3319 
L 922 3319 
L 922 2816 
Q 1116 3169 1280 3281 
Q 1444 3394 1641 3394 
Q 1925 3394 2219 3213 
L 2025 2691 
Q 1819 2813 1613 2813 
Q 1428 2813 1281 2702 
Q 1134 2591 1072 2394 
Q 978 2094 978 1738 
L 978 0 
L 416 0 
z
" transform="scale(0.015625)"/>
        <path id="ArialMT-79" d="M 397 -1278 
L 334 -750 
Q 519 -800 656 -800 
Q 844 -800 956 -737 
Q 1069 -675 1141 -563 
Q 1194 -478 1313 -144 
Q 1328 -97 1363 -6 
L 103 3319 
L 709 3319 
L 1400 1397 
Q 1534 1031 1641 628 
Q 1738 1016 1872 1384 
L 2581 3319 
L 3144 3319 
L 1881 -56 
Q 1678 -603 1566 -809 
Q 1416 -1088 1222 -1217 
Q 1028 -1347 759 -1347 
Q 597 -1347 397 -1278 
z
" transform="scale(0.015625)"/>
        <path id="ArialMT-29" d="M 791 -1347 
L 388 -1347 
Q 1322 153 1322 1656 
Q 1322 2244 1188 2822 
Q 1081 3291 891 3722 
Q 769 4003 388 4659 
L 791 4659 
Q 1378 3875 1659 3084 
Q 1900 2403 1900 1659 
Q 1900 816 1576 28 
Q 1253 -759 791 -1347 
z
" transform="scale(0.015625)"/>
       </defs>
       <use xlink:href="#ArialMT-28"/>
       <use xlink:href="#ArialMT-62" x="33.300781"/>
       <use xlink:href="#ArialMT-69" x="88.916016"/>
       <use xlink:href="#ArialMT-6e" x="111.132812"/>
       <use xlink:href="#ArialMT-61" x="166.748047"/>
       <use xlink:href="#ArialMT-72" x="222.363281"/>
       <use xlink:href="#ArialMT-79" x="255.664062"/>
       <use xlink:href="#ArialMT-29" x="305.664062"/>
      </g>
     </g>
    </g>
   </g>
   <g id="matplotlib.axis_2">
    <g id="ytick_1">
     <g id="line2d_2">
      <defs>
       <path id="m7513a0dc0b" d="M 0 0 
L -3.5 0 
" style="stroke: #000000; stroke-width: 0.8"/>
      </defs>
      <g>
       <use xlink:href="#m7513a0dc0b" x="42.571406" y="103.370906" style="stroke: #000000; stroke-width: 0.8"/>
      </g>
     </g>
     <g id="text_2">
      <!-- 0.7 -->
      <g transform="translate(24.171406 106.949813) scale(0.1 -0.1)">
       <defs>
        <path id="ArialMT-30" d="M 266 2259 
Q 266 3072 433 3567 
Q 600 4063 929 4331 
Q 1259 4600 1759 4600 
Q 2128 4600 2406 4451 
Q 2684 4303 2865 4023 
Q 3047 3744 3150 3342 
Q 3253 2941 3253 2259 
Q 3253 1453 3087 958 
Q 2922 463 2592 192 
Q 2263 -78 1759 -78 
Q 1097 -78 719 397 
Q 266 969 266 2259 
z
M 844 2259 
Q 844 1131 1108 757 
Q 1372 384 1759 384 
Q 2147 384 2411 759 
Q 2675 1134 2675 2259 
Q 2675 3391 2411 3762 
Q 2147 4134 1753 4134 
Q 1366 4134 1134 3806 
Q 844 3388 844 2259 
z
" transform="scale(0.015625)"/>
        <path id="ArialMT-2e" d="M 581 0 
L 581 641 
L 1222 641 
L 1222 0 
L 581 0 
z
" transform="scale(0.015625)"/>
        <path id="ArialMT-37" d="M 303 3981 
L 303 4522 
L 3269 4522 
L 3269 4084 
Q 2831 3619 2401 2847 
Q 1972 2075 1738 1259 
Q 1569 684 1522 0 
L 944 0 
Q 953 541 1156 1306 
Q 1359 2072 1739 2783 
Q 2119 3494 2547 3981 
L 303 3981 
z
" transform="scale(0.015625)"/>
       </defs>
       <use xlink:href="#ArialMT-30"/>
       <use xlink:href="#ArialMT-2e" x="55.615234"/>
       <use xlink:href="#ArialMT-37" x="83.398438"/>
      </g>
     </g>
    </g>
    <g id="ytick_2">
     <g id="line2d_3">
      <g>
       <use xlink:href="#m7513a0dc0b" x="42.571406" y="3.578906" style="stroke: #000000; stroke-width: 0.8"/>
      </g>
     </g>
     <g id="text_3">
      <!-- 1.0 -->
      <g transform="translate(24.171406 7.157813) scale(0.1 -0.1)">
       <defs>
        <path id="ArialMT-31" d="M 2384 0 
L 1822 0 
L 1822 3584 
Q 1619 3391 1289 3197 
Q 959 3003 697 2906 
L 697 3450 
Q 1169 3672 1522 3987 
Q 1875 4303 2022 4600 
L 2384 4600 
L 2384 0 
z
" transform="scale(0.015625)"/>
       </defs>
       <use xlink:href="#ArialMT-31"/>
       <use xlink:href="#ArialMT-2e" x="55.615234"/>
       <use xlink:href="#ArialMT-30" x="83.398438"/>
      </g>
     </g>
    </g>
    <g id="text_4">
     <!-- AUROC -->
     <g transform="translate(18.183906 71.531937) rotate(-90) scale(0.1 -0.1)">
      <defs>
       <path id="ArialMT-41" d="M -9 0 
L 1750 4581 
L 2403 4581 
L 4278 0 
L 3588 0 
L 3053 1388 
L 1138 1388 
L 634 0 
L -9 0 
z
M 1313 1881 
L 2866 1881 
L 2388 3150 
Q 2169 3728 2063 4100 
Q 1975 3659 1816 3225 
L 1313 1881 
z
" transform="scale(0.015625)"/>
       <path id="ArialMT-55" d="M 3500 4581 
L 4106 4581 
L 4106 1934 
Q 4106 1244 3950 837 
Q 3794 431 3386 176 
Q 2978 -78 2316 -78 
Q 1672 -78 1262 144 
Q 853 366 678 786 
Q 503 1206 503 1934 
L 503 4581 
L 1109 4581 
L 1109 1938 
Q 1109 1341 1220 1058 
Q 1331 775 1601 622 
Q 1872 469 2263 469 
Q 2931 469 3215 772 
Q 3500 1075 3500 1938 
L 3500 4581 
z
" transform="scale(0.015625)"/>
       <path id="ArialMT-4f" d="M 309 2231 
Q 309 3372 921 4017 
Q 1534 4663 2503 4663 
Q 3138 4663 3647 4359 
Q 4156 4056 4423 3514 
Q 4691 2972 4691 2284 
Q 4691 1588 4409 1038 
Q 4128 488 3612 205 
Q 3097 -78 2500 -78 
Q 1853 -78 1343 234 
Q 834 547 571 1087 
Q 309 1628 309 2231 
z
M 934 2222 
Q 934 1394 1379 917 
Q 1825 441 2497 441 
Q 3181 441 3623 922 
Q 4066 1403 4066 2288 
Q 4066 2847 3877 3264 
Q 3688 3681 3323 3911 
Q 2959 4141 2506 4141 
Q 1863 4141 1398 3698 
Q 934 3256 934 2222 
z
" transform="scale(0.015625)"/>
       <path id="ArialMT-43" d="M 3763 1606 
L 4369 1453 
Q 4178 706 3683 314 
Q 3188 -78 2472 -78 
Q 1731 -78 1267 223 
Q 803 525 561 1097 
Q 319 1669 319 2325 
Q 319 3041 592 3573 
Q 866 4106 1370 4382 
Q 1875 4659 2481 4659 
Q 3169 4659 3637 4309 
Q 4106 3959 4291 3325 
L 3694 3184 
Q 3534 3684 3231 3912 
Q 2928 4141 2469 4141 
Q 1941 4141 1586 3887 
Q 1231 3634 1087 3207 
Q 944 2781 944 2328 
Q 944 1744 1114 1308 
Q 1284 872 1643 656 
Q 2003 441 2422 441 
Q 2931 441 3284 734 
Q 3638 1028 3763 1606 
z
" transform="scale(0.015625)"/>
      </defs>
      <use xlink:href="#ArialMT-41"/>
      <use xlink:href="#ArialMT-55" x="66.699219"/>
      <use xlink:href="#ArialMT-52" x="138.916016"/>
      <use xlink:href="#ArialMT-4f" x="211.132812"/>
      <use xlink:href="#ArialMT-43" x="288.916016"/>
     </g>
    </g>
   </g>
   <g id="patch_3">
    <path d="M 42.571406 103.370906 
L 42.571406 3.578906 
" style="fill: none; stroke: #000000; stroke-width: 0.8; stroke-linejoin: miter; stroke-linecap: square"/>
   </g>
   <g id="patch_4">
    <path d="M 42.571406 103.370906 
L 53.011406 103.370906 
" style="fill: none; stroke: #000000; stroke-width: 0.8; stroke-linejoin: miter; stroke-linecap: square"/>
   </g>
  </g>
  <g id="axes_2">
   <g id="patch_5">
    <path d="M 73.891406 103.370906 
L 84.331406 103.370906 
L 84.331406 3.578906 
L 73.891406 3.578906 
z
" style="fill: #ffffff"/>
   </g>
   <g id="PathCollection_9">
    <path d="M 79.111406 35.783067 
L 75.949129 42.107622 
L 82.273684 42.107622 
z
" style="fill: #7da494; fill-opacity: 0.75"/>
   </g>
   <g id="PathCollection_10">
    <path d="M 79.111406 45.095865 
L 83.583542 40.623729 
L 79.111406 36.151593 
L 74.63927 40.623729 
z
" style="fill: #eab67a; fill-opacity: 0.75"/>
   </g>
   <g id="PathCollection_11">
    <path d="M 78.057314 33.148454 
L 80.165499 33.148454 
L 80.165499 31.040269 
L 82.273684 31.040269 
L 82.273684 28.932084 
L 80.165499 28.932084 
L 80.165499 26.823899 
L 78.057314 26.823899 
L 78.057314 28.932084 
L 75.949129 28.932084 
L 75.949129 31.040269 
L 78.057314 31.040269 
z
" style="fill: #9e97b7; fill-opacity: 0.75"/>
   </g>
   <g id="PathCollection_12">
    <path d="M 75.949129 31.375534 
L 82.273684 31.375534 
L 82.273684 25.050979 
L 75.949129 25.050979 
z
" style="fill: #6e8fb2; fill-opacity: 0.75"/>
   </g>
   <g id="PathCollection_13">
    <path d="M 77.530267 21.966775 
L 75.949129 24.705388 
L 77.530267 27.444001 
L 80.692545 27.444001 
L 82.273684 24.705388 
L 80.692545 21.966775 
z
" style="fill: #ddbf9f; fill-opacity: 0.75"/>
   </g>
   <g id="PathCollection_14">
    <path d="M 82.273684 85.157818 
L 75.949129 81.995541 
L 75.949129 88.320096 
z
" style="fill: #d9a7be; fill-opacity: 0.75"/>
   </g>
   <g id="PathCollection_15">
    <path d="M 77.530267 48.778314 
L 79.111406 47.197176 
L 80.692545 48.778314 
L 82.273684 47.197176 
L 80.692545 45.616037 
L 82.273684 44.034898 
L 80.692545 42.453759 
L 79.111406 44.034898 
L 77.530267 42.453759 
L 75.949129 44.034898 
L 77.530267 45.616037 
L 75.949129 47.197176 
z
" style="fill: #9da6b9; fill-opacity: 0.75"/>
   </g>
   <g id="PathCollection_16">
    <path d="M 79.111406 15.773088 
C 79.950052 15.773088 80.754462 15.439891 81.347474 14.846879 
C 81.940486 14.253866 82.273684 13.449456 82.273684 12.610811 
C 82.273684 11.772165 81.940486 10.967755 81.347474 10.374743 
C 80.754462 9.781731 79.950052 9.448533 79.111406 9.448533 
C 78.27276 9.448533 77.46835 9.781731 76.875338 10.374743 
C 76.282326 10.967755 75.949129 11.772165 75.949129 12.610811 
C 75.949129 13.449456 76.282326 14.253866 76.875338 14.846879 
C 77.46835 15.439891 78.27276 15.773088 79.111406 15.773088 
z
" style="fill: #c16e71; fill-opacity: 0.75"/>
   </g>
   <g id="matplotlib.axis_3">
    <g id="xtick_2">
     <g id="line2d_4">
      <g>
       <use xlink:href="#m174ec7dad5" x="79.111406" y="103.370906" style="stroke: #000000; stroke-width: 0.8"/>
      </g>
     </g>
     <g id="text_5">
      <!-- IRDS-Elbow-FlexionR -->
      <g transform="translate(36.688379 198.16537) rotate(-60) scale(0.1 -0.1)">
       <use xlink:href="#ArialMT-49"/>
       <use xlink:href="#ArialMT-52" x="27.783203"/>
       <use xlink:href="#ArialMT-44" x="100"/>
       <use xlink:href="#ArialMT-53" x="172.216797"/>
       <use xlink:href="#ArialMT-2d" x="238.916016"/>
       <use xlink:href="#ArialMT-45" x="272.216797"/>
       <use xlink:href="#ArialMT-6c" x="338.916016"/>
       <use xlink:href="#ArialMT-62" x="361.132812"/>
       <use xlink:href="#ArialMT-6f" x="416.748047"/>
       <use xlink:href="#ArialMT-77" x="472.363281"/>
       <use xlink:href="#ArialMT-2d" x="544.580078"/>
       <use xlink:href="#ArialMT-46" x="577.880859"/>
       <use xlink:href="#ArialMT-6c" x="638.964844"/>
       <use xlink:href="#ArialMT-65" x="661.181641"/>
       <use xlink:href="#ArialMT-78" x="716.796875"/>
       <use xlink:href="#ArialMT-69" x="766.796875"/>
       <use xlink:href="#ArialMT-6f" x="789.013672"/>
       <use xlink:href="#ArialMT-6e" x="844.628906"/>
       <use xlink:href="#ArialMT-52" x="900.244141"/>
      </g>
      <!-- (binary) -->
      <g transform="translate(61.812377 176.095578) rotate(-60) scale(0.1 -0.1)">
       <use xlink:href="#ArialMT-28"/>
       <use xlink:href="#ArialMT-62" x="33.300781"/>
       <use xlink:href="#ArialMT-69" x="88.916016"/>
       <use xlink:href="#ArialMT-6e" x="111.132812"/>
       <use xlink:href="#ArialMT-61" x="166.748047"/>
       <use xlink:href="#ArialMT-72" x="222.363281"/>
       <use xlink:href="#ArialMT-79" x="255.664062"/>
       <use xlink:href="#ArialMT-29" x="305.664062"/>
      </g>
     </g>
    </g>
   </g>
   <g id="matplotlib.axis_4">
    <g id="ytick_3">
     <g id="line2d_5">
      <g>
       <use xlink:href="#m7513a0dc0b" x="73.891406" y="103.370906" style="stroke: #000000; stroke-width: 0.8"/>
      </g>
     </g>
     <g id="text_6">
      <!-- 0.4 -->
      <g transform="translate(55.491406 106.949813) scale(0.1 -0.1)">
       <defs>
        <path id="ArialMT-34" d="M 2069 0 
L 2069 1097 
L 81 1097 
L 81 1613 
L 2172 4581 
L 2631 4581 
L 2631 1613 
L 3250 1613 
L 3250 1097 
L 2631 1097 
L 2631 0 
L 2069 0 
z
M 2069 1613 
L 2069 3678 
L 634 1613 
L 2069 1613 
z
" transform="scale(0.015625)"/>
       </defs>
       <use xlink:href="#ArialMT-30"/>
       <use xlink:href="#ArialMT-2e" x="55.615234"/>
       <use xlink:href="#ArialMT-34" x="83.398438"/>
      </g>
     </g>
    </g>
    <g id="ytick_4">
     <g id="line2d_6">
      <g>
       <use xlink:href="#m7513a0dc0b" x="73.891406" y="3.578906" style="stroke: #000000; stroke-width: 0.8"/>
      </g>
     </g>
     <g id="text_7">
      <!-- 1.0 -->
      <g transform="translate(55.491406 7.157812) scale(0.1 -0.1)">
       <use xlink:href="#ArialMT-31"/>
       <use xlink:href="#ArialMT-2e" x="55.615234"/>
       <use xlink:href="#ArialMT-30" x="83.398438"/>
      </g>
     </g>
    </g>
   </g>
   <g id="patch_6">
    <path d="M 73.891406 103.370906 
L 73.891406 3.578906 
" style="fill: none; stroke: #000000; stroke-width: 0.8; stroke-linejoin: miter; stroke-linecap: square"/>
   </g>
   <g id="patch_7">
    <path d="M 73.891406 103.370906 
L 84.331406 103.370906 
" style="fill: none; stroke: #000000; stroke-width: 0.8; stroke-linejoin: miter; stroke-linecap: square"/>
   </g>
  </g>
  <g id="axes_3">
   <g id="patch_8">
    <path d="M 105.211406 103.370906 
L 115.651406 103.370906 
L 115.651406 3.578906 
L 105.211406 3.578906 
z
" style="fill: #ffffff"/>
   </g>
   <g id="PathCollection_17">
    <path d="M 110.431406 84.897939 
L 107.269129 91.222494 
L 113.593684 91.222494 
z
" style="fill: #7da494; fill-opacity: 0.75"/>
   </g>
   <g id="PathCollection_18">
    <path d="M 110.431406 47.475938 
L 114.903542 43.003802 
L 110.431406 38.531666 
L 105.95927 43.003802 
z
" style="fill: #eab67a; fill-opacity: 0.75"/>
   </g>
   <g id="PathCollection_19">
    <path d="M 109.377314 34.147594 
L 111.485499 34.147594 
L 111.485499 32.039409 
L 113.593684 32.039409 
L 113.593684 29.931224 
L 111.485499 29.931224 
L 111.485499 27.823039 
L 109.377314 27.823039 
L 109.377314 29.931224 
L 107.269129 29.931224 
L 107.269129 32.039409 
L 109.377314 32.039409 
z
" style="fill: #9e97b7; fill-opacity: 0.75"/>
   </g>
   <g id="PathCollection_20">
    <path d="M 107.269129 33.759695 
L 113.593684 33.759695 
L 113.593684 27.435139 
L 107.269129 27.435139 
z
" style="fill: #6e8fb2; fill-opacity: 0.75"/>
   </g>
   <g id="PathCollection_21">
    <path d="M 108.850267 74.501459 
L 107.269129 77.240072 
L 108.850267 79.978684 
L 112.012545 79.978684 
L 113.593684 77.240072 
L 112.012545 74.501459 
z
" style="fill: #ddbf9f; fill-opacity: 0.75"/>
   </g>
   <g id="PathCollection_22">
    <path d="M 113.593684 66.227526 
L 107.269129 63.065248 
L 107.269129 69.389803 
z
" style="fill: #d9a7be; fill-opacity: 0.75"/>
   </g>
   <g id="PathCollection_23">
    <path d="M 108.850267 60.521089 
L 110.431406 58.93995 
L 112.012545 60.521089 
L 113.593684 58.93995 
L 112.012545 57.358811 
L 113.593684 55.777672 
L 112.012545 54.196533 
L 110.431406 55.777672 
L 108.850267 54.196533 
L 107.269129 55.777672 
L 108.850267 57.358811 
L 107.269129 58.93995 
z
" style="fill: #9da6b9; fill-opacity: 0.75"/>
   </g>
   <g id="PathCollection_24">
    <path d="M 110.431406 20.898501 
C 111.270052 20.898501 112.074462 20.565303 112.667474 19.972291 
C 113.260486 19.379279 113.593684 18.574869 113.593684 17.736223 
C 113.593684 16.897578 113.260486 16.093168 112.667474 15.500155 
C 112.074462 14.907143 111.270052 14.573946 110.431406 14.573946 
C 109.59276 14.573946 108.78835 14.907143 108.195338 15.500155 
C 107.602326 16.093168 107.269129 16.897578 107.269129 17.736223 
C 107.269129 18.574869 107.602326 19.379279 108.195338 19.972291 
C 108.78835 20.565303 109.59276 20.898501 110.431406 20.898501 
z
" style="fill: #c16e71; fill-opacity: 0.75"/>
   </g>
   <g id="matplotlib.axis_5">
    <g id="xtick_3">
     <g id="line2d_7">
      <g>
       <use xlink:href="#m174ec7dad5" x="110.431406" y="103.370906" style="stroke: #000000; stroke-width: 0.8"/>
      </g>
     </g>
     <g id="text_8">
      <!-- IRDS-Shoulder-FlexionL -->
      <g transform="translate(62.443535 207.803962) rotate(-60) scale(0.1 -0.1)">
       <defs>
        <path id="ArialMT-68" d="M 422 0 
L 422 4581 
L 984 4581 
L 984 2938 
Q 1378 3394 1978 3394 
Q 2347 3394 2619 3248 
Q 2891 3103 3008 2847 
Q 3125 2591 3125 2103 
L 3125 0 
L 2563 0 
L 2563 2103 
Q 2563 2525 2380 2717 
Q 2197 2909 1863 2909 
Q 1613 2909 1392 2779 
Q 1172 2650 1078 2428 
Q 984 2206 984 1816 
L 984 0 
L 422 0 
z
" transform="scale(0.015625)"/>
        <path id="ArialMT-75" d="M 2597 0 
L 2597 488 
Q 2209 -75 1544 -75 
Q 1250 -75 995 37 
Q 741 150 617 320 
Q 494 491 444 738 
Q 409 903 409 1263 
L 409 3319 
L 972 3319 
L 972 1478 
Q 972 1038 1006 884 
Q 1059 663 1231 536 
Q 1403 409 1656 409 
Q 1909 409 2131 539 
Q 2353 669 2445 892 
Q 2538 1116 2538 1541 
L 2538 3319 
L 3100 3319 
L 3100 0 
L 2597 0 
z
" transform="scale(0.015625)"/>
        <path id="ArialMT-64" d="M 2575 0 
L 2575 419 
Q 2259 -75 1647 -75 
Q 1250 -75 917 144 
Q 584 363 401 755 
Q 219 1147 219 1656 
Q 219 2153 384 2558 
Q 550 2963 881 3178 
Q 1213 3394 1622 3394 
Q 1922 3394 2156 3267 
Q 2391 3141 2538 2938 
L 2538 4581 
L 3097 4581 
L 3097 0 
L 2575 0 
z
M 797 1656 
Q 797 1019 1065 703 
Q 1334 388 1700 388 
Q 2069 388 2326 689 
Q 2584 991 2584 1609 
Q 2584 2291 2321 2609 
Q 2059 2928 1675 2928 
Q 1300 2928 1048 2622 
Q 797 2316 797 1656 
z
" transform="scale(0.015625)"/>
       </defs>
       <use xlink:href="#ArialMT-49"/>
       <use xlink:href="#ArialMT-52" x="27.783203"/>
       <use xlink:href="#ArialMT-44" x="100"/>
       <use xlink:href="#ArialMT-53" x="172.216797"/>
       <use xlink:href="#ArialMT-2d" x="238.916016"/>
       <use xlink:href="#ArialMT-53" x="272.216797"/>
       <use xlink:href="#ArialMT-68" x="338.916016"/>
       <use xlink:href="#ArialMT-6f" x="394.53125"/>
       <use xlink:href="#ArialMT-75" x="450.146484"/>
       <use xlink:href="#ArialMT-6c" x="505.761719"/>
       <use xlink:href="#ArialMT-64" x="527.978516"/>
       <use xlink:href="#ArialMT-65" x="583.59375"/>
       <use xlink:href="#ArialMT-72" x="639.208984"/>
       <use xlink:href="#ArialMT-2d" x="672.509766"/>
       <use xlink:href="#ArialMT-46" x="705.810547"/>
       <use xlink:href="#ArialMT-6c" x="766.894531"/>
       <use xlink:href="#ArialMT-65" x="789.111328"/>
       <use xlink:href="#ArialMT-78" x="844.726562"/>
       <use xlink:href="#ArialMT-69" x="894.726562"/>
       <use xlink:href="#ArialMT-6f" x="916.943359"/>
       <use xlink:href="#ArialMT-6e" x="972.558594"/>
       <use xlink:href="#ArialMT-4c" x="1028.173828"/>
      </g>
      <!-- (binary) -->
      <g transform="translate(90.349955 180.914874) rotate(-60) scale(0.1 -0.1)">
       <use xlink:href="#ArialMT-28"/>
       <use xlink:href="#ArialMT-62" x="33.300781"/>
       <use xlink:href="#ArialMT-69" x="88.916016"/>
       <use xlink:href="#ArialMT-6e" x="111.132812"/>
       <use xlink:href="#ArialMT-61" x="166.748047"/>
       <use xlink:href="#ArialMT-72" x="222.363281"/>
       <use xlink:href="#ArialMT-79" x="255.664062"/>
       <use xlink:href="#ArialMT-29" x="305.664062"/>
      </g>
     </g>
    </g>
   </g>
   <g id="matplotlib.axis_6">
    <g id="ytick_5">
     <g id="line2d_8">
      <g>
       <use xlink:href="#m7513a0dc0b" x="105.211406" y="103.370906" style="stroke: #000000; stroke-width: 0.8"/>
      </g>
     </g>
     <g id="text_9">
      <!-- 0.9 -->
      <g transform="translate(86.811406 106.949813) scale(0.1 -0.1)">
       <defs>
        <path id="ArialMT-39" d="M 350 1059 
L 891 1109 
Q 959 728 1153 556 
Q 1347 384 1650 384 
Q 1909 384 2104 503 
Q 2300 622 2425 820 
Q 2550 1019 2634 1356 
Q 2719 1694 2719 2044 
Q 2719 2081 2716 2156 
Q 2547 1888 2255 1720 
Q 1963 1553 1622 1553 
Q 1053 1553 659 1965 
Q 266 2378 266 3053 
Q 266 3750 677 4175 
Q 1088 4600 1706 4600 
Q 2153 4600 2523 4359 
Q 2894 4119 3086 3673 
Q 3278 3228 3278 2384 
Q 3278 1506 3087 986 
Q 2897 466 2520 194 
Q 2144 -78 1638 -78 
Q 1100 -78 759 220 
Q 419 519 350 1059 
z
M 2653 3081 
Q 2653 3566 2395 3850 
Q 2138 4134 1775 4134 
Q 1400 4134 1122 3828 
Q 844 3522 844 3034 
Q 844 2597 1108 2323 
Q 1372 2050 1759 2050 
Q 2150 2050 2401 2323 
Q 2653 2597 2653 3081 
z
" transform="scale(0.015625)"/>
       </defs>
       <use xlink:href="#ArialMT-30"/>
       <use xlink:href="#ArialMT-2e" x="55.615234"/>
       <use xlink:href="#ArialMT-39" x="83.398438"/>
      </g>
     </g>
    </g>
    <g id="ytick_6">
     <g id="line2d_9">
      <g>
       <use xlink:href="#m7513a0dc0b" x="105.211406" y="3.578906" style="stroke: #000000; stroke-width: 0.8"/>
      </g>
     </g>
     <g id="text_10">
      <!-- 1.0 -->
      <g transform="translate(86.811406 7.157812) scale(0.1 -0.1)">
       <use xlink:href="#ArialMT-31"/>
       <use xlink:href="#ArialMT-2e" x="55.615234"/>
       <use xlink:href="#ArialMT-30" x="83.398438"/>
      </g>
     </g>
    </g>
   </g>
   <g id="patch_9">
    <path d="M 105.211406 103.370906 
L 105.211406 3.578906 
" style="fill: none; stroke: #000000; stroke-width: 0.8; stroke-linejoin: miter; stroke-linecap: square"/>
   </g>
   <g id="patch_10">
    <path d="M 105.211406 103.370906 
L 115.651406 103.370906 
" style="fill: none; stroke: #000000; stroke-width: 0.8; stroke-linejoin: miter; stroke-linecap: square"/>
   </g>
  </g>
  <g id="axes_4">
   <g id="patch_11">
    <path d="M 136.531406 103.370906 
L 146.971406 103.370906 
L 146.971406 3.578906 
L 136.531406 3.578906 
z
" style="fill: #ffffff"/>
   </g>
   <g id="PathCollection_25">
    <path d="M 141.751406 42.142297 
L 138.589129 48.466852 
L 144.913684 48.466852 
z
" style="fill: #7da494; fill-opacity: 0.75"/>
   </g>
   <g id="PathCollection_26">
    <path d="M 141.751406 28.08943 
L 146.223542 23.617294 
L 141.751406 19.145158 
L 137.27927 23.617294 
z
" style="fill: #eab67a; fill-opacity: 0.75"/>
   </g>
   <g id="PathCollection_27">
    <path d="M 140.697314 20.806999 
L 142.805499 20.806999 
L 142.805499 18.698814 
L 144.913684 18.698814 
L 144.913684 16.590628 
L 142.805499 16.590628 
L 142.805499 14.482443 
L 140.697314 14.482443 
L 140.697314 16.590628 
L 138.589129 16.590628 
L 138.589129 18.698814 
L 140.697314 18.698814 
z
" style="fill: #9e97b7; fill-opacity: 0.75"/>
   </g>
   <g id="PathCollection_28">
    <path d="M 138.589129 21.229971 
L 144.913684 21.229971 
L 144.913684 14.905415 
L 138.589129 14.905415 
z
" style="fill: #6e8fb2; fill-opacity: 0.75"/>
   </g>
   <g id="PathCollection_29">
    <path d="M 140.170267 30.022767 
L 138.589129 32.76138 
L 140.170267 35.499993 
L 143.332545 35.499993 
L 144.913684 32.76138 
L 143.332545 30.022767 
z
" style="fill: #ddbf9f; fill-opacity: 0.75"/>
   </g>
   <g id="PathCollection_30">
    <path d="M 144.913684 83.383616 
L 138.589129 80.221339 
L 138.589129 86.545894 
z
" style="fill: #d9a7be; fill-opacity: 0.75"/>
   </g>
   <g id="PathCollection_31">
    <path d="M 140.170267 25.114588 
L 141.751406 23.533449 
L 143.332545 25.114588 
L 144.913684 23.533449 
L 143.332545 21.95231 
L 144.913684 20.371171 
L 143.332545 18.790032 
L 141.751406 20.371171 
L 140.170267 18.790032 
L 138.589129 20.371171 
L 140.170267 21.95231 
L 138.589129 23.533449 
z
" style="fill: #9da6b9; fill-opacity: 0.75"/>
   </g>
   <g id="PathCollection_32">
    <path d="M 141.751406 14.875086 
C 142.590052 14.875086 143.394462 14.541889 143.987474 13.948877 
C 144.580486 13.355864 144.913684 12.551454 144.913684 11.712809 
C 144.913684 10.874163 144.580486 10.069753 143.987474 9.476741 
C 143.394462 8.883728 142.590052 8.550531 141.751406 8.550531 
C 140.91276 8.550531 140.10835 8.883728 139.515338 9.476741 
C 138.922326 10.069753 138.589129 10.874163 138.589129 11.712809 
C 138.589129 12.551454 138.922326 13.355864 139.515338 13.948877 
C 140.10835 14.541889 140.91276 14.875086 141.751406 14.875086 
z
" style="fill: #c16e71; fill-opacity: 0.75"/>
   </g>
   <g id="matplotlib.axis_7">
    <g id="xtick_4">
     <g id="line2d_10">
      <g>
       <use xlink:href="#m174ec7dad5" x="141.751406" y="103.370906" style="stroke: #000000; stroke-width: 0.8"/>
      </g>
     </g>
     <g id="text_11">
      <!-- IRDS-Shoulder-FlexionR -->
      <g transform="translate(92.933066 209.242377) rotate(-60) scale(0.1 -0.1)">
       <use xlink:href="#ArialMT-49"/>
       <use xlink:href="#ArialMT-52" x="27.783203"/>
       <use xlink:href="#ArialMT-44" x="100"/>
       <use xlink:href="#ArialMT-53" x="172.216797"/>
       <use xlink:href="#ArialMT-2d" x="238.916016"/>
       <use xlink:href="#ArialMT-53" x="272.216797"/>
       <use xlink:href="#ArialMT-68" x="338.916016"/>
       <use xlink:href="#ArialMT-6f" x="394.53125"/>
       <use xlink:href="#ArialMT-75" x="450.146484"/>
       <use xlink:href="#ArialMT-6c" x="505.761719"/>
       <use xlink:href="#ArialMT-64" x="527.978516"/>
       <use xlink:href="#ArialMT-65" x="583.59375"/>
       <use xlink:href="#ArialMT-72" x="639.208984"/>
       <use xlink:href="#ArialMT-2d" x="672.509766"/>
       <use xlink:href="#ArialMT-46" x="705.810547"/>
       <use xlink:href="#ArialMT-6c" x="766.894531"/>
       <use xlink:href="#ArialMT-65" x="789.111328"/>
       <use xlink:href="#ArialMT-78" x="844.726562"/>
       <use xlink:href="#ArialMT-69" x="894.726562"/>
       <use xlink:href="#ArialMT-6f" x="916.943359"/>
       <use xlink:href="#ArialMT-6e" x="972.558594"/>
       <use xlink:href="#ArialMT-52" x="1028.173828"/>
      </g>
      <!-- (binary) -->
      <g transform="translate(121.254721 181.634081) rotate(-60) scale(0.1 -0.1)">
       <use xlink:href="#ArialMT-28"/>
       <use xlink:href="#ArialMT-62" x="33.300781"/>
       <use xlink:href="#ArialMT-69" x="88.916016"/>
       <use xlink:href="#ArialMT-6e" x="111.132812"/>
       <use xlink:href="#ArialMT-61" x="166.748047"/>
       <use xlink:href="#ArialMT-72" x="222.363281"/>
       <use xlink:href="#ArialMT-79" x="255.664062"/>
       <use xlink:href="#ArialMT-29" x="305.664062"/>
      </g>
     </g>
    </g>
   </g>
   <g id="matplotlib.axis_8">
    <g id="ytick_7">
     <g id="line2d_11">
      <g>
       <use xlink:href="#m7513a0dc0b" x="136.531406" y="103.370906" style="stroke: #000000; stroke-width: 0.8"/>
      </g>
     </g>
     <g id="text_12">
      <!-- 0.8 -->
      <g transform="translate(118.131406 106.949813) scale(0.1 -0.1)">
       <defs>
        <path id="ArialMT-38" d="M 1131 2484 
Q 781 2613 612 2850 
Q 444 3088 444 3419 
Q 444 3919 803 4259 
Q 1163 4600 1759 4600 
Q 2359 4600 2725 4251 
Q 3091 3903 3091 3403 
Q 3091 3084 2923 2848 
Q 2756 2613 2416 2484 
Q 2838 2347 3058 2040 
Q 3278 1734 3278 1309 
Q 3278 722 2862 322 
Q 2447 -78 1769 -78 
Q 1091 -78 675 323 
Q 259 725 259 1325 
Q 259 1772 486 2073 
Q 713 2375 1131 2484 
z
M 1019 3438 
Q 1019 3113 1228 2906 
Q 1438 2700 1772 2700 
Q 2097 2700 2305 2904 
Q 2513 3109 2513 3406 
Q 2513 3716 2298 3927 
Q 2084 4138 1766 4138 
Q 1444 4138 1231 3931 
Q 1019 3725 1019 3438 
z
M 838 1322 
Q 838 1081 952 856 
Q 1066 631 1291 507 
Q 1516 384 1775 384 
Q 2178 384 2440 643 
Q 2703 903 2703 1303 
Q 2703 1709 2433 1975 
Q 2163 2241 1756 2241 
Q 1359 2241 1098 1978 
Q 838 1716 838 1322 
z
" transform="scale(0.015625)"/>
       </defs>
       <use xlink:href="#ArialMT-30"/>
       <use xlink:href="#ArialMT-2e" x="55.615234"/>
       <use xlink:href="#ArialMT-38" x="83.398438"/>
      </g>
     </g>
    </g>
    <g id="ytick_8">
     <g id="line2d_12">
      <g>
       <use xlink:href="#m7513a0dc0b" x="136.531406" y="3.578906" style="stroke: #000000; stroke-width: 0.8"/>
      </g>
     </g>
     <g id="text_13">
      <!-- 1.0 -->
      <g transform="translate(118.131406 7.157813) scale(0.1 -0.1)">
       <use xlink:href="#ArialMT-31"/>
       <use xlink:href="#ArialMT-2e" x="55.615234"/>
       <use xlink:href="#ArialMT-30" x="83.398438"/>
      </g>
     </g>
    </g>
   </g>
   <g id="patch_12">
    <path d="M 136.531406 103.370906 
L 136.531406 3.578906 
" style="fill: none; stroke: #000000; stroke-width: 0.8; stroke-linejoin: miter; stroke-linecap: square"/>
   </g>
   <g id="patch_13">
    <path d="M 136.531406 103.370906 
L 146.971406 103.370906 
" style="fill: none; stroke: #000000; stroke-width: 0.8; stroke-linejoin: miter; stroke-linecap: square"/>
   </g>
  </g>
  <g id="axes_5">
   <g id="patch_14">
    <path d="M 167.851406 103.370906 
L 178.291406 103.370906 
L 178.291406 3.578906 
L 167.851406 3.578906 
z
" style="fill: #ffffff"/>
   </g>
   <g id="PathCollection_33">
    <path d="M 173.071406 64.770437 
L 169.909129 71.094993 
L 176.233684 71.094993 
z
" style="fill: #7da494; fill-opacity: 0.75"/>
   </g>
   <g id="PathCollection_34">
    <path d="M 173.071406 23.622147 
L 177.543542 19.150011 
L 173.071406 14.677875 
L 168.59927 19.150011 
z
" style="fill: #eab67a; fill-opacity: 0.75"/>
   </g>
   <g id="PathCollection_35">
    <path d="M 172.017314 28.056675 
L 174.125499 28.056675 
L 174.125499 25.94849 
L 176.233684 25.94849 
L 176.233684 23.840305 
L 174.125499 23.840305 
L 174.125499 21.73212 
L 172.017314 21.73212 
L 172.017314 23.840305 
L 169.909129 23.840305 
L 169.909129 25.94849 
L 172.017314 25.94849 
z
" style="fill: #9e97b7; fill-opacity: 0.75"/>
   </g>
   <g id="PathCollection_36">
    <path d="M 169.909129 28.124813 
L 176.233684 28.124813 
L 176.233684 21.800258 
L 169.909129 21.800258 
z
" style="fill: #6e8fb2; fill-opacity: 0.75"/>
   </g>
   <g id="PathCollection_37">
    <path d="M 171.490267 69.147937 
L 169.909129 71.88655 
L 171.490267 74.625163 
L 174.652545 74.625163 
L 176.233684 71.88655 
L 174.652545 69.147937 
z
" style="fill: #ddbf9f; fill-opacity: 0.75"/>
   </g>
   <g id="PathCollection_38">
    <path d="M 176.233684 95.3425 
L 169.909129 92.180222 
L 169.909129 98.504778 
z
" style="fill: #d9a7be; fill-opacity: 0.75"/>
   </g>
   <g id="PathCollection_39">
    <path d="M 171.490267 39.390931 
L 173.071406 37.809792 
L 174.652545 39.390931 
L 176.233684 37.809792 
L 174.652545 36.228653 
L 176.233684 34.647514 
L 174.652545 33.066376 
L 173.071406 34.647514 
L 171.490267 33.066376 
L 169.909129 34.647514 
L 171.490267 36.228653 
L 169.909129 37.809792 
z
" style="fill: #9da6b9; fill-opacity: 0.75"/>
   </g>
   <g id="PathCollection_40">
    <path d="M 173.071406 14.122138 
C 173.910052 14.122138 174.714462 13.78894 175.307474 13.195928 
C 175.900486 12.602916 176.233684 11.798506 176.233684 10.95986 
C 176.233684 10.121214 175.900486 9.316804 175.307474 8.723792 
C 174.714462 8.13078 173.910052 7.797582 173.071406 7.797582 
C 172.23276 7.797582 171.42835 8.13078 170.835338 8.723792 
C 170.242326 9.316804 169.909129 10.121214 169.909129 10.95986 
C 169.909129 11.798506 170.242326 12.602916 170.835338 13.195928 
C 171.42835 13.78894 172.23276 14.122138 173.071406 14.122138 
z
" style="fill: #c16e71; fill-opacity: 0.75"/>
   </g>
   <g id="matplotlib.axis_9">
    <g id="xtick_5">
     <g id="line2d_13">
      <g>
       <use xlink:href="#m174ec7dad5" x="173.071406" y="103.370906" style="stroke: #000000; stroke-width: 0.8"/>
      </g>
     </g>
     <g id="text_14">
      <!-- IRDS-Shoulder-AbductionL -->
      <g transform="translate(118.963222 218.404655) rotate(-60) scale(0.1 -0.1)">
       <defs>
        <path id="ArialMT-63" d="M 2588 1216 
L 3141 1144 
Q 3050 572 2676 248 
Q 2303 -75 1759 -75 
Q 1078 -75 664 370 
Q 250 816 250 1647 
Q 250 2184 428 2587 
Q 606 2991 970 3192 
Q 1334 3394 1763 3394 
Q 2303 3394 2647 3120 
Q 2991 2847 3088 2344 
L 2541 2259 
Q 2463 2594 2264 2762 
Q 2066 2931 1784 2931 
Q 1359 2931 1093 2626 
Q 828 2322 828 1663 
Q 828 994 1084 691 
Q 1341 388 1753 388 
Q 2084 388 2306 591 
Q 2528 794 2588 1216 
z
" transform="scale(0.015625)"/>
        <path id="ArialMT-74" d="M 1650 503 
L 1731 6 
Q 1494 -44 1306 -44 
Q 1000 -44 831 53 
Q 663 150 594 308 
Q 525 466 525 972 
L 525 2881 
L 113 2881 
L 113 3319 
L 525 3319 
L 525 4141 
L 1084 4478 
L 1084 3319 
L 1650 3319 
L 1650 2881 
L 1084 2881 
L 1084 941 
Q 1084 700 1114 631 
Q 1144 563 1211 522 
Q 1278 481 1403 481 
Q 1497 481 1650 503 
z
" transform="scale(0.015625)"/>
       </defs>
       <use xlink:href="#ArialMT-49"/>
       <use xlink:href="#ArialMT-52" x="27.783203"/>
       <use xlink:href="#ArialMT-44" x="100"/>
       <use xlink:href="#ArialMT-53" x="172.216797"/>
       <use xlink:href="#ArialMT-2d" x="238.916016"/>
       <use xlink:href="#ArialMT-53" x="272.216797"/>
       <use xlink:href="#ArialMT-68" x="338.916016"/>
       <use xlink:href="#ArialMT-6f" x="394.53125"/>
       <use xlink:href="#ArialMT-75" x="450.146484"/>
       <use xlink:href="#ArialMT-6c" x="505.761719"/>
       <use xlink:href="#ArialMT-64" x="527.978516"/>
       <use xlink:href="#ArialMT-65" x="583.59375"/>
       <use xlink:href="#ArialMT-72" x="639.208984"/>
       <use xlink:href="#ArialMT-2d" x="672.509766"/>
       <use xlink:href="#ArialMT-41" x="705.810547"/>
       <use xlink:href="#ArialMT-62" x="772.509766"/>
       <use xlink:href="#ArialMT-64" x="828.125"/>
       <use xlink:href="#ArialMT-75" x="883.740234"/>
       <use xlink:href="#ArialMT-63" x="939.355469"/>
       <use xlink:href="#ArialMT-74" x="989.355469"/>
       <use xlink:href="#ArialMT-69" x="1017.138672"/>
       <use xlink:href="#ArialMT-6f" x="1039.355469"/>
       <use xlink:href="#ArialMT-6e" x="1094.970703"/>
       <use xlink:href="#ArialMT-4c" x="1150.585938"/>
      </g>
      <!-- (binary) -->
      <g transform="translate(149.929799 186.21522) rotate(-60) scale(0.1 -0.1)">
       <use xlink:href="#ArialMT-28"/>
       <use xlink:href="#ArialMT-62" x="33.300781"/>
       <use xlink:href="#ArialMT-69" x="88.916016"/>
       <use xlink:href="#ArialMT-6e" x="111.132812"/>
       <use xlink:href="#ArialMT-61" x="166.748047"/>
       <use xlink:href="#ArialMT-72" x="222.363281"/>
       <use xlink:href="#ArialMT-79" x="255.664062"/>
       <use xlink:href="#ArialMT-29" x="305.664062"/>
      </g>
     </g>
    </g>
   </g>
   <g id="matplotlib.axis_10">
    <g id="ytick_9">
     <g id="line2d_14">
      <g>
       <use xlink:href="#m7513a0dc0b" x="167.851406" y="103.370906" style="stroke: #000000; stroke-width: 0.8"/>
      </g>
     </g>
     <g id="text_15">
      <!-- 0.5 -->
      <g transform="translate(149.451406 106.949813) scale(0.1 -0.1)">
       <defs>
        <path id="ArialMT-35" d="M 266 1200 
L 856 1250 
Q 922 819 1161 601 
Q 1400 384 1738 384 
Q 2144 384 2425 690 
Q 2706 997 2706 1503 
Q 2706 1984 2436 2262 
Q 2166 2541 1728 2541 
Q 1456 2541 1237 2417 
Q 1019 2294 894 2097 
L 366 2166 
L 809 4519 
L 3088 4519 
L 3088 3981 
L 1259 3981 
L 1013 2750 
Q 1425 3038 1878 3038 
Q 2478 3038 2890 2622 
Q 3303 2206 3303 1553 
Q 3303 931 2941 478 
Q 2500 -78 1738 -78 
Q 1113 -78 717 272 
Q 322 622 266 1200 
z
" transform="scale(0.015625)"/>
       </defs>
       <use xlink:href="#ArialMT-30"/>
       <use xlink:href="#ArialMT-2e" x="55.615234"/>
       <use xlink:href="#ArialMT-35" x="83.398438"/>
      </g>
     </g>
    </g>
    <g id="ytick_10">
     <g id="line2d_15">
      <g>
       <use xlink:href="#m7513a0dc0b" x="167.851406" y="3.578906" style="stroke: #000000; stroke-width: 0.8"/>
      </g>
     </g>
     <g id="text_16">
      <!-- 1.0 -->
      <g transform="translate(149.451406 7.157813) scale(0.1 -0.1)">
       <use xlink:href="#ArialMT-31"/>
       <use xlink:href="#ArialMT-2e" x="55.615234"/>
       <use xlink:href="#ArialMT-30" x="83.398438"/>
      </g>
     </g>
    </g>
   </g>
   <g id="patch_15">
    <path d="M 167.851406 103.370906 
L 167.851406 3.578906 
" style="fill: none; stroke: #000000; stroke-width: 0.8; stroke-linejoin: miter; stroke-linecap: square"/>
   </g>
   <g id="patch_16">
    <path d="M 167.851406 103.370906 
L 178.291406 103.370906 
" style="fill: none; stroke: #000000; stroke-width: 0.8; stroke-linejoin: miter; stroke-linecap: square"/>
   </g>
  </g>
  <g id="axes_6">
   <g id="patch_17">
    <path d="M 199.171406 103.370906 
L 209.611406 103.370906 
L 209.611406 3.578906 
L 199.171406 3.578906 
z
" style="fill: #ffffff"/>
   </g>
   <g id="PathCollection_41">
    <path d="M 204.391406 21.376713 
L 201.229129 27.701268 
L 207.553684 27.701268 
z
" style="fill: #7da494; fill-opacity: 0.75"/>
   </g>
   <g id="PathCollection_42">
    <path d="M 204.391406 25.219267 
L 208.863542 20.747132 
L 204.391406 16.274996 
L 199.91927 20.747132 
z
" style="fill: #eab67a; fill-opacity: 0.75"/>
   </g>
   <g id="PathCollection_43">
    <path d="M 203.337314 25.255993 
L 205.445499 25.255993 
L 205.445499 23.147808 
L 207.553684 23.147808 
L 207.553684 21.039623 
L 205.445499 21.039623 
L 205.445499 18.931438 
L 203.337314 18.931438 
L 203.337314 21.039623 
L 201.229129 21.039623 
L 201.229129 23.147808 
L 203.337314 23.147808 
z
" style="fill: #9e97b7; fill-opacity: 0.75"/>
   </g>
   <g id="PathCollection_44">
    <path d="M 201.229129 20.768132 
L 207.553684 20.768132 
L 207.553684 14.443577 
L 201.229129 14.443577 
z
" style="fill: #6e8fb2; fill-opacity: 0.75"/>
   </g>
   <g id="PathCollection_45">
    <path d="M 202.810267 74.483721 
L 201.229129 77.222334 
L 202.810267 79.960946 
L 205.972545 79.960946 
L 207.553684 77.222334 
L 205.972545 74.483721 
z
" style="fill: #ddbf9f; fill-opacity: 0.75"/>
   </g>
   <g id="PathCollection_46">
    <path d="M 207.553684 26.197087 
L 201.229129 23.03481 
L 201.229129 29.359365 
z
" style="fill: #d9a7be; fill-opacity: 0.75"/>
   </g>
   <g id="PathCollection_47">
    <path d="M 202.810267 76.390836 
L 204.391406 74.809697 
L 205.972545 76.390836 
L 207.553684 74.809697 
L 205.972545 73.228558 
L 207.553684 71.647419 
L 205.972545 70.06628 
L 204.391406 71.647419 
L 202.810267 70.06628 
L 201.229129 71.647419 
L 202.810267 73.228558 
L 201.229129 74.809697 
z
" style="fill: #9da6b9; fill-opacity: 0.75"/>
   </g>
   <g id="PathCollection_48">
    <path d="M 204.391406 13.139058 
C 205.230052 13.139058 206.034462 12.80586 206.627474 12.212848 
C 207.220486 11.619836 207.553684 10.815426 207.553684 9.97678 
C 207.553684 9.138134 207.220486 8.333724 206.627474 7.740712 
C 206.034462 7.1477 205.230052 6.814502 204.391406 6.814502 
C 203.55276 6.814502 202.74835 7.1477 202.155338 7.740712 
C 201.562326 8.333724 201.229129 9.138134 201.229129 9.97678 
C 201.229129 10.815426 201.562326 11.619836 202.155338 12.212848 
C 202.74835 12.80586 203.55276 13.139058 204.391406 13.139058 
z
" style="fill: #c16e71; fill-opacity: 0.75"/>
   </g>
   <g id="matplotlib.axis_11">
    <g id="xtick_6">
     <g id="line2d_16">
      <g>
       <use xlink:href="#m174ec7dad5" x="204.391406" y="103.370906" style="stroke: #000000; stroke-width: 0.8"/>
      </g>
     </g>
     <g id="text_17">
      <!-- IRDS-Shoulder-AbductionR -->
      <g transform="translate(149.452754 219.843069) rotate(-60) scale(0.1 -0.1)">
       <use xlink:href="#ArialMT-49"/>
       <use xlink:href="#ArialMT-52" x="27.783203"/>
       <use xlink:href="#ArialMT-44" x="100"/>
       <use xlink:href="#ArialMT-53" x="172.216797"/>
       <use xlink:href="#ArialMT-2d" x="238.916016"/>
       <use xlink:href="#ArialMT-53" x="272.216797"/>
       <use xlink:href="#ArialMT-68" x="338.916016"/>
       <use xlink:href="#ArialMT-6f" x="394.53125"/>
       <use xlink:href="#ArialMT-75" x="450.146484"/>
       <use xlink:href="#ArialMT-6c" x="505.761719"/>
       <use xlink:href="#ArialMT-64" x="527.978516"/>
       <use xlink:href="#ArialMT-65" x="583.59375"/>
       <use xlink:href="#ArialMT-72" x="639.208984"/>
       <use xlink:href="#ArialMT-2d" x="672.509766"/>
       <use xlink:href="#ArialMT-41" x="705.810547"/>
       <use xlink:href="#ArialMT-62" x="772.509766"/>
       <use xlink:href="#ArialMT-64" x="828.125"/>
       <use xlink:href="#ArialMT-75" x="883.740234"/>
       <use xlink:href="#ArialMT-63" x="939.355469"/>
       <use xlink:href="#ArialMT-74" x="989.355469"/>
       <use xlink:href="#ArialMT-69" x="1017.138672"/>
       <use xlink:href="#ArialMT-6f" x="1039.355469"/>
       <use xlink:href="#ArialMT-6e" x="1094.970703"/>
       <use xlink:href="#ArialMT-52" x="1150.585938"/>
      </g>
      <!-- (binary) -->
      <g transform="translate(180.834565 186.934427) rotate(-60) scale(0.1 -0.1)">
       <use xlink:href="#ArialMT-28"/>
       <use xlink:href="#ArialMT-62" x="33.300781"/>
       <use xlink:href="#ArialMT-69" x="88.916016"/>
       <use xlink:href="#ArialMT-6e" x="111.132812"/>
       <use xlink:href="#ArialMT-61" x="166.748047"/>
       <use xlink:href="#ArialMT-72" x="222.363281"/>
       <use xlink:href="#ArialMT-79" x="255.664062"/>
       <use xlink:href="#ArialMT-29" x="305.664062"/>
      </g>
     </g>
    </g>
   </g>
   <g id="matplotlib.axis_12">
    <g id="ytick_11">
     <g id="line2d_17">
      <g>
       <use xlink:href="#m7513a0dc0b" x="199.171406" y="103.370906" style="stroke: #000000; stroke-width: 0.8"/>
      </g>
     </g>
     <g id="text_18">
      <!-- 0.6 -->
      <g transform="translate(180.771406 106.949812) scale(0.1 -0.1)">
       <defs>
        <path id="ArialMT-36" d="M 3184 3459 
L 2625 3416 
Q 2550 3747 2413 3897 
Q 2184 4138 1850 4138 
Q 1581 4138 1378 3988 
Q 1113 3794 959 3422 
Q 806 3050 800 2363 
Q 1003 2672 1297 2822 
Q 1591 2972 1913 2972 
Q 2475 2972 2870 2558 
Q 3266 2144 3266 1488 
Q 3266 1056 3080 686 
Q 2894 316 2569 119 
Q 2244 -78 1831 -78 
Q 1128 -78 684 439 
Q 241 956 241 2144 
Q 241 3472 731 4075 
Q 1159 4600 1884 4600 
Q 2425 4600 2770 4297 
Q 3116 3994 3184 3459 
z
M 888 1484 
Q 888 1194 1011 928 
Q 1134 663 1356 523 
Q 1578 384 1822 384 
Q 2178 384 2434 671 
Q 2691 959 2691 1453 
Q 2691 1928 2437 2201 
Q 2184 2475 1800 2475 
Q 1419 2475 1153 2201 
Q 888 1928 888 1484 
z
" transform="scale(0.015625)"/>
       </defs>
       <use xlink:href="#ArialMT-30"/>
       <use xlink:href="#ArialMT-2e" x="55.615234"/>
       <use xlink:href="#ArialMT-36" x="83.398438"/>
      </g>
     </g>
    </g>
    <g id="ytick_12">
     <g id="line2d_18">
      <g>
       <use xlink:href="#m7513a0dc0b" x="199.171406" y="3.578906" style="stroke: #000000; stroke-width: 0.8"/>
      </g>
     </g>
     <g id="text_19">
      <!-- 1.0 -->
      <g transform="translate(180.771406 7.157812) scale(0.1 -0.1)">
       <use xlink:href="#ArialMT-31"/>
       <use xlink:href="#ArialMT-2e" x="55.615234"/>
       <use xlink:href="#ArialMT-30" x="83.398438"/>
      </g>
     </g>
    </g>
   </g>
   <g id="patch_18">
    <path d="M 199.171406 103.370906 
L 199.171406 3.578906 
" style="fill: none; stroke: #000000; stroke-width: 0.8; stroke-linejoin: miter; stroke-linecap: square"/>
   </g>
   <g id="patch_19">
    <path d="M 199.171406 103.370906 
L 209.611406 103.370906 
" style="fill: none; stroke: #000000; stroke-width: 0.8; stroke-linejoin: miter; stroke-linecap: square"/>
   </g>
  </g>
  <g id="axes_7">
   <g id="patch_20">
    <path d="M 230.491406 103.370906 
L 240.931406 103.370906 
L 240.931406 3.578906 
L 230.491406 3.578906 
z
" style="fill: #ffffff"/>
   </g>
   <g id="PathCollection_49">
    <path d="M 235.711406 62.304997 
L 232.549129 68.629552 
L 238.873684 68.629552 
z
" style="fill: #7da494; fill-opacity: 0.75"/>
   </g>
   <g id="PathCollection_50">
    <path d="M 235.711406 18.817993 
L 240.183542 14.345857 
L 235.711406 9.873721 
L 231.23927 14.345857 
z
" style="fill: #eab67a; fill-opacity: 0.75"/>
   </g>
   <g id="PathCollection_51">
    <path d="M 234.657314 23.769079 
L 236.765499 23.769079 
L 236.765499 21.660894 
L 238.873684 21.660894 
L 238.873684 19.552709 
L 236.765499 19.552709 
L 236.765499 17.444523 
L 234.657314 17.444523 
L 234.657314 19.552709 
L 232.549129 19.552709 
L 232.549129 21.660894 
L 234.657314 21.660894 
z
" style="fill: #9e97b7; fill-opacity: 0.75"/>
   </g>
   <g id="PathCollection_52">
    <path d="M 232.549129 20.267293 
L 238.873684 20.267293 
L 238.873684 13.942737 
L 232.549129 13.942737 
z
" style="fill: #6e8fb2; fill-opacity: 0.75"/>
   </g>
   <g id="PathCollection_53">
    <path d="M 234.130267 77.874029 
L 232.549129 80.612642 
L 234.130267 83.351255 
L 237.292545 83.351255 
L 238.873684 80.612642 
L 237.292545 77.874029 
z
" style="fill: #ddbf9f; fill-opacity: 0.75"/>
   </g>
   <g id="PathCollection_54">
    <path d="M 238.873684 62.420012 
L 232.549129 59.257734 
L 232.549129 65.582289 
z
" style="fill: #d9a7be; fill-opacity: 0.75"/>
   </g>
   <g id="PathCollection_55">
    <path d="M 234.130267 92.15635 
L 235.711406 90.575211 
L 237.292545 92.15635 
L 238.873684 90.575211 
L 237.292545 88.994072 
L 238.873684 87.412934 
L 237.292545 85.831795 
L 235.711406 87.412934 
L 234.130267 85.831795 
L 232.549129 87.412934 
L 234.130267 88.994072 
L 232.549129 90.575211 
z
" style="fill: #9da6b9; fill-opacity: 0.75"/>
   </g>
   <g id="PathCollection_56">
    <path d="M 235.711406 11.784236 
C 236.550052 11.784236 237.354462 11.451039 237.947474 10.858026 
C 238.540486 10.265014 238.873684 9.460604 238.873684 8.621958 
C 238.873684 7.783313 238.540486 6.978903 237.947474 6.38589 
C 237.354462 5.792878 236.550052 5.459681 235.711406 5.459681 
C 234.87276 5.459681 234.06835 5.792878 233.475338 6.38589 
C 232.882326 6.978903 232.549129 7.783313 232.549129 8.621958 
C 232.549129 9.460604 232.882326 10.265014 233.475338 10.858026 
C 234.06835 11.451039 234.87276 11.784236 235.711406 11.784236 
z
" style="fill: #c16e71; fill-opacity: 0.75"/>
   </g>
   <g id="matplotlib.axis_13">
    <g id="xtick_7">
     <g id="line2d_19">
      <g>
       <use xlink:href="#m174ec7dad5" x="235.711406" y="103.370906" style="stroke: #000000; stroke-width: 0.8"/>
      </g>
     </g>
     <g id="text_20">
      <!-- IRDS-Shoulder-Forward -->
      <g transform="translate(188.285254 206.831037) rotate(-60) scale(0.1 -0.1)">
       <use xlink:href="#ArialMT-49"/>
       <use xlink:href="#ArialMT-52" x="27.783203"/>
       <use xlink:href="#ArialMT-44" x="100"/>
       <use xlink:href="#ArialMT-53" x="172.216797"/>
       <use xlink:href="#ArialMT-2d" x="238.916016"/>
       <use xlink:href="#ArialMT-53" x="272.216797"/>
       <use xlink:href="#ArialMT-68" x="338.916016"/>
       <use xlink:href="#ArialMT-6f" x="394.53125"/>
       <use xlink:href="#ArialMT-75" x="450.146484"/>
       <use xlink:href="#ArialMT-6c" x="505.761719"/>
       <use xlink:href="#ArialMT-64" x="527.978516"/>
       <use xlink:href="#ArialMT-65" x="583.59375"/>
       <use xlink:href="#ArialMT-72" x="639.208984"/>
       <use xlink:href="#ArialMT-2d" x="672.509766"/>
       <use xlink:href="#ArialMT-46" x="705.810547"/>
       <use xlink:href="#ArialMT-6f" x="766.894531"/>
       <use xlink:href="#ArialMT-72" x="822.509766"/>
       <use xlink:href="#ArialMT-77" x="855.810547"/>
       <use xlink:href="#ArialMT-61" x="928.027344"/>
       <use xlink:href="#ArialMT-72" x="983.642578"/>
       <use xlink:href="#ArialMT-64" x="1016.943359"/>
      </g>
      <!-- (binary) -->
      <g transform="translate(215.910815 180.428412) rotate(-60) scale(0.1 -0.1)">
       <use xlink:href="#ArialMT-28"/>
       <use xlink:href="#ArialMT-62" x="33.300781"/>
       <use xlink:href="#ArialMT-69" x="88.916016"/>
       <use xlink:href="#ArialMT-6e" x="111.132812"/>
       <use xlink:href="#ArialMT-61" x="166.748047"/>
       <use xlink:href="#ArialMT-72" x="222.363281"/>
       <use xlink:href="#ArialMT-79" x="255.664062"/>
       <use xlink:href="#ArialMT-29" x="305.664062"/>
      </g>
     </g>
    </g>
   </g>
   <g id="matplotlib.axis_14">
    <g id="ytick_13">
     <g id="line2d_20">
      <g>
       <use xlink:href="#m7513a0dc0b" x="230.491406" y="103.370906" style="stroke: #000000; stroke-width: 0.8"/>
      </g>
     </g>
     <g id="text_21">
      <!-- 0.8 -->
      <g transform="translate(212.091406 106.949813) scale(0.1 -0.1)">
       <use xlink:href="#ArialMT-30"/>
       <use xlink:href="#ArialMT-2e" x="55.615234"/>
       <use xlink:href="#ArialMT-38" x="83.398438"/>
      </g>
     </g>
    </g>
    <g id="ytick_14">
     <g id="line2d_21">
      <g>
       <use xlink:href="#m7513a0dc0b" x="230.491406" y="3.578906" style="stroke: #000000; stroke-width: 0.8"/>
      </g>
     </g>
     <g id="text_22">
      <!-- 1.0 -->
      <g transform="translate(212.091406 7.157813) scale(0.1 -0.1)">
       <use xlink:href="#ArialMT-31"/>
       <use xlink:href="#ArialMT-2e" x="55.615234"/>
       <use xlink:href="#ArialMT-30" x="83.398438"/>
      </g>
     </g>
    </g>
   </g>
   <g id="patch_21">
    <path d="M 230.491406 103.370906 
L 230.491406 3.578906 
" style="fill: none; stroke: #000000; stroke-width: 0.8; stroke-linejoin: miter; stroke-linecap: square"/>
   </g>
   <g id="patch_22">
    <path d="M 230.491406 103.370906 
L 240.931406 103.370906 
" style="fill: none; stroke: #000000; stroke-width: 0.8; stroke-linejoin: miter; stroke-linecap: square"/>
   </g>
  </g>
  <g id="axes_8">
   <g id="patch_23">
    <path d="M 261.811406 103.370906 
L 272.251406 103.370906 
L 272.251406 3.578906 
L 261.811406 3.578906 
z
" style="fill: #ffffff"/>
   </g>
   <g id="PathCollection_57">
    <path d="M 267.031406 55.778008 
L 263.869129 62.102563 
L 270.193684 62.102563 
z
" style="fill: #7da494; fill-opacity: 0.75"/>
   </g>
   <g id="PathCollection_58">
    <path d="M 267.031406 60.116747 
L 271.503542 55.644611 
L 267.031406 51.172475 
L 262.55927 55.644611 
z
" style="fill: #eab67a; fill-opacity: 0.75"/>
   </g>
   <g id="PathCollection_59">
    <path d="M 265.977314 32.111089 
L 268.085499 32.111089 
L 268.085499 30.002903 
L 270.193684 30.002903 
L 270.193684 27.894718 
L 268.085499 27.894718 
L 268.085499 25.786533 
L 265.977314 25.786533 
L 265.977314 27.894718 
L 263.869129 27.894718 
L 263.869129 30.002903 
L 265.977314 30.002903 
z
" style="fill: #9e97b7; fill-opacity: 0.75"/>
   </g>
   <g id="PathCollection_60">
    <path d="M 263.869129 61.396021 
L 270.193684 61.396021 
L 270.193684 55.071466 
L 263.869129 55.071466 
z
" style="fill: #6e8fb2; fill-opacity: 0.75"/>
   </g>
   <g id="PathCollection_61">
    <path d="M 265.450267 38.458435 
L 263.869129 41.197047 
L 265.450267 43.93566 
L 268.612545 43.93566 
L 270.193684 41.197047 
L 268.612545 38.458435 
z
" style="fill: #ddbf9f; fill-opacity: 0.75"/>
   </g>
   <g id="PathCollection_62">
    <path d="M 270.193684 79.245966 
L 263.869129 76.083688 
L 263.869129 82.408243 
z
" style="fill: #d9a7be; fill-opacity: 0.75"/>
   </g>
   <g id="PathCollection_63">
    <path d="M 265.450267 100.255718 
L 267.031406 98.674579 
L 268.612545 100.255718 
L 270.193684 98.674579 
L 268.612545 97.093441 
L 270.193684 95.512302 
L 268.612545 93.931163 
L 267.031406 95.512302 
L 265.450267 93.931163 
L 263.869129 95.512302 
L 265.450267 97.093441 
L 263.869129 98.674579 
z
" style="fill: #9da6b9; fill-opacity: 0.75"/>
   </g>
   <g id="PathCollection_64">
    <path d="M 267.031406 18.899871 
C 267.870052 18.899871 268.674462 18.566674 269.267474 17.973661 
C 269.860486 17.380649 270.193684 16.576239 270.193684 15.737593 
C 270.193684 14.898948 269.860486 14.094538 269.267474 13.501526 
C 268.674462 12.908513 267.870052 12.575316 267.031406 12.575316 
C 266.19276 12.575316 265.38835 12.908513 264.795338 13.501526 
C 264.202326 14.094538 263.869129 14.898948 263.869129 15.737593 
C 263.869129 16.576239 264.202326 17.380649 264.795338 17.973661 
C 265.38835 18.566674 266.19276 18.899871 267.031406 18.899871 
z
" style="fill: #c16e71; fill-opacity: 0.75"/>
   </g>
   <g id="matplotlib.axis_15">
    <g id="xtick_8">
     <g id="line2d_22">
      <g>
       <use xlink:href="#m174ec7dad5" x="267.031406" y="103.370906" style="stroke: #000000; stroke-width: 0.8"/>
      </g>
     </g>
     <g id="text_23">
      <!-- IRDS-Side-TapL -->
      <g transform="translate(237.213926 176.575673) rotate(-60) scale(0.1 -0.1)">
       <defs>
        <path id="ArialMT-54" d="M 1659 0 
L 1659 4041 
L 150 4041 
L 150 4581 
L 3781 4581 
L 3781 4041 
L 2266 4041 
L 2266 0 
L 1659 0 
z
" transform="scale(0.015625)"/>
        <path id="ArialMT-70" d="M 422 -1272 
L 422 3319 
L 934 3319 
L 934 2888 
Q 1116 3141 1344 3267 
Q 1572 3394 1897 3394 
Q 2322 3394 2647 3175 
Q 2972 2956 3137 2557 
Q 3303 2159 3303 1684 
Q 3303 1175 3120 767 
Q 2938 359 2589 142 
Q 2241 -75 1856 -75 
Q 1575 -75 1351 44 
Q 1128 163 984 344 
L 984 -1272 
L 422 -1272 
z
M 931 1641 
Q 931 1000 1190 694 
Q 1450 388 1819 388 
Q 2194 388 2461 705 
Q 2728 1022 2728 1688 
Q 2728 2322 2467 2637 
Q 2206 2953 1844 2953 
Q 1484 2953 1207 2617 
Q 931 2281 931 1641 
z
" transform="scale(0.015625)"/>
       </defs>
       <use xlink:href="#ArialMT-49"/>
       <use xlink:href="#ArialMT-52" x="27.783203"/>
       <use xlink:href="#ArialMT-44" x="100"/>
       <use xlink:href="#ArialMT-53" x="172.216797"/>
       <use xlink:href="#ArialMT-2d" x="238.916016"/>
       <use xlink:href="#ArialMT-53" x="272.216797"/>
       <use xlink:href="#ArialMT-69" x="338.916016"/>
       <use xlink:href="#ArialMT-64" x="361.132812"/>
       <use xlink:href="#ArialMT-65" x="416.748047"/>
       <use xlink:href="#ArialMT-2d" x="472.363281"/>
       <use xlink:href="#ArialMT-54" x="505.664062"/>
       <use xlink:href="#ArialMT-61" x="555.623047"/>
       <use xlink:href="#ArialMT-70" x="611.238281"/>
       <use xlink:href="#ArialMT-4c" x="666.853516"/>
      </g>
      <!-- (binary) -->
      <g transform="translate(256.087924 165.331198) rotate(-60) scale(0.1 -0.1)">
       <use xlink:href="#ArialMT-28"/>
       <use xlink:href="#ArialMT-62" x="33.300781"/>
       <use xlink:href="#ArialMT-69" x="88.916016"/>
       <use xlink:href="#ArialMT-6e" x="111.132812"/>
       <use xlink:href="#ArialMT-61" x="166.748047"/>
       <use xlink:href="#ArialMT-72" x="222.363281"/>
       <use xlink:href="#ArialMT-79" x="255.664062"/>
       <use xlink:href="#ArialMT-29" x="305.664062"/>
      </g>
     </g>
    </g>
   </g>
   <g id="matplotlib.axis_16">
    <g id="ytick_15">
     <g id="line2d_23">
      <g>
       <use xlink:href="#m7513a0dc0b" x="261.811406" y="103.370906" style="stroke: #000000; stroke-width: 0.8"/>
      </g>
     </g>
     <g id="text_24">
      <!-- 0.6 -->
      <g transform="translate(243.411406 106.949812) scale(0.1 -0.1)">
       <use xlink:href="#ArialMT-30"/>
       <use xlink:href="#ArialMT-2e" x="55.615234"/>
       <use xlink:href="#ArialMT-36" x="83.398438"/>
      </g>
     </g>
    </g>
    <g id="ytick_16">
     <g id="line2d_24">
      <g>
       <use xlink:href="#m7513a0dc0b" x="261.811406" y="3.578906" style="stroke: #000000; stroke-width: 0.8"/>
      </g>
     </g>
     <g id="text_25">
      <!-- 1.0 -->
      <g transform="translate(243.411406 7.157812) scale(0.1 -0.1)">
       <use xlink:href="#ArialMT-31"/>
       <use xlink:href="#ArialMT-2e" x="55.615234"/>
       <use xlink:href="#ArialMT-30" x="83.398438"/>
      </g>
     </g>
    </g>
   </g>
   <g id="patch_24">
    <path d="M 261.811406 103.370906 
L 261.811406 3.578906 
" style="fill: none; stroke: #000000; stroke-width: 0.8; stroke-linejoin: miter; stroke-linecap: square"/>
   </g>
   <g id="patch_25">
    <path d="M 261.811406 103.370906 
L 272.251406 103.370906 
" style="fill: none; stroke: #000000; stroke-width: 0.8; stroke-linejoin: miter; stroke-linecap: square"/>
   </g>
  </g>
  <g id="axes_9">
   <g id="patch_26">
    <path d="M 293.131406 103.370906 
L 303.571406 103.370906 
L 303.571406 3.578906 
L 293.131406 3.578906 
z
" style="fill: #ffffff"/>
   </g>
   <g id="PathCollection_65">
    <path d="M 298.351406 82.138131 
L 295.189129 88.462686 
L 301.513684 88.462686 
z
" style="fill: #7da494; fill-opacity: 0.75"/>
   </g>
   <g id="PathCollection_66">
    <path d="M 298.351406 60.047502 
L 302.823542 55.575366 
L 298.351406 51.10323 
L 293.87927 55.575366 
z
" style="fill: #eab67a; fill-opacity: 0.75"/>
   </g>
   <g id="PathCollection_67">
    <path d="M 297.297314 91.754706 
L 299.405499 91.754706 
L 299.405499 89.646521 
L 301.513684 89.646521 
L 301.513684 87.538336 
L 299.405499 87.538336 
L 299.405499 85.430151 
L 297.297314 85.430151 
L 297.297314 87.538336 
L 295.189129 87.538336 
L 295.189129 89.646521 
L 297.297314 89.646521 
z
" style="fill: #9e97b7; fill-opacity: 0.75"/>
   </g>
   <g id="PathCollection_68">
    <path d="M 295.189129 50.72233 
L 301.513684 50.72233 
L 301.513684 44.397775 
L 295.189129 44.397775 
z
" style="fill: #6e8fb2; fill-opacity: 0.75"/>
   </g>
   <g id="PathCollection_69">
    <path d="M 296.770267 68.594737 
L 295.189129 71.33335 
L 296.770267 74.071963 
L 299.932545 74.071963 
L 301.513684 71.33335 
L 299.932545 68.594737 
z
" style="fill: #ddbf9f; fill-opacity: 0.75"/>
   </g>
   <g id="PathCollection_70">
    <path d="M 301.513684 61.518973 
L 295.189129 58.356695 
L 295.189129 64.681251 
z
" style="fill: #d9a7be; fill-opacity: 0.75"/>
   </g>
   <g id="PathCollection_71">
    <path d="M 296.770267 80.778598 
L 298.351406 79.19746 
L 299.932545 80.778598 
L 301.513684 79.19746 
L 299.932545 77.616321 
L 301.513684 76.035182 
L 299.932545 74.454043 
L 298.351406 76.035182 
L 296.770267 74.454043 
L 295.189129 76.035182 
L 296.770267 77.616321 
L 295.189129 79.19746 
z
" style="fill: #9da6b9; fill-opacity: 0.75"/>
   </g>
   <g id="PathCollection_72">
    <path d="M 298.351406 32.544721 
C 299.190052 32.544721 299.994462 32.211524 300.587474 31.618512 
C 301.180486 31.0255 301.513684 30.22109 301.513684 29.382444 
C 301.513684 28.543798 301.180486 27.739388 300.587474 27.146376 
C 299.994462 26.553364 299.190052 26.220166 298.351406 26.220166 
C 297.51276 26.220166 296.70835 26.553364 296.115338 27.146376 
C 295.522326 27.739388 295.189129 28.543798 295.189129 29.382444 
C 295.189129 30.22109 295.522326 31.0255 296.115338 31.618512 
C 296.70835 32.211524 297.51276 32.544721 298.351406 32.544721 
z
" style="fill: #c16e71; fill-opacity: 0.75"/>
   </g>
   <g id="matplotlib.axis_17">
    <g id="xtick_9">
     <g id="line2d_25">
      <g>
       <use xlink:href="#m174ec7dad5" x="298.351406" y="103.370906" style="stroke: #000000; stroke-width: 0.8"/>
      </g>
     </g>
     <g id="text_26">
      <!-- IRDS-Side-TapR -->
      <g transform="translate(267.703457 178.014087) rotate(-60) scale(0.1 -0.1)">
       <use xlink:href="#ArialMT-49"/>
       <use xlink:href="#ArialMT-52" x="27.783203"/>
       <use xlink:href="#ArialMT-44" x="100"/>
       <use xlink:href="#ArialMT-53" x="172.216797"/>
       <use xlink:href="#ArialMT-2d" x="238.916016"/>
       <use xlink:href="#ArialMT-53" x="272.216797"/>
       <use xlink:href="#ArialMT-69" x="338.916016"/>
       <use xlink:href="#ArialMT-64" x="361.132812"/>
       <use xlink:href="#ArialMT-65" x="416.748047"/>
       <use xlink:href="#ArialMT-2d" x="472.363281"/>
       <use xlink:href="#ArialMT-54" x="505.664062"/>
       <use xlink:href="#ArialMT-61" x="555.623047"/>
       <use xlink:href="#ArialMT-70" x="611.238281"/>
       <use xlink:href="#ArialMT-52" x="666.853516"/>
      </g>
      <!-- (binary) -->
      <g transform="translate(286.99269 166.050405) rotate(-60) scale(0.1 -0.1)">
       <use xlink:href="#ArialMT-28"/>
       <use xlink:href="#ArialMT-62" x="33.300781"/>
       <use xlink:href="#ArialMT-69" x="88.916016"/>
       <use xlink:href="#ArialMT-6e" x="111.132812"/>
       <use xlink:href="#ArialMT-61" x="166.748047"/>
       <use xlink:href="#ArialMT-72" x="222.363281"/>
       <use xlink:href="#ArialMT-79" x="255.664062"/>
       <use xlink:href="#ArialMT-29" x="305.664062"/>
      </g>
     </g>
    </g>
   </g>
   <g id="matplotlib.axis_18">
    <g id="ytick_17">
     <g id="line2d_26">
      <g>
       <use xlink:href="#m7513a0dc0b" x="293.131406" y="103.370906" style="stroke: #000000; stroke-width: 0.8"/>
      </g>
     </g>
     <g id="text_27">
      <!-- 0.7 -->
      <g transform="translate(274.731406 106.949813) scale(0.1 -0.1)">
       <use xlink:href="#ArialMT-30"/>
       <use xlink:href="#ArialMT-2e" x="55.615234"/>
       <use xlink:href="#ArialMT-37" x="83.398438"/>
      </g>
     </g>
    </g>
    <g id="ytick_18">
     <g id="line2d_27">
      <g>
       <use xlink:href="#m7513a0dc0b" x="293.131406" y="3.578906" style="stroke: #000000; stroke-width: 0.8"/>
      </g>
     </g>
     <g id="text_28">
      <!-- 1.0 -->
      <g transform="translate(274.731406 7.157813) scale(0.1 -0.1)">
       <use xlink:href="#ArialMT-31"/>
       <use xlink:href="#ArialMT-2e" x="55.615234"/>
       <use xlink:href="#ArialMT-30" x="83.398438"/>
      </g>
     </g>
    </g>
   </g>
   <g id="patch_27">
    <path d="M 293.131406 103.370906 
L 293.131406 3.578906 
" style="fill: none; stroke: #000000; stroke-width: 0.8; stroke-linejoin: miter; stroke-linecap: square"/>
   </g>
   <g id="patch_28">
    <path d="M 293.131406 103.370906 
L 303.571406 103.370906 
" style="fill: none; stroke: #000000; stroke-width: 0.8; stroke-linejoin: miter; stroke-linecap: square"/>
   </g>
  </g>
  <g id="axes_10">
   <g id="patch_29">
    <path d="M 324.451406 103.370906 
L 334.891406 103.370906 
L 334.891406 3.578906 
L 324.451406 3.578906 
z
" style="fill: #ffffff"/>
   </g>
   <g id="PathCollection_73">
    <path d="M 329.671406 55.061062 
L 326.509129 61.385617 
L 332.833684 61.385617 
z
" style="fill: #7da494; fill-opacity: 0.75"/>
   </g>
   <g id="PathCollection_74">
    <path d="M 329.671406 54.003174 
L 334.143542 49.531038 
L 329.671406 45.058902 
L 325.19927 49.531038 
z
" style="fill: #eab67a; fill-opacity: 0.75"/>
   </g>
   <g id="PathCollection_75">
    <path d="M 328.617314 50.693536 
L 330.725499 50.693536 
L 330.725499 48.585351 
L 332.833684 48.585351 
L 332.833684 46.477166 
L 330.725499 46.477166 
L 330.725499 44.368981 
L 328.617314 44.368981 
L 328.617314 46.477166 
L 326.509129 46.477166 
L 326.509129 48.585351 
L 328.617314 48.585351 
z
" style="fill: #9e97b7; fill-opacity: 0.75"/>
   </g>
   <g id="PathCollection_76">
    <path d="M 326.509129 65.807156 
L 332.833684 65.807156 
L 332.833684 59.482601 
L 326.509129 59.482601 
z
" style="fill: #6e8fb2; fill-opacity: 0.75"/>
   </g>
   <g id="PathCollection_77">
    <path d="M 328.090267 57.672785 
L 326.509129 60.411398 
L 328.090267 63.150011 
L 331.252545 63.150011 
L 332.833684 60.411398 
L 331.252545 57.672785 
z
" style="fill: #ddbf9f; fill-opacity: 0.75"/>
   </g>
   <g id="PathCollection_78">
    <path d="M 332.833684 51.663632 
L 326.509129 48.501354 
L 326.509129 54.825909 
z
" style="fill: #d9a7be; fill-opacity: 0.75"/>
   </g>
   <g id="PathCollection_79">
    <path d="M 328.090267 57.046132 
L 329.671406 55.464993 
L 331.252545 57.046132 
L 332.833684 55.464993 
L 331.252545 53.883854 
L 332.833684 52.302715 
L 331.252545 50.721576 
L 329.671406 52.302715 
L 328.090267 50.721576 
L 326.509129 52.302715 
L 328.090267 53.883854 
L 326.509129 55.464993 
z
" style="fill: #9da6b9; fill-opacity: 0.75"/>
   </g>
   <g id="PathCollection_80">
    <path d="M 329.671406 41.92885 
C 330.510052 41.92885 331.314462 41.595652 331.907474 41.00264 
C 332.500486 40.409628 332.833684 39.605218 332.833684 38.766572 
C 332.833684 37.927926 332.500486 37.123516 331.907474 36.530504 
C 331.314462 35.937492 330.510052 35.604295 329.671406 35.604295 
C 328.83276 35.604295 328.02835 35.937492 327.435338 36.530504 
C 326.842326 37.123516 326.509129 37.927926 326.509129 38.766572 
C 326.509129 39.605218 326.842326 40.409628 327.435338 41.00264 
C 328.02835 41.595652 328.83276 41.92885 329.671406 41.92885 
z
" style="fill: #c16e71; fill-opacity: 0.75"/>
   </g>
   <g id="matplotlib.axis_19">
    <g id="xtick_10">
     <g id="line2d_28">
      <g>
       <use xlink:href="#m174ec7dad5" x="329.671406" y="103.370906" style="stroke: #000000; stroke-width: 0.8"/>
      </g>
     </g>
     <g id="text_29">
      <!-- TRSP-Seated-Motion -->
      <g transform="translate(288.353066 196.251995) rotate(-60) scale(0.1 -0.1)">
       <defs>
        <path id="ArialMT-50" d="M 494 0 
L 494 4581 
L 2222 4581 
Q 2678 4581 2919 4538 
Q 3256 4481 3484 4323 
Q 3713 4166 3852 3881 
Q 3991 3597 3991 3256 
Q 3991 2672 3619 2267 
Q 3247 1863 2275 1863 
L 1100 1863 
L 1100 0 
L 494 0 
z
M 1100 2403 
L 2284 2403 
Q 2872 2403 3119 2622 
Q 3366 2841 3366 3238 
Q 3366 3525 3220 3729 
Q 3075 3934 2838 4000 
Q 2684 4041 2272 4041 
L 1100 4041 
L 1100 2403 
z
" transform="scale(0.015625)"/>
        <path id="ArialMT-4d" d="M 475 0 
L 475 4581 
L 1388 4581 
L 2472 1338 
Q 2622 884 2691 659 
Q 2769 909 2934 1394 
L 4031 4581 
L 4847 4581 
L 4847 0 
L 4263 0 
L 4263 3834 
L 2931 0 
L 2384 0 
L 1059 3900 
L 1059 0 
L 475 0 
z
" transform="scale(0.015625)"/>
       </defs>
       <use xlink:href="#ArialMT-54"/>
       <use xlink:href="#ArialMT-52" x="61.083984"/>
       <use xlink:href="#ArialMT-53" x="133.300781"/>
       <use xlink:href="#ArialMT-50" x="200"/>
       <use xlink:href="#ArialMT-2d" x="266.699219"/>
       <use xlink:href="#ArialMT-53" x="300"/>
       <use xlink:href="#ArialMT-65" x="366.699219"/>
       <use xlink:href="#ArialMT-61" x="422.314453"/>
       <use xlink:href="#ArialMT-74" x="477.929688"/>
       <use xlink:href="#ArialMT-65" x="505.712891"/>
       <use xlink:href="#ArialMT-64" x="561.328125"/>
       <use xlink:href="#ArialMT-2d" x="616.943359"/>
       <use xlink:href="#ArialMT-4d" x="650.244141"/>
       <use xlink:href="#ArialMT-6f" x="733.544922"/>
       <use xlink:href="#ArialMT-74" x="789.160156"/>
       <use xlink:href="#ArialMT-69" x="816.943359"/>
       <use xlink:href="#ArialMT-6f" x="839.160156"/>
       <use xlink:href="#ArialMT-6e" x="894.775391"/>
      </g>
      <!-- (4-class) -->
      <g transform="translate(311.814955 177.061061) rotate(-60) scale(0.1 -0.1)">
       <defs>
        <path id="ArialMT-73" d="M 197 991 
L 753 1078 
Q 800 744 1014 566 
Q 1228 388 1613 388 
Q 2000 388 2187 545 
Q 2375 703 2375 916 
Q 2375 1106 2209 1216 
Q 2094 1291 1634 1406 
Q 1016 1563 777 1677 
Q 538 1791 414 1992 
Q 291 2194 291 2438 
Q 291 2659 392 2848 
Q 494 3038 669 3163 
Q 800 3259 1026 3326 
Q 1253 3394 1513 3394 
Q 1903 3394 2198 3281 
Q 2494 3169 2634 2976 
Q 2775 2784 2828 2463 
L 2278 2388 
Q 2241 2644 2061 2787 
Q 1881 2931 1553 2931 
Q 1166 2931 1000 2803 
Q 834 2675 834 2503 
Q 834 2394 903 2306 
Q 972 2216 1119 2156 
Q 1203 2125 1616 2013 
Q 2213 1853 2448 1751 
Q 2684 1650 2818 1456 
Q 2953 1263 2953 975 
Q 2953 694 2789 445 
Q 2625 197 2315 61 
Q 2006 -75 1616 -75 
Q 969 -75 630 194 
Q 291 463 197 991 
z
" transform="scale(0.015625)"/>
       </defs>
       <use xlink:href="#ArialMT-28"/>
       <use xlink:href="#ArialMT-34" x="33.300781"/>
       <use xlink:href="#ArialMT-2d" x="88.916016"/>
       <use xlink:href="#ArialMT-63" x="122.216797"/>
       <use xlink:href="#ArialMT-6c" x="172.216797"/>
       <use xlink:href="#ArialMT-61" x="194.433594"/>
       <use xlink:href="#ArialMT-73" x="250.048828"/>
       <use xlink:href="#ArialMT-73" x="300.048828"/>
       <use xlink:href="#ArialMT-29" x="350.048828"/>
      </g>
     </g>
    </g>
   </g>
   <g id="matplotlib.axis_20">
    <g id="ytick_19">
     <g id="line2d_29">
      <g>
       <use xlink:href="#m7513a0dc0b" x="324.451406" y="103.370906" style="stroke: #000000; stroke-width: 0.8"/>
      </g>
     </g>
     <g id="text_30">
      <!-- 0.8 -->
      <g transform="translate(306.051406 106.949813) scale(0.1 -0.1)">
       <use xlink:href="#ArialMT-30"/>
       <use xlink:href="#ArialMT-2e" x="55.615234"/>
       <use xlink:href="#ArialMT-38" x="83.398438"/>
      </g>
     </g>
    </g>
    <g id="ytick_20">
     <g id="line2d_30">
      <g>
       <use xlink:href="#m7513a0dc0b" x="324.451406" y="3.578906" style="stroke: #000000; stroke-width: 0.8"/>
      </g>
     </g>
     <g id="text_31">
      <!-- 1.0 -->
      <g transform="translate(306.051406 7.157813) scale(0.1 -0.1)">
       <use xlink:href="#ArialMT-31"/>
       <use xlink:href="#ArialMT-2e" x="55.615234"/>
       <use xlink:href="#ArialMT-30" x="83.398438"/>
      </g>
     </g>
    </g>
   </g>
   <g id="patch_30">
    <path d="M 324.451406 103.370906 
L 324.451406 3.578906 
" style="fill: none; stroke: #000000; stroke-width: 0.8; stroke-linejoin: miter; stroke-linecap: square"/>
   </g>
   <g id="patch_31">
    <path d="M 324.451406 103.370906 
L 334.891406 103.370906 
" style="fill: none; stroke: #000000; stroke-width: 0.8; stroke-linejoin: miter; stroke-linecap: square"/>
   </g>
  </g>
  <g id="axes_11">
   <g id="patch_32">
    <path d="M 355.771406 103.370906 
L 366.211406 103.370906 
L 366.211406 3.578906 
L 355.771406 3.578906 
z
" style="fill: #ffffff"/>
   </g>
   <g id="PathCollection_81">
    <path d="M 360.991406 24.581367 
C 361.830052 24.581367 362.634462 24.24817 363.227474 23.655157 
C 363.820486 23.062145 364.153684 22.257735 364.153684 21.419089 
C 364.153684 20.580444 363.820486 19.776034 363.227474 19.183022 
C 362.634462 18.590009 361.830052 18.256812 360.991406 18.256812 
C 360.15276 18.256812 359.34835 18.590009 358.755338 19.183022 
C 358.162326 19.776034 357.829129 20.580444 357.829129 21.419089 
C 357.829129 22.257735 358.162326 23.062145 358.755338 23.655157 
C 359.34835 24.24817 360.15276 24.581367 360.991406 24.581367 
z
" style="fill: #c16e71"/>
   </g>
   <g id="PathCollection_82">
    <defs>
     <path id="maf2ec5751f" d="M 0 -3.162278 
L -3.007505 -0.977198 
L -1.85874 2.558336 
L 1.85874 2.558336 
L 3.007505 -0.977198 
z
" style="stroke: #8a8a8a"/>
    </defs>
    <g>
     <use xlink:href="#maf2ec5751f" x="360.991406" y="76.313125" style="fill: #8a8a8a; stroke: #8a8a8a"/>
    </g>
   </g>
   <g id="matplotlib.axis_21">
    <g id="xtick_11">
     <g id="line2d_31">
      <g>
       <use xlink:href="#m174ec7dad5" x="360.991406" y="103.370906" style="stroke: #000000; stroke-width: 0.8"/>
      </g>
     </g>
     <g id="text_32">
      <!-- Mean -->
      <g transform="translate(354.684004 135.611273) rotate(-60) scale(0.1 -0.1)">
       <use xlink:href="#ArialMT-4d"/>
       <use xlink:href="#ArialMT-65" x="83.300781"/>
       <use xlink:href="#ArialMT-61" x="138.916016"/>
       <use xlink:href="#ArialMT-6e" x="194.53125"/>
      </g>
     </g>
    </g>
   </g>
   <g id="matplotlib.axis_22">
    <g id="ytick_21">
     <g id="line2d_32">
      <g>
       <use xlink:href="#m7513a0dc0b" x="355.771406" y="103.370906" style="stroke: #000000; stroke-width: 0.8"/>
      </g>
     </g>
     <g id="text_33">
      <!-- 0.8 -->
      <g transform="translate(337.371406 106.949813) scale(0.1 -0.1)">
       <use xlink:href="#ArialMT-30"/>
       <use xlink:href="#ArialMT-2e" x="55.615234"/>
       <use xlink:href="#ArialMT-38" x="83.398438"/>
      </g>
     </g>
    </g>
    <g id="ytick_22">
     <g id="line2d_33">
      <g>
       <use xlink:href="#m7513a0dc0b" x="355.771406" y="3.578906" style="stroke: #000000; stroke-width: 0.8"/>
      </g>
     </g>
     <g id="text_34">
      <!-- 1.0 -->
      <g transform="translate(337.371406 7.157813) scale(0.1 -0.1)">
       <use xlink:href="#ArialMT-31"/>
       <use xlink:href="#ArialMT-2e" x="55.615234"/>
       <use xlink:href="#ArialMT-30" x="83.398438"/>
      </g>
     </g>
    </g>
   </g>
   <g id="line2d_34">
    <path d="M 365.689406 21.419089 
L 365.689406 76.313125 
" style="fill: none; stroke: #000000; stroke-width: 0.8; stroke-linecap: square"/>
   </g>
   <g id="patch_33">
    <path d="M 355.771406 103.370906 
L 355.771406 3.578906 
" style="fill: none; stroke: #000000; stroke-width: 0.8; stroke-linejoin: miter; stroke-linecap: square"/>
   </g>
   <g id="patch_34">
    <path d="M 355.771406 103.370906 
L 366.211406 103.370906 
" style="fill: none; stroke: #000000; stroke-width: 0.8; stroke-linejoin: miter; stroke-linecap: square"/>
   </g>
   <g id="text_35">
    <!-- $P$ = 0.0001 -->
    <g transform="translate(366.733406 51.451264) scale(0.1 -0.1)">
     <defs>
      <path id="DejaVuSans-Oblique-50" d="M 1081 4666 
L 2541 4666 
Q 3178 4666 3512 4369 
Q 3847 4072 3847 3500 
Q 3847 2731 3353 2303 
Q 2859 1875 1966 1875 
L 1172 1875 
L 806 0 
L 172 0 
L 1081 4666 
z
M 1613 4147 
L 1275 2394 
L 2069 2394 
Q 2606 2394 2893 2669 
Q 3181 2944 3181 3456 
Q 3181 3784 2986 3965 
Q 2791 4147 2438 4147 
L 1613 4147 
z
" transform="scale(0.015625)"/>
      <path id="ArialMT-20" transform="scale(0.015625)"/>
      <path id="ArialMT-3d" d="M 3381 2694 
L 356 2694 
L 356 3219 
L 3381 3219 
L 3381 2694 
z
M 3381 1303 
L 356 1303 
L 356 1828 
L 3381 1828 
L 3381 1303 
z
" transform="scale(0.015625)"/>
     </defs>
     <use xlink:href="#DejaVuSans-Oblique-50" transform="translate(0 0.09375)"/>
     <use xlink:href="#ArialMT-20" transform="translate(60.302734 0.09375)"/>
     <use xlink:href="#ArialMT-3d" transform="translate(88.085938 0.09375)"/>
     <use xlink:href="#ArialMT-20" transform="translate(146.484375 0.09375)"/>
     <use xlink:href="#ArialMT-30" transform="translate(174.267578 0.09375)"/>
     <use xlink:href="#ArialMT-2e" transform="translate(229.882812 0.09375)"/>
     <use xlink:href="#ArialMT-30" transform="translate(257.666016 0.09375)"/>
     <use xlink:href="#ArialMT-30" transform="translate(313.28125 0.09375)"/>
     <use xlink:href="#ArialMT-30" transform="translate(368.896484 0.09375)"/>
     <use xlink:href="#ArialMT-31" transform="translate(424.511719 0.09375)"/>
    </g>
   </g>
  </g>
 </g>
</svg>
