<?xml version="1.0" encoding="utf-8" standalone="no"?>
<!DOCTYPE svg PUBLIC "-//W3C//DTD SVG 1.1//EN"
  "http://www.w3.org/Graphics/SVG/1.1/DTD/svg11.dtd">
<svg xmlns:xlink="http://www.w3.org/1999/xlink" width="414.833406pt" height="226.256975pt" viewBox="0 0 414.833406 226.256975" xmlns="http://www.w3.org/2000/svg" version="1.1">
 <metadata>
  <rdf:RDF xmlns:dc="http://purl.org/dc/elements/1.1/" xmlns:cc="http://creativecommons.org/ns#" xmlns:rdf="http://www.w3.org/1999/02/22-rdf-syntax-ns#">
   <cc:Work>
    <dc:type rdf:resource="http://purl.org/dc/dcmitype/StillImage"/>
    <dc:date>2026-05-16T21:51:03.739542</dc:date>
    <dc:format>image/svg+xml</dc:format>
    <dc:creator>
     <cc:Agent>
      <dc:title>Matplotlib v3.9.2, https://matplotlib.org/</dc:title>
     </cc:Agent>
    </dc:creator>
   </cc:Work>
  </rdf:RDF>
 </metadata>
 <defs>
  <style type="text/css">*{stroke-linejoin: round; stroke-linecap: butt}</style>
 </defs>
 <g id="figure_1">
  <g id="patch_1">
   <path d="M 0 226.256975 
L 414.833406 226.256975 
L 414.833406 0 
L 0 0 
z
" style="fill: #ffffff"/>
  </g>
  <g id="axes_1">
   <g id="patch_2">
    <path d="M 42.571406 103.370906 
L 53.011406 103.370906 
L 53.011406 3.578906 
L 42.571406 3.578906 
z
" style="fill: #ffffff"/>
   </g>
   <g id="PathCollection_1">
    <path d="M 47.791406 74.658807 
L 44.629129 80.983362 
L 50.953684 80.983362 
z
" style="fill: #7da494; fill-opacity: 0.75"/>
   </g>
   <g id="PathCollection_2">
    <path d="M 47.791406 66.700101 
L 52.263542 62.227965 
L 47.791406 57.755829 
L 43.31927 62.227965 
z
" style="fill: #eab67a; fill-opacity: 0.75"/>
   </g>
   <g id="PathCollection_3">
    <path d="M 46.737314 41.02192 
L 48.845499 41.02192 
L 48.845499 38.913735 
L 50.953684 38.913735 
L 50.953684 36.80555 
L 48.845499 36.80555 
L 48.845499 34.697364 
L 46.737314 34.697364 
L 46.737314 36.80555 
L 44.629129 36.80555 
L 44.629129 38.913735 
L 46.737314 38.913735 
z
" style="fill: #9e97b7; fill-opacity: 0.75"/>
   </g>
   <g id="PathCollection_4">
    <path d="M 44.629129 23.795423 
L 50.953684 23.795423 
L 50.953684 17.470867 
L 44.629129 17.470867 
z
" style="fill: #6e8fb2; fill-opacity: 0.75"/>
   </g>
   <g id="PathCollection_5">
    <path d="M 46.210267 46.111675 
L 44.629129 48.850287 
L 46.210267 51.5889 
L 49.372545 51.5889 
L 50.953684 48.850287 
L 49.372545 46.111675 
z
" style="fill: #ddbf9f; fill-opacity: 0.75"/>
   </g>
   <g id="PathCollection_6">
    <path d="M 50.953684 100.206566 
L 44.629129 97.044289 
L 44.629129 103.368844 
z
" style="fill: #d9a7be; fill-opacity: 0.75"/>
   </g>
   <g id="PathCollection_7">
    <path d="M 46.210267 64.307068 
L 47.791406 62.725929 
L 49.372545 64.307068 
L 50.953684 62.725929 
L 49.372545 61.144791 
L 50.953684 59.563652 
L 49.372545 57.982513 
L 47.791406 59.563652 
L 46.210267 57.982513 
L 44.629129 59.563652 
L 46.210267 61.144791 
L 44.629129 62.725929 
z
" style="fill: #9da6b9; fill-opacity: 0.75"/>
   </g>
   <g id="PathCollection_8">
    <path d="M 47.791406 8.797829 
C 48.630052 8.797829 49.434462 8.464632 50.027474 7.871619 
C 50.620486 7.278607 50.953684 6.474197 50.953684 5.635551 
C 50.953684 4.796906 50.620486 3.992496 50.027474 3.399483 
C 49.434462 2.806471 48.630052 2.473274 47.791406 2.473274 
C 46.95276 2.473274 46.14835 2.806471 45.555338 3.399483 
C 44.962326 3.992496 44.629129 4.796906 44.629129 5.635551 
C 44.629129 6.474197 44.962326 7.278607 45.555338 7.871619 
C 46.14835 8.464632 46.95276 8.797829 47.791406 8.797829 
z
" style="fill: #c16e71; fill-opacity: 0.75"/>
   </g>
   <g id="matplotlib.axis_1">
    <g id="xtick_1">
     <g id="line2d_1">
      <defs>
       <path id="mce524c02c3" d="M 0 0 
L 0 3.5 
" style="stroke: #000000; stroke-width: 0.8"/>
      </defs>
      <g>
       <use xlink:href="#mce524c02c3" x="47.791406" y="103.370906" style="stroke: #000000; stroke-width: 0.8"/>
      </g>
     </g>
     <g id="text_1">
      <!-- IRDS-Elbow-FlexionL -->
      <g transform="translate(6.198847 196.726956) rotate(-60) scale(0.1 -0.1)">
       <defs>
        <path id="ArialMT-49" d="M 597 0 
L 597 4581 
L 1203 4581 
L 1203 0 
L 597 0 
z
" transform="scale(0.015625)"/>
        <path id="ArialMT-52" d="M 503 0 
L 503 4581 
L 2534 4581 
Q 3147 4581 3465 4457 
Q 3784 4334 3975 4021 
Q 4166 3709 4166 3331 
Q 4166 2844 3850 2509 
Q 3534 2175 2875 2084 
Q 3116 1969 3241 1856 
Q 3506 1613 3744 1247 
L 4541 0 
L 3778 0 
L 3172 953 
Q 2906 1366 2734 1584 
Q 2563 1803 2427 1890 
Q 2291 1978 2150 2013 
Q 2047 2034 1813 2034 
L 1109 2034 
L 1109 0 
L 503 0 
z
M 1109 2559 
L 2413 2559 
Q 2828 2559 3062 2645 
Q 3297 2731 3419 2920 
Q 3541 3109 3541 3331 
Q 3541 3656 3305 3865 
Q 3069 4075 2559 4075 
L 1109 4075 
L 1109 2559 
z
" transform="scale(0.015625)"/>
        <path id="ArialMT-44" d="M 494 0 
L 494 4581 
L 2072 4581 
Q 2606 4581 2888 4516 
Q 3281 4425 3559 4188 
Q 3922 3881 4101 3404 
Q 4281 2928 4281 2316 
Q 4281 1794 4159 1391 
Q 4038 988 3847 723 
Q 3656 459 3429 307 
Q 3203 156 2883 78 
Q 2563 0 2147 0 
L 494 0 
z
M 1100 541 
L 2078 541 
Q 2531 541 2789 625 
Q 3047 709 3200 863 
Q 3416 1078 3536 1442 
Q 3656 1806 3656 2325 
Q 3656 3044 3420 3430 
Q 3184 3816 2847 3947 
Q 2603 4041 2063 4041 
L 1100 4041 
L 1100 541 
z
" transform="scale(0.015625)"/>
        <path id="ArialMT-53" d="M 288 1472 
L 859 1522 
Q 900 1178 1048 958 
Q 1197 738 1509 602 
Q 1822 466 2213 466 
Q 2559 466 2825 569 
Q 3091 672 3220 851 
Q 3350 1031 3350 1244 
Q 3350 1459 3225 1620 
Q 3100 1781 2813 1891 
Q 2628 1963 1997 2114 
Q 1366 2266 1113 2400 
Q 784 2572 623 2826 
Q 463 3081 463 3397 
Q 463 3744 659 4045 
Q 856 4347 1234 4503 
Q 1613 4659 2075 4659 
Q 2584 4659 2973 4495 
Q 3363 4331 3572 4012 
Q 3781 3694 3797 3291 
L 3216 3247 
Q 3169 3681 2898 3903 
Q 2628 4125 2100 4125 
Q 1550 4125 1298 3923 
Q 1047 3722 1047 3438 
Q 1047 3191 1225 3031 
Q 1400 2872 2139 2705 
Q 2878 2538 3153 2413 
Q 3553 2228 3743 1945 
Q 3934 1663 3934 1294 
Q 3934 928 3725 604 
Q 3516 281 3123 101 
Q 2731 -78 2241 -78 
Q 1619 -78 1198 103 
Q 778 284 539 648 
Q 300 1013 288 1472 
z
" transform="scale(0.015625)"/>
        <path id="ArialMT-2d" d="M 203 1375 
L 203 1941 
L 1931 1941 
L 1931 1375 
L 203 1375 
z
" transform="scale(0.015625)"/>
        <path id="ArialMT-45" d="M 506 0 
L 506 4581 
L 3819 4581 
L 3819 4041 
L 1113 4041 
L 1113 2638 
L 3647 2638 
L 3647 2100 
L 1113 2100 
L 1113 541 
L 3925 541 
L 3925 0 
L 506 0 
z
" transform="scale(0.015625)"/>
        <path id="ArialMT-6c" d="M 409 0 
L 409 4581 
L 972 4581 
L 972 0 
L 409 0 
z
" transform="scale(0.015625)"/>
        <path id="ArialMT-62" d="M 941 0 
L 419 0 
L 419 4581 
L 981 4581 
L 981 2947 
Q 1338 3394 1891 3394 
Q 2197 3394 2470 3270 
Q 2744 3147 2920 2923 
Q 3097 2700 3197 2384 
Q 3297 2069 3297 1709 
Q 3297 856 2875 390 
Q 2453 -75 1863 -75 
Q 1275 -75 941 416 
L 941 0 
z
M 934 1684 
Q 934 1088 1097 822 
Q 1363 388 1816 388 
Q 2184 388 2453 708 
Q 2722 1028 2722 1663 
Q 2722 2313 2464 2622 
Q 2206 2931 1841 2931 
Q 1472 2931 1203 2611 
Q 934 2291 934 1684 
z
" transform="scale(0.015625)"/>
        <path id="ArialMT-6f" d="M 213 1659 
Q 213 2581 725 3025 
Q 1153 3394 1769 3394 
Q 2453 3394 2887 2945 
Q 3322 2497 3322 1706 
Q 3322 1066 3130 698 
Q 2938 331 2570 128 
Q 2203 -75 1769 -75 
Q 1072 -75 642 372 
Q 213 819 213 1659 
z
M 791 1659 
Q 791 1022 1069 705 
Q 1347 388 1769 388 
Q 2188 388 2466 706 
Q 2744 1025 2744 1678 
Q 2744 2294 2464 2611 
Q 2184 2928 1769 2928 
Q 1347 2928 1069 2612 
Q 791 2297 791 1659 
z
" transform="scale(0.015625)"/>
        <path id="ArialMT-77" d="M 1034 0 
L 19 3319 
L 600 3319 
L 1128 1403 
L 1325 691 
Q 1338 744 1497 1375 
L 2025 3319 
L 2603 3319 
L 3100 1394 
L 3266 759 
L 3456 1400 
L 4025 3319 
L 4572 3319 
L 3534 0 
L 2950 0 
L 2422 1988 
L 2294 2553 
L 1622 0 
L 1034 0 
z
" transform="scale(0.015625)"/>
        <path id="ArialMT-46" d="M 525 0 
L 525 4581 
L 3616 4581 
L 3616 4041 
L 1131 4041 
L 1131 2622 
L 3281 2622 
L 3281 2081 
L 1131 2081 
L 1131 0 
L 525 0 
z
" transform="scale(0.015625)"/>
        <path id="ArialMT-65" d="M 2694 1069 
L 3275 997 
Q 3138 488 2766 206 
Q 2394 -75 1816 -75 
Q 1088 -75 661 373 
Q 234 822 234 1631 
Q 234 2469 665 2931 
Q 1097 3394 1784 3394 
Q 2450 3394 2872 2941 
Q 3294 2488 3294 1666 
Q 3294 1616 3291 1516 
L 816 1516 
Q 847 969 1125 678 
Q 1403 388 1819 388 
Q 2128 388 2347 550 
Q 2566 713 2694 1069 
z
M 847 1978 
L 2700 1978 
Q 2663 2397 2488 2606 
Q 2219 2931 1791 2931 
Q 1403 2931 1139 2672 
Q 875 2413 847 1978 
z
" transform="scale(0.015625)"/>
        <path id="ArialMT-78" d="M 47 0 
L 1259 1725 
L 138 3319 
L 841 3319 
L 1350 2541 
Q 1494 2319 1581 2169 
Q 1719 2375 1834 2534 
L 2394 3319 
L 3066 3319 
L 1919 1756 
L 3153 0 
L 2463 0 
L 1781 1031 
L 1600 1309 
L 728 0 
L 47 0 
z
" transform="scale(0.015625)"/>
        <path id="ArialMT-69" d="M 425 3934 
L 425 4581 
L 988 4581 
L 988 3934 
L 425 3934 
z
M 425 0 
L 425 3319 
L 988 3319 
L 988 0 
L 425 0 
z
" transform="scale(0.015625)"/>
        <path id="ArialMT-6e" d="M 422 0 
L 422 3319 
L 928 3319 
L 928 2847 
Q 1294 3394 1984 3394 
Q 2284 3394 2536 3286 
Q 2788 3178 2913 3003 
Q 3038 2828 3088 2588 
Q 3119 2431 3119 2041 
L 3119 0 
L 2556 0 
L 2556 2019 
Q 2556 2363 2490 2533 
Q 2425 2703 2258 2804 
Q 2091 2906 1866 2906 
Q 1506 2906 1245 2678 
Q 984 2450 984 1813 
L 984 0 
L 422 0 
z
" transform="scale(0.015625)"/>
        <path id="ArialMT-4c" d="M 469 0 
L 469 4581 
L 1075 4581 
L 1075 541 
L 3331 541 
L 3331 0 
L 469 0 
z
" transform="scale(0.015625)"/>
       </defs>
       <use xlink:href="#ArialMT-49"/>
       <use xlink:href="#ArialMT-52" x="27.783203"/>
       <use xlink:href="#ArialMT-44" x="100"/>
       <use xlink:href="#ArialMT-53" x="172.216797"/>
       <use xlink:href="#ArialMT-2d" x="238.916016"/>
       <use xlink:href="#ArialMT-45" x="272.216797"/>
       <use xlink:href="#ArialMT-6c" x="338.916016"/>
       <use xlink:href="#ArialMT-62" x="361.132812"/>
       <use xlink:href="#ArialMT-6f" x="416.748047"/>
       <use xlink:href="#ArialMT-77" x="472.363281"/>
       <use xlink:href="#ArialMT-2d" x="544.580078"/>
       <use xlink:href="#ArialMT-46" x="577.880859"/>
       <use xlink:href="#ArialMT-6c" x="638.964844"/>
       <use xlink:href="#ArialMT-65" x="661.181641"/>
       <use xlink:href="#ArialMT-78" x="716.796875"/>
       <use xlink:href="#ArialMT-69" x="766.796875"/>
       <use xlink:href="#ArialMT-6f" x="789.013672"/>
       <use xlink:href="#ArialMT-6e" x="844.628906"/>
       <use xlink:href="#ArialMT-4c" x="900.244141"/>
      </g>
      <!-- (binary) -->
      <g transform="translate(30.907612 175.376371) rotate(-60) scale(0.1 -0.1)">
       <defs>
        <path id="ArialMT-28" d="M 1497 -1347 
Q 1031 -759 709 28 
Q 388 816 388 1659 
Q 388 2403 628 3084 
Q 909 3875 1497 4659 
L 1900 4659 
Q 1522 4009 1400 3731 
Q 1209 3300 1100 2831 
Q 966 2247 966 1656 
Q 966 153 1900 -1347 
L 1497 -1347 
z
" transform="scale(0.015625)"/>
        <path id="ArialMT-61" d="M 2588 409 
Q 2275 144 1986 34 
Q 1697 -75 1366 -75 
Q 819 -75 525 192 
Q 231 459 231 875 
Q 231 1119 342 1320 
Q 453 1522 633 1644 
Q 813 1766 1038 1828 
Q 1203 1872 1538 1913 
Q 2219 1994 2541 2106 
Q 2544 2222 2544 2253 
Q 2544 2597 2384 2738 
Q 2169 2928 1744 2928 
Q 1347 2928 1158 2789 
Q 969 2650 878 2297 
L 328 2372 
Q 403 2725 575 2942 
Q 747 3159 1072 3276 
Q 1397 3394 1825 3394 
Q 2250 3394 2515 3294 
Q 2781 3194 2906 3042 
Q 3031 2891 3081 2659 
Q 3109 2516 3109 2141 
L 3109 1391 
Q 3109 606 3145 398 
Q 3181 191 3288 0 
L 2700 0 
Q 2613 175 2588 409 
z
M 2541 1666 
Q 2234 1541 1622 1453 
Q 1275 1403 1131 1340 
Q 988 1278 909 1158 
Q 831 1038 831 891 
Q 831 666 1001 516 
Q 1172 366 1500 366 
Q 1825 366 2078 508 
Q 2331 650 2450 897 
Q 2541 1088 2541 1459 
L 2541 1666 
z
" transform="scale(0.015625)"/>
        <path id="ArialMT-72" d="M 416 0 
L 416 3319 
L 922 3319 
L 922 2816 
Q 1116 3169 1280 3281 
Q 1444 3394 1641 3394 
Q 1925 3394 2219 3213 
L 2025 2691 
Q 1819 2813 1613 2813 
Q 1428 2813 1281 2702 
Q 1134 2591 1072 2394 
Q 978 2094 978 1738 
L 978 0 
L 416 0 
z
" transform="scale(0.015625)"/>
        <path id="ArialMT-79" d="M 397 -1278 
L 334 -750 
Q 519 -800 656 -800 
Q 844 -800 956 -737 
Q 1069 -675 1141 -563 
Q 1194 -478 1313 -144 
Q 1328 -97 1363 -6 
L 103 3319 
L 709 3319 
L 1400 1397 
Q 1534 1031 1641 628 
Q 1738 1016 1872 1384 
L 2581 3319 
L 3144 3319 
L 1881 -56 
Q 1678 -603 1566 -809 
Q 1416 -1088 1222 -1217 
Q 1028 -1347 759 -1347 
Q 597 -1347 397 -1278 
z
" transform="scale(0.015625)"/>
        <path id="ArialMT-29" d="M 791 -1347 
L 388 -1347 
Q 1322 153 1322 1656 
Q 1322 2244 1188 2822 
Q 1081 3291 891 3722 
Q 769 4003 388 4659 
L 791 4659 
Q 1378 3875 1659 3084 
Q 1900 2403 1900 1659 
Q 1900 816 1576 28 
Q 1253 -759 791 -1347 
z
" transform="scale(0.015625)"/>
       </defs>
       <use xlink:href="#ArialMT-28"/>
       <use xlink:href="#ArialMT-62" x="33.300781"/>
       <use xlink:href="#ArialMT-69" x="88.916016"/>
       <use xlink:href="#ArialMT-6e" x="111.132812"/>
       <use xlink:href="#ArialMT-61" x="166.748047"/>
       <use xlink:href="#ArialMT-72" x="222.363281"/>
       <use xlink:href="#ArialMT-79" x="255.664062"/>
       <use xlink:href="#ArialMT-29" x="305.664062"/>
      </g>
     </g>
    </g>
   </g>
   <g id="matplotlib.axis_2">
    <g id="ytick_1">
     <g id="line2d_2">
      <defs>
       <path id="me0ce9187b3" d="M 0 0 
L -3.5 0 
" style="stroke: #000000; stroke-width: 0.8"/>
      </defs>
      <g>
       <use xlink:href="#me0ce9187b3" x="42.571406" y="103.370906" style="stroke: #000000; stroke-width: 0.8"/>
      </g>
     </g>
     <g id="text_2">
      <!-- 68 -->
      <g transform="translate(26.949531 106.949813) scale(0.1 -0.1)">
       <defs>
        <path id="ArialMT-36" d="M 3184 3459 
L 2625 3416 
Q 2550 3747 2413 3897 
Q 2184 4138 1850 4138 
Q 1581 4138 1378 3988 
Q 1113 3794 959 3422 
Q 806 3050 800 2363 
Q 1003 2672 1297 2822 
Q 1591 2972 1913 2972 
Q 2475 2972 2870 2558 
Q 3266 2144 3266 1488 
Q 3266 1056 3080 686 
Q 2894 316 2569 119 
Q 2244 -78 1831 -78 
Q 1128 -78 684 439 
Q 241 956 241 2144 
Q 241 3472 731 4075 
Q 1159 4600 1884 4600 
Q 2425 4600 2770 4297 
Q 3116 3994 3184 3459 
z
M 888 1484 
Q 888 1194 1011 928 
Q 1134 663 1356 523 
Q 1578 384 1822 384 
Q 2178 384 2434 671 
Q 2691 959 2691 1453 
Q 2691 1928 2437 2201 
Q 2184 2475 1800 2475 
Q 1419 2475 1153 2201 
Q 888 1928 888 1484 
z
" transform="scale(0.015625)"/>
        <path id="ArialMT-38" d="M 1131 2484 
Q 781 2613 612 2850 
Q 444 3088 444 3419 
Q 444 3919 803 4259 
Q 1163 4600 1759 4600 
Q 2359 4600 2725 4251 
Q 3091 3903 3091 3403 
Q 3091 3084 2923 2848 
Q 2756 2613 2416 2484 
Q 2838 2347 3058 2040 
Q 3278 1734 3278 1309 
Q 3278 722 2862 322 
Q 2447 -78 1769 -78 
Q 1091 -78 675 323 
Q 259 725 259 1325 
Q 259 1772 486 2073 
Q 713 2375 1131 2484 
z
M 1019 3438 
Q 1019 3113 1228 2906 
Q 1438 2700 1772 2700 
Q 2097 2700 2305 2904 
Q 2513 3109 2513 3406 
Q 2513 3716 2298 3927 
Q 2084 4138 1766 4138 
Q 1444 4138 1231 3931 
Q 1019 3725 1019 3438 
z
M 838 1322 
Q 838 1081 952 856 
Q 1066 631 1291 507 
Q 1516 384 1775 384 
Q 2178 384 2440 643 
Q 2703 903 2703 1303 
Q 2703 1709 2433 1975 
Q 2163 2241 1756 2241 
Q 1359 2241 1098 1978 
Q 838 1716 838 1322 
z
" transform="scale(0.015625)"/>
       </defs>
       <use xlink:href="#ArialMT-36"/>
       <use xlink:href="#ArialMT-38" x="55.615234"/>
      </g>
     </g>
    </g>
    <g id="ytick_2">
     <g id="line2d_3">
      <g>
       <use xlink:href="#me0ce9187b3" x="42.571406" y="3.578906" style="stroke: #000000; stroke-width: 0.8"/>
      </g>
     </g>
     <g id="text_3">
      <!-- 99 -->
      <g transform="translate(26.949531 7.157813) scale(0.1 -0.1)">
       <defs>
        <path id="ArialMT-39" d="M 350 1059 
L 891 1109 
Q 959 728 1153 556 
Q 1347 384 1650 384 
Q 1909 384 2104 503 
Q 2300 622 2425 820 
Q 2550 1019 2634 1356 
Q 2719 1694 2719 2044 
Q 2719 2081 2716 2156 
Q 2547 1888 2255 1720 
Q 1963 1553 1622 1553 
Q 1053 1553 659 1965 
Q 266 2378 266 3053 
Q 266 3750 677 4175 
Q 1088 4600 1706 4600 
Q 2153 4600 2523 4359 
Q 2894 4119 3086 3673 
Q 3278 3228 3278 2384 
Q 3278 1506 3087 986 
Q 2897 466 2520 194 
Q 2144 -78 1638 -78 
Q 1100 -78 759 220 
Q 419 519 350 1059 
z
M 2653 3081 
Q 2653 3566 2395 3850 
Q 2138 4134 1775 4134 
Q 1400 4134 1122 3828 
Q 844 3522 844 3034 
Q 844 2597 1108 2323 
Q 1372 2050 1759 2050 
Q 2150 2050 2401 2323 
Q 2653 2597 2653 3081 
z
" transform="scale(0.015625)"/>
       </defs>
       <use xlink:href="#ArialMT-39"/>
       <use xlink:href="#ArialMT-39" x="55.615234"/>
      </g>
     </g>
    </g>
    <g id="text_4">
     <!-- Balanced accuracy (%) -->
     <g transform="translate(20.844844 104.8835) rotate(-90) scale(0.1 -0.1)">
      <defs>
       <path id="ArialMT-42" d="M 469 0 
L 469 4581 
L 2188 4581 
Q 2713 4581 3030 4442 
Q 3347 4303 3526 4014 
Q 3706 3725 3706 3409 
Q 3706 3116 3547 2856 
Q 3388 2597 3066 2438 
Q 3481 2316 3704 2022 
Q 3928 1728 3928 1328 
Q 3928 1006 3792 729 
Q 3656 453 3456 303 
Q 3256 153 2954 76 
Q 2653 0 2216 0 
L 469 0 
z
M 1075 2656 
L 2066 2656 
Q 2469 2656 2644 2709 
Q 2875 2778 2992 2937 
Q 3109 3097 3109 3338 
Q 3109 3566 3000 3739 
Q 2891 3913 2687 3977 
Q 2484 4041 1991 4041 
L 1075 4041 
L 1075 2656 
z
M 1075 541 
L 2216 541 
Q 2509 541 2628 563 
Q 2838 600 2978 687 
Q 3119 775 3209 942 
Q 3300 1109 3300 1328 
Q 3300 1584 3169 1773 
Q 3038 1963 2805 2039 
Q 2572 2116 2134 2116 
L 1075 2116 
L 1075 541 
z
" transform="scale(0.015625)"/>
       <path id="ArialMT-63" d="M 2588 1216 
L 3141 1144 
Q 3050 572 2676 248 
Q 2303 -75 1759 -75 
Q 1078 -75 664 370 
Q 250 816 250 1647 
Q 250 2184 428 2587 
Q 606 2991 970 3192 
Q 1334 3394 1763 3394 
Q 2303 3394 2647 3120 
Q 2991 2847 3088 2344 
L 2541 2259 
Q 2463 2594 2264 2762 
Q 2066 2931 1784 2931 
Q 1359 2931 1093 2626 
Q 828 2322 828 1663 
Q 828 994 1084 691 
Q 1341 388 1753 388 
Q 2084 388 2306 591 
Q 2528 794 2588 1216 
z
" transform="scale(0.015625)"/>
       <path id="ArialMT-64" d="M 2575 0 
L 2575 419 
Q 2259 -75 1647 -75 
Q 1250 -75 917 144 
Q 584 363 401 755 
Q 219 1147 219 1656 
Q 219 2153 384 2558 
Q 550 2963 881 3178 
Q 1213 3394 1622 3394 
Q 1922 3394 2156 3267 
Q 2391 3141 2538 2938 
L 2538 4581 
L 3097 4581 
L 3097 0 
L 2575 0 
z
M 797 1656 
Q 797 1019 1065 703 
Q 1334 388 1700 388 
Q 2069 388 2326 689 
Q 2584 991 2584 1609 
Q 2584 2291 2321 2609 
Q 2059 2928 1675 2928 
Q 1300 2928 1048 2622 
Q 797 2316 797 1656 
z
" transform="scale(0.015625)"/>
       <path id="ArialMT-20" transform="scale(0.015625)"/>
       <path id="ArialMT-75" d="M 2597 0 
L 2597 488 
Q 2209 -75 1544 -75 
Q 1250 -75 995 37 
Q 741 150 617 320 
Q 494 491 444 738 
Q 409 903 409 1263 
L 409 3319 
L 972 3319 
L 972 1478 
Q 972 1038 1006 884 
Q 1059 663 1231 536 
Q 1403 409 1656 409 
Q 1909 409 2131 539 
Q 2353 669 2445 892 
Q 2538 1116 2538 1541 
L 2538 3319 
L 3100 3319 
L 3100 0 
L 2597 0 
z
" transform="scale(0.015625)"/>
       <path id="ArialMT-25" d="M 372 3481 
Q 372 3972 619 4315 
Q 866 4659 1334 4659 
Q 1766 4659 2048 4351 
Q 2331 4044 2331 3447 
Q 2331 2866 2045 2552 
Q 1759 2238 1341 2238 
Q 925 2238 648 2547 
Q 372 2856 372 3481 
z
M 1350 4272 
Q 1141 4272 1002 4090 
Q 863 3909 863 3425 
Q 863 2984 1003 2804 
Q 1144 2625 1350 2625 
Q 1563 2625 1702 2806 
Q 1841 2988 1841 3469 
Q 1841 3913 1700 4092 
Q 1559 4272 1350 4272 
z
M 1353 -169 
L 3859 4659 
L 4316 4659 
L 1819 -169 
L 1353 -169 
z
M 3334 1075 
Q 3334 1569 3581 1911 
Q 3828 2253 4300 2253 
Q 4731 2253 5014 1945 
Q 5297 1638 5297 1041 
Q 5297 459 5011 145 
Q 4725 -169 4303 -169 
Q 3888 -169 3611 142 
Q 3334 453 3334 1075 
z
M 4316 1866 
Q 4103 1866 3964 1684 
Q 3825 1503 3825 1019 
Q 3825 581 3965 400 
Q 4106 219 4313 219 
Q 4528 219 4667 400 
Q 4806 581 4806 1063 
Q 4806 1506 4665 1686 
Q 4525 1866 4316 1866 
z
" transform="scale(0.015625)"/>
      </defs>
      <use xlink:href="#ArialMT-42"/>
      <use xlink:href="#ArialMT-61" x="66.699219"/>
      <use xlink:href="#ArialMT-6c" x="122.314453"/>
      <use xlink:href="#ArialMT-61" x="144.53125"/>
      <use xlink:href="#ArialMT-6e" x="200.146484"/>
      <use xlink:href="#ArialMT-63" x="255.761719"/>
      <use xlink:href="#ArialMT-65" x="305.761719"/>
      <use xlink:href="#ArialMT-64" x="361.376953"/>
      <use xlink:href="#ArialMT-20" x="416.992188"/>
      <use xlink:href="#ArialMT-61" x="444.775391"/>
      <use xlink:href="#ArialMT-63" x="500.390625"/>
      <use xlink:href="#ArialMT-63" x="550.390625"/>
      <use xlink:href="#ArialMT-75" x="600.390625"/>
      <use xlink:href="#ArialMT-72" x="656.005859"/>
      <use xlink:href="#ArialMT-61" x="689.306641"/>
      <use xlink:href="#ArialMT-63" x="744.921875"/>
      <use xlink:href="#ArialMT-79" x="794.921875"/>
      <use xlink:href="#ArialMT-20" x="844.921875"/>
      <use xlink:href="#ArialMT-28" x="872.705078"/>
      <use xlink:href="#ArialMT-25" x="906.005859"/>
      <use xlink:href="#ArialMT-29" x="994.921875"/>
     </g>
    </g>
   </g>
   <g id="patch_3">
    <path d="M 42.571406 103.370906 
L 42.571406 3.578906 
" style="fill: none; stroke: #000000; stroke-width: 0.8; stroke-linejoin: miter; stroke-linecap: square"/>
   </g>
   <g id="patch_4">
    <path d="M 42.571406 103.370906 
L 53.011406 103.370906 
" style="fill: none; stroke: #000000; stroke-width: 0.8; stroke-linejoin: miter; stroke-linecap: square"/>
   </g>
  </g>
  <g id="axes_2">
   <g id="patch_5">
    <path d="M 73.891406 103.370906 
L 84.331406 103.370906 
L 84.331406 3.578906 
L 73.891406 3.578906 
z
" style="fill: #ffffff"/>
   </g>
   <g id="PathCollection_9">
    <path d="M 79.111406 56.788969 
L 75.949129 63.113524 
L 82.273684 63.113524 
z
" style="fill: #7da494; fill-opacity: 0.75"/>
   </g>
   <g id="PathCollection_10">
    <path d="M 79.111406 54.22303 
L 83.583542 49.750894 
L 79.111406 45.278758 
L 74.63927 49.750894 
z
" style="fill: #eab67a; fill-opacity: 0.75"/>
   </g>
   <g id="PathCollection_11">
    <path d="M 78.057314 35.21791 
L 80.165499 35.21791 
L 80.165499 33.109725 
L 82.273684 33.109725 
L 82.273684 31.00154 
L 80.165499 31.00154 
L 80.165499 28.893355 
L 78.057314 28.893355 
L 78.057314 31.00154 
L 75.949129 31.00154 
L 75.949129 33.109725 
L 78.057314 33.109725 
z
" style="fill: #9e97b7; fill-opacity: 0.75"/>
   </g>
   <g id="PathCollection_12">
    <path d="M 75.949129 41.80451 
L 82.273684 41.80451 
L 82.273684 35.479954 
L 75.949129 35.479954 
z
" style="fill: #6e8fb2; fill-opacity: 0.75"/>
   </g>
   <g id="PathCollection_13">
    <path d="M 77.530267 19.738332 
L 75.949129 22.476945 
L 77.530267 25.215558 
L 80.692545 25.215558 
L 82.273684 22.476945 
L 80.692545 19.738332 
z
" style="fill: #ddbf9f; fill-opacity: 0.75"/>
   </g>
   <g id="PathCollection_14">
    <path d="M 82.273684 97.549492 
L 75.949129 94.387215 
L 75.949129 100.71177 
z
" style="fill: #d9a7be; fill-opacity: 0.75"/>
   </g>
   <g id="PathCollection_15">
    <path d="M 77.530267 53.276926 
L 79.111406 51.695787 
L 80.692545 53.276926 
L 82.273684 51.695787 
L 80.692545 50.114648 
L 82.273684 48.533509 
L 80.692545 46.952371 
L 79.111406 48.533509 
L 77.530267 46.952371 
L 75.949129 48.533509 
L 77.530267 50.114648 
L 75.949129 51.695787 
z
" style="fill: #9da6b9; fill-opacity: 0.75"/>
   </g>
   <g id="PathCollection_16">
    <path d="M 79.111406 8.593872 
C 79.950052 8.593872 80.754462 8.260675 81.347474 7.667663 
C 81.940486 7.074651 82.273684 6.270241 82.273684 5.431595 
C 82.273684 4.592949 81.940486 3.788539 81.347474 3.195527 
C 80.754462 2.602515 79.950052 2.269317 79.111406 2.269317 
C 78.27276 2.269317 77.46835 2.602515 76.875338 3.195527 
C 76.282326 3.788539 75.949129 4.592949 75.949129 5.431595 
C 75.949129 6.270241 76.282326 7.074651 76.875338 7.667663 
C 77.46835 8.260675 78.27276 8.593872 79.111406 8.593872 
z
" style="fill: #c16e71; fill-opacity: 0.75"/>
   </g>
   <g id="matplotlib.axis_3">
    <g id="xtick_2">
     <g id="line2d_4">
      <g>
       <use xlink:href="#mce524c02c3" x="79.111406" y="103.370906" style="stroke: #000000; stroke-width: 0.8"/>
      </g>
     </g>
     <g id="text_5">
      <!-- IRDS-Elbow-FlexionR -->
      <g transform="translate(36.688379 198.16537) rotate(-60) scale(0.1 -0.1)">
       <use xlink:href="#ArialMT-49"/>
       <use xlink:href="#ArialMT-52" x="27.783203"/>
       <use xlink:href="#ArialMT-44" x="100"/>
       <use xlink:href="#ArialMT-53" x="172.216797"/>
       <use xlink:href="#ArialMT-2d" x="238.916016"/>
       <use xlink:href="#ArialMT-45" x="272.216797"/>
       <use xlink:href="#ArialMT-6c" x="338.916016"/>
       <use xlink:href="#ArialMT-62" x="361.132812"/>
       <use xlink:href="#ArialMT-6f" x="416.748047"/>
       <use xlink:href="#ArialMT-77" x="472.363281"/>
       <use xlink:href="#ArialMT-2d" x="544.580078"/>
       <use xlink:href="#ArialMT-46" x="577.880859"/>
       <use xlink:href="#ArialMT-6c" x="638.964844"/>
       <use xlink:href="#ArialMT-65" x="661.181641"/>
       <use xlink:href="#ArialMT-78" x="716.796875"/>
       <use xlink:href="#ArialMT-69" x="766.796875"/>
       <use xlink:href="#ArialMT-6f" x="789.013672"/>
       <use xlink:href="#ArialMT-6e" x="844.628906"/>
       <use xlink:href="#ArialMT-52" x="900.244141"/>
      </g>
      <!-- (binary) -->
      <g transform="translate(61.812377 176.095578) rotate(-60) scale(0.1 -0.1)">
       <use xlink:href="#ArialMT-28"/>
       <use xlink:href="#ArialMT-62" x="33.300781"/>
       <use xlink:href="#ArialMT-69" x="88.916016"/>
       <use xlink:href="#ArialMT-6e" x="111.132812"/>
       <use xlink:href="#ArialMT-61" x="166.748047"/>
       <use xlink:href="#ArialMT-72" x="222.363281"/>
       <use xlink:href="#ArialMT-79" x="255.664062"/>
       <use xlink:href="#ArialMT-29" x="305.664062"/>
      </g>
     </g>
    </g>
   </g>
   <g id="matplotlib.axis_4">
    <g id="ytick_3">
     <g id="line2d_5">
      <g>
       <use xlink:href="#me0ce9187b3" x="73.891406" y="103.370906" style="stroke: #000000; stroke-width: 0.8"/>
      </g>
     </g>
     <g id="text_6">
      <!-- 51 -->
      <g transform="translate(58.269531 106.949813) scale(0.1 -0.1)">
       <defs>
        <path id="ArialMT-35" d="M 266 1200 
L 856 1250 
Q 922 819 1161 601 
Q 1400 384 1738 384 
Q 2144 384 2425 690 
Q 2706 997 2706 1503 
Q 2706 1984 2436 2262 
Q 2166 2541 1728 2541 
Q 1456 2541 1237 2417 
Q 1019 2294 894 2097 
L 366 2166 
L 809 4519 
L 3088 4519 
L 3088 3981 
L 1259 3981 
L 1013 2750 
Q 1425 3038 1878 3038 
Q 2478 3038 2890 2622 
Q 3303 2206 3303 1553 
Q 3303 931 2941 478 
Q 2500 -78 1738 -78 
Q 1113 -78 717 272 
Q 322 622 266 1200 
z
" transform="scale(0.015625)"/>
        <path id="ArialMT-31" d="M 2384 0 
L 1822 0 
L 1822 3584 
Q 1619 3391 1289 3197 
Q 959 3003 697 2906 
L 697 3450 
Q 1169 3672 1522 3987 
Q 1875 4303 2022 4600 
L 2384 4600 
L 2384 0 
z
" transform="scale(0.015625)"/>
       </defs>
       <use xlink:href="#ArialMT-35"/>
       <use xlink:href="#ArialMT-31" x="55.615234"/>
      </g>
     </g>
    </g>
    <g id="ytick_4">
     <g id="line2d_6">
      <g>
       <use xlink:href="#me0ce9187b3" x="73.891406" y="3.578906" style="stroke: #000000; stroke-width: 0.8"/>
      </g>
     </g>
     <g id="text_7">
      <!-- 93 -->
      <g transform="translate(58.269531 7.157813) scale(0.1 -0.1)">
       <defs>
        <path id="ArialMT-33" d="M 269 1209 
L 831 1284 
Q 928 806 1161 595 
Q 1394 384 1728 384 
Q 2125 384 2398 659 
Q 2672 934 2672 1341 
Q 2672 1728 2419 1979 
Q 2166 2231 1775 2231 
Q 1616 2231 1378 2169 
L 1441 2663 
Q 1497 2656 1531 2656 
Q 1891 2656 2178 2843 
Q 2466 3031 2466 3422 
Q 2466 3731 2256 3934 
Q 2047 4138 1716 4138 
Q 1388 4138 1169 3931 
Q 950 3725 888 3313 
L 325 3413 
Q 428 3978 793 4289 
Q 1159 4600 1703 4600 
Q 2078 4600 2393 4439 
Q 2709 4278 2876 4000 
Q 3044 3722 3044 3409 
Q 3044 3113 2884 2869 
Q 2725 2625 2413 2481 
Q 2819 2388 3044 2092 
Q 3269 1797 3269 1353 
Q 3269 753 2831 336 
Q 2394 -81 1725 -81 
Q 1122 -81 723 278 
Q 325 638 269 1209 
z
" transform="scale(0.015625)"/>
       </defs>
       <use xlink:href="#ArialMT-39"/>
       <use xlink:href="#ArialMT-33" x="55.615234"/>
      </g>
     </g>
    </g>
   </g>
   <g id="patch_6">
    <path d="M 73.891406 103.370906 
L 73.891406 3.578906 
" style="fill: none; stroke: #000000; stroke-width: 0.8; stroke-linejoin: miter; stroke-linecap: square"/>
   </g>
   <g id="patch_7">
    <path d="M 73.891406 103.370906 
L 84.331406 103.370906 
" style="fill: none; stroke: #000000; stroke-width: 0.8; stroke-linejoin: miter; stroke-linecap: square"/>
   </g>
  </g>
  <g id="axes_3">
   <g id="patch_8">
    <path d="M 105.211406 103.370906 
L 115.651406 103.370906 
L 115.651406 3.578906 
L 105.211406 3.578906 
z
" style="fill: #ffffff"/>
   </g>
   <g id="PathCollection_17">
    <path d="M 110.431406 74.419196 
L 107.269129 80.743751 
L 113.593684 80.743751 
z
" style="fill: #7da494; fill-opacity: 0.75"/>
   </g>
   <g id="PathCollection_18">
    <path d="M 110.431406 44.537481 
L 114.903542 40.065346 
L 110.431406 35.59321 
L 105.95927 40.065346 
z
" style="fill: #eab67a; fill-opacity: 0.75"/>
   </g>
   <g id="PathCollection_19">
    <path d="M 109.377314 39.69203 
L 111.485499 39.69203 
L 111.485499 37.583845 
L 113.593684 37.583845 
L 113.593684 35.47566 
L 111.485499 35.47566 
L 111.485499 33.367475 
L 109.377314 33.367475 
L 109.377314 35.47566 
L 107.269129 35.47566 
L 107.269129 37.583845 
L 109.377314 37.583845 
z
" style="fill: #9e97b7; fill-opacity: 0.75"/>
   </g>
   <g id="PathCollection_20">
    <path d="M 107.269129 34.041239 
L 113.593684 34.041239 
L 113.593684 27.716683 
L 107.269129 27.716683 
z
" style="fill: #6e8fb2; fill-opacity: 0.75"/>
   </g>
   <g id="PathCollection_21">
    <path d="M 108.850267 47.291292 
L 107.269129 50.029905 
L 108.850267 52.768518 
L 112.012545 52.768518 
L 113.593684 50.029905 
L 112.012545 47.291292 
z
" style="fill: #ddbf9f; fill-opacity: 0.75"/>
   </g>
   <g id="PathCollection_22">
    <path d="M 113.593684 93.866353 
L 107.269129 90.704076 
L 107.269129 97.028631 
z
" style="fill: #d9a7be; fill-opacity: 0.75"/>
   </g>
   <g id="PathCollection_23">
    <path d="M 108.850267 47.866011 
L 110.431406 46.284873 
L 112.012545 47.866011 
L 113.593684 46.284873 
L 112.012545 44.703734 
L 113.593684 43.122595 
L 112.012545 41.541456 
L 110.431406 43.122595 
L 108.850267 41.541456 
L 107.269129 43.122595 
L 108.850267 44.703734 
L 107.269129 46.284873 
z
" style="fill: #9da6b9; fill-opacity: 0.75"/>
   </g>
   <g id="PathCollection_24">
    <path d="M 110.431406 10.896835 
C 111.270052 10.896835 112.074462 10.563638 112.667474 9.970626 
C 113.260486 9.377614 113.593684 8.573204 113.593684 7.734558 
C 113.593684 6.895912 113.260486 6.091502 112.667474 5.49849 
C 112.074462 4.905478 111.270052 4.57228 110.431406 4.57228 
C 109.59276 4.57228 108.78835 4.905478 108.195338 5.49849 
C 107.602326 6.091502 107.269129 6.895912 107.269129 7.734558 
C 107.269129 8.573204 107.602326 9.377614 108.195338 9.970626 
C 108.78835 10.563638 109.59276 10.896835 110.431406 10.896835 
z
" style="fill: #c16e71; fill-opacity: 0.75"/>
   </g>
   <g id="matplotlib.axis_5">
    <g id="xtick_3">
     <g id="line2d_7">
      <g>
       <use xlink:href="#mce524c02c3" x="110.431406" y="103.370906" style="stroke: #000000; stroke-width: 0.8"/>
      </g>
     </g>
     <g id="text_8">
      <!-- IRDS-Shoulder-FlexionL -->
      <g transform="translate(62.443535 207.803962) rotate(-60) scale(0.1 -0.1)">
       <defs>
        <path id="ArialMT-68" d="M 422 0 
L 422 4581 
L 984 4581 
L 984 2938 
Q 1378 3394 1978 3394 
Q 2347 3394 2619 3248 
Q 2891 3103 3008 2847 
Q 3125 2591 3125 2103 
L 3125 0 
L 2563 0 
L 2563 2103 
Q 2563 2525 2380 2717 
Q 2197 2909 1863 2909 
Q 1613 2909 1392 2779 
Q 1172 2650 1078 2428 
Q 984 2206 984 1816 
L 984 0 
L 422 0 
z
" transform="scale(0.015625)"/>
       </defs>
       <use xlink:href="#ArialMT-49"/>
       <use xlink:href="#ArialMT-52" x="27.783203"/>
       <use xlink:href="#ArialMT-44" x="100"/>
       <use xlink:href="#ArialMT-53" x="172.216797"/>
       <use xlink:href="#ArialMT-2d" x="238.916016"/>
       <use xlink:href="#ArialMT-53" x="272.216797"/>
       <use xlink:href="#ArialMT-68" x="338.916016"/>
       <use xlink:href="#ArialMT-6f" x="394.53125"/>
       <use xlink:href="#ArialMT-75" x="450.146484"/>
       <use xlink:href="#ArialMT-6c" x="505.761719"/>
       <use xlink:href="#ArialMT-64" x="527.978516"/>
       <use xlink:href="#ArialMT-65" x="583.59375"/>
       <use xlink:href="#ArialMT-72" x="639.208984"/>
       <use xlink:href="#ArialMT-2d" x="672.509766"/>
       <use xlink:href="#ArialMT-46" x="705.810547"/>
       <use xlink:href="#ArialMT-6c" x="766.894531"/>
       <use xlink:href="#ArialMT-65" x="789.111328"/>
       <use xlink:href="#ArialMT-78" x="844.726562"/>
       <use xlink:href="#ArialMT-69" x="894.726562"/>
       <use xlink:href="#ArialMT-6f" x="916.943359"/>
       <use xlink:href="#ArialMT-6e" x="972.558594"/>
       <use xlink:href="#ArialMT-4c" x="1028.173828"/>
      </g>
      <!-- (binary) -->
      <g transform="translate(90.349955 180.914874) rotate(-60) scale(0.1 -0.1)">
       <use xlink:href="#ArialMT-28"/>
       <use xlink:href="#ArialMT-62" x="33.300781"/>
       <use xlink:href="#ArialMT-69" x="88.916016"/>
       <use xlink:href="#ArialMT-6e" x="111.132812"/>
       <use xlink:href="#ArialMT-61" x="166.748047"/>
       <use xlink:href="#ArialMT-72" x="222.363281"/>
       <use xlink:href="#ArialMT-79" x="255.664062"/>
       <use xlink:href="#ArialMT-29" x="305.664062"/>
      </g>
     </g>
    </g>
   </g>
   <g id="matplotlib.axis_6">
    <g id="ytick_5">
     <g id="line2d_8">
      <g>
       <use xlink:href="#me0ce9187b3" x="105.211406" y="103.370906" style="stroke: #000000; stroke-width: 0.8"/>
      </g>
     </g>
     <g id="text_9">
      <!-- 86 -->
      <g transform="translate(89.589531 106.949812) scale(0.1 -0.1)">
       <use xlink:href="#ArialMT-38"/>
       <use xlink:href="#ArialMT-36" x="55.615234"/>
      </g>
     </g>
    </g>
    <g id="ytick_6">
     <g id="line2d_9">
      <g>
       <use xlink:href="#me0ce9187b3" x="105.211406" y="3.578906" style="stroke: #000000; stroke-width: 0.8"/>
      </g>
     </g>
     <g id="text_10">
      <!-- 97 -->
      <g transform="translate(89.589531 7.157813) scale(0.1 -0.1)">
       <defs>
        <path id="ArialMT-37" d="M 303 3981 
L 303 4522 
L 3269 4522 
L 3269 4084 
Q 2831 3619 2401 2847 
Q 1972 2075 1738 1259 
Q 1569 684 1522 0 
L 944 0 
Q 953 541 1156 1306 
Q 1359 2072 1739 2783 
Q 2119 3494 2547 3981 
L 303 3981 
z
" transform="scale(0.015625)"/>
       </defs>
       <use xlink:href="#ArialMT-39"/>
       <use xlink:href="#ArialMT-37" x="55.615234"/>
      </g>
     </g>
    </g>
   </g>
   <g id="patch_9">
    <path d="M 105.211406 103.370906 
L 105.211406 3.578906 
" style="fill: none; stroke: #000000; stroke-width: 0.8; stroke-linejoin: miter; stroke-linecap: square"/>
   </g>
   <g id="patch_10">
    <path d="M 105.211406 103.370906 
L 115.651406 103.370906 
" style="fill: none; stroke: #000000; stroke-width: 0.8; stroke-linejoin: miter; stroke-linecap: square"/>
   </g>
  </g>
  <g id="axes_4">
   <g id="patch_11">
    <path d="M 136.531406 103.370906 
L 146.971406 103.370906 
L 146.971406 3.578906 
L 136.531406 3.578906 
z
" style="fill: #ffffff"/>
   </g>
   <g id="PathCollection_25">
    <path d="M 141.751406 73.455426 
L 138.589129 79.779982 
L 144.913684 79.779982 
z
" style="fill: #7da494; fill-opacity: 0.75"/>
   </g>
   <g id="PathCollection_26">
    <path d="M 141.751406 35.556002 
L 146.223542 31.083866 
L 141.751406 26.61173 
L 137.27927 31.083866 
z
" style="fill: #eab67a; fill-opacity: 0.75"/>
   </g>
   <g id="PathCollection_27">
    <path d="M 140.697314 24.027067 
L 142.805499 24.027067 
L 142.805499 21.918882 
L 144.913684 21.918882 
L 144.913684 19.810697 
L 142.805499 19.810697 
L 142.805499 17.702512 
L 140.697314 17.702512 
L 140.697314 19.810697 
L 138.589129 19.810697 
L 138.589129 21.918882 
L 140.697314 21.918882 
z
" style="fill: #9e97b7; fill-opacity: 0.75"/>
   </g>
   <g id="PathCollection_28">
    <path d="M 138.589129 21.351557 
L 144.913684 21.351557 
L 144.913684 15.027002 
L 138.589129 15.027002 
z
" style="fill: #6e8fb2; fill-opacity: 0.75"/>
   </g>
   <g id="PathCollection_29">
    <path d="M 140.170267 14.210613 
L 138.589129 16.949226 
L 140.170267 19.687838 
L 143.332545 19.687838 
L 144.913684 16.949226 
L 143.332545 14.210613 
z
" style="fill: #ddbf9f; fill-opacity: 0.75"/>
   </g>
   <g id="PathCollection_30">
    <path d="M 144.913684 99.488748 
L 138.589129 96.32647 
L 138.589129 102.651026 
z
" style="fill: #d9a7be; fill-opacity: 0.75"/>
   </g>
   <g id="PathCollection_31">
    <path d="M 140.170267 27.359957 
L 141.751406 25.778819 
L 143.332545 27.359957 
L 144.913684 25.778819 
L 143.332545 24.19768 
L 144.913684 22.616541 
L 143.332545 21.035402 
L 141.751406 22.616541 
L 140.170267 21.035402 
L 138.589129 22.616541 
L 140.170267 24.19768 
L 138.589129 25.778819 
z
" style="fill: #9da6b9; fill-opacity: 0.75"/>
   </g>
   <g id="PathCollection_32">
    <path d="M 141.751406 11.130714 
C 142.590052 11.130714 143.394462 10.797517 143.987474 10.204504 
C 144.580486 9.611492 144.913684 8.807082 144.913684 7.968437 
C 144.913684 7.129791 144.580486 6.325381 143.987474 5.732369 
C 143.394462 5.139356 142.590052 4.806159 141.751406 4.806159 
C 140.91276 4.806159 140.10835 5.139356 139.515338 5.732369 
C 138.922326 6.325381 138.589129 7.129791 138.589129 7.968437 
C 138.589129 8.807082 138.922326 9.611492 139.515338 10.204504 
C 140.10835 10.797517 140.91276 11.130714 141.751406 11.130714 
z
" style="fill: #c16e71; fill-opacity: 0.75"/>
   </g>
   <g id="matplotlib.axis_7">
    <g id="xtick_4">
     <g id="line2d_10">
      <g>
       <use xlink:href="#mce524c02c3" x="141.751406" y="103.370906" style="stroke: #000000; stroke-width: 0.8"/>
      </g>
     </g>
     <g id="text_11">
      <!-- IRDS-Shoulder-FlexionR -->
      <g transform="translate(92.933066 209.242377) rotate(-60) scale(0.1 -0.1)">
       <use xlink:href="#ArialMT-49"/>
       <use xlink:href="#ArialMT-52" x="27.783203"/>
       <use xlink:href="#ArialMT-44" x="100"/>
       <use xlink:href="#ArialMT-53" x="172.216797"/>
       <use xlink:href="#ArialMT-2d" x="238.916016"/>
       <use xlink:href="#ArialMT-53" x="272.216797"/>
       <use xlink:href="#ArialMT-68" x="338.916016"/>
       <use xlink:href="#ArialMT-6f" x="394.53125"/>
       <use xlink:href="#ArialMT-75" x="450.146484"/>
       <use xlink:href="#ArialMT-6c" x="505.761719"/>
       <use xlink:href="#ArialMT-64" x="527.978516"/>
       <use xlink:href="#ArialMT-65" x="583.59375"/>
       <use xlink:href="#ArialMT-72" x="639.208984"/>
       <use xlink:href="#ArialMT-2d" x="672.509766"/>
       <use xlink:href="#ArialMT-46" x="705.810547"/>
       <use xlink:href="#ArialMT-6c" x="766.894531"/>
       <use xlink:href="#ArialMT-65" x="789.111328"/>
       <use xlink:href="#ArialMT-78" x="844.726562"/>
       <use xlink:href="#ArialMT-69" x="894.726562"/>
       <use xlink:href="#ArialMT-6f" x="916.943359"/>
       <use xlink:href="#ArialMT-6e" x="972.558594"/>
       <use xlink:href="#ArialMT-52" x="1028.173828"/>
      </g>
      <!-- (binary) -->
      <g transform="translate(121.254721 181.634081) rotate(-60) scale(0.1 -0.1)">
       <use xlink:href="#ArialMT-28"/>
       <use xlink:href="#ArialMT-62" x="33.300781"/>
       <use xlink:href="#ArialMT-69" x="88.916016"/>
       <use xlink:href="#ArialMT-6e" x="111.132812"/>
       <use xlink:href="#ArialMT-61" x="166.748047"/>
       <use xlink:href="#ArialMT-72" x="222.363281"/>
       <use xlink:href="#ArialMT-79" x="255.664062"/>
       <use xlink:href="#ArialMT-29" x="305.664062"/>
      </g>
     </g>
    </g>
   </g>
   <g id="matplotlib.axis_8">
    <g id="ytick_7">
     <g id="line2d_11">
      <g>
       <use xlink:href="#me0ce9187b3" x="136.531406" y="103.370906" style="stroke: #000000; stroke-width: 0.8"/>
      </g>
     </g>
     <g id="text_12">
      <!-- 81 -->
      <g transform="translate(120.909531 106.949813) scale(0.1 -0.1)">
       <use xlink:href="#ArialMT-38"/>
       <use xlink:href="#ArialMT-31" x="55.615234"/>
      </g>
     </g>
    </g>
    <g id="ytick_8">
     <g id="line2d_12">
      <g>
       <use xlink:href="#me0ce9187b3" x="136.531406" y="3.578906" style="stroke: #000000; stroke-width: 0.8"/>
      </g>
     </g>
     <g id="text_13">
      <!-- 97 -->
      <g transform="translate(120.909531 7.157813) scale(0.1 -0.1)">
       <use xlink:href="#ArialMT-39"/>
       <use xlink:href="#ArialMT-37" x="55.615234"/>
      </g>
     </g>
    </g>
   </g>
   <g id="patch_12">
    <path d="M 136.531406 103.370906 
L 136.531406 3.578906 
" style="fill: none; stroke: #000000; stroke-width: 0.8; stroke-linejoin: miter; stroke-linecap: square"/>
   </g>
   <g id="patch_13">
    <path d="M 136.531406 103.370906 
L 146.971406 103.370906 
" style="fill: none; stroke: #000000; stroke-width: 0.8; stroke-linejoin: miter; stroke-linecap: square"/>
   </g>
  </g>
  <g id="axes_5">
   <g id="patch_14">
    <path d="M 167.851406 103.370906 
L 178.291406 103.370906 
L 178.291406 3.578906 
L 167.851406 3.578906 
z
" style="fill: #ffffff"/>
   </g>
   <g id="PathCollection_33">
    <path d="M 173.071406 63.43528 
L 169.909129 69.759835 
L 176.233684 69.759835 
z
" style="fill: #7da494; fill-opacity: 0.75"/>
   </g>
   <g id="PathCollection_34">
    <path d="M 173.071406 16.807284 
L 177.543542 12.335148 
L 173.071406 7.863012 
L 168.59927 12.335148 
z
" style="fill: #eab67a; fill-opacity: 0.75"/>
   </g>
   <g id="PathCollection_35">
    <path d="M 172.017314 29.391846 
L 174.125499 29.391846 
L 174.125499 27.283661 
L 176.233684 27.283661 
L 176.233684 25.175476 
L 174.125499 25.175476 
L 174.125499 23.067291 
L 172.017314 23.067291 
L 172.017314 25.175476 
L 169.909129 25.175476 
L 169.909129 27.283661 
L 172.017314 27.283661 
z
" style="fill: #9e97b7; fill-opacity: 0.75"/>
   </g>
   <g id="PathCollection_36">
    <path d="M 169.909129 25.209013 
L 176.233684 25.209013 
L 176.233684 18.884457 
L 169.909129 18.884457 
z
" style="fill: #6e8fb2; fill-opacity: 0.75"/>
   </g>
   <g id="PathCollection_37">
    <path d="M 171.490267 42.793045 
L 169.909129 45.531658 
L 171.490267 48.270271 
L 174.652545 48.270271 
L 176.233684 45.531658 
L 174.652545 42.793045 
z
" style="fill: #ddbf9f; fill-opacity: 0.75"/>
   </g>
   <g id="PathCollection_38">
    <path d="M 176.233684 97.463147 
L 169.909129 94.300869 
L 169.909129 100.625424 
z
" style="fill: #d9a7be; fill-opacity: 0.75"/>
   </g>
   <g id="PathCollection_39">
    <path d="M 171.490267 27.319852 
L 173.071406 25.738713 
L 174.652545 27.319852 
L 176.233684 25.738713 
L 174.652545 24.157574 
L 176.233684 22.576436 
L 174.652545 20.995297 
L 173.071406 22.576436 
L 171.490267 20.995297 
L 169.909129 22.576436 
L 171.490267 24.157574 
L 169.909129 25.738713 
z
" style="fill: #9da6b9; fill-opacity: 0.75"/>
   </g>
   <g id="PathCollection_40">
    <path d="M 173.071406 6.771736 
C 173.910052 6.771736 174.714462 6.438538 175.307474 5.845526 
C 175.900486 5.252514 176.233684 4.448104 176.233684 3.609458 
C 176.233684 2.770813 175.900486 1.966403 175.307474 1.37339 
C 174.714462 0.780378 173.910052 0.447181 173.071406 0.447181 
C 172.23276 0.447181 171.42835 0.780378 170.835338 1.37339 
C 170.242326 1.966403 169.909129 2.770813 169.909129 3.609458 
C 169.909129 4.448104 170.242326 5.252514 170.835338 5.845526 
C 171.42835 6.438538 172.23276 6.771736 173.071406 6.771736 
z
" style="fill: #c16e71; fill-opacity: 0.75"/>
   </g>
   <g id="matplotlib.axis_9">
    <g id="xtick_5">
     <g id="line2d_13">
      <g>
       <use xlink:href="#mce524c02c3" x="173.071406" y="103.370906" style="stroke: #000000; stroke-width: 0.8"/>
      </g>
     </g>
     <g id="text_14">
      <!-- IRDS-Shoulder-AbductionL -->
      <g transform="translate(118.963222 218.404655) rotate(-60) scale(0.1 -0.1)">
       <defs>
        <path id="ArialMT-41" d="M -9 0 
L 1750 4581 
L 2403 4581 
L 4278 0 
L 3588 0 
L 3053 1388 
L 1138 1388 
L 634 0 
L -9 0 
z
M 1313 1881 
L 2866 1881 
L 2388 3150 
Q 2169 3728 2063 4100 
Q 1975 3659 1816 3225 
L 1313 1881 
z
" transform="scale(0.015625)"/>
        <path id="ArialMT-74" d="M 1650 503 
L 1731 6 
Q 1494 -44 1306 -44 
Q 1000 -44 831 53 
Q 663 150 594 308 
Q 525 466 525 972 
L 525 2881 
L 113 2881 
L 113 3319 
L 525 3319 
L 525 4141 
L 1084 4478 
L 1084 3319 
L 1650 3319 
L 1650 2881 
L 1084 2881 
L 1084 941 
Q 1084 700 1114 631 
Q 1144 563 1211 522 
Q 1278 481 1403 481 
Q 1497 481 1650 503 
z
" transform="scale(0.015625)"/>
       </defs>
       <use xlink:href="#ArialMT-49"/>
       <use xlink:href="#ArialMT-52" x="27.783203"/>
       <use xlink:href="#ArialMT-44" x="100"/>
       <use xlink:href="#ArialMT-53" x="172.216797"/>
       <use xlink:href="#ArialMT-2d" x="238.916016"/>
       <use xlink:href="#ArialMT-53" x="272.216797"/>
       <use xlink:href="#ArialMT-68" x="338.916016"/>
       <use xlink:href="#ArialMT-6f" x="394.53125"/>
       <use xlink:href="#ArialMT-75" x="450.146484"/>
       <use xlink:href="#ArialMT-6c" x="505.761719"/>
       <use xlink:href="#ArialMT-64" x="527.978516"/>
       <use xlink:href="#ArialMT-65" x="583.59375"/>
       <use xlink:href="#ArialMT-72" x="639.208984"/>
       <use xlink:href="#ArialMT-2d" x="672.509766"/>
       <use xlink:href="#ArialMT-41" x="705.810547"/>
       <use xlink:href="#ArialMT-62" x="772.509766"/>
       <use xlink:href="#ArialMT-64" x="828.125"/>
       <use xlink:href="#ArialMT-75" x="883.740234"/>
       <use xlink:href="#ArialMT-63" x="939.355469"/>
       <use xlink:href="#ArialMT-74" x="989.355469"/>
       <use xlink:href="#ArialMT-69" x="1017.138672"/>
       <use xlink:href="#ArialMT-6f" x="1039.355469"/>
       <use xlink:href="#ArialMT-6e" x="1094.970703"/>
       <use xlink:href="#ArialMT-4c" x="1150.585938"/>
      </g>
      <!-- (binary) -->
      <g transform="translate(149.929799 186.21522) rotate(-60) scale(0.1 -0.1)">
       <use xlink:href="#ArialMT-28"/>
       <use xlink:href="#ArialMT-62" x="33.300781"/>
       <use xlink:href="#ArialMT-69" x="88.916016"/>
       <use xlink:href="#ArialMT-6e" x="111.132812"/>
       <use xlink:href="#ArialMT-61" x="166.748047"/>
       <use xlink:href="#ArialMT-72" x="222.363281"/>
       <use xlink:href="#ArialMT-79" x="255.664062"/>
       <use xlink:href="#ArialMT-29" x="305.664062"/>
      </g>
     </g>
    </g>
   </g>
   <g id="matplotlib.axis_10">
    <g id="ytick_9">
     <g id="line2d_14">
      <g>
       <use xlink:href="#me0ce9187b3" x="167.851406" y="103.370906" style="stroke: #000000; stroke-width: 0.8"/>
      </g>
     </g>
     <g id="text_15">
      <!-- 55 -->
      <g transform="translate(152.229531 106.949813) scale(0.1 -0.1)">
       <use xlink:href="#ArialMT-35"/>
       <use xlink:href="#ArialMT-35" x="55.615234"/>
      </g>
     </g>
    </g>
    <g id="ytick_10">
     <g id="line2d_15">
      <g>
       <use xlink:href="#me0ce9187b3" x="167.851406" y="3.578906" style="stroke: #000000; stroke-width: 0.8"/>
      </g>
     </g>
     <g id="text_16">
      <!-- 96 -->
      <g transform="translate(152.229531 7.157813) scale(0.1 -0.1)">
       <use xlink:href="#ArialMT-39"/>
       <use xlink:href="#ArialMT-36" x="55.615234"/>
      </g>
     </g>
    </g>
   </g>
   <g id="patch_15">
    <path d="M 167.851406 103.370906 
L 167.851406 3.578906 
" style="fill: none; stroke: #000000; stroke-width: 0.8; stroke-linejoin: miter; stroke-linecap: square"/>
   </g>
   <g id="patch_16">
    <path d="M 167.851406 103.370906 
L 178.291406 103.370906 
" style="fill: none; stroke: #000000; stroke-width: 0.8; stroke-linejoin: miter; stroke-linecap: square"/>
   </g>
  </g>
  <g id="axes_6">
   <g id="patch_17">
    <path d="M 199.171406 103.370906 
L 209.611406 103.370906 
L 209.611406 3.578906 
L 199.171406 3.578906 
z
" style="fill: #ffffff"/>
   </g>
   <g id="PathCollection_41">
    <path d="M 204.391406 78.637943 
L 201.229129 84.962498 
L 207.553684 84.962498 
z
" style="fill: #7da494; fill-opacity: 0.75"/>
   </g>
   <g id="PathCollection_42">
    <path d="M 204.391406 38.364335 
L 208.863542 33.892199 
L 204.391406 29.420063 
L 199.91927 33.892199 
z
" style="fill: #eab67a; fill-opacity: 0.75"/>
   </g>
   <g id="PathCollection_43">
    <path d="M 203.337314 34.746561 
L 205.445499 34.746561 
L 205.445499 32.638376 
L 207.553684 32.638376 
L 207.553684 30.530191 
L 205.445499 30.530191 
L 205.445499 28.422006 
L 203.337314 28.422006 
L 203.337314 30.530191 
L 201.229129 30.530191 
L 201.229129 32.638376 
L 203.337314 32.638376 
z
" style="fill: #9e97b7; fill-opacity: 0.75"/>
   </g>
   <g id="PathCollection_44">
    <path d="M 201.229129 33.434551 
L 207.553684 33.434551 
L 207.553684 27.109996 
L 201.229129 27.109996 
z
" style="fill: #6e8fb2; fill-opacity: 0.75"/>
   </g>
   <g id="PathCollection_45">
    <path d="M 202.810267 95.453326 
L 201.229129 98.191939 
L 202.810267 100.930552 
L 205.972545 100.930552 
L 207.553684 98.191939 
L 205.972545 95.453326 
z
" style="fill: #ddbf9f; fill-opacity: 0.75"/>
   </g>
   <g id="PathCollection_46">
    <path d="M 207.553684 80.437612 
L 201.229129 77.275334 
L 201.229129 83.599889 
z
" style="fill: #d9a7be; fill-opacity: 0.75"/>
   </g>
   <g id="PathCollection_47">
    <path d="M 202.810267 78.589286 
L 204.391406 77.008147 
L 205.972545 78.589286 
L 207.553684 77.008147 
L 205.972545 75.427008 
L 207.553684 73.845869 
L 205.972545 72.26473 
L 204.391406 73.845869 
L 202.810267 72.26473 
L 201.229129 73.845869 
L 202.810267 75.427008 
L 201.229129 77.008147 
z
" style="fill: #9da6b9; fill-opacity: 0.75"/>
   </g>
   <g id="PathCollection_48">
    <path d="M 204.391406 9.429724 
C 205.230052 9.429724 206.034462 9.096526 206.627474 8.503514 
C 207.220486 7.910502 207.553684 7.106092 207.553684 6.267446 
C 207.553684 5.4288 207.220486 4.62439 206.627474 4.031378 
C 206.034462 3.438366 205.230052 3.105169 204.391406 3.105169 
C 203.55276 3.105169 202.74835 3.438366 202.155338 4.031378 
C 201.562326 4.62439 201.229129 5.4288 201.229129 6.267446 
C 201.229129 7.106092 201.562326 7.910502 202.155338 8.503514 
C 202.74835 9.096526 203.55276 9.429724 204.391406 9.429724 
z
" style="fill: #c16e71; fill-opacity: 0.75"/>
   </g>
   <g id="matplotlib.axis_11">
    <g id="xtick_6">
     <g id="line2d_16">
      <g>
       <use xlink:href="#mce524c02c3" x="204.391406" y="103.370906" style="stroke: #000000; stroke-width: 0.8"/>
      </g>
     </g>
     <g id="text_17">
      <!-- IRDS-Shoulder-AbductionR -->
      <g transform="translate(149.452754 219.843069) rotate(-60) scale(0.1 -0.1)">
       <use xlink:href="#ArialMT-49"/>
       <use xlink:href="#ArialMT-52" x="27.783203"/>
       <use xlink:href="#ArialMT-44" x="100"/>
       <use xlink:href="#ArialMT-53" x="172.216797"/>
       <use xlink:href="#ArialMT-2d" x="238.916016"/>
       <use xlink:href="#ArialMT-53" x="272.216797"/>
       <use xlink:href="#ArialMT-68" x="338.916016"/>
       <use xlink:href="#ArialMT-6f" x="394.53125"/>
       <use xlink:href="#ArialMT-75" x="450.146484"/>
       <use xlink:href="#ArialMT-6c" x="505.761719"/>
       <use xlink:href="#ArialMT-64" x="527.978516"/>
       <use xlink:href="#ArialMT-65" x="583.59375"/>
       <use xlink:href="#ArialMT-72" x="639.208984"/>
       <use xlink:href="#ArialMT-2d" x="672.509766"/>
       <use xlink:href="#ArialMT-41" x="705.810547"/>
       <use xlink:href="#ArialMT-62" x="772.509766"/>
       <use xlink:href="#ArialMT-64" x="828.125"/>
       <use xlink:href="#ArialMT-75" x="883.740234"/>
       <use xlink:href="#ArialMT-63" x="939.355469"/>
       <use xlink:href="#ArialMT-74" x="989.355469"/>
       <use xlink:href="#ArialMT-69" x="1017.138672"/>
       <use xlink:href="#ArialMT-6f" x="1039.355469"/>
       <use xlink:href="#ArialMT-6e" x="1094.970703"/>
       <use xlink:href="#ArialMT-52" x="1150.585938"/>
      </g>
      <!-- (binary) -->
      <g transform="translate(180.834565 186.934427) rotate(-60) scale(0.1 -0.1)">
       <use xlink:href="#ArialMT-28"/>
       <use xlink:href="#ArialMT-62" x="33.300781"/>
       <use xlink:href="#ArialMT-69" x="88.916016"/>
       <use xlink:href="#ArialMT-6e" x="111.132812"/>
       <use xlink:href="#ArialMT-61" x="166.748047"/>
       <use xlink:href="#ArialMT-72" x="222.363281"/>
       <use xlink:href="#ArialMT-79" x="255.664062"/>
       <use xlink:href="#ArialMT-29" x="305.664062"/>
      </g>
     </g>
    </g>
   </g>
   <g id="matplotlib.axis_12">
    <g id="ytick_11">
     <g id="line2d_17">
      <g>
       <use xlink:href="#me0ce9187b3" x="199.171406" y="103.370906" style="stroke: #000000; stroke-width: 0.8"/>
      </g>
     </g>
     <g id="text_18">
      <!-- 75 -->
      <g transform="translate(183.549531 106.949813) scale(0.1 -0.1)">
       <use xlink:href="#ArialMT-37"/>
       <use xlink:href="#ArialMT-35" x="55.615234"/>
      </g>
     </g>
    </g>
    <g id="ytick_12">
     <g id="line2d_18">
      <g>
       <use xlink:href="#me0ce9187b3" x="199.171406" y="3.578906" style="stroke: #000000; stroke-width: 0.8"/>
      </g>
     </g>
     <g id="text_19">
      <!-- 96 -->
      <g transform="translate(183.549531 7.157813) scale(0.1 -0.1)">
       <use xlink:href="#ArialMT-39"/>
       <use xlink:href="#ArialMT-36" x="55.615234"/>
      </g>
     </g>
    </g>
   </g>
   <g id="patch_18">
    <path d="M 199.171406 103.370906 
L 199.171406 3.578906 
" style="fill: none; stroke: #000000; stroke-width: 0.8; stroke-linejoin: miter; stroke-linecap: square"/>
   </g>
   <g id="patch_19">
    <path d="M 199.171406 103.370906 
L 209.611406 103.370906 
" style="fill: none; stroke: #000000; stroke-width: 0.8; stroke-linejoin: miter; stroke-linecap: square"/>
   </g>
  </g>
  <g id="axes_7">
   <g id="patch_20">
    <path d="M 230.491406 103.370906 
L 240.931406 103.370906 
L 240.931406 3.578906 
L 230.491406 3.578906 
z
" style="fill: #ffffff"/>
   </g>
   <g id="PathCollection_49">
    <path d="M 235.711406 81.615551 
L 232.549129 87.940106 
L 238.873684 87.940106 
z
" style="fill: #7da494; fill-opacity: 0.75"/>
   </g>
   <g id="PathCollection_50">
    <path d="M 235.711406 20.039287 
L 240.183542 15.567151 
L 235.711406 11.095015 
L 231.23927 15.567151 
z
" style="fill: #eab67a; fill-opacity: 0.75"/>
   </g>
   <g id="PathCollection_51">
    <path d="M 234.657314 23.641979 
L 236.765499 23.641979 
L 236.765499 21.533794 
L 238.873684 21.533794 
L 238.873684 19.425609 
L 236.765499 19.425609 
L 236.765499 17.317424 
L 234.657314 17.317424 
L 234.657314 19.425609 
L 232.549129 19.425609 
L 232.549129 21.533794 
L 234.657314 21.533794 
z
" style="fill: #9e97b7; fill-opacity: 0.75"/>
   </g>
   <g id="PathCollection_52">
    <path d="M 232.549129 25.754959 
L 238.873684 25.754959 
L 238.873684 19.430404 
L 232.549129 19.430404 
z
" style="fill: #6e8fb2; fill-opacity: 0.75"/>
   </g>
   <g id="PathCollection_53">
    <path d="M 234.130267 58.972032 
L 232.549129 61.710645 
L 234.130267 64.449258 
L 237.292545 64.449258 
L 238.873684 61.710645 
L 237.292545 58.972032 
z
" style="fill: #ddbf9f; fill-opacity: 0.75"/>
   </g>
   <g id="PathCollection_54">
    <path d="M 238.873684 98.387531 
L 232.549129 95.225254 
L 232.549129 101.549809 
z
" style="fill: #d9a7be; fill-opacity: 0.75"/>
   </g>
   <g id="PathCollection_55">
    <path d="M 234.130267 57.45448 
L 235.711406 55.873342 
L 237.292545 57.45448 
L 238.873684 55.873342 
L 237.292545 54.292203 
L 238.873684 52.711064 
L 237.292545 51.129925 
L 235.711406 52.711064 
L 234.130267 51.129925 
L 232.549129 52.711064 
L 234.130267 54.292203 
L 232.549129 55.873342 
z
" style="fill: #9da6b9; fill-opacity: 0.75"/>
   </g>
   <g id="PathCollection_56">
    <path d="M 235.711406 9.234006 
C 236.550052 9.234006 237.354462 8.900808 237.947474 8.307796 
C 238.540486 7.714784 238.873684 6.910374 238.873684 6.071728 
C 238.873684 5.233082 238.540486 4.428672 237.947474 3.83566 
C 237.354462 3.242648 236.550052 2.90945 235.711406 2.90945 
C 234.87276 2.90945 234.06835 3.242648 233.475338 3.83566 
C 232.882326 4.428672 232.549129 5.233082 232.549129 6.071728 
C 232.549129 6.910374 232.882326 7.714784 233.475338 8.307796 
C 234.06835 8.900808 234.87276 9.234006 235.711406 9.234006 
z
" style="fill: #c16e71; fill-opacity: 0.75"/>
   </g>
   <g id="matplotlib.axis_13">
    <g id="xtick_7">
     <g id="line2d_19">
      <g>
       <use xlink:href="#mce524c02c3" x="235.711406" y="103.370906" style="stroke: #000000; stroke-width: 0.8"/>
      </g>
     </g>
     <g id="text_20">
      <!-- IRDS-Shoulder-Forward -->
      <g transform="translate(188.285254 206.831037) rotate(-60) scale(0.1 -0.1)">
       <use xlink:href="#ArialMT-49"/>
       <use xlink:href="#ArialMT-52" x="27.783203"/>
       <use xlink:href="#ArialMT-44" x="100"/>
       <use xlink:href="#ArialMT-53" x="172.216797"/>
       <use xlink:href="#ArialMT-2d" x="238.916016"/>
       <use xlink:href="#ArialMT-53" x="272.216797"/>
       <use xlink:href="#ArialMT-68" x="338.916016"/>
       <use xlink:href="#ArialMT-6f" x="394.53125"/>
       <use xlink:href="#ArialMT-75" x="450.146484"/>
       <use xlink:href="#ArialMT-6c" x="505.761719"/>
       <use xlink:href="#ArialMT-64" x="527.978516"/>
       <use xlink:href="#ArialMT-65" x="583.59375"/>
       <use xlink:href="#ArialMT-72" x="639.208984"/>
       <use xlink:href="#ArialMT-2d" x="672.509766"/>
       <use xlink:href="#ArialMT-46" x="705.810547"/>
       <use xlink:href="#ArialMT-6f" x="766.894531"/>
       <use xlink:href="#ArialMT-72" x="822.509766"/>
       <use xlink:href="#ArialMT-77" x="855.810547"/>
       <use xlink:href="#ArialMT-61" x="928.027344"/>
       <use xlink:href="#ArialMT-72" x="983.642578"/>
       <use xlink:href="#ArialMT-64" x="1016.943359"/>
      </g>
      <!-- (binary) -->
      <g transform="translate(215.910815 180.428412) rotate(-60) scale(0.1 -0.1)">
       <use xlink:href="#ArialMT-28"/>
       <use xlink:href="#ArialMT-62" x="33.300781"/>
       <use xlink:href="#ArialMT-69" x="88.916016"/>
       <use xlink:href="#ArialMT-6e" x="111.132812"/>
       <use xlink:href="#ArialMT-61" x="166.748047"/>
       <use xlink:href="#ArialMT-72" x="222.363281"/>
       <use xlink:href="#ArialMT-79" x="255.664062"/>
       <use xlink:href="#ArialMT-29" x="305.664062"/>
      </g>
     </g>
    </g>
   </g>
   <g id="matplotlib.axis_14">
    <g id="ytick_13">
     <g id="line2d_20">
      <g>
       <use xlink:href="#me0ce9187b3" x="230.491406" y="103.370906" style="stroke: #000000; stroke-width: 0.8"/>
      </g>
     </g>
     <g id="text_21">
      <!-- 77 -->
      <g transform="translate(214.869531 106.949813) scale(0.1 -0.1)">
       <use xlink:href="#ArialMT-37"/>
       <use xlink:href="#ArialMT-37" x="55.615234"/>
      </g>
     </g>
    </g>
    <g id="ytick_14">
     <g id="line2d_21">
      <g>
       <use xlink:href="#me0ce9187b3" x="230.491406" y="3.578906" style="stroke: #000000; stroke-width: 0.8"/>
      </g>
     </g>
     <g id="text_22">
      <!-- 98 -->
      <g transform="translate(214.869531 7.157813) scale(0.1 -0.1)">
       <use xlink:href="#ArialMT-39"/>
       <use xlink:href="#ArialMT-38" x="55.615234"/>
      </g>
     </g>
    </g>
   </g>
   <g id="patch_21">
    <path d="M 230.491406 103.370906 
L 230.491406 3.578906 
" style="fill: none; stroke: #000000; stroke-width: 0.8; stroke-linejoin: miter; stroke-linecap: square"/>
   </g>
   <g id="patch_22">
    <path d="M 230.491406 103.370906 
L 240.931406 103.370906 
" style="fill: none; stroke: #000000; stroke-width: 0.8; stroke-linejoin: miter; stroke-linecap: square"/>
   </g>
  </g>
  <g id="axes_8">
   <g id="patch_23">
    <path d="M 261.811406 103.370906 
L 272.251406 103.370906 
L 272.251406 3.578906 
L 261.811406 3.578906 
z
" style="fill: #ffffff"/>
   </g>
   <g id="PathCollection_57">
    <path d="M 267.031406 56.660241 
L 263.869129 62.984797 
L 270.193684 62.984797 
z
" style="fill: #7da494; fill-opacity: 0.75"/>
   </g>
   <g id="PathCollection_58">
    <path d="M 267.031406 55.553293 
L 271.503542 51.081157 
L 267.031406 46.609021 
L 262.55927 51.081157 
z
" style="fill: #eab67a; fill-opacity: 0.75"/>
   </g>
   <g id="PathCollection_59">
    <path d="M 265.977314 47.187875 
L 268.085499 47.187875 
L 268.085499 45.079689 
L 270.193684 45.079689 
L 270.193684 42.971504 
L 268.085499 42.971504 
L 268.085499 40.863319 
L 265.977314 40.863319 
L 265.977314 42.971504 
L 263.869129 42.971504 
L 263.869129 45.079689 
L 265.977314 45.079689 
z
" style="fill: #9e97b7; fill-opacity: 0.75"/>
   </g>
   <g id="PathCollection_60">
    <path d="M 263.869129 66.85782 
L 270.193684 66.85782 
L 270.193684 60.533264 
L 263.869129 60.533264 
z
" style="fill: #6e8fb2; fill-opacity: 0.75"/>
   </g>
   <g id="PathCollection_61">
    <path d="M 265.450267 21.46421 
L 263.869129 24.202822 
L 265.450267 26.941435 
L 268.612545 26.941435 
L 270.193684 24.202822 
L 268.612545 21.46421 
z
" style="fill: #ddbf9f; fill-opacity: 0.75"/>
   </g>
   <g id="PathCollection_62">
    <path d="M 270.193684 97.522001 
L 263.869129 94.359723 
L 263.869129 100.684278 
z
" style="fill: #d9a7be; fill-opacity: 0.75"/>
   </g>
   <g id="PathCollection_63">
    <path d="M 265.450267 91.144614 
L 267.031406 89.563475 
L 268.612545 91.144614 
L 270.193684 89.563475 
L 268.612545 87.982336 
L 270.193684 86.401197 
L 268.612545 84.820058 
L 267.031406 86.401197 
L 265.450267 84.820058 
L 263.869129 86.401197 
L 265.450267 87.982336 
L 263.869129 89.563475 
z
" style="fill: #9da6b9; fill-opacity: 0.75"/>
   </g>
   <g id="PathCollection_64">
    <path d="M 267.031406 7.700523 
C 267.870052 7.700523 268.674462 7.367326 269.267474 6.774314 
C 269.860486 6.181301 270.193684 5.376891 270.193684 4.538246 
C 270.193684 3.6996 269.860486 2.89519 269.267474 2.302178 
C 268.674462 1.709165 267.870052 1.375968 267.031406 1.375968 
C 266.19276 1.375968 265.38835 1.709165 264.795338 2.302178 
C 264.202326 2.89519 263.869129 3.6996 263.869129 4.538246 
C 263.869129 5.376891 264.202326 6.181301 264.795338 6.774314 
C 265.38835 7.367326 266.19276 7.700523 267.031406 7.700523 
z
" style="fill: #c16e71; fill-opacity: 0.75"/>
   </g>
   <g id="matplotlib.axis_15">
    <g id="xtick_8">
     <g id="line2d_22">
      <g>
       <use xlink:href="#mce524c02c3" x="267.031406" y="103.370906" style="stroke: #000000; stroke-width: 0.8"/>
      </g>
     </g>
     <g id="text_23">
      <!-- IRDS-Side-TapL -->
      <g transform="translate(237.213926 176.575673) rotate(-60) scale(0.1 -0.1)">
       <defs>
        <path id="ArialMT-54" d="M 1659 0 
L 1659 4041 
L 150 4041 
L 150 4581 
L 3781 4581 
L 3781 4041 
L 2266 4041 
L 2266 0 
L 1659 0 
z
" transform="scale(0.015625)"/>
        <path id="ArialMT-70" d="M 422 -1272 
L 422 3319 
L 934 3319 
L 934 2888 
Q 1116 3141 1344 3267 
Q 1572 3394 1897 3394 
Q 2322 3394 2647 3175 
Q 2972 2956 3137 2557 
Q 3303 2159 3303 1684 
Q 3303 1175 3120 767 
Q 2938 359 2589 142 
Q 2241 -75 1856 -75 
Q 1575 -75 1351 44 
Q 1128 163 984 344 
L 984 -1272 
L 422 -1272 
z
M 931 1641 
Q 931 1000 1190 694 
Q 1450 388 1819 388 
Q 2194 388 2461 705 
Q 2728 1022 2728 1688 
Q 2728 2322 2467 2637 
Q 2206 2953 1844 2953 
Q 1484 2953 1207 2617 
Q 931 2281 931 1641 
z
" transform="scale(0.015625)"/>
       </defs>
       <use xlink:href="#ArialMT-49"/>
       <use xlink:href="#ArialMT-52" x="27.783203"/>
       <use xlink:href="#ArialMT-44" x="100"/>
       <use xlink:href="#ArialMT-53" x="172.216797"/>
       <use xlink:href="#ArialMT-2d" x="238.916016"/>
       <use xlink:href="#ArialMT-53" x="272.216797"/>
       <use xlink:href="#ArialMT-69" x="338.916016"/>
       <use xlink:href="#ArialMT-64" x="361.132812"/>
       <use xlink:href="#ArialMT-65" x="416.748047"/>
       <use xlink:href="#ArialMT-2d" x="472.363281"/>
       <use xlink:href="#ArialMT-54" x="505.664062"/>
       <use xlink:href="#ArialMT-61" x="555.623047"/>
       <use xlink:href="#ArialMT-70" x="611.238281"/>
       <use xlink:href="#ArialMT-4c" x="666.853516"/>
      </g>
      <!-- (binary) -->
      <g transform="translate(256.087924 165.331198) rotate(-60) scale(0.1 -0.1)">
       <use xlink:href="#ArialMT-28"/>
       <use xlink:href="#ArialMT-62" x="33.300781"/>
       <use xlink:href="#ArialMT-69" x="88.916016"/>
       <use xlink:href="#ArialMT-6e" x="111.132812"/>
       <use xlink:href="#ArialMT-61" x="166.748047"/>
       <use xlink:href="#ArialMT-72" x="222.363281"/>
       <use xlink:href="#ArialMT-79" x="255.664062"/>
       <use xlink:href="#ArialMT-29" x="305.664062"/>
      </g>
     </g>
    </g>
   </g>
   <g id="matplotlib.axis_16">
    <g id="ytick_15">
     <g id="line2d_23">
      <g>
       <use xlink:href="#me0ce9187b3" x="261.811406" y="103.370906" style="stroke: #000000; stroke-width: 0.8"/>
      </g>
     </g>
     <g id="text_24">
      <!-- 60 -->
      <g transform="translate(246.189531 106.949813) scale(0.1 -0.1)">
       <defs>
        <path id="ArialMT-30" d="M 266 2259 
Q 266 3072 433 3567 
Q 600 4063 929 4331 
Q 1259 4600 1759 4600 
Q 2128 4600 2406 4451 
Q 2684 4303 2865 4023 
Q 3047 3744 3150 3342 
Q 3253 2941 3253 2259 
Q 3253 1453 3087 958 
Q 2922 463 2592 192 
Q 2263 -78 1759 -78 
Q 1097 -78 719 397 
Q 266 969 266 2259 
z
M 844 2259 
Q 844 1131 1108 757 
Q 1372 384 1759 384 
Q 2147 384 2411 759 
Q 2675 1134 2675 2259 
Q 2675 3391 2411 3762 
Q 2147 4134 1753 4134 
Q 1366 4134 1134 3806 
Q 844 3388 844 2259 
z
" transform="scale(0.015625)"/>
       </defs>
       <use xlink:href="#ArialMT-36"/>
       <use xlink:href="#ArialMT-30" x="55.615234"/>
      </g>
     </g>
    </g>
    <g id="ytick_16">
     <g id="line2d_24">
      <g>
       <use xlink:href="#me0ce9187b3" x="261.811406" y="3.578906" style="stroke: #000000; stroke-width: 0.8"/>
      </g>
     </g>
     <g id="text_25">
      <!-- 91 -->
      <g transform="translate(246.189531 7.157813) scale(0.1 -0.1)">
       <use xlink:href="#ArialMT-39"/>
       <use xlink:href="#ArialMT-31" x="55.615234"/>
      </g>
     </g>
    </g>
   </g>
   <g id="patch_24">
    <path d="M 261.811406 103.370906 
L 261.811406 3.578906 
" style="fill: none; stroke: #000000; stroke-width: 0.8; stroke-linejoin: miter; stroke-linecap: square"/>
   </g>
   <g id="patch_25">
    <path d="M 261.811406 103.370906 
L 272.251406 103.370906 
" style="fill: none; stroke: #000000; stroke-width: 0.8; stroke-linejoin: miter; stroke-linecap: square"/>
   </g>
  </g>
  <g id="axes_9">
   <g id="patch_26">
    <path d="M 293.131406 103.370906 
L 303.571406 103.370906 
L 303.571406 3.578906 
L 293.131406 3.578906 
z
" style="fill: #ffffff"/>
   </g>
   <g id="PathCollection_65">
    <path d="M 298.351406 73.404911 
L 295.189129 79.729466 
L 301.513684 79.729466 
z
" style="fill: #7da494; fill-opacity: 0.75"/>
   </g>
   <g id="PathCollection_66">
    <path d="M 298.351406 37.268916 
L 302.823542 32.796781 
L 298.351406 28.324645 
L 293.87927 32.796781 
z
" style="fill: #eab67a; fill-opacity: 0.75"/>
   </g>
   <g id="PathCollection_67">
    <path d="M 297.297314 42.478614 
L 299.405499 42.478614 
L 299.405499 40.370428 
L 301.513684 40.370428 
L 301.513684 38.262243 
L 299.405499 38.262243 
L 299.405499 36.154058 
L 297.297314 36.154058 
L 297.297314 38.262243 
L 295.189129 38.262243 
L 295.189129 40.370428 
L 297.297314 40.370428 
z
" style="fill: #9e97b7; fill-opacity: 0.75"/>
   </g>
   <g id="PathCollection_68">
    <path d="M 295.189129 39.106532 
L 301.513684 39.106532 
L 301.513684 32.781976 
L 295.189129 32.781976 
z
" style="fill: #6e8fb2; fill-opacity: 0.75"/>
   </g>
   <g id="PathCollection_69">
    <path d="M 296.770267 56.477944 
L 295.189129 59.216556 
L 296.770267 61.955169 
L 299.932545 61.955169 
L 301.513684 59.216556 
L 299.932545 56.477944 
z
" style="fill: #ddbf9f; fill-opacity: 0.75"/>
   </g>
   <g id="PathCollection_70">
    <path d="M 301.513684 100.282021 
L 295.189129 97.119743 
L 295.189129 103.444299 
z
" style="fill: #d9a7be; fill-opacity: 0.75"/>
   </g>
   <g id="PathCollection_71">
    <path d="M 296.770267 74.726392 
L 298.351406 73.145253 
L 299.932545 74.726392 
L 301.513684 73.145253 
L 299.932545 71.564114 
L 301.513684 69.982975 
L 299.932545 68.401836 
L 298.351406 69.982975 
L 296.770267 68.401836 
L 295.189129 69.982975 
L 296.770267 71.564114 
L 295.189129 73.145253 
z
" style="fill: #9da6b9; fill-opacity: 0.75"/>
   </g>
   <g id="PathCollection_72">
    <path d="M 298.351406 8.93581 
C 299.190052 8.93581 299.994462 8.602612 300.587474 8.0096 
C 301.180486 7.416588 301.513684 6.612178 301.513684 5.773532 
C 301.513684 4.934886 301.180486 4.130477 300.587474 3.537464 
C 299.994462 2.944452 299.190052 2.611255 298.351406 2.611255 
C 297.51276 2.611255 296.70835 2.944452 296.115338 3.537464 
C 295.522326 4.130477 295.189129 4.934886 295.189129 5.773532 
C 295.189129 6.612178 295.522326 7.416588 296.115338 8.0096 
C 296.70835 8.602612 297.51276 8.93581 298.351406 8.93581 
z
" style="fill: #c16e71; fill-opacity: 0.75"/>
   </g>
   <g id="matplotlib.axis_17">
    <g id="xtick_9">
     <g id="line2d_25">
      <g>
       <use xlink:href="#mce524c02c3" x="298.351406" y="103.370906" style="stroke: #000000; stroke-width: 0.8"/>
      </g>
     </g>
     <g id="text_26">
      <!-- IRDS-Side-TapR -->
      <g transform="translate(267.703457 178.014087) rotate(-60) scale(0.1 -0.1)">
       <use xlink:href="#ArialMT-49"/>
       <use xlink:href="#ArialMT-52" x="27.783203"/>
       <use xlink:href="#ArialMT-44" x="100"/>
       <use xlink:href="#ArialMT-53" x="172.216797"/>
       <use xlink:href="#ArialMT-2d" x="238.916016"/>
       <use xlink:href="#ArialMT-53" x="272.216797"/>
       <use xlink:href="#ArialMT-69" x="338.916016"/>
       <use xlink:href="#ArialMT-64" x="361.132812"/>
       <use xlink:href="#ArialMT-65" x="416.748047"/>
       <use xlink:href="#ArialMT-2d" x="472.363281"/>
       <use xlink:href="#ArialMT-54" x="505.664062"/>
       <use xlink:href="#ArialMT-61" x="555.623047"/>
       <use xlink:href="#ArialMT-70" x="611.238281"/>
       <use xlink:href="#ArialMT-52" x="666.853516"/>
      </g>
      <!-- (binary) -->
      <g transform="translate(286.99269 166.050405) rotate(-60) scale(0.1 -0.1)">
       <use xlink:href="#ArialMT-28"/>
       <use xlink:href="#ArialMT-62" x="33.300781"/>
       <use xlink:href="#ArialMT-69" x="88.916016"/>
       <use xlink:href="#ArialMT-6e" x="111.132812"/>
       <use xlink:href="#ArialMT-61" x="166.748047"/>
       <use xlink:href="#ArialMT-72" x="222.363281"/>
       <use xlink:href="#ArialMT-79" x="255.664062"/>
       <use xlink:href="#ArialMT-29" x="305.664062"/>
      </g>
     </g>
    </g>
   </g>
   <g id="matplotlib.axis_18">
    <g id="ytick_17">
     <g id="line2d_26">
      <g>
       <use xlink:href="#me0ce9187b3" x="293.131406" y="103.370906" style="stroke: #000000; stroke-width: 0.8"/>
      </g>
     </g>
     <g id="text_27">
      <!-- 58 -->
      <g transform="translate(277.509531 106.949813) scale(0.1 -0.1)">
       <use xlink:href="#ArialMT-35"/>
       <use xlink:href="#ArialMT-38" x="55.615234"/>
      </g>
     </g>
    </g>
    <g id="ytick_18">
     <g id="line2d_27">
      <g>
       <use xlink:href="#me0ce9187b3" x="293.131406" y="3.578906" style="stroke: #000000; stroke-width: 0.8"/>
      </g>
     </g>
     <g id="text_28">
      <!-- 92 -->
      <g transform="translate(277.509531 7.157813) scale(0.1 -0.1)">
       <defs>
        <path id="ArialMT-32" d="M 3222 541 
L 3222 0 
L 194 0 
Q 188 203 259 391 
Q 375 700 629 1000 
Q 884 1300 1366 1694 
Q 2113 2306 2375 2664 
Q 2638 3022 2638 3341 
Q 2638 3675 2398 3904 
Q 2159 4134 1775 4134 
Q 1369 4134 1125 3890 
Q 881 3647 878 3216 
L 300 3275 
Q 359 3922 746 4261 
Q 1134 4600 1788 4600 
Q 2447 4600 2831 4234 
Q 3216 3869 3216 3328 
Q 3216 3053 3103 2787 
Q 2991 2522 2730 2228 
Q 2469 1934 1863 1422 
Q 1356 997 1212 845 
Q 1069 694 975 541 
L 3222 541 
z
" transform="scale(0.015625)"/>
       </defs>
       <use xlink:href="#ArialMT-39"/>
       <use xlink:href="#ArialMT-32" x="55.615234"/>
      </g>
     </g>
    </g>
   </g>
   <g id="patch_27">
    <path d="M 293.131406 103.370906 
L 293.131406 3.578906 
" style="fill: none; stroke: #000000; stroke-width: 0.8; stroke-linejoin: miter; stroke-linecap: square"/>
   </g>
   <g id="patch_28">
    <path d="M 293.131406 103.370906 
L 303.571406 103.370906 
" style="fill: none; stroke: #000000; stroke-width: 0.8; stroke-linejoin: miter; stroke-linecap: square"/>
   </g>
  </g>
  <g id="axes_10">
   <g id="patch_29">
    <path d="M 324.451406 103.370906 
L 334.891406 103.370906 
L 334.891406 3.578906 
L 324.451406 3.578906 
z
" style="fill: #ffffff"/>
   </g>
   <g id="PathCollection_73">
    <path d="M 329.671406 93.014775 
L 326.509129 99.33933 
L 332.833684 99.33933 
z
" style="fill: #7da494; fill-opacity: 0.75"/>
   </g>
   <g id="PathCollection_74">
    <path d="M 329.671406 68.558735 
L 334.143542 64.086599 
L 329.671406 59.614463 
L 325.19927 64.086599 
z
" style="fill: #eab67a; fill-opacity: 0.75"/>
   </g>
   <g id="PathCollection_75">
    <path d="M 328.617314 82.809883 
L 330.725499 82.809883 
L 330.725499 80.701698 
L 332.833684 80.701698 
L 332.833684 78.593513 
L 330.725499 78.593513 
L 330.725499 76.485328 
L 328.617314 76.485328 
L 328.617314 78.593513 
L 326.509129 78.593513 
L 326.509129 80.701698 
L 328.617314 80.701698 
z
" style="fill: #9e97b7; fill-opacity: 0.75"/>
   </g>
   <g id="PathCollection_76">
    <path d="M 326.509129 78.598279 
L 332.833684 78.598279 
L 332.833684 72.273724 
L 326.509129 72.273724 
z
" style="fill: #6e8fb2; fill-opacity: 0.75"/>
   </g>
   <g id="PathCollection_77">
    <path d="M 328.090267 63.361193 
L 326.509129 66.099806 
L 328.090267 68.838419 
L 331.252545 68.838419 
L 332.833684 66.099806 
L 331.252545 63.361193 
z
" style="fill: #ddbf9f; fill-opacity: 0.75"/>
   </g>
   <g id="PathCollection_78">
    <path d="M 332.833684 85.098777 
L 326.509129 81.9365 
L 326.509129 88.261055 
z
" style="fill: #d9a7be; fill-opacity: 0.75"/>
   </g>
   <g id="PathCollection_79">
    <path d="M 328.090267 71.124701 
L 329.671406 69.543563 
L 331.252545 71.124701 
L 332.833684 69.543563 
L 331.252545 67.962424 
L 332.833684 66.381285 
L 331.252545 64.800146 
L 329.671406 66.381285 
L 328.090267 64.800146 
L 326.509129 66.381285 
L 328.090267 67.962424 
L 326.509129 69.543563 
z
" style="fill: #9da6b9; fill-opacity: 0.75"/>
   </g>
   <g id="PathCollection_80">
    <path d="M 329.671406 9.414771 
C 330.510052 9.414771 331.314462 9.081573 331.907474 8.488561 
C 332.500486 7.895549 332.833684 7.091139 332.833684 6.252493 
C 332.833684 5.413848 332.500486 4.609438 331.907474 4.016425 
C 331.314462 3.423413 330.510052 3.090216 329.671406 3.090216 
C 328.83276 3.090216 328.02835 3.423413 327.435338 4.016425 
C 326.842326 4.609438 326.509129 5.413848 326.509129 6.252493 
C 326.509129 7.091139 326.842326 7.895549 327.435338 8.488561 
C 328.02835 9.081573 328.83276 9.414771 329.671406 9.414771 
z
" style="fill: #c16e71; fill-opacity: 0.75"/>
   </g>
   <g id="matplotlib.axis_19">
    <g id="xtick_10">
     <g id="line2d_28">
      <g>
       <use xlink:href="#mce524c02c3" x="329.671406" y="103.370906" style="stroke: #000000; stroke-width: 0.8"/>
      </g>
     </g>
     <g id="text_29">
      <!-- TRSP-Seated-Motion -->
      <g transform="translate(288.353066 196.251995) rotate(-60) scale(0.1 -0.1)">
       <defs>
        <path id="ArialMT-50" d="M 494 0 
L 494 4581 
L 2222 4581 
Q 2678 4581 2919 4538 
Q 3256 4481 3484 4323 
Q 3713 4166 3852 3881 
Q 3991 3597 3991 3256 
Q 3991 2672 3619 2267 
Q 3247 1863 2275 1863 
L 1100 1863 
L 1100 0 
L 494 0 
z
M 1100 2403 
L 2284 2403 
Q 2872 2403 3119 2622 
Q 3366 2841 3366 3238 
Q 3366 3525 3220 3729 
Q 3075 3934 2838 4000 
Q 2684 4041 2272 4041 
L 1100 4041 
L 1100 2403 
z
" transform="scale(0.015625)"/>
        <path id="ArialMT-4d" d="M 475 0 
L 475 4581 
L 1388 4581 
L 2472 1338 
Q 2622 884 2691 659 
Q 2769 909 2934 1394 
L 4031 4581 
L 4847 4581 
L 4847 0 
L 4263 0 
L 4263 3834 
L 2931 0 
L 2384 0 
L 1059 3900 
L 1059 0 
L 475 0 
z
" transform="scale(0.015625)"/>
       </defs>
       <use xlink:href="#ArialMT-54"/>
       <use xlink:href="#ArialMT-52" x="61.083984"/>
       <use xlink:href="#ArialMT-53" x="133.300781"/>
       <use xlink:href="#ArialMT-50" x="200"/>
       <use xlink:href="#ArialMT-2d" x="266.699219"/>
       <use xlink:href="#ArialMT-53" x="300"/>
       <use xlink:href="#ArialMT-65" x="366.699219"/>
       <use xlink:href="#ArialMT-61" x="422.314453"/>
       <use xlink:href="#ArialMT-74" x="477.929688"/>
       <use xlink:href="#ArialMT-65" x="505.712891"/>
       <use xlink:href="#ArialMT-64" x="561.328125"/>
       <use xlink:href="#ArialMT-2d" x="616.943359"/>
       <use xlink:href="#ArialMT-4d" x="650.244141"/>
       <use xlink:href="#ArialMT-6f" x="733.544922"/>
       <use xlink:href="#ArialMT-74" x="789.160156"/>
       <use xlink:href="#ArialMT-69" x="816.943359"/>
       <use xlink:href="#ArialMT-6f" x="839.160156"/>
       <use xlink:href="#ArialMT-6e" x="894.775391"/>
      </g>
      <!-- (4-class) -->
      <g transform="translate(311.814955 177.061061) rotate(-60) scale(0.1 -0.1)">
       <defs>
        <path id="ArialMT-34" d="M 2069 0 
L 2069 1097 
L 81 1097 
L 81 1613 
L 2172 4581 
L 2631 4581 
L 2631 1613 
L 3250 1613 
L 3250 1097 
L 2631 1097 
L 2631 0 
L 2069 0 
z
M 2069 1613 
L 2069 3678 
L 634 1613 
L 2069 1613 
z
" transform="scale(0.015625)"/>
        <path id="ArialMT-73" d="M 197 991 
L 753 1078 
Q 800 744 1014 566 
Q 1228 388 1613 388 
Q 2000 388 2187 545 
Q 2375 703 2375 916 
Q 2375 1106 2209 1216 
Q 2094 1291 1634 1406 
Q 1016 1563 777 1677 
Q 538 1791 414 1992 
Q 291 2194 291 2438 
Q 291 2659 392 2848 
Q 494 3038 669 3163 
Q 800 3259 1026 3326 
Q 1253 3394 1513 3394 
Q 1903 3394 2198 3281 
Q 2494 3169 2634 2976 
Q 2775 2784 2828 2463 
L 2278 2388 
Q 2241 2644 2061 2787 
Q 1881 2931 1553 2931 
Q 1166 2931 1000 2803 
Q 834 2675 834 2503 
Q 834 2394 903 2306 
Q 972 2216 1119 2156 
Q 1203 2125 1616 2013 
Q 2213 1853 2448 1751 
Q 2684 1650 2818 1456 
Q 2953 1263 2953 975 
Q 2953 694 2789 445 
Q 2625 197 2315 61 
Q 2006 -75 1616 -75 
Q 969 -75 630 194 
Q 291 463 197 991 
z
" transform="scale(0.015625)"/>
       </defs>
       <use xlink:href="#ArialMT-28"/>
       <use xlink:href="#ArialMT-34" x="33.300781"/>
       <use xlink:href="#ArialMT-2d" x="88.916016"/>
       <use xlink:href="#ArialMT-63" x="122.216797"/>
       <use xlink:href="#ArialMT-6c" x="172.216797"/>
       <use xlink:href="#ArialMT-61" x="194.433594"/>
       <use xlink:href="#ArialMT-73" x="250.048828"/>
       <use xlink:href="#ArialMT-73" x="300.048828"/>
       <use xlink:href="#ArialMT-29" x="350.048828"/>
      </g>
     </g>
    </g>
   </g>
   <g id="matplotlib.axis_20">
    <g id="ytick_19">
     <g id="line2d_29">
      <g>
       <use xlink:href="#me0ce9187b3" x="324.451406" y="103.370906" style="stroke: #000000; stroke-width: 0.8"/>
      </g>
     </g>
     <g id="text_30">
      <!-- 66 -->
      <g transform="translate(308.829531 106.949813) scale(0.1 -0.1)">
       <use xlink:href="#ArialMT-36"/>
       <use xlink:href="#ArialMT-36" x="55.615234"/>
      </g>
     </g>
    </g>
    <g id="ytick_20">
     <g id="line2d_30">
      <g>
       <use xlink:href="#me0ce9187b3" x="324.451406" y="3.578906" style="stroke: #000000; stroke-width: 0.8"/>
      </g>
     </g>
     <g id="text_31">
      <!-- 80 -->
      <g transform="translate(308.829531 7.157813) scale(0.1 -0.1)">
       <use xlink:href="#ArialMT-38"/>
       <use xlink:href="#ArialMT-30" x="55.615234"/>
      </g>
     </g>
    </g>
   </g>
   <g id="patch_30">
    <path d="M 324.451406 103.370906 
L 324.451406 3.578906 
" style="fill: none; stroke: #000000; stroke-width: 0.8; stroke-linejoin: miter; stroke-linecap: square"/>
   </g>
   <g id="patch_31">
    <path d="M 324.451406 103.370906 
L 334.891406 103.370906 
" style="fill: none; stroke: #000000; stroke-width: 0.8; stroke-linejoin: miter; stroke-linecap: square"/>
   </g>
  </g>
  <g id="axes_11">
   <g id="patch_32">
    <path d="M 355.771406 103.370906 
L 366.211406 103.370906 
L 366.211406 3.578906 
L 355.771406 3.578906 
z
" style="fill: #ffffff"/>
   </g>
   <g id="PathCollection_81">
    <path d="M 360.991406 11.092283 
C 361.830052 11.092283 362.634462 10.759085 363.227474 10.166073 
C 363.820486 9.573061 364.153684 8.768651 364.153684 7.930005 
C 364.153684 7.091359 363.820486 6.286949 363.227474 5.693937 
C 362.634462 5.100925 361.830052 4.767727 360.991406 4.767727 
C 360.15276 4.767727 359.34835 5.100925 358.755338 5.693937 
C 358.162326 6.286949 357.829129 7.091359 357.829129 7.930005 
C 357.829129 8.768651 358.162326 9.573061 358.755338 10.166073 
C 359.34835 10.759085 360.15276 11.092283 360.991406 11.092283 
z
" style="fill: #c16e71"/>
   </g>
   <g id="PathCollection_82">
    <defs>
     <path id="m87fd09b08c" d="M 0 -3.162278 
L -3.007505 -0.977198 
L -1.85874 2.558336 
L 1.85874 2.558336 
L 3.007505 -0.977198 
z
" style="stroke: #8a8a8a"/>
    </defs>
    <g>
     <use xlink:href="#m87fd09b08c" x="360.991406" y="99.271094" style="fill: #8a8a8a; stroke: #8a8a8a"/>
    </g>
   </g>
   <g id="matplotlib.axis_21">
    <g id="xtick_11">
     <g id="line2d_31">
      <g>
       <use xlink:href="#mce524c02c3" x="360.991406" y="103.370906" style="stroke: #000000; stroke-width: 0.8"/>
      </g>
     </g>
     <g id="text_32">
      <!-- Mean -->
      <g transform="translate(354.684004 135.611273) rotate(-60) scale(0.1 -0.1)">
       <use xlink:href="#ArialMT-4d"/>
       <use xlink:href="#ArialMT-65" x="83.300781"/>
       <use xlink:href="#ArialMT-61" x="138.916016"/>
       <use xlink:href="#ArialMT-6e" x="194.53125"/>
      </g>
     </g>
    </g>
   </g>
   <g id="matplotlib.axis_22">
    <g id="ytick_21">
     <g id="line2d_32">
      <g>
       <use xlink:href="#me0ce9187b3" x="355.771406" y="103.370906" style="stroke: #000000; stroke-width: 0.8"/>
      </g>
     </g>
     <g id="text_33">
      <!-- 80 -->
      <g transform="translate(340.149531 106.949812) scale(0.1 -0.1)">
       <use xlink:href="#ArialMT-38"/>
       <use xlink:href="#ArialMT-30" x="55.615234"/>
      </g>
     </g>
    </g>
    <g id="ytick_22">
     <g id="line2d_33">
      <g>
       <use xlink:href="#me0ce9187b3" x="355.771406" y="3.578906" style="stroke: #000000; stroke-width: 0.8"/>
      </g>
     </g>
     <g id="text_34">
      <!-- 94 -->
      <g transform="translate(340.149531 7.157812) scale(0.1 -0.1)">
       <use xlink:href="#ArialMT-39"/>
       <use xlink:href="#ArialMT-34" x="55.615234"/>
      </g>
     </g>
    </g>
   </g>
   <g id="line2d_34">
    <path d="M 365.689406 7.930005 
L 365.689406 99.271094 
" style="fill: none; stroke: #000000; stroke-width: 0.8; stroke-linecap: square"/>
   </g>
   <g id="patch_33">
    <path d="M 355.771406 103.370906 
L 355.771406 3.578906 
" style="fill: none; stroke: #000000; stroke-width: 0.8; stroke-linejoin: miter; stroke-linecap: square"/>
   </g>
   <g id="patch_34">
    <path d="M 355.771406 103.370906 
L 366.211406 103.370906 
" style="fill: none; stroke: #000000; stroke-width: 0.8; stroke-linejoin: miter; stroke-linecap: square"/>
   </g>
   <g id="text_35">
    <!-- $P$ &lt; 0.0001 -->
    <g transform="translate(366.733406 56.185706) scale(0.1 -0.1)">
     <defs>
      <path id="DejaVuSans-Oblique-50" d="M 1081 4666 
L 2541 4666 
Q 3178 4666 3512 4369 
Q 3847 4072 3847 3500 
Q 3847 2731 3353 2303 
Q 2859 1875 1966 1875 
L 1172 1875 
L 806 0 
L 172 0 
L 1081 4666 
z
M 1613 4147 
L 1275 2394 
L 2069 2394 
Q 2606 2394 2893 2669 
Q 3181 2944 3181 3456 
Q 3181 3784 2986 3965 
Q 2791 4147 2438 4147 
L 1613 4147 
z
" transform="scale(0.015625)"/>
      <path id="ArialMT-3c" d="M 350 2003 
L 350 2528 
L 3384 3809 
L 3384 3250 
L 978 2263 
L 3384 1266 
L 3384 706 
L 350 2003 
z
" transform="scale(0.015625)"/>
      <path id="ArialMT-2e" d="M 581 0 
L 581 641 
L 1222 641 
L 1222 0 
L 581 0 
z
" transform="scale(0.015625)"/>
     </defs>
     <use xlink:href="#DejaVuSans-Oblique-50" transform="translate(0 0.09375)"/>
     <use xlink:href="#ArialMT-20" transform="translate(60.302734 0.09375)"/>
     <use xlink:href="#ArialMT-3c" transform="translate(88.085938 0.09375)"/>
     <use xlink:href="#ArialMT-20" transform="translate(146.484375 0.09375)"/>
     <use xlink:href="#ArialMT-30" transform="translate(174.267578 0.09375)"/>
     <use xlink:href="#ArialMT-2e" transform="translate(229.882812 0.09375)"/>
     <use xlink:href="#ArialMT-30" transform="translate(257.666016 0.09375)"/>
     <use xlink:href="#ArialMT-30" transform="translate(313.28125 0.09375)"/>
     <use xlink:href="#ArialMT-30" transform="translate(368.896484 0.09375)"/>
     <use xlink:href="#ArialMT-31" transform="translate(424.511719 0.09375)"/>
    </g>
   </g>
  </g>
 </g>
</svg>
