<?xml version="1.0" encoding="utf-8" standalone="no"?>
<!DOCTYPE svg PUBLIC "-//W3C//DTD SVG 1.1//EN"
  "http://www.w3.org/Graphics/SVG/1.1/DTD/svg11.dtd">
<svg xmlns:xlink="http://www.w3.org/1999/xlink" width="414.833406pt" height="226.256975pt" viewBox="0 0 414.833406 226.256975" xmlns="http://www.w3.org/2000/svg" version="1.1">
 <metadata>
  <rdf:RDF xmlns:dc="http://purl.org/dc/elements/1.1/" xmlns:cc="http://creativecommons.org/ns#" xmlns:rdf="http://www.w3.org/1999/02/22-rdf-syntax-ns#">
   <cc:Work>
    <dc:type rdf:resource="http://purl.org/dc/dcmitype/StillImage"/>
    <dc:date>2026-05-16T21:51:02.128543</dc:date>
    <dc:format>image/svg+xml</dc:format>
    <dc:creator>
     <cc:Agent>
      <dc:title>Matplotlib v3.9.2, https://matplotlib.org/</dc:title>
     </cc:Agent>
    </dc:creator>
   </cc:Work>
  </rdf:RDF>
 </metadata>
 <defs>
  <style type="text/css">*{stroke-linejoin: round; stroke-linecap: butt}</style>
 </defs>
 <g id="figure_1">
  <g id="patch_1">
   <path d="M 0 226.256975 
L 414.833406 226.256975 
L 414.833406 0 
L 0 0 
z
" style="fill: #ffffff"/>
  </g>
  <g id="axes_1">
   <g id="patch_2">
    <path d="M 42.571406 103.370906 
L 53.011406 103.370906 
L 53.011406 3.578906 
L 42.571406 3.578906 
z
" style="fill: #ffffff"/>
   </g>
   <g id="PathCollection_1">
    <path d="M 47.791406 70.189415 
L 44.629129 76.51397 
L 50.953684 76.51397 
z
" style="fill: #7da494; fill-opacity: 0.75"/>
   </g>
   <g id="PathCollection_2">
    <path d="M 47.791406 60.945151 
L 52.263542 56.473015 
L 47.791406 52.000879 
L 43.31927 56.473015 
z
" style="fill: #eab67a; fill-opacity: 0.75"/>
   </g>
   <g id="PathCollection_3">
    <path d="M 46.737314 33.080878 
L 48.845499 33.080878 
L 48.845499 30.972693 
L 50.953684 30.972693 
L 50.953684 28.864507 
L 48.845499 28.864507 
L 48.845499 26.756322 
L 46.737314 26.756322 
L 46.737314 28.864507 
L 44.629129 28.864507 
L 44.629129 30.972693 
L 46.737314 30.972693 
z
" style="fill: #9e97b7; fill-opacity: 0.75"/>
   </g>
   <g id="PathCollection_4">
    <path d="M 44.629129 19.466374 
L 50.953684 19.466374 
L 50.953684 13.141819 
L 44.629129 13.141819 
z
" style="fill: #6e8fb2; fill-opacity: 0.75"/>
   </g>
   <g id="PathCollection_5">
    <path d="M 46.210267 54.781296 
L 44.629129 57.519909 
L 46.210267 60.258522 
L 49.372545 60.258522 
L 50.953684 57.519909 
L 49.372545 54.781296 
z
" style="fill: #ddbf9f; fill-opacity: 0.75"/>
   </g>
   <g id="PathCollection_6">
    <path d="M 50.953684 98.879344 
L 44.629129 95.717066 
L 44.629129 102.041621 
z
" style="fill: #d9a7be; fill-opacity: 0.75"/>
   </g>
   <g id="PathCollection_7">
    <path d="M 46.210267 68.63527 
L 47.791406 67.054131 
L 49.372545 68.63527 
L 50.953684 67.054131 
L 49.372545 65.472993 
L 50.953684 63.891854 
L 49.372545 62.310715 
L 47.791406 63.891854 
L 46.210267 62.310715 
L 44.629129 63.891854 
L 46.210267 65.472993 
L 44.629129 67.054131 
z
" style="fill: #9da6b9; fill-opacity: 0.75"/>
   </g>
   <g id="PathCollection_8">
    <path d="M 47.791406 8.129429 
C 48.630052 8.129429 49.434462 7.796232 50.027474 7.20322 
C 50.620486 6.610207 50.953684 5.805797 50.953684 4.967152 
C 50.953684 4.128506 50.620486 3.324096 50.027474 2.731084 
C 49.434462 2.138071 48.630052 1.804874 47.791406 1.804874 
C 46.95276 1.804874 46.14835 2.138071 45.555338 2.731084 
C 44.962326 3.324096 44.629129 4.128506 44.629129 4.967152 
C 44.629129 5.805797 44.962326 6.610207 45.555338 7.20322 
C 46.14835 7.796232 46.95276 8.129429 47.791406 8.129429 
z
" style="fill: #c16e71; fill-opacity: 0.75"/>
   </g>
   <g id="matplotlib.axis_1">
    <g id="xtick_1">
     <g id="line2d_1">
      <defs>
       <path id="m09ed0e0878" d="M 0 0 
L 0 3.5 
" style="stroke: #000000; stroke-width: 0.8"/>
      </defs>
      <g>
       <use xlink:href="#m09ed0e0878" x="47.791406" y="103.370906" style="stroke: #000000; stroke-width: 0.8"/>
      </g>
     </g>
     <g id="text_1">
      <!-- IRDS-Elbow-FlexionL -->
      <g transform="translate(6.198847 196.726956) rotate(-60) scale(0.1 -0.1)">
       <defs>
        <path id="ArialMT-49" d="M 597 0 
L 597 4581 
L 1203 4581 
L 1203 0 
L 597 0 
z
" transform="scale(0.015625)"/>
        <path id="ArialMT-52" d="M 503 0 
L 503 4581 
L 2534 4581 
Q 3147 4581 3465 4457 
Q 3784 4334 3975 4021 
Q 4166 3709 4166 3331 
Q 4166 2844 3850 2509 
Q 3534 2175 2875 2084 
Q 3116 1969 3241 1856 
Q 3506 1613 3744 1247 
L 4541 0 
L 3778 0 
L 3172 953 
Q 2906 1366 2734 1584 
Q 2563 1803 2427 1890 
Q 2291 1978 2150 2013 
Q 2047 2034 1813 2034 
L 1109 2034 
L 1109 0 
L 503 0 
z
M 1109 2559 
L 2413 2559 
Q 2828 2559 3062 2645 
Q 3297 2731 3419 2920 
Q 3541 3109 3541 3331 
Q 3541 3656 3305 3865 
Q 3069 4075 2559 4075 
L 1109 4075 
L 1109 2559 
z
" transform="scale(0.015625)"/>
        <path id="ArialMT-44" d="M 494 0 
L 494 4581 
L 2072 4581 
Q 2606 4581 2888 4516 
Q 3281 4425 3559 4188 
Q 3922 3881 4101 3404 
Q 4281 2928 4281 2316 
Q 4281 1794 4159 1391 
Q 4038 988 3847 723 
Q 3656 459 3429 307 
Q 3203 156 2883 78 
Q 2563 0 2147 0 
L 494 0 
z
M 1100 541 
L 2078 541 
Q 2531 541 2789 625 
Q 3047 709 3200 863 
Q 3416 1078 3536 1442 
Q 3656 1806 3656 2325 
Q 3656 3044 3420 3430 
Q 3184 3816 2847 3947 
Q 2603 4041 2063 4041 
L 1100 4041 
L 1100 541 
z
" transform="scale(0.015625)"/>
        <path id="ArialMT-53" d="M 288 1472 
L 859 1522 
Q 900 1178 1048 958 
Q 1197 738 1509 602 
Q 1822 466 2213 466 
Q 2559 466 2825 569 
Q 3091 672 3220 851 
Q 3350 1031 3350 1244 
Q 3350 1459 3225 1620 
Q 3100 1781 2813 1891 
Q 2628 1963 1997 2114 
Q 1366 2266 1113 2400 
Q 784 2572 623 2826 
Q 463 3081 463 3397 
Q 463 3744 659 4045 
Q 856 4347 1234 4503 
Q 1613 4659 2075 4659 
Q 2584 4659 2973 4495 
Q 3363 4331 3572 4012 
Q 3781 3694 3797 3291 
L 3216 3247 
Q 3169 3681 2898 3903 
Q 2628 4125 2100 4125 
Q 1550 4125 1298 3923 
Q 1047 3722 1047 3438 
Q 1047 3191 1225 3031 
Q 1400 2872 2139 2705 
Q 2878 2538 3153 2413 
Q 3553 2228 3743 1945 
Q 3934 1663 3934 1294 
Q 3934 928 3725 604 
Q 3516 281 3123 101 
Q 2731 -78 2241 -78 
Q 1619 -78 1198 103 
Q 778 284 539 648 
Q 300 1013 288 1472 
z
" transform="scale(0.015625)"/>
        <path id="ArialMT-2d" d="M 203 1375 
L 203 1941 
L 1931 1941 
L 1931 1375 
L 203 1375 
z
" transform="scale(0.015625)"/>
        <path id="ArialMT-45" d="M 506 0 
L 506 4581 
L 3819 4581 
L 3819 4041 
L 1113 4041 
L 1113 2638 
L 3647 2638 
L 3647 2100 
L 1113 2100 
L 1113 541 
L 3925 541 
L 3925 0 
L 506 0 
z
" transform="scale(0.015625)"/>
        <path id="ArialMT-6c" d="M 409 0 
L 409 4581 
L 972 4581 
L 972 0 
L 409 0 
z
" transform="scale(0.015625)"/>
        <path id="ArialMT-62" d="M 941 0 
L 419 0 
L 419 4581 
L 981 4581 
L 981 2947 
Q 1338 3394 1891 3394 
Q 2197 3394 2470 3270 
Q 2744 3147 2920 2923 
Q 3097 2700 3197 2384 
Q 3297 2069 3297 1709 
Q 3297 856 2875 390 
Q 2453 -75 1863 -75 
Q 1275 -75 941 416 
L 941 0 
z
M 934 1684 
Q 934 1088 1097 822 
Q 1363 388 1816 388 
Q 2184 388 2453 708 
Q 2722 1028 2722 1663 
Q 2722 2313 2464 2622 
Q 2206 2931 1841 2931 
Q 1472 2931 1203 2611 
Q 934 2291 934 1684 
z
" transform="scale(0.015625)"/>
        <path id="ArialMT-6f" d="M 213 1659 
Q 213 2581 725 3025 
Q 1153 3394 1769 3394 
Q 2453 3394 2887 2945 
Q 3322 2497 3322 1706 
Q 3322 1066 3130 698 
Q 2938 331 2570 128 
Q 2203 -75 1769 -75 
Q 1072 -75 642 372 
Q 213 819 213 1659 
z
M 791 1659 
Q 791 1022 1069 705 
Q 1347 388 1769 388 
Q 2188 388 2466 706 
Q 2744 1025 2744 1678 
Q 2744 2294 2464 2611 
Q 2184 2928 1769 2928 
Q 1347 2928 1069 2612 
Q 791 2297 791 1659 
z
" transform="scale(0.015625)"/>
        <path id="ArialMT-77" d="M 1034 0 
L 19 3319 
L 600 3319 
L 1128 1403 
L 1325 691 
Q 1338 744 1497 1375 
L 2025 3319 
L 2603 3319 
L 3100 1394 
L 3266 759 
L 3456 1400 
L 4025 3319 
L 4572 3319 
L 3534 0 
L 2950 0 
L 2422 1988 
L 2294 2553 
L 1622 0 
L 1034 0 
z
" transform="scale(0.015625)"/>
        <path id="ArialMT-46" d="M 525 0 
L 525 4581 
L 3616 4581 
L 3616 4041 
L 1131 4041 
L 1131 2622 
L 3281 2622 
L 3281 2081 
L 1131 2081 
L 1131 0 
L 525 0 
z
" transform="scale(0.015625)"/>
        <path id="ArialMT-65" d="M 2694 1069 
L 3275 997 
Q 3138 488 2766 206 
Q 2394 -75 1816 -75 
Q 1088 -75 661 373 
Q 234 822 234 1631 
Q 234 2469 665 2931 
Q 1097 3394 1784 3394 
Q 2450 3394 2872 2941 
Q 3294 2488 3294 1666 
Q 3294 1616 3291 1516 
L 816 1516 
Q 847 969 1125 678 
Q 1403 388 1819 388 
Q 2128 388 2347 550 
Q 2566 713 2694 1069 
z
M 847 1978 
L 2700 1978 
Q 2663 2397 2488 2606 
Q 2219 2931 1791 2931 
Q 1403 2931 1139 2672 
Q 875 2413 847 1978 
z
" transform="scale(0.015625)"/>
        <path id="ArialMT-78" d="M 47 0 
L 1259 1725 
L 138 3319 
L 841 3319 
L 1350 2541 
Q 1494 2319 1581 2169 
Q 1719 2375 1834 2534 
L 2394 3319 
L 3066 3319 
L 1919 1756 
L 3153 0 
L 2463 0 
L 1781 1031 
L 1600 1309 
L 728 0 
L 47 0 
z
" transform="scale(0.015625)"/>
        <path id="ArialMT-69" d="M 425 3934 
L 425 4581 
L 988 4581 
L 988 3934 
L 425 3934 
z
M 425 0 
L 425 3319 
L 988 3319 
L 988 0 
L 425 0 
z
" transform="scale(0.015625)"/>
        <path id="ArialMT-6e" d="M 422 0 
L 422 3319 
L 928 3319 
L 928 2847 
Q 1294 3394 1984 3394 
Q 2284 3394 2536 3286 
Q 2788 3178 2913 3003 
Q 3038 2828 3088 2588 
Q 3119 2431 3119 2041 
L 3119 0 
L 2556 0 
L 2556 2019 
Q 2556 2363 2490 2533 
Q 2425 2703 2258 2804 
Q 2091 2906 1866 2906 
Q 1506 2906 1245 2678 
Q 984 2450 984 1813 
L 984 0 
L 422 0 
z
" transform="scale(0.015625)"/>
        <path id="ArialMT-4c" d="M 469 0 
L 469 4581 
L 1075 4581 
L 1075 541 
L 3331 541 
L 3331 0 
L 469 0 
z
" transform="scale(0.015625)"/>
       </defs>
       <use xlink:href="#ArialMT-49"/>
       <use xlink:href="#ArialMT-52" x="27.783203"/>
       <use xlink:href="#ArialMT-44" x="100"/>
       <use xlink:href="#ArialMT-53" x="172.216797"/>
       <use xlink:href="#ArialMT-2d" x="238.916016"/>
       <use xlink:href="#ArialMT-45" x="272.216797"/>
       <use xlink:href="#ArialMT-6c" x="338.916016"/>
       <use xlink:href="#ArialMT-62" x="361.132812"/>
       <use xlink:href="#ArialMT-6f" x="416.748047"/>
       <use xlink:href="#ArialMT-77" x="472.363281"/>
       <use xlink:href="#ArialMT-2d" x="544.580078"/>
       <use xlink:href="#ArialMT-46" x="577.880859"/>
       <use xlink:href="#ArialMT-6c" x="638.964844"/>
       <use xlink:href="#ArialMT-65" x="661.181641"/>
       <use xlink:href="#ArialMT-78" x="716.796875"/>
       <use xlink:href="#ArialMT-69" x="766.796875"/>
       <use xlink:href="#ArialMT-6f" x="789.013672"/>
       <use xlink:href="#ArialMT-6e" x="844.628906"/>
       <use xlink:href="#ArialMT-4c" x="900.244141"/>
      </g>
      <!-- (binary) -->
      <g transform="translate(30.907612 175.376371) rotate(-60) scale(0.1 -0.1)">
       <defs>
        <path id="ArialMT-28" d="M 1497 -1347 
Q 1031 -759 709 28 
Q 388 816 388 1659 
Q 388 2403 628 3084 
Q 909 3875 1497 4659 
L 1900 4659 
Q 1522 4009 1400 3731 
Q 1209 3300 1100 2831 
Q 966 2247 966 1656 
Q 966 153 1900 -1347 
L 1497 -1347 
z
" transform="scale(0.015625)"/>
        <path id="ArialMT-61" d="M 2588 409 
Q 2275 144 1986 34 
Q 1697 -75 1366 -75 
Q 819 -75 525 192 
Q 231 459 231 875 
Q 231 1119 342 1320 
Q 453 1522 633 1644 
Q 813 1766 1038 1828 
Q 1203 1872 1538 1913 
Q 2219 1994 2541 2106 
Q 2544 2222 2544 2253 
Q 2544 2597 2384 2738 
Q 2169 2928 1744 2928 
Q 1347 2928 1158 2789 
Q 969 2650 878 2297 
L 328 2372 
Q 403 2725 575 2942 
Q 747 3159 1072 3276 
Q 1397 3394 1825 3394 
Q 2250 3394 2515 3294 
Q 2781 3194 2906 3042 
Q 3031 2891 3081 2659 
Q 3109 2516 3109 2141 
L 3109 1391 
Q 3109 606 3145 398 
Q 3181 191 3288 0 
L 2700 0 
Q 2613 175 2588 409 
z
M 2541 1666 
Q 2234 1541 1622 1453 
Q 1275 1403 1131 1340 
Q 988 1278 909 1158 
Q 831 1038 831 891 
Q 831 666 1001 516 
Q 1172 366 1500 366 
Q 1825 366 2078 508 
Q 2331 650 2450 897 
Q 2541 1088 2541 1459 
L 2541 1666 
z
" transform="scale(0.015625)"/>
        <path id="ArialMT-72" d="M 416 0 
L 416 3319 
L 922 3319 
L 922 2816 
Q 1116 3169 1280 3281 
Q 1444 3394 1641 3394 
Q 1925 3394 2219 3213 
L 2025 2691 
Q 1819 2813 1613 2813 
Q 1428 2813 1281 2702 
Q 1134 2591 1072 2394 
Q 978 2094 978 1738 
L 978 0 
L 416 0 
z
" transform="scale(0.015625)"/>
        <path id="ArialMT-79" d="M 397 -1278 
L 334 -750 
Q 519 -800 656 -800 
Q 844 -800 956 -737 
Q 1069 -675 1141 -563 
Q 1194 -478 1313 -144 
Q 1328 -97 1363 -6 
L 103 3319 
L 709 3319 
L 1400 1397 
Q 1534 1031 1641 628 
Q 1738 1016 1872 1384 
L 2581 3319 
L 3144 3319 
L 1881 -56 
Q 1678 -603 1566 -809 
Q 1416 -1088 1222 -1217 
Q 1028 -1347 759 -1347 
Q 597 -1347 397 -1278 
z
" transform="scale(0.015625)"/>
        <path id="ArialMT-29" d="M 791 -1347 
L 388 -1347 
Q 1322 153 1322 1656 
Q 1322 2244 1188 2822 
Q 1081 3291 891 3722 
Q 769 4003 388 4659 
L 791 4659 
Q 1378 3875 1659 3084 
Q 1900 2403 1900 1659 
Q 1900 816 1576 28 
Q 1253 -759 791 -1347 
z
" transform="scale(0.015625)"/>
       </defs>
       <use xlink:href="#ArialMT-28"/>
       <use xlink:href="#ArialMT-62" x="33.300781"/>
       <use xlink:href="#ArialMT-69" x="88.916016"/>
       <use xlink:href="#ArialMT-6e" x="111.132812"/>
       <use xlink:href="#ArialMT-61" x="166.748047"/>
       <use xlink:href="#ArialMT-72" x="222.363281"/>
       <use xlink:href="#ArialMT-79" x="255.664062"/>
       <use xlink:href="#ArialMT-29" x="305.664062"/>
      </g>
     </g>
    </g>
   </g>
   <g id="matplotlib.axis_2">
    <g id="ytick_1">
     <g id="line2d_2">
      <defs>
       <path id="m0e82b5ba37" d="M 0 0 
L -3.5 0 
" style="stroke: #000000; stroke-width: 0.8"/>
      </defs>
      <g>
       <use xlink:href="#m0e82b5ba37" x="42.571406" y="103.370906" style="stroke: #000000; stroke-width: 0.8"/>
      </g>
     </g>
     <g id="text_2">
      <!-- 46 -->
      <g transform="translate(26.949531 106.949813) scale(0.1 -0.1)">
       <defs>
        <path id="ArialMT-34" d="M 2069 0 
L 2069 1097 
L 81 1097 
L 81 1613 
L 2172 4581 
L 2631 4581 
L 2631 1613 
L 3250 1613 
L 3250 1097 
L 2631 1097 
L 2631 0 
L 2069 0 
z
M 2069 1613 
L 2069 3678 
L 634 1613 
L 2069 1613 
z
" transform="scale(0.015625)"/>
        <path id="ArialMT-36" d="M 3184 3459 
L 2625 3416 
Q 2550 3747 2413 3897 
Q 2184 4138 1850 4138 
Q 1581 4138 1378 3988 
Q 1113 3794 959 3422 
Q 806 3050 800 2363 
Q 1003 2672 1297 2822 
Q 1591 2972 1913 2972 
Q 2475 2972 2870 2558 
Q 3266 2144 3266 1488 
Q 3266 1056 3080 686 
Q 2894 316 2569 119 
Q 2244 -78 1831 -78 
Q 1128 -78 684 439 
Q 241 956 241 2144 
Q 241 3472 731 4075 
Q 1159 4600 1884 4600 
Q 2425 4600 2770 4297 
Q 3116 3994 3184 3459 
z
M 888 1484 
Q 888 1194 1011 928 
Q 1134 663 1356 523 
Q 1578 384 1822 384 
Q 2178 384 2434 671 
Q 2691 959 2691 1453 
Q 2691 1928 2437 2201 
Q 2184 2475 1800 2475 
Q 1419 2475 1153 2201 
Q 888 1928 888 1484 
z
" transform="scale(0.015625)"/>
       </defs>
       <use xlink:href="#ArialMT-34"/>
       <use xlink:href="#ArialMT-36" x="55.615234"/>
      </g>
     </g>
    </g>
    <g id="ytick_2">
     <g id="line2d_3">
      <g>
       <use xlink:href="#m0e82b5ba37" x="42.571406" y="3.578906" style="stroke: #000000; stroke-width: 0.8"/>
      </g>
     </g>
     <g id="text_3">
      <!-- 99 -->
      <g transform="translate(26.949531 7.157813) scale(0.1 -0.1)">
       <defs>
        <path id="ArialMT-39" d="M 350 1059 
L 891 1109 
Q 959 728 1153 556 
Q 1347 384 1650 384 
Q 1909 384 2104 503 
Q 2300 622 2425 820 
Q 2550 1019 2634 1356 
Q 2719 1694 2719 2044 
Q 2719 2081 2716 2156 
Q 2547 1888 2255 1720 
Q 1963 1553 1622 1553 
Q 1053 1553 659 1965 
Q 266 2378 266 3053 
Q 266 3750 677 4175 
Q 1088 4600 1706 4600 
Q 2153 4600 2523 4359 
Q 2894 4119 3086 3673 
Q 3278 3228 3278 2384 
Q 3278 1506 3087 986 
Q 2897 466 2520 194 
Q 2144 -78 1638 -78 
Q 1100 -78 759 220 
Q 419 519 350 1059 
z
M 2653 3081 
Q 2653 3566 2395 3850 
Q 2138 4134 1775 4134 
Q 1400 4134 1122 3828 
Q 844 3522 844 3034 
Q 844 2597 1108 2323 
Q 1372 2050 1759 2050 
Q 2150 2050 2401 2323 
Q 2653 2597 2653 3081 
z
" transform="scale(0.015625)"/>
       </defs>
       <use xlink:href="#ArialMT-39"/>
       <use xlink:href="#ArialMT-39" x="55.615234"/>
      </g>
     </g>
    </g>
    <g id="text_4">
     <!-- F1 score (%) -->
     <g transform="translate(20.844844 82.088969) rotate(-90) scale(0.1 -0.1)">
      <defs>
       <path id="ArialMT-31" d="M 2384 0 
L 1822 0 
L 1822 3584 
Q 1619 3391 1289 3197 
Q 959 3003 697 2906 
L 697 3450 
Q 1169 3672 1522 3987 
Q 1875 4303 2022 4600 
L 2384 4600 
L 2384 0 
z
" transform="scale(0.015625)"/>
       <path id="ArialMT-20" transform="scale(0.015625)"/>
       <path id="ArialMT-73" d="M 197 991 
L 753 1078 
Q 800 744 1014 566 
Q 1228 388 1613 388 
Q 2000 388 2187 545 
Q 2375 703 2375 916 
Q 2375 1106 2209 1216 
Q 2094 1291 1634 1406 
Q 1016 1563 777 1677 
Q 538 1791 414 1992 
Q 291 2194 291 2438 
Q 291 2659 392 2848 
Q 494 3038 669 3163 
Q 800 3259 1026 3326 
Q 1253 3394 1513 3394 
Q 1903 3394 2198 3281 
Q 2494 3169 2634 2976 
Q 2775 2784 2828 2463 
L 2278 2388 
Q 2241 2644 2061 2787 
Q 1881 2931 1553 2931 
Q 1166 2931 1000 2803 
Q 834 2675 834 2503 
Q 834 2394 903 2306 
Q 972 2216 1119 2156 
Q 1203 2125 1616 2013 
Q 2213 1853 2448 1751 
Q 2684 1650 2818 1456 
Q 2953 1263 2953 975 
Q 2953 694 2789 445 
Q 2625 197 2315 61 
Q 2006 -75 1616 -75 
Q 969 -75 630 194 
Q 291 463 197 991 
z
" transform="scale(0.015625)"/>
       <path id="ArialMT-63" d="M 2588 1216 
L 3141 1144 
Q 3050 572 2676 248 
Q 2303 -75 1759 -75 
Q 1078 -75 664 370 
Q 250 816 250 1647 
Q 250 2184 428 2587 
Q 606 2991 970 3192 
Q 1334 3394 1763 3394 
Q 2303 3394 2647 3120 
Q 2991 2847 3088 2344 
L 2541 2259 
Q 2463 2594 2264 2762 
Q 2066 2931 1784 2931 
Q 1359 2931 1093 2626 
Q 828 2322 828 1663 
Q 828 994 1084 691 
Q 1341 388 1753 388 
Q 2084 388 2306 591 
Q 2528 794 2588 1216 
z
" transform="scale(0.015625)"/>
       <path id="ArialMT-25" d="M 372 3481 
Q 372 3972 619 4315 
Q 866 4659 1334 4659 
Q 1766 4659 2048 4351 
Q 2331 4044 2331 3447 
Q 2331 2866 2045 2552 
Q 1759 2238 1341 2238 
Q 925 2238 648 2547 
Q 372 2856 372 3481 
z
M 1350 4272 
Q 1141 4272 1002 4090 
Q 863 3909 863 3425 
Q 863 2984 1003 2804 
Q 1144 2625 1350 2625 
Q 1563 2625 1702 2806 
Q 1841 2988 1841 3469 
Q 1841 3913 1700 4092 
Q 1559 4272 1350 4272 
z
M 1353 -169 
L 3859 4659 
L 4316 4659 
L 1819 -169 
L 1353 -169 
z
M 3334 1075 
Q 3334 1569 3581 1911 
Q 3828 2253 4300 2253 
Q 4731 2253 5014 1945 
Q 5297 1638 5297 1041 
Q 5297 459 5011 145 
Q 4725 -169 4303 -169 
Q 3888 -169 3611 142 
Q 3334 453 3334 1075 
z
M 4316 1866 
Q 4103 1866 3964 1684 
Q 3825 1503 3825 1019 
Q 3825 581 3965 400 
Q 4106 219 4313 219 
Q 4528 219 4667 400 
Q 4806 581 4806 1063 
Q 4806 1506 4665 1686 
Q 4525 1866 4316 1866 
z
" transform="scale(0.015625)"/>
      </defs>
      <use xlink:href="#ArialMT-46"/>
      <use xlink:href="#ArialMT-31" x="61.083984"/>
      <use xlink:href="#ArialMT-20" x="116.699219"/>
      <use xlink:href="#ArialMT-73" x="144.482422"/>
      <use xlink:href="#ArialMT-63" x="194.482422"/>
      <use xlink:href="#ArialMT-6f" x="244.482422"/>
      <use xlink:href="#ArialMT-72" x="300.097656"/>
      <use xlink:href="#ArialMT-65" x="333.398438"/>
      <use xlink:href="#ArialMT-20" x="389.013672"/>
      <use xlink:href="#ArialMT-28" x="416.796875"/>
      <use xlink:href="#ArialMT-25" x="450.097656"/>
      <use xlink:href="#ArialMT-29" x="539.013672"/>
     </g>
    </g>
   </g>
   <g id="patch_3">
    <path d="M 42.571406 103.370906 
L 42.571406 3.578906 
" style="fill: none; stroke: #000000; stroke-width: 0.8; stroke-linejoin: miter; stroke-linecap: square"/>
   </g>
   <g id="patch_4">
    <path d="M 42.571406 103.370906 
L 53.011406 103.370906 
" style="fill: none; stroke: #000000; stroke-width: 0.8; stroke-linejoin: miter; stroke-linecap: square"/>
   </g>
  </g>
  <g id="axes_2">
   <g id="patch_5">
    <path d="M 73.891406 103.370906 
L 84.331406 103.370906 
L 84.331406 3.578906 
L 73.891406 3.578906 
z
" style="fill: #ffffff"/>
   </g>
   <g id="PathCollection_9">
    <path d="M 79.111406 49.07582 
L 75.949129 55.400376 
L 82.273684 55.400376 
z
" style="fill: #7da494; fill-opacity: 0.75"/>
   </g>
   <g id="PathCollection_10">
    <path d="M 79.111406 43.440602 
L 83.583542 38.968466 
L 79.111406 34.49633 
L 74.63927 38.968466 
z
" style="fill: #eab67a; fill-opacity: 0.75"/>
   </g>
   <g id="PathCollection_11">
    <path d="M 78.057314 21.90114 
L 80.165499 21.90114 
L 80.165499 19.792955 
L 82.273684 19.792955 
L 82.273684 17.68477 
L 80.165499 17.68477 
L 80.165499 15.576585 
L 78.057314 15.576585 
L 78.057314 17.68477 
L 75.949129 17.68477 
L 75.949129 19.792955 
L 78.057314 19.792955 
z
" style="fill: #9e97b7; fill-opacity: 0.75"/>
   </g>
   <g id="PathCollection_12">
    <path d="M 75.949129 34.360001 
L 82.273684 34.360001 
L 82.273684 28.035445 
L 75.949129 28.035445 
z
" style="fill: #6e8fb2; fill-opacity: 0.75"/>
   </g>
   <g id="PathCollection_13">
    <path d="M 77.530267 18.665482 
L 75.949129 21.404094 
L 77.530267 24.142707 
L 80.692545 24.142707 
L 82.273684 21.404094 
L 80.692545 18.665482 
z
" style="fill: #ddbf9f; fill-opacity: 0.75"/>
   </g>
   <g id="PathCollection_14">
    <path d="M 82.273684 99.488378 
L 75.949129 96.326101 
L 75.949129 102.650656 
z
" style="fill: #d9a7be; fill-opacity: 0.75"/>
   </g>
   <g id="PathCollection_15">
    <path d="M 77.530267 49.287629 
L 79.111406 47.706491 
L 80.692545 49.287629 
L 82.273684 47.706491 
L 80.692545 46.125352 
L 82.273684 44.544213 
L 80.692545 42.963074 
L 79.111406 44.544213 
L 77.530267 42.963074 
L 75.949129 44.544213 
L 77.530267 46.125352 
L 75.949129 47.706491 
z
" style="fill: #9da6b9; fill-opacity: 0.75"/>
   </g>
   <g id="PathCollection_16">
    <path d="M 79.111406 6.98809 
C 79.950052 6.98809 80.754462 6.654892 81.347474 6.06188 
C 81.940486 5.468868 82.273684 4.664458 82.273684 3.825812 
C 82.273684 2.987166 81.940486 2.182756 81.347474 1.589744 
C 80.754462 0.996732 79.950052 0.663534 79.111406 0.663534 
C 78.27276 0.663534 77.46835 0.996732 76.875338 1.589744 
C 76.282326 2.182756 75.949129 2.987166 75.949129 3.825812 
C 75.949129 4.664458 76.282326 5.468868 76.875338 6.06188 
C 77.46835 6.654892 78.27276 6.98809 79.111406 6.98809 
z
" style="fill: #c16e71; fill-opacity: 0.75"/>
   </g>
   <g id="matplotlib.axis_3">
    <g id="xtick_2">
     <g id="line2d_4">
      <g>
       <use xlink:href="#m09ed0e0878" x="79.111406" y="103.370906" style="stroke: #000000; stroke-width: 0.8"/>
      </g>
     </g>
     <g id="text_5">
      <!-- IRDS-Elbow-FlexionR -->
      <g transform="translate(36.688379 198.16537) rotate(-60) scale(0.1 -0.1)">
       <use xlink:href="#ArialMT-49"/>
       <use xlink:href="#ArialMT-52" x="27.783203"/>
       <use xlink:href="#ArialMT-44" x="100"/>
       <use xlink:href="#ArialMT-53" x="172.216797"/>
       <use xlink:href="#ArialMT-2d" x="238.916016"/>
       <use xlink:href="#ArialMT-45" x="272.216797"/>
       <use xlink:href="#ArialMT-6c" x="338.916016"/>
       <use xlink:href="#ArialMT-62" x="361.132812"/>
       <use xlink:href="#ArialMT-6f" x="416.748047"/>
       <use xlink:href="#ArialMT-77" x="472.363281"/>
       <use xlink:href="#ArialMT-2d" x="544.580078"/>
       <use xlink:href="#ArialMT-46" x="577.880859"/>
       <use xlink:href="#ArialMT-6c" x="638.964844"/>
       <use xlink:href="#ArialMT-65" x="661.181641"/>
       <use xlink:href="#ArialMT-78" x="716.796875"/>
       <use xlink:href="#ArialMT-69" x="766.796875"/>
       <use xlink:href="#ArialMT-6f" x="789.013672"/>
       <use xlink:href="#ArialMT-6e" x="844.628906"/>
       <use xlink:href="#ArialMT-52" x="900.244141"/>
      </g>
      <!-- (binary) -->
      <g transform="translate(61.812377 176.095578) rotate(-60) scale(0.1 -0.1)">
       <use xlink:href="#ArialMT-28"/>
       <use xlink:href="#ArialMT-62" x="33.300781"/>
       <use xlink:href="#ArialMT-69" x="88.916016"/>
       <use xlink:href="#ArialMT-6e" x="111.132812"/>
       <use xlink:href="#ArialMT-61" x="166.748047"/>
       <use xlink:href="#ArialMT-72" x="222.363281"/>
       <use xlink:href="#ArialMT-79" x="255.664062"/>
       <use xlink:href="#ArialMT-29" x="305.664062"/>
      </g>
     </g>
    </g>
   </g>
   <g id="matplotlib.axis_4">
    <g id="ytick_3">
     <g id="line2d_5">
      <g>
       <use xlink:href="#m0e82b5ba37" x="73.891406" y="103.370906" style="stroke: #000000; stroke-width: 0.8"/>
      </g>
     </g>
     <g id="text_6">
      <!-- 8 -->
      <g transform="translate(63.830469 106.949813) scale(0.1 -0.1)">
       <defs>
        <path id="ArialMT-38" d="M 1131 2484 
Q 781 2613 612 2850 
Q 444 3088 444 3419 
Q 444 3919 803 4259 
Q 1163 4600 1759 4600 
Q 2359 4600 2725 4251 
Q 3091 3903 3091 3403 
Q 3091 3084 2923 2848 
Q 2756 2613 2416 2484 
Q 2838 2347 3058 2040 
Q 3278 1734 3278 1309 
Q 3278 722 2862 322 
Q 2447 -78 1769 -78 
Q 1091 -78 675 323 
Q 259 725 259 1325 
Q 259 1772 486 2073 
Q 713 2375 1131 2484 
z
M 1019 3438 
Q 1019 3113 1228 2906 
Q 1438 2700 1772 2700 
Q 2097 2700 2305 2904 
Q 2513 3109 2513 3406 
Q 2513 3716 2298 3927 
Q 2084 4138 1766 4138 
Q 1444 4138 1231 3931 
Q 1019 3725 1019 3438 
z
M 838 1322 
Q 838 1081 952 856 
Q 1066 631 1291 507 
Q 1516 384 1775 384 
Q 2178 384 2440 643 
Q 2703 903 2703 1303 
Q 2703 1709 2433 1975 
Q 2163 2241 1756 2241 
Q 1359 2241 1098 1978 
Q 838 1716 838 1322 
z
" transform="scale(0.015625)"/>
       </defs>
       <use xlink:href="#ArialMT-38"/>
      </g>
     </g>
    </g>
    <g id="ytick_4">
     <g id="line2d_6">
      <g>
       <use xlink:href="#m0e82b5ba37" x="73.891406" y="3.578906" style="stroke: #000000; stroke-width: 0.8"/>
      </g>
     </g>
     <g id="text_7">
      <!-- 87 -->
      <g transform="translate(58.269531 7.157812) scale(0.1 -0.1)">
       <defs>
        <path id="ArialMT-37" d="M 303 3981 
L 303 4522 
L 3269 4522 
L 3269 4084 
Q 2831 3619 2401 2847 
Q 1972 2075 1738 1259 
Q 1569 684 1522 0 
L 944 0 
Q 953 541 1156 1306 
Q 1359 2072 1739 2783 
Q 2119 3494 2547 3981 
L 303 3981 
z
" transform="scale(0.015625)"/>
       </defs>
       <use xlink:href="#ArialMT-38"/>
       <use xlink:href="#ArialMT-37" x="55.615234"/>
      </g>
     </g>
    </g>
   </g>
   <g id="patch_6">
    <path d="M 73.891406 103.370906 
L 73.891406 3.578906 
" style="fill: none; stroke: #000000; stroke-width: 0.8; stroke-linejoin: miter; stroke-linecap: square"/>
   </g>
   <g id="patch_7">
    <path d="M 73.891406 103.370906 
L 84.331406 103.370906 
" style="fill: none; stroke: #000000; stroke-width: 0.8; stroke-linejoin: miter; stroke-linecap: square"/>
   </g>
  </g>
  <g id="axes_3">
   <g id="patch_8">
    <path d="M 105.211406 103.370906 
L 115.651406 103.370906 
L 115.651406 3.578906 
L 105.211406 3.578906 
z
" style="fill: #ffffff"/>
   </g>
   <g id="PathCollection_17">
    <path d="M 110.431406 62.531478 
L 107.269129 68.856034 
L 113.593684 68.856034 
z
" style="fill: #7da494; fill-opacity: 0.75"/>
   </g>
   <g id="PathCollection_18">
    <path d="M 110.431406 39.656624 
L 114.903542 35.184488 
L 110.431406 30.712352 
L 105.95927 35.184488 
z
" style="fill: #eab67a; fill-opacity: 0.75"/>
   </g>
   <g id="PathCollection_19">
    <path d="M 109.377314 34.825832 
L 111.485499 34.825832 
L 111.485499 32.717647 
L 113.593684 32.717647 
L 113.593684 30.609462 
L 111.485499 30.609462 
L 111.485499 28.501277 
L 109.377314 28.501277 
L 109.377314 30.609462 
L 107.269129 30.609462 
L 107.269129 32.717647 
L 109.377314 32.717647 
z
" style="fill: #9e97b7; fill-opacity: 0.75"/>
   </g>
   <g id="PathCollection_20">
    <path d="M 107.269129 28.286389 
L 113.593684 28.286389 
L 113.593684 21.961833 
L 107.269129 21.961833 
z
" style="fill: #6e8fb2; fill-opacity: 0.75"/>
   </g>
   <g id="PathCollection_21">
    <path d="M 108.850267 38.574105 
L 107.269129 41.312718 
L 108.850267 44.051331 
L 112.012545 44.051331 
L 113.593684 41.312718 
L 112.012545 38.574105 
z
" style="fill: #ddbf9f; fill-opacity: 0.75"/>
   </g>
   <g id="PathCollection_22">
    <path d="M 113.593684 97.751926 
L 107.269129 94.589648 
L 107.269129 100.914203 
z
" style="fill: #d9a7be; fill-opacity: 0.75"/>
   </g>
   <g id="PathCollection_23">
    <path d="M 108.850267 34.516598 
L 110.431406 32.935459 
L 112.012545 34.516598 
L 113.593684 32.935459 
L 112.012545 31.354321 
L 113.593684 29.773182 
L 112.012545 28.192043 
L 110.431406 29.773182 
L 108.850267 28.192043 
L 107.269129 29.773182 
L 108.850267 31.354321 
L 107.269129 32.935459 
z
" style="fill: #9da6b9; fill-opacity: 0.75"/>
   </g>
   <g id="PathCollection_24">
    <path d="M 110.431406 7.904654 
C 111.270052 7.904654 112.074462 7.571457 112.667474 6.978444 
C 113.260486 6.385432 113.593684 5.581022 113.593684 4.742376 
C 113.593684 3.903731 113.260486 3.099321 112.667474 2.506308 
C 112.074462 1.913296 111.270052 1.580099 110.431406 1.580099 
C 109.59276 1.580099 108.78835 1.913296 108.195338 2.506308 
C 107.602326 3.099321 107.269129 3.903731 107.269129 4.742376 
C 107.269129 5.581022 107.602326 6.385432 108.195338 6.978444 
C 108.78835 7.571457 109.59276 7.904654 110.431406 7.904654 
z
" style="fill: #c16e71; fill-opacity: 0.75"/>
   </g>
   <g id="matplotlib.axis_5">
    <g id="xtick_3">
     <g id="line2d_7">
      <g>
       <use xlink:href="#m09ed0e0878" x="110.431406" y="103.370906" style="stroke: #000000; stroke-width: 0.8"/>
      </g>
     </g>
     <g id="text_8">
      <!-- IRDS-Shoulder-FlexionL -->
      <g transform="translate(62.443535 207.803962) rotate(-60) scale(0.1 -0.1)">
       <defs>
        <path id="ArialMT-68" d="M 422 0 
L 422 4581 
L 984 4581 
L 984 2938 
Q 1378 3394 1978 3394 
Q 2347 3394 2619 3248 
Q 2891 3103 3008 2847 
Q 3125 2591 3125 2103 
L 3125 0 
L 2563 0 
L 2563 2103 
Q 2563 2525 2380 2717 
Q 2197 2909 1863 2909 
Q 1613 2909 1392 2779 
Q 1172 2650 1078 2428 
Q 984 2206 984 1816 
L 984 0 
L 422 0 
z
" transform="scale(0.015625)"/>
        <path id="ArialMT-75" d="M 2597 0 
L 2597 488 
Q 2209 -75 1544 -75 
Q 1250 -75 995 37 
Q 741 150 617 320 
Q 494 491 444 738 
Q 409 903 409 1263 
L 409 3319 
L 972 3319 
L 972 1478 
Q 972 1038 1006 884 
Q 1059 663 1231 536 
Q 1403 409 1656 409 
Q 1909 409 2131 539 
Q 2353 669 2445 892 
Q 2538 1116 2538 1541 
L 2538 3319 
L 3100 3319 
L 3100 0 
L 2597 0 
z
" transform="scale(0.015625)"/>
        <path id="ArialMT-64" d="M 2575 0 
L 2575 419 
Q 2259 -75 1647 -75 
Q 1250 -75 917 144 
Q 584 363 401 755 
Q 219 1147 219 1656 
Q 219 2153 384 2558 
Q 550 2963 881 3178 
Q 1213 3394 1622 3394 
Q 1922 3394 2156 3267 
Q 2391 3141 2538 2938 
L 2538 4581 
L 3097 4581 
L 3097 0 
L 2575 0 
z
M 797 1656 
Q 797 1019 1065 703 
Q 1334 388 1700 388 
Q 2069 388 2326 689 
Q 2584 991 2584 1609 
Q 2584 2291 2321 2609 
Q 2059 2928 1675 2928 
Q 1300 2928 1048 2622 
Q 797 2316 797 1656 
z
" transform="scale(0.015625)"/>
       </defs>
       <use xlink:href="#ArialMT-49"/>
       <use xlink:href="#ArialMT-52" x="27.783203"/>
       <use xlink:href="#ArialMT-44" x="100"/>
       <use xlink:href="#ArialMT-53" x="172.216797"/>
       <use xlink:href="#ArialMT-2d" x="238.916016"/>
       <use xlink:href="#ArialMT-53" x="272.216797"/>
       <use xlink:href="#ArialMT-68" x="338.916016"/>
       <use xlink:href="#ArialMT-6f" x="394.53125"/>
       <use xlink:href="#ArialMT-75" x="450.146484"/>
       <use xlink:href="#ArialMT-6c" x="505.761719"/>
       <use xlink:href="#ArialMT-64" x="527.978516"/>
       <use xlink:href="#ArialMT-65" x="583.59375"/>
       <use xlink:href="#ArialMT-72" x="639.208984"/>
       <use xlink:href="#ArialMT-2d" x="672.509766"/>
       <use xlink:href="#ArialMT-46" x="705.810547"/>
       <use xlink:href="#ArialMT-6c" x="766.894531"/>
       <use xlink:href="#ArialMT-65" x="789.111328"/>
       <use xlink:href="#ArialMT-78" x="844.726562"/>
       <use xlink:href="#ArialMT-69" x="894.726562"/>
       <use xlink:href="#ArialMT-6f" x="916.943359"/>
       <use xlink:href="#ArialMT-6e" x="972.558594"/>
       <use xlink:href="#ArialMT-4c" x="1028.173828"/>
      </g>
      <!-- (binary) -->
      <g transform="translate(90.349955 180.914874) rotate(-60) scale(0.1 -0.1)">
       <use xlink:href="#ArialMT-28"/>
       <use xlink:href="#ArialMT-62" x="33.300781"/>
       <use xlink:href="#ArialMT-69" x="88.916016"/>
       <use xlink:href="#ArialMT-6e" x="111.132812"/>
       <use xlink:href="#ArialMT-61" x="166.748047"/>
       <use xlink:href="#ArialMT-72" x="222.363281"/>
       <use xlink:href="#ArialMT-79" x="255.664062"/>
       <use xlink:href="#ArialMT-29" x="305.664062"/>
      </g>
     </g>
    </g>
   </g>
   <g id="matplotlib.axis_6">
    <g id="ytick_5">
     <g id="line2d_8">
      <g>
       <use xlink:href="#m0e82b5ba37" x="105.211406" y="103.370906" style="stroke: #000000; stroke-width: 0.8"/>
      </g>
     </g>
     <g id="text_9">
      <!-- 84 -->
      <g transform="translate(89.589531 106.949813) scale(0.1 -0.1)">
       <use xlink:href="#ArialMT-38"/>
       <use xlink:href="#ArialMT-34" x="55.615234"/>
      </g>
     </g>
    </g>
    <g id="ytick_6">
     <g id="line2d_9">
      <g>
       <use xlink:href="#m0e82b5ba37" x="105.211406" y="3.578906" style="stroke: #000000; stroke-width: 0.8"/>
      </g>
     </g>
     <g id="text_10">
      <!-- 97 -->
      <g transform="translate(89.589531 7.157812) scale(0.1 -0.1)">
       <use xlink:href="#ArialMT-39"/>
       <use xlink:href="#ArialMT-37" x="55.615234"/>
      </g>
     </g>
    </g>
   </g>
   <g id="patch_9">
    <path d="M 105.211406 103.370906 
L 105.211406 3.578906 
" style="fill: none; stroke: #000000; stroke-width: 0.8; stroke-linejoin: miter; stroke-linecap: square"/>
   </g>
   <g id="patch_10">
    <path d="M 105.211406 103.370906 
L 115.651406 103.370906 
" style="fill: none; stroke: #000000; stroke-width: 0.8; stroke-linejoin: miter; stroke-linecap: square"/>
   </g>
  </g>
  <g id="axes_4">
   <g id="patch_11">
    <path d="M 136.531406 103.370906 
L 146.971406 103.370906 
L 146.971406 3.578906 
L 136.531406 3.578906 
z
" style="fill: #ffffff"/>
   </g>
   <g id="PathCollection_25">
    <path d="M 141.751406 63.323056 
L 138.589129 69.647612 
L 144.913684 69.647612 
z
" style="fill: #7da494; fill-opacity: 0.75"/>
   </g>
   <g id="PathCollection_26">
    <path d="M 141.751406 31.033153 
L 146.223542 26.561017 
L 141.751406 22.088881 
L 137.27927 26.561017 
z
" style="fill: #eab67a; fill-opacity: 0.75"/>
   </g>
   <g id="PathCollection_27">
    <path d="M 140.697314 22.365718 
L 142.805499 22.365718 
L 142.805499 20.257532 
L 144.913684 20.257532 
L 144.913684 18.149347 
L 142.805499 18.149347 
L 142.805499 16.041162 
L 140.697314 16.041162 
L 140.697314 18.149347 
L 138.589129 18.149347 
L 138.589129 20.257532 
L 140.697314 20.257532 
z
" style="fill: #9e97b7; fill-opacity: 0.75"/>
   </g>
   <g id="PathCollection_28">
    <path d="M 138.589129 19.559266 
L 144.913684 19.559266 
L 144.913684 13.234711 
L 138.589129 13.234711 
z
" style="fill: #6e8fb2; fill-opacity: 0.75"/>
   </g>
   <g id="PathCollection_29">
    <path d="M 140.170267 16.227222 
L 138.589129 18.965835 
L 140.170267 21.704448 
L 143.332545 21.704448 
L 144.913684 18.965835 
L 143.332545 16.227222 
z
" style="fill: #ddbf9f; fill-opacity: 0.75"/>
   </g>
   <g id="PathCollection_30">
    <path d="M 144.913684 94.354499 
L 138.589129 91.192222 
L 138.589129 97.516777 
z
" style="fill: #d9a7be; fill-opacity: 0.75"/>
   </g>
   <g id="PathCollection_31">
    <path d="M 140.170267 16.215769 
L 141.751406 14.63463 
L 143.332545 16.215769 
L 144.913684 14.63463 
L 143.332545 13.053491 
L 144.913684 11.472353 
L 143.332545 9.891214 
L 141.751406 11.472353 
L 140.170267 9.891214 
L 138.589129 11.472353 
L 140.170267 13.053491 
L 138.589129 14.63463 
z
" style="fill: #9da6b9; fill-opacity: 0.75"/>
   </g>
   <g id="PathCollection_32">
    <path d="M 141.751406 9.406417 
C 142.590052 9.406417 143.394462 9.07322 143.987474 8.480207 
C 144.580486 7.887195 144.913684 7.082785 144.913684 6.244139 
C 144.913684 5.405494 144.580486 4.601084 143.987474 4.008071 
C 143.394462 3.415059 142.590052 3.081862 141.751406 3.081862 
C 140.91276 3.081862 140.10835 3.415059 139.515338 4.008071 
C 138.922326 4.601084 138.589129 5.405494 138.589129 6.244139 
C 138.589129 7.082785 138.922326 7.887195 139.515338 8.480207 
C 140.10835 9.07322 140.91276 9.406417 141.751406 9.406417 
z
" style="fill: #c16e71; fill-opacity: 0.75"/>
   </g>
   <g id="matplotlib.axis_7">
    <g id="xtick_4">
     <g id="line2d_10">
      <g>
       <use xlink:href="#m09ed0e0878" x="141.751406" y="103.370906" style="stroke: #000000; stroke-width: 0.8"/>
      </g>
     </g>
     <g id="text_11">
      <!-- IRDS-Shoulder-FlexionR -->
      <g transform="translate(92.933066 209.242377) rotate(-60) scale(0.1 -0.1)">
       <use xlink:href="#ArialMT-49"/>
       <use xlink:href="#ArialMT-52" x="27.783203"/>
       <use xlink:href="#ArialMT-44" x="100"/>
       <use xlink:href="#ArialMT-53" x="172.216797"/>
       <use xlink:href="#ArialMT-2d" x="238.916016"/>
       <use xlink:href="#ArialMT-53" x="272.216797"/>
       <use xlink:href="#ArialMT-68" x="338.916016"/>
       <use xlink:href="#ArialMT-6f" x="394.53125"/>
       <use xlink:href="#ArialMT-75" x="450.146484"/>
       <use xlink:href="#ArialMT-6c" x="505.761719"/>
       <use xlink:href="#ArialMT-64" x="527.978516"/>
       <use xlink:href="#ArialMT-65" x="583.59375"/>
       <use xlink:href="#ArialMT-72" x="639.208984"/>
       <use xlink:href="#ArialMT-2d" x="672.509766"/>
       <use xlink:href="#ArialMT-46" x="705.810547"/>
       <use xlink:href="#ArialMT-6c" x="766.894531"/>
       <use xlink:href="#ArialMT-65" x="789.111328"/>
       <use xlink:href="#ArialMT-78" x="844.726562"/>
       <use xlink:href="#ArialMT-69" x="894.726562"/>
       <use xlink:href="#ArialMT-6f" x="916.943359"/>
       <use xlink:href="#ArialMT-6e" x="972.558594"/>
       <use xlink:href="#ArialMT-52" x="1028.173828"/>
      </g>
      <!-- (binary) -->
      <g transform="translate(121.254721 181.634081) rotate(-60) scale(0.1 -0.1)">
       <use xlink:href="#ArialMT-28"/>
       <use xlink:href="#ArialMT-62" x="33.300781"/>
       <use xlink:href="#ArialMT-69" x="88.916016"/>
       <use xlink:href="#ArialMT-6e" x="111.132812"/>
       <use xlink:href="#ArialMT-61" x="166.748047"/>
       <use xlink:href="#ArialMT-72" x="222.363281"/>
       <use xlink:href="#ArialMT-79" x="255.664062"/>
       <use xlink:href="#ArialMT-29" x="305.664062"/>
      </g>
     </g>
    </g>
   </g>
   <g id="matplotlib.axis_8">
    <g id="ytick_7">
     <g id="line2d_11">
      <g>
       <use xlink:href="#m0e82b5ba37" x="136.531406" y="103.370906" style="stroke: #000000; stroke-width: 0.8"/>
      </g>
     </g>
     <g id="text_12">
      <!-- 82 -->
      <g transform="translate(120.909531 106.949813) scale(0.1 -0.1)">
       <defs>
        <path id="ArialMT-32" d="M 3222 541 
L 3222 0 
L 194 0 
Q 188 203 259 391 
Q 375 700 629 1000 
Q 884 1300 1366 1694 
Q 2113 2306 2375 2664 
Q 2638 3022 2638 3341 
Q 2638 3675 2398 3904 
Q 2159 4134 1775 4134 
Q 1369 4134 1125 3890 
Q 881 3647 878 3216 
L 300 3275 
Q 359 3922 746 4261 
Q 1134 4600 1788 4600 
Q 2447 4600 2831 4234 
Q 3216 3869 3216 3328 
Q 3216 3053 3103 2787 
Q 2991 2522 2730 2228 
Q 2469 1934 1863 1422 
Q 1356 997 1212 845 
Q 1069 694 975 541 
L 3222 541 
z
" transform="scale(0.015625)"/>
       </defs>
       <use xlink:href="#ArialMT-38"/>
       <use xlink:href="#ArialMT-32" x="55.615234"/>
      </g>
     </g>
    </g>
    <g id="ytick_8">
     <g id="line2d_12">
      <g>
       <use xlink:href="#m0e82b5ba37" x="136.531406" y="3.578906" style="stroke: #000000; stroke-width: 0.8"/>
      </g>
     </g>
     <g id="text_13">
      <!-- 97 -->
      <g transform="translate(120.909531 7.157813) scale(0.1 -0.1)">
       <use xlink:href="#ArialMT-39"/>
       <use xlink:href="#ArialMT-37" x="55.615234"/>
      </g>
     </g>
    </g>
   </g>
   <g id="patch_12">
    <path d="M 136.531406 103.370906 
L 136.531406 3.578906 
" style="fill: none; stroke: #000000; stroke-width: 0.8; stroke-linejoin: miter; stroke-linecap: square"/>
   </g>
   <g id="patch_13">
    <path d="M 136.531406 103.370906 
L 146.971406 103.370906 
" style="fill: none; stroke: #000000; stroke-width: 0.8; stroke-linejoin: miter; stroke-linecap: square"/>
   </g>
  </g>
  <g id="axes_5">
   <g id="patch_14">
    <path d="M 167.851406 103.370906 
L 178.291406 103.370906 
L 178.291406 3.578906 
L 167.851406 3.578906 
z
" style="fill: #ffffff"/>
   </g>
   <g id="PathCollection_33">
    <path d="M 173.071406 63.105293 
L 169.909129 69.429849 
L 176.233684 69.429849 
z
" style="fill: #7da494; fill-opacity: 0.75"/>
   </g>
   <g id="PathCollection_34">
    <path d="M 173.071406 15.513932 
L 177.543542 11.041796 
L 173.071406 6.56966 
L 168.59927 11.041796 
z
" style="fill: #eab67a; fill-opacity: 0.75"/>
   </g>
   <g id="PathCollection_35">
    <path d="M 172.017314 22.743262 
L 174.125499 22.743262 
L 174.125499 20.635077 
L 176.233684 20.635077 
L 176.233684 18.526892 
L 174.125499 18.526892 
L 174.125499 16.418707 
L 172.017314 16.418707 
L 172.017314 18.526892 
L 169.909129 18.526892 
L 169.909129 20.635077 
L 172.017314 20.635077 
z
" style="fill: #9e97b7; fill-opacity: 0.75"/>
   </g>
   <g id="PathCollection_36">
    <path d="M 169.909129 20.606733 
L 176.233684 20.606733 
L 176.233684 14.282177 
L 169.909129 14.282177 
z
" style="fill: #6e8fb2; fill-opacity: 0.75"/>
   </g>
   <g id="PathCollection_37">
    <path d="M 171.490267 39.336659 
L 169.909129 42.075272 
L 171.490267 44.813885 
L 174.652545 44.813885 
L 176.233684 42.075272 
L 174.652545 39.336659 
z
" style="fill: #ddbf9f; fill-opacity: 0.75"/>
   </g>
   <g id="PathCollection_38">
    <path d="M 176.233684 99.906404 
L 169.909129 96.744126 
L 169.909129 103.068681 
z
" style="fill: #d9a7be; fill-opacity: 0.75"/>
   </g>
   <g id="PathCollection_39">
    <path d="M 171.490267 23.817 
L 173.071406 22.235861 
L 174.652545 23.817 
L 176.233684 22.235861 
L 174.652545 20.654722 
L 176.233684 19.073584 
L 174.652545 17.492445 
L 173.071406 19.073584 
L 171.490267 17.492445 
L 169.909129 19.073584 
L 171.490267 20.654722 
L 169.909129 22.235861 
z
" style="fill: #9da6b9; fill-opacity: 0.75"/>
   </g>
   <g id="PathCollection_40">
    <path d="M 173.071406 7.388608 
C 173.910052 7.388608 174.714462 7.055411 175.307474 6.462399 
C 175.900486 5.869387 176.233684 5.064977 176.233684 4.226331 
C 176.233684 3.387685 175.900486 2.583275 175.307474 1.990263 
C 174.714462 1.397251 173.910052 1.064053 173.071406 1.064053 
C 172.23276 1.064053 171.42835 1.397251 170.835338 1.990263 
C 170.242326 2.583275 169.909129 3.387685 169.909129 4.226331 
C 169.909129 5.064977 170.242326 5.869387 170.835338 6.462399 
C 171.42835 7.055411 172.23276 7.388608 173.071406 7.388608 
z
" style="fill: #c16e71; fill-opacity: 0.75"/>
   </g>
   <g id="matplotlib.axis_9">
    <g id="xtick_5">
     <g id="line2d_13">
      <g>
       <use xlink:href="#m09ed0e0878" x="173.071406" y="103.370906" style="stroke: #000000; stroke-width: 0.8"/>
      </g>
     </g>
     <g id="text_14">
      <!-- IRDS-Shoulder-AbductionL -->
      <g transform="translate(118.963222 218.404655) rotate(-60) scale(0.1 -0.1)">
       <defs>
        <path id="ArialMT-41" d="M -9 0 
L 1750 4581 
L 2403 4581 
L 4278 0 
L 3588 0 
L 3053 1388 
L 1138 1388 
L 634 0 
L -9 0 
z
M 1313 1881 
L 2866 1881 
L 2388 3150 
Q 2169 3728 2063 4100 
Q 1975 3659 1816 3225 
L 1313 1881 
z
" transform="scale(0.015625)"/>
        <path id="ArialMT-74" d="M 1650 503 
L 1731 6 
Q 1494 -44 1306 -44 
Q 1000 -44 831 53 
Q 663 150 594 308 
Q 525 466 525 972 
L 525 2881 
L 113 2881 
L 113 3319 
L 525 3319 
L 525 4141 
L 1084 4478 
L 1084 3319 
L 1650 3319 
L 1650 2881 
L 1084 2881 
L 1084 941 
Q 1084 700 1114 631 
Q 1144 563 1211 522 
Q 1278 481 1403 481 
Q 1497 481 1650 503 
z
" transform="scale(0.015625)"/>
       </defs>
       <use xlink:href="#ArialMT-49"/>
       <use xlink:href="#ArialMT-52" x="27.783203"/>
       <use xlink:href="#ArialMT-44" x="100"/>
       <use xlink:href="#ArialMT-53" x="172.216797"/>
       <use xlink:href="#ArialMT-2d" x="238.916016"/>
       <use xlink:href="#ArialMT-53" x="272.216797"/>
       <use xlink:href="#ArialMT-68" x="338.916016"/>
       <use xlink:href="#ArialMT-6f" x="394.53125"/>
       <use xlink:href="#ArialMT-75" x="450.146484"/>
       <use xlink:href="#ArialMT-6c" x="505.761719"/>
       <use xlink:href="#ArialMT-64" x="527.978516"/>
       <use xlink:href="#ArialMT-65" x="583.59375"/>
       <use xlink:href="#ArialMT-72" x="639.208984"/>
       <use xlink:href="#ArialMT-2d" x="672.509766"/>
       <use xlink:href="#ArialMT-41" x="705.810547"/>
       <use xlink:href="#ArialMT-62" x="772.509766"/>
       <use xlink:href="#ArialMT-64" x="828.125"/>
       <use xlink:href="#ArialMT-75" x="883.740234"/>
       <use xlink:href="#ArialMT-63" x="939.355469"/>
       <use xlink:href="#ArialMT-74" x="989.355469"/>
       <use xlink:href="#ArialMT-69" x="1017.138672"/>
       <use xlink:href="#ArialMT-6f" x="1039.355469"/>
       <use xlink:href="#ArialMT-6e" x="1094.970703"/>
       <use xlink:href="#ArialMT-4c" x="1150.585938"/>
      </g>
      <!-- (binary) -->
      <g transform="translate(149.929799 186.21522) rotate(-60) scale(0.1 -0.1)">
       <use xlink:href="#ArialMT-28"/>
       <use xlink:href="#ArialMT-62" x="33.300781"/>
       <use xlink:href="#ArialMT-69" x="88.916016"/>
       <use xlink:href="#ArialMT-6e" x="111.132812"/>
       <use xlink:href="#ArialMT-61" x="166.748047"/>
       <use xlink:href="#ArialMT-72" x="222.363281"/>
       <use xlink:href="#ArialMT-79" x="255.664062"/>
       <use xlink:href="#ArialMT-29" x="305.664062"/>
      </g>
     </g>
    </g>
   </g>
   <g id="matplotlib.axis_10">
    <g id="ytick_9">
     <g id="line2d_14">
      <g>
       <use xlink:href="#m0e82b5ba37" x="167.851406" y="103.370906" style="stroke: #000000; stroke-width: 0.8"/>
      </g>
     </g>
     <g id="text_15">
      <!-- 19 -->
      <g transform="translate(152.229531 106.949813) scale(0.1 -0.1)">
       <use xlink:href="#ArialMT-31"/>
       <use xlink:href="#ArialMT-39" x="55.615234"/>
      </g>
     </g>
    </g>
    <g id="ytick_10">
     <g id="line2d_15">
      <g>
       <use xlink:href="#m0e82b5ba37" x="167.851406" y="3.578906" style="stroke: #000000; stroke-width: 0.8"/>
      </g>
     </g>
     <g id="text_16">
      <!-- 95 -->
      <g transform="translate(152.229531 7.157813) scale(0.1 -0.1)">
       <defs>
        <path id="ArialMT-35" d="M 266 1200 
L 856 1250 
Q 922 819 1161 601 
Q 1400 384 1738 384 
Q 2144 384 2425 690 
Q 2706 997 2706 1503 
Q 2706 1984 2436 2262 
Q 2166 2541 1728 2541 
Q 1456 2541 1237 2417 
Q 1019 2294 894 2097 
L 366 2166 
L 809 4519 
L 3088 4519 
L 3088 3981 
L 1259 3981 
L 1013 2750 
Q 1425 3038 1878 3038 
Q 2478 3038 2890 2622 
Q 3303 2206 3303 1553 
Q 3303 931 2941 478 
Q 2500 -78 1738 -78 
Q 1113 -78 717 272 
Q 322 622 266 1200 
z
" transform="scale(0.015625)"/>
       </defs>
       <use xlink:href="#ArialMT-39"/>
       <use xlink:href="#ArialMT-35" x="55.615234"/>
      </g>
     </g>
    </g>
   </g>
   <g id="patch_15">
    <path d="M 167.851406 103.370906 
L 167.851406 3.578906 
" style="fill: none; stroke: #000000; stroke-width: 0.8; stroke-linejoin: miter; stroke-linecap: square"/>
   </g>
   <g id="patch_16">
    <path d="M 167.851406 103.370906 
L 178.291406 103.370906 
" style="fill: none; stroke: #000000; stroke-width: 0.8; stroke-linejoin: miter; stroke-linecap: square"/>
   </g>
  </g>
  <g id="axes_6">
   <g id="patch_17">
    <path d="M 199.171406 103.370906 
L 209.611406 103.370906 
L 209.611406 3.578906 
L 199.171406 3.578906 
z
" style="fill: #ffffff"/>
   </g>
   <g id="PathCollection_41">
    <path d="M 204.391406 70.853668 
L 201.229129 77.178223 
L 207.553684 77.178223 
z
" style="fill: #7da494; fill-opacity: 0.75"/>
   </g>
   <g id="PathCollection_42">
    <path d="M 204.391406 27.48324 
L 208.863542 23.011104 
L 204.391406 18.538968 
L 199.91927 23.011104 
z
" style="fill: #eab67a; fill-opacity: 0.75"/>
   </g>
   <g id="PathCollection_43">
    <path d="M 203.337314 24.727757 
L 205.445499 24.727757 
L 205.445499 22.619572 
L 207.553684 22.619572 
L 207.553684 20.511387 
L 205.445499 20.511387 
L 205.445499 18.403202 
L 203.337314 18.403202 
L 203.337314 20.511387 
L 201.229129 20.511387 
L 201.229129 22.619572 
L 203.337314 22.619572 
z
" style="fill: #9e97b7; fill-opacity: 0.75"/>
   </g>
   <g id="PathCollection_44">
    <path d="M 201.229129 31.631276 
L 207.553684 31.631276 
L 207.553684 25.30672 
L 201.229129 25.30672 
z
" style="fill: #6e8fb2; fill-opacity: 0.75"/>
   </g>
   <g id="PathCollection_45">
    <path d="M 202.810267 96.379387 
L 201.229129 99.117999 
L 202.810267 101.856612 
L 205.972545 101.856612 
L 207.553684 99.117999 
L 205.972545 96.379387 
z
" style="fill: #ddbf9f; fill-opacity: 0.75"/>
   </g>
   <g id="PathCollection_46">
    <path d="M 207.553684 67.708154 
L 201.229129 64.545876 
L 201.229129 70.870431 
z
" style="fill: #d9a7be; fill-opacity: 0.75"/>
   </g>
   <g id="PathCollection_47">
    <path d="M 202.810267 84.417053 
L 204.391406 82.835914 
L 205.972545 84.417053 
L 207.553684 82.835914 
L 205.972545 81.254775 
L 207.553684 79.673636 
L 205.972545 78.092497 
L 204.391406 79.673636 
L 202.810267 78.092497 
L 201.229129 79.673636 
L 202.810267 81.254775 
L 201.229129 82.835914 
z
" style="fill: #9da6b9; fill-opacity: 0.75"/>
   </g>
   <g id="PathCollection_48">
    <path d="M 204.391406 6.753461 
C 205.230052 6.753461 206.034462 6.420263 206.627474 5.827251 
C 207.220486 5.234239 207.553684 4.429829 207.553684 3.591183 
C 207.553684 2.752537 207.220486 1.948127 206.627474 1.355115 
C 206.034462 0.762103 205.230052 0.428906 204.391406 0.428906 
C 203.55276 0.428906 202.74835 0.762103 202.155338 1.355115 
C 201.562326 1.948127 201.229129 2.752537 201.229129 3.591183 
C 201.229129 4.429829 201.562326 5.234239 202.155338 5.827251 
C 202.74835 6.420263 203.55276 6.753461 204.391406 6.753461 
z
" style="fill: #c16e71; fill-opacity: 0.75"/>
   </g>
   <g id="matplotlib.axis_11">
    <g id="xtick_6">
     <g id="line2d_16">
      <g>
       <use xlink:href="#m09ed0e0878" x="204.391406" y="103.370906" style="stroke: #000000; stroke-width: 0.8"/>
      </g>
     </g>
     <g id="text_17">
      <!-- IRDS-Shoulder-AbductionR -->
      <g transform="translate(149.452754 219.843069) rotate(-60) scale(0.1 -0.1)">
       <use xlink:href="#ArialMT-49"/>
       <use xlink:href="#ArialMT-52" x="27.783203"/>
       <use xlink:href="#ArialMT-44" x="100"/>
       <use xlink:href="#ArialMT-53" x="172.216797"/>
       <use xlink:href="#ArialMT-2d" x="238.916016"/>
       <use xlink:href="#ArialMT-53" x="272.216797"/>
       <use xlink:href="#ArialMT-68" x="338.916016"/>
       <use xlink:href="#ArialMT-6f" x="394.53125"/>
       <use xlink:href="#ArialMT-75" x="450.146484"/>
       <use xlink:href="#ArialMT-6c" x="505.761719"/>
       <use xlink:href="#ArialMT-64" x="527.978516"/>
       <use xlink:href="#ArialMT-65" x="583.59375"/>
       <use xlink:href="#ArialMT-72" x="639.208984"/>
       <use xlink:href="#ArialMT-2d" x="672.509766"/>
       <use xlink:href="#ArialMT-41" x="705.810547"/>
       <use xlink:href="#ArialMT-62" x="772.509766"/>
       <use xlink:href="#ArialMT-64" x="828.125"/>
       <use xlink:href="#ArialMT-75" x="883.740234"/>
       <use xlink:href="#ArialMT-63" x="939.355469"/>
       <use xlink:href="#ArialMT-74" x="989.355469"/>
       <use xlink:href="#ArialMT-69" x="1017.138672"/>
       <use xlink:href="#ArialMT-6f" x="1039.355469"/>
       <use xlink:href="#ArialMT-6e" x="1094.970703"/>
       <use xlink:href="#ArialMT-52" x="1150.585938"/>
      </g>
      <!-- (binary) -->
      <g transform="translate(180.834565 186.934427) rotate(-60) scale(0.1 -0.1)">
       <use xlink:href="#ArialMT-28"/>
       <use xlink:href="#ArialMT-62" x="33.300781"/>
       <use xlink:href="#ArialMT-69" x="88.916016"/>
       <use xlink:href="#ArialMT-6e" x="111.132812"/>
       <use xlink:href="#ArialMT-61" x="166.748047"/>
       <use xlink:href="#ArialMT-72" x="222.363281"/>
       <use xlink:href="#ArialMT-79" x="255.664062"/>
       <use xlink:href="#ArialMT-29" x="305.664062"/>
      </g>
     </g>
    </g>
   </g>
   <g id="matplotlib.axis_12">
    <g id="ytick_11">
     <g id="line2d_17">
      <g>
       <use xlink:href="#m0e82b5ba37" x="199.171406" y="103.370906" style="stroke: #000000; stroke-width: 0.8"/>
      </g>
     </g>
     <g id="text_18">
      <!-- 59 -->
      <g transform="translate(183.549531 106.949813) scale(0.1 -0.1)">
       <use xlink:href="#ArialMT-35"/>
       <use xlink:href="#ArialMT-39" x="55.615234"/>
      </g>
     </g>
    </g>
    <g id="ytick_12">
     <g id="line2d_18">
      <g>
       <use xlink:href="#m0e82b5ba37" x="199.171406" y="3.578906" style="stroke: #000000; stroke-width: 0.8"/>
      </g>
     </g>
     <g id="text_19">
      <!-- 94 -->
      <g transform="translate(183.549531 7.157813) scale(0.1 -0.1)">
       <use xlink:href="#ArialMT-39"/>
       <use xlink:href="#ArialMT-34" x="55.615234"/>
      </g>
     </g>
    </g>
   </g>
   <g id="patch_18">
    <path d="M 199.171406 103.370906 
L 199.171406 3.578906 
" style="fill: none; stroke: #000000; stroke-width: 0.8; stroke-linejoin: miter; stroke-linecap: square"/>
   </g>
   <g id="patch_19">
    <path d="M 199.171406 103.370906 
L 209.611406 103.370906 
" style="fill: none; stroke: #000000; stroke-width: 0.8; stroke-linejoin: miter; stroke-linecap: square"/>
   </g>
  </g>
  <g id="axes_7">
   <g id="patch_20">
    <path d="M 230.491406 103.370906 
L 240.931406 103.370906 
L 240.931406 3.578906 
L 230.491406 3.578906 
z
" style="fill: #ffffff"/>
   </g>
   <g id="PathCollection_49">
    <path d="M 235.711406 85.891043 
L 232.549129 92.215599 
L 238.873684 92.215599 
z
" style="fill: #7da494; fill-opacity: 0.75"/>
   </g>
   <g id="PathCollection_50">
    <path d="M 235.711406 18.671689 
L 240.183542 14.199553 
L 235.711406 9.727417 
L 231.23927 14.199553 
z
" style="fill: #eab67a; fill-opacity: 0.75"/>
   </g>
   <g id="PathCollection_51">
    <path d="M 234.657314 29.235656 
L 236.765499 29.235656 
L 236.765499 27.127471 
L 238.873684 27.127471 
L 238.873684 25.019286 
L 236.765499 25.019286 
L 236.765499 22.911101 
L 234.657314 22.911101 
L 234.657314 25.019286 
L 232.549129 25.019286 
L 232.549129 27.127471 
L 234.657314 27.127471 
z
" style="fill: #9e97b7; fill-opacity: 0.75"/>
   </g>
   <g id="PathCollection_52">
    <path d="M 232.549129 25.406274 
L 238.873684 25.406274 
L 238.873684 19.081719 
L 232.549129 19.081719 
z
" style="fill: #6e8fb2; fill-opacity: 0.75"/>
   </g>
   <g id="PathCollection_53">
    <path d="M 234.130267 70.006313 
L 232.549129 72.744926 
L 234.130267 75.483539 
L 237.292545 75.483539 
L 238.873684 72.744926 
L 237.292545 70.006313 
z
" style="fill: #ddbf9f; fill-opacity: 0.75"/>
   </g>
   <g id="PathCollection_54">
    <path d="M 238.873684 100.11048 
L 232.549129 96.948202 
L 232.549129 103.272758 
z
" style="fill: #d9a7be; fill-opacity: 0.75"/>
   </g>
   <g id="PathCollection_55">
    <path d="M 234.130267 67.938813 
L 235.711406 66.357674 
L 237.292545 67.938813 
L 238.873684 66.357674 
L 237.292545 64.776535 
L 238.873684 63.195396 
L 237.292545 61.614257 
L 235.711406 63.195396 
L 234.130267 61.614257 
L 232.549129 63.195396 
L 234.130267 64.776535 
L 232.549129 66.357674 
z
" style="fill: #9da6b9; fill-opacity: 0.75"/>
   </g>
   <g id="PathCollection_56">
    <path d="M 235.711406 7.005549 
C 236.550052 7.005549 237.354462 6.672352 237.947474 6.079339 
C 238.540486 5.486327 238.873684 4.681917 238.873684 3.843271 
C 238.873684 3.004626 238.540486 2.200216 237.947474 1.607204 
C 237.354462 1.014191 236.550052 0.680994 235.711406 0.680994 
C 234.87276 0.680994 234.06835 1.014191 233.475338 1.607204 
C 232.882326 2.200216 232.549129 3.004626 232.549129 3.843271 
C 232.549129 4.681917 232.882326 5.486327 233.475338 6.079339 
C 234.06835 6.672352 234.87276 7.005549 235.711406 7.005549 
z
" style="fill: #c16e71; fill-opacity: 0.75"/>
   </g>
   <g id="matplotlib.axis_13">
    <g id="xtick_7">
     <g id="line2d_19">
      <g>
       <use xlink:href="#m09ed0e0878" x="235.711406" y="103.370906" style="stroke: #000000; stroke-width: 0.8"/>
      </g>
     </g>
     <g id="text_20">
      <!-- IRDS-Shoulder-Forward -->
      <g transform="translate(188.285254 206.831037) rotate(-60) scale(0.1 -0.1)">
       <use xlink:href="#ArialMT-49"/>
       <use xlink:href="#ArialMT-52" x="27.783203"/>
       <use xlink:href="#ArialMT-44" x="100"/>
       <use xlink:href="#ArialMT-53" x="172.216797"/>
       <use xlink:href="#ArialMT-2d" x="238.916016"/>
       <use xlink:href="#ArialMT-53" x="272.216797"/>
       <use xlink:href="#ArialMT-68" x="338.916016"/>
       <use xlink:href="#ArialMT-6f" x="394.53125"/>
       <use xlink:href="#ArialMT-75" x="450.146484"/>
       <use xlink:href="#ArialMT-6c" x="505.761719"/>
       <use xlink:href="#ArialMT-64" x="527.978516"/>
       <use xlink:href="#ArialMT-65" x="583.59375"/>
       <use xlink:href="#ArialMT-72" x="639.208984"/>
       <use xlink:href="#ArialMT-2d" x="672.509766"/>
       <use xlink:href="#ArialMT-46" x="705.810547"/>
       <use xlink:href="#ArialMT-6f" x="766.894531"/>
       <use xlink:href="#ArialMT-72" x="822.509766"/>
       <use xlink:href="#ArialMT-77" x="855.810547"/>
       <use xlink:href="#ArialMT-61" x="928.027344"/>
       <use xlink:href="#ArialMT-72" x="983.642578"/>
       <use xlink:href="#ArialMT-64" x="1016.943359"/>
      </g>
      <!-- (binary) -->
      <g transform="translate(215.910815 180.428412) rotate(-60) scale(0.1 -0.1)">
       <use xlink:href="#ArialMT-28"/>
       <use xlink:href="#ArialMT-62" x="33.300781"/>
       <use xlink:href="#ArialMT-69" x="88.916016"/>
       <use xlink:href="#ArialMT-6e" x="111.132812"/>
       <use xlink:href="#ArialMT-61" x="166.748047"/>
       <use xlink:href="#ArialMT-72" x="222.363281"/>
       <use xlink:href="#ArialMT-79" x="255.664062"/>
       <use xlink:href="#ArialMT-29" x="305.664062"/>
      </g>
     </g>
    </g>
   </g>
   <g id="matplotlib.axis_14">
    <g id="ytick_13">
     <g id="line2d_20">
      <g>
       <use xlink:href="#m0e82b5ba37" x="230.491406" y="103.370906" style="stroke: #000000; stroke-width: 0.8"/>
      </g>
     </g>
     <g id="text_21">
      <!-- 70 -->
      <g transform="translate(214.869531 106.949813) scale(0.1 -0.1)">
       <defs>
        <path id="ArialMT-30" d="M 266 2259 
Q 266 3072 433 3567 
Q 600 4063 929 4331 
Q 1259 4600 1759 4600 
Q 2128 4600 2406 4451 
Q 2684 4303 2865 4023 
Q 3047 3744 3150 3342 
Q 3253 2941 3253 2259 
Q 3253 1453 3087 958 
Q 2922 463 2592 192 
Q 2263 -78 1759 -78 
Q 1097 -78 719 397 
Q 266 969 266 2259 
z
M 844 2259 
Q 844 1131 1108 757 
Q 1372 384 1759 384 
Q 2147 384 2411 759 
Q 2675 1134 2675 2259 
Q 2675 3391 2411 3762 
Q 2147 4134 1753 4134 
Q 1366 4134 1134 3806 
Q 844 3388 844 2259 
z
" transform="scale(0.015625)"/>
       </defs>
       <use xlink:href="#ArialMT-37"/>
       <use xlink:href="#ArialMT-30" x="55.615234"/>
      </g>
     </g>
    </g>
    <g id="ytick_14">
     <g id="line2d_21">
      <g>
       <use xlink:href="#m0e82b5ba37" x="230.491406" y="3.578906" style="stroke: #000000; stroke-width: 0.8"/>
      </g>
     </g>
     <g id="text_22">
      <!-- 97 -->
      <g transform="translate(214.869531 7.157813) scale(0.1 -0.1)">
       <use xlink:href="#ArialMT-39"/>
       <use xlink:href="#ArialMT-37" x="55.615234"/>
      </g>
     </g>
    </g>
   </g>
   <g id="patch_21">
    <path d="M 230.491406 103.370906 
L 230.491406 3.578906 
" style="fill: none; stroke: #000000; stroke-width: 0.8; stroke-linejoin: miter; stroke-linecap: square"/>
   </g>
   <g id="patch_22">
    <path d="M 230.491406 103.370906 
L 240.931406 103.370906 
" style="fill: none; stroke: #000000; stroke-width: 0.8; stroke-linejoin: miter; stroke-linecap: square"/>
   </g>
  </g>
  <g id="axes_8">
   <g id="patch_23">
    <path d="M 261.811406 103.370906 
L 272.251406 103.370906 
L 272.251406 3.578906 
L 261.811406 3.578906 
z
" style="fill: #ffffff"/>
   </g>
   <g id="PathCollection_57">
    <path d="M 267.031406 55.786186 
L 263.869129 62.110741 
L 270.193684 62.110741 
z
" style="fill: #7da494; fill-opacity: 0.75"/>
   </g>
   <g id="PathCollection_58">
    <path d="M 267.031406 43.020072 
L 271.503542 38.547936 
L 267.031406 34.0758 
L 262.55927 38.547936 
z
" style="fill: #eab67a; fill-opacity: 0.75"/>
   </g>
   <g id="PathCollection_59">
    <path d="M 265.977314 36.71393 
L 268.085499 36.71393 
L 268.085499 34.605745 
L 270.193684 34.605745 
L 270.193684 32.497559 
L 268.085499 32.497559 
L 268.085499 30.389374 
L 265.977314 30.389374 
L 265.977314 32.497559 
L 263.869129 32.497559 
L 263.869129 34.605745 
L 265.977314 34.605745 
z
" style="fill: #9e97b7; fill-opacity: 0.75"/>
   </g>
   <g id="PathCollection_60">
    <path d="M 263.869129 61.216018 
L 270.193684 61.216018 
L 270.193684 54.891462 
L 263.869129 54.891462 
z
" style="fill: #6e8fb2; fill-opacity: 0.75"/>
   </g>
   <g id="PathCollection_61">
    <path d="M 265.450267 26.632162 
L 263.869129 29.370774 
L 265.450267 32.109387 
L 268.612545 32.109387 
L 270.193684 29.370774 
L 268.612545 26.632162 
z
" style="fill: #ddbf9f; fill-opacity: 0.75"/>
   </g>
   <g id="PathCollection_62">
    <path d="M 270.193684 99.335487 
L 263.869129 96.173209 
L 263.869129 102.497765 
z
" style="fill: #d9a7be; fill-opacity: 0.75"/>
   </g>
   <g id="PathCollection_63">
    <path d="M 265.450267 75.939798 
L 267.031406 74.358659 
L 268.612545 75.939798 
L 270.193684 74.358659 
L 268.612545 72.777521 
L 270.193684 71.196382 
L 268.612545 69.615243 
L 267.031406 71.196382 
L 265.450267 69.615243 
L 263.869129 71.196382 
L 265.450267 72.777521 
L 263.869129 74.358659 
z
" style="fill: #9da6b9; fill-opacity: 0.75"/>
   </g>
   <g id="PathCollection_64">
    <path d="M 267.031406 7.148937 
C 267.870052 7.148937 268.674462 6.81574 269.267474 6.222728 
C 269.860486 5.629715 270.193684 4.825305 270.193684 3.98666 
C 270.193684 3.148014 269.860486 2.343604 269.267474 1.750592 
C 268.674462 1.157579 267.870052 0.824382 267.031406 0.824382 
C 266.19276 0.824382 265.38835 1.157579 264.795338 1.750592 
C 264.202326 2.343604 263.869129 3.148014 263.869129 3.98666 
C 263.869129 4.825305 264.202326 5.629715 264.795338 6.222728 
C 265.38835 6.81574 266.19276 7.148937 267.031406 7.148937 
z
" style="fill: #c16e71; fill-opacity: 0.75"/>
   </g>
   <g id="matplotlib.axis_15">
    <g id="xtick_8">
     <g id="line2d_22">
      <g>
       <use xlink:href="#m09ed0e0878" x="267.031406" y="103.370906" style="stroke: #000000; stroke-width: 0.8"/>
      </g>
     </g>
     <g id="text_23">
      <!-- IRDS-Side-TapL -->
      <g transform="translate(237.213926 176.575673) rotate(-60) scale(0.1 -0.1)">
       <defs>
        <path id="ArialMT-54" d="M 1659 0 
L 1659 4041 
L 150 4041 
L 150 4581 
L 3781 4581 
L 3781 4041 
L 2266 4041 
L 2266 0 
L 1659 0 
z
" transform="scale(0.015625)"/>
        <path id="ArialMT-70" d="M 422 -1272 
L 422 3319 
L 934 3319 
L 934 2888 
Q 1116 3141 1344 3267 
Q 1572 3394 1897 3394 
Q 2322 3394 2647 3175 
Q 2972 2956 3137 2557 
Q 3303 2159 3303 1684 
Q 3303 1175 3120 767 
Q 2938 359 2589 142 
Q 2241 -75 1856 -75 
Q 1575 -75 1351 44 
Q 1128 163 984 344 
L 984 -1272 
L 422 -1272 
z
M 931 1641 
Q 931 1000 1190 694 
Q 1450 388 1819 388 
Q 2194 388 2461 705 
Q 2728 1022 2728 1688 
Q 2728 2322 2467 2637 
Q 2206 2953 1844 2953 
Q 1484 2953 1207 2617 
Q 931 2281 931 1641 
z
" transform="scale(0.015625)"/>
       </defs>
       <use xlink:href="#ArialMT-49"/>
       <use xlink:href="#ArialMT-52" x="27.783203"/>
       <use xlink:href="#ArialMT-44" x="100"/>
       <use xlink:href="#ArialMT-53" x="172.216797"/>
       <use xlink:href="#ArialMT-2d" x="238.916016"/>
       <use xlink:href="#ArialMT-53" x="272.216797"/>
       <use xlink:href="#ArialMT-69" x="338.916016"/>
       <use xlink:href="#ArialMT-64" x="361.132812"/>
       <use xlink:href="#ArialMT-65" x="416.748047"/>
       <use xlink:href="#ArialMT-2d" x="472.363281"/>
       <use xlink:href="#ArialMT-54" x="505.664062"/>
       <use xlink:href="#ArialMT-61" x="555.623047"/>
       <use xlink:href="#ArialMT-70" x="611.238281"/>
       <use xlink:href="#ArialMT-4c" x="666.853516"/>
      </g>
      <!-- (binary) -->
      <g transform="translate(256.087924 165.331198) rotate(-60) scale(0.1 -0.1)">
       <use xlink:href="#ArialMT-28"/>
       <use xlink:href="#ArialMT-62" x="33.300781"/>
       <use xlink:href="#ArialMT-69" x="88.916016"/>
       <use xlink:href="#ArialMT-6e" x="111.132812"/>
       <use xlink:href="#ArialMT-61" x="166.748047"/>
       <use xlink:href="#ArialMT-72" x="222.363281"/>
       <use xlink:href="#ArialMT-79" x="255.664062"/>
       <use xlink:href="#ArialMT-29" x="305.664062"/>
      </g>
     </g>
    </g>
   </g>
   <g id="matplotlib.axis_16">
    <g id="ytick_15">
     <g id="line2d_23">
      <g>
       <use xlink:href="#m0e82b5ba37" x="261.811406" y="103.370906" style="stroke: #000000; stroke-width: 0.8"/>
      </g>
     </g>
     <g id="text_24">
      <!-- 27 -->
      <g transform="translate(246.189531 106.949813) scale(0.1 -0.1)">
       <use xlink:href="#ArialMT-32"/>
       <use xlink:href="#ArialMT-37" x="55.615234"/>
      </g>
     </g>
    </g>
    <g id="ytick_16">
     <g id="line2d_24">
      <g>
       <use xlink:href="#m0e82b5ba37" x="261.811406" y="3.578906" style="stroke: #000000; stroke-width: 0.8"/>
      </g>
     </g>
     <g id="text_25">
      <!-- 86 -->
      <g transform="translate(246.189531 7.157813) scale(0.1 -0.1)">
       <use xlink:href="#ArialMT-38"/>
       <use xlink:href="#ArialMT-36" x="55.615234"/>
      </g>
     </g>
    </g>
   </g>
   <g id="patch_24">
    <path d="M 261.811406 103.370906 
L 261.811406 3.578906 
" style="fill: none; stroke: #000000; stroke-width: 0.8; stroke-linejoin: miter; stroke-linecap: square"/>
   </g>
   <g id="patch_25">
    <path d="M 261.811406 103.370906 
L 272.251406 103.370906 
" style="fill: none; stroke: #000000; stroke-width: 0.8; stroke-linejoin: miter; stroke-linecap: square"/>
   </g>
  </g>
  <g id="axes_9">
   <g id="patch_26">
    <path d="M 293.131406 103.370906 
L 303.571406 103.370906 
L 303.571406 3.578906 
L 293.131406 3.578906 
z
" style="fill: #ffffff"/>
   </g>
   <g id="PathCollection_65">
    <path d="M 298.351406 68.61887 
L 295.189129 74.943426 
L 301.513684 74.943426 
z
" style="fill: #7da494; fill-opacity: 0.75"/>
   </g>
   <g id="PathCollection_66">
    <path d="M 298.351406 26.307868 
L 302.823542 21.835732 
L 298.351406 17.363596 
L 293.87927 21.835732 
z
" style="fill: #eab67a; fill-opacity: 0.75"/>
   </g>
   <g id="PathCollection_67">
    <path d="M 297.297314 34.219385 
L 299.405499 34.219385 
L 299.405499 32.1112 
L 301.513684 32.1112 
L 301.513684 30.003015 
L 299.405499 30.003015 
L 299.405499 27.89483 
L 297.297314 27.89483 
L 297.297314 30.003015 
L 295.189129 30.003015 
L 295.189129 32.1112 
L 297.297314 32.1112 
z
" style="fill: #9e97b7; fill-opacity: 0.75"/>
   </g>
   <g id="PathCollection_68">
    <path d="M 295.189129 31.835845 
L 301.513684 31.835845 
L 301.513684 25.51129 
L 295.189129 25.51129 
z
" style="fill: #6e8fb2; fill-opacity: 0.75"/>
   </g>
   <g id="PathCollection_69">
    <path d="M 296.770267 46.542257 
L 295.189129 49.28087 
L 296.770267 52.019483 
L 299.932545 52.019483 
L 301.513684 49.28087 
L 299.932545 46.542257 
z
" style="fill: #ddbf9f; fill-opacity: 0.75"/>
   </g>
   <g id="PathCollection_70">
    <path d="M 301.513684 100.332715 
L 295.189129 97.170437 
L 295.189129 103.494993 
z
" style="fill: #d9a7be; fill-opacity: 0.75"/>
   </g>
   <g id="PathCollection_71">
    <path d="M 296.770267 70.142764 
L 298.351406 68.561625 
L 299.932545 70.142764 
L 301.513684 68.561625 
L 299.932545 66.980486 
L 301.513684 65.399347 
L 299.932545 63.818209 
L 298.351406 65.399347 
L 296.770267 63.818209 
L 295.189129 65.399347 
L 296.770267 66.980486 
L 295.189129 68.561625 
z
" style="fill: #9da6b9; fill-opacity: 0.75"/>
   </g>
   <g id="PathCollection_72">
    <path d="M 298.351406 7.387128 
C 299.190052 7.387128 299.994462 7.05393 300.587474 6.460918 
C 301.180486 5.867906 301.513684 5.063496 301.513684 4.22485 
C 301.513684 3.386204 301.180486 2.581794 300.587474 1.988782 
C 299.994462 1.39577 299.190052 1.062572 298.351406 1.062572 
C 297.51276 1.062572 296.70835 1.39577 296.115338 1.988782 
C 295.522326 2.581794 295.189129 3.386204 295.189129 4.22485 
C 295.189129 5.063496 295.522326 5.867906 296.115338 6.460918 
C 296.70835 7.05393 297.51276 7.387128 298.351406 7.387128 
z
" style="fill: #c16e71; fill-opacity: 0.75"/>
   </g>
   <g id="matplotlib.axis_17">
    <g id="xtick_9">
     <g id="line2d_25">
      <g>
       <use xlink:href="#m09ed0e0878" x="298.351406" y="103.370906" style="stroke: #000000; stroke-width: 0.8"/>
      </g>
     </g>
     <g id="text_26">
      <!-- IRDS-Side-TapR -->
      <g transform="translate(267.703457 178.014087) rotate(-60) scale(0.1 -0.1)">
       <use xlink:href="#ArialMT-49"/>
       <use xlink:href="#ArialMT-52" x="27.783203"/>
       <use xlink:href="#ArialMT-44" x="100"/>
       <use xlink:href="#ArialMT-53" x="172.216797"/>
       <use xlink:href="#ArialMT-2d" x="238.916016"/>
       <use xlink:href="#ArialMT-53" x="272.216797"/>
       <use xlink:href="#ArialMT-69" x="338.916016"/>
       <use xlink:href="#ArialMT-64" x="361.132812"/>
       <use xlink:href="#ArialMT-65" x="416.748047"/>
       <use xlink:href="#ArialMT-2d" x="472.363281"/>
       <use xlink:href="#ArialMT-54" x="505.664062"/>
       <use xlink:href="#ArialMT-61" x="555.623047"/>
       <use xlink:href="#ArialMT-70" x="611.238281"/>
       <use xlink:href="#ArialMT-52" x="666.853516"/>
      </g>
      <!-- (binary) -->
      <g transform="translate(286.99269 166.050405) rotate(-60) scale(0.1 -0.1)">
       <use xlink:href="#ArialMT-28"/>
       <use xlink:href="#ArialMT-62" x="33.300781"/>
       <use xlink:href="#ArialMT-69" x="88.916016"/>
       <use xlink:href="#ArialMT-6e" x="111.132812"/>
       <use xlink:href="#ArialMT-61" x="166.748047"/>
       <use xlink:href="#ArialMT-72" x="222.363281"/>
       <use xlink:href="#ArialMT-79" x="255.664062"/>
       <use xlink:href="#ArialMT-29" x="305.664062"/>
      </g>
     </g>
    </g>
   </g>
   <g id="matplotlib.axis_18">
    <g id="ytick_17">
     <g id="line2d_26">
      <g>
       <use xlink:href="#m0e82b5ba37" x="293.131406" y="103.370906" style="stroke: #000000; stroke-width: 0.8"/>
      </g>
     </g>
     <g id="text_27">
      <!-- 24 -->
      <g transform="translate(277.509531 106.949813) scale(0.1 -0.1)">
       <use xlink:href="#ArialMT-32"/>
       <use xlink:href="#ArialMT-34" x="55.615234"/>
      </g>
     </g>
    </g>
    <g id="ytick_18">
     <g id="line2d_27">
      <g>
       <use xlink:href="#m0e82b5ba37" x="293.131406" y="3.578906" style="stroke: #000000; stroke-width: 0.8"/>
      </g>
     </g>
     <g id="text_28">
      <!-- 87 -->
      <g transform="translate(277.509531 7.157813) scale(0.1 -0.1)">
       <use xlink:href="#ArialMT-38"/>
       <use xlink:href="#ArialMT-37" x="55.615234"/>
      </g>
     </g>
    </g>
   </g>
   <g id="patch_27">
    <path d="M 293.131406 103.370906 
L 293.131406 3.578906 
" style="fill: none; stroke: #000000; stroke-width: 0.8; stroke-linejoin: miter; stroke-linecap: square"/>
   </g>
   <g id="patch_28">
    <path d="M 293.131406 103.370906 
L 303.571406 103.370906 
" style="fill: none; stroke: #000000; stroke-width: 0.8; stroke-linejoin: miter; stroke-linecap: square"/>
   </g>
  </g>
  <g id="axes_10">
   <g id="patch_29">
    <path d="M 324.451406 103.370906 
L 334.891406 103.370906 
L 334.891406 3.578906 
L 324.451406 3.578906 
z
" style="fill: #ffffff"/>
   </g>
   <g id="PathCollection_73">
    <path d="M 329.671406 90.746758 
L 326.509129 97.071314 
L 332.833684 97.071314 
z
" style="fill: #7da494; fill-opacity: 0.75"/>
   </g>
   <g id="PathCollection_74">
    <path d="M 329.671406 61.40025 
L 334.143542 56.928114 
L 329.671406 52.455978 
L 325.19927 56.928114 
z
" style="fill: #eab67a; fill-opacity: 0.75"/>
   </g>
   <g id="PathCollection_75">
    <path d="M 328.617314 75.837712 
L 330.725499 75.837712 
L 330.725499 73.729527 
L 332.833684 73.729527 
L 332.833684 71.621342 
L 330.725499 71.621342 
L 330.725499 69.513156 
L 328.617314 69.513156 
L 328.617314 71.621342 
L 326.509129 71.621342 
L 326.509129 73.729527 
L 328.617314 73.729527 
z
" style="fill: #9e97b7; fill-opacity: 0.75"/>
   </g>
   <g id="PathCollection_76">
    <path d="M 326.509129 69.216583 
L 332.833684 69.216583 
L 332.833684 62.892027 
L 326.509129 62.892027 
z
" style="fill: #6e8fb2; fill-opacity: 0.75"/>
   </g>
   <g id="PathCollection_77">
    <path d="M 328.090267 60.281398 
L 326.509129 63.020011 
L 328.090267 65.758624 
L 331.252545 65.758624 
L 332.833684 63.020011 
L 331.252545 60.281398 
z
" style="fill: #ddbf9f; fill-opacity: 0.75"/>
   </g>
   <g id="PathCollection_78">
    <path d="M 332.833684 86.133751 
L 326.509129 82.971473 
L 326.509129 89.296029 
z
" style="fill: #d9a7be; fill-opacity: 0.75"/>
   </g>
   <g id="PathCollection_79">
    <path d="M 328.090267 70.636006 
L 329.671406 69.054867 
L 331.252545 70.636006 
L 332.833684 69.054867 
L 331.252545 67.473728 
L 332.833684 65.892589 
L 331.252545 64.31145 
L 329.671406 65.892589 
L 328.090267 64.31145 
L 326.509129 65.892589 
L 328.090267 67.473728 
L 326.509129 69.054867 
z
" style="fill: #9da6b9; fill-opacity: 0.75"/>
   </g>
   <g id="PathCollection_80">
    <path d="M 329.671406 7.974332 
C 330.510052 7.974332 331.314462 7.641135 331.907474 7.048122 
C 332.500486 6.45511 332.833684 5.6507 332.833684 4.812055 
C 332.833684 3.973409 332.500486 3.168999 331.907474 2.575987 
C 331.314462 1.982974 330.510052 1.649777 329.671406 1.649777 
C 328.83276 1.649777 328.02835 1.982974 327.435338 2.575987 
C 326.842326 3.168999 326.509129 3.973409 326.509129 4.812055 
C 326.509129 5.6507 326.842326 6.45511 327.435338 7.048122 
C 328.02835 7.641135 328.83276 7.974332 329.671406 7.974332 
z
" style="fill: #c16e71; fill-opacity: 0.75"/>
   </g>
   <g id="matplotlib.axis_19">
    <g id="xtick_10">
     <g id="line2d_28">
      <g>
       <use xlink:href="#m09ed0e0878" x="329.671406" y="103.370906" style="stroke: #000000; stroke-width: 0.8"/>
      </g>
     </g>
     <g id="text_29">
      <!-- TRSP-Seated-Motion -->
      <g transform="translate(288.353066 196.251995) rotate(-60) scale(0.1 -0.1)">
       <defs>
        <path id="ArialMT-50" d="M 494 0 
L 494 4581 
L 2222 4581 
Q 2678 4581 2919 4538 
Q 3256 4481 3484 4323 
Q 3713 4166 3852 3881 
Q 3991 3597 3991 3256 
Q 3991 2672 3619 2267 
Q 3247 1863 2275 1863 
L 1100 1863 
L 1100 0 
L 494 0 
z
M 1100 2403 
L 2284 2403 
Q 2872 2403 3119 2622 
Q 3366 2841 3366 3238 
Q 3366 3525 3220 3729 
Q 3075 3934 2838 4000 
Q 2684 4041 2272 4041 
L 1100 4041 
L 1100 2403 
z
" transform="scale(0.015625)"/>
        <path id="ArialMT-4d" d="M 475 0 
L 475 4581 
L 1388 4581 
L 2472 1338 
Q 2622 884 2691 659 
Q 2769 909 2934 1394 
L 4031 4581 
L 4847 4581 
L 4847 0 
L 4263 0 
L 4263 3834 
L 2931 0 
L 2384 0 
L 1059 3900 
L 1059 0 
L 475 0 
z
" transform="scale(0.015625)"/>
       </defs>
       <use xlink:href="#ArialMT-54"/>
       <use xlink:href="#ArialMT-52" x="61.083984"/>
       <use xlink:href="#ArialMT-53" x="133.300781"/>
       <use xlink:href="#ArialMT-50" x="200"/>
       <use xlink:href="#ArialMT-2d" x="266.699219"/>
       <use xlink:href="#ArialMT-53" x="300"/>
       <use xlink:href="#ArialMT-65" x="366.699219"/>
       <use xlink:href="#ArialMT-61" x="422.314453"/>
       <use xlink:href="#ArialMT-74" x="477.929688"/>
       <use xlink:href="#ArialMT-65" x="505.712891"/>
       <use xlink:href="#ArialMT-64" x="561.328125"/>
       <use xlink:href="#ArialMT-2d" x="616.943359"/>
       <use xlink:href="#ArialMT-4d" x="650.244141"/>
       <use xlink:href="#ArialMT-6f" x="733.544922"/>
       <use xlink:href="#ArialMT-74" x="789.160156"/>
       <use xlink:href="#ArialMT-69" x="816.943359"/>
       <use xlink:href="#ArialMT-6f" x="839.160156"/>
       <use xlink:href="#ArialMT-6e" x="894.775391"/>
      </g>
      <!-- (4-class) -->
      <g transform="translate(311.814955 177.061061) rotate(-60) scale(0.1 -0.1)">
       <use xlink:href="#ArialMT-28"/>
       <use xlink:href="#ArialMT-34" x="33.300781"/>
       <use xlink:href="#ArialMT-2d" x="88.916016"/>
       <use xlink:href="#ArialMT-63" x="122.216797"/>
       <use xlink:href="#ArialMT-6c" x="172.216797"/>
       <use xlink:href="#ArialMT-61" x="194.433594"/>
       <use xlink:href="#ArialMT-73" x="250.048828"/>
       <use xlink:href="#ArialMT-73" x="300.048828"/>
       <use xlink:href="#ArialMT-29" x="350.048828"/>
      </g>
     </g>
    </g>
   </g>
   <g id="matplotlib.axis_20">
    <g id="ytick_19">
     <g id="line2d_29">
      <g>
       <use xlink:href="#m0e82b5ba37" x="324.451406" y="103.370906" style="stroke: #000000; stroke-width: 0.8"/>
      </g>
     </g>
     <g id="text_30">
      <!-- 66 -->
      <g transform="translate(308.829531 106.949813) scale(0.1 -0.1)">
       <use xlink:href="#ArialMT-36"/>
       <use xlink:href="#ArialMT-36" x="55.615234"/>
      </g>
     </g>
    </g>
    <g id="ytick_20">
     <g id="line2d_30">
      <g>
       <use xlink:href="#m0e82b5ba37" x="324.451406" y="3.578906" style="stroke: #000000; stroke-width: 0.8"/>
      </g>
     </g>
     <g id="text_31">
      <!-- 78 -->
      <g transform="translate(308.829531 7.157813) scale(0.1 -0.1)">
       <use xlink:href="#ArialMT-37"/>
       <use xlink:href="#ArialMT-38" x="55.615234"/>
      </g>
     </g>
    </g>
   </g>
   <g id="patch_30">
    <path d="M 324.451406 103.370906 
L 324.451406 3.578906 
" style="fill: none; stroke: #000000; stroke-width: 0.8; stroke-linejoin: miter; stroke-linecap: square"/>
   </g>
   <g id="patch_31">
    <path d="M 324.451406 103.370906 
L 334.891406 103.370906 
" style="fill: none; stroke: #000000; stroke-width: 0.8; stroke-linejoin: miter; stroke-linecap: square"/>
   </g>
  </g>
  <g id="axes_11">
   <g id="patch_32">
    <path d="M 355.771406 103.370906 
L 366.211406 103.370906 
L 366.211406 3.578906 
L 355.771406 3.578906 
z
" style="fill: #ffffff"/>
   </g>
   <g id="PathCollection_81">
    <path d="M 360.991406 9.395201 
C 361.830052 9.395201 362.634462 9.062003 363.227474 8.468991 
C 363.820486 7.875979 364.153684 7.071569 364.153684 6.232923 
C 364.153684 5.394277 363.820486 4.589867 363.227474 3.996855 
C 362.634462 3.403843 361.830052 3.070645 360.991406 3.070645 
C 360.15276 3.070645 359.34835 3.403843 358.755338 3.996855 
C 358.162326 4.589867 357.829129 5.394277 357.829129 6.232923 
C 357.829129 7.071569 358.162326 7.875979 358.755338 8.468991 
C 359.34835 9.062003 360.15276 9.395201 360.991406 9.395201 
z
" style="fill: #c16e71"/>
   </g>
   <g id="PathCollection_82">
    <defs>
     <path id="mb623d59ee4" d="M 0 -3.162278 
L -3.007505 -0.977198 
L -1.85874 2.558336 
L 1.85874 2.558336 
L 3.007505 -0.977198 
z
" style="stroke: #8a8a8a"/>
    </defs>
    <g>
     <use xlink:href="#mb623d59ee4" x="360.991406" y="96.183679" style="fill: #8a8a8a; stroke: #8a8a8a"/>
    </g>
   </g>
   <g id="matplotlib.axis_21">
    <g id="xtick_11">
     <g id="line2d_31">
      <g>
       <use xlink:href="#m09ed0e0878" x="360.991406" y="103.370906" style="stroke: #000000; stroke-width: 0.8"/>
      </g>
     </g>
     <g id="text_32">
      <!-- Mean -->
      <g transform="translate(354.684004 135.611273) rotate(-60) scale(0.1 -0.1)">
       <use xlink:href="#ArialMT-4d"/>
       <use xlink:href="#ArialMT-65" x="83.300781"/>
       <use xlink:href="#ArialMT-61" x="138.916016"/>
       <use xlink:href="#ArialMT-6e" x="194.53125"/>
      </g>
     </g>
    </g>
   </g>
   <g id="matplotlib.axis_22">
    <g id="ytick_21">
     <g id="line2d_32">
      <g>
       <use xlink:href="#m0e82b5ba37" x="355.771406" y="103.370906" style="stroke: #000000; stroke-width: 0.8"/>
      </g>
     </g>
     <g id="text_33">
      <!-- 70 -->
      <g transform="translate(340.149531 106.949813) scale(0.1 -0.1)">
       <use xlink:href="#ArialMT-37"/>
       <use xlink:href="#ArialMT-30" x="55.615234"/>
      </g>
     </g>
    </g>
    <g id="ytick_22">
     <g id="line2d_33">
      <g>
       <use xlink:href="#m0e82b5ba37" x="355.771406" y="3.578906" style="stroke: #000000; stroke-width: 0.8"/>
      </g>
     </g>
     <g id="text_34">
      <!-- 92 -->
      <g transform="translate(340.149531 7.157812) scale(0.1 -0.1)">
       <use xlink:href="#ArialMT-39"/>
       <use xlink:href="#ArialMT-32" x="55.615234"/>
      </g>
     </g>
    </g>
   </g>
   <g id="line2d_34">
    <path d="M 365.689406 6.232923 
L 365.689406 96.183679 
" style="fill: none; stroke: #000000; stroke-width: 0.8; stroke-linecap: square"/>
   </g>
   <g id="patch_33">
    <path d="M 355.771406 103.370906 
L 355.771406 3.578906 
" style="fill: none; stroke: #000000; stroke-width: 0.8; stroke-linejoin: miter; stroke-linecap: square"/>
   </g>
   <g id="patch_34">
    <path d="M 355.771406 103.370906 
L 366.211406 103.370906 
" style="fill: none; stroke: #000000; stroke-width: 0.8; stroke-linejoin: miter; stroke-linecap: square"/>
   </g>
   <g id="text_35">
    <!-- $P$ = 0.0002 -->
    <g transform="translate(366.733406 53.793457) scale(0.1 -0.1)">
     <defs>
      <path id="DejaVuSans-Oblique-50" d="M 1081 4666 
L 2541 4666 
Q 3178 4666 3512 4369 
Q 3847 4072 3847 3500 
Q 3847 2731 3353 2303 
Q 2859 1875 1966 1875 
L 1172 1875 
L 806 0 
L 172 0 
L 1081 4666 
z
M 1613 4147 
L 1275 2394 
L 2069 2394 
Q 2606 2394 2893 2669 
Q 3181 2944 3181 3456 
Q 3181 3784 2986 3965 
Q 2791 4147 2438 4147 
L 1613 4147 
z
" transform="scale(0.015625)"/>
      <path id="ArialMT-3d" d="M 3381 2694 
L 356 2694 
L 356 3219 
L 3381 3219 
L 3381 2694 
z
M 3381 1303 
L 356 1303 
L 356 1828 
L 3381 1828 
L 3381 1303 
z
" transform="scale(0.015625)"/>
      <path id="ArialMT-2e" d="M 581 0 
L 581 641 
L 1222 641 
L 1222 0 
L 581 0 
z
" transform="scale(0.015625)"/>
     </defs>
     <use xlink:href="#DejaVuSans-Oblique-50" transform="translate(0 0.09375)"/>
     <use xlink:href="#ArialMT-20" transform="translate(60.302734 0.09375)"/>
     <use xlink:href="#ArialMT-3d" transform="translate(88.085938 0.09375)"/>
     <use xlink:href="#ArialMT-20" transform="translate(146.484375 0.09375)"/>
     <use xlink:href="#ArialMT-30" transform="translate(174.267578 0.09375)"/>
     <use xlink:href="#ArialMT-2e" transform="translate(229.882812 0.09375)"/>
     <use xlink:href="#ArialMT-30" transform="translate(257.666016 0.09375)"/>
     <use xlink:href="#ArialMT-30" transform="translate(313.28125 0.09375)"/>
     <use xlink:href="#ArialMT-30" transform="translate(368.896484 0.09375)"/>
     <use xlink:href="#ArialMT-32" transform="translate(424.511719 0.09375)"/>
    </g>
   </g>
  </g>
 </g>
</svg>
