<?xml version="1.0" encoding="utf-8" standalone="no"?>
<!DOCTYPE svg PUBLIC "-//W3C//DTD SVG 1.1//EN"
  "http://www.w3.org/Graphics/SVG/1.1/DTD/svg11.dtd">
<svg xmlns:xlink="http://www.w3.org/1999/xlink" width="407.930769pt" height="94.053375pt" viewBox="0 0 407.930769 94.053375" xmlns="http://www.w3.org/2000/svg" version="1.1">
 <metadata>
  <rdf:RDF xmlns:dc="http://purl.org/dc/elements/1.1/" xmlns:cc="http://creativecommons.org/ns#" xmlns:rdf="http://www.w3.org/1999/02/22-rdf-syntax-ns#">
   <cc:Work>
    <dc:type rdf:resource="http://purl.org/dc/dcmitype/StillImage"/>
    <dc:date>2026-05-20T14:21:40.262157</dc:date>
    <dc:format>image/svg+xml</dc:format>
    <dc:creator>
     <cc:Agent>
      <dc:title>Matplotlib v3.9.2, https://matplotlib.org/</dc:title>
     </cc:Agent>
    </dc:creator>
   </cc:Work>
  </rdf:RDF>
 </metadata>
 <defs>
  <style type="text/css">*{stroke-linejoin: round; stroke-linecap: butt}</style>
 </defs>
 <g id="figure_1">
  <g id="patch_1">
   <path d="M 0 94.053375 
L 407.930769 94.053375 
L 407.930769 -0 
L 0 -0 
z
" style="fill: #ffffff"/>
  </g>
  <g id="axes_1">
   <g id="patch_2">
    <path d="M 31.85375 70.990625 
L 407.930769 70.990625 
L 407.930769 2.863125 
L 31.85375 2.863125 
z
" style="fill: #ffffff"/>
   </g>
   <g id="patch_3">
    <path d="M 34.891295 70.990625 
L 42.702126 70.990625 
L 42.702126 64.343004 
L 34.891295 64.343004 
z
" clip-path="url(#p643c5fda9c)" style="fill: #7da494; opacity: 0.9"/>
   </g>
   <g id="patch_4">
    <path d="M 45.305736 70.990625 
L 53.116566 70.990625 
L 53.116566 50.599243 
L 45.305736 50.599243 
z
" clip-path="url(#p643c5fda9c)" style="fill: #eab67a; opacity: 0.9"/>
   </g>
   <g id="patch_5">
    <path d="M 55.720176 70.990625 
L 63.531007 70.990625 
L 63.531007 62.696854 
L 55.720176 62.696854 
z
" clip-path="url(#p643c5fda9c)" style="fill: #9e97b7; opacity: 0.9"/>
   </g>
   <g id="patch_6">
    <path d="M 66.134617 70.990625 
L 73.945447 70.990625 
L 73.945447 64.029039 
L 66.134617 64.029039 
z
" clip-path="url(#p643c5fda9c)" style="fill: #6e8fb2; opacity: 0.9"/>
   </g>
   <g id="patch_7">
    <path d="M 76.549057 70.990625 
L 84.359888 70.990625 
L 84.359888 29.472168 
L 76.549057 29.472168 
z
" clip-path="url(#p643c5fda9c)" style="fill: #ddbf9f; opacity: 0.9"/>
   </g>
   <g id="patch_8">
    <path d="M 86.963498 70.990625 
L 94.774328 70.990625 
L 94.774328 63.453143 
L 86.963498 63.453143 
z
" clip-path="url(#p643c5fda9c)" style="fill: #d9a7be; opacity: 0.9"/>
   </g>
   <g id="patch_9">
    <path d="M 97.377938 70.990625 
L 105.188769 70.990625 
L 105.188769 7.277021 
L 97.377938 7.277021 
z
" clip-path="url(#p643c5fda9c)" style="fill: #9da6b9; opacity: 0.9"/>
   </g>
   <g id="patch_10">
    <path d="M 107.792379 70.990625 
L 115.603209 70.990625 
L 115.603209 69.553658 
L 107.792379 69.553658 
z
" clip-path="url(#p643c5fda9c)" style="fill: #c16e71; opacity: 0.9"/>
   </g>
   <g id="patch_11">
    <path d="M 131.3213 70.990625 
L 139.13213 70.990625 
L 139.13213 64.599571 
L 131.3213 64.599571 
z
" clip-path="url(#p643c5fda9c)" style="fill: #7da494; opacity: 0.9"/>
   </g>
   <g id="patch_12">
    <path d="M 141.735741 70.990625 
L 149.546571 70.990625 
L 149.546571 50.535182 
L 141.735741 50.535182 
z
" clip-path="url(#p643c5fda9c)" style="fill: #eab67a; opacity: 0.9"/>
   </g>
   <g id="patch_13">
    <path d="M 152.150181 70.990625 
L 159.961012 70.990625 
L 159.961012 62.789905 
L 152.150181 62.789905 
z
" clip-path="url(#p643c5fda9c)" style="fill: #9e97b7; opacity: 0.9"/>
   </g>
   <g id="patch_14">
    <path d="M 162.564622 70.990625 
L 170.375452 70.990625 
L 170.375452 63.744698 
L 162.564622 63.744698 
z
" clip-path="url(#p643c5fda9c)" style="fill: #6e8fb2; opacity: 0.9"/>
   </g>
   <g id="patch_15">
    <path d="M 172.979062 70.990625 
L 180.789893 70.990625 
L 180.789893 29.419786 
L 172.979062 29.419786 
z
" clip-path="url(#p643c5fda9c)" style="fill: #ddbf9f; opacity: 0.9"/>
   </g>
   <g id="patch_16">
    <path d="M 183.393503 70.990625 
L 191.204333 70.990625 
L 191.204333 63.455998 
L 183.393503 63.455998 
z
" clip-path="url(#p643c5fda9c)" style="fill: #d9a7be; opacity: 0.9"/>
   </g>
   <g id="patch_17">
    <path d="M 193.807943 70.990625 
L 201.618774 70.990625 
L 201.618774 8.644843 
L 193.807943 8.644843 
z
" clip-path="url(#p643c5fda9c)" style="fill: #9da6b9; opacity: 0.9"/>
   </g>
   <g id="patch_18">
    <path d="M 204.222384 70.990625 
L 212.033214 70.990625 
L 212.033214 69.428471 
L 204.222384 69.428471 
z
" clip-path="url(#p643c5fda9c)" style="fill: #c16e71; opacity: 0.9"/>
   </g>
   <g id="patch_19">
    <path d="M 227.751305 70.990625 
L 235.562135 70.990625 
L 235.562135 64.543688 
L 227.751305 64.543688 
z
" clip-path="url(#p643c5fda9c)" style="fill: #7da494; opacity: 0.9"/>
   </g>
   <g id="patch_20">
    <path d="M 238.165746 70.990625 
L 245.976576 70.990625 
L 245.976576 50.509865 
L 238.165746 50.509865 
z
" clip-path="url(#p643c5fda9c)" style="fill: #eab67a; opacity: 0.9"/>
   </g>
   <g id="patch_21">
    <path d="M 248.580186 70.990625 
L 256.391016 70.990625 
L 256.391016 62.700821 
L 248.580186 62.700821 
z
" clip-path="url(#p643c5fda9c)" style="fill: #9e97b7; opacity: 0.9"/>
   </g>
   <g id="patch_22">
    <path d="M 258.994627 70.990625 
L 266.805457 70.990625 
L 266.805457 65.572651 
L 258.994627 65.572651 
z
" clip-path="url(#p643c5fda9c)" style="fill: #6e8fb2; opacity: 0.9"/>
   </g>
   <g id="patch_23">
    <path d="M 269.409067 70.990625 
L 277.219898 70.990625 
L 277.219898 29.384241 
L 269.409067 29.384241 
z
" clip-path="url(#p643c5fda9c)" style="fill: #ddbf9f; opacity: 0.9"/>
   </g>
   <g id="patch_24">
    <path d="M 279.823508 70.990625 
L 287.634338 70.990625 
L 287.634338 63.347788 
L 279.823508 63.347788 
z
" clip-path="url(#p643c5fda9c)" style="fill: #d9a7be; opacity: 0.9"/>
   </g>
   <g id="patch_25">
    <path d="M 290.237948 70.990625 
L 298.048779 70.990625 
L 298.048779 10.262602 
L 290.237948 10.262602 
z
" clip-path="url(#p643c5fda9c)" style="fill: #9da6b9; opacity: 0.9"/>
   </g>
   <g id="patch_26">
    <path d="M 300.652389 70.990625 
L 308.463219 70.990625 
L 308.463219 69.592842 
L 300.652389 69.592842 
z
" clip-path="url(#p643c5fda9c)" style="fill: #c16e71; opacity: 0.9"/>
   </g>
   <g id="patch_27">
    <path d="M 324.18131 70.990625 
L 331.99214 70.990625 
L 331.99214 64.737151 
L 324.18131 64.737151 
z
" clip-path="url(#p643c5fda9c)" style="fill: #7da494; opacity: 0.9"/>
   </g>
   <g id="patch_28">
    <path d="M 334.59575 70.990625 
L 342.406581 70.990625 
L 342.406581 50.843679 
L 334.59575 50.843679 
z
" clip-path="url(#p643c5fda9c)" style="fill: #eab67a; opacity: 0.9"/>
   </g>
   <g id="patch_29">
    <path d="M 345.010191 70.990625 
L 352.821021 70.990625 
L 352.821021 62.872374 
L 345.010191 62.872374 
z
" clip-path="url(#p643c5fda9c)" style="fill: #9e97b7; opacity: 0.9"/>
   </g>
   <g id="patch_30">
    <path d="M 355.424632 70.990625 
L 363.235462 70.990625 
L 363.235462 58.767043 
L 355.424632 58.767043 
z
" clip-path="url(#p643c5fda9c)" style="fill: #6e8fb2; opacity: 0.9"/>
   </g>
   <g id="patch_31">
    <path d="M 365.839072 70.990625 
L 373.649902 70.990625 
L 373.649902 24.579482 
L 365.839072 24.579482 
z
" clip-path="url(#p643c5fda9c)" style="fill: #ddbf9f; opacity: 0.9"/>
   </g>
   <g id="patch_32">
    <path d="M 376.253513 70.990625 
L 384.064343 70.990625 
L 384.064343 63.622099 
L 376.253513 63.622099 
z
" clip-path="url(#p643c5fda9c)" style="fill: #d9a7be; opacity: 0.9"/>
   </g>
   <g id="patch_33">
    <path d="M 386.667953 70.990625 
L 394.478784 70.990625 
L 394.478784 4.736472 
L 386.667953 4.736472 
z
" clip-path="url(#p643c5fda9c)" style="fill: #9da6b9; opacity: 0.9"/>
   </g>
   <g id="patch_34">
    <path d="M 397.082394 70.990625 
L 404.893224 70.990625 
L 404.893224 69.632346 
L 397.082394 69.632346 
z
" clip-path="url(#p643c5fda9c)" style="fill: #c16e71; opacity: 0.9"/>
   </g>
   <g id="matplotlib.axis_1">
    <g id="xtick_1">
     <g id="line2d_1">
      <defs>
       <path id="m43d510483f" d="M 0 0 
L 0 3.5 
" style="stroke: #000000; stroke-width: 0.8"/>
      </defs>
      <g>
       <use xlink:href="#m43d510483f" x="75.247252" y="70.990625" style="stroke: #000000; stroke-width: 0.8"/>
      </g>
     </g>
     <g id="text_1">
      <!-- Abnormality recognition -->
      <g transform="translate(33.451002 83.716875) scale(0.08 -0.08)">
       <defs>
        <path id="ArialMT-41" d="M -9 0 
L 1750 4581 
L 2403 4581 
L 4278 0 
L 3588 0 
L 3053 1388 
L 1138 1388 
L 634 0 
L -9 0 
z
M 1313 1881 
L 2866 1881 
L 2388 3150 
Q 2169 3728 2063 4100 
Q 1975 3659 1816 3225 
L 1313 1881 
z
" transform="scale(0.015625)"/>
        <path id="ArialMT-62" d="M 941 0 
L 419 0 
L 419 4581 
L 981 4581 
L 981 2947 
Q 1338 3394 1891 3394 
Q 2197 3394 2470 3270 
Q 2744 3147 2920 2923 
Q 3097 2700 3197 2384 
Q 3297 2069 3297 1709 
Q 3297 856 2875 390 
Q 2453 -75 1863 -75 
Q 1275 -75 941 416 
L 941 0 
z
M 934 1684 
Q 934 1088 1097 822 
Q 1363 388 1816 388 
Q 2184 388 2453 708 
Q 2722 1028 2722 1663 
Q 2722 2313 2464 2622 
Q 2206 2931 1841 2931 
Q 1472 2931 1203 2611 
Q 934 2291 934 1684 
z
" transform="scale(0.015625)"/>
        <path id="ArialMT-6e" d="M 422 0 
L 422 3319 
L 928 3319 
L 928 2847 
Q 1294 3394 1984 3394 
Q 2284 3394 2536 3286 
Q 2788 3178 2913 3003 
Q 3038 2828 3088 2588 
Q 3119 2431 3119 2041 
L 3119 0 
L 2556 0 
L 2556 2019 
Q 2556 2363 2490 2533 
Q 2425 2703 2258 2804 
Q 2091 2906 1866 2906 
Q 1506 2906 1245 2678 
Q 984 2450 984 1813 
L 984 0 
L 422 0 
z
" transform="scale(0.015625)"/>
        <path id="ArialMT-6f" d="M 213 1659 
Q 213 2581 725 3025 
Q 1153 3394 1769 3394 
Q 2453 3394 2887 2945 
Q 3322 2497 3322 1706 
Q 3322 1066 3130 698 
Q 2938 331 2570 128 
Q 2203 -75 1769 -75 
Q 1072 -75 642 372 
Q 213 819 213 1659 
z
M 791 1659 
Q 791 1022 1069 705 
Q 1347 388 1769 388 
Q 2188 388 2466 706 
Q 2744 1025 2744 1678 
Q 2744 2294 2464 2611 
Q 2184 2928 1769 2928 
Q 1347 2928 1069 2612 
Q 791 2297 791 1659 
z
" transform="scale(0.015625)"/>
        <path id="ArialMT-72" d="M 416 0 
L 416 3319 
L 922 3319 
L 922 2816 
Q 1116 3169 1280 3281 
Q 1444 3394 1641 3394 
Q 1925 3394 2219 3213 
L 2025 2691 
Q 1819 2813 1613 2813 
Q 1428 2813 1281 2702 
Q 1134 2591 1072 2394 
Q 978 2094 978 1738 
L 978 0 
L 416 0 
z
" transform="scale(0.015625)"/>
        <path id="ArialMT-6d" d="M 422 0 
L 422 3319 
L 925 3319 
L 925 2853 
Q 1081 3097 1340 3245 
Q 1600 3394 1931 3394 
Q 2300 3394 2536 3241 
Q 2772 3088 2869 2813 
Q 3263 3394 3894 3394 
Q 4388 3394 4653 3120 
Q 4919 2847 4919 2278 
L 4919 0 
L 4359 0 
L 4359 2091 
Q 4359 2428 4304 2576 
Q 4250 2725 4106 2815 
Q 3963 2906 3769 2906 
Q 3419 2906 3187 2673 
Q 2956 2441 2956 1928 
L 2956 0 
L 2394 0 
L 2394 2156 
Q 2394 2531 2256 2718 
Q 2119 2906 1806 2906 
Q 1569 2906 1367 2781 
Q 1166 2656 1075 2415 
Q 984 2175 984 1722 
L 984 0 
L 422 0 
z
" transform="scale(0.015625)"/>
        <path id="ArialMT-61" d="M 2588 409 
Q 2275 144 1986 34 
Q 1697 -75 1366 -75 
Q 819 -75 525 192 
Q 231 459 231 875 
Q 231 1119 342 1320 
Q 453 1522 633 1644 
Q 813 1766 1038 1828 
Q 1203 1872 1538 1913 
Q 2219 1994 2541 2106 
Q 2544 2222 2544 2253 
Q 2544 2597 2384 2738 
Q 2169 2928 1744 2928 
Q 1347 2928 1158 2789 
Q 969 2650 878 2297 
L 328 2372 
Q 403 2725 575 2942 
Q 747 3159 1072 3276 
Q 1397 3394 1825 3394 
Q 2250 3394 2515 3294 
Q 2781 3194 2906 3042 
Q 3031 2891 3081 2659 
Q 3109 2516 3109 2141 
L 3109 1391 
Q 3109 606 3145 398 
Q 3181 191 3288 0 
L 2700 0 
Q 2613 175 2588 409 
z
M 2541 1666 
Q 2234 1541 1622 1453 
Q 1275 1403 1131 1340 
Q 988 1278 909 1158 
Q 831 1038 831 891 
Q 831 666 1001 516 
Q 1172 366 1500 366 
Q 1825 366 2078 508 
Q 2331 650 2450 897 
Q 2541 1088 2541 1459 
L 2541 1666 
z
" transform="scale(0.015625)"/>
        <path id="ArialMT-6c" d="M 409 0 
L 409 4581 
L 972 4581 
L 972 0 
L 409 0 
z
" transform="scale(0.015625)"/>
        <path id="ArialMT-69" d="M 425 3934 
L 425 4581 
L 988 4581 
L 988 3934 
L 425 3934 
z
M 425 0 
L 425 3319 
L 988 3319 
L 988 0 
L 425 0 
z
" transform="scale(0.015625)"/>
        <path id="ArialMT-74" d="M 1650 503 
L 1731 6 
Q 1494 -44 1306 -44 
Q 1000 -44 831 53 
Q 663 150 594 308 
Q 525 466 525 972 
L 525 2881 
L 113 2881 
L 113 3319 
L 525 3319 
L 525 4141 
L 1084 4478 
L 1084 3319 
L 1650 3319 
L 1650 2881 
L 1084 2881 
L 1084 941 
Q 1084 700 1114 631 
Q 1144 563 1211 522 
Q 1278 481 1403 481 
Q 1497 481 1650 503 
z
" transform="scale(0.015625)"/>
        <path id="ArialMT-79" d="M 397 -1278 
L 334 -750 
Q 519 -800 656 -800 
Q 844 -800 956 -737 
Q 1069 -675 1141 -563 
Q 1194 -478 1313 -144 
Q 1328 -97 1363 -6 
L 103 3319 
L 709 3319 
L 1400 1397 
Q 1534 1031 1641 628 
Q 1738 1016 1872 1384 
L 2581 3319 
L 3144 3319 
L 1881 -56 
Q 1678 -603 1566 -809 
Q 1416 -1088 1222 -1217 
Q 1028 -1347 759 -1347 
Q 597 -1347 397 -1278 
z
" transform="scale(0.015625)"/>
        <path id="ArialMT-20" transform="scale(0.015625)"/>
        <path id="ArialMT-65" d="M 2694 1069 
L 3275 997 
Q 3138 488 2766 206 
Q 2394 -75 1816 -75 
Q 1088 -75 661 373 
Q 234 822 234 1631 
Q 234 2469 665 2931 
Q 1097 3394 1784 3394 
Q 2450 3394 2872 2941 
Q 3294 2488 3294 1666 
Q 3294 1616 3291 1516 
L 816 1516 
Q 847 969 1125 678 
Q 1403 388 1819 388 
Q 2128 388 2347 550 
Q 2566 713 2694 1069 
z
M 847 1978 
L 2700 1978 
Q 2663 2397 2488 2606 
Q 2219 2931 1791 2931 
Q 1403 2931 1139 2672 
Q 875 2413 847 1978 
z
" transform="scale(0.015625)"/>
        <path id="ArialMT-63" d="M 2588 1216 
L 3141 1144 
Q 3050 572 2676 248 
Q 2303 -75 1759 -75 
Q 1078 -75 664 370 
Q 250 816 250 1647 
Q 250 2184 428 2587 
Q 606 2991 970 3192 
Q 1334 3394 1763 3394 
Q 2303 3394 2647 3120 
Q 2991 2847 3088 2344 
L 2541 2259 
Q 2463 2594 2264 2762 
Q 2066 2931 1784 2931 
Q 1359 2931 1093 2626 
Q 828 2322 828 1663 
Q 828 994 1084 691 
Q 1341 388 1753 388 
Q 2084 388 2306 591 
Q 2528 794 2588 1216 
z
" transform="scale(0.015625)"/>
        <path id="ArialMT-67" d="M 319 -275 
L 866 -356 
Q 900 -609 1056 -725 
Q 1266 -881 1628 -881 
Q 2019 -881 2231 -725 
Q 2444 -569 2519 -288 
Q 2563 -116 2559 434 
Q 2191 0 1641 0 
Q 956 0 581 494 
Q 206 988 206 1678 
Q 206 2153 378 2554 
Q 550 2956 876 3175 
Q 1203 3394 1644 3394 
Q 2231 3394 2613 2919 
L 2613 3319 
L 3131 3319 
L 3131 450 
Q 3131 -325 2973 -648 
Q 2816 -972 2473 -1159 
Q 2131 -1347 1631 -1347 
Q 1038 -1347 672 -1080 
Q 306 -813 319 -275 
z
M 784 1719 
Q 784 1066 1043 766 
Q 1303 466 1694 466 
Q 2081 466 2343 764 
Q 2606 1063 2606 1700 
Q 2606 2309 2336 2618 
Q 2066 2928 1684 2928 
Q 1309 2928 1046 2623 
Q 784 2319 784 1719 
z
" transform="scale(0.015625)"/>
       </defs>
       <use xlink:href="#ArialMT-41"/>
       <use xlink:href="#ArialMT-62" x="66.699219"/>
       <use xlink:href="#ArialMT-6e" x="122.314453"/>
       <use xlink:href="#ArialMT-6f" x="177.929688"/>
       <use xlink:href="#ArialMT-72" x="233.544922"/>
       <use xlink:href="#ArialMT-6d" x="266.845703"/>
       <use xlink:href="#ArialMT-61" x="350.146484"/>
       <use xlink:href="#ArialMT-6c" x="405.761719"/>
       <use xlink:href="#ArialMT-69" x="427.978516"/>
       <use xlink:href="#ArialMT-74" x="450.195312"/>
       <use xlink:href="#ArialMT-79" x="477.978516"/>
       <use xlink:href="#ArialMT-20" x="527.978516"/>
       <use xlink:href="#ArialMT-72" x="555.761719"/>
       <use xlink:href="#ArialMT-65" x="589.0625"/>
       <use xlink:href="#ArialMT-63" x="644.677734"/>
       <use xlink:href="#ArialMT-6f" x="694.677734"/>
       <use xlink:href="#ArialMT-67" x="750.292969"/>
       <use xlink:href="#ArialMT-6e" x="805.908203"/>
       <use xlink:href="#ArialMT-69" x="861.523438"/>
       <use xlink:href="#ArialMT-74" x="883.740234"/>
       <use xlink:href="#ArialMT-69" x="911.523438"/>
       <use xlink:href="#ArialMT-6f" x="933.740234"/>
       <use xlink:href="#ArialMT-6e" x="989.355469"/>
      </g>
     </g>
    </g>
    <g id="xtick_2">
     <g id="line2d_2">
      <g>
       <use xlink:href="#m43d510483f" x="171.677257" y="70.990625" style="stroke: #000000; stroke-width: 0.8"/>
      </g>
     </g>
     <g id="text_2">
      <!-- Clinical diagnosis and -->
      <g transform="translate(132.989757 83.814375) scale(0.08 -0.08)">
       <defs>
        <path id="ArialMT-43" d="M 3763 1606 
L 4369 1453 
Q 4178 706 3683 314 
Q 3188 -78 2472 -78 
Q 1731 -78 1267 223 
Q 803 525 561 1097 
Q 319 1669 319 2325 
Q 319 3041 592 3573 
Q 866 4106 1370 4382 
Q 1875 4659 2481 4659 
Q 3169 4659 3637 4309 
Q 4106 3959 4291 3325 
L 3694 3184 
Q 3534 3684 3231 3912 
Q 2928 4141 2469 4141 
Q 1941 4141 1586 3887 
Q 1231 3634 1087 3207 
Q 944 2781 944 2328 
Q 944 1744 1114 1308 
Q 1284 872 1643 656 
Q 2003 441 2422 441 
Q 2931 441 3284 734 
Q 3638 1028 3763 1606 
z
" transform="scale(0.015625)"/>
        <path id="ArialMT-64" d="M 2575 0 
L 2575 419 
Q 2259 -75 1647 -75 
Q 1250 -75 917 144 
Q 584 363 401 755 
Q 219 1147 219 1656 
Q 219 2153 384 2558 
Q 550 2963 881 3178 
Q 1213 3394 1622 3394 
Q 1922 3394 2156 3267 
Q 2391 3141 2538 2938 
L 2538 4581 
L 3097 4581 
L 3097 0 
L 2575 0 
z
M 797 1656 
Q 797 1019 1065 703 
Q 1334 388 1700 388 
Q 2069 388 2326 689 
Q 2584 991 2584 1609 
Q 2584 2291 2321 2609 
Q 2059 2928 1675 2928 
Q 1300 2928 1048 2622 
Q 797 2316 797 1656 
z
" transform="scale(0.015625)"/>
        <path id="ArialMT-73" d="M 197 991 
L 753 1078 
Q 800 744 1014 566 
Q 1228 388 1613 388 
Q 2000 388 2187 545 
Q 2375 703 2375 916 
Q 2375 1106 2209 1216 
Q 2094 1291 1634 1406 
Q 1016 1563 777 1677 
Q 538 1791 414 1992 
Q 291 2194 291 2438 
Q 291 2659 392 2848 
Q 494 3038 669 3163 
Q 800 3259 1026 3326 
Q 1253 3394 1513 3394 
Q 1903 3394 2198 3281 
Q 2494 3169 2634 2976 
Q 2775 2784 2828 2463 
L 2278 2388 
Q 2241 2644 2061 2787 
Q 1881 2931 1553 2931 
Q 1166 2931 1000 2803 
Q 834 2675 834 2503 
Q 834 2394 903 2306 
Q 972 2216 1119 2156 
Q 1203 2125 1616 2013 
Q 2213 1853 2448 1751 
Q 2684 1650 2818 1456 
Q 2953 1263 2953 975 
Q 2953 694 2789 445 
Q 2625 197 2315 61 
Q 2006 -75 1616 -75 
Q 969 -75 630 194 
Q 291 463 197 991 
z
" transform="scale(0.015625)"/>
       </defs>
       <use xlink:href="#ArialMT-43"/>
       <use xlink:href="#ArialMT-6c" x="72.216797"/>
       <use xlink:href="#ArialMT-69" x="94.433594"/>
       <use xlink:href="#ArialMT-6e" x="116.650391"/>
       <use xlink:href="#ArialMT-69" x="172.265625"/>
       <use xlink:href="#ArialMT-63" x="194.482422"/>
       <use xlink:href="#ArialMT-61" x="244.482422"/>
       <use xlink:href="#ArialMT-6c" x="300.097656"/>
       <use xlink:href="#ArialMT-20" x="322.314453"/>
       <use xlink:href="#ArialMT-64" x="350.097656"/>
       <use xlink:href="#ArialMT-69" x="405.712891"/>
       <use xlink:href="#ArialMT-61" x="427.929688"/>
       <use xlink:href="#ArialMT-67" x="483.544922"/>
       <use xlink:href="#ArialMT-6e" x="539.160156"/>
       <use xlink:href="#ArialMT-6f" x="594.775391"/>
       <use xlink:href="#ArialMT-73" x="650.390625"/>
       <use xlink:href="#ArialMT-69" x="700.390625"/>
       <use xlink:href="#ArialMT-73" x="722.607422"/>
       <use xlink:href="#ArialMT-20" x="772.607422"/>
       <use xlink:href="#ArialMT-61" x="800.390625"/>
       <use xlink:href="#ArialMT-6e" x="856.005859"/>
       <use xlink:href="#ArialMT-64" x="911.621094"/>
      </g>
      <!-- severity grading -->
      <g transform="translate(143.442882 92.369625) scale(0.08 -0.08)">
       <defs>
        <path id="ArialMT-76" d="M 1344 0 
L 81 3319 
L 675 3319 
L 1388 1331 
Q 1503 1009 1600 663 
Q 1675 925 1809 1294 
L 2547 3319 
L 3125 3319 
L 1869 0 
L 1344 0 
z
" transform="scale(0.015625)"/>
       </defs>
       <use xlink:href="#ArialMT-73"/>
       <use xlink:href="#ArialMT-65" x="50"/>
       <use xlink:href="#ArialMT-76" x="105.615234"/>
       <use xlink:href="#ArialMT-65" x="155.615234"/>
       <use xlink:href="#ArialMT-72" x="211.230469"/>
       <use xlink:href="#ArialMT-69" x="244.53125"/>
       <use xlink:href="#ArialMT-74" x="266.748047"/>
       <use xlink:href="#ArialMT-79" x="294.53125"/>
       <use xlink:href="#ArialMT-20" x="344.53125"/>
       <use xlink:href="#ArialMT-67" x="372.314453"/>
       <use xlink:href="#ArialMT-72" x="427.929688"/>
       <use xlink:href="#ArialMT-61" x="461.230469"/>
       <use xlink:href="#ArialMT-64" x="516.845703"/>
       <use xlink:href="#ArialMT-69" x="572.460938"/>
       <use xlink:href="#ArialMT-6e" x="594.677734"/>
       <use xlink:href="#ArialMT-67" x="650.292969"/>
      </g>
     </g>
    </g>
    <g id="xtick_3">
     <g id="line2d_3">
      <g>
       <use xlink:href="#m43d510483f" x="268.107262" y="70.990625" style="stroke: #000000; stroke-width: 0.8"/>
      </g>
     </g>
     <g id="text_3">
      <!-- Physical rehabilitation -->
      <g transform="translate(229.421637 83.716875) scale(0.08 -0.08)">
       <defs>
        <path id="ArialMT-50" d="M 494 0 
L 494 4581 
L 2222 4581 
Q 2678 4581 2919 4538 
Q 3256 4481 3484 4323 
Q 3713 4166 3852 3881 
Q 3991 3597 3991 3256 
Q 3991 2672 3619 2267 
Q 3247 1863 2275 1863 
L 1100 1863 
L 1100 0 
L 494 0 
z
M 1100 2403 
L 2284 2403 
Q 2872 2403 3119 2622 
Q 3366 2841 3366 3238 
Q 3366 3525 3220 3729 
Q 3075 3934 2838 4000 
Q 2684 4041 2272 4041 
L 1100 4041 
L 1100 2403 
z
" transform="scale(0.015625)"/>
        <path id="ArialMT-68" d="M 422 0 
L 422 4581 
L 984 4581 
L 984 2938 
Q 1378 3394 1978 3394 
Q 2347 3394 2619 3248 
Q 2891 3103 3008 2847 
Q 3125 2591 3125 2103 
L 3125 0 
L 2563 0 
L 2563 2103 
Q 2563 2525 2380 2717 
Q 2197 2909 1863 2909 
Q 1613 2909 1392 2779 
Q 1172 2650 1078 2428 
Q 984 2206 984 1816 
L 984 0 
L 422 0 
z
" transform="scale(0.015625)"/>
       </defs>
       <use xlink:href="#ArialMT-50"/>
       <use xlink:href="#ArialMT-68" x="66.699219"/>
       <use xlink:href="#ArialMT-79" x="122.314453"/>
       <use xlink:href="#ArialMT-73" x="172.314453"/>
       <use xlink:href="#ArialMT-69" x="222.314453"/>
       <use xlink:href="#ArialMT-63" x="244.53125"/>
       <use xlink:href="#ArialMT-61" x="294.53125"/>
       <use xlink:href="#ArialMT-6c" x="350.146484"/>
       <use xlink:href="#ArialMT-20" x="372.363281"/>
       <use xlink:href="#ArialMT-72" x="400.146484"/>
       <use xlink:href="#ArialMT-65" x="433.447266"/>
       <use xlink:href="#ArialMT-68" x="489.0625"/>
       <use xlink:href="#ArialMT-61" x="544.677734"/>
       <use xlink:href="#ArialMT-62" x="600.292969"/>
       <use xlink:href="#ArialMT-69" x="655.908203"/>
       <use xlink:href="#ArialMT-6c" x="678.125"/>
       <use xlink:href="#ArialMT-69" x="700.341797"/>
       <use xlink:href="#ArialMT-74" x="722.558594"/>
       <use xlink:href="#ArialMT-61" x="750.341797"/>
       <use xlink:href="#ArialMT-74" x="805.957031"/>
       <use xlink:href="#ArialMT-69" x="833.740234"/>
       <use xlink:href="#ArialMT-6f" x="855.957031"/>
       <use xlink:href="#ArialMT-6e" x="911.572266"/>
      </g>
      <!-- assessment -->
      <g transform="translate(246.766637 92.272125) scale(0.08 -0.08)">
       <use xlink:href="#ArialMT-61"/>
       <use xlink:href="#ArialMT-73" x="55.615234"/>
       <use xlink:href="#ArialMT-73" x="105.615234"/>
       <use xlink:href="#ArialMT-65" x="155.615234"/>
       <use xlink:href="#ArialMT-73" x="211.230469"/>
       <use xlink:href="#ArialMT-73" x="261.230469"/>
       <use xlink:href="#ArialMT-6d" x="311.230469"/>
       <use xlink:href="#ArialMT-65" x="394.53125"/>
       <use xlink:href="#ArialMT-6e" x="450.146484"/>
       <use xlink:href="#ArialMT-74" x="505.761719"/>
      </g>
     </g>
    </g>
    <g id="xtick_4">
     <g id="line2d_4">
      <g>
       <use xlink:href="#m43d510483f" x="364.537267" y="70.990625" style="stroke: #000000; stroke-width: 0.8"/>
      </g>
     </g>
     <g id="text_4">
      <!-- Multi-center application -->
      <g transform="translate(323.409142 83.716875) scale(0.08 -0.08)">
       <defs>
        <path id="ArialMT-4d" d="M 475 0 
L 475 4581 
L 1388 4581 
L 2472 1338 
Q 2622 884 2691 659 
Q 2769 909 2934 1394 
L 4031 4581 
L 4847 4581 
L 4847 0 
L 4263 0 
L 4263 3834 
L 2931 0 
L 2384 0 
L 1059 3900 
L 1059 0 
L 475 0 
z
" transform="scale(0.015625)"/>
        <path id="ArialMT-75" d="M 2597 0 
L 2597 488 
Q 2209 -75 1544 -75 
Q 1250 -75 995 37 
Q 741 150 617 320 
Q 494 491 444 738 
Q 409 903 409 1263 
L 409 3319 
L 972 3319 
L 972 1478 
Q 972 1038 1006 884 
Q 1059 663 1231 536 
Q 1403 409 1656 409 
Q 1909 409 2131 539 
Q 2353 669 2445 892 
Q 2538 1116 2538 1541 
L 2538 3319 
L 3100 3319 
L 3100 0 
L 2597 0 
z
" transform="scale(0.015625)"/>
        <path id="ArialMT-2d" d="M 203 1375 
L 203 1941 
L 1931 1941 
L 1931 1375 
L 203 1375 
z
" transform="scale(0.015625)"/>
        <path id="ArialMT-70" d="M 422 -1272 
L 422 3319 
L 934 3319 
L 934 2888 
Q 1116 3141 1344 3267 
Q 1572 3394 1897 3394 
Q 2322 3394 2647 3175 
Q 2972 2956 3137 2557 
Q 3303 2159 3303 1684 
Q 3303 1175 3120 767 
Q 2938 359 2589 142 
Q 2241 -75 1856 -75 
Q 1575 -75 1351 44 
Q 1128 163 984 344 
L 984 -1272 
L 422 -1272 
z
M 931 1641 
Q 931 1000 1190 694 
Q 1450 388 1819 388 
Q 2194 388 2461 705 
Q 2728 1022 2728 1688 
Q 2728 2322 2467 2637 
Q 2206 2953 1844 2953 
Q 1484 2953 1207 2617 
Q 931 2281 931 1641 
z
" transform="scale(0.015625)"/>
       </defs>
       <use xlink:href="#ArialMT-4d"/>
       <use xlink:href="#ArialMT-75" x="83.300781"/>
       <use xlink:href="#ArialMT-6c" x="138.916016"/>
       <use xlink:href="#ArialMT-74" x="161.132812"/>
       <use xlink:href="#ArialMT-69" x="188.916016"/>
       <use xlink:href="#ArialMT-2d" x="211.132812"/>
       <use xlink:href="#ArialMT-63" x="244.433594"/>
       <use xlink:href="#ArialMT-65" x="294.433594"/>
       <use xlink:href="#ArialMT-6e" x="350.048828"/>
       <use xlink:href="#ArialMT-74" x="405.664062"/>
       <use xlink:href="#ArialMT-65" x="433.447266"/>
       <use xlink:href="#ArialMT-72" x="489.0625"/>
       <use xlink:href="#ArialMT-20" x="522.363281"/>
       <use xlink:href="#ArialMT-61" x="550.146484"/>
       <use xlink:href="#ArialMT-70" x="605.761719"/>
       <use xlink:href="#ArialMT-70" x="661.376953"/>
       <use xlink:href="#ArialMT-6c" x="716.992188"/>
       <use xlink:href="#ArialMT-69" x="739.208984"/>
       <use xlink:href="#ArialMT-63" x="761.425781"/>
       <use xlink:href="#ArialMT-61" x="811.425781"/>
       <use xlink:href="#ArialMT-74" x="867.041016"/>
       <use xlink:href="#ArialMT-69" x="894.824219"/>
       <use xlink:href="#ArialMT-6f" x="917.041016"/>
       <use xlink:href="#ArialMT-6e" x="972.65625"/>
      </g>
     </g>
    </g>
   </g>
   <g id="matplotlib.axis_2">
    <g id="ytick_1">
     <g id="line2d_5">
      <defs>
       <path id="m2fd384333e" d="M 0 0 
L -3.5 0 
" style="stroke: #000000; stroke-width: 0.8"/>
      </defs>
      <g>
       <use xlink:href="#m2fd384333e" x="31.85375" y="70.990625" style="stroke: #000000; stroke-width: 0.8"/>
      </g>
     </g>
     <g id="text_5">
      <!-- 0 -->
      <g transform="translate(20.405 73.85375) scale(0.08 -0.08)">
       <defs>
        <path id="ArialMT-30" d="M 266 2259 
Q 266 3072 433 3567 
Q 600 4063 929 4331 
Q 1259 4600 1759 4600 
Q 2128 4600 2406 4451 
Q 2684 4303 2865 4023 
Q 3047 3744 3150 3342 
Q 3253 2941 3253 2259 
Q 3253 1453 3087 958 
Q 2922 463 2592 192 
Q 2263 -78 1759 -78 
Q 1097 -78 719 397 
Q 266 969 266 2259 
z
M 844 2259 
Q 844 1131 1108 757 
Q 1372 384 1759 384 
Q 2147 384 2411 759 
Q 2675 1134 2675 2259 
Q 2675 3391 2411 3762 
Q 2147 4134 1753 4134 
Q 1366 4134 1134 3806 
Q 844 3388 844 2259 
z
" transform="scale(0.015625)"/>
       </defs>
       <use xlink:href="#ArialMT-30"/>
      </g>
     </g>
    </g>
    <g id="ytick_2">
     <g id="line2d_6">
      <g>
       <use xlink:href="#m2fd384333e" x="31.85375" y="53.95875" style="stroke: #000000; stroke-width: 0.8"/>
      </g>
     </g>
     <g id="text_6">
      <!-- 40 -->
      <g transform="translate(15.95625 56.821875) scale(0.08 -0.08)">
       <defs>
        <path id="ArialMT-34" d="M 2069 0 
L 2069 1097 
L 81 1097 
L 81 1613 
L 2172 4581 
L 2631 4581 
L 2631 1613 
L 3250 1613 
L 3250 1097 
L 2631 1097 
L 2631 0 
L 2069 0 
z
M 2069 1613 
L 2069 3678 
L 634 1613 
L 2069 1613 
z
" transform="scale(0.015625)"/>
       </defs>
       <use xlink:href="#ArialMT-34"/>
       <use xlink:href="#ArialMT-30" x="55.615234"/>
      </g>
     </g>
    </g>
    <g id="ytick_3">
     <g id="line2d_7">
      <g>
       <use xlink:href="#m2fd384333e" x="31.85375" y="36.926875" style="stroke: #000000; stroke-width: 0.8"/>
      </g>
     </g>
     <g id="text_7">
      <!-- 80 -->
      <g transform="translate(15.95625 39.79) scale(0.08 -0.08)">
       <defs>
        <path id="ArialMT-38" d="M 1131 2484 
Q 781 2613 612 2850 
Q 444 3088 444 3419 
Q 444 3919 803 4259 
Q 1163 4600 1759 4600 
Q 2359 4600 2725 4251 
Q 3091 3903 3091 3403 
Q 3091 3084 2923 2848 
Q 2756 2613 2416 2484 
Q 2838 2347 3058 2040 
Q 3278 1734 3278 1309 
Q 3278 722 2862 322 
Q 2447 -78 1769 -78 
Q 1091 -78 675 323 
Q 259 725 259 1325 
Q 259 1772 486 2073 
Q 713 2375 1131 2484 
z
M 1019 3438 
Q 1019 3113 1228 2906 
Q 1438 2700 1772 2700 
Q 2097 2700 2305 2904 
Q 2513 3109 2513 3406 
Q 2513 3716 2298 3927 
Q 2084 4138 1766 4138 
Q 1444 4138 1231 3931 
Q 1019 3725 1019 3438 
z
M 838 1322 
Q 838 1081 952 856 
Q 1066 631 1291 507 
Q 1516 384 1775 384 
Q 2178 384 2440 643 
Q 2703 903 2703 1303 
Q 2703 1709 2433 1975 
Q 2163 2241 1756 2241 
Q 1359 2241 1098 1978 
Q 838 1716 838 1322 
z
" transform="scale(0.015625)"/>
       </defs>
       <use xlink:href="#ArialMT-38"/>
       <use xlink:href="#ArialMT-30" x="55.615234"/>
      </g>
     </g>
    </g>
    <g id="ytick_4">
     <g id="line2d_8">
      <g>
       <use xlink:href="#m2fd384333e" x="31.85375" y="19.895" style="stroke: #000000; stroke-width: 0.8"/>
      </g>
     </g>
     <g id="text_8">
      <!-- 120 -->
      <g transform="translate(11.5075 22.758125) scale(0.08 -0.08)">
       <defs>
        <path id="ArialMT-31" d="M 2384 0 
L 1822 0 
L 1822 3584 
Q 1619 3391 1289 3197 
Q 959 3003 697 2906 
L 697 3450 
Q 1169 3672 1522 3987 
Q 1875 4303 2022 4600 
L 2384 4600 
L 2384 0 
z
" transform="scale(0.015625)"/>
        <path id="ArialMT-32" d="M 3222 541 
L 3222 0 
L 194 0 
Q 188 203 259 391 
Q 375 700 629 1000 
Q 884 1300 1366 1694 
Q 2113 2306 2375 2664 
Q 2638 3022 2638 3341 
Q 2638 3675 2398 3904 
Q 2159 4134 1775 4134 
Q 1369 4134 1125 3890 
Q 881 3647 878 3216 
L 300 3275 
Q 359 3922 746 4261 
Q 1134 4600 1788 4600 
Q 2447 4600 2831 4234 
Q 3216 3869 3216 3328 
Q 3216 3053 3103 2787 
Q 2991 2522 2730 2228 
Q 2469 1934 1863 1422 
Q 1356 997 1212 845 
Q 1069 694 975 541 
L 3222 541 
z
" transform="scale(0.015625)"/>
       </defs>
       <use xlink:href="#ArialMT-31"/>
       <use xlink:href="#ArialMT-32" x="55.615234"/>
       <use xlink:href="#ArialMT-30" x="111.230469"/>
      </g>
     </g>
    </g>
    <g id="ytick_5">
     <g id="line2d_9">
      <g>
       <use xlink:href="#m2fd384333e" x="31.85375" y="2.863125" style="stroke: #000000; stroke-width: 0.8"/>
      </g>
     </g>
     <g id="text_9">
      <!-- 160 -->
      <g transform="translate(11.5075 5.72625) scale(0.08 -0.08)">
       <defs>
        <path id="ArialMT-36" d="M 3184 3459 
L 2625 3416 
Q 2550 3747 2413 3897 
Q 2184 4138 1850 4138 
Q 1581 4138 1378 3988 
Q 1113 3794 959 3422 
Q 806 3050 800 2363 
Q 1003 2672 1297 2822 
Q 1591 2972 1913 2972 
Q 2475 2972 2870 2558 
Q 3266 2144 3266 1488 
Q 3266 1056 3080 686 
Q 2894 316 2569 119 
Q 2244 -78 1831 -78 
Q 1128 -78 684 439 
Q 241 956 241 2144 
Q 241 3472 731 4075 
Q 1159 4600 1884 4600 
Q 2425 4600 2770 4297 
Q 3116 3994 3184 3459 
z
M 888 1484 
Q 888 1194 1011 928 
Q 1134 663 1356 523 
Q 1578 384 1822 384 
Q 2178 384 2434 671 
Q 2691 959 2691 1453 
Q 2691 1928 2437 2201 
Q 2184 2475 1800 2475 
Q 1419 2475 1153 2201 
Q 888 1928 888 1484 
z
" transform="scale(0.015625)"/>
       </defs>
       <use xlink:href="#ArialMT-31"/>
       <use xlink:href="#ArialMT-36" x="55.615234"/>
       <use xlink:href="#ArialMT-30" x="111.230469"/>
      </g>
     </g>
    </g>
    <g id="text_10">
     <!-- Inference time (ms) -->
     <g transform="translate(5.82375 71.3775) rotate(-90) scale(0.08 -0.08)">
      <defs>
       <path id="ArialMT-49" d="M 597 0 
L 597 4581 
L 1203 4581 
L 1203 0 
L 597 0 
z
" transform="scale(0.015625)"/>
       <path id="ArialMT-66" d="M 556 0 
L 556 2881 
L 59 2881 
L 59 3319 
L 556 3319 
L 556 3672 
Q 556 4006 616 4169 
Q 697 4388 901 4523 
Q 1106 4659 1475 4659 
Q 1713 4659 2000 4603 
L 1916 4113 
Q 1741 4144 1584 4144 
Q 1328 4144 1222 4034 
Q 1116 3925 1116 3625 
L 1116 3319 
L 1763 3319 
L 1763 2881 
L 1116 2881 
L 1116 0 
L 556 0 
z
" transform="scale(0.015625)"/>
       <path id="ArialMT-28" d="M 1497 -1347 
Q 1031 -759 709 28 
Q 388 816 388 1659 
Q 388 2403 628 3084 
Q 909 3875 1497 4659 
L 1900 4659 
Q 1522 4009 1400 3731 
Q 1209 3300 1100 2831 
Q 966 2247 966 1656 
Q 966 153 1900 -1347 
L 1497 -1347 
z
" transform="scale(0.015625)"/>
       <path id="ArialMT-29" d="M 791 -1347 
L 388 -1347 
Q 1322 153 1322 1656 
Q 1322 2244 1188 2822 
Q 1081 3291 891 3722 
Q 769 4003 388 4659 
L 791 4659 
Q 1378 3875 1659 3084 
Q 1900 2403 1900 1659 
Q 1900 816 1576 28 
Q 1253 -759 791 -1347 
z
" transform="scale(0.015625)"/>
      </defs>
      <use xlink:href="#ArialMT-49"/>
      <use xlink:href="#ArialMT-6e" x="27.783203"/>
      <use xlink:href="#ArialMT-66" x="83.398438"/>
      <use xlink:href="#ArialMT-65" x="111.181641"/>
      <use xlink:href="#ArialMT-72" x="166.796875"/>
      <use xlink:href="#ArialMT-65" x="200.097656"/>
      <use xlink:href="#ArialMT-6e" x="255.712891"/>
      <use xlink:href="#ArialMT-63" x="311.328125"/>
      <use xlink:href="#ArialMT-65" x="361.328125"/>
      <use xlink:href="#ArialMT-20" x="416.943359"/>
      <use xlink:href="#ArialMT-74" x="444.726562"/>
      <use xlink:href="#ArialMT-69" x="472.509766"/>
      <use xlink:href="#ArialMT-6d" x="494.726562"/>
      <use xlink:href="#ArialMT-65" x="578.027344"/>
      <use xlink:href="#ArialMT-20" x="633.642578"/>
      <use xlink:href="#ArialMT-28" x="661.425781"/>
      <use xlink:href="#ArialMT-6d" x="694.726562"/>
      <use xlink:href="#ArialMT-73" x="778.027344"/>
      <use xlink:href="#ArialMT-29" x="828.027344"/>
     </g>
    </g>
   </g>
   <g id="LineCollection_1">
    <path d="M 35.71095 48.838639 
L 114.783554 48.838639 
" clip-path="url(#p643c5fda9c)" style="fill: none; stroke-dasharray: 3.7,1.6; stroke-dashoffset: 0; stroke: #8a8a8a; stroke-opacity: 0.8"/>
   </g>
   <g id="LineCollection_2">
    <path d="M 132.140955 49.02714 
L 211.213559 49.02714 
" clip-path="url(#p643c5fda9c)" style="fill: none; stroke-dasharray: 3.7,1.6; stroke-dashoffset: 0; stroke: #8a8a8a; stroke-opacity: 0.8"/>
   </g>
   <g id="LineCollection_3">
    <path d="M 228.57096 49.474522 
L 307.643564 49.474522 
" clip-path="url(#p643c5fda9c)" style="fill: none; stroke-dasharray: 3.7,1.6; stroke-dashoffset: 0; stroke: #8a8a8a; stroke-opacity: 0.8"/>
   </g>
   <g id="LineCollection_4">
    <path d="M 325.000965 47.165471 
L 404.073569 47.165471 
" clip-path="url(#p643c5fda9c)" style="fill: none; stroke-dasharray: 3.7,1.6; stroke-dashoffset: 0; stroke: #8a8a8a; stroke-opacity: 0.8"/>
   </g>
   <g id="patch_35">
    <path d="M 31.85375 70.990625 
L 31.85375 2.863125 
" style="fill: none; stroke: #000000; stroke-width: 0.8; stroke-linejoin: miter; stroke-linecap: square"/>
   </g>
   <g id="patch_36">
    <path d="M 31.85375 70.990625 
L 407.930769 70.990625 
" style="fill: none; stroke: #000000; stroke-width: 0.8; stroke-linejoin: miter; stroke-linecap: square"/>
   </g>
  </g>
 </g>
 <defs>
  <clipPath id="p643c5fda9c">
   <rect x="31.85375" y="2.863125" width="376.077019" height="68.1275"/>
  </clipPath>
 </defs>
</svg>
