<?xml version="1.0" encoding="utf-8" standalone="no"?>
<!DOCTYPE svg PUBLIC "-//W3C//DTD SVG 1.1//EN"
  "http://www.w3.org/Graphics/SVG/1.1/DTD/svg11.dtd">
<svg xmlns:xlink="http://www.w3.org/1999/xlink" width="106.216956pt" height="107.307107pt" viewBox="0 0 106.216956 107.307107" xmlns="http://www.w3.org/2000/svg" version="1.1">
 <metadata>
  <rdf:RDF xmlns:dc="http://purl.org/dc/elements/1.1/" xmlns:cc="http://creativecommons.org/ns#" xmlns:rdf="http://www.w3.org/1999/02/22-rdf-syntax-ns#">
   <cc:Work>
    <dc:type rdf:resource="http://purl.org/dc/dcmitype/StillImage"/>
    <dc:date>2026-05-20T14:21:40.684764</dc:date>
    <dc:format>image/svg+xml</dc:format>
    <dc:creator>
     <cc:Agent>
      <dc:title>Matplotlib v3.9.2, https://matplotlib.org/</dc:title>
     </cc:Agent>
    </dc:creator>
   </cc:Work>
  </rdf:RDF>
 </metadata>
 <defs>
  <style type="text/css">*{stroke-linejoin: round; stroke-linecap: butt}</style>
 </defs>
 <g id="figure_1">
  <g id="patch_1">
   <path d="M 0 107.307107 
L 106.216956 107.307107 
L 106.216956 0 
L 0 0 
z
" style="fill: #ffffff"/>
  </g>
  <g id="axes_1">
   <g id="patch_2">
    <path d="M 98.756478 53.653554 
C 98.756478 47.659113 97.575704 41.722961 95.281731 36.18482 
C 92.987758 30.646679 89.625198 25.614253 85.386488 21.375543 
C 81.147779 17.136834 76.115352 13.774274 70.577211 11.480301 
C 65.039071 9.186328 59.102919 8.005554 53.108478 8.005554 
C 47.114038 8.005554 41.177886 9.186328 35.639745 11.480301 
C 30.101604 13.774274 25.069177 17.136834 20.830468 21.375543 
C 16.591758 25.614253 13.229198 30.646679 10.935225 36.18482 
C 8.641252 41.722961 7.460478 47.659113 7.460478 53.653554 
C 7.460478 59.647994 8.641252 65.584146 10.935225 71.122287 
C 13.229198 76.660428 16.591758 81.692854 20.830468 85.931564 
C 25.069177 90.170273 30.101604 93.532833 35.639745 95.826806 
C 41.177886 98.12078 47.114038 99.301554 53.108478 99.301554 
C 59.102919 99.301554 65.039071 98.12078 70.577211 95.826806 
C 76.115352 93.532833 81.147779 90.170273 85.386488 85.931564 
C 89.625198 81.692854 92.987758 76.660428 95.281731 71.122287 
C 97.575704 65.584146 98.756478 59.647994 98.756478 53.653554 
M 53.108478 53.653554 
C 53.108478 53.653554 53.108478 53.653554 53.108478 53.653554 
C 53.108478 53.653554 53.108478 53.653554 53.108478 53.653554 
C 53.108478 53.653554 53.108478 53.653554 53.108478 53.653554 
C 53.108478 53.653554 53.108478 53.653554 53.108478 53.653554 
C 53.108478 53.653554 53.108478 53.653554 53.108478 53.653554 
C 53.108478 53.653554 53.108478 53.653554 53.108478 53.653554 
C 53.108478 53.653554 53.108478 53.653554 53.108478 53.653554 
C 53.108478 53.653554 53.108478 53.653554 53.108478 53.653554 
C 53.108478 53.653554 53.108478 53.653554 53.108478 53.653554 
C 53.108478 53.653554 53.108478 53.653554 53.108478 53.653554 
C 53.108478 53.653554 53.108478 53.653554 53.108478 53.653554 
C 53.108478 53.653554 53.108478 53.653554 53.108478 53.653554 
C 53.108478 53.653554 53.108478 53.653554 53.108478 53.653554 
C 53.108478 53.653554 53.108478 53.653554 53.108478 53.653554 
C 53.108478 53.653554 53.108478 53.653554 53.108478 53.653554 
C 53.108478 53.653554 53.108478 53.653554 53.108478 53.653554 
z
" style="fill: #ffffff"/>
   </g>
   <g id="patch_3">
    <path d="M 53.108478 11.68144 
L 31.256249 23.576541 
L 11.881282 40.258025 
L 12.298335 66.913573 
L 31.124365 83.91209 
L 53.108478 95.414416 
L 77.50788 87.23645 
L 88.677672 65.210685 
L 92.090758 40.987443 
L 78.584266 18.589139 
L 53.108478 11.68144 
z
" clip-path="url(#p6d168fd775)" style="fill: #8a8a8a; opacity: 0.05; stroke: #8a8a8a; stroke-linejoin: miter"/>
   </g>
   <g id="PathCollection_1">
    <defs>
     <path id="m526cffa65f" d="M 0 0.707107 
C 0.187527 0.707107 0.367398 0.632602 0.5 0.5 
C 0.632602 0.367398 0.707107 0.187527 0.707107 0 
C 0.707107 -0.187527 0.632602 -0.367398 0.5 -0.5 
C 0.367398 -0.632602 0.187527 -0.707107 0 -0.707107 
C -0.187527 -0.707107 -0.367398 -0.632602 -0.5 -0.5 
C -0.632602 -0.367398 -0.707107 -0.187527 -0.707107 0 
C -0.707107 0.187527 -0.632602 0.367398 -0.5 0.5 
C -0.367398 0.632602 -0.187527 0.707107 0 0.707107 
z
" style="stroke: #8a8a8a; stroke-opacity: 0.7"/>
    </defs>
    <g clip-path="url(#p6d168fd775)">
     <use xlink:href="#m526cffa65f" x="53.108478" y="11.68144" style="fill: #8a8a8a; fill-opacity: 0.7; stroke: #8a8a8a; stroke-opacity: 0.7"/>
     <use xlink:href="#m526cffa65f" x="31.256249" y="23.576541" style="fill: #8a8a8a; fill-opacity: 0.7; stroke: #8a8a8a; stroke-opacity: 0.7"/>
     <use xlink:href="#m526cffa65f" x="11.881282" y="40.258025" style="fill: #8a8a8a; fill-opacity: 0.7; stroke: #8a8a8a; stroke-opacity: 0.7"/>
     <use xlink:href="#m526cffa65f" x="12.298335" y="66.913573" style="fill: #8a8a8a; fill-opacity: 0.7; stroke: #8a8a8a; stroke-opacity: 0.7"/>
     <use xlink:href="#m526cffa65f" x="31.124365" y="83.91209" style="fill: #8a8a8a; fill-opacity: 0.7; stroke: #8a8a8a; stroke-opacity: 0.7"/>
     <use xlink:href="#m526cffa65f" x="53.108478" y="95.414416" style="fill: #8a8a8a; fill-opacity: 0.7; stroke: #8a8a8a; stroke-opacity: 0.7"/>
     <use xlink:href="#m526cffa65f" x="77.50788" y="87.23645" style="fill: #8a8a8a; fill-opacity: 0.7; stroke: #8a8a8a; stroke-opacity: 0.7"/>
     <use xlink:href="#m526cffa65f" x="88.677672" y="65.210685" style="fill: #8a8a8a; fill-opacity: 0.7; stroke: #8a8a8a; stroke-opacity: 0.7"/>
     <use xlink:href="#m526cffa65f" x="92.090758" y="40.987443" style="fill: #8a8a8a; fill-opacity: 0.7; stroke: #8a8a8a; stroke-opacity: 0.7"/>
     <use xlink:href="#m526cffa65f" x="78.584266" y="18.589139" style="fill: #8a8a8a; fill-opacity: 0.7; stroke: #8a8a8a; stroke-opacity: 0.7"/>
    </g>
   </g>
   <g id="patch_4">
    <path d="M 53.108478 11.036673 
L 27.861528 18.904107 
L 15.592748 41.463954 
L 15.754067 65.790738 
L 28.651022 87.316354 
L 53.108478 96.643887 
L 77.428363 87.127003 
L 92.701316 66.518046 
L 93.949039 40.383651 
L 76.064827 22.05685 
L 53.108478 11.036673 
z
" clip-path="url(#p6d168fd775)" style="fill: #c16e71; opacity: 0.05; stroke: #c16e71; stroke-linejoin: miter"/>
   </g>
   <g id="PathCollection_2">
    <defs>
     <path id="m55113e0f2d" d="M 0 0.707107 
C 0.187527 0.707107 0.367398 0.632602 0.5 0.5 
C 0.632602 0.367398 0.707107 0.187527 0.707107 0 
C 0.707107 -0.187527 0.632602 -0.367398 0.5 -0.5 
C 0.367398 -0.632602 0.187527 -0.707107 0 -0.707107 
C -0.187527 -0.707107 -0.367398 -0.632602 -0.5 -0.5 
C -0.632602 -0.367398 -0.707107 -0.187527 -0.707107 0 
C -0.707107 0.187527 -0.632602 0.367398 -0.5 0.5 
C -0.367398 0.632602 -0.187527 0.707107 0 0.707107 
z
" style="stroke: #c16e71; stroke-opacity: 0.7"/>
    </defs>
    <g clip-path="url(#p6d168fd775)">
     <use xlink:href="#m55113e0f2d" x="53.108478" y="11.036673" style="fill: #c16e71; fill-opacity: 0.7; stroke: #c16e71; stroke-opacity: 0.7"/>
     <use xlink:href="#m55113e0f2d" x="27.861528" y="18.904107" style="fill: #c16e71; fill-opacity: 0.7; stroke: #c16e71; stroke-opacity: 0.7"/>
     <use xlink:href="#m55113e0f2d" x="15.592748" y="41.463954" style="fill: #c16e71; fill-opacity: 0.7; stroke: #c16e71; stroke-opacity: 0.7"/>
     <use xlink:href="#m55113e0f2d" x="15.754067" y="65.790738" style="fill: #c16e71; fill-opacity: 0.7; stroke: #c16e71; stroke-opacity: 0.7"/>
     <use xlink:href="#m55113e0f2d" x="28.651022" y="87.316354" style="fill: #c16e71; fill-opacity: 0.7; stroke: #c16e71; stroke-opacity: 0.7"/>
     <use xlink:href="#m55113e0f2d" x="53.108478" y="96.643887" style="fill: #c16e71; fill-opacity: 0.7; stroke: #c16e71; stroke-opacity: 0.7"/>
     <use xlink:href="#m55113e0f2d" x="77.428363" y="87.127003" style="fill: #c16e71; fill-opacity: 0.7; stroke: #c16e71; stroke-opacity: 0.7"/>
     <use xlink:href="#m55113e0f2d" x="92.701316" y="66.518046" style="fill: #c16e71; fill-opacity: 0.7; stroke: #c16e71; stroke-opacity: 0.7"/>
     <use xlink:href="#m55113e0f2d" x="93.949039" y="40.383651" style="fill: #c16e71; fill-opacity: 0.7; stroke: #c16e71; stroke-opacity: 0.7"/>
     <use xlink:href="#m55113e0f2d" x="76.064827" y="22.05685" style="fill: #c16e71; fill-opacity: 0.7; stroke: #c16e71; stroke-opacity: 0.7"/>
    </g>
   </g>
   <g id="matplotlib.axis_1"/>
   <g id="matplotlib.axis_2"/>
   <g id="line2d_1">
    <path d="M 53.108478 53.653554 
L 53.108478 10.179268 
" clip-path="url(#p6d168fd775)" style="fill: none; stroke: #808080; stroke-opacity: 0.8; stroke-width: 0.7; stroke-linecap: square"/>
   </g>
   <g id="line2d_2">
    <path d="M 53.108478 53.653554 
L 27.554934 18.482118 
" clip-path="url(#p6d168fd775)" style="fill: none; stroke: #808080; stroke-opacity: 0.8; stroke-width: 0.7; stroke-linecap: square"/>
   </g>
   <g id="line2d_3">
    <path d="M 53.108478 53.653554 
L 11.761975 40.21926 
" clip-path="url(#p6d168fd775)" style="fill: none; stroke: #808080; stroke-opacity: 0.8; stroke-width: 0.7; stroke-linecap: square"/>
   </g>
   <g id="line2d_4">
    <path d="M 53.108478 53.653554 
L 11.761975 67.087847 
" clip-path="url(#p6d168fd775)" style="fill: none; stroke: #808080; stroke-opacity: 0.8; stroke-width: 0.7; stroke-linecap: square"/>
   </g>
   <g id="line2d_5">
    <path d="M 53.108478 53.653554 
L 27.554934 88.82499 
" clip-path="url(#p6d168fd775)" style="fill: none; stroke: #808080; stroke-opacity: 0.8; stroke-width: 0.7; stroke-linecap: square"/>
   </g>
   <g id="line2d_6">
    <path d="M 53.108478 53.653554 
L 53.108478 97.127839 
" clip-path="url(#p6d168fd775)" style="fill: none; stroke: #808080; stroke-opacity: 0.8; stroke-width: 0.7; stroke-linecap: square"/>
   </g>
   <g id="line2d_7">
    <path d="M 53.108478 53.653554 
L 78.662022 88.82499 
" clip-path="url(#p6d168fd775)" style="fill: none; stroke: #808080; stroke-opacity: 0.8; stroke-width: 0.7; stroke-linecap: square"/>
   </g>
   <g id="line2d_8">
    <path d="M 53.108478 53.653554 
L 94.454981 67.087847 
" clip-path="url(#p6d168fd775)" style="fill: none; stroke: #808080; stroke-opacity: 0.8; stroke-width: 0.7; stroke-linecap: square"/>
   </g>
   <g id="line2d_9">
    <path d="M 53.108478 53.653554 
L 94.454981 40.21926 
" clip-path="url(#p6d168fd775)" style="fill: none; stroke: #808080; stroke-opacity: 0.8; stroke-width: 0.7; stroke-linecap: square"/>
   </g>
   <g id="line2d_10">
    <path d="M 53.108478 53.653554 
L 78.662022 18.482118 
" clip-path="url(#p6d168fd775)" style="fill: none; stroke: #808080; stroke-opacity: 0.8; stroke-width: 0.7; stroke-linecap: square"/>
   </g>
   <g id="line2d_11">
    <path d="M 53.108478 11.68144 
L 31.256249 23.576541 
L 11.881282 40.258025 
L 12.298335 66.913573 
L 31.124365 83.91209 
L 53.108478 95.414416 
L 77.50788 87.23645 
L 88.677672 65.210685 
L 92.090758 40.987443 
L 78.584266 18.589139 
L 53.108478 11.68144 
" clip-path="url(#p6d168fd775)" style="fill: none; stroke: #8a8a8a; stroke-opacity: 0.9; stroke-width: 1.5; stroke-linecap: square"/>
   </g>
   <g id="line2d_12">
    <path d="M 53.108478 11.036673 
L 27.861528 18.904107 
L 15.592748 41.463954 
L 15.754067 65.790738 
L 28.651022 87.316354 
L 53.108478 96.643887 
L 77.428363 87.127003 
L 92.701316 66.518046 
L 93.949039 40.383651 
L 76.064827 22.05685 
L 53.108478 11.036673 
" clip-path="url(#p6d168fd775)" style="fill: none; stroke: #c16e71; stroke-opacity: 0.9; stroke-width: 1.5; stroke-linecap: square"/>
   </g>
   <g id="text_1">
    <!-- 0.9 -->
    <g transform="translate(47.548478 5.72625) scale(0.08 -0.08)">
     <defs>
      <path id="ArialMT-30" d="M 266 2259 
Q 266 3072 433 3567 
Q 600 4063 929 4331 
Q 1259 4600 1759 4600 
Q 2128 4600 2406 4451 
Q 2684 4303 2865 4023 
Q 3047 3744 3150 3342 
Q 3253 2941 3253 2259 
Q 3253 1453 3087 958 
Q 2922 463 2592 192 
Q 2263 -78 1759 -78 
Q 1097 -78 719 397 
Q 266 969 266 2259 
z
M 844 2259 
Q 844 1131 1108 757 
Q 1372 384 1759 384 
Q 2147 384 2411 759 
Q 2675 1134 2675 2259 
Q 2675 3391 2411 3762 
Q 2147 4134 1753 4134 
Q 1366 4134 1134 3806 
Q 844 3388 844 2259 
z
" transform="scale(0.015625)"/>
      <path id="ArialMT-2e" d="M 581 0 
L 581 641 
L 1222 641 
L 1222 0 
L 581 0 
z
" transform="scale(0.015625)"/>
      <path id="ArialMT-39" d="M 350 1059 
L 891 1109 
Q 959 728 1153 556 
Q 1347 384 1650 384 
Q 1909 384 2104 503 
Q 2300 622 2425 820 
Q 2550 1019 2634 1356 
Q 2719 1694 2719 2044 
Q 2719 2081 2716 2156 
Q 2547 1888 2255 1720 
Q 1963 1553 1622 1553 
Q 1053 1553 659 1965 
Q 266 2378 266 3053 
Q 266 3750 677 4175 
Q 1088 4600 1706 4600 
Q 2153 4600 2523 4359 
Q 2894 4119 3086 3673 
Q 3278 3228 3278 2384 
Q 3278 1506 3087 986 
Q 2897 466 2520 194 
Q 2144 -78 1638 -78 
Q 1100 -78 759 220 
Q 419 519 350 1059 
z
M 2653 3081 
Q 2653 3566 2395 3850 
Q 2138 4134 1775 4134 
Q 1400 4134 1122 3828 
Q 844 3522 844 3034 
Q 844 2597 1108 2323 
Q 1372 2050 1759 2050 
Q 2150 2050 2401 2323 
Q 2653 2597 2653 3081 
z
" transform="scale(0.015625)"/>
     </defs>
     <use xlink:href="#ArialMT-30"/>
     <use xlink:href="#ArialMT-2e" x="55.615234"/>
     <use xlink:href="#ArialMT-39" x="83.398438"/>
    </g>
   </g>
   <g id="text_2">
    <!-- 0.9 -->
    <g transform="translate(18.161903 15.274527) scale(0.08 -0.08)">
     <use xlink:href="#ArialMT-30"/>
     <use xlink:href="#ArialMT-2e" x="55.615234"/>
     <use xlink:href="#ArialMT-39" x="83.398438"/>
    </g>
   </g>
   <g id="text_3">
    <!-- 1.0 -->
    <g transform="translate(0 40.272242) scale(0.08 -0.08)">
     <defs>
      <path id="ArialMT-31" d="M 2384 0 
L 1822 0 
L 1822 3584 
Q 1619 3391 1289 3197 
Q 959 3003 697 2906 
L 697 3450 
Q 1169 3672 1522 3987 
Q 1875 4303 2022 4600 
L 2384 4600 
L 2384 0 
z
" transform="scale(0.015625)"/>
     </defs>
     <use xlink:href="#ArialMT-31"/>
     <use xlink:href="#ArialMT-2e" x="55.615234"/>
     <use xlink:href="#ArialMT-30" x="83.398438"/>
    </g>
   </g>
   <g id="text_4">
    <!-- 1.0 -->
    <g transform="translate(0 71.171116) scale(0.08 -0.08)">
     <use xlink:href="#ArialMT-31"/>
     <use xlink:href="#ArialMT-2e" x="55.615234"/>
     <use xlink:href="#ArialMT-30" x="83.398438"/>
    </g>
   </g>
   <g id="text_5">
    <!-- 0.9 -->
    <g transform="translate(18.161903 96.16883) scale(0.08 -0.08)">
     <use xlink:href="#ArialMT-30"/>
     <use xlink:href="#ArialMT-2e" x="55.615234"/>
     <use xlink:href="#ArialMT-39" x="83.398438"/>
    </g>
   </g>
   <g id="text_6">
    <!-- 0.9 -->
    <g transform="translate(47.548478 105.717107) scale(0.08 -0.08)">
     <use xlink:href="#ArialMT-30"/>
     <use xlink:href="#ArialMT-2e" x="55.615234"/>
     <use xlink:href="#ArialMT-39" x="83.398438"/>
    </g>
   </g>
   <g id="text_7">
    <!-- 1.0 -->
    <g transform="translate(76.935054 96.16883) scale(0.08 -0.08)">
     <use xlink:href="#ArialMT-31"/>
     <use xlink:href="#ArialMT-2e" x="55.615234"/>
     <use xlink:href="#ArialMT-30" x="83.398438"/>
    </g>
   </g>
   <g id="text_8">
    <!-- 0.9 -->
    <g transform="translate(95.096956 71.171116) scale(0.08 -0.08)">
     <use xlink:href="#ArialMT-30"/>
     <use xlink:href="#ArialMT-2e" x="55.615234"/>
     <use xlink:href="#ArialMT-39" x="83.398438"/>
    </g>
   </g>
   <g id="text_9">
    <!-- 0.9 -->
    <g transform="translate(95.096956 40.272242) scale(0.08 -0.08)">
     <use xlink:href="#ArialMT-30"/>
     <use xlink:href="#ArialMT-2e" x="55.615234"/>
     <use xlink:href="#ArialMT-39" x="83.398438"/>
    </g>
   </g>
   <g id="text_10">
    <!-- 0.9 -->
    <g transform="translate(76.935054 15.274527) scale(0.08 -0.08)">
     <use xlink:href="#ArialMT-30"/>
     <use xlink:href="#ArialMT-2e" x="55.615234"/>
     <use xlink:href="#ArialMT-39" x="83.398438"/>
    </g>
   </g>
  </g>
 </g>
 <defs>
  <clipPath id="p6d168fd775">
   <path d="M 98.756478 53.653554 
C 98.756478 47.659113 97.575704 41.722961 95.281731 36.18482 
C 92.987758 30.646679 89.625198 25.614253 85.386488 21.375543 
C 81.147779 17.136834 76.115352 13.774274 70.577211 11.480301 
C 65.039071 9.186328 59.102919 8.005554 53.108478 8.005554 
C 47.114038 8.005554 41.177886 9.186328 35.639745 11.480301 
C 30.101604 13.774274 25.069177 17.136834 20.830468 21.375543 
C 16.591758 25.614253 13.229198 30.646679 10.935225 36.18482 
C 8.641252 41.722961 7.460478 47.659113 7.460478 53.653554 
C 7.460478 59.647994 8.641252 65.584146 10.935225 71.122287 
C 13.229198 76.660428 16.591758 81.692854 20.830468 85.931564 
C 25.069177 90.170273 30.101604 93.532833 35.639745 95.826806 
C 41.177886 98.12078 47.114038 99.301554 53.108478 99.301554 
C 59.102919 99.301554 65.039071 98.12078 70.577211 95.826806 
C 76.115352 93.532833 81.147779 90.170273 85.386488 85.931564 
C 89.625198 81.692854 92.987758 76.660428 95.281731 71.122287 
C 97.575704 65.584146 98.756478 59.647994 98.756478 53.653554 
M 53.108478 53.653554 
C 53.108478 53.653554 53.108478 53.653554 53.108478 53.653554 
C 53.108478 53.653554 53.108478 53.653554 53.108478 53.653554 
C 53.108478 53.653554 53.108478 53.653554 53.108478 53.653554 
C 53.108478 53.653554 53.108478 53.653554 53.108478 53.653554 
C 53.108478 53.653554 53.108478 53.653554 53.108478 53.653554 
C 53.108478 53.653554 53.108478 53.653554 53.108478 53.653554 
C 53.108478 53.653554 53.108478 53.653554 53.108478 53.653554 
C 53.108478 53.653554 53.108478 53.653554 53.108478 53.653554 
C 53.108478 53.653554 53.108478 53.653554 53.108478 53.653554 
C 53.108478 53.653554 53.108478 53.653554 53.108478 53.653554 
C 53.108478 53.653554 53.108478 53.653554 53.108478 53.653554 
C 53.108478 53.653554 53.108478 53.653554 53.108478 53.653554 
C 53.108478 53.653554 53.108478 53.653554 53.108478 53.653554 
C 53.108478 53.653554 53.108478 53.653554 53.108478 53.653554 
C 53.108478 53.653554 53.108478 53.653554 53.108478 53.653554 
C 53.108478 53.653554 53.108478 53.653554 53.108478 53.653554 
z
"/>
  </clipPath>
 </defs>
</svg>
