<?xml version="1.0" encoding="utf-8" standalone="no"?>
<!DOCTYPE svg PUBLIC "-//W3C//DTD SVG 1.1//EN"
  "http://www.w3.org/Graphics/SVG/1.1/DTD/svg11.dtd">
<svg xmlns:xlink="http://www.w3.org/1999/xlink" width="107.384857pt" height="103.581107pt" viewBox="0 0 107.384857 103.581107" xmlns="http://www.w3.org/2000/svg" version="1.1">
 <metadata>
  <rdf:RDF xmlns:dc="http://purl.org/dc/elements/1.1/" xmlns:cc="http://creativecommons.org/ns#" xmlns:rdf="http://www.w3.org/1999/02/22-rdf-syntax-ns#">
   <cc:Work>
    <dc:type rdf:resource="http://purl.org/dc/dcmitype/StillImage"/>
    <dc:date>2026-05-20T14:21:41.904078</dc:date>
    <dc:format>image/svg+xml</dc:format>
    <dc:creator>
     <cc:Agent>
      <dc:title>Matplotlib v3.9.2, https://matplotlib.org/</dc:title>
     </cc:Agent>
    </dc:creator>
   </cc:Work>
  </rdf:RDF>
 </metadata>
 <defs>
  <style type="text/css">*{stroke-linejoin: round; stroke-linecap: butt}</style>
 </defs>
 <g id="figure_1">
  <g id="patch_1">
   <path d="M 0 103.581107 
L 107.384857 103.581107 
L 107.384857 0 
L 0 0 
z
" style="fill: #ffffff"/>
  </g>
  <g id="axes_1">
   <g id="patch_2">
    <path d="M 97.639429 51.790554 
C 97.639429 46.019486 96.502654 40.304536 94.294162 34.972765 
C 92.085671 29.640994 88.848411 24.796093 84.76765 20.715332 
C 80.68689 16.634571 75.841988 13.397312 70.510217 11.18882 
C 65.178447 8.980328 59.463496 7.843554 53.692429 7.843554 
C 47.921361 7.843554 42.206411 8.980328 36.87464 11.18882 
C 31.542869 13.397312 26.697968 16.634571 22.617207 20.715332 
C 18.536446 24.796093 15.299187 29.640994 13.090695 34.972765 
C 10.882203 40.304536 9.745429 46.019486 9.745429 51.790554 
C 9.745429 57.561621 10.882203 63.276572 13.090695 68.608342 
C 15.299187 73.940113 18.536446 78.785015 22.617207 82.865775 
C 26.697968 86.946536 31.542869 90.183796 36.87464 92.392287 
C 42.206411 94.600779 47.921361 95.737554 53.692429 95.737554 
C 59.463496 95.737554 65.178447 94.600779 70.510217 92.392287 
C 75.841988 90.183796 80.68689 86.946536 84.76765 82.865775 
C 88.848411 78.785015 92.085671 73.940113 94.294162 68.608342 
C 96.502654 63.276572 97.639429 57.561621 97.639429 51.790554 
M 53.692429 51.790554 
C 53.692429 51.790554 53.692429 51.790554 53.692429 51.790554 
C 53.692429 51.790554 53.692429 51.790554 53.692429 51.790554 
C 53.692429 51.790554 53.692429 51.790554 53.692429 51.790554 
C 53.692429 51.790554 53.692429 51.790554 53.692429 51.790554 
C 53.692429 51.790554 53.692429 51.790554 53.692429 51.790554 
C 53.692429 51.790554 53.692429 51.790554 53.692429 51.790554 
C 53.692429 51.790554 53.692429 51.790554 53.692429 51.790554 
C 53.692429 51.790554 53.692429 51.790554 53.692429 51.790554 
C 53.692429 51.790554 53.692429 51.790554 53.692429 51.790554 
C 53.692429 51.790554 53.692429 51.790554 53.692429 51.790554 
C 53.692429 51.790554 53.692429 51.790554 53.692429 51.790554 
C 53.692429 51.790554 53.692429 51.790554 53.692429 51.790554 
C 53.692429 51.790554 53.692429 51.790554 53.692429 51.790554 
C 53.692429 51.790554 53.692429 51.790554 53.692429 51.790554 
C 53.692429 51.790554 53.692429 51.790554 53.692429 51.790554 
C 53.692429 51.790554 53.692429 51.790554 53.692429 51.790554 
z
" style="fill: #ffffff"/>
   </g>
   <g id="patch_3">
    <path d="M 53.692429 14.577969 
L 14.164328 51.790554 
L 53.692429 86.468282 
L 86.605058 51.790554 
L 53.692429 14.577969 
z
" clip-path="url(#p80b614013b)" style="fill: #8a8a8a; opacity: 0.05; stroke: #8a8a8a; stroke-linejoin: miter"/>
   </g>
   <g id="PathCollection_1">
    <defs>
     <path id="m54e0a52336" d="M 0 0.707107 
C 0.187527 0.707107 0.367398 0.632602 0.5 0.5 
C 0.632602 0.367398 0.707107 0.187527 0.707107 0 
C 0.707107 -0.187527 0.632602 -0.367398 0.5 -0.5 
C 0.367398 -0.632602 0.187527 -0.707107 0 -0.707107 
C -0.187527 -0.707107 -0.367398 -0.632602 -0.5 -0.5 
C -0.632602 -0.367398 -0.707107 -0.187527 -0.707107 0 
C -0.707107 0.187527 -0.632602 0.367398 -0.5 0.5 
C -0.367398 0.632602 -0.187527 0.707107 0 0.707107 
z
" style="stroke: #8a8a8a; stroke-opacity: 0.7"/>
    </defs>
    <g clip-path="url(#p80b614013b)">
     <use xlink:href="#m54e0a52336" x="53.692429" y="14.577969" style="fill: #8a8a8a; fill-opacity: 0.7; stroke: #8a8a8a; stroke-opacity: 0.7"/>
     <use xlink:href="#m54e0a52336" x="14.164328" y="51.790554" style="fill: #8a8a8a; fill-opacity: 0.7; stroke: #8a8a8a; stroke-opacity: 0.7"/>
     <use xlink:href="#m54e0a52336" x="53.692429" y="86.468282" style="fill: #8a8a8a; fill-opacity: 0.7; stroke: #8a8a8a; stroke-opacity: 0.7"/>
     <use xlink:href="#m54e0a52336" x="86.605058" y="51.790554" style="fill: #8a8a8a; fill-opacity: 0.7; stroke: #8a8a8a; stroke-opacity: 0.7"/>
    </g>
   </g>
   <g id="patch_4">
    <path d="M 53.692429 12.064849 
L 19.144994 51.790554 
L 53.692429 92.974578 
L 93.784228 51.790554 
L 53.692429 12.064849 
z
" clip-path="url(#p80b614013b)" style="fill: #c16e71; opacity: 0.05; stroke: #c16e71; stroke-linejoin: miter"/>
   </g>
   <g id="PathCollection_2">
    <defs>
     <path id="ma40c2aaad3" d="M 0 0.707107 
C 0.187527 0.707107 0.367398 0.632602 0.5 0.5 
C 0.632602 0.367398 0.707107 0.187527 0.707107 0 
C 0.707107 -0.187527 0.632602 -0.367398 0.5 -0.5 
C 0.367398 -0.632602 0.187527 -0.707107 0 -0.707107 
C -0.187527 -0.707107 -0.367398 -0.632602 -0.5 -0.5 
C -0.632602 -0.367398 -0.707107 -0.187527 -0.707107 0 
C -0.707107 0.187527 -0.632602 0.367398 -0.5 0.5 
C -0.367398 0.632602 -0.187527 0.707107 0 0.707107 
z
" style="stroke: #c16e71; stroke-opacity: 0.7"/>
    </defs>
    <g clip-path="url(#p80b614013b)">
     <use xlink:href="#ma40c2aaad3" x="53.692429" y="12.064849" style="fill: #c16e71; fill-opacity: 0.7; stroke: #c16e71; stroke-opacity: 0.7"/>
     <use xlink:href="#ma40c2aaad3" x="19.144994" y="51.790554" style="fill: #c16e71; fill-opacity: 0.7; stroke: #c16e71; stroke-opacity: 0.7"/>
     <use xlink:href="#ma40c2aaad3" x="53.692429" y="92.974578" style="fill: #c16e71; fill-opacity: 0.7; stroke: #c16e71; stroke-opacity: 0.7"/>
     <use xlink:href="#ma40c2aaad3" x="93.784228" y="51.790554" style="fill: #c16e71; fill-opacity: 0.7; stroke: #c16e71; stroke-opacity: 0.7"/>
    </g>
   </g>
   <g id="matplotlib.axis_1"/>
   <g id="matplotlib.axis_2"/>
   <g id="line2d_1">
    <path d="M 53.692429 51.790554 
L 53.692429 9.936268 
" clip-path="url(#p80b614013b)" style="fill: none; stroke: #808080; stroke-opacity: 0.8; stroke-width: 0.7; stroke-linecap: square"/>
   </g>
   <g id="line2d_2">
    <path d="M 53.692429 51.790554 
L 11.838143 51.790554 
" clip-path="url(#p80b614013b)" style="fill: none; stroke: #808080; stroke-opacity: 0.8; stroke-width: 0.7; stroke-linecap: square"/>
   </g>
   <g id="line2d_3">
    <path d="M 53.692429 51.790554 
L 53.692429 93.644839 
" clip-path="url(#p80b614013b)" style="fill: none; stroke: #808080; stroke-opacity: 0.8; stroke-width: 0.7; stroke-linecap: square"/>
   </g>
   <g id="line2d_4">
    <path d="M 53.692429 51.790554 
L 95.546714 51.790554 
" clip-path="url(#p80b614013b)" style="fill: none; stroke: #808080; stroke-opacity: 0.8; stroke-width: 0.7; stroke-linecap: square"/>
   </g>
   <g id="line2d_5">
    <path d="M 53.692429 14.577969 
L 14.164328 51.790554 
L 53.692429 86.468282 
L 86.605058 51.790554 
L 53.692429 14.577969 
" clip-path="url(#p80b614013b)" style="fill: none; stroke: #8a8a8a; stroke-opacity: 0.9; stroke-width: 1.5; stroke-linecap: square"/>
   </g>
   <g id="line2d_6">
    <path d="M 53.692429 12.064849 
L 19.144994 51.790554 
L 53.692429 92.974578 
L 93.784228 51.790554 
L 53.692429 12.064849 
" clip-path="url(#p80b614013b)" style="fill: none; stroke: #c16e71; stroke-opacity: 0.9; stroke-width: 1.5; stroke-linecap: square"/>
   </g>
   <g id="text_1">
    <!-- 0.9 -->
    <g transform="translate(48.132429 5.72625) scale(0.08 -0.08)">
     <defs>
      <path id="ArialMT-30" d="M 266 2259 
Q 266 3072 433 3567 
Q 600 4063 929 4331 
Q 1259 4600 1759 4600 
Q 2128 4600 2406 4451 
Q 2684 4303 2865 4023 
Q 3047 3744 3150 3342 
Q 3253 2941 3253 2259 
Q 3253 1453 3087 958 
Q 2922 463 2592 192 
Q 2263 -78 1759 -78 
Q 1097 -78 719 397 
Q 266 969 266 2259 
z
M 844 2259 
Q 844 1131 1108 757 
Q 1372 384 1759 384 
Q 2147 384 2411 759 
Q 2675 1134 2675 2259 
Q 2675 3391 2411 3762 
Q 2147 4134 1753 4134 
Q 1366 4134 1134 3806 
Q 844 3388 844 2259 
z
" transform="scale(0.015625)"/>
      <path id="ArialMT-2e" d="M 581 0 
L 581 641 
L 1222 641 
L 1222 0 
L 581 0 
z
" transform="scale(0.015625)"/>
      <path id="ArialMT-39" d="M 350 1059 
L 891 1109 
Q 959 728 1153 556 
Q 1347 384 1650 384 
Q 1909 384 2104 503 
Q 2300 622 2425 820 
Q 2550 1019 2634 1356 
Q 2719 1694 2719 2044 
Q 2719 2081 2716 2156 
Q 2547 1888 2255 1720 
Q 1963 1553 1622 1553 
Q 1053 1553 659 1965 
Q 266 2378 266 3053 
Q 266 3750 677 4175 
Q 1088 4600 1706 4600 
Q 2153 4600 2523 4359 
Q 2894 4119 3086 3673 
Q 3278 3228 3278 2384 
Q 3278 1506 3087 986 
Q 2897 466 2520 194 
Q 2144 -78 1638 -78 
Q 1100 -78 759 220 
Q 419 519 350 1059 
z
M 2653 3081 
Q 2653 3566 2395 3850 
Q 2138 4134 1775 4134 
Q 1400 4134 1122 3828 
Q 844 3522 844 3034 
Q 844 2597 1108 2323 
Q 1372 2050 1759 2050 
Q 2150 2050 2401 2323 
Q 2653 2597 2653 3081 
z
" transform="scale(0.015625)"/>
     </defs>
     <use xlink:href="#ArialMT-30"/>
     <use xlink:href="#ArialMT-2e" x="55.615234"/>
     <use xlink:href="#ArialMT-39" x="83.398438"/>
    </g>
   </g>
   <g id="text_2">
    <!-- 0.8 -->
    <g transform="translate(-0 53.858679) scale(0.08 -0.08)">
     <defs>
      <path id="ArialMT-38" d="M 1131 2484 
Q 781 2613 612 2850 
Q 444 3088 444 3419 
Q 444 3919 803 4259 
Q 1163 4600 1759 4600 
Q 2359 4600 2725 4251 
Q 3091 3903 3091 3403 
Q 3091 3084 2923 2848 
Q 2756 2613 2416 2484 
Q 2838 2347 3058 2040 
Q 3278 1734 3278 1309 
Q 3278 722 2862 322 
Q 2447 -78 1769 -78 
Q 1091 -78 675 323 
Q 259 725 259 1325 
Q 259 1772 486 2073 
Q 713 2375 1131 2484 
z
M 1019 3438 
Q 1019 3113 1228 2906 
Q 1438 2700 1772 2700 
Q 2097 2700 2305 2904 
Q 2513 3109 2513 3406 
Q 2513 3716 2298 3927 
Q 2084 4138 1766 4138 
Q 1444 4138 1231 3931 
Q 1019 3725 1019 3438 
z
M 838 1322 
Q 838 1081 952 856 
Q 1066 631 1291 507 
Q 1516 384 1775 384 
Q 2178 384 2440 643 
Q 2703 903 2703 1303 
Q 2703 1709 2433 1975 
Q 2163 2241 1756 2241 
Q 1359 2241 1098 1978 
Q 838 1716 838 1322 
z
" transform="scale(0.015625)"/>
     </defs>
     <use xlink:href="#ArialMT-30"/>
     <use xlink:href="#ArialMT-2e" x="55.615234"/>
     <use xlink:href="#ArialMT-38" x="83.398438"/>
    </g>
   </g>
   <g id="text_3">
    <!-- 0.8 -->
    <g transform="translate(48.132429 101.991107) scale(0.08 -0.08)">
     <use xlink:href="#ArialMT-30"/>
     <use xlink:href="#ArialMT-2e" x="55.615234"/>
     <use xlink:href="#ArialMT-38" x="83.398438"/>
    </g>
   </g>
   <g id="text_4">
    <!-- 0.8 -->
    <g transform="translate(96.264857 53.858679) scale(0.08 -0.08)">
     <use xlink:href="#ArialMT-30"/>
     <use xlink:href="#ArialMT-2e" x="55.615234"/>
     <use xlink:href="#ArialMT-38" x="83.398438"/>
    </g>
   </g>
  </g>
 </g>
 <defs>
  <clipPath id="p80b614013b">
   <path d="M 97.639429 51.790554 
C 97.639429 46.019486 96.502654 40.304536 94.294162 34.972765 
C 92.085671 29.640994 88.848411 24.796093 84.76765 20.715332 
C 80.68689 16.634571 75.841988 13.397312 70.510217 11.18882 
C 65.178447 8.980328 59.463496 7.843554 53.692429 7.843554 
C 47.921361 7.843554 42.206411 8.980328 36.87464 11.18882 
C 31.542869 13.397312 26.697968 16.634571 22.617207 20.715332 
C 18.536446 24.796093 15.299187 29.640994 13.090695 34.972765 
C 10.882203 40.304536 9.745429 46.019486 9.745429 51.790554 
C 9.745429 57.561621 10.882203 63.276572 13.090695 68.608342 
C 15.299187 73.940113 18.536446 78.785015 22.617207 82.865775 
C 26.697968 86.946536 31.542869 90.183796 36.87464 92.392287 
C 42.206411 94.600779 47.921361 95.737554 53.692429 95.737554 
C 59.463496 95.737554 65.178447 94.600779 70.510217 92.392287 
C 75.841988 90.183796 80.68689 86.946536 84.76765 82.865775 
C 88.848411 78.785015 92.085671 73.940113 94.294162 68.608342 
C 96.502654 63.276572 97.639429 57.561621 97.639429 51.790554 
M 53.692429 51.790554 
C 53.692429 51.790554 53.692429 51.790554 53.692429 51.790554 
C 53.692429 51.790554 53.692429 51.790554 53.692429 51.790554 
C 53.692429 51.790554 53.692429 51.790554 53.692429 51.790554 
C 53.692429 51.790554 53.692429 51.790554 53.692429 51.790554 
C 53.692429 51.790554 53.692429 51.790554 53.692429 51.790554 
C 53.692429 51.790554 53.692429 51.790554 53.692429 51.790554 
C 53.692429 51.790554 53.692429 51.790554 53.692429 51.790554 
C 53.692429 51.790554 53.692429 51.790554 53.692429 51.790554 
C 53.692429 51.790554 53.692429 51.790554 53.692429 51.790554 
C 53.692429 51.790554 53.692429 51.790554 53.692429 51.790554 
C 53.692429 51.790554 53.692429 51.790554 53.692429 51.790554 
C 53.692429 51.790554 53.692429 51.790554 53.692429 51.790554 
C 53.692429 51.790554 53.692429 51.790554 53.692429 51.790554 
C 53.692429 51.790554 53.692429 51.790554 53.692429 51.790554 
C 53.692429 51.790554 53.692429 51.790554 53.692429 51.790554 
C 53.692429 51.790554 53.692429 51.790554 53.692429 51.790554 
z
"/>
  </clipPath>
 </defs>
</svg>
