<?xml version="1.0" encoding="utf-8" standalone="no"?>
<!DOCTYPE svg PUBLIC "-//W3C//DTD SVG 1.1//EN"
  "http://www.w3.org/Graphics/SVG/1.1/DTD/svg11.dtd">
<svg xmlns:xlink="http://www.w3.org/1999/xlink" width="410.4445pt" height="86.499375pt" viewBox="0 0 410.4445 86.499375" xmlns="http://www.w3.org/2000/svg" version="1.1">
 <metadata>
  <rdf:RDF xmlns:dc="http://purl.org/dc/elements/1.1/" xmlns:cc="http://creativecommons.org/ns#" xmlns:rdf="http://www.w3.org/1999/02/22-rdf-syntax-ns#">
   <cc:Work>
    <dc:type rdf:resource="http://purl.org/dc/dcmitype/StillImage"/>
    <dc:date>2026-05-20T14:21:43.162392</dc:date>
    <dc:format>image/svg+xml</dc:format>
    <dc:creator>
     <cc:Agent>
      <dc:title>Matplotlib v3.9.2, https://matplotlib.org/</dc:title>
     </cc:Agent>
    </dc:creator>
   </cc:Work>
  </rdf:RDF>
 </metadata>
 <defs>
  <style type="text/css">*{stroke-linejoin: round; stroke-linecap: butt}</style>
 </defs>
 <g id="figure_1">
  <g id="patch_1">
   <path d="M 0 86.499375 
L 410.4445 86.499375 
L 410.4445 0 
L 0 0 
z
" style="fill: #ffffff"/>
  </g>
  <g id="axes_1">
   <g id="patch_2">
    <path d="M 42.3465 72.183125 
L 410.4445 72.183125 
L 410.4445 2.863125 
L 42.3465 2.863125 
z
" style="fill: #ffffff"/>
   </g>
   <g id="patch_3">
    <path d="M 47.588402 72.183125 
L 53.878684 72.183125 
L 53.878684 52.516211 
L 47.588402 52.516211 
z
" clip-path="url(#pa967754494)" style="fill: #cc9981; opacity: 0.9"/>
   </g>
   <g id="patch_4">
    <path d="M 55.975445 72.183125 
L 62.265727 72.183125 
L 62.265727 53.413476 
L 55.975445 53.413476 
z
" clip-path="url(#pa967754494)" style="fill: #debfaa; opacity: 0.9"/>
   </g>
   <g id="patch_5">
    <path d="M 64.362488 72.183125 
L 70.65277 72.183125 
L 70.65277 45.047188 
L 64.362488 45.047188 
z
" clip-path="url(#pa967754494)" style="fill: #b7b8a3; opacity: 0.9"/>
   </g>
   <g id="patch_6">
    <path d="M 72.749531 72.183125 
L 79.039813 72.183125 
L 79.039813 53.312658 
L 72.749531 53.312658 
z
" clip-path="url(#pa967754494)" style="fill: #a5a58c; opacity: 0.9"/>
   </g>
   <g id="patch_7">
    <path d="M 94.183085 72.183125 
L 100.473368 72.183125 
L 100.473368 18.881007 
L 94.183085 18.881007 
z
" clip-path="url(#pa967754494)" style="fill: #cc9981; opacity: 0.9"/>
   </g>
   <g id="patch_8">
    <path d="M 102.570128 72.183125 
L 108.860411 72.183125 
L 108.860411 12.514356 
L 102.570128 12.514356 
z
" clip-path="url(#pa967754494)" style="fill: #debfaa; opacity: 0.9"/>
   </g>
   <g id="patch_9">
    <path d="M 110.957172 72.183125 
L 117.247454 72.183125 
L 117.247454 48.06797 
L 110.957172 48.06797 
z
" clip-path="url(#pa967754494)" style="fill: #b7b8a3; opacity: 0.9"/>
   </g>
   <g id="patch_10">
    <path d="M 119.344215 72.183125 
L 125.634497 72.183125 
L 125.634497 57.31295 
L 119.344215 57.31295 
z
" clip-path="url(#pa967754494)" style="fill: #a5a58c; opacity: 0.9"/>
   </g>
   <g id="patch_11">
    <path d="M 140.777769 72.183125 
L 147.068051 72.183125 
L 147.068051 23.671432 
L 140.777769 23.671432 
z
" clip-path="url(#pa967754494)" style="fill: #cc9981; opacity: 0.9"/>
   </g>
   <g id="patch_12">
    <path d="M 149.164812 72.183125 
L 155.455094 72.183125 
L 155.455094 44.666379 
L 149.164812 44.666379 
z
" clip-path="url(#pa967754494)" style="fill: #debfaa; opacity: 0.9"/>
   </g>
   <g id="patch_13">
    <path d="M 157.551855 72.183125 
L 163.842137 72.183125 
L 163.842137 48.819414 
L 157.551855 48.819414 
z
" clip-path="url(#pa967754494)" style="fill: #b7b8a3; opacity: 0.9"/>
   </g>
   <g id="patch_14">
    <path d="M 165.938898 72.183125 
L 172.22918 72.183125 
L 172.22918 58.380881 
L 165.938898 58.380881 
z
" clip-path="url(#pa967754494)" style="fill: #a5a58c; opacity: 0.9"/>
   </g>
   <g id="patch_15">
    <path d="M 187.372453 72.183125 
L 193.662735 72.183125 
L 193.662735 59.22729 
L 187.372453 59.22729 
z
" clip-path="url(#pa967754494)" style="fill: #cc9981; opacity: 0.9"/>
   </g>
   <g id="patch_16">
    <path d="M 195.759496 72.183125 
L 202.049778 72.183125 
L 202.049778 49.128016 
L 195.759496 49.128016 
z
" clip-path="url(#pa967754494)" style="fill: #debfaa; opacity: 0.9"/>
   </g>
   <g id="patch_17">
    <path d="M 204.146539 72.183125 
L 210.436821 72.183125 
L 210.436821 47.340194 
L 204.146539 47.340194 
z
" clip-path="url(#pa967754494)" style="fill: #b7b8a3; opacity: 0.9"/>
   </g>
   <g id="patch_18">
    <path d="M 212.533582 72.183125 
L 218.823864 72.183125 
L 218.823864 53.291676 
L 212.533582 53.291676 
z
" clip-path="url(#pa967754494)" style="fill: #a5a58c; opacity: 0.9"/>
   </g>
   <g id="patch_19">
    <path d="M 233.967136 72.183125 
L 240.257418 72.183125 
L 240.257418 38.698461 
L 233.967136 38.698461 
z
" clip-path="url(#pa967754494)" style="fill: #cc9981; opacity: 0.9"/>
   </g>
   <g id="patch_20">
    <path d="M 242.354179 72.183125 
L 248.644461 72.183125 
L 248.644461 39.132179 
L 242.354179 39.132179 
z
" clip-path="url(#pa967754494)" style="fill: #debfaa; opacity: 0.9"/>
   </g>
   <g id="patch_21">
    <path d="M 250.741222 72.183125 
L 257.031504 72.183125 
L 257.031504 14.408354 
L 250.741222 14.408354 
z
" clip-path="url(#pa967754494)" style="fill: #b7b8a3; opacity: 0.9"/>
   </g>
   <g id="patch_22">
    <path d="M 259.128265 72.183125 
L 265.418547 72.183125 
L 265.418547 54.766328 
L 259.128265 54.766328 
z
" clip-path="url(#pa967754494)" style="fill: #a5a58c; opacity: 0.9"/>
   </g>
   <g id="patch_23">
    <path d="M 280.56182 72.183125 
L 286.852102 72.183125 
L 286.852102 57.188295 
L 280.56182 57.188295 
z
" clip-path="url(#pa967754494)" style="fill: #cc9981; opacity: 0.9"/>
   </g>
   <g id="patch_24">
    <path d="M 288.948863 72.183125 
L 295.239145 72.183125 
L 295.239145 57.455736 
L 288.948863 57.455736 
z
" clip-path="url(#pa967754494)" style="fill: #debfaa; opacity: 0.9"/>
   </g>
   <g id="patch_25">
    <path d="M 297.335906 72.183125 
L 303.626188 72.183125 
L 303.626188 31.069882 
L 297.335906 31.069882 
z
" clip-path="url(#pa967754494)" style="fill: #b7b8a3; opacity: 0.9"/>
   </g>
   <g id="patch_26">
    <path d="M 305.722949 72.183125 
L 312.013231 72.183125 
L 312.013231 35.891572 
L 305.722949 35.891572 
z
" clip-path="url(#pa967754494)" style="fill: #a5a58c; opacity: 0.9"/>
   </g>
   <g id="patch_27">
    <path d="M 327.156503 72.183125 
L 333.446785 72.183125 
L 333.446785 31.517959 
L 327.156503 31.517959 
z
" clip-path="url(#pa967754494)" style="fill: #cc9981; opacity: 0.9"/>
   </g>
   <g id="patch_28">
    <path d="M 335.543546 72.183125 
L 341.833828 72.183125 
L 341.833828 43.623023 
L 335.543546 43.623023 
z
" clip-path="url(#pa967754494)" style="fill: #debfaa; opacity: 0.9"/>
   </g>
   <g id="patch_29">
    <path d="M 343.930589 72.183125 
L 350.220872 72.183125 
L 350.220872 52.001596 
L 343.930589 52.001596 
z
" clip-path="url(#pa967754494)" style="fill: #b7b8a3; opacity: 0.9"/>
   </g>
   <g id="patch_30">
    <path d="M 352.317632 72.183125 
L 358.607915 72.183125 
L 358.607915 59.805523 
L 352.317632 59.805523 
z
" clip-path="url(#pa967754494)" style="fill: #a5a58c; opacity: 0.9"/>
   </g>
   <g id="patch_31">
    <path d="M 373.751187 72.183125 
L 380.041469 72.183125 
L 380.041469 63.076557 
L 373.751187 63.076557 
z
" clip-path="url(#pa967754494)" style="fill: #cc9981; opacity: 0.9"/>
   </g>
   <g id="patch_32">
    <path d="M 382.13823 72.183125 
L 388.428512 72.183125 
L 388.428512 62.002401 
L 382.13823 62.002401 
z
" clip-path="url(#pa967754494)" style="fill: #debfaa; opacity: 0.9"/>
   </g>
   <g id="patch_33">
    <path d="M 390.525273 72.183125 
L 396.815555 72.183125 
L 396.815555 53.711726 
L 390.525273 53.711726 
z
" clip-path="url(#pa967754494)" style="fill: #b7b8a3; opacity: 0.9"/>
   </g>
   <g id="patch_34">
    <path d="M 398.912316 72.183125 
L 405.202598 72.183125 
L 405.202598 55.410005 
L 398.912316 55.410005 
z
" clip-path="url(#pa967754494)" style="fill: #a5a58c; opacity: 0.9"/>
   </g>
   <g id="matplotlib.axis_1">
    <g id="xtick_1">
     <g id="line2d_1">
      <defs>
       <path id="m078b431268" d="M 0 0 
L 0 3.5 
" style="stroke: #000000; stroke-width: 0.8"/>
      </defs>
      <g>
       <use xlink:href="#m078b431268" x="63.314108" y="72.183125" style="stroke: #000000; stroke-width: 0.8"/>
      </g>
     </g>
     <g id="text_1">
      <!-- SkateFormer -->
      <g transform="translate(40.198483 84.909375) scale(0.08 -0.08)">
       <defs>
        <path id="ArialMT-53" d="M 288 1472 
L 859 1522 
Q 900 1178 1048 958 
Q 1197 738 1509 602 
Q 1822 466 2213 466 
Q 2559 466 2825 569 
Q 3091 672 3220 851 
Q 3350 1031 3350 1244 
Q 3350 1459 3225 1620 
Q 3100 1781 2813 1891 
Q 2628 1963 1997 2114 
Q 1366 2266 1113 2400 
Q 784 2572 623 2826 
Q 463 3081 463 3397 
Q 463 3744 659 4045 
Q 856 4347 1234 4503 
Q 1613 4659 2075 4659 
Q 2584 4659 2973 4495 
Q 3363 4331 3572 4012 
Q 3781 3694 3797 3291 
L 3216 3247 
Q 3169 3681 2898 3903 
Q 2628 4125 2100 4125 
Q 1550 4125 1298 3923 
Q 1047 3722 1047 3438 
Q 1047 3191 1225 3031 
Q 1400 2872 2139 2705 
Q 2878 2538 3153 2413 
Q 3553 2228 3743 1945 
Q 3934 1663 3934 1294 
Q 3934 928 3725 604 
Q 3516 281 3123 101 
Q 2731 -78 2241 -78 
Q 1619 -78 1198 103 
Q 778 284 539 648 
Q 300 1013 288 1472 
z
" transform="scale(0.015625)"/>
        <path id="ArialMT-6b" d="M 425 0 
L 425 4581 
L 988 4581 
L 988 1969 
L 2319 3319 
L 3047 3319 
L 1778 2088 
L 3175 0 
L 2481 0 
L 1384 1697 
L 988 1316 
L 988 0 
L 425 0 
z
" transform="scale(0.015625)"/>
        <path id="ArialMT-61" d="M 2588 409 
Q 2275 144 1986 34 
Q 1697 -75 1366 -75 
Q 819 -75 525 192 
Q 231 459 231 875 
Q 231 1119 342 1320 
Q 453 1522 633 1644 
Q 813 1766 1038 1828 
Q 1203 1872 1538 1913 
Q 2219 1994 2541 2106 
Q 2544 2222 2544 2253 
Q 2544 2597 2384 2738 
Q 2169 2928 1744 2928 
Q 1347 2928 1158 2789 
Q 969 2650 878 2297 
L 328 2372 
Q 403 2725 575 2942 
Q 747 3159 1072 3276 
Q 1397 3394 1825 3394 
Q 2250 3394 2515 3294 
Q 2781 3194 2906 3042 
Q 3031 2891 3081 2659 
Q 3109 2516 3109 2141 
L 3109 1391 
Q 3109 606 3145 398 
Q 3181 191 3288 0 
L 2700 0 
Q 2613 175 2588 409 
z
M 2541 1666 
Q 2234 1541 1622 1453 
Q 1275 1403 1131 1340 
Q 988 1278 909 1158 
Q 831 1038 831 891 
Q 831 666 1001 516 
Q 1172 366 1500 366 
Q 1825 366 2078 508 
Q 2331 650 2450 897 
Q 2541 1088 2541 1459 
L 2541 1666 
z
" transform="scale(0.015625)"/>
        <path id="ArialMT-74" d="M 1650 503 
L 1731 6 
Q 1494 -44 1306 -44 
Q 1000 -44 831 53 
Q 663 150 594 308 
Q 525 466 525 972 
L 525 2881 
L 113 2881 
L 113 3319 
L 525 3319 
L 525 4141 
L 1084 4478 
L 1084 3319 
L 1650 3319 
L 1650 2881 
L 1084 2881 
L 1084 941 
Q 1084 700 1114 631 
Q 1144 563 1211 522 
Q 1278 481 1403 481 
Q 1497 481 1650 503 
z
" transform="scale(0.015625)"/>
        <path id="ArialMT-65" d="M 2694 1069 
L 3275 997 
Q 3138 488 2766 206 
Q 2394 -75 1816 -75 
Q 1088 -75 661 373 
Q 234 822 234 1631 
Q 234 2469 665 2931 
Q 1097 3394 1784 3394 
Q 2450 3394 2872 2941 
Q 3294 2488 3294 1666 
Q 3294 1616 3291 1516 
L 816 1516 
Q 847 969 1125 678 
Q 1403 388 1819 388 
Q 2128 388 2347 550 
Q 2566 713 2694 1069 
z
M 847 1978 
L 2700 1978 
Q 2663 2397 2488 2606 
Q 2219 2931 1791 2931 
Q 1403 2931 1139 2672 
Q 875 2413 847 1978 
z
" transform="scale(0.015625)"/>
        <path id="ArialMT-46" d="M 525 0 
L 525 4581 
L 3616 4581 
L 3616 4041 
L 1131 4041 
L 1131 2622 
L 3281 2622 
L 3281 2081 
L 1131 2081 
L 1131 0 
L 525 0 
z
" transform="scale(0.015625)"/>
        <path id="ArialMT-6f" d="M 213 1659 
Q 213 2581 725 3025 
Q 1153 3394 1769 3394 
Q 2453 3394 2887 2945 
Q 3322 2497 3322 1706 
Q 3322 1066 3130 698 
Q 2938 331 2570 128 
Q 2203 -75 1769 -75 
Q 1072 -75 642 372 
Q 213 819 213 1659 
z
M 791 1659 
Q 791 1022 1069 705 
Q 1347 388 1769 388 
Q 2188 388 2466 706 
Q 2744 1025 2744 1678 
Q 2744 2294 2464 2611 
Q 2184 2928 1769 2928 
Q 1347 2928 1069 2612 
Q 791 2297 791 1659 
z
" transform="scale(0.015625)"/>
        <path id="ArialMT-72" d="M 416 0 
L 416 3319 
L 922 3319 
L 922 2816 
Q 1116 3169 1280 3281 
Q 1444 3394 1641 3394 
Q 1925 3394 2219 3213 
L 2025 2691 
Q 1819 2813 1613 2813 
Q 1428 2813 1281 2702 
Q 1134 2591 1072 2394 
Q 978 2094 978 1738 
L 978 0 
L 416 0 
z
" transform="scale(0.015625)"/>
        <path id="ArialMT-6d" d="M 422 0 
L 422 3319 
L 925 3319 
L 925 2853 
Q 1081 3097 1340 3245 
Q 1600 3394 1931 3394 
Q 2300 3394 2536 3241 
Q 2772 3088 2869 2813 
Q 3263 3394 3894 3394 
Q 4388 3394 4653 3120 
Q 4919 2847 4919 2278 
L 4919 0 
L 4359 0 
L 4359 2091 
Q 4359 2428 4304 2576 
Q 4250 2725 4106 2815 
Q 3963 2906 3769 2906 
Q 3419 2906 3187 2673 
Q 2956 2441 2956 1928 
L 2956 0 
L 2394 0 
L 2394 2156 
Q 2394 2531 2256 2718 
Q 2119 2906 1806 2906 
Q 1569 2906 1367 2781 
Q 1166 2656 1075 2415 
Q 984 2175 984 1722 
L 984 0 
L 422 0 
z
" transform="scale(0.015625)"/>
       </defs>
       <use xlink:href="#ArialMT-53"/>
       <use xlink:href="#ArialMT-6b" x="66.699219"/>
       <use xlink:href="#ArialMT-61" x="116.699219"/>
       <use xlink:href="#ArialMT-74" x="172.314453"/>
       <use xlink:href="#ArialMT-65" x="200.097656"/>
       <use xlink:href="#ArialMT-46" x="255.712891"/>
       <use xlink:href="#ArialMT-6f" x="316.796875"/>
       <use xlink:href="#ArialMT-72" x="372.412109"/>
       <use xlink:href="#ArialMT-6d" x="405.712891"/>
       <use xlink:href="#ArialMT-65" x="489.013672"/>
       <use xlink:href="#ArialMT-72" x="544.628906"/>
      </g>
     </g>
    </g>
    <g id="xtick_2">
     <g id="line2d_2">
      <g>
       <use xlink:href="#m078b431268" x="109.908791" y="72.183125" style="stroke: #000000; stroke-width: 0.8"/>
      </g>
     </g>
     <g id="text_2">
      <!-- HD-GCN -->
      <g transform="translate(93.910666 84.909375) scale(0.08 -0.08)">
       <defs>
        <path id="ArialMT-48" d="M 513 0 
L 513 4581 
L 1119 4581 
L 1119 2700 
L 3500 2700 
L 3500 4581 
L 4106 4581 
L 4106 0 
L 3500 0 
L 3500 2159 
L 1119 2159 
L 1119 0 
L 513 0 
z
" transform="scale(0.015625)"/>
        <path id="ArialMT-44" d="M 494 0 
L 494 4581 
L 2072 4581 
Q 2606 4581 2888 4516 
Q 3281 4425 3559 4188 
Q 3922 3881 4101 3404 
Q 4281 2928 4281 2316 
Q 4281 1794 4159 1391 
Q 4038 988 3847 723 
Q 3656 459 3429 307 
Q 3203 156 2883 78 
Q 2563 0 2147 0 
L 494 0 
z
M 1100 541 
L 2078 541 
Q 2531 541 2789 625 
Q 3047 709 3200 863 
Q 3416 1078 3536 1442 
Q 3656 1806 3656 2325 
Q 3656 3044 3420 3430 
Q 3184 3816 2847 3947 
Q 2603 4041 2063 4041 
L 1100 4041 
L 1100 541 
z
" transform="scale(0.015625)"/>
        <path id="ArialMT-2d" d="M 203 1375 
L 203 1941 
L 1931 1941 
L 1931 1375 
L 203 1375 
z
" transform="scale(0.015625)"/>
        <path id="ArialMT-47" d="M 2638 1797 
L 2638 2334 
L 4578 2338 
L 4578 638 
Q 4131 281 3656 101 
Q 3181 -78 2681 -78 
Q 2006 -78 1454 211 
Q 903 500 622 1047 
Q 341 1594 341 2269 
Q 341 2938 620 3517 
Q 900 4097 1425 4378 
Q 1950 4659 2634 4659 
Q 3131 4659 3532 4498 
Q 3934 4338 4162 4050 
Q 4391 3763 4509 3300 
L 3963 3150 
Q 3859 3500 3706 3700 
Q 3553 3900 3268 4020 
Q 2984 4141 2638 4141 
Q 2222 4141 1919 4014 
Q 1616 3888 1430 3681 
Q 1244 3475 1141 3228 
Q 966 2803 966 2306 
Q 966 1694 1177 1281 
Q 1388 869 1791 669 
Q 2194 469 2647 469 
Q 3041 469 3416 620 
Q 3791 772 3984 944 
L 3984 1797 
L 2638 1797 
z
" transform="scale(0.015625)"/>
        <path id="ArialMT-43" d="M 3763 1606 
L 4369 1453 
Q 4178 706 3683 314 
Q 3188 -78 2472 -78 
Q 1731 -78 1267 223 
Q 803 525 561 1097 
Q 319 1669 319 2325 
Q 319 3041 592 3573 
Q 866 4106 1370 4382 
Q 1875 4659 2481 4659 
Q 3169 4659 3637 4309 
Q 4106 3959 4291 3325 
L 3694 3184 
Q 3534 3684 3231 3912 
Q 2928 4141 2469 4141 
Q 1941 4141 1586 3887 
Q 1231 3634 1087 3207 
Q 944 2781 944 2328 
Q 944 1744 1114 1308 
Q 1284 872 1643 656 
Q 2003 441 2422 441 
Q 2931 441 3284 734 
Q 3638 1028 3763 1606 
z
" transform="scale(0.015625)"/>
        <path id="ArialMT-4e" d="M 488 0 
L 488 4581 
L 1109 4581 
L 3516 984 
L 3516 4581 
L 4097 4581 
L 4097 0 
L 3475 0 
L 1069 3600 
L 1069 0 
L 488 0 
z
" transform="scale(0.015625)"/>
       </defs>
       <use xlink:href="#ArialMT-48"/>
       <use xlink:href="#ArialMT-44" x="72.216797"/>
       <use xlink:href="#ArialMT-2d" x="144.433594"/>
       <use xlink:href="#ArialMT-47" x="177.734375"/>
       <use xlink:href="#ArialMT-43" x="255.517578"/>
       <use xlink:href="#ArialMT-4e" x="327.734375"/>
      </g>
     </g>
    </g>
    <g id="xtick_3">
     <g id="line2d_3">
      <g>
       <use xlink:href="#m078b431268" x="156.503475" y="72.183125" style="stroke: #000000; stroke-width: 0.8"/>
      </g>
     </g>
     <g id="text_3">
      <!-- FR-Head -->
      <g transform="translate(140.27785 84.909375) scale(0.08 -0.08)">
       <defs>
        <path id="ArialMT-52" d="M 503 0 
L 503 4581 
L 2534 4581 
Q 3147 4581 3465 4457 
Q 3784 4334 3975 4021 
Q 4166 3709 4166 3331 
Q 4166 2844 3850 2509 
Q 3534 2175 2875 2084 
Q 3116 1969 3241 1856 
Q 3506 1613 3744 1247 
L 4541 0 
L 3778 0 
L 3172 953 
Q 2906 1366 2734 1584 
Q 2563 1803 2427 1890 
Q 2291 1978 2150 2013 
Q 2047 2034 1813 2034 
L 1109 2034 
L 1109 0 
L 503 0 
z
M 1109 2559 
L 2413 2559 
Q 2828 2559 3062 2645 
Q 3297 2731 3419 2920 
Q 3541 3109 3541 3331 
Q 3541 3656 3305 3865 
Q 3069 4075 2559 4075 
L 1109 4075 
L 1109 2559 
z
" transform="scale(0.015625)"/>
        <path id="ArialMT-64" d="M 2575 0 
L 2575 419 
Q 2259 -75 1647 -75 
Q 1250 -75 917 144 
Q 584 363 401 755 
Q 219 1147 219 1656 
Q 219 2153 384 2558 
Q 550 2963 881 3178 
Q 1213 3394 1622 3394 
Q 1922 3394 2156 3267 
Q 2391 3141 2538 2938 
L 2538 4581 
L 3097 4581 
L 3097 0 
L 2575 0 
z
M 797 1656 
Q 797 1019 1065 703 
Q 1334 388 1700 388 
Q 2069 388 2326 689 
Q 2584 991 2584 1609 
Q 2584 2291 2321 2609 
Q 2059 2928 1675 2928 
Q 1300 2928 1048 2622 
Q 797 2316 797 1656 
z
" transform="scale(0.015625)"/>
       </defs>
       <use xlink:href="#ArialMT-46"/>
       <use xlink:href="#ArialMT-52" x="61.083984"/>
       <use xlink:href="#ArialMT-2d" x="133.300781"/>
       <use xlink:href="#ArialMT-48" x="166.601562"/>
       <use xlink:href="#ArialMT-65" x="238.818359"/>
       <use xlink:href="#ArialMT-61" x="294.433594"/>
       <use xlink:href="#ArialMT-64" x="350.048828"/>
      </g>
     </g>
    </g>
    <g id="xtick_4">
     <g id="line2d_4">
      <g>
       <use xlink:href="#m078b431268" x="203.098158" y="72.183125" style="stroke: #000000; stroke-width: 0.8"/>
      </g>
     </g>
     <g id="text_4">
      <!-- MotionBERT -->
      <g transform="translate(180.495033 84.909375) scale(0.08 -0.08)">
       <defs>
        <path id="ArialMT-4d" d="M 475 0 
L 475 4581 
L 1388 4581 
L 2472 1338 
Q 2622 884 2691 659 
Q 2769 909 2934 1394 
L 4031 4581 
L 4847 4581 
L 4847 0 
L 4263 0 
L 4263 3834 
L 2931 0 
L 2384 0 
L 1059 3900 
L 1059 0 
L 475 0 
z
" transform="scale(0.015625)"/>
        <path id="ArialMT-69" d="M 425 3934 
L 425 4581 
L 988 4581 
L 988 3934 
L 425 3934 
z
M 425 0 
L 425 3319 
L 988 3319 
L 988 0 
L 425 0 
z
" transform="scale(0.015625)"/>
        <path id="ArialMT-6e" d="M 422 0 
L 422 3319 
L 928 3319 
L 928 2847 
Q 1294 3394 1984 3394 
Q 2284 3394 2536 3286 
Q 2788 3178 2913 3003 
Q 3038 2828 3088 2588 
Q 3119 2431 3119 2041 
L 3119 0 
L 2556 0 
L 2556 2019 
Q 2556 2363 2490 2533 
Q 2425 2703 2258 2804 
Q 2091 2906 1866 2906 
Q 1506 2906 1245 2678 
Q 984 2450 984 1813 
L 984 0 
L 422 0 
z
" transform="scale(0.015625)"/>
        <path id="ArialMT-42" d="M 469 0 
L 469 4581 
L 2188 4581 
Q 2713 4581 3030 4442 
Q 3347 4303 3526 4014 
Q 3706 3725 3706 3409 
Q 3706 3116 3547 2856 
Q 3388 2597 3066 2438 
Q 3481 2316 3704 2022 
Q 3928 1728 3928 1328 
Q 3928 1006 3792 729 
Q 3656 453 3456 303 
Q 3256 153 2954 76 
Q 2653 0 2216 0 
L 469 0 
z
M 1075 2656 
L 2066 2656 
Q 2469 2656 2644 2709 
Q 2875 2778 2992 2937 
Q 3109 3097 3109 3338 
Q 3109 3566 3000 3739 
Q 2891 3913 2687 3977 
Q 2484 4041 1991 4041 
L 1075 4041 
L 1075 2656 
z
M 1075 541 
L 2216 541 
Q 2509 541 2628 563 
Q 2838 600 2978 687 
Q 3119 775 3209 942 
Q 3300 1109 3300 1328 
Q 3300 1584 3169 1773 
Q 3038 1963 2805 2039 
Q 2572 2116 2134 2116 
L 1075 2116 
L 1075 541 
z
" transform="scale(0.015625)"/>
        <path id="ArialMT-45" d="M 506 0 
L 506 4581 
L 3819 4581 
L 3819 4041 
L 1113 4041 
L 1113 2638 
L 3647 2638 
L 3647 2100 
L 1113 2100 
L 1113 541 
L 3925 541 
L 3925 0 
L 506 0 
z
" transform="scale(0.015625)"/>
        <path id="ArialMT-54" d="M 1659 0 
L 1659 4041 
L 150 4041 
L 150 4581 
L 3781 4581 
L 3781 4041 
L 2266 4041 
L 2266 0 
L 1659 0 
z
" transform="scale(0.015625)"/>
       </defs>
       <use xlink:href="#ArialMT-4d"/>
       <use xlink:href="#ArialMT-6f" x="83.300781"/>
       <use xlink:href="#ArialMT-74" x="138.916016"/>
       <use xlink:href="#ArialMT-69" x="166.699219"/>
       <use xlink:href="#ArialMT-6f" x="188.916016"/>
       <use xlink:href="#ArialMT-6e" x="244.53125"/>
       <use xlink:href="#ArialMT-42" x="300.146484"/>
       <use xlink:href="#ArialMT-45" x="366.845703"/>
       <use xlink:href="#ArialMT-52" x="433.544922"/>
       <use xlink:href="#ArialMT-54" x="504.011719"/>
      </g>
     </g>
    </g>
    <g id="xtick_5">
     <g id="line2d_5">
      <g>
       <use xlink:href="#m078b431268" x="249.692842" y="72.183125" style="stroke: #000000; stroke-width: 0.8"/>
      </g>
     </g>
     <g id="text_5">
      <!-- SkeleT-GCN -->
      <g transform="translate(227.243467 84.909375) scale(0.08 -0.08)">
       <defs>
        <path id="ArialMT-6c" d="M 409 0 
L 409 4581 
L 972 4581 
L 972 0 
L 409 0 
z
" transform="scale(0.015625)"/>
       </defs>
       <use xlink:href="#ArialMT-53"/>
       <use xlink:href="#ArialMT-6b" x="66.699219"/>
       <use xlink:href="#ArialMT-65" x="116.699219"/>
       <use xlink:href="#ArialMT-6c" x="172.314453"/>
       <use xlink:href="#ArialMT-65" x="194.53125"/>
       <use xlink:href="#ArialMT-54" x="250.146484"/>
       <use xlink:href="#ArialMT-2d" x="305.730469"/>
       <use xlink:href="#ArialMT-47" x="339.03125"/>
       <use xlink:href="#ArialMT-43" x="416.814453"/>
       <use xlink:href="#ArialMT-4e" x="489.03125"/>
      </g>
     </g>
    </g>
    <g id="xtick_6">
     <g id="line2d_6">
      <g>
       <use xlink:href="#m078b431268" x="296.287525" y="72.183125" style="stroke: #000000; stroke-width: 0.8"/>
      </g>
     </g>
     <g id="text_6">
      <!-- MMN -->
      <g transform="translate(286.735025 84.909375) scale(0.08 -0.08)">
       <use xlink:href="#ArialMT-4d"/>
       <use xlink:href="#ArialMT-4d" x="83.300781"/>
       <use xlink:href="#ArialMT-4e" x="166.601562"/>
      </g>
     </g>
    </g>
    <g id="xtick_7">
     <g id="line2d_7">
      <g>
       <use xlink:href="#m078b431268" x="342.882209" y="72.183125" style="stroke: #000000; stroke-width: 0.8"/>
      </g>
     </g>
     <g id="text_7">
      <!-- ProtoGCN -->
      <g transform="translate(324.433459 84.909375) scale(0.08 -0.08)">
       <defs>
        <path id="ArialMT-50" d="M 494 0 
L 494 4581 
L 2222 4581 
Q 2678 4581 2919 4538 
Q 3256 4481 3484 4323 
Q 3713 4166 3852 3881 
Q 3991 3597 3991 3256 
Q 3991 2672 3619 2267 
Q 3247 1863 2275 1863 
L 1100 1863 
L 1100 0 
L 494 0 
z
M 1100 2403 
L 2284 2403 
Q 2872 2403 3119 2622 
Q 3366 2841 3366 3238 
Q 3366 3525 3220 3729 
Q 3075 3934 2838 4000 
Q 2684 4041 2272 4041 
L 1100 4041 
L 1100 2403 
z
" transform="scale(0.015625)"/>
       </defs>
       <use xlink:href="#ArialMT-50"/>
       <use xlink:href="#ArialMT-72" x="66.699219"/>
       <use xlink:href="#ArialMT-6f" x="100"/>
       <use xlink:href="#ArialMT-74" x="155.615234"/>
       <use xlink:href="#ArialMT-6f" x="183.398438"/>
       <use xlink:href="#ArialMT-47" x="239.013672"/>
       <use xlink:href="#ArialMT-43" x="316.796875"/>
       <use xlink:href="#ArialMT-4e" x="389.013672"/>
      </g>
     </g>
    </g>
    <g id="xtick_8">
     <g id="line2d_8">
      <g>
       <use xlink:href="#m078b431268" x="389.476892" y="72.183125" style="stroke: #000000; stroke-width: 0.8"/>
      </g>
     </g>
     <g id="text_8">
      <!-- Ours -->
      <g transform="translate(380.809392 84.909375) scale(0.08 -0.08)">
       <defs>
        <path id="ArialMT-4f" d="M 309 2231 
Q 309 3372 921 4017 
Q 1534 4663 2503 4663 
Q 3138 4663 3647 4359 
Q 4156 4056 4423 3514 
Q 4691 2972 4691 2284 
Q 4691 1588 4409 1038 
Q 4128 488 3612 205 
Q 3097 -78 2500 -78 
Q 1853 -78 1343 234 
Q 834 547 571 1087 
Q 309 1628 309 2231 
z
M 934 2222 
Q 934 1394 1379 917 
Q 1825 441 2497 441 
Q 3181 441 3623 922 
Q 4066 1403 4066 2288 
Q 4066 2847 3877 3264 
Q 3688 3681 3323 3911 
Q 2959 4141 2506 4141 
Q 1863 4141 1398 3698 
Q 934 3256 934 2222 
z
" transform="scale(0.015625)"/>
        <path id="ArialMT-75" d="M 2597 0 
L 2597 488 
Q 2209 -75 1544 -75 
Q 1250 -75 995 37 
Q 741 150 617 320 
Q 494 491 444 738 
Q 409 903 409 1263 
L 409 3319 
L 972 3319 
L 972 1478 
Q 972 1038 1006 884 
Q 1059 663 1231 536 
Q 1403 409 1656 409 
Q 1909 409 2131 539 
Q 2353 669 2445 892 
Q 2538 1116 2538 1541 
L 2538 3319 
L 3100 3319 
L 3100 0 
L 2597 0 
z
" transform="scale(0.015625)"/>
        <path id="ArialMT-73" d="M 197 991 
L 753 1078 
Q 800 744 1014 566 
Q 1228 388 1613 388 
Q 2000 388 2187 545 
Q 2375 703 2375 916 
Q 2375 1106 2209 1216 
Q 2094 1291 1634 1406 
Q 1016 1563 777 1677 
Q 538 1791 414 1992 
Q 291 2194 291 2438 
Q 291 2659 392 2848 
Q 494 3038 669 3163 
Q 800 3259 1026 3326 
Q 1253 3394 1513 3394 
Q 1903 3394 2198 3281 
Q 2494 3169 2634 2976 
Q 2775 2784 2828 2463 
L 2278 2388 
Q 2241 2644 2061 2787 
Q 1881 2931 1553 2931 
Q 1166 2931 1000 2803 
Q 834 2675 834 2503 
Q 834 2394 903 2306 
Q 972 2216 1119 2156 
Q 1203 2125 1616 2013 
Q 2213 1853 2448 1751 
Q 2684 1650 2818 1456 
Q 2953 1263 2953 975 
Q 2953 694 2789 445 
Q 2625 197 2315 61 
Q 2006 -75 1616 -75 
Q 969 -75 630 194 
Q 291 463 197 991 
z
" transform="scale(0.015625)"/>
       </defs>
       <use xlink:href="#ArialMT-4f"/>
       <use xlink:href="#ArialMT-75" x="77.783203"/>
       <use xlink:href="#ArialMT-72" x="133.398438"/>
       <use xlink:href="#ArialMT-73" x="166.699219"/>
      </g>
     </g>
    </g>
   </g>
   <g id="matplotlib.axis_2">
    <g id="ytick_1">
     <g id="line2d_9">
      <defs>
       <path id="m0f7876a69b" d="M 0 0 
L -3.5 0 
" style="stroke: #000000; stroke-width: 0.8"/>
      </defs>
      <g>
       <use xlink:href="#m0f7876a69b" x="42.3465" y="72.183125" style="stroke: #000000; stroke-width: 0.8"/>
      </g>
     </g>
     <g id="text_9">
      <!-- 0.00 -->
      <g transform="translate(19.77775 75.04625) scale(0.08 -0.08)">
       <defs>
        <path id="ArialMT-30" d="M 266 2259 
Q 266 3072 433 3567 
Q 600 4063 929 4331 
Q 1259 4600 1759 4600 
Q 2128 4600 2406 4451 
Q 2684 4303 2865 4023 
Q 3047 3744 3150 3342 
Q 3253 2941 3253 2259 
Q 3253 1453 3087 958 
Q 2922 463 2592 192 
Q 2263 -78 1759 -78 
Q 1097 -78 719 397 
Q 266 969 266 2259 
z
M 844 2259 
Q 844 1131 1108 757 
Q 1372 384 1759 384 
Q 2147 384 2411 759 
Q 2675 1134 2675 2259 
Q 2675 3391 2411 3762 
Q 2147 4134 1753 4134 
Q 1366 4134 1134 3806 
Q 844 3388 844 2259 
z
" transform="scale(0.015625)"/>
        <path id="ArialMT-2e" d="M 581 0 
L 581 641 
L 1222 641 
L 1222 0 
L 581 0 
z
" transform="scale(0.015625)"/>
       </defs>
       <use xlink:href="#ArialMT-30"/>
       <use xlink:href="#ArialMT-2e" x="55.615234"/>
       <use xlink:href="#ArialMT-30" x="83.398438"/>
       <use xlink:href="#ArialMT-30" x="139.013672"/>
      </g>
     </g>
    </g>
    <g id="ytick_2">
     <g id="line2d_10">
      <g>
       <use xlink:href="#m0f7876a69b" x="42.3465" y="49.076458" style="stroke: #000000; stroke-width: 0.8"/>
      </g>
     </g>
     <g id="text_10">
      <!-- 0.05 -->
      <g transform="translate(19.77775 51.939583) scale(0.08 -0.08)">
       <defs>
        <path id="ArialMT-35" d="M 266 1200 
L 856 1250 
Q 922 819 1161 601 
Q 1400 384 1738 384 
Q 2144 384 2425 690 
Q 2706 997 2706 1503 
Q 2706 1984 2436 2262 
Q 2166 2541 1728 2541 
Q 1456 2541 1237 2417 
Q 1019 2294 894 2097 
L 366 2166 
L 809 4519 
L 3088 4519 
L 3088 3981 
L 1259 3981 
L 1013 2750 
Q 1425 3038 1878 3038 
Q 2478 3038 2890 2622 
Q 3303 2206 3303 1553 
Q 3303 931 2941 478 
Q 2500 -78 1738 -78 
Q 1113 -78 717 272 
Q 322 622 266 1200 
z
" transform="scale(0.015625)"/>
       </defs>
       <use xlink:href="#ArialMT-30"/>
       <use xlink:href="#ArialMT-2e" x="55.615234"/>
       <use xlink:href="#ArialMT-30" x="83.398438"/>
       <use xlink:href="#ArialMT-35" x="139.013672"/>
      </g>
     </g>
    </g>
    <g id="ytick_3">
     <g id="line2d_11">
      <g>
       <use xlink:href="#m0f7876a69b" x="42.3465" y="25.969792" style="stroke: #000000; stroke-width: 0.8"/>
      </g>
     </g>
     <g id="text_11">
      <!-- 0.10 -->
      <g transform="translate(19.77775 28.832917) scale(0.08 -0.08)">
       <defs>
        <path id="ArialMT-31" d="M 2384 0 
L 1822 0 
L 1822 3584 
Q 1619 3391 1289 3197 
Q 959 3003 697 2906 
L 697 3450 
Q 1169 3672 1522 3987 
Q 1875 4303 2022 4600 
L 2384 4600 
L 2384 0 
z
" transform="scale(0.015625)"/>
       </defs>
       <use xlink:href="#ArialMT-30"/>
       <use xlink:href="#ArialMT-2e" x="55.615234"/>
       <use xlink:href="#ArialMT-31" x="83.398438"/>
       <use xlink:href="#ArialMT-30" x="139.013672"/>
      </g>
     </g>
    </g>
    <g id="ytick_4">
     <g id="line2d_12">
      <g>
       <use xlink:href="#m0f7876a69b" x="42.3465" y="2.863125" style="stroke: #000000; stroke-width: 0.8"/>
      </g>
     </g>
     <g id="text_12">
      <!-- 0.15 -->
      <g transform="translate(19.77775 5.72625) scale(0.08 -0.08)">
       <use xlink:href="#ArialMT-30"/>
       <use xlink:href="#ArialMT-2e" x="55.615234"/>
       <use xlink:href="#ArialMT-31" x="83.398438"/>
       <use xlink:href="#ArialMT-35" x="139.013672"/>
      </g>
     </g>
    </g>
    <g id="text_13">
     <!-- Inter-center SD -->
     <g transform="translate(5.72625 64.6425) rotate(-90) scale(0.08 -0.08)">
      <defs>
       <path id="ArialMT-49" d="M 597 0 
L 597 4581 
L 1203 4581 
L 1203 0 
L 597 0 
z
" transform="scale(0.015625)"/>
       <path id="ArialMT-63" d="M 2588 1216 
L 3141 1144 
Q 3050 572 2676 248 
Q 2303 -75 1759 -75 
Q 1078 -75 664 370 
Q 250 816 250 1647 
Q 250 2184 428 2587 
Q 606 2991 970 3192 
Q 1334 3394 1763 3394 
Q 2303 3394 2647 3120 
Q 2991 2847 3088 2344 
L 2541 2259 
Q 2463 2594 2264 2762 
Q 2066 2931 1784 2931 
Q 1359 2931 1093 2626 
Q 828 2322 828 1663 
Q 828 994 1084 691 
Q 1341 388 1753 388 
Q 2084 388 2306 591 
Q 2528 794 2588 1216 
z
" transform="scale(0.015625)"/>
       <path id="ArialMT-20" transform="scale(0.015625)"/>
      </defs>
      <use xlink:href="#ArialMT-49"/>
      <use xlink:href="#ArialMT-6e" x="27.783203"/>
      <use xlink:href="#ArialMT-74" x="83.398438"/>
      <use xlink:href="#ArialMT-65" x="111.181641"/>
      <use xlink:href="#ArialMT-72" x="166.796875"/>
      <use xlink:href="#ArialMT-2d" x="200.097656"/>
      <use xlink:href="#ArialMT-63" x="233.398438"/>
      <use xlink:href="#ArialMT-65" x="283.398438"/>
      <use xlink:href="#ArialMT-6e" x="339.013672"/>
      <use xlink:href="#ArialMT-74" x="394.628906"/>
      <use xlink:href="#ArialMT-65" x="422.412109"/>
      <use xlink:href="#ArialMT-72" x="478.027344"/>
      <use xlink:href="#ArialMT-20" x="511.328125"/>
      <use xlink:href="#ArialMT-53" x="539.111328"/>
      <use xlink:href="#ArialMT-44" x="605.810547"/>
     </g>
     <!-- of AUROC -->
     <g transform="translate(14.18775 56.195625) rotate(-90) scale(0.08 -0.08)">
      <defs>
       <path id="ArialMT-66" d="M 556 0 
L 556 2881 
L 59 2881 
L 59 3319 
L 556 3319 
L 556 3672 
Q 556 4006 616 4169 
Q 697 4388 901 4523 
Q 1106 4659 1475 4659 
Q 1713 4659 2000 4603 
L 1916 4113 
Q 1741 4144 1584 4144 
Q 1328 4144 1222 4034 
Q 1116 3925 1116 3625 
L 1116 3319 
L 1763 3319 
L 1763 2881 
L 1116 2881 
L 1116 0 
L 556 0 
z
" transform="scale(0.015625)"/>
       <path id="ArialMT-41" d="M -9 0 
L 1750 4581 
L 2403 4581 
L 4278 0 
L 3588 0 
L 3053 1388 
L 1138 1388 
L 634 0 
L -9 0 
z
M 1313 1881 
L 2866 1881 
L 2388 3150 
Q 2169 3728 2063 4100 
Q 1975 3659 1816 3225 
L 1313 1881 
z
" transform="scale(0.015625)"/>
       <path id="ArialMT-55" d="M 3500 4581 
L 4106 4581 
L 4106 1934 
Q 4106 1244 3950 837 
Q 3794 431 3386 176 
Q 2978 -78 2316 -78 
Q 1672 -78 1262 144 
Q 853 366 678 786 
Q 503 1206 503 1934 
L 503 4581 
L 1109 4581 
L 1109 1938 
Q 1109 1341 1220 1058 
Q 1331 775 1601 622 
Q 1872 469 2263 469 
Q 2931 469 3215 772 
Q 3500 1075 3500 1938 
L 3500 4581 
z
" transform="scale(0.015625)"/>
      </defs>
      <use xlink:href="#ArialMT-6f"/>
      <use xlink:href="#ArialMT-66" x="55.615234"/>
      <use xlink:href="#ArialMT-20" x="83.398438"/>
      <use xlink:href="#ArialMT-41" x="105.681641"/>
      <use xlink:href="#ArialMT-55" x="172.380859"/>
      <use xlink:href="#ArialMT-52" x="244.597656"/>
      <use xlink:href="#ArialMT-4f" x="316.814453"/>
      <use xlink:href="#ArialMT-43" x="394.597656"/>
     </g>
    </g>
   </g>
   <g id="LineCollection_1">
    <path d="M 47.005968 51.072383 
L 79.622247 51.072383 
" clip-path="url(#pa967754494)" style="fill: none; stroke-dasharray: 3.7,1.6; stroke-dashoffset: 0; stroke: #8b4513; stroke-opacity: 0.8"/>
   </g>
   <g id="LineCollection_2">
    <path d="M 93.600652 34.194071 
L 126.21693 34.194071 
" clip-path="url(#pa967754494)" style="fill: none; stroke-dasharray: 3.7,1.6; stroke-dashoffset: 0; stroke: #8b4513; stroke-opacity: 0.8"/>
   </g>
   <g id="LineCollection_3">
    <path d="M 140.195335 43.884526 
L 172.811614 43.884526 
" clip-path="url(#pa967754494)" style="fill: none; stroke-dasharray: 3.7,1.6; stroke-dashoffset: 0; stroke: #8b4513; stroke-opacity: 0.8"/>
   </g>
   <g id="LineCollection_4">
    <path d="M 186.790019 52.246794 
L 219.406297 52.246794 
" clip-path="url(#pa967754494)" style="fill: none; stroke-dasharray: 3.7,1.6; stroke-dashoffset: 0; stroke: #8b4513; stroke-opacity: 0.8"/>
   </g>
   <g id="LineCollection_5">
    <path d="M 233.384703 36.751331 
L 266.000981 36.751331 
" clip-path="url(#pa967754494)" style="fill: none; stroke-dasharray: 3.7,1.6; stroke-dashoffset: 0; stroke: #8b4513; stroke-opacity: 0.8"/>
   </g>
   <g id="LineCollection_6">
    <path d="M 279.979386 45.401372 
L 312.595665 45.401372 
" clip-path="url(#pa967754494)" style="fill: none; stroke-dasharray: 3.7,1.6; stroke-dashoffset: 0; stroke: #8b4513; stroke-opacity: 0.8"/>
   </g>
   <g id="LineCollection_7">
    <path d="M 326.57407 46.737025 
L 359.190348 46.737025 
" clip-path="url(#pa967754494)" style="fill: none; stroke-dasharray: 3.7,1.6; stroke-dashoffset: 0; stroke: #8b4513; stroke-opacity: 0.8"/>
   </g>
   <g id="LineCollection_8">
    <path d="M 373.168753 58.550173 
L 405.785032 58.550173 
" clip-path="url(#pa967754494)" style="fill: none; stroke-dasharray: 3.7,1.6; stroke-dashoffset: 0; stroke: #8b4513; stroke-opacity: 0.8"/>
   </g>
   <g id="patch_35">
    <path d="M 42.3465 72.183125 
L 42.3465 2.863125 
" style="fill: none; stroke: #000000; stroke-width: 0.8; stroke-linejoin: miter; stroke-linecap: square"/>
   </g>
   <g id="patch_36">
    <path d="M 42.3465 72.183125 
L 410.4445 72.183125 
" style="fill: none; stroke: #000000; stroke-width: 0.8; stroke-linejoin: miter; stroke-linecap: square"/>
   </g>
  </g>
 </g>
 <defs>
  <clipPath id="pa967754494">
   <rect x="42.3465" y="2.863125" width="368.098" height="69.32"/>
  </clipPath>
 </defs>
</svg>
